<svg
                    width="16"
                    height="16"
                    viewBox="0 0 18 19"
                    fill="none"
                    xmlns="http://www.w3.org/2000/svg"
                  >
                    <g clip-path="url(#clip0_4168_3248)">
                      <path
                        d="M14.7598 6.01282L9.25302 2.86608C9.13261 2.79724 8.98475 2.79724 8.86432 2.86608L3.35753 6.01282C3.23547 6.08254 3.16016 6.21236 3.16016 6.3529V12.6464C3.16016 12.7869 3.23547 12.9167 3.35753 12.9865L8.86432 16.1332C8.92454 16.1676 8.9916 16.1848 9.05866 16.1848C9.12572 16.1848 9.1928 16.1676 9.253 16.1332L14.7598 12.9865C14.8818 12.9167 14.9572 12.7869 14.9572 12.6464V6.3529C14.9572 6.21233 14.8818 6.08254 14.7598 6.01282ZM9.05866 3.65733L13.7759 6.3529L9.05866 9.04849L4.3414 6.3529L9.05866 3.65733ZM3.94358 7.0279L8.66695 9.72696V15.1181L3.94358 12.4191V7.0279ZM9.45037 15.1181V9.72696L14.1737 7.0279V12.4191L9.45037 15.1181Z"
                        fill="#011A25"
                      />
                    </g>
                    <defs>
                      <clipPath id="clip0_4168_3248">
                        <rect
                          width="13.3704"
                          height="13.3704"
                          fill="white"
                          transform="translate(2.375 2.81445)"
                        />
                      </clipPath>
                    </defs>
                  </svg>