<svg width="44" height="44" viewBox="0 0 44 44" fill="none" xmlns="http://www.w3.org/2000/svg">
<g clip-path="url(#clip0_5094_220052)">
<rect width="44" height="44" fill="#D5D7E0"/>
<rect width="44" height="44" fill="#D5D7E0"/>
<g clip-path="url(#clip1_5094_220052)">
<path d="M7.43945 20.9406C7.1582 21.2219 7 21.6016 7 22V28C7 28.3984 7.1582 28.7791 7.43945 29.0603C7.7207 29.3416 8.10156 29.5 8.5 29.5H10V20.5H8.5C8.10156 20.5 7.72094 20.6594 7.43945 20.9406ZM28.75 14.5H23.5V11.5C23.5 10.6741 22.8259 10 22 10C21.1741 10 20.5 10.6741 20.5 11.5V14.5H15.25C13.1781 14.5 11.5 16.1781 11.5 18.25V31C11.5 32.6584 12.8416 34 14.5 34H29.5C31.1584 34 32.5 32.6584 32.5 31V18.25C32.5 16.1781 30.8266 14.5 28.75 14.5ZM19 29.5H16V28H19V29.5ZM17.5 23.875C16.4641 23.875 15.625 23.0359 15.625 22C15.625 20.9641 16.4641 20.125 17.5 20.125C18.5359 20.125 19.375 20.9641 19.375 22C19.375 23.0359 18.5359 23.875 17.5 23.875ZM23.5 29.5H20.5V28H23.5V29.5ZM28 29.5H25V28H28V29.5ZM26.5 23.875C25.4631 23.875 24.625 23.0369 24.625 22C24.625 20.9631 25.4641 20.125 26.5 20.125C27.5359 20.125 28.375 20.9641 28.375 22C28.375 23.0359 27.5359 23.875 26.5 23.875ZM36.5594 20.9406C36.2781 20.6594 35.8984 20.5 35.5 20.5H34V29.5H35.5C35.8984 29.5 36.2791 29.3418 36.5603 29.0605C36.8416 28.7793 37 28.3984 37 28V22C37 21.6016 36.8406 21.2219 36.5594 20.9406Z" fill="#ADB0BE"/>
</g>
</g>
<defs>
<clipPath id="clip0_5094_220052">
<rect width="44" height="44" fill="white"/>
</clipPath>
<clipPath id="clip1_5094_220052">
<rect width="30" height="24" fill="white" transform="translate(7 10)"/>
</clipPath>
</defs>
</svg>
