<svg width="20" height="20" viewBox="0 0 20 20" fill="none" xmlns="http://www.w3.org/2000/svg">
<path d="M13.3334 13.3335V15.6668C13.3334 16.6002 13.3334 17.0669 13.1518 17.4235C12.992 17.7371 12.737 17.992 12.4234 18.1518C12.0669 18.3335 11.6002 18.3335 10.6667 18.3335H4.33341C3.39999 18.3335 2.93328 18.3335 2.57676 18.1518C2.26316 17.992 2.00819 17.7371 1.8484 17.4235C1.66675 17.0669 1.66675 16.6002 1.66675 15.6668V9.33348C1.66675 8.40005 1.66675 7.93334 1.8484 7.57682C2.00819 7.26322 2.26316 7.00825 2.57676 6.84846C2.93328 6.66681 3.39999 6.66681 4.33341 6.66681H6.66675M9.33341 13.3335H15.6667C16.6002 13.3335 17.0669 13.3335 17.4234 13.1518C17.737 12.992 17.992 12.7371 18.1518 12.4235C18.3334 12.0669 18.3334 11.6002 18.3334 10.6668V4.33348C18.3334 3.40005 18.3334 2.93334 18.1518 2.57682C17.992 2.26322 17.737 2.00825 17.4234 1.84846C17.0669 1.66681 16.6002 1.66681 15.6667 1.66681H9.33341C8.39999 1.66681 7.93328 1.66681 7.57676 1.84846C7.26316 2.00825 7.00819 2.26322 6.8484 2.57682C6.66675 2.93334 6.66675 3.40005 6.66675 4.33348V10.6668C6.66675 11.6002 6.66675 12.0669 6.8484 12.4235C7.00819 12.7371 7.26316 12.992 7.57676 13.1518C7.93328 13.3335 8.39999 13.3335 9.33341 13.3335Z" stroke="#AFAFAF" stroke-width="1.66667" stroke-linecap="round" stroke-linejoin="round"/>
</svg>
