<svg width="16" height="16" viewBox="0 0 16 16" fill="none" xmlns="http://www.w3.org/2000/svg">
<g clip-path="url(#clip0_8076_1426)">
<path d="M7.33398 2.66617H4.53398C3.41388 2.66617 2.85383 2.66617 2.426 2.88415C2.04968 3.0759 1.74372 3.38186 1.55197 3.75819C1.33398 4.18601 1.33398 4.74606 1.33398 5.86617V11.4662C1.33398 12.5863 1.33398 13.1463 1.55197 13.5741C1.74372 13.9505 2.04968 14.2564 2.426 14.4482C2.85383 14.6662 3.41388 14.6662 4.53398 14.6662H10.134C11.2541 14.6662 11.8141 14.6662 12.242 14.4482C12.6183 14.2564 12.9243 13.9505 13.116 13.5741C13.334 13.1463 13.334 12.5863 13.334 11.4662V8.66617M5.33397 10.6662H6.45033C6.77645 10.6662 6.93951 10.6662 7.09296 10.6293C7.22901 10.5967 7.35907 10.5428 7.47836 10.4697C7.61292 10.3872 7.72822 10.2719 7.95882 10.0413L14.334 3.66617C14.8863 3.11388 14.8863 2.21845 14.334 1.66617C13.7817 1.11388 12.8863 1.11388 12.334 1.66617L5.95881 8.04133C5.7282 8.27193 5.6129 8.38723 5.53045 8.52179C5.45734 8.64108 5.40347 8.77114 5.37081 8.90719C5.33397 9.06064 5.33397 9.2237 5.33397 9.54982V10.6662Z" stroke="black" stroke-width="2" stroke-linecap="round" stroke-linejoin="round"/>
</g>
<defs>
<clipPath id="clip0_8076_1426">
<rect width="16" height="16" fill="white"/>
</clipPath>
</defs>
</svg>
