<svg width="17" height="16" viewBox="0 0 17 16" fill="none" xmlns="http://www.w3.org/2000/svg">
<g clip-path="url(#clip0_8770_120)">
<path d="M14.4018 3.01094C13.382 2.54302 12.2885 2.19828 11.1451 2.00083C11.1243 1.99702 11.1035 2.00654 11.0927 2.02559C10.9521 2.27573 10.7963 2.60206 10.6872 2.85856C9.45742 2.67445 8.23394 2.67445 7.02936 2.85856C6.92025 2.59636 6.7588 2.27573 6.61753 2.02559C6.6068 2.00718 6.586 1.99765 6.56518 2.00083C5.42242 2.19765 4.32885 2.54239 3.30844 3.01094C3.2996 3.01475 3.29203 3.02111 3.28701 3.02935C1.21274 6.12826 0.644514 9.151 0.923267 12.1363C0.924529 12.1509 0.932727 12.1648 0.944079 12.1737C2.31262 13.1787 3.63829 13.7889 4.93933 14.1933C4.96016 14.1997 4.98222 14.192 4.99547 14.1749C5.30323 13.7546 5.57758 13.3114 5.8128 12.8454C5.82668 12.8181 5.81343 12.7857 5.78506 12.775C5.3499 12.6099 4.93555 12.4086 4.53697 12.1801C4.50544 12.1617 4.50292 12.1166 4.53192 12.095C4.6158 12.0321 4.69969 11.9667 4.77978 11.9007C4.79427 11.8886 4.81447 11.8861 4.8315 11.8937C7.45 13.0892 10.2848 13.0892 12.8724 11.8937C12.8895 11.8855 12.9097 11.888 12.9248 11.9001C13.0049 11.9661 13.0888 12.0321 13.1733 12.095C13.2023 12.1166 13.2004 12.1617 13.1689 12.1801C12.7703 12.4131 12.3559 12.6099 11.9202 12.7743C11.8918 12.7851 11.8792 12.8181 11.893 12.8454C12.1333 13.3108 12.4077 13.7539 12.7097 14.1743C12.7224 14.192 12.7451 14.1997 12.7659 14.1933C14.0732 13.7889 15.3989 13.1787 16.7674 12.1737C16.7794 12.1648 16.787 12.1515 16.7883 12.1369C17.1219 8.6856 16.2295 5.68765 14.4226 3.02998C14.4182 3.02111 14.4107 3.01475 14.4018 3.01094ZM6.20383 10.3185C5.41548 10.3185 4.7659 9.59478 4.7659 8.70593C4.7659 7.81707 5.40288 7.09331 6.20383 7.09331C7.01106 7.09331 7.65435 7.82343 7.64173 8.70593C7.64173 9.59478 7.00475 10.3185 6.20383 10.3185ZM11.5203 10.3185C10.732 10.3185 10.0824 9.59478 10.0824 8.70593C10.0824 7.81707 10.7194 7.09331 11.5203 7.09331C12.3276 7.09331 12.9708 7.82343 12.9582 8.70593C12.9582 9.59478 12.3276 10.3185 11.5203 10.3185Z" fill="#66676B"/>
</g>
<defs>
<clipPath id="clip0_8770_120">
<rect width="16" height="16" fill="white" transform="translate(0.857147)"/>
</clipPath>
</defs>
</svg>
