<svg width="16" height="16" viewBox="0 0 16 16" fill="none" xmlns="http://www.w3.org/2000/svg">
    <path d="M6.34299 1.94359C5.93382 2.29228 5.42508 2.50301 4.88919 2.54578C3.63864 2.64557 2.6456 3.63861 2.54581 4.88916C2.50304 5.42505 2.29232 5.93379 1.94362 6.34296C1.12992 7.2978 1.12992 8.70216 1.94362 9.657C2.29232 10.0662 2.50304 10.5749 2.54581 11.1108C2.6456 12.3614 3.63864 13.3544 4.88919 13.4542C5.42508 13.4969 5.93382 13.7077 6.34299 14.0564C7.29783 14.8701 8.70219 14.8701 9.65703 14.0564C10.0662 13.7077 10.5749 13.4969 11.1108 13.4542C12.3614 13.3544 13.3544 12.3614 13.4542 11.1108C13.497 10.5749 13.7077 10.0662 14.0564 9.657C14.8701 8.70216 14.8701 7.2978 14.0564 6.34296C13.7077 5.93379 13.497 5.42505 13.4542 4.88916C13.3544 3.63861 12.3614 2.64557 11.1108 2.54578C10.5749 2.50301 10.0662 2.29228 9.65703 1.94359C8.70219 1.12989 7.29783 1.12989 6.34299 1.94359Z" fill="#171717"/>
    <path d="M6.00001 7.99998L7.33334 9.33331L10.3333 6.33331M4.88919 2.54578C5.42508 2.50301 5.93382 2.29228 6.34299 1.94359C7.29783 1.12989 8.70219 1.12989 9.65703 1.94359C10.0662 2.29228 10.5749 2.50301 11.1108 2.54578C12.3614 2.64557 13.3544 3.63861 13.4542 4.88916C13.497 5.42505 13.7077 5.93379 14.0564 6.34296C14.8701 7.2978 14.8701 8.70216 14.0564 9.657C13.7077 10.0662 13.497 10.5749 13.4542 11.1108C13.3544 12.3614 12.3614 13.3544 11.1108 13.4542C10.5749 13.4969 10.0662 13.7077 9.65703 14.0564C8.70219 14.8701 7.29783 14.8701 6.34299 14.0564C5.93382 13.7077 5.42508 13.4969 4.88919 13.4542C3.63864 13.3544 2.6456 12.3614 2.54581 11.1108C2.50304 10.5749 2.29232 10.0662 1.94362 9.657C1.12992 8.70216 1.12992 7.2978 1.94362 6.34296C2.29232 5.93379 2.50304 5.42505 2.54581 4.88916C2.6456 3.63861 3.63864 2.64557 4.88919 2.54578Z" stroke="white" stroke-width="1.5" stroke-linecap="round" stroke-linejoin="round"/>
</svg>