<svg width="13" height="12" viewBox="0 0 13 12" fill="none" xmlns="http://www.w3.org/2000/svg">
<path d="M2.20626 0H10.4987V12H9.28149V6.50323H9.26955C9.13502 4.98405 7.88038 3.79355 6.35249 3.79355C4.82461 3.79355 3.56997 4.98405 3.43544 6.50323H3.4235V12H2.20626V0Z" fill="#4F4F4F"/>
<path d="M0 1.70323L0.494506 3.40645H0.912933V10.2968C0.70285 10.2968 0.532544 10.4701 0.532544 10.6839V11.1484H0.456467C0.246384 11.1484 0.0760777 11.3217 0.0760777 11.5355V12H4.33643V11.5355C4.33643 11.3217 4.16613 11.1484 3.95604 11.1484H3.87997V10.6839C3.87997 10.4701 3.70966 10.2968 3.49958 10.2968H3.04311V1.70323H0Z" fill="#4F4F4F"/>
<path d="M9.35757 10.2968C9.14748 10.2968 8.97718 10.4701 8.97718 10.6839V11.1484H8.9011C8.69102 11.1484 8.52071 11.3217 8.52071 11.5355V12H12.7811V11.5355C12.7811 11.3217 12.6108 11.1484 12.4007 11.1484H12.3246V10.6839C12.3246 10.4701 12.1543 10.2968 11.9442 10.2968V3.40645H12.3626L12.8571 1.70323H9.81403V10.2968H9.35757Z" fill="#4F4F4F"/>
</svg>
