<svg width="16" height="16" viewBox="0 0 16 16" fill="none" xmlns="http://www.w3.org/2000/svg">
<path d="M5.15625 12.1875C5.15625 12.125 5.09375 12.0625 5 12.0625C4.90625 12.0625 4.84375 12.125 4.84375 12.1875C4.84375 12.25 4.90625 12.3125 5 12.2812C5.09375 12.2812 5.15625 12.25 5.15625 12.1875ZM4.1875 12.0312C4.21875 11.9688 4.3125 11.9375 4.40625 11.9688C4.5 12 4.53125 12.0625 4.53125 12.125C4.5 12.1875 4.40625 12.2188 4.34375 12.1875C4.25 12.1875 4.1875 12.0938 4.1875 12.0312ZM5.59375 12C5.65625 11.9688 5.75 12.0312 5.75 12.0938C5.78125 12.1562 5.71875 12.1875 5.625 12.2188C5.53125 12.25 5.4375 12.2188 5.4375 12.1562C5.4375 12.0625 5.5 12 5.59375 12ZM7.625 0C11.9688 0 15.5 3.3125 15.5 7.625C15.5 11.0938 13.375 14.0625 10.25 15.0938C9.84375 15.1875 9.6875 14.9375 9.6875 14.7188C9.6875 14.4688 9.71875 13.1562 9.71875 12.125C9.71875 11.375 9.46875 10.9062 9.1875 10.6562C10.9375 10.4688 12.7812 10.2188 12.7812 7.21875C12.7812 6.34375 12.4688 5.9375 11.9688 5.375C12.0312 5.15625 12.3125 4.34375 11.875 3.25C11.2188 3.03125 9.71875 4.09375 9.71875 4.09375C9.09375 3.90625 8.4375 3.84375 7.75 3.84375C7.09375 3.84375 6.4375 3.90625 5.8125 4.09375C5.8125 4.09375 4.28125 3.0625 3.65625 3.25C3.21875 4.34375 3.46875 5.15625 3.5625 5.375C3.0625 5.9375 2.8125 6.34375 2.8125 7.21875C2.8125 10.2188 4.59375 10.4688 6.34375 10.6562C6.09375 10.875 5.90625 11.2188 5.84375 11.7188C5.375 11.9375 4.25 12.2812 3.5625 11.0625C3.125 10.3125 2.34375 10.25 2.34375 10.25C1.59375 10.25 2.3125 10.75 2.3125 10.75C2.8125 10.9688 3.15625 11.875 3.15625 11.875C3.625 13.2812 5.8125 12.8125 5.8125 12.8125C5.8125 13.4688 5.8125 14.5312 5.8125 14.75C5.8125 14.9375 5.6875 15.1875 5.28125 15.125C2.15625 14.0625 0 11.0938 0 7.625C0 3.3125 3.3125 0 7.625 0ZM3.03125 10.7812C3.0625 10.75 3.125 10.7812 3.1875 10.8125C3.25 10.875 3.25 10.9688 3.21875 11C3.15625 11.0312 3.09375 11 3.03125 10.9688C3 10.9062 2.96875 10.8125 3.03125 10.7812ZM2.6875 10.5312C2.71875 10.5 2.75 10.5 2.8125 10.5312C2.875 10.5625 2.90625 10.5938 2.90625 10.625C2.875 10.6875 2.8125 10.6875 2.75 10.6562C2.6875 10.625 2.65625 10.5938 2.6875 10.5312ZM3.6875 11.6562C3.75 11.5938 3.84375 11.625 3.90625 11.6875C3.96875 11.75 3.96875 11.8438 3.9375 11.875C3.90625 11.9375 3.8125 11.9062 3.75 11.8438C3.65625 11.7812 3.65625 11.6875 3.6875 11.6562ZM3.34375 11.1875C3.40625 11.1562 3.46875 11.1875 3.53125 11.25C3.5625 11.3125 3.5625 11.4062 3.53125 11.4375C3.46875 11.4688 3.40625 11.4375 3.34375 11.375C3.28125 11.3125 3.28125 11.2188 3.34375 11.1875Z" fill="#4F4F4F"/>
</svg>
