<svg width="16" height="16" viewBox="0 0 16 16" fill="none" xmlns="http://www.w3.org/2000/svg">
<path fill-rule="evenodd" clip-rule="evenodd" d="M8.00065 14.6666C11.6825 14.6666 14.6673 11.6818 14.6673 7.99992C14.6673 4.31802 11.6825 1.33325 8.00065 1.33325C4.31875 1.33325 1.33398 4.31802 1.33398 7.99992C1.33398 11.6818 4.31875 14.6666 8.00065 14.6666ZM8.00049 7.24994C8.4147 7.24994 8.75049 7.58573 8.75049 7.99994V10.6666C8.75049 11.0808 8.4147 11.4166 8.00049 11.4166C7.58627 11.4166 7.25049 11.0808 7.25049 10.6666V7.99994C7.25049 7.58573 7.58627 7.24994 8.00049 7.24994ZM8.00049 4.58325C7.58627 4.58325 7.25049 4.91904 7.25049 5.33325C7.25049 5.74747 7.58627 6.08325 8.00049 6.08325H8.00716C8.42137 6.08325 8.75716 5.74747 8.75716 5.33325C8.75716 4.91904 8.42137 4.58325 8.00716 4.58325H8.00049Z" fill="#AFAFAF"/>
</svg>
