<svg width="23" height="21" viewBox="0 0 23 21" fill="none" xmlns="http://www.w3.org/2000/svg">
<path d="M21.2866 6.1413L21.291 10.1413M9.53387 3.65419L6.08387 3.65797C4.40372 3.65982 3.56364 3.66074 2.92226 3.98842C2.35809 4.27666 1.89965 4.73611 1.61265 5.30091C1.28638 5.943 1.2873 6.78308 1.28914 8.46324L1.29046 9.66324C1.29148 10.5951 1.29199 11.0611 1.44464 11.4284C1.64816 11.9183 2.03794 12.3072 2.52822 12.5096C2.89592 12.6615 3.36187 12.661 4.29375 12.6599L4.29841 16.9099C4.29867 17.1421 4.2988 17.2582 4.30853 17.356C4.4031 18.3054 5.15518 19.0558 6.10484 19.1483C6.20263 19.1579 6.31871 19.1577 6.55088 19.1575C6.78305 19.1572 6.89913 19.1571 6.9969 19.1474C7.94635 19.0528 8.69679 18.3007 8.78927 17.3511C8.79879 17.2533 8.79867 17.1372 8.79841 16.905L8.79375 12.655L9.54375 12.6542C11.3102 12.6522 13.472 13.5968 15.1401 14.5037C16.1132 15.0328 16.5997 15.2973 16.9182 15.258C17.2135 15.2215 17.4366 15.0886 17.6095 14.8464C17.7959 14.5853 17.7953 14.0631 17.7942 13.0188L17.7835 3.27142C17.7823 2.22713 17.7817 1.70499 17.5948 1.44423C17.4214 1.20244 17.1979 1.07008 16.9026 1.03423C16.584 0.995574 16.0981 1.26118 15.1261 1.79241C13.4601 2.70299 11.3003 3.65225 9.53387 3.65419Z" stroke="#FF007A" stroke-width="1.8" stroke-linecap="round" stroke-linejoin="round"/>
</svg>
