<svg width="648" height="364" viewBox="0 0 648 364" fill="none" xmlns="http://www.w3.org/2000/svg">
<g clip-path="url(#clip0_7596_31064)">
<rect width="648" height="364" fill="url(#paint0_linear_7596_31064)"/>
<path d="M376 79.5C376 105.734 354.734 127 328.5 127C302.266 127 281 105.734 281 79.5C281 53.2665 302.266 32 328.5 32C354.734 32 376 53.2665 376 79.5Z" fill="#FFF0F1"/>
<path opacity="0.7" d="M629 236C629 260.301 609.301 280 585 280V280C560.699 280 541 260.301 541 236V236C541 211.699 560.699 192 585 192V192C609.301 192 629 211.699 629 236V236Z" fill="#F0F4FF"/>
<path opacity="0.4" d="M603 396C603 446.81 561.81 488 511 488V488C460.19 488 419 446.81 419 396V396C419 345.19 460.19 304 511 304V304C561.81 304 603 345.19 603 396V396Z" fill="#FFD1D5"/>
<path d="M617 142.741C617 144.95 615.209 146.741 613 146.741V146.741C610.791 146.741 609 144.95 609 142.741V142.741C609 140.532 610.791 138.741 613 138.741V138.741C615.209 138.741 617 140.532 617 142.741V142.741Z" fill="white"/>
<path d="M300 12C300 13.6569 298.657 15 297 15V15C295.343 15 294 13.6569 294 12V12C294 10.3431 295.343 9 297 9V9C298.657 9 300 10.3431 300 12V12Z" fill="white"/>
<rect x="632" y="131" width="8" height="8" transform="rotate(-180 632 131)" fill="#D7E6F9"/>
<path d="M628 159L629.779 163.511C631.35 167.495 634.499 170.647 638.473 172.215L643 174L638.473 175.785C634.499 177.353 631.35 180.505 629.779 184.489L628 189L626.221 184.489C624.649 180.505 621.501 177.353 617.527 175.785L613 174L617.527 172.215C621.501 170.647 624.649 167.495 626.221 163.511L628 159Z" fill="#E2E8F0"/>
<path d="M277 19.25L278.512 23.084C279.848 26.471 282.524 29.1501 285.902 30.4825L289.75 32L285.902 33.5175C282.524 34.8499 279.848 37.529 278.512 40.916L277 44.75L275.488 40.916C274.152 37.529 271.476 34.8499 268.098 33.5175L264.25 32L268.098 30.4825C271.476 29.1501 274.152 26.471 275.488 23.084L277 19.25Z" fill="#CBD5E0"/>
<path d="M499.038 -79.412L503.459 -60.6763L517.018 -74.3412L518.956 -55.1886L534.183 -66.9668L533.604 -47.7251L550.238 -57.4151L547.152 -38.4136L564.908 -45.8495L559.369 -27.4134L577.944 -32.468L570.046 -14.9125L589.122 -17.4994L579 -1.1251L598.25 -1.19999L586.077 13.7131L605.172 16.1515L591.157 29.3481L609.771 34.2581L594.153 45.5125L611.967 52.81L595.014 61.9296L611.722 71.4898L593.724 78.3186L609.041 89.9779L590.306 94.399L603.971 107.958L584.818 109.896L596.596 125.122L577.355 124.543L587.045 141.177L568.043 138.092L575.479 155.848L557.043 150.309L562.097 168.884L544.542 160.986L547.129 180.061L530.755 169.939L530.829 189.189L515.916 177.017L513.478 196.112L500.281 182.097L495.371 200.71L484.117 185.093L476.819 202.906L467.7 185.953L458.14 202.662L451.311 184.663L439.652 199.981L435.23 181.245L421.671 194.91L419.734 175.758L404.507 187.536L405.086 168.294L388.452 177.984L391.538 158.983L373.781 166.419L379.321 147.982L360.746 153.037L368.644 135.482L349.568 138.068L359.69 121.694L340.44 121.769L352.613 106.856L333.517 104.418L347.533 91.2209L328.919 86.3109L344.537 75.0565L326.723 67.759L343.676 58.6394L326.968 49.0792L344.966 42.2504L329.648 30.5911L348.384 26.1701L334.719 12.6111L353.872 10.6733L342.094 -4.55326L361.335 -3.97448L351.645 -20.6082L370.647 -17.5228L363.211 -35.279L381.647 -29.7399L376.592 -48.3147L394.148 -40.4166L391.561 -59.4923L407.935 -49.3702L407.86 -68.6204L422.774 -56.4477L425.212 -75.543L438.409 -61.5278L443.319 -80.1415L454.573 -64.5237L461.87 -82.3372L470.99 -65.3841L480.55 -82.0927L487.379 -64.0942L499.038 -79.412Z" fill="url(#paint1_linear_7596_31064)"/>
<g filter="url(#filter0_ddd_7596_31064)">
<path opacity="0.8" d="M499.038 -79.412L503.459 -60.6763L517.018 -74.3412L518.956 -55.1886L534.183 -66.9668L533.604 -47.7251L550.238 -57.4151L547.152 -38.4136L564.908 -45.8495L559.369 -27.4134L577.944 -32.468L570.046 -14.9125L589.122 -17.4994L579 -1.1251L598.25 -1.19999L586.077 13.7131L605.172 16.1515L591.157 29.3481L609.771 34.2581L594.153 45.5125L611.967 52.81L595.014 61.9296L611.722 71.4898L593.724 78.3186L609.041 89.9779L590.306 94.399L603.971 107.958L584.818 109.896L596.596 125.122L577.355 124.543L587.045 141.177L568.043 138.092L575.479 155.848L557.043 150.309L562.097 168.884L544.542 160.986L547.129 180.061L530.755 169.939L530.829 189.189L515.916 177.017L513.478 196.112L500.281 182.097L495.371 200.71L484.117 185.093L476.819 202.906L467.7 185.953L458.14 202.662L451.311 184.663L439.652 199.981L435.23 181.245L421.671 194.91L419.734 175.758L404.507 187.536L405.086 168.294L388.452 177.984L391.538 158.983L373.781 166.419L379.321 147.982L360.746 153.037L368.644 135.482L349.568 138.068L359.69 121.694L340.44 121.769L352.613 106.856L333.517 104.418L347.533 91.2209L328.919 86.3109L344.537 75.0565L326.723 67.759L343.676 58.6394L326.968 49.0792L344.966 42.2504L329.648 30.5911L348.384 26.1701L334.719 12.6111L353.872 10.6733L342.094 -4.55326L361.335 -3.97448L351.645 -20.6082L370.647 -17.5228L363.211 -35.279L381.647 -29.7399L376.592 -48.3147L394.148 -40.4166L391.561 -59.4923L407.935 -49.3702L407.86 -68.6204L422.774 -56.4477L425.212 -75.543L438.409 -61.5278L443.319 -80.1415L454.573 -64.5237L461.87 -82.3372L470.99 -65.3841L480.55 -82.0927L487.379 -64.0942L499.038 -79.412Z" fill="#FF0420"/>
<path fill-rule="evenodd" clip-rule="evenodd" d="M457.246 49.068C458.521 49.3391 459.337 50.5876 459.067 51.8566C457.718 58.2013 461.795 64.4436 468.172 65.7992C474.55 67.1547 480.813 63.1101 482.161 56.7654C482.431 55.4964 483.684 54.6875 484.959 54.9586C486.234 55.2297 487.05 56.4782 486.78 57.7472C484.892 66.6298 476.124 72.2922 467.195 70.3945C458.267 68.4967 452.56 59.7575 454.448 50.8748C454.718 49.6058 455.97 48.7969 457.246 49.068Z" fill="white"/>
<path d="M434.723 18.7661L435.437 22.98C436.069 26.7025 438.218 29.9978 441.373 32.08L444.966 34.4515L440.719 35.1565C436.99 35.7755 433.686 37.9116 431.595 41.0556L429.229 44.6146L428.514 40.4007C427.883 36.6781 425.734 33.3828 422.579 31.3006L418.985 28.9291L423.233 28.2241C426.962 27.6052 430.265 25.469 432.356 22.325L434.723 18.7661Z" fill="white"/>
<path d="M517.863 36.437L518.577 40.6508C519.208 44.3734 521.358 47.6687 524.513 49.7509L528.106 52.1224L523.859 52.8274C520.13 53.4464 516.826 55.5825 514.735 58.7265L512.368 62.2855L511.654 58.0716C511.023 54.349 508.873 51.0537 505.718 48.9715L502.125 46.6L506.372 45.895C510.101 45.2761 513.405 43.1399 515.496 39.9959L517.863 36.437Z" fill="white"/>
</g>
<path d="M400.332 346L397.7 335.78H399.002L400.738 342.724C400.859 343.209 400.962 343.662 401.046 344.082C401.13 344.493 401.191 344.805 401.228 345.02C401.265 344.805 401.321 344.493 401.396 344.082C401.48 343.662 401.583 343.209 401.704 342.724L403.426 335.78H404.7L402.054 346H400.332ZM409.595 346.14C408.979 346.14 408.447 346.023 407.999 345.79C407.56 345.557 407.219 345.221 406.977 344.782C406.743 344.334 406.627 343.807 406.627 343.2V338.58C406.627 337.964 406.743 337.437 406.977 336.998C407.219 336.559 407.56 336.223 407.999 335.99C408.447 335.757 408.979 335.64 409.595 335.64C410.211 335.64 410.738 335.757 411.177 335.99C411.625 336.223 411.965 336.559 412.199 336.998C412.441 337.437 412.563 337.959 412.563 338.566V343.2C412.563 343.807 412.441 344.334 412.199 344.782C411.965 345.221 411.625 345.557 411.177 345.79C410.738 346.023 410.211 346.14 409.595 346.14ZM409.595 345.006C410.145 345.006 410.565 344.852 410.855 344.544C411.153 344.227 411.303 343.779 411.303 343.2V338.58C411.303 338.001 411.153 337.558 410.855 337.25C410.565 336.933 410.145 336.774 409.595 336.774C409.053 336.774 408.633 336.933 408.335 337.25C408.036 337.558 407.887 338.001 407.887 338.58V343.2C407.887 343.779 408.036 344.227 408.335 344.544C408.633 344.852 409.053 345.006 409.595 345.006ZM417.359 346V336.914H414.559V335.766H421.419V336.914H418.619V346H417.359ZM423.584 346V335.78H429.464V336.928H424.83V340.092H428.974V341.226H424.83V344.852H429.464V346H423.584ZM434.778 346.14C434.423 346.14 434.139 346.037 433.924 345.832C433.719 345.627 433.616 345.351 433.616 345.006C433.616 344.642 433.719 344.353 433.924 344.138C434.139 343.923 434.423 343.816 434.778 343.816C435.133 343.816 435.413 343.923 435.618 344.138C435.833 344.353 435.94 344.642 435.94 345.006C435.94 345.351 435.833 345.627 435.618 345.832C435.413 346.037 435.133 346.14 434.778 346.14ZM443.173 346.14C442.557 346.14 442.025 346.023 441.577 345.79C441.138 345.557 440.797 345.221 440.555 344.782C440.321 344.334 440.205 343.807 440.205 343.2V338.58C440.205 337.964 440.321 337.437 440.555 336.998C440.797 336.559 441.138 336.223 441.577 335.99C442.025 335.757 442.557 335.64 443.173 335.64C443.789 335.64 444.316 335.757 444.755 335.99C445.203 336.223 445.543 336.559 445.777 336.998C446.019 337.437 446.141 337.959 446.141 338.566V343.2C446.141 343.807 446.019 344.334 445.777 344.782C445.543 345.221 445.203 345.557 444.755 345.79C444.316 346.023 443.789 346.14 443.173 346.14ZM443.173 345.006C443.723 345.006 444.143 344.852 444.433 344.544C444.731 344.227 444.881 343.779 444.881 343.2V338.58C444.881 338.001 444.731 337.558 444.433 337.25C444.143 336.933 443.723 336.774 443.173 336.774C442.631 336.774 442.211 336.933 441.913 337.25C441.614 337.558 441.465 338.001 441.465 338.58V343.2C441.465 343.779 441.614 344.227 441.913 344.544C442.211 344.852 442.631 345.006 443.173 345.006ZM448.655 346V335.78H451.945C452.58 335.78 453.131 335.906 453.597 336.158C454.064 336.401 454.423 336.746 454.675 337.194C454.937 337.642 455.067 338.174 455.067 338.79C455.067 339.397 454.937 339.929 454.675 340.386C454.423 340.834 454.064 341.184 453.597 341.436C453.131 341.679 452.58 341.8 451.945 341.8H449.915V346H448.655ZM449.915 340.666H451.945C452.496 340.666 452.935 340.498 453.261 340.162C453.597 339.817 453.765 339.359 453.765 338.79C453.765 338.211 453.597 337.754 453.261 337.418C452.935 337.082 452.496 336.914 451.945 336.914H449.915V340.666ZM459.332 346V336.914H456.532V335.766H463.392V336.914H460.592V346H459.332ZM465.626 346V344.852H467.712V336.928H465.626V335.78H471.086V336.928H469V344.852H471.086V346H465.626ZM473.615 346V335.78H475.267L476.331 339.084C476.433 339.383 476.527 339.681 476.611 339.98C476.695 340.269 476.755 340.493 476.793 340.652C476.839 340.493 476.9 340.269 476.975 339.98C477.049 339.681 477.133 339.378 477.227 339.07L478.235 335.78H479.887V346H478.655V342.29C478.655 341.879 478.669 341.413 478.697 340.89C478.725 340.367 478.762 339.835 478.809 339.294C478.855 338.743 478.902 338.221 478.949 337.726C479.005 337.222 479.051 336.783 479.089 336.41L477.437 341.52H476.107L474.441 336.41C474.487 336.774 474.534 337.199 474.581 337.684C474.627 338.16 474.669 338.669 474.707 339.21C474.744 339.742 474.777 340.274 474.805 340.806C474.833 341.338 474.847 341.833 474.847 342.29V346H473.615ZM482.415 346V344.852H484.501V336.928H482.415V335.78H487.875V336.928H485.789V344.852H487.875V346H482.415ZM493.596 346.14C492.924 346.14 492.345 346.028 491.86 345.804C491.384 345.58 491.015 345.258 490.754 344.838C490.493 344.418 490.357 343.919 490.348 343.34H491.608C491.608 343.853 491.781 344.259 492.126 344.558C492.481 344.857 492.971 345.006 493.596 345.006C494.184 345.006 494.641 344.861 494.968 344.572C495.304 344.283 495.472 343.881 495.472 343.368C495.472 342.957 495.36 342.598 495.136 342.29C494.921 341.982 494.609 341.767 494.198 341.646L492.812 341.212C492.112 340.997 491.571 340.638 491.188 340.134C490.815 339.63 490.628 339.037 490.628 338.356C490.628 337.805 490.749 337.329 490.992 336.928C491.244 336.517 491.594 336.2 492.042 335.976C492.49 335.743 493.017 335.626 493.624 335.626C494.52 335.626 495.239 335.878 495.78 336.382C496.321 336.877 496.597 337.539 496.606 338.37H495.346C495.346 337.866 495.192 337.474 494.884 337.194C494.585 336.905 494.161 336.76 493.61 336.76C493.069 336.76 492.644 336.891 492.336 337.152C492.037 337.413 491.888 337.777 491.888 338.244C491.888 338.664 492 339.028 492.224 339.336C492.448 339.644 492.77 339.863 493.19 339.994L494.59 340.442C495.271 340.657 495.799 341.021 496.172 341.534C496.545 342.047 496.732 342.649 496.732 343.34C496.732 343.9 496.601 344.39 496.34 344.81C496.079 345.23 495.71 345.557 495.234 345.79C494.767 346.023 494.221 346.14 493.596 346.14ZM498.798 346V335.78H500.45L501.514 339.084C501.617 339.383 501.71 339.681 501.794 339.98C501.878 340.269 501.939 340.493 501.976 340.652C502.023 340.493 502.084 340.269 502.158 339.98C502.233 339.681 502.317 339.378 502.41 339.07L503.418 335.78H505.07V346H503.838V342.29C503.838 341.879 503.852 341.413 503.88 340.89C503.908 340.367 503.946 339.835 503.992 339.294C504.039 338.743 504.086 338.221 504.132 337.726C504.188 337.222 504.235 336.783 504.272 336.41L502.62 341.52H501.29L499.624 336.41C499.671 336.774 499.718 337.199 499.764 337.684C499.811 338.16 499.853 338.669 499.89 339.21C499.928 339.742 499.96 340.274 499.988 340.806C500.016 341.338 500.03 341.833 500.03 342.29V346H498.798ZM510.329 346.14C509.974 346.14 509.69 346.037 509.475 345.832C509.27 345.627 509.167 345.351 509.167 345.006C509.167 344.642 509.27 344.353 509.475 344.138C509.69 343.923 509.974 343.816 510.329 343.816C510.684 343.816 510.964 343.923 511.169 344.138C511.384 344.353 511.491 344.642 511.491 345.006C511.491 345.351 511.384 345.627 511.169 345.832C510.964 346.037 510.684 346.14 510.329 346.14ZM515.993 346V344.852H518.079V336.928H515.993V335.78H521.453V336.928H519.367V344.852H521.453V346H515.993ZM527.118 346.14C526.502 346.14 525.97 346.023 525.522 345.79C525.083 345.557 524.743 345.221 524.5 344.782C524.267 344.334 524.15 343.807 524.15 343.2V338.58C524.15 337.964 524.267 337.437 524.5 336.998C524.743 336.559 525.083 336.223 525.522 335.99C525.97 335.757 526.502 335.64 527.118 335.64C527.734 335.64 528.261 335.757 528.7 335.99C529.148 336.223 529.489 336.559 529.722 336.998C529.965 337.437 530.086 337.959 530.086 338.566V343.2C530.086 343.807 529.965 344.334 529.722 344.782C529.489 345.221 529.148 345.557 528.7 345.79C528.261 346.023 527.734 346.14 527.118 346.14ZM527.118 345.006C527.669 345.006 528.089 344.852 528.378 344.544C528.677 344.227 528.826 343.779 528.826 343.2V338.58C528.826 338.001 528.677 337.558 528.378 337.25C528.089 336.933 527.669 336.774 527.118 336.774C526.577 336.774 526.157 336.933 525.858 337.25C525.559 337.558 525.41 338.001 525.41 338.58V343.2C525.41 343.779 525.559 344.227 525.858 344.544C526.157 344.852 526.577 345.006 527.118 345.006ZM532.363 347.54L537.333 334.38H538.663L533.693 347.54H532.363ZM540.995 346V335.78H544.159C544.766 335.78 545.298 335.906 545.755 336.158C546.212 336.401 546.567 336.741 546.819 337.18C547.071 337.619 547.197 338.132 547.197 338.72C547.197 339.411 547.015 340.003 546.651 340.498C546.296 340.993 545.811 341.333 545.195 341.52L547.337 346H545.853L543.893 341.66H542.255V346H540.995ZM542.255 340.526H544.159C544.682 340.526 545.102 340.363 545.419 340.036C545.736 339.7 545.895 339.261 545.895 338.72C545.895 338.169 545.736 337.731 545.419 337.404C545.102 337.077 544.682 336.914 544.159 336.914H542.255V340.526ZM549.502 346V335.78H555.382V336.928H550.748V340.092H554.892V341.226H550.748V344.852H555.382V346H549.502ZM560.066 346V336.914H557.266V335.766H564.126V336.914H561.326V346H560.066ZM566.179 346V335.78H569.343C569.949 335.78 570.481 335.906 570.939 336.158C571.396 336.401 571.751 336.741 572.003 337.18C572.255 337.619 572.381 338.132 572.381 338.72C572.381 339.411 572.199 340.003 571.835 340.498C571.48 340.993 570.995 341.333 570.379 341.52L572.521 346H571.037L569.077 341.66H567.439V346H566.179ZM567.439 340.526H569.343C569.865 340.526 570.285 340.363 570.603 340.036C570.92 339.7 571.079 339.261 571.079 338.72C571.079 338.169 570.92 337.731 570.603 337.404C570.285 337.077 569.865 336.914 569.343 336.914H567.439V340.526ZM577.485 346.14C576.869 346.14 576.337 346.023 575.889 345.79C575.45 345.557 575.11 345.221 574.867 344.782C574.634 344.334 574.517 343.807 574.517 343.2V338.58C574.517 337.964 574.634 337.437 574.867 336.998C575.11 336.559 575.45 336.223 575.889 335.99C576.337 335.757 576.869 335.64 577.485 335.64C578.101 335.64 578.628 335.757 579.067 335.99C579.515 336.223 579.856 336.559 580.089 336.998C580.332 337.437 580.453 337.959 580.453 338.566V343.2C580.453 343.807 580.332 344.334 580.089 344.782C579.856 345.221 579.515 345.557 579.067 345.79C578.628 346.023 578.101 346.14 577.485 346.14ZM577.485 345.006C578.036 345.006 578.456 344.852 578.745 344.544C579.044 344.227 579.193 343.779 579.193 343.2V338.58C579.193 338.001 579.044 337.558 578.745 337.25C578.456 336.933 578.036 336.774 577.485 336.774C576.944 336.774 576.524 336.933 576.225 337.25C575.926 337.558 575.777 338.001 575.777 338.58V343.2C575.777 343.779 575.926 344.227 576.225 344.544C576.524 344.852 576.944 345.006 577.485 345.006ZM582.968 346V335.78H586.258C586.892 335.78 587.443 335.906 587.91 336.158C588.376 336.401 588.736 336.746 588.988 337.194C589.249 337.642 589.38 338.174 589.38 338.79C589.38 339.397 589.249 339.929 588.988 340.386C588.736 340.834 588.376 341.184 587.91 341.436C587.443 341.679 586.892 341.8 586.258 341.8H584.228V346H582.968ZM584.228 340.666H586.258C586.808 340.666 587.247 340.498 587.574 340.162C587.91 339.817 588.078 339.359 588.078 338.79C588.078 338.211 587.91 337.754 587.574 337.418C587.247 337.082 586.808 336.914 586.258 336.914H584.228V340.666ZM594.33 346.14C593.714 346.14 593.178 346.023 592.72 345.79C592.272 345.557 591.922 345.221 591.67 344.782C591.428 344.334 591.306 343.807 591.306 343.2V338.58C591.306 337.964 591.428 337.437 591.67 336.998C591.922 336.559 592.272 336.223 592.72 335.99C593.178 335.757 593.714 335.64 594.33 335.64C594.946 335.64 595.478 335.761 595.926 336.004C596.374 336.237 596.72 336.573 596.962 337.012C597.205 337.451 597.326 337.973 597.326 338.58H596.066C596.066 338.001 595.912 337.558 595.604 337.25C595.306 336.933 594.881 336.774 594.33 336.774C593.78 336.774 593.346 336.928 593.028 337.236C592.72 337.544 592.566 337.987 592.566 338.566V343.2C592.566 343.779 592.72 344.227 593.028 344.544C593.346 344.861 593.78 345.02 594.33 345.02C594.881 345.02 595.306 344.861 595.604 344.544C595.912 344.227 596.066 343.779 596.066 343.2V341.94H593.994V340.792H597.326V343.2C597.326 343.797 597.205 344.32 596.962 344.768C596.72 345.207 596.374 345.547 595.926 345.79C595.478 346.023 594.946 346.14 594.33 346.14ZM599.799 346V335.766H605.819V336.914H601.031V340.316H605.455V341.464H601.059V346H599.799ZM607.913 347.54L612.883 334.38H614.213L609.243 347.54H607.913ZM619.304 346.14C618.688 346.14 618.146 346.019 617.68 345.776C617.222 345.524 616.868 345.179 616.616 344.74C616.364 344.301 616.238 343.788 616.238 343.2H617.498C617.498 343.769 617.656 344.217 617.974 344.544C618.3 344.861 618.748 345.02 619.318 345.02C619.896 345.02 620.344 344.852 620.662 344.516C620.979 344.18 621.138 343.741 621.138 343.2V342.472C621.138 341.893 620.979 341.445 620.662 341.128C620.344 340.811 619.896 340.652 619.318 340.652H618.268V339.392L620.802 336.928H616.658V335.78H622.076V337.04L619.346 339.686V339.532C620.279 339.532 621.021 339.798 621.572 340.33C622.122 340.862 622.398 341.576 622.398 342.472V343.2C622.398 343.788 622.267 344.301 622.006 344.74C621.754 345.179 621.394 345.524 620.928 345.776C620.461 346.019 619.92 346.14 619.304 346.14Z" fill="#FF0420"/>
<rect x="153" y="107" width="84" height="86" rx="42" stroke="white" stroke-width="2"/>
<path d="M194.58 172.6C191.74 172.6 189.26 172.08 187.14 171.04C185.06 170 183.44 168.54 182.28 166.66C181.12 164.78 180.54 162.56 180.54 160H188.1C188.1 161.96 188.66 163.5 189.78 164.62C190.94 165.7 192.56 166.24 194.64 166.24C196.72 166.24 198.32 165.68 199.44 164.56C200.56 163.44 201.12 161.92 201.12 160V156.58C201.12 154.62 200.56 153.1 199.44 152.02C198.32 150.9 196.72 150.34 194.64 150.34H189.72V143.56L199.38 134.62H182.52V128.2H207V134.98L194.64 146.32V143.92C198.96 143.92 202.38 145.06 204.9 147.34C207.42 149.62 208.68 152.7 208.68 156.58V160C208.68 162.56 208.1 164.78 206.94 166.66C205.78 168.54 204.14 170 202.02 171.04C199.9 172.08 197.42 172.6 194.58 172.6Z" fill="#202327"/>
<path d="M154.009 178.631C146.415 167.759 143.452 154.317 145.77 141.26C148.088 128.203 155.498 116.602 166.369 109.009L167.366 110.437C156.873 117.765 149.722 128.963 147.484 141.564C145.247 154.166 148.108 167.141 155.437 177.634L154.009 178.631Z" fill="#FCE2E5"/>
<path d="M228.871 113.22C235.76 119.565 240.729 127.717 243.212 136.748C245.694 145.778 245.59 155.325 242.912 164.299C240.233 173.274 235.088 181.316 228.062 187.509C221.036 193.702 212.412 197.797 203.172 199.328L202.887 197.61C211.805 196.132 220.129 192.18 226.91 186.202C233.692 180.225 238.658 172.463 241.243 163.801C243.828 155.139 243.929 145.925 241.533 137.209C239.137 128.493 234.341 120.625 227.691 114.501L228.871 113.22Z" fill="#E0E2EB"/>
<path d="M251.081 141.675C252.226 149.902 251.553 158.279 249.11 166.217C246.667 174.156 242.513 181.461 236.94 187.62L235.812 186.6C241.236 180.606 245.279 173.496 247.656 165.77C250.034 158.044 250.689 149.891 249.574 141.885L251.081 141.675Z" fill="#FCE2E5"/>
<path d="M150.706 184.474C146.458 178.919 143.277 172.624 141.323 165.909L142.778 165.486C144.679 172.021 147.775 178.147 151.909 183.553L150.706 184.474Z" fill="#DFE1EA"/>
<path d="M40 48.5C40 39.3873 47.3873 32 56.5 32H182.966C192.079 32 199.466 39.3873 199.466 48.5V48.5C199.466 57.6127 192.079 65 182.966 65H56.5C47.3873 65 40 57.6127 40 48.5V48.5Z" fill="#FF0420"/>
<g clip-path="url(#clip1_7596_31064)">
<path d="M62.4334 57C60.5431 57 58.9943 56.5593 57.787 55.6778C56.5957 54.7806 56 53.5056 56 51.8528C56 51.5065 56.0397 51.0815 56.1191 50.5778C56.3256 49.4444 56.6195 48.0829 57.0007 46.4931C58.0809 42.1644 60.8687 40 65.3641 40C66.5873 40 67.6833 40.2046 68.6523 40.6139C69.6213 41.0074 70.3837 41.6056 70.9397 42.4083C71.4957 43.1954 71.7737 44.1398 71.7737 45.2417C71.7737 45.5722 71.7339 45.9894 71.6545 46.4931C71.4163 47.894 71.1303 49.2556 70.7967 50.5778C70.2408 52.7343 69.2797 54.3477 67.9136 55.4181C66.5475 56.4727 64.7208 57 62.4334 57ZM62.7669 53.6C63.6565 53.6 64.411 53.3403 65.0305 52.8208C65.6659 52.3014 66.1187 51.5065 66.3887 50.4361C66.754 48.9565 67.032 47.6657 67.2226 46.5639C67.2862 46.2333 67.318 45.8949 67.318 45.5486C67.318 44.1162 66.5634 43.4 65.0544 43.4C64.1648 43.4 63.4023 43.6597 62.7669 44.1792C62.1474 44.6986 61.7027 45.4935 61.4326 46.5639C61.1467 47.6185 60.8608 48.9093 60.5748 50.4361C60.5113 50.7509 60.4795 51.0815 60.4795 51.4278C60.4795 52.8759 61.242 53.6 62.7669 53.6Z" fill="white"/>
<path d="M74.1914 56.7639C74.0167 56.7639 73.8817 56.7088 73.7863 56.5986C73.7069 56.4727 73.6831 56.331 73.7149 56.1736L77.003 40.8264C77.0348 40.6532 77.1222 40.5116 77.2651 40.4014C77.4081 40.2912 77.559 40.2361 77.7178 40.2361H84.0559C85.8191 40.2361 87.2329 40.5981 88.2972 41.3222C89.3773 42.0463 89.9174 43.0931 89.9174 44.4625C89.9174 44.856 89.8698 45.2653 89.7744 45.6903C89.3773 47.5005 88.5751 48.8384 87.3679 49.7042C86.1765 50.5699 84.5404 51.0028 82.4595 51.0028H79.2428L78.1467 56.1736C78.115 56.3468 78.0276 56.4884 77.8846 56.5986C77.7417 56.7088 77.5908 56.7639 77.4319 56.7639H74.1914ZM82.6263 47.7444C83.2934 47.7444 83.8732 47.5634 84.3657 47.2014C84.874 46.8394 85.2076 46.3199 85.3664 45.6431C85.4141 45.3755 85.4379 45.1394 85.4379 44.9347C85.4379 44.4782 85.3029 44.1319 85.0328 43.8958C84.7628 43.644 84.3021 43.5181 83.6508 43.5181H80.7916L79.8861 47.7444H82.6263Z" fill="white"/>
<path d="M95.286 56.7639C95.1113 56.7639 94.9763 56.7088 94.8809 56.5986C94.7856 56.4727 94.7539 56.331 94.7856 56.1736L97.4305 43.9431H93.1892C93.0145 43.9431 92.8795 43.888 92.7842 43.7778C92.7047 43.6519 92.6809 43.5102 92.7127 43.3528L93.2607 40.8264C93.2925 40.6532 93.3798 40.5116 93.5228 40.4014C93.6658 40.2912 93.8167 40.2361 93.9755 40.2361H106.795C106.969 40.2361 107.104 40.2912 107.2 40.4014C107.263 40.4958 107.295 40.5903 107.295 40.6847C107.295 40.7319 107.287 40.7792 107.271 40.8264L106.723 43.3528C106.691 43.5259 106.604 43.6676 106.461 43.7778C106.334 43.888 106.183 43.9431 106.008 43.9431H101.791L99.146 56.1736C99.1143 56.3468 99.0269 56.4884 98.8839 56.5986C98.741 56.7088 98.5901 56.7639 98.4312 56.7639H95.286Z" fill="white"/>
<path d="M107.903 56.7639C107.728 56.7639 107.593 56.7088 107.498 56.5986C107.402 56.4727 107.371 56.331 107.402 56.1736L110.714 40.8264C110.746 40.6532 110.834 40.5116 110.976 40.4014C111.119 40.2912 111.27 40.2361 111.429 40.2361H114.646C114.821 40.2361 114.956 40.2912 115.051 40.4014C115.114 40.4958 115.146 40.5903 115.146 40.6847C115.146 40.7319 115.138 40.7792 115.122 40.8264L111.834 56.1736C111.802 56.3468 111.715 56.4884 111.572 56.5986C111.429 56.7088 111.278 56.7639 111.119 56.7639H107.903Z" fill="white"/>
<path d="M116.976 56.7639C116.801 56.7639 116.666 56.7088 116.571 56.5986C116.475 56.4884 116.443 56.3468 116.475 56.1736L119.763 40.8264C119.795 40.6532 119.883 40.5116 120.025 40.4014C120.168 40.2912 120.327 40.2361 120.502 40.2361H123.075C123.457 40.2361 123.703 40.4093 123.814 40.7556L126.411 48.1931L132.201 40.7556C132.281 40.6296 132.392 40.5116 132.535 40.4014C132.694 40.2912 132.884 40.2361 133.107 40.2361H135.704C135.879 40.2361 136.014 40.2912 136.109 40.4014C136.172 40.4958 136.204 40.5903 136.204 40.6847C136.204 40.7319 136.196 40.7792 136.18 40.8264L132.892 56.1736C132.86 56.3468 132.773 56.4884 132.63 56.5986C132.487 56.7088 132.336 56.7639 132.177 56.7639H129.294C129.12 56.7639 128.985 56.7088 128.889 56.5986C128.81 56.4727 128.786 56.331 128.818 56.1736L130.676 47.4611L127.031 52.2542C126.872 52.4273 126.721 52.5611 126.578 52.6556C126.435 52.75 126.268 52.7972 126.078 52.7972H124.839C124.505 52.7972 124.275 52.6162 124.148 52.2542L122.456 47.2486L120.55 56.1736C120.518 56.3468 120.431 56.4884 120.288 56.5986C120.145 56.7088 119.994 56.7639 119.835 56.7639H116.976Z" fill="white"/>
<path d="M138.007 56.7639C137.833 56.7639 137.698 56.7088 137.602 56.5986C137.507 56.4727 137.475 56.331 137.507 56.1736L140.819 40.8264C140.851 40.6532 140.938 40.5116 141.081 40.4014C141.224 40.2912 141.375 40.2361 141.534 40.2361H144.751C144.925 40.2361 145.06 40.2912 145.156 40.4014C145.219 40.4958 145.251 40.5903 145.251 40.6847C145.251 40.7319 145.243 40.7792 145.227 40.8264L141.939 56.1736C141.907 56.3468 141.82 56.4884 141.677 56.5986C141.534 56.7088 141.383 56.7639 141.224 56.7639H138.007Z" fill="white"/>
<path d="M152.966 57C151.568 57 150.368 56.8111 149.368 56.4333C148.383 56.0556 147.636 55.5519 147.128 54.9222C146.636 54.2926 146.389 53.5921 146.389 52.8208C146.389 52.6949 146.405 52.506 146.437 52.2542C146.469 52.1125 146.532 51.9944 146.628 51.9C146.739 51.8056 146.866 51.7583 147.009 51.7583H150.059C150.249 51.7583 150.392 51.7898 150.488 51.8528C150.599 51.9157 150.71 52.0259 150.821 52.1833C150.932 52.5926 151.187 52.931 151.584 53.1986C151.997 53.4662 152.561 53.6 153.275 53.6C154.181 53.6 154.912 53.4583 155.467 53.175C156.023 52.8917 156.357 52.506 156.468 52.0181C156.484 51.9551 156.492 51.8606 156.492 51.7347C156.492 51.3412 156.246 51.0343 155.753 50.8139C155.261 50.5778 154.356 50.3023 153.037 49.9875C151.496 49.6569 150.329 49.1611 149.534 48.5C148.74 47.8231 148.343 46.9417 148.343 45.8556C148.343 45.4778 148.391 45.0921 148.486 44.6986C148.804 43.2347 149.59 42.0856 150.845 41.2514C152.116 40.4171 153.752 40 155.753 40C156.961 40 158.033 40.2125 158.97 40.6375C159.907 41.0625 160.63 41.6056 161.138 42.2667C161.663 42.912 161.925 43.5574 161.925 44.2028C161.925 44.3917 161.917 44.5255 161.901 44.6042C161.869 44.7458 161.798 44.8639 161.686 44.9583C161.591 45.0528 161.472 45.1 161.329 45.1H158.136C157.787 45.1 157.548 44.9662 157.421 44.6986C157.405 44.3366 157.215 44.0296 156.849 43.7778C156.484 43.5259 156.008 43.4 155.42 43.4C154.721 43.4 154.141 43.5259 153.68 43.7778C153.236 44.0296 152.958 44.3995 152.846 44.8875C152.831 44.9662 152.823 45.0685 152.823 45.1944C152.823 45.5722 153.045 45.887 153.49 46.1389C153.95 46.375 154.753 46.619 155.896 46.8708C157.675 47.2171 158.97 47.713 159.78 48.3583C160.606 49.0037 161.019 49.8616 161.019 50.9319C161.019 51.294 160.972 51.6875 160.876 52.1125C160.527 53.7181 159.677 54.938 158.327 55.7722C156.992 56.5907 155.205 57 152.966 57Z" fill="white"/>
<path d="M164.18 56.7639C164.006 56.7639 163.871 56.7088 163.775 56.5986C163.68 56.4884 163.648 56.3468 163.68 56.1736L166.968 40.8264C167 40.6532 167.087 40.5116 167.23 40.4014C167.373 40.2912 167.532 40.2361 167.707 40.2361H170.28C170.661 40.2361 170.908 40.4093 171.019 40.7556L173.616 48.1931L179.406 40.7556C179.485 40.6296 179.597 40.5116 179.739 40.4014C179.898 40.2912 180.089 40.2361 180.311 40.2361H182.909C183.083 40.2361 183.218 40.2912 183.314 40.4014C183.377 40.4958 183.409 40.5903 183.409 40.6847C183.409 40.7319 183.401 40.7792 183.385 40.8264L180.097 56.1736C180.065 56.3468 179.978 56.4884 179.835 56.5986C179.692 56.7088 179.541 56.7639 179.382 56.7639H176.499C176.324 56.7639 176.189 56.7088 176.094 56.5986C176.014 56.4727 175.991 56.331 176.022 56.1736L177.881 47.4611L174.235 52.2542C174.077 52.4273 173.926 52.5611 173.783 52.6556C173.64 52.75 173.473 52.7972 173.282 52.7972H172.043C171.71 52.7972 171.479 52.6162 171.352 52.2542L169.661 47.2486L167.754 56.1736C167.723 56.3468 167.635 56.4884 167.492 56.5986C167.349 56.7088 167.198 56.7639 167.04 56.7639H164.18Z" fill="white"/>
</g>
<path d="M42.6548 113V82.4545H54.706C57.0128 82.4545 58.9815 82.8672 60.6122 83.6925C62.2528 84.5078 63.5007 85.6662 64.3558 87.1676C65.2209 88.6591 65.6534 90.4141 65.6534 92.4325C65.6534 94.4609 65.2159 96.206 64.3409 97.6676C63.4659 99.1193 62.1982 100.233 60.5376 101.009C58.8871 101.784 56.8885 102.172 54.5419 102.172H46.473V96.9815H53.4979C54.7308 96.9815 55.755 96.8125 56.5703 96.4744C57.3857 96.1364 57.9922 95.6293 58.3899 94.9531C58.7976 94.277 59.0014 93.4368 59.0014 92.4325C59.0014 91.4183 58.7976 90.5632 58.3899 89.8672C57.9922 89.1712 57.3807 88.6442 56.5554 88.2862C55.7401 87.9183 54.7109 87.7344 53.468 87.7344H49.1129V113H42.6548ZM59.1506 99.0994L66.7422 113H59.6129L52.1854 99.0994H59.1506ZM80.1692 113.447C77.8127 113.447 75.7843 112.97 74.084 112.016C72.3936 111.051 71.0911 109.689 70.1763 107.929C69.2615 106.159 68.8042 104.066 68.8042 101.65C68.8042 99.2933 69.2615 97.2251 70.1763 95.4453C71.0911 93.6655 72.3787 92.2784 74.0392 91.2841C75.7097 90.2898 77.6685 89.7926 79.9157 89.7926C81.427 89.7926 82.834 90.0362 84.1365 90.5234C85.449 91.0007 86.5925 91.7216 87.5669 92.6861C88.5513 93.6506 89.3169 94.8636 89.8638 96.3253C90.4107 97.777 90.6841 99.4773 90.6841 101.426V103.171H71.3397V99.2337H84.7033C84.7033 98.3189 84.5044 97.5085 84.1067 96.8026C83.709 96.0966 83.1571 95.5447 82.4512 95.147C81.7551 94.7393 80.9448 94.5355 80.0201 94.5355C79.0556 94.5355 78.2005 94.7592 77.4547 95.2067C76.7189 95.6442 76.1422 96.2358 75.7246 96.9815C75.307 97.7173 75.0932 98.5376 75.0833 99.4425V103.186C75.0833 104.32 75.2921 105.299 75.7097 106.124C76.1373 106.95 76.7388 107.586 77.5144 108.033C78.29 108.481 79.2097 108.705 80.2736 108.705C80.9796 108.705 81.6259 108.605 82.2125 108.406C82.7992 108.207 83.3013 107.909 83.7189 107.511C84.1365 107.114 84.4547 106.626 84.6735 106.05L90.5499 106.438C90.2516 107.849 89.6401 109.082 88.7154 110.136C87.8006 111.18 86.6174 111.996 85.1657 112.582C83.7239 113.159 82.0584 113.447 80.1692 113.447ZM107.016 90.0909V94.8636H93.2196V90.0909H107.016ZM96.3517 84.6023H102.705V105.96C102.705 106.547 102.795 107.004 102.974 107.332C103.153 107.651 103.401 107.874 103.72 108.004C104.048 108.133 104.426 108.197 104.853 108.197C105.151 108.197 105.45 108.173 105.748 108.123C106.046 108.063 106.275 108.018 106.434 107.989L107.433 112.717C107.115 112.816 106.668 112.93 106.091 113.06C105.514 113.199 104.813 113.283 103.988 113.313C102.457 113.373 101.115 113.169 99.9611 112.702C98.8176 112.234 97.9277 111.509 97.2914 110.524C96.655 109.54 96.3418 108.297 96.3517 106.795V84.6023ZM111.155 113V90.0909H117.314V94.0881H117.553C117.971 92.6662 118.672 91.5923 119.656 90.8665C120.64 90.1307 121.774 89.7628 123.057 89.7628C123.375 89.7628 123.718 89.7827 124.086 89.8224C124.454 89.8622 124.777 89.9169 125.055 89.9865V95.6243C124.757 95.5348 124.344 95.4553 123.817 95.3857C123.29 95.3161 122.808 95.2812 122.371 95.2812C121.436 95.2812 120.601 95.4851 119.865 95.8928C119.139 96.2905 118.562 96.8473 118.135 97.5632C117.717 98.2791 117.508 99.1044 117.508 100.039V113H111.155ZM137.625 113.447C135.308 113.447 133.304 112.955 131.614 111.971C129.934 110.977 128.636 109.594 127.721 107.825C126.806 106.045 126.349 103.982 126.349 101.635C126.349 99.2685 126.806 97.2003 127.721 95.4304C128.636 93.6506 129.934 92.2685 131.614 91.2841C133.304 90.2898 135.308 89.7926 137.625 89.7926C139.941 89.7926 141.94 90.2898 143.62 91.2841C145.311 92.2685 146.613 93.6506 147.528 95.4304C148.443 97.2003 148.9 99.2685 148.9 101.635C148.9 103.982 148.443 106.045 147.528 107.825C146.613 109.594 145.311 110.977 143.62 111.971C141.94 112.955 139.941 113.447 137.625 113.447ZM137.654 108.526C138.708 108.526 139.588 108.227 140.294 107.631C141 107.024 141.532 106.199 141.89 105.155C142.258 104.111 142.442 102.923 142.442 101.59C142.442 100.258 142.258 99.0696 141.89 98.0256C141.532 96.9815 141 96.1562 140.294 95.5497C139.588 94.9432 138.708 94.6399 137.654 94.6399C136.591 94.6399 135.696 94.9432 134.97 95.5497C134.254 96.1562 133.712 96.9815 133.344 98.0256C132.986 99.0696 132.807 100.258 132.807 101.59C132.807 102.923 132.986 104.111 133.344 105.155C133.712 106.199 134.254 107.024 134.97 107.631C135.696 108.227 136.591 108.526 137.654 108.526ZM153.151 113V82.4545H165.202C167.519 82.4545 169.493 82.897 171.123 83.782C172.754 84.657 173.997 85.875 174.852 87.4361C175.717 88.9872 176.15 90.777 176.15 92.8054C176.15 94.8338 175.712 96.6236 174.837 98.1747C173.962 99.7259 172.694 100.934 171.034 101.799C169.383 102.664 167.385 103.097 165.038 103.097H157.357V97.9212H163.994C165.237 97.9212 166.261 97.7074 167.066 97.2798C167.882 96.8423 168.488 96.2408 168.886 95.4751C169.294 94.6996 169.498 93.8097 169.498 92.8054C169.498 91.7912 169.294 90.9062 168.886 90.1506C168.488 89.3849 167.882 88.7933 167.066 88.3757C166.251 87.9482 165.217 87.7344 163.964 87.7344H159.609V113H153.151ZM200.599 92.3281C200.39 91.6023 200.096 90.9609 199.719 90.4041C199.341 89.8374 198.878 89.3601 198.331 88.9723C197.795 88.5746 197.178 88.2713 196.482 88.0625C195.796 87.8537 195.035 87.7493 194.2 87.7493C192.639 87.7493 191.267 88.1371 190.084 88.9126C188.91 89.6882 187.996 90.8168 187.339 92.2983C186.683 93.7699 186.355 95.5696 186.355 97.6974C186.355 99.8253 186.678 101.635 187.324 103.126C187.971 104.618 188.885 105.756 190.069 106.542C191.252 107.317 192.649 107.705 194.26 107.705C195.721 107.705 196.969 107.447 198.003 106.93C199.047 106.403 199.843 105.662 200.39 104.707C200.947 103.753 201.225 102.624 201.225 101.322L202.537 101.516H194.662V96.6534H207.444V100.501C207.444 103.186 206.878 105.493 205.744 107.422C204.611 109.341 203.05 110.822 201.061 111.866C199.072 112.901 196.795 113.418 194.23 113.418C191.366 113.418 188.851 112.786 186.683 111.523C184.515 110.251 182.825 108.446 181.612 106.109C180.409 103.763 179.807 100.979 179.807 97.7571C179.807 95.2812 180.165 93.0739 180.881 91.1349C181.607 89.1861 182.621 87.5355 183.924 86.1832C185.226 84.831 186.743 83.8018 188.473 83.0959C190.203 82.3899 192.077 82.0369 194.096 82.0369C195.826 82.0369 197.437 82.2905 198.928 82.7976C200.42 83.2947 201.742 84.0007 202.895 84.9155C204.059 85.8303 205.008 86.919 205.744 88.1818C206.48 89.4347 206.952 90.8168 207.161 92.3281H200.599ZM212.295 113V82.4545H232.52V87.7791H218.754V95.0575H231.178V100.382H218.754V113H212.295ZM42.6548 159V128.455H54.706C57.0128 128.455 58.9815 128.867 60.6122 129.692C62.2528 130.508 63.5007 131.666 64.3558 133.168C65.2209 134.659 65.6534 136.414 65.6534 138.433C65.6534 140.461 65.2159 142.206 64.3409 143.668C63.4659 145.119 62.1982 146.233 60.5376 147.009C58.8871 147.784 56.8885 148.172 54.5419 148.172H46.473V142.982H53.4979C54.7308 142.982 55.755 142.812 56.5703 142.474C57.3857 142.136 57.9922 141.629 58.3899 140.953C58.7976 140.277 59.0014 139.437 59.0014 138.433C59.0014 137.418 58.7976 136.563 58.3899 135.867C57.9922 135.171 57.3807 134.644 56.5554 134.286C55.7401 133.918 54.7109 133.734 53.468 133.734H49.1129V159H42.6548ZM59.1506 145.099L66.7422 159H59.6129L52.1854 145.099H59.1506ZM80.0797 159.447C77.763 159.447 75.7594 158.955 74.0691 157.971C72.3887 156.977 71.0911 155.594 70.1763 153.825C69.2615 152.045 68.8042 149.982 68.8042 147.635C68.8042 145.268 69.2615 143.2 70.1763 141.43C71.0911 139.651 72.3887 138.268 74.0691 137.284C75.7594 136.29 77.763 135.793 80.0797 135.793C82.3965 135.793 84.3951 136.29 86.0755 137.284C87.7658 138.268 89.0684 139.651 89.9831 141.43C90.8979 143.2 91.3553 145.268 91.3553 147.635C91.3553 149.982 90.8979 152.045 89.9831 153.825C89.0684 155.594 87.7658 156.977 86.0755 157.971C84.3951 158.955 82.3965 159.447 80.0797 159.447ZM80.1096 154.526C81.1635 154.526 82.0435 154.227 82.7495 153.631C83.4554 153.024 83.9874 152.199 84.3453 151.155C84.7132 150.111 84.8972 148.923 84.8972 147.59C84.8972 146.258 84.7132 145.07 84.3453 144.026C83.9874 142.982 83.4554 142.156 82.7495 141.55C82.0435 140.943 81.1635 140.64 80.1096 140.64C79.0456 140.64 78.1507 140.943 77.4249 141.55C76.709 142.156 76.1671 142.982 75.7992 144.026C75.4412 145.07 75.2623 146.258 75.2623 147.59C75.2623 148.923 75.4412 150.111 75.7992 151.155C76.1671 152.199 76.709 153.024 77.4249 153.631C78.1507 154.227 79.0456 154.526 80.1096 154.526ZM110.178 149.246V136.091H116.531V159H110.431V154.839H110.193C109.676 156.181 108.816 157.26 107.612 158.075C106.419 158.891 104.963 159.298 103.242 159.298C101.711 159.298 100.364 158.95 99.2005 158.254C98.0371 157.558 97.1273 156.569 96.4711 155.286C95.8248 154.004 95.4966 152.467 95.4867 150.678V136.091H101.84V149.544C101.85 150.896 102.213 151.965 102.929 152.751C103.645 153.536 104.605 153.929 105.808 153.929C106.573 153.929 107.289 153.755 107.955 153.407C108.622 153.049 109.159 152.522 109.566 151.826C109.984 151.13 110.188 150.27 110.178 149.246ZM127.967 145.756V159H121.614V136.091H127.669V140.133H127.938C128.445 138.8 129.295 137.746 130.488 136.971C131.681 136.185 133.128 135.793 134.828 135.793C136.419 135.793 137.806 136.141 138.989 136.837C140.173 137.533 141.092 138.527 141.749 139.82C142.405 141.102 142.733 142.634 142.733 144.413V159H136.379V145.547C136.389 144.145 136.031 143.051 135.305 142.266C134.58 141.47 133.58 141.072 132.308 141.072C131.452 141.072 130.697 141.256 130.04 141.624C129.394 141.992 128.887 142.529 128.519 143.235C128.161 143.931 127.977 144.771 127.967 145.756ZM156.182 159.373C154.442 159.373 152.866 158.925 151.454 158.031C150.052 157.126 148.939 155.798 148.113 154.048C147.298 152.288 146.89 150.131 146.89 147.575C146.89 144.95 147.313 142.768 148.158 141.028C149.003 139.278 150.127 137.97 151.529 137.105C152.941 136.23 154.487 135.793 156.167 135.793C157.45 135.793 158.519 136.011 159.374 136.449C160.239 136.876 160.935 137.413 161.462 138.06C161.999 138.696 162.407 139.322 162.685 139.939H162.879V128.455H169.218V159H162.954V155.331H162.685C162.387 155.967 161.964 156.599 161.417 157.225C160.881 157.842 160.18 158.354 159.314 158.761C158.459 159.169 157.415 159.373 156.182 159.373ZM158.196 154.317C159.22 154.317 160.085 154.038 160.791 153.482C161.507 152.915 162.054 152.124 162.432 151.11C162.819 150.096 163.013 148.908 163.013 147.545C163.013 146.183 162.824 145 162.447 143.996C162.069 142.991 161.522 142.216 160.806 141.669C160.09 141.122 159.22 140.849 158.196 140.849C157.152 140.849 156.272 141.132 155.556 141.699C154.84 142.266 154.298 143.051 153.93 144.055C153.562 145.06 153.378 146.223 153.378 147.545C153.378 148.878 153.562 150.056 153.93 151.08C154.308 152.094 154.85 152.89 155.556 153.467C156.272 154.033 157.152 154.317 158.196 154.317Z" fill="#202327"/>
</g>
<defs>
<filter id="filter0_ddd_7596_31064" x="245.15" y="-154.776" width="448.39" height="448.39" filterUnits="userSpaceOnUse" color-interpolation-filters="sRGB">
<feFlood flood-opacity="0" result="BackgroundImageFix"/>
<feColorMatrix in="SourceAlpha" type="matrix" values="0 0 0 0 0 0 0 0 0 0 0 0 0 0 0 0 0 0 127 0" result="hardAlpha"/>
<feOffset dy="9.13418"/>
<feGaussianBlur stdDeviation="27.4025"/>
<feColorMatrix type="matrix" values="0 0 0 0 0.12549 0 0 0 0 0.137255 0 0 0 0 0.152941 0 0 0 0.02 0"/>
<feBlend mode="normal" in2="BackgroundImageFix" result="effect1_dropShadow_7596_31064"/>
<feColorMatrix in="SourceAlpha" type="matrix" values="0 0 0 0 0 0 0 0 0 0 0 0 0 0 0 0 0 0 127 0" result="hardAlpha"/>
<feOffset dy="4.56709"/>
<feGaussianBlur stdDeviation="4.56709"/>
<feColorMatrix type="matrix" values="0 0 0 0 0.12549 0 0 0 0 0.137255 0 0 0 0 0.152941 0 0 0 0.04 0"/>
<feBlend mode="normal" in2="effect1_dropShadow_7596_31064" result="effect2_dropShadow_7596_31064"/>
<feColorMatrix in="SourceAlpha" type="matrix" values="0 0 0 0 0 0 0 0 0 0 0 0 0 0 0 0 0 0 127 0" result="hardAlpha"/>
<feOffset/>
<feGaussianBlur stdDeviation="0.570886"/>
<feColorMatrix type="matrix" values="0 0 0 0 0.12549 0 0 0 0 0.137255 0 0 0 0 0.152941 0 0 0 0.16 0"/>
<feBlend mode="normal" in2="effect2_dropShadow_7596_31064" result="effect3_dropShadow_7596_31064"/>
<feBlend mode="normal" in="SourceGraphic" in2="effect3_dropShadow_7596_31064" result="shape"/>
</filter>
<linearGradient id="paint0_linear_7596_31064" x1="324" y1="0" x2="207" y2="339" gradientUnits="userSpaceOnUse">
<stop stop-color="#E9F0F8"/>
<stop offset="1" stop-color="#FEECED"/>
</linearGradient>
<linearGradient id="paint1_linear_7596_31064" x1="447.535" y1="26.6768" x2="463.883" y2="172.843" gradientUnits="userSpaceOnUse">
<stop offset="0.194203" stop-color="#FF0420"/>
<stop offset="0.53125" stop-color="#FF0420" stop-opacity="0"/>
</linearGradient>
<clipPath id="clip0_7596_31064">
<rect width="648" height="364" fill="white"/>
</clipPath>
<clipPath id="clip1_7596_31064">
<rect width="127.466" height="17" fill="white" transform="translate(56 40)"/>
</clipPath>
</defs>
</svg>
