<svg width="18" height="18" viewBox="0 0 18 18" fill="none" xmlns="http://www.w3.org/2000/svg">
<path d="M15.5935 9.45565C15.7766 9.29872 15.8682 9.22025 15.9017 9.12687C15.9311 9.04492 15.9311 8.95527 15.9017 8.87332C15.8682 8.77995 15.7766 8.70148 15.5935 8.54454L9.24047 3.09908C8.9253 2.82893 8.76772 2.69385 8.6343 2.69055C8.51835 2.68767 8.40759 2.73861 8.33432 2.82852C8.25 2.93197 8.25 3.13952 8.25 3.55463V6.77607C6.64899 7.05616 5.1837 7.86741 4.09478 9.0855C2.90762 10.4135 2.25093 12.1321 2.25 13.9133V14.3723C3.03701 13.4242 4.01963 12.6575 5.13057 12.1245C6.11002 11.6547 7.16881 11.3763 8.25 11.303V14.4456C8.25 14.8607 8.25 15.0682 8.33432 15.1717C8.40759 15.2616 8.51835 15.3125 8.6343 15.3096C8.76772 15.3063 8.9253 15.1713 9.24047 14.9011L15.5935 9.45565Z" stroke="black" stroke-width="1.5" stroke-linecap="round" stroke-linejoin="round"/>
</svg>