<svg width="120" height="120" viewBox="0 0 120 120" fill="none" xmlns="http://www.w3.org/2000/svg">
<path d="M60 0L63.4533 7.31305L67.8316 0.513309L70.3008 8.21454L75.5291 2.04445L76.972 10.0021L82.961 4.56723L83.3528 12.6451L90 8.03848L89.3341 16.0984L96.5257 12.3988L94.8135 20.3029L102.426 17.5736L99.6971 25.1865L107.601 23.4743L103.902 30.6659L111.962 30L107.355 36.6472L115.433 37.039L109.998 43.028L117.956 44.4709L111.785 49.6992L119.487 52.1684L112.687 56.5467L120 60L112.687 63.4533L119.487 67.8316L111.785 70.3008L117.956 75.5291L109.998 76.972L115.433 82.961L107.355 83.3528L111.962 90L103.902 89.3341L107.601 96.5257L99.6971 94.8135L102.426 102.426L94.8135 99.6971L96.5257 107.601L89.3341 103.902L90 111.962L83.3528 107.355L82.961 115.433L76.972 109.998L75.5291 117.956L70.3008 111.785L67.8316 119.487L63.4533 112.687L60 120L56.5467 112.687L52.1684 119.487L49.6992 111.785L44.4709 117.956L43.028 109.998L37.039 115.433L36.6472 107.355L30 111.962L30.6659 103.902L23.4743 107.601L25.1865 99.6971L17.5736 102.426L20.3029 94.8135L12.3988 96.5257L16.0984 89.3341L8.03848 90L12.6451 83.3528L4.56723 82.961L10.0021 76.972L2.04445 75.5291L8.21454 70.3008L0.513309 67.8316L7.31305 63.4533L0 60L7.31305 56.5467L0.513309 52.1684L8.21454 49.6992L2.04445 44.4709L10.0021 43.028L4.56723 37.039L12.6451 36.6472L8.03848 30L16.0984 30.6659L12.3988 23.4743L20.3029 25.1865L17.5736 17.5736L25.1865 20.3029L23.4743 12.3988L30.6659 16.0984L30 8.03848L36.6472 12.6451L37.039 4.56723L43.028 10.0021L44.4709 2.04445L49.6992 8.21454L52.1684 0.513309L56.5467 7.31305L60 0Z" fill="#FF0420"/>
<path fill-rule="evenodd" clip-rule="evenodd" d="M54.0485 56.4473C54.5964 56.4473 55.0404 56.8891 55.0404 57.4341C55.0404 60.1592 57.2609 62.3683 60 62.3683C62.739 62.3683 64.9595 60.1592 64.9595 57.4341C64.9595 56.8891 65.4036 56.4473 65.9514 56.4473C66.4992 56.4473 66.9433 56.8891 66.9433 57.4341C66.9433 61.2492 63.8347 64.342 60 64.342C56.1653 64.342 53.0566 61.2492 53.0566 57.4341C53.0566 56.8891 53.5007 56.4473 54.0485 56.4473Z" fill="white"/>
<path d="M42.1459 45.9619L42.8076 47.6311C43.3921 49.1057 44.5632 50.2721 46.0415 50.8522L47.7253 51.5129L46.0415 52.1736C44.5632 52.7537 43.3921 53.9201 42.8076 55.3947L42.1459 57.0639L41.4842 55.3947C40.8996 53.9201 39.7285 52.7537 38.2502 52.1736L36.5664 51.5129L38.2502 50.8522C39.7285 50.2721 40.8996 49.1057 41.4842 47.6311L42.1459 45.9619Z" fill="white"/>
<path d="M77.8544 45.9619L78.5161 47.6311C79.1006 49.1057 80.2717 50.2721 81.75 50.8522L83.4338 51.5129L81.75 52.1736C80.2717 52.7537 79.1006 53.9201 78.5161 55.3947L77.8544 57.0639L77.1927 55.3947C76.6081 53.9201 75.437 52.7537 73.9587 52.1736L72.2749 51.5129L73.9587 50.8522C75.437 50.2721 76.6081 49.1057 77.1927 47.6311L77.8544 45.9619Z" fill="white"/>
</svg>
