<svg width="34" height="34" viewBox="0 0 34 34" fill="none" xmlns="http://www.w3.org/2000/svg">
<path d="M7.125 3H26.8159V31.0008H23.9255V18.1746H23.8971C23.5777 14.6298 20.5984 11.8518 16.9704 11.8518C13.3424 11.8518 10.3632 14.6298 10.0437 18.1746H10.0154V31.0008H7.125V3Z" fill="#66676B"/>
<path d="M1.88574 6.97412L3.05997 10.9484H4.05353V27.0263C3.55468 27.0263 3.15029 27.4307 3.15029 27.9296V29.0135H2.96966C2.47081 29.0135 2.06637 29.4179 2.06637 29.9167V31.0007H12.1828V29.9167C12.1828 29.4179 11.7784 29.0135 11.2796 29.0135H11.0989V27.9296C11.0989 27.4307 10.6945 27.0263 10.1956 27.0263H9.11177V6.97412H1.88574Z" fill="#66676B"/>
<path d="M24.1063 27.0263C23.6074 27.0263 23.203 27.4307 23.203 27.9296V29.0135H23.0224C22.5235 29.0135 22.1191 29.4179 22.1191 29.9167V31.0007H32.2356V29.9167C32.2356 29.4179 31.8311 29.0135 31.3323 29.0135H31.1517V27.9296C31.1517 27.4307 30.7473 27.0263 30.2484 27.0263V10.9484H31.242L32.4162 6.97412H25.1902V27.0263H24.1063Z" fill="#66676B"/>
</svg>
