<svg width="34" height="34" viewBox="0 0 34 34" fill="none" xmlns="http://www.w3.org/2000/svg">
<g clip-path="url(#clip0_154_147)">
<path d="M5.88672 1.27051H28.01V32.7303H24.7626V18.3197H24.7308C24.3718 14.3369 21.0246 11.2158 16.9484 11.2158C12.8722 11.2158 9.52495 14.3369 9.16601 18.3197H9.13418V32.7303H5.88672V1.27051Z" fill="#66676B"/>
<path d="M0 5.73535L1.31929 10.2006H2.43558V28.2647C1.87511 28.2647 1.42076 28.719 1.42076 29.2795V30.4973H1.21781C0.657337 30.4973 0.202945 30.9516 0.202945 31.5121V32.7299H11.5691V31.5121C11.5691 30.9516 11.1147 30.4973 10.5543 30.4973H10.3513V29.2795C10.3513 28.719 9.89691 28.2647 9.33644 28.2647H8.11867V5.73535H0Z" fill="#66676B"/>
<path d="M24.9651 28.2647C24.4046 28.2647 23.9502 28.719 23.9502 29.2795V30.4973H23.7472C23.1868 30.4973 22.7324 30.9516 22.7324 31.5121V32.7299H34.0985V31.5121C34.0985 30.9516 33.6442 30.4973 33.0837 30.4973H32.8807V29.2795C32.8807 28.719 32.4264 28.2647 31.8659 28.2647V10.2006H32.9822L34.3015 5.73535H26.1828V28.2647H24.9651Z" fill="#66676B"/>
</g>
<defs>
<clipPath id="clip0_154_147">
<rect width="34" height="34" fill="white"/>
</clipPath>
</defs>
</svg>
