<svg width="16" height="16" viewBox="0 0 16 16" fill="none" xmlns="http://www.w3.org/2000/svg">
<path d="M8.01562 14.5C8.23438 14.5 8.85938 14.2812 9.48438 13C9.76562 12.4375 10.0156 11.7812 10.1719 11H5.82812C6.01562 11.7812 6.23438 12.4375 6.51562 13C7.17188 14.2812 7.76562 14.5 8.01562 14.5ZM5.57812 9.5H10.4219C10.4844 9.03125 10.5156 8.53125 10.5156 8C10.5156 7.5 10.4844 7 10.4219 6.5H5.57812C5.51562 7 5.51562 7.5 5.51562 8C5.51562 8.53125 5.51562 9.03125 5.57812 9.5ZM5.82812 5H10.1719C10.0156 4.25 9.76562 3.59375 9.48438 3.03125C8.85938 1.75 8.23438 1.5 8.01562 1.5C7.76562 1.5 7.17188 1.75 6.51562 3.03125C6.23438 3.59375 6.01562 4.25 5.82812 5ZM11.9219 6.5C11.9844 7 11.9844 7.5 11.9844 8C11.9844 8.53125 11.9844 9.03125 11.9219 9.5H14.3281C14.4531 9.03125 14.5156 8.53125 14.5156 8C14.5156 7.5 14.4531 7 14.3281 6.5H11.9219ZM13.7656 5C13.1094 3.71875 12.0156 2.6875 10.7031 2.09375C11.1406 2.90625 11.4844 3.90625 11.7031 5H13.7656ZM4.29688 5C4.51562 3.90625 4.85938 2.90625 5.29688 2.09375C3.98438 2.6875 2.89062 3.71875 2.23438 5H4.29688ZM1.67188 6.5C1.57812 7 1.51562 7.5 1.51562 8C1.51562 8.53125 1.54688 9.03125 1.67188 9.5H4.07812C4.01562 9.03125 4.01562 8.53125 4.01562 8C4.01562 7.5 4.01562 7 4.07812 6.5H1.67188ZM10.7031 13.9375C12.0156 13.3438 13.1094 12.3125 13.7656 11H11.7031C11.4844 12.125 11.1406 13.125 10.7031 13.9375ZM5.29688 13.9375C4.85938 13.125 4.51562 12.125 4.29688 11H2.23438C2.89062 12.3125 3.98438 13.3438 5.29688 13.9375ZM8.01562 16C5.14062 16 2.51562 14.5 1.07812 12C-0.359375 9.53125 -0.359375 6.5 1.07812 4C2.51562 1.53125 5.14062 0 8.01562 0C10.8594 0 13.4844 1.53125 14.9219 4C16.3594 6.5 16.3594 9.53125 14.9219 12C13.4844 14.5 10.8594 16 8.01562 16Z" fill="#4F4F4F"/>
</svg>
