<svg width="686" height="723" viewBox="0 0 686 723" fill="none" xmlns="http://www.w3.org/2000/svg">
<mask id="mask0_8818_11574" style="mask-type:alpha" maskUnits="userSpaceOnUse" x="0" y="0" width="686" height="723">
<path d="M0 0H686V723H0V0Z" fill="#FAFAFA"/>
</mask>
<g mask="url(#mask0_8818_11574)">
<path d="M0 0H686V722H0V0Z" fill="#FAFAFA"/>
<line x1="35.797" y1="1083.91" x2="35.7969" y2="0.752197" stroke="#D6CDCD" stroke-width="0.616028" stroke-dasharray="1.23 1.23"/>
<line x1="71.9024" y1="1083.91" x2="71.9024" y2="0.752197" stroke="#D6CDCD" stroke-width="0.616028" stroke-dasharray="1.23 1.23"/>
<line x1="108.007" y1="1083.91" x2="108.007" y2="0.752197" stroke="#D6CDCD" stroke-width="0.616028" stroke-dasharray="1.23 1.23"/>
<line x1="144.113" y1="1083.91" x2="144.113" y2="0.752197" stroke="#D6CDCD" stroke-width="0.616028" stroke-dasharray="1.23 1.23"/>
<line x1="180.219" y1="1083.91" x2="180.219" y2="0.752197" stroke="#D6CDCD" stroke-width="0.616028" stroke-dasharray="1.23 1.23"/>
<line x1="216.324" y1="1083.91" x2="216.324" y2="0.752197" stroke="#D6CDCD" stroke-width="0.616028" stroke-dasharray="1.23 1.23"/>
<line x1="252.429" y1="1083.91" x2="252.429" y2="0.752197" stroke="#D6CDCD" stroke-width="0.616028" stroke-dasharray="1.23 1.23"/>
<line x1="288.534" y1="1083.91" x2="288.534" y2="0.752197" stroke="#D6CDCD" stroke-width="0.616028" stroke-dasharray="1.23 1.23"/>
<line x1="324.639" y1="1083.91" x2="324.639" y2="0.752197" stroke="#D6CDCD" stroke-width="0.616028" stroke-dasharray="1.23 1.23"/>
<line x1="360.745" y1="1083.91" x2="360.745" y2="0.752197" stroke="#D6CDCD" stroke-width="0.616028" stroke-dasharray="1.23 1.23"/>
<line x1="396.85" y1="1083.91" x2="396.85" y2="0.752197" stroke="#D6CDCD" stroke-width="0.616028" stroke-dasharray="1.23 1.23"/>
<line x1="432.955" y1="1083.91" x2="432.955" y2="0.752197" stroke="#D6CDCD" stroke-width="0.616028" stroke-dasharray="1.23 1.23"/>
<line x1="469.06" y1="1083.91" x2="469.06" y2="0.752197" stroke="#D6CDCD" stroke-width="0.616028" stroke-dasharray="1.23 1.23"/>
<line x1="505.165" y1="1083.91" x2="505.165" y2="0.752197" stroke="#D6CDCD" stroke-width="0.616028" stroke-dasharray="1.23 1.23"/>
<line x1="541.271" y1="1083.91" x2="541.271" y2="0.752197" stroke="#D6CDCD" stroke-width="0.616028" stroke-dasharray="1.23 1.23"/>
<line x1="577.377" y1="1083.91" x2="577.377" y2="0.752197" stroke="#D6CDCD" stroke-width="0.616028" stroke-dasharray="1.23 1.23"/>
<line x1="613.482" y1="1083.91" x2="613.482" y2="0.752197" stroke="#D6CDCD" stroke-width="0.616028" stroke-dasharray="1.23 1.23"/>
<line x1="649.587" y1="1083.91" x2="649.587" y2="0.752197" stroke="#D6CDCD" stroke-width="0.616028" stroke-dasharray="1.23 1.23"/>
<line x1="685.692" y1="1083.91" x2="685.692" y2="0.752197" stroke="#D6CDCD" stroke-width="0.616028" stroke-dasharray="1.23 1.23"/>
<line x1="686" y1="722.413" x2="-6.10082e-05" y2="722.414" stroke="#D6CDCD" stroke-width="0.616028" stroke-dasharray="1.23 1.23"/>
<line x1="686" y1="686.308" x2="-6.10082e-05" y2="686.308" stroke="#D6CDCD" stroke-width="0.616028" stroke-dasharray="1.23 1.23"/>
<line x1="686" y1="650.203" x2="-6.10082e-05" y2="650.203" stroke="#D6CDCD" stroke-width="0.616028" stroke-dasharray="1.23 1.23"/>
<line x1="686" y1="614.098" x2="-6.10082e-05" y2="614.098" stroke="#D6CDCD" stroke-width="0.616028" stroke-dasharray="1.23 1.23"/>
<line x1="686" y1="577.992" x2="-6.10082e-05" y2="577.992" stroke="#D6CDCD" stroke-width="0.616028" stroke-dasharray="1.23 1.23"/>
<line x1="686" y1="541.887" x2="-6.10082e-05" y2="541.887" stroke="#D6CDCD" stroke-width="0.616028" stroke-dasharray="1.23 1.23"/>
<line x1="686" y1="505.782" x2="-6.10082e-05" y2="505.782" stroke="#D6CDCD" stroke-width="0.616028" stroke-dasharray="1.23 1.23"/>
<line x1="686" y1="469.676" x2="-6.10082e-05" y2="469.676" stroke="#D6CDCD" stroke-width="0.616028" stroke-dasharray="1.23 1.23"/>
<line x1="686" y1="433.571" x2="-6.10082e-05" y2="433.571" stroke="#D6CDCD" stroke-width="0.616028" stroke-dasharray="1.23 1.23"/>
<line x1="686" y1="397.466" x2="-6.10082e-05" y2="397.466" stroke="#D6CDCD" stroke-width="0.616028" stroke-dasharray="1.23 1.23"/>
<line x1="686" y1="361.361" x2="-6.10082e-05" y2="361.361" stroke="#D6CDCD" stroke-width="0.616028" stroke-dasharray="1.23 1.23"/>
<line x1="686" y1="325.256" x2="-6.10082e-05" y2="325.256" stroke="#D6CDCD" stroke-width="0.616028" stroke-dasharray="1.23 1.23"/>
<line x1="686" y1="289.15" x2="-6.10082e-05" y2="289.15" stroke="#D6CDCD" stroke-width="0.616028" stroke-dasharray="1.23 1.23"/>
<line x1="686" y1="253.045" x2="-6.10082e-05" y2="253.045" stroke="#D6CDCD" stroke-width="0.616028" stroke-dasharray="1.23 1.23"/>
<line x1="686" y1="216.94" x2="-6.10082e-05" y2="216.94" stroke="#D6CDCD" stroke-width="0.616028" stroke-dasharray="1.23 1.23"/>
<line x1="686" y1="180.834" x2="-6.10082e-05" y2="180.834" stroke="#D6CDCD" stroke-width="0.616028" stroke-dasharray="1.23 1.23"/>
<line x1="686" y1="144.729" x2="-6.10082e-05" y2="144.729" stroke="#D6CDCD" stroke-width="0.616028" stroke-dasharray="1.23 1.23"/>
<line x1="686" y1="108.623" x2="-6.10082e-05" y2="108.624" stroke="#D6CDCD" stroke-width="0.616028" stroke-dasharray="1.23 1.23"/>
<line x1="686" y1="72.5185" x2="-6.10082e-05" y2="72.5185" stroke="#D6CDCD" stroke-width="0.616028" stroke-dasharray="1.23 1.23"/>
<line x1="686" y1="36.4135" x2="-6.10082e-05" y2="36.4135" stroke="#D6CDCD" stroke-width="0.616028" stroke-dasharray="1.23 1.23"/>
<line x1="686" y1="0.308014" x2="-6.10082e-05" y2="0.308074" stroke="#D6CDCD" stroke-width="0.616028" stroke-dasharray="1.23 1.23"/>
</g>
</svg>
