<svg
        width="24"
        height="24"
        viewBox="0 0 24 24"
        fill="none"
        xmlns="http://www.w3.org/2000/svg"
>
    <path
            d="M9 9C9 7.3 10.3 6 12 6C13.7 6 15 7.3 15 9C15 10.7 13.7 12 12 12C10.3 12 9 10.7 9 9ZM12 14C7.4 14 6 17.3 6 17.3V19H18V17.3C18 17.3 16.6 14 12 14Z"
            fill="#66676B"
    />
    <path
            d="M18.5 11C19.8807 11 21 9.88071 21 8.5C21 7.11929 19.8807 6 18.5 6C17.1193 6 16 7.11929 16 8.5C16 9.88071 17.1193 11 18.5 11Z"
            fill="#66676B"
    />
    <path
            d="M18.4992 13C17.2992 13 16.3992 13.3 15.6992 13.8C17.9992 14.9 18.8992 16.8 18.8992 17V17.1H22.9992V15.8C22.9992 15.7 21.8992 13 18.4992 13Z"
            fill="#66676B"
    />
    <path
            d="M18.5 11C19.8807 11 21 9.88071 21 8.5C21 7.11929 19.8807 6 18.5 6C17.1193 6 16 7.11929 16 8.5C16 9.88071 17.1193 11 18.5 11Z"
            fill="#66676B"
    />
    <path
            d="M18.4992 13C17.2992 13 16.3992 13.3 15.6992 13.8C17.9992 14.9 18.8992 16.8 18.8992 17V17.1H22.9992V15.8C22.9992 15.7 21.8992 13 18.4992 13Z"
            fill="#66676B"
    />
    <path
            d="M5.5 11C6.88071 11 8 9.88071 8 8.5C8 7.11929 6.88071 6 5.5 6C4.11929 6 3 7.11929 3 8.5C3 9.88071 4.11929 11 5.5 11Z"
            fill="#66676B"
    />
    <path
            d="M5.5 13C6.7 13 7.6 13.3 8.3 13.8C6 14.9 5.1 16.8 5.1 17V17.1H1V15.8C1 15.7 2.1 13 5.5 13Z"
            fill="#66676B"
    />
</svg>
