<svg
        width="24"
        height="24"
        viewBox="0 0 24 24"
        fill="none"
        xmlns="http://www.w3.org/2000/svg"
>
    <g clip-path="url(#clip0_377_6710)">
        <g clip-path="url(#clip1_377_6710)">
            <path
                    d="M14 3.79995C14.99 3.79995 15.8 2.99495 15.8 1.99995C15.8 1.00495 14.99 0.199951 14 0.199951C13.005 0.199951 12.2 1.00495 12.2 1.99995C12.2 2.99495 13.005 3.79995 14 3.79995ZM14.12 9.99995H19V8.19995H15.375L13.375 4.86995C13.08 4.36995 12.535 4.03995 11.915 4.03995C11.745 4.03995 11.58 4.06495 11.425 4.10995L6 5.79995V11H7.8V7.33495L9.905 6.67995L6 22H7.8L10.67 13.89L13 17V22H14.8V15.595L12.31 11.055L13.045 8.18495L14.12 9.99995Z"
                    fill="#66676B"
            />
        </g>
    </g>
    <defs>
        <clipPath id="clip0_377_6710">
            <rect width="24" height="24" fill="white" />
        </clipPath>
        <clipPath id="clip1_377_6710">
            <rect width="24" height="24" fill="white" />
        </clipPath>
    </defs>
</svg>
