<svg width="85" height="85" viewBox="0 0 85 85" fill="none" xmlns="http://www.w3.org/2000/svg">
<path d="M80.4884 62.0819L60.8402 42.4336L80.4884 22.7853C83.6601 19.6136 83.6601 14.4723 80.4884 11.3006L73.5666 4.37876C70.3949 1.20708 65.2536 1.20708 62.0819 4.37876L42.4336 24.027L22.7853 4.37876C19.6136 1.20708 14.4723 1.20708 11.3006 4.37876L4.37876 11.3006C1.20708 14.4723 1.20708 19.6136 4.37876 22.7853L24.027 42.4336L4.37876 62.0819C1.20708 65.2536 1.20708 70.3949 4.37876 73.5666L11.3006 80.4884C14.4723 83.6601 19.6136 83.6601 22.7853 80.4884L42.4336 60.8402L62.0819 80.4884C65.2536 83.6601 70.3949 83.6601 73.5666 80.4884L80.4884 73.5666C83.6601 70.3949 83.6601 65.2536 80.4884 62.0819Z" fill="#FF2147" stroke="white" stroke-width="4"/>
</svg>
