<svg width="43" height="42" viewBox="0 0 43 42" fill="none" xmlns="http://www.w3.org/2000/svg">
<rect x="10.6899" y="12.1899" width="23.7901" height="14.9789" fill="white"/>
<path d="M21.5412 2.51132C16.6284 2.51131 12.1236 2.98593 8.79743 3.78132C7.14823 4.17569 5.69028 4.67167 4.60186 5.28702C3.65478 5.82247 2.33619 6.82234 2.33619 8.44463C2.33619 10.0669 3.65478 11.0668 4.60186 11.6022C5.69028 12.2176 7.14823 12.7136 8.79743 13.1079C12.1236 13.9033 16.6284 14.3779 21.5412 14.3779C26.4539 14.3779 30.9587 13.9033 34.2849 13.1079C35.9341 12.7136 37.392 12.2176 38.4804 11.6022C39.4275 11.0668 40.7461 10.0669 40.7461 8.44463C40.7461 6.82235 39.4275 5.82248 38.4804 5.28703C37.392 4.67167 35.9341 4.1757 34.2849 3.78132C30.9587 2.98593 26.4539 2.51132 21.5412 2.51132Z" fill="#FF6F7F" stroke="white" stroke-width="3.52446"/>
<path d="M2.33651 26.2658C2.33651 29.5587 2.82299 32.6174 3.66591 34.9163C4.08479 36.0587 4.62545 37.1068 5.31471 37.9019C5.99992 38.6923 6.99304 39.4038 8.26983 39.4038C9.54662 39.4038 10.5397 38.6923 11.2249 37.9019C11.9142 37.1068 12.4549 36.0587 12.8737 34.9163C13.7167 32.6174 14.2031 29.5587 14.2031 26.2658C14.2031 22.9729 13.7167 19.9142 12.8737 17.6153C12.4549 16.473 11.9142 15.4249 11.2249 14.6298C10.5397 13.8394 9.54662 13.1279 8.26983 13.1279C6.99304 13.1279 5.99992 13.8394 5.31471 14.6298C4.62545 15.4249 4.08479 16.473 3.66591 17.6153C2.82299 19.9142 2.33651 22.9729 2.33651 26.2658Z" fill="#FF6F7F" stroke="white" stroke-width="3.52446"/>
<path d="M15.6085 27.025C15.6085 30.1204 16.0982 33.0032 16.9522 35.177C17.3771 36.2585 17.9267 37.2533 18.627 38.0073C19.3296 38.7636 20.3131 39.4046 21.5418 39.4046C22.7705 39.4046 23.754 38.7636 24.4566 38.0073C25.1569 37.2533 25.7065 36.2585 26.1314 35.177C26.9854 33.0032 27.4751 30.1204 27.4751 27.025C27.4751 23.9296 26.9854 21.0468 26.1314 18.8731C25.7065 17.7916 25.1569 16.7968 24.4566 16.0428C23.754 15.2864 22.7705 14.6455 21.5418 14.6455C20.3131 14.6455 19.3296 15.2864 18.627 16.0428C17.9267 16.7968 17.3771 17.7916 16.9522 18.8731C16.0982 21.0468 15.6085 23.9296 15.6085 27.025Z" fill="#FF6F7F" stroke="white" stroke-width="3.52446"/>
<path d="M28.8795 26.2663C28.8795 29.5592 29.366 32.6179 30.2089 34.9168C30.6278 36.0592 31.1684 37.1073 31.8577 37.9024C32.5429 38.6928 33.536 39.4042 34.8128 39.4042C36.0896 39.4042 37.0827 38.6928 37.7679 37.9024C38.4572 37.1073 38.9978 36.0592 39.4167 34.9168C40.2596 32.6179 40.7461 29.5592 40.7461 26.2663C40.7461 22.9734 40.2596 19.9147 39.4167 17.6158C38.9978 16.4734 38.4572 15.4254 37.7679 14.6303C37.0827 13.8399 36.0896 13.1284 34.8128 13.1284C33.536 13.1284 32.5429 13.8399 31.8577 14.6303C31.1684 15.4254 30.6278 16.4734 30.2089 17.6158C29.366 19.9147 28.8795 22.9734 28.8795 26.2663Z" fill="#FF6F7F" stroke="white" stroke-width="3.52446"/>
</svg>
