<svg width="85" height="79" viewBox="0 0 85 79" fill="none" xmlns="http://www.w3.org/2000/svg">
<g filter="url(#filter0_dd_7637_17941)">
<path d="M45.6576 57.1264L48.8383 59.5943C49.7845 60.3292 50.9225 60.7739 52.1144 60.8743C53.3062 60.9748 54.5006 60.7268 55.5528 60.1603C56.6051 59.5942 57.47 58.734 58.0427 57.6839C58.6154 56.6339 58.8711 55.4391 58.7789 54.2446L58.4713 50.2306C58.3637 48.8054 58.7079 47.3838 59.4548 46.1683C60.2076 44.9473 61.3272 43.9973 62.6535 43.454L66.3703 41.9378C67.4762 41.4858 68.4267 40.7217 69.1064 39.7382C69.7862 38.7547 70.1659 37.594 70.1997 36.3969C70.2344 35.2 69.9216 34.0178 69.2993 32.9938C68.6769 31.9697 67.7717 31.1478 66.6934 30.6278L63.0688 28.8794C61.7741 28.2492 60.7116 27.2238 60.0348 25.951C59.3533 24.6853 59.0892 23.2368 59.2803 21.8136L59.8177 17.8253C59.9776 16.639 59.7903 15.4308 59.2784 14.3472C58.7666 13.2637 57.9522 12.3514 56.9341 11.7211C55.9164 11.0899 54.7385 10.7675 53.5432 10.793C52.348 10.8186 51.1867 11.191 50.2002 11.865L46.8875 14.1319C45.7035 14.9396 44.2938 15.3507 42.8601 15.3065C41.4302 15.2579 40.0511 14.7571 38.9205 13.8759L35.729 11.4139C34.7828 10.679 33.6447 10.2343 32.4529 10.1339C31.2611 10.0334 30.0666 10.2814 29.0145 10.8479C27.9622 11.414 27.0972 12.2742 26.5246 13.3243C25.9519 14.3744 25.6962 15.5691 25.7883 16.7637L26.096 20.7776C26.2087 22.2066 25.867 23.6334 25.1199 24.8537C24.3671 26.0746 23.2474 27.0247 21.9211 27.5679L18.1935 29.09C17.0875 29.542 16.137 30.3061 15.4573 31.2896C14.7776 32.2731 14.3978 33.4338 14.364 34.6309C14.3293 35.8278 14.6421 37.01 15.2645 38.034C15.8868 39.0581 16.7921 39.88 17.8703 40.4L21.4949 42.1484C22.788 42.7729 23.8514 43.7912 24.5324 45.0572C25.2139 46.3229 25.4781 47.7714 25.2869 49.1946L24.7496 53.1829C24.5896 54.3692 24.777 55.5774 25.2888 56.661C25.8007 57.7445 26.6151 58.6568 27.6332 59.2871C28.6511 59.9176 29.8289 60.2395 31.024 60.214C32.2191 60.1884 33.3803 59.8165 34.3671 59.1432L37.6798 56.8763C38.8638 56.0686 40.2735 55.6575 41.7071 55.7018C43.1402 55.7464 44.5234 56.2452 45.6576 57.1264Z" fill="#FD9979"/>
<path d="M46.26 42.9033C50.3323 40.7118 51.8513 35.6235 49.6528 31.5383C47.4543 27.4531 42.3708 25.918 38.2985 28.1096C34.2262 30.3012 32.7072 35.3895 34.9057 39.4747C37.1042 43.5599 42.1877 45.0949 46.26 42.9033Z" fill="#FD9979"/>
<path d="M45.6576 57.1264L48.8383 59.5943C49.7845 60.3292 50.9225 60.7739 52.1144 60.8743C53.3062 60.9748 54.5006 60.7268 55.5528 60.1603C56.6051 59.5942 57.47 58.734 58.0427 57.6839C58.6154 56.6339 58.8711 55.4391 58.7789 54.2446L58.4713 50.2306C58.3637 48.8054 58.7079 47.3838 59.4548 46.1683C60.2076 44.9473 61.3272 43.9973 62.6535 43.454L66.3703 41.9378C67.4762 41.4858 68.4267 40.7217 69.1064 39.7382C69.7862 38.7547 70.1659 37.594 70.1997 36.3969C70.2344 35.2 69.9216 34.0178 69.2993 32.9938C68.6769 31.9697 67.7717 31.1478 66.6934 30.6278L63.0688 28.8794C61.7741 28.2492 60.7116 27.2238 60.0348 25.951C59.3533 24.6853 59.0892 23.2368 59.2803 21.8136L59.8177 17.8253C59.9776 16.639 59.7903 15.4308 59.2784 14.3472C58.7666 13.2637 57.9522 12.3514 56.9341 11.7211C55.9164 11.0899 54.7385 10.7675 53.5432 10.793C52.348 10.8186 51.1867 11.191 50.2002 11.865L46.8875 14.1319C45.7035 14.9396 44.2938 15.3507 42.8601 15.3065C41.4302 15.2579 40.0511 14.7571 38.9205 13.8759L35.729 11.4139C34.7828 10.679 33.6447 10.2343 32.4529 10.1339C31.2611 10.0334 30.0666 10.2814 29.0145 10.8479C27.9622 11.414 27.0972 12.2742 26.5246 13.3243C25.9519 14.3744 25.6962 15.5691 25.7883 16.7637L26.096 20.7776C26.2087 22.2066 25.867 23.6334 25.1199 24.8537C24.3671 26.0746 23.2474 27.0247 21.9211 27.5679L18.1935 29.09C17.0875 29.542 16.137 30.3061 15.4573 31.2896C14.7776 32.2731 14.3978 33.4338 14.364 34.6309C14.3293 35.8278 14.6421 37.01 15.2645 38.034C15.8868 39.0581 16.7921 39.88 17.8703 40.4L21.4949 42.1484C22.788 42.7729 23.8514 43.7912 24.5324 45.0572C25.2139 46.3229 25.4781 47.7714 25.2869 49.1946L24.7496 53.1829C24.5896 54.3692 24.777 55.5774 25.2888 56.661C25.8007 57.7445 26.6151 58.6568 27.6332 59.2871C28.6511 59.9176 29.8289 60.2395 31.024 60.214C32.2191 60.1884 33.3803 59.8165 34.3671 59.1432L37.6798 56.8763C38.8638 56.0686 40.2735 55.6575 41.7071 55.7018C43.1402 55.7464 44.5234 56.2452 45.6576 57.1264Z" stroke="white" stroke-width="4" stroke-linecap="round" stroke-linejoin="round"/>
<path d="M46.26 42.9033C50.3323 40.7118 51.8513 35.6235 49.6528 31.5383C47.4543 27.4531 42.3708 25.918 38.2985 28.1096C34.2262 30.3012 32.7072 35.3895 34.9057 39.4747C37.1042 43.5599 42.1877 45.0949 46.26 42.9033Z" stroke="white" stroke-width="4" stroke-linecap="round" stroke-linejoin="round"/>
</g>
<defs>
<filter id="filter0_dd_7637_17941" x="0.361328" y="0.111328" width="83.8408" height="78.7852" filterUnits="userSpaceOnUse" color-interpolation-filters="sRGB">
<feFlood flood-opacity="0" result="BackgroundImageFix"/>
<feColorMatrix in="SourceAlpha" type="matrix" values="0 0 0 0 0 0 0 0 0 0 0 0 0 0 0 0 0 0 127 0" result="hardAlpha"/>
<feOffset dy="2"/>
<feGaussianBlur stdDeviation="1"/>
<feComposite in2="hardAlpha" operator="out"/>
<feColorMatrix type="matrix" values="0 0 0 0 0 0 0 0 0 0 0 0 0 0 0 0 0 0 0.03 0"/>
<feBlend mode="normal" in2="BackgroundImageFix" result="effect1_dropShadow_7637_17941"/>
<feColorMatrix in="SourceAlpha" type="matrix" values="0 0 0 0 0 0 0 0 0 0 0 0 0 0 0 0 0 0 127 0" result="hardAlpha"/>
<feOffset dy="4"/>
<feGaussianBlur stdDeviation="6"/>
<feComposite in2="hardAlpha" operator="out"/>
<feColorMatrix type="matrix" values="0 0 0 0 0 0 0 0 0 0 0 0 0 0 0 0 0 0 0.02 0"/>
<feBlend mode="normal" in2="effect1_dropShadow_7637_17941" result="effect2_dropShadow_7637_17941"/>
<feBlend mode="normal" in="SourceGraphic" in2="effect2_dropShadow_7637_17941" result="shape"/>
</filter>
</defs>
</svg>
