<svg width="112" height="124" viewBox="0 0 112 124" fill="none" xmlns="http://www.w3.org/2000/svg">
<g filter="url(#filter0_dd_7637_17927)">
<path d="M81.1454 30.6517L49.4836 20.5034C47.8417 19.9772 47.0208 19.7141 46.2913 19.8326C45.6495 19.9369 45.0573 20.2416 44.5994 20.7031C44.0789 21.2278 43.8158 22.0488 43.2895 23.6906L41.3402 29.7724C40.8805 31.2065 40.6507 31.9236 40.5964 32.6503C40.5483 33.2946 40.6019 33.9424 40.7552 34.5701C40.9281 35.278 41.2727 35.9476 41.9617 37.2867L47.801 48.6349C48.5898 50.168 48.9843 50.9345 48.9872 51.6736C48.9898 52.3238 48.7865 52.958 48.4065 53.4855C47.9744 54.0852 47.2079 54.4796 45.6748 55.2685L34.3265 61.1077C32.9875 61.7968 32.3179 62.1413 31.7657 62.6168C31.276 63.0383 30.8558 63.5343 30.5204 64.0866C30.1421 64.7094 29.9123 65.4265 29.4526 66.8606L27.5033 72.9423C26.9771 74.5842 26.7139 75.4052 26.8325 76.1347C26.9367 76.7764 27.2414 77.3686 27.703 77.8265C28.2277 78.3471 29.0486 78.6102 30.6905 79.1364L62.3523 89.2847C63.9942 89.811 64.8151 90.0741 65.5447 89.9556C66.1864 89.8513 66.7786 89.5466 67.2365 89.085C67.757 88.5603 68.0201 87.7394 68.5464 86.0975L70.4957 80.0158C70.9554 78.5817 71.1852 77.8646 71.2395 77.1379C71.2876 76.4936 71.234 75.8457 71.0807 75.2181C70.9078 74.5101 70.5633 73.8406 69.8742 72.5015L64.0349 61.1533C63.2461 59.6202 62.8516 58.8536 62.8487 58.1145C62.8461 57.4644 63.0494 56.8302 63.4294 56.3027C63.8615 55.703 64.628 55.3086 66.1611 54.5197L77.5094 48.6804C78.8485 47.9914 79.518 47.6469 80.0703 47.1714C80.5599 46.7498 80.9801 46.2538 81.3155 45.7016C81.6938 45.0787 81.9236 44.3617 82.3833 42.9276L84.3326 36.8458C84.8589 35.2039 85.122 34.383 85.0035 33.6535C84.8992 33.0118 84.5945 32.4195 84.1329 31.9616C83.6082 31.4411 82.7873 31.178 81.1454 30.6517Z" fill="#FFEAE2"/>
<path d="M24.8583 76.4554L26.8325 76.1347L24.8583 76.4554C25.0303 77.514 25.533 78.491 26.2944 79.2464L27.6833 77.8463L26.2944 79.2464C26.8189 79.7666 27.4235 80.0839 28.0143 80.3279C28.5667 80.556 29.2492 80.7747 30.0108 81.0188L30.08 81.041L61.7419 91.1893L61.8111 91.2115C62.5727 91.4556 63.2552 91.6744 63.8373 91.8099C64.4598 91.9548 65.1362 92.0482 65.8654 91.9297C66.924 91.7577 67.901 91.255 68.6563 90.4936C69.1766 89.9692 69.4938 89.3645 69.7378 88.7737C69.966 88.2213 70.1847 87.5388 70.4288 86.7772L70.451 86.708L72.4003 80.6262C72.4215 80.56 72.4425 80.4946 72.4632 80.4301C72.8625 79.1862 73.1617 78.2544 73.234 77.2869L71.2395 77.1379L73.234 77.2868C73.2977 76.4333 73.2267 75.575 73.0236 74.7434L71.0807 75.2181L73.0236 74.7434C72.7933 73.801 72.3452 72.931 71.7469 71.7696C71.7159 71.7094 71.6844 71.6483 71.6526 71.5864L65.8133 60.2382C65.4038 59.4423 65.1531 58.9516 64.9941 58.5689C64.8441 58.2079 64.8487 58.1069 64.8487 58.1066C64.8478 57.8788 64.919 57.6566 65.0521 57.4718C65.0524 57.4715 65.1073 57.3867 65.4392 57.1801C65.7911 56.9611 66.2803 56.7076 67.0762 56.2981L78.4245 50.4588C78.4863 50.427 78.5474 50.3956 78.6076 50.3646C79.7696 49.7674 80.64 49.32 81.3752 48.687L80.1344 47.2459L81.3752 48.687C82.0239 48.1285 82.5806 47.4714 83.0249 46.7398L81.3155 45.7016L83.0249 46.7398C83.5286 45.9106 83.8268 44.9785 84.225 43.7342C84.2457 43.6697 84.2666 43.6043 84.2878 43.538L86.2372 37.4563L86.2594 37.387C86.5035 36.6254 86.7223 35.943 86.8578 35.3608C87.0027 34.7383 87.0961 34.0619 86.9776 33.3327C86.8056 32.2741 86.3029 31.2971 85.5415 30.5418L84.1376 31.957L85.5415 30.5418C85.0171 30.0215 84.4124 29.7043 83.8216 29.4603C83.2692 29.2321 82.5867 29.0134 81.8251 28.7693L81.7559 28.7472L50.0941 18.5989C50.0709 18.5915 50.0479 18.5841 50.0249 18.5767C49.2633 18.3325 48.5808 18.1138 47.9986 17.9783C47.3761 17.8334 46.6997 17.74 45.9705 17.8585C44.9119 18.0305 43.9349 18.5332 43.1796 19.2946C42.6593 19.819 42.3421 20.4237 42.0981 21.0144C41.8699 21.5668 41.6512 22.2494 41.4071 23.011C41.3998 23.034 41.3924 23.0571 41.385 23.0802L39.4356 29.1619C39.4144 29.2282 39.3934 29.2936 39.3727 29.3581C38.9734 30.602 38.6742 31.5338 38.602 32.5013C38.5382 33.3549 38.6092 34.2132 38.8123 35.0447L40.7552 34.5701L38.8123 35.0447C39.0426 35.9872 39.4908 36.8572 40.089 38.0185C40.12 38.0788 40.1515 38.1398 40.1833 38.2017L46.0226 49.55C46.4321 50.3458 46.6829 50.8365 46.8418 51.2192C46.9905 51.5771 46.9873 51.6795 46.9872 51.6816L46.9872 51.6816C46.9881 51.9094 46.9169 52.1316 46.7838 52.3164L46.7838 52.3164C46.7826 52.3182 46.7256 52.4033 46.3967 52.6081C46.0449 52.827 45.5556 53.0805 44.7597 53.4901L33.4115 59.3293C33.3496 59.3612 33.2885 59.3926 33.2282 59.4236C32.0663 60.0208 31.1959 60.4681 30.4607 61.1011C29.812 61.6596 29.2553 62.3168 28.811 63.0484C28.3074 63.8776 28.0091 64.8097 27.6109 66.0539C27.5902 66.1185 27.5693 66.1839 27.5481 66.2501L25.5987 72.3319L25.5766 72.4011C25.3324 73.1627 25.1136 73.8452 24.9781 74.4273C24.8333 75.0498 24.7399 75.7263 24.8583 76.4554Z" stroke="white" stroke-width="4" stroke-linecap="round" stroke-linejoin="round"/>
</g>
<rect x="33.9126" y="65.8965" width="35.3988" height="9.23447" rx="3.71406" transform="rotate(17.7718 33.9126 65.8965)" fill="#FF4F04"/>
<defs>
<filter id="filter0_dd_7637_17927" x="0.520313" y="0.948438" width="110.795" height="122.748" filterUnits="userSpaceOnUse" color-interpolation-filters="sRGB">
<feFlood flood-opacity="0" result="BackgroundImageFix"/>
<feColorMatrix in="SourceAlpha" type="matrix" values="0 0 0 0 0 0 0 0 0 0 0 0 0 0 0 0 0 0 127 0" result="hardAlpha"/>
<feOffset dy="3.71406"/>
<feGaussianBlur stdDeviation="1.85703"/>
<feComposite in2="hardAlpha" operator="out"/>
<feColorMatrix type="matrix" values="0 0 0 0 0 0 0 0 0 0 0 0 0 0 0 0 0 0 0.03 0"/>
<feBlend mode="normal" in2="BackgroundImageFix" result="effect1_dropShadow_7637_17927"/>
<feColorMatrix in="SourceAlpha" type="matrix" values="0 0 0 0 0 0 0 0 0 0 0 0 0 0 0 0 0 0 127 0" result="hardAlpha"/>
<feOffset dy="7.42812"/>
<feGaussianBlur stdDeviation="11.1422"/>
<feComposite in2="hardAlpha" operator="out"/>
<feColorMatrix type="matrix" values="0 0 0 0 0 0 0 0 0 0 0 0 0 0 0 0 0 0 0.02 0"/>
<feBlend mode="normal" in2="effect1_dropShadow_7637_17927" result="effect2_dropShadow_7637_17927"/>
<feBlend mode="normal" in="SourceGraphic" in2="effect2_dropShadow_7637_17927" result="shape"/>
</filter>
</defs>
</svg>
