<svg width="42" height="42" viewBox="0 0 42 42" fill="none" xmlns="http://www.w3.org/2000/svg">
<g clip-path="url(#clip0_7386_21755)">
<circle cx="21" cy="21" r="19" fill="#FF0420" stroke="white" stroke-width="3.5"/>
<path d="M14.8792 26.5817C13.6287 26.5817 12.6042 26.2875 11.8057 25.6991C11.0176 25.1002 10.6235 24.249 10.6235 23.1457C10.6235 22.9145 10.6498 22.6308 10.7023 22.2946C10.8389 21.538 11.0333 20.6291 11.2855 19.5678C12 16.6782 13.8442 15.2334 16.8178 15.2334C17.6269 15.2334 18.352 15.37 18.9929 15.6432C19.6339 15.9059 20.1383 16.3052 20.5061 16.8411C20.8738 17.3665 21.0577 17.9969 21.0577 18.7325C21.0577 18.9531 21.0314 19.2316 20.9789 19.5678C20.8213 20.503 20.6321 21.4119 20.4115 22.2946C20.0437 23.7342 19.408 24.8112 18.5043 25.5257C17.6007 26.2297 16.3923 26.5817 14.8792 26.5817ZM15.0998 24.3121C15.6883 24.3121 16.1874 24.1387 16.5972 23.7919C17.0175 23.4452 17.317 22.9145 17.4956 22.2C17.7373 21.2123 17.9212 20.3507 18.0472 19.6151C18.0893 19.3945 18.1103 19.1685 18.1103 18.9374C18.1103 17.9812 17.6112 17.5031 16.6129 17.5031C16.0245 17.5031 15.5201 17.6764 15.0998 18.0232C14.69 18.37 14.3958 18.9006 14.2172 19.6151C14.028 20.3191 13.8389 21.1808 13.6498 22.2C13.6077 22.4102 13.5867 22.6308 13.5867 22.862C13.5867 23.8287 14.0911 24.3121 15.0998 24.3121Z" fill="white"/>
<path d="M21.7814 26.4241C21.6658 26.4241 21.5765 26.3874 21.5134 26.3138C21.4609 26.2297 21.4451 26.1352 21.4662 26.0301L23.6413 15.7851C23.6623 15.6695 23.7201 15.5749 23.8146 15.5013C23.9092 15.4278 24.009 15.391 24.1141 15.391H28.3067C29.473 15.391 30.4082 15.6327 31.1122 16.116C31.8268 16.5994 32.184 17.2982 32.184 18.2123C32.184 18.475 32.1525 18.7482 32.0895 19.0319C31.8268 20.2403 31.2961 21.1335 30.4975 21.7114C29.7095 22.2893 28.6272 22.5783 27.2507 22.5783H25.1228L24.3978 26.0301C24.3768 26.1457 24.319 26.2402 24.2244 26.3138C24.1299 26.3874 24.03 26.4241 23.925 26.4241H21.7814ZM27.361 20.4032C27.8023 20.4032 28.1858 20.2824 28.5116 20.0407C28.8478 19.799 29.0685 19.4523 29.1736 19.0004C29.2051 18.8218 29.2209 18.6642 29.2209 18.5276C29.2209 18.2228 29.1315 17.9917 28.9529 17.8341C28.7743 17.6659 28.4696 17.5819 28.0387 17.5819H26.1473L25.5484 20.4032H27.361Z" fill="white"/>
</g>
<defs>
<clipPath id="clip0_7386_21755">
<rect width="42" height="42" fill="white"/>
</clipPath>
</defs>
</svg>
