<svg width="33" height="34" viewBox="0 0 33 34" fill="none" xmlns="http://www.w3.org/2000/svg">
<path d="M16.5612 3.24316L19.3 10.364C19.6839 11.3621 19.8758 11.8611 20.1743 12.2809C20.4389 12.653 20.7639 12.978 21.136 13.2426C21.5558 13.5411 22.0548 13.733 23.0529 14.1169L30.1737 16.8557L23.0529 19.5944C22.0548 19.9783 21.5558 20.1703 21.136 20.4688C20.7639 20.7333 20.4389 21.0584 20.1743 21.4304C19.8758 21.8502 19.6839 22.3492 19.3 23.3474L16.5612 30.4682L13.8225 23.3474C13.4386 22.3492 13.2466 21.8502 12.9481 21.4304C12.6836 21.0584 12.3585 20.7333 11.9865 20.4688C11.5667 20.1703 11.0677 19.9783 10.0695 19.5944L2.94873 16.8557L10.0695 14.1169C11.0677 13.733 11.5667 13.5411 11.9865 13.2426C12.3585 12.978 12.6836 12.653 12.9481 12.2809C13.2466 11.8611 13.4386 11.3621 13.8225 10.364L16.5612 3.24316Z" fill="#F39985" stroke="white" stroke-width="3.52446" stroke-linecap="round" stroke-linejoin="round"/>
</svg>
