<svg width="53" height="53" viewBox="0 0 53 53" fill="none" xmlns="http://www.w3.org/2000/svg">
<g filter="url(#filter0_dd_7386_21713)">
<path d="M26.3015 9.68799L29.0402 16.8088C29.4241 17.8069 29.6161 18.306 29.9146 18.7258C30.1791 19.0978 30.5042 19.4229 30.8762 19.6874C31.296 19.9859 31.7951 20.1778 32.7932 20.5617L39.914 23.3005L32.7932 26.0393C31.7951 26.4232 31.296 26.6151 30.8762 26.9136C30.5042 27.1781 30.1791 27.5032 29.9146 27.8752C29.6161 28.295 29.4241 28.7941 29.0403 29.7922L26.3015 36.913L23.5627 29.7922C23.1788 28.7941 22.9869 28.295 22.6884 27.8752C22.4238 27.5032 22.0988 27.1781 21.7267 26.9136C21.3069 26.6151 20.8079 26.4232 19.8098 26.0393L12.689 23.3005L19.8098 20.5617C20.8079 20.1778 21.3069 19.9859 21.7267 19.6874C22.0988 19.4229 22.4238 19.0978 22.6884 18.7258C22.9869 18.306 23.1788 17.8069 23.5627 16.8088L26.3015 9.68799Z" fill="#FF9533" stroke="white" stroke-width="3.52446" stroke-linecap="round" stroke-linejoin="round"/>
</g>
<defs>
<filter id="filter0_dd_7386_21713" x="-0.607061" y="-0.0830929" width="53.8167" height="53.8167" filterUnits="userSpaceOnUse" color-interpolation-filters="sRGB">
<feFlood flood-opacity="0" result="BackgroundImageFix"/>
<feColorMatrix in="SourceAlpha" type="matrix" values="0 0 0 0 0 0 0 0 0 0 0 0 0 0 0 0 0 0 127 0" result="hardAlpha"/>
<feOffset dy="1.76223"/>
<feGaussianBlur stdDeviation="0.881114"/>
<feComposite in2="hardAlpha" operator="out"/>
<feColorMatrix type="matrix" values="0 0 0 0 0 0 0 0 0 0 0 0 0 0 0 0 0 0 0.03 0"/>
<feBlend mode="normal" in2="BackgroundImageFix" result="effect1_dropShadow_7386_21713"/>
<feColorMatrix in="SourceAlpha" type="matrix" values="0 0 0 0 0 0 0 0 0 0 0 0 0 0 0 0 0 0 127 0" result="hardAlpha"/>
<feOffset dy="3.52446"/>
<feGaussianBlur stdDeviation="5.28668"/>
<feComposite in2="hardAlpha" operator="out"/>
<feColorMatrix type="matrix" values="0 0 0 0 0 0 0 0 0 0 0 0 0 0 0 0 0 0 0.02 0"/>
<feBlend mode="normal" in2="effect1_dropShadow_7386_21713" result="effect2_dropShadow_7386_21713"/>
<feBlend mode="normal" in="SourceGraphic" in2="effect2_dropShadow_7386_21713" result="shape"/>
</filter>
</defs>
</svg>
