<svg width="114" height="114" viewBox="0 0 114 114" fill="none" xmlns="http://www.w3.org/2000/svg">
<path fill-rule="evenodd" clip-rule="evenodd" d="M52.2642 59.2861C53.0563 59.2861 53.6984 59.9281 53.6984 60.7201C53.6984 62.304 54.9826 63.588 56.5667 63.588C58.1508 63.588 59.435 62.304 59.435 60.7201C59.435 59.9281 60.0771 59.2861 60.8692 59.2861C61.6613 59.2861 62.3033 59.9281 62.3033 60.7201C62.3033 63.8879 59.735 66.4559 56.5667 66.4559C53.3985 66.4559 50.8301 63.8879 50.8301 60.7201C50.8301 59.9281 51.4722 59.2861 52.2642 59.2861Z" fill="white"/>
<path d="M42.9417 47.6357L43.7709 49.7378C44.5034 51.5949 45.9708 53.0638 47.8233 53.7943L49.9332 54.6263L47.8233 55.4583C45.9708 56.1888 44.5034 57.6577 43.7709 59.5148L42.9417 61.6169L42.1125 59.5148C41.38 57.6577 39.9126 56.1888 38.0601 55.4583L35.9502 54.6263L38.0601 53.7943C39.9126 53.0638 41.38 51.5949 42.1125 49.7378L42.9417 47.6357Z" fill="white"/>
<path d="M70.5491 47.6357L71.3783 49.7378C72.1108 51.5949 73.5783 53.0638 75.4308 53.7943L77.5407 54.6263L75.4308 55.4583C73.5783 56.1888 72.1108 57.6577 71.3783 59.5148L70.5491 61.6169L69.72 59.5148C68.9875 57.6577 67.52 56.1888 65.6675 55.4583L63.5576 54.6263L65.6675 53.7943C67.52 53.0638 68.9875 51.5949 69.72 49.7378L70.5491 47.6357Z" fill="white"/>
</svg>
