<svg width="90" height="90" viewBox="0 0 90 90" fill="none" xmlns="http://www.w3.org/2000/svg">
<path d="M45 0L47.59 5.48479L50.8737 0.384983L52.7256 6.1609L56.6469 1.53334L57.729 7.50157L62.2208 3.42542L62.5146 9.48384L67.5 6.02886L67.0006 12.0738L72.3943 9.2991L71.1101 15.2271L76.8198 13.1802L74.7729 18.8899L80.7009 17.6057L77.9262 22.9994L83.9711 22.5L80.5162 27.4854L86.5746 27.7792L82.4984 32.271L88.4667 33.3531L83.8391 37.2744L89.615 39.1263L84.5152 42.41L90 45L84.5152 47.59L89.615 50.8737L83.8391 52.7256L88.4667 56.6469L82.4984 57.729L86.5746 62.2208L80.5162 62.5146L83.9711 67.5L77.9262 67.0006L80.7009 72.3943L74.7729 71.1101L76.8198 76.8198L71.1101 74.7729L72.3943 80.7009L67.0006 77.9262L67.5 83.9711L62.5146 80.5162L62.2208 86.5746L57.729 82.4984L56.6469 88.4667L52.7256 83.8391L50.8737 89.615L47.59 84.5152L45 90L42.41 84.5152L39.1263 89.615L37.2744 83.8391L33.3531 88.4667L32.271 82.4984L27.7792 86.5746L27.4854 80.5162L22.5 83.9711L22.9994 77.9262L17.6057 80.7009L18.8899 74.7729L13.1802 76.8198L15.2271 71.1101L9.2991 72.3943L12.0738 67.0006L6.02886 67.5L9.48384 62.5146L3.42542 62.2208L7.50157 57.729L1.53334 56.6469L6.1609 52.7256L0.384983 50.8737L5.48479 47.59L0 45L5.48479 42.41L0.384983 39.1263L6.1609 37.2744L1.53334 33.3531L7.50157 32.271L3.42542 27.7792L9.48384 27.4854L6.02886 22.5L12.0738 22.9994L9.2991 17.6057L15.2271 18.8899L13.1802 13.1802L18.8899 15.2271L17.6057 9.2991L22.9994 12.0738L22.5 6.02886L27.4854 9.48384L27.7792 3.42542L32.271 7.50157L33.3531 1.53334L37.2744 6.1609L39.1263 0.384983L42.41 5.48479L45 0Z" fill="#FF0420"/>
</svg>
