<svg width="114" height="114" viewBox="0 0 114 114" fill="none" xmlns="http://www.w3.org/2000/svg">
<path d="M56.5524 4.90734L63.2941 12.3485L64.2127 13.3624L65.4226 12.7238L74.3028 8.03723L78.093 17.3355L78.6094 18.6023L79.9647 18.4161L89.9124 17.0494L90.2937 27.0832L90.3457 28.4503L91.683 28.7388L101.498 30.8568L98.4248 40.416L98.006 41.7184L99.164 42.4469L107.663 47.7941L101.505 55.7256L100.666 56.8063L101.505 57.8869L107.663 65.8184L99.164 71.1656L98.006 71.8942L98.4248 73.1966L101.498 82.7557L91.683 84.8737L90.3457 85.1623L90.2937 86.5294L89.9124 96.5632L79.9647 95.1964L78.6094 95.0102L78.093 96.2771L74.3028 105.575L65.4226 100.889L64.2127 100.25L63.2941 101.264L56.5524 108.705L49.8106 101.264L48.892 100.25L47.6821 100.889L38.8019 105.575L35.0117 96.2771L34.4953 95.0102L33.14 95.1964L23.1924 96.5632L22.811 86.5293L22.759 85.1623L21.4217 84.8737L11.6066 82.7557L14.6799 73.1966L15.0987 71.8942L13.9407 71.1656L5.44189 65.8184L11.5993 57.8869L12.4383 56.8063L11.5993 55.7256L5.44189 47.7941L13.9407 42.4469L15.0987 41.7184L14.6799 40.416L11.6066 30.8568L21.4217 28.7388L22.759 28.4503L22.811 27.0832L23.1924 17.0494L33.14 18.4161L34.4953 18.6023L35.0117 17.3355L38.8019 8.03723L47.6821 12.7238L48.892 13.3624L49.8106 12.3485L56.5524 4.90734Z" fill="#FF0420" stroke="white" stroke-width="3.52446"/>
</svg>
