<svg width="90" height="90" viewBox="0 0 90 90" fill="none" xmlns="http://www.w3.org/2000/svg">
<path fill-rule="evenodd" clip-rule="evenodd" d="M40.5364 42.3355C40.9473 42.3355 41.2803 42.6669 41.2803 43.0757C41.2803 45.1195 42.9457 46.7763 45 46.7763C47.0543 46.7763 48.7196 45.1195 48.7196 43.0757C48.7196 42.6669 49.0527 42.3355 49.4635 42.3355C49.8744 42.3355 50.2075 42.6669 50.2075 43.0757C50.2075 45.937 47.876 48.2566 45 48.2566C42.124 48.2566 39.7925 45.937 39.7925 43.0757C39.7925 42.6669 40.1255 42.3355 40.5364 42.3355Z" fill="white"/>
<path d="M31.6093 34.4716L32.1056 35.7235C32.544 36.8295 33.4223 37.7043 34.5311 38.1394L35.7939 38.6349L34.5311 39.1304C33.4223 39.5654 32.544 40.4402 32.1056 41.5462L31.6093 42.7981L31.113 41.5462C30.6746 40.4402 29.7963 39.5654 28.6875 39.1304L27.4247 38.6349L28.6875 38.1394C29.7963 37.7043 30.6746 36.8295 31.113 35.7235L31.6093 34.4716Z" fill="white"/>
<path d="M58.3907 34.4716L58.887 35.7235C59.3254 36.8295 60.2037 37.7043 61.3124 38.1394L62.5753 38.6349L61.3124 39.1304C60.2037 39.5654 59.3254 40.4402 58.887 41.5462L58.3907 42.7981L57.8944 41.5462C57.456 40.4402 56.5777 39.5654 55.4689 39.1304L54.2061 38.6349L55.4689 38.1394C56.5777 37.7043 57.456 36.8295 57.8944 35.7235L58.3907 34.4716Z" fill="white"/>
</svg>
