<svg width="39" height="35" viewBox="0 0 39 35" fill="none" xmlns="http://www.w3.org/2000/svg">
<path d="M36.8399 15.0944C36.6315 12.9419 34.8183 11.2602 32.611 11.2602H24.7226L25.8329 5.94719L25.8329 5.9472L25.8351 5.93656C25.874 5.7418 25.9118 5.49615 25.9118 5.21872C25.9118 4.24775 25.513 3.37148 24.8853 2.74371L24.8811 2.73953L24.7035 2.56362C23.4288 1.30088 21.3732 1.30573 20.1045 2.57446L11.6701 11.0089L11.67 11.0089L11.6639 11.0151C10.9075 11.7821 10.4268 12.8419 10.4268 14.0145V28.9606C10.4268 31.3079 12.3284 33.2095 14.6756 33.2095H28.1271C29.8894 33.2095 31.3974 32.1374 32.0369 30.6182C32.0376 30.6168 32.0382 30.6153 32.0388 30.6138L36.5417 20.0847L36.5494 20.0667L36.5565 20.0484C36.738 19.5847 36.8599 19.0625 36.8599 18.4984V15.6362V15.5928V15.5091V15.1143L36.8399 15.0944ZM3.71875 33.2095H7.6972C8.94518 33.2095 9.95686 32.1978 9.95686 30.9499V15.0145C9.95686 13.7665 8.94517 12.7549 7.6972 12.7549H3.71875C2.47077 12.7549 1.45909 13.7665 1.45909 15.0145L1.45909 30.9499C1.45909 32.1978 2.47077 33.2095 3.71875 33.2095Z" fill="#FF843F" stroke="white" stroke-width="2.51932"/>
</svg>
