<svg width="282" height="282" viewBox="0 0 282 282" fill="none" xmlns="http://www.w3.org/2000/svg">
<g clip-path="url(#clip0_1572_1830)">
<path d="M117.703 124.388C116.685 153.044 117.106 181.814 117.713 208.629C118.073 220.683 126.559 227.801 140.414 227.626H141.864C142.018 227.626 142.162 227.626 142.317 227.626C155.914 227.626 164.215 220.55 164.575 208.618C165.192 182.009 165.614 153.384 164.585 124.388C164.153 111.068 152.191 106.327 141.144 106.316C130.107 106.316 118.155 111.068 117.703 124.378V124.388Z" fill="black"/>
<path d="M74.5646 102.521H60.0001C57.4698 102.511 55.4023 104.568 55.4023 107.108V226.845C55.4023 229.375 57.4595 231.442 60.0001 231.442H74.5646C88.8515 231.442 100.474 219.819 100.474 205.533V128.441C100.474 114.154 88.8515 102.531 74.5646 102.531V102.521Z" fill="black"/>
<path d="M224.211 51H57.6548C55.1143 51 53.0571 53.0571 53.0571 55.5977V66.2023C53.0571 80.4891 64.68 92.112 78.9668 92.112H101.215C101.307 92.1017 101.451 92.1017 101.657 92.1017C101.781 92.1017 101.945 92.1017 102.141 92.0914H102.202H102.264C102.634 92.112 103.015 92.112 103.395 92.112C103.55 92.112 103.776 92.112 104.033 92.1017H105.113C105.309 92.112 105.566 92.112 105.895 92.0914H105.957H106.018C106.317 92.1017 106.605 92.112 106.903 92.1017C107.067 92.1017 107.273 92.1017 107.541 92.0811H107.602H107.664C108.055 92.0914 108.353 92.1017 108.693 92.1017C108.826 92.1017 108.97 92.1017 109.155 92.0914H109.217H109.279C109.649 92.112 110.019 92.112 110.41 92.112C110.585 92.112 110.791 92.112 111.038 92.0914H111.099H111.161C111.49 92.1017 111.84 92.1223 112.179 92.112C112.406 92.112 112.663 92.112 112.971 92.0914H113.033H113.105C113.362 92.1017 113.64 92.0914 113.887 92.1017C114.051 92.1017 114.237 92.1017 114.442 92.0914H114.483H114.555C114.936 92.1017 115.286 92.112 115.656 92.112C115.831 92.112 116.037 92.112 116.253 92.0914H116.314H116.376C116.705 92.1017 117.045 92.112 117.374 92.112C117.61 92.112 117.878 92.112 118.197 92.0914H118.258H118.32C118.577 92.1017 118.845 92.0914 119.102 92.1017C119.287 92.1017 119.523 92.1017 119.781 92.0811H119.842H119.914C120.295 92.0914 120.562 92.0914 120.84 92.1017C121.005 92.1017 121.2 92.1017 121.416 92.0914C121.899 92.1017 122.27 92.112 122.63 92.112C122.815 92.112 123.021 92.112 123.247 92.0914H123.319H123.391C123.72 92.1017 124.029 92.112 124.358 92.112C124.543 92.112 124.749 92.112 124.975 92.0914H125.037H125.098C125.438 92.1017 125.767 92.112 126.086 92.112C126.322 92.112 126.61 92.112 126.898 92.0914H126.96H127.022C127.279 92.1017 127.546 92.112 127.793 92.1017C127.978 92.1017 128.174 92.1017 128.4 92.0914H128.462H128.523C128.883 92.112 129.202 92.112 129.531 92.112C129.799 92.112 130.107 92.112 130.426 92.0914H130.488H130.55C130.797 92.1017 131.043 92.112 131.27 92.1017C131.486 92.1017 131.743 92.1017 132.01 92.0811H132.072H132.134C132.525 92.0914 132.782 92.1017 133.07 92.1017C133.255 92.1017 133.45 92.1017 133.666 92.0914H133.728H133.79C134.129 92.112 134.469 92.1223 134.777 92.112C135.014 92.112 135.271 92.112 135.559 92.0914H135.621H135.682C136.022 92.1017 136.31 92.112 136.577 92.112C136.824 92.112 137.061 92.112 137.328 92.0914H137.39H137.451C137.791 92.1017 138.069 92.112 138.336 92.112C138.562 92.112 138.799 92.112 139.056 92.0914H139.118H139.179C139.519 92.1017 139.797 92.112 140.074 92.112C140.311 92.112 140.547 92.112 140.805 92.0914H140.866H140.928C141.278 92.1017 141.545 92.112 141.833 92.112C142.111 92.112 142.399 92.112 142.687 92.0914H143.499C143.757 92.1017 144.014 92.1017 144.291 92.0811H144.353H144.415C144.806 92.0914 145.053 92.1017 145.32 92.1017C145.546 92.1017 145.803 92.1017 146.05 92.0811H146.112H146.297C146.565 92.0914 146.801 92.1017 147.038 92.1017C147.254 92.1017 147.47 92.1017 147.706 92.0914H147.768H147.881C148.19 92.112 148.478 92.112 148.755 92.112C149.023 92.112 149.311 92.112 149.599 92.0914H149.661H149.722C150.021 92.1017 150.309 92.112 150.566 92.112C150.823 92.112 151.07 92.112 151.327 92.0914H151.389H151.45C151.81 92.1017 152.047 92.1223 152.273 92.112C152.489 92.112 152.746 92.112 152.973 92.1017H153.034H153.096C153.405 92.1223 153.703 92.1223 153.97 92.1223C154.351 92.1223 154.742 92.112 155.153 92.0811H155.719C156.017 92.0811 156.305 92.0811 156.614 92.0606H156.675H156.737C157.046 92.0709 157.293 92.0811 157.519 92.0811C157.786 92.0811 158.054 92.0811 158.342 92.0606H158.403H158.465C158.774 92.0709 159.021 92.0811 159.247 92.0811C159.494 92.0811 159.751 92.0811 160.018 92.0709H160.08H160.142C160.45 92.0914 160.718 92.0811 160.965 92.0914C161.242 92.0914 161.53 92.0914 161.818 92.0709H161.88H161.952C162.271 92.0811 162.518 92.0914 162.744 92.0914C163.022 92.0914 163.31 92.0914 163.598 92.0709H163.659H163.721C164.091 92.0811 164.297 92.0914 164.513 92.0914C164.791 92.0914 165.089 92.0914 165.377 92.0709H165.439H165.501C165.84 92.0811 166.066 92.1017 166.262 92.0914C166.539 92.0914 166.827 92.0914 167.115 92.0709H167.177H167.373C167.609 92.0709 167.805 92.0811 167.99 92.0914C168.329 92.0914 168.669 92.0914 169.018 92.0709H169.08H169.142C169.337 92.0709 169.512 92.0709 169.687 92.0709C169.995 92.0709 170.325 92.0709 170.643 92.0503H170.705H170.767C171.096 92.0606 171.312 92.0811 171.497 92.0709C171.795 92.0709 172.104 92.0709 172.423 92.0503H172.485H172.68C172.886 92.0503 173.05 92.0709 173.215 92.0709C173.472 92.0709 173.75 92.0709 174.017 92.0606H174.079H174.141C174.459 92.0811 174.717 92.0914 174.933 92.0811C175.262 92.0811 175.581 92.0811 175.93 92.0606H175.992H176.177C176.414 92.0606 176.599 92.0811 176.753 92.0811C177.062 92.0811 177.36 92.0811 177.679 92.0606H177.741H177.977C178.193 92.0606 178.358 92.0811 178.491 92.0709C178.841 92.0709 179.211 92.0709 179.561 92.0503H179.623H179.685C179.89 92.0606 180.086 92.0709 180.219 92.0606C180.487 92.0606 180.775 92.0606 181.053 92.0503L182.174 92.0091V92.0811L202.91 92.1017C217.197 92.1017 228.819 80.4789 228.819 66.192V55.5977C228.819 53.0674 226.762 51 224.222 51H224.211Z" fill="black"/>
<path d="M222.309 102.511H207.744C193.457 102.511 181.834 114.134 181.834 128.421V205.512C181.834 219.799 193.457 231.422 207.744 231.422H222.309C224.839 231.422 226.906 229.365 226.906 226.824V107.109C226.906 104.578 224.849 102.511 222.309 102.511Z" fill="black"/>
</g>
<defs>
<clipPath id="clip0_1572_1830">
<rect width="180" height="180" fill="white" transform="translate(51 51)"/>
</clipPath>
</defs>
</svg>
