<svg width="360" height="360" viewBox="0 0 360 360" fill="none" xmlns="http://www.w3.org/2000/svg">
<rect width="360" height="360" rx="48" fill="#F3F3EF"/>
<g clip-path="url(#clip0_579_222)">
<path d="M151.284 158.324C150.004 194.374 150.534 230.566 151.297 264.3C151.75 279.465 162.42 288.419 179.84 288.199H181.664C181.858 288.199 182.039 288.199 182.233 288.199C199.331 288.199 209.768 279.297 210.22 264.287C210.996 230.812 211.526 194.801 210.233 158.324C209.69 141.567 194.649 135.602 180.759 135.589C166.882 135.589 151.853 141.567 151.284 158.311V158.324Z" fill="black"/>
<path d="M97.043 130.815H78.7298C75.5483 130.802 72.9487 133.389 72.9487 136.586V287.216C72.9487 290.399 75.5353 293 78.7298 293H97.043C115.007 293 129.621 278.378 129.621 260.405V163.422C129.621 145.449 115.007 130.827 97.043 130.827V130.815Z" fill="black"/>
<path d="M285.206 66H75.7811C72.5866 66 70 68.5879 70 71.784V85.1248C70 103.098 84.6143 117.72 102.578 117.72H130.553C130.669 117.707 130.85 117.707 131.109 117.707C131.264 117.707 131.471 117.707 131.717 117.694H131.794H131.872C132.337 117.72 132.816 117.72 133.294 117.72C133.488 117.72 133.773 117.72 134.096 117.707H135.454C135.7 117.72 136.023 117.72 136.437 117.694H136.515H136.592C136.967 117.707 137.329 117.72 137.705 117.707C137.911 117.707 138.17 117.707 138.506 117.681H138.584H138.662C139.153 117.694 139.528 117.707 139.955 117.707C140.123 117.707 140.304 117.707 140.537 117.694H140.614H140.692C141.158 117.72 141.623 117.72 142.115 117.72C142.335 117.72 142.593 117.72 142.904 117.694H142.981H143.059C143.473 117.707 143.912 117.733 144.339 117.72C144.624 117.72 144.947 117.72 145.335 117.694H145.413H145.503C145.826 117.707 146.176 117.694 146.486 117.707C146.693 117.707 146.926 117.707 147.184 117.694H147.236H147.327C147.805 117.707 148.245 117.72 148.711 117.72C148.93 117.72 149.189 117.72 149.461 117.694H149.538H149.616C150.03 117.707 150.457 117.72 150.87 117.72C151.168 117.72 151.504 117.72 151.905 117.694H151.983H152.06C152.384 117.707 152.72 117.694 153.043 117.707C153.276 117.707 153.573 117.707 153.897 117.681H153.974H154.065C154.543 117.694 154.88 117.694 155.229 117.707C155.436 117.707 155.681 117.707 155.953 117.694C156.561 117.707 157.027 117.72 157.479 117.72C157.712 117.72 157.971 117.72 158.255 117.694H158.346H158.436C158.85 117.707 159.238 117.72 159.652 117.72C159.885 117.72 160.143 117.72 160.428 117.694H160.505H160.583C161.01 117.707 161.424 117.72 161.825 117.72C162.122 117.72 162.484 117.72 162.846 117.694H162.924H163.002C163.325 117.707 163.661 117.72 163.972 117.707C164.204 117.707 164.45 117.707 164.735 117.694H164.812H164.89C165.342 117.72 165.743 117.72 166.157 117.72C166.493 117.72 166.881 117.72 167.282 117.694H167.36H167.438C167.748 117.707 168.058 117.72 168.343 117.707C168.615 117.707 168.938 117.707 169.274 117.681H169.352H169.429C169.921 117.694 170.244 117.707 170.606 117.707C170.839 117.707 171.085 117.707 171.356 117.694H171.434H171.512C171.938 117.72 172.365 117.733 172.753 117.72C173.051 117.72 173.374 117.72 173.736 117.694H173.814H173.891C174.318 117.707 174.68 117.72 175.016 117.72C175.327 117.72 175.624 117.72 175.96 117.694H176.038H176.116C176.542 117.707 176.892 117.72 177.228 117.72C177.512 117.72 177.81 117.72 178.133 117.694H178.211H178.288C178.715 117.707 179.064 117.72 179.414 117.72C179.711 117.72 180.009 117.72 180.332 117.694H180.409H180.487C180.927 117.707 181.263 117.72 181.625 117.72C181.974 117.72 182.336 117.72 182.699 117.694H183.72C184.044 117.707 184.367 117.707 184.716 117.681H184.794H184.871C185.363 117.694 185.673 117.707 186.009 117.707C186.294 117.707 186.617 117.707 186.928 117.681H187.005H187.238C187.574 117.694 187.872 117.707 188.169 117.707C188.441 117.707 188.712 117.707 189.01 117.694H189.088H189.23C189.618 117.72 189.98 117.72 190.329 117.72C190.665 117.72 191.027 117.72 191.39 117.694H191.467H191.545C191.92 117.707 192.282 117.72 192.605 117.72C192.929 117.72 193.239 117.72 193.562 117.694H193.64H193.718C194.17 117.707 194.468 117.733 194.752 117.72C195.024 117.72 195.347 117.72 195.632 117.707H195.709H195.787C196.175 117.733 196.55 117.733 196.886 117.733C197.365 117.733 197.856 117.72 198.373 117.681H199.085C199.46 117.681 199.822 117.681 200.21 117.655H200.288H200.365C200.753 117.668 201.064 117.681 201.348 117.681C201.684 117.681 202.021 117.681 202.383 117.655H202.46H202.538C202.926 117.668 203.236 117.681 203.521 117.681C203.831 117.681 204.155 117.681 204.491 117.668H204.568H204.646C205.034 117.694 205.37 117.681 205.681 117.694C206.03 117.694 206.392 117.694 206.754 117.668H206.832H206.922C207.323 117.681 207.634 117.694 207.918 117.694C208.267 117.694 208.629 117.694 208.992 117.668H209.069H209.147C209.612 117.681 209.871 117.694 210.143 117.694C210.492 117.694 210.867 117.694 211.229 117.668H211.307H211.384C211.811 117.681 212.095 117.707 212.341 117.694C212.69 117.694 213.052 117.694 213.415 117.668H213.492H213.738C214.035 117.668 214.281 117.681 214.514 117.694C214.941 117.694 215.367 117.694 215.807 117.668H215.885H215.962C216.208 117.668 216.428 117.668 216.648 117.668C217.036 117.668 217.45 117.668 217.851 117.642H217.928H218.006C218.42 117.655 218.691 117.681 218.924 117.668C219.299 117.668 219.687 117.668 220.088 117.642H220.166H220.411C220.67 117.642 220.877 117.668 221.084 117.668C221.407 117.668 221.756 117.668 222.093 117.655H222.17H222.248C222.649 117.681 222.972 117.694 223.244 117.681C223.658 117.681 224.059 117.681 224.498 117.655H224.576H224.809C225.106 117.655 225.339 117.681 225.533 117.681C225.921 117.681 226.296 117.681 226.697 117.655H226.774H227.072C227.344 117.655 227.55 117.681 227.719 117.668C228.158 117.668 228.624 117.668 229.064 117.642H229.141H229.219C229.477 117.655 229.723 117.668 229.891 117.655C230.228 117.655 230.59 117.655 230.939 117.642L232.349 117.59V117.681L258.422 117.707C276.386 117.707 291 103.085 291 85.1118V71.784C291 68.6009 288.413 66 285.219 66H285.206Z" fill="black"/>
<path d="M282.813 130.802H264.5C246.536 130.802 231.922 145.424 231.922 163.397V260.379C231.922 278.352 246.536 292.974 264.5 292.974H282.813C285.995 292.974 288.595 290.386 288.595 287.19V136.586C288.595 133.403 286.008 130.802 282.813 130.802Z" fill="black"/>
</g>
<defs>
<clipPath id="clip0_579_222">
<rect width="221" height="227" fill="white" transform="translate(70 66)"/>
</clipPath>
</defs>
</svg>
