<svg width="500" height="500" viewBox="0 0 500 500" fill="none" xmlns="http://www.w3.org/2000/svg">
<rect width="500" height="500" fill="white"/>
<ellipse cx="247.5" cy="250.416" rx="127.5" ry="181.5" transform="rotate(57.9273 247.5 250.416)" fill="#DFB8FF" fill-opacity="0.39"/>
<g filter="url(#filter0_f_5617_312)">
<ellipse cx="244.815" cy="272.559" rx="74.8825" ry="129.004" transform="rotate(57.9273 244.815 272.559)" fill="#33174A" fill-opacity="0.2"/>
</g>
<path d="M371.052 236.038C377.831 275.306 326.936 316.878 257.387 328.884C187.837 340.89 128.097 318.843 121.319 279.575C114.54 240.307 163.284 198.657 232.834 186.651C302.383 174.645 364.27 196.749 371.049 236.017L371.052 236.038Z" fill="#CDCDCD" stroke="#AEAEAE" stroke-width="2.10618" stroke-miterlimit="10"/>
<mask id="mask0_5617_312" style="mask-type:alpha" maskUnits="userSpaceOnUse" x="119" y="182" width="254" height="152">
<path d="M371.052 236.038C377.831 275.306 326.936 316.878 257.387 328.884C187.837 340.89 128.097 318.843 121.319 279.575C114.54 240.307 163.284 198.657 232.834 186.651C302.383 174.645 364.27 196.749 371.049 236.017L371.052 236.038Z" fill="#CDCDCD" stroke="#AEAEAE" stroke-width="2.10618" stroke-miterlimit="10"/>
</mask>
<g mask="url(#mask0_5617_312)">
<path d="M255.173 287.826L279.196 277.083L261.335 344.098L229.801 349.541L255.173 287.826Z" fill="white"/>
<path d="M289.56 278.338L313.583 267.595L295.722 334.61L278.24 339.15L289.56 278.338Z" fill="white"/>
<path d="M371.052 236.038C377.831 275.306 326.936 316.878 257.387 328.884C187.837 340.89 128.097 318.843 121.319 279.575C114.54 240.307 163.284 198.657 232.834 186.651C302.383 174.645 364.27 196.749 371.049 236.017L371.052 236.038Z" stroke="#AEAEAE" stroke-width="2.10618" stroke-miterlimit="10"/>
</g>
<path d="M121.727 281.94L114.923 242.523L147.515 263.789L152.196 305.602L129.376 296.856L121.727 281.94Z" fill="#CDCDCD"/>
<path d="M370.512 232.905L364.473 197.922L357.642 196.565L350.02 228.831L363.79 264.509L371.958 241.281L370.512 232.905Z" fill="#CDCDCD"/>
<path d="M121.727 281.94L114.923 242.523L147.515 263.789L152.196 305.602L129.376 296.856L121.727 281.94Z" stroke="#CDCDCD"/>
<path d="M370.512 232.905L364.473 197.922L357.642 196.565L350.02 228.831L363.79 264.509L371.958 241.281L370.512 232.905Z" stroke="#CDCDCD"/>
<path d="M364.373 200.288C371.152 239.556 320.257 281.128 250.708 293.134C181.158 305.14 121.422 283.114 114.643 243.846C107.865 204.578 156.609 162.928 226.158 150.922C295.708 138.916 357.595 161.019 364.373 200.288Z" fill="url(#paint0_linear_5617_312)" stroke="#AEAEAE" stroke-width="2.10618" stroke-miterlimit="10"/>
<g clip-path="url(#clip0_5617_312)">
<path d="M252.875 180.162C255.491 180.111 258.28 179.897 260.931 179.795C272.829 179.387 284.13 179.772 294.778 180.759C297.181 179.344 299.555 177.888 302.145 176.529C302.551 176.303 303.665 175.666 304.108 175.656C316.006 177.051 326.971 179.229 336.384 182.342C344.137 198.645 337.931 218.492 317.62 237.948C299.295 243.136 280.304 247.171 261.627 249.549L261.256 249.458C260.412 247.534 259.547 245.615 259.067 243.607C258.982 243.243 258.502 241.368 258.71 241.154C258.764 241.078 258.947 240.98 259.116 240.929C264.967 240.03 270.86 238.857 276.672 237.475C277.025 237.325 277.171 237.144 277.077 236.983C277.04 236.9 275.145 235.715 274.965 235.701C274.737 235.674 274.496 235.693 274.258 235.734C272.71 235.912 270.165 236.507 268.459 236.802C235.442 242.324 204.917 241.653 183.035 234.486L182.249 234.443C181.314 234.827 178.971 235.298 178.227 235.627C177.857 235.802 177.67 236.012 177.851 236.159L189.361 240.201C189.229 240.468 181.618 244.318 180.529 244.84C178.581 245.799 175.818 247.188 173.736 248.015C173.445 248.132 173.031 248.314 172.7 248.327C172.08 248.345 168.478 247.454 167.713 247.275C155.591 244.451 145.329 240.416 137.055 235.527C136.906 235.308 137.803 234.063 138.049 233.687C150.873 214.544 176.361 195.951 209.655 180.571C223.846 177.855 238.053 176.003 251.886 174.95L252.204 174.984C252.579 175.097 252.856 178.119 252.895 178.602C252.934 179.084 252.897 179.647 252.875 180.162ZM222.115 205.583C208.629 205.553 195.336 213.987 195.961 219.93C196.708 226.964 214.003 226.893 225.632 219.902C235.466 213.978 235.713 205.616 222.115 205.583ZM282.724 206.421C270.596 206.401 258.549 213.286 256.819 218.99C254.765 225.774 267.698 228.658 281.386 223.158C295.075 217.659 298.52 206.43 282.724 206.421Z" fill="white"/>
</g>
<path d="M285.292 165.142C314.585 192.157 299.54 256.128 251.691 308.01C203.842 359.892 143.033 378.792 113.74 351.776C84.447 324.76 97.7396 262.038 145.588 210.156C193.437 158.274 255.983 138.112 285.277 165.127L285.292 165.142Z" fill="#CDCDCD" stroke="#AEAEAE" stroke-width="2.10618" stroke-miterlimit="10"/>
<mask id="mask1_5617_312" style="mask-type:alpha" maskUnits="userSpaceOnUse" x="97" y="152" width="205" height="214">
<path d="M285.292 165.142C314.585 192.157 299.54 256.128 251.691 308.01C203.842 359.892 143.033 378.792 113.74 351.776C84.447 324.76 97.7396 262.038 145.588 210.156C193.437 158.274 255.983 138.112 285.277 165.127L285.292 165.142Z" fill="#CDCDCD" stroke="#AEAEAE" stroke-width="2.10618" stroke-miterlimit="10"/>
</mask>
<g mask="url(#mask1_5617_312)">
<path d="M224.928 276.794L237.437 253.642L264.088 317.671L242.394 341.194L224.928 276.794Z" fill="white"/>
<path d="M246.422 248.325L258.932 225.173L285.583 289.202L274.482 303.451L246.422 248.325Z" fill="white"/>
<rect x="202.992" y="134.131" width="65" height="133" transform="rotate(-47.316 202.992 134.131)" fill="#888888"/>
<path d="M285.292 165.142C314.585 192.157 299.54 256.128 251.691 308.01C203.842 359.892 143.033 378.792 113.74 351.776C84.447 324.76 97.7396 262.038 145.588 210.156C193.437 158.274 255.983 138.112 285.277 165.127L285.292 165.142Z" stroke="#AEAEAE" stroke-width="2.10618" stroke-miterlimit="10"/>
</g>
<path d="M115.504 353.403L86.1001 326.285L124.902 323.3L154.081 353.612L130.656 360.575L115.504 353.403Z" fill="#CDCDCD"/>
<path d="M282.955 162.987L256.859 138.919L250.615 142.002L264.222 172.236L299.818 200.984L293.929 177.868L282.955 162.987Z" fill="#CDCDCD"/>
<path d="M258.221 140.855C287.514 167.871 272.468 231.841 224.62 283.724C176.771 335.606 115.978 354.52 86.6845 327.504C57.3914 300.488 70.684 237.766 118.533 185.884C166.382 134.002 228.928 113.84 258.221 140.855Z" fill="url(#paint1_linear_5617_312)" stroke="#AEAEAE" stroke-width="2.10618" stroke-miterlimit="10"/>
<g clip-path="url(#clip1_5617_312)">
<path d="M157.532 192.803C159.575 191.169 161.656 189.301 163.697 187.605C172.886 180.035 182.083 173.457 191.129 167.755C192.173 165.168 193.169 162.568 194.396 159.912C194.58 159.486 195.075 158.303 195.421 158.025C205.706 151.884 215.73 146.933 225.092 143.669C241.17 151.877 248.336 171.398 244.077 199.2C232.703 214.476 220.098 229.243 206.734 242.504L206.383 242.658C204.543 241.647 202.688 240.651 201.084 239.351C200.795 239.114 199.273 237.919 199.307 237.623C199.304 237.53 199.389 237.341 199.492 237.197C203.585 232.92 207.544 228.401 211.313 223.765C211.501 223.431 211.507 223.199 211.334 223.128C211.254 223.085 209.029 223.299 208.878 223.398C208.681 223.515 208.501 223.677 208.338 223.854C207.218 224.939 205.562 226.961 204.388 228.234C181.565 252.722 156.946 270.782 135.226 278.425L134.577 278.87C134.069 279.744 132.498 281.545 132.108 282.259C131.921 282.623 131.901 282.903 132.134 282.909L143.724 279.105C143.783 279.397 140.091 287.086 139.545 288.163C138.584 290.11 137.239 292.895 136.091 294.819C135.931 295.089 135.715 295.486 135.459 295.698C134.979 296.089 131.579 297.577 130.863 297.9C119.529 303.044 108.933 306.094 99.3922 307.256C99.1407 307.173 99.0941 305.639 99.0605 305.19C97.5721 282.197 106.463 251.927 123.502 219.451C133.103 208.653 143.242 198.531 153.572 189.271L153.845 189.105C154.212 188.966 156.272 191.194 156.597 191.553C156.921 191.912 157.235 192.38 157.532 192.803ZM148.617 231.699C137.903 239.889 132.497 254.675 136.613 259.008C141.49 264.132 155.163 253.541 160.129 240.914C164.32 230.226 159.422 223.443 148.617 231.699ZM197.198 195.449C187.568 202.82 182.206 215.618 184.308 221.196C186.81 227.828 198.825 222.238 206.332 209.539C213.839 196.84 209.732 185.836 197.198 195.449Z" fill="white"/>
</g>
<defs>
<filter id="filter0_f_5617_312" x="117.161" y="167.885" width="255.308" height="209.349" filterUnits="userSpaceOnUse" color-interpolation-filters="sRGB">
<feFlood flood-opacity="0" result="BackgroundImageFix"/>
<feBlend mode="normal" in="SourceGraphic" in2="BackgroundImageFix" result="shape"/>
<feGaussianBlur stdDeviation="5.65" result="effect1_foregroundBlur_5617_312"/>
</filter>
<linearGradient id="paint0_linear_5617_312" x1="256.53" y1="195.753" x2="-0.202265" y2="263.411" gradientUnits="userSpaceOnUse">
<stop stop-color="#CC9CF9"/>
<stop offset="1" stop-color="#B75FFF"/>
</linearGradient>
<linearGradient id="paint1_linear_5617_312" x1="169.926" y1="202.942" x2="7.51452" y2="412.97" gradientUnits="userSpaceOnUse">
<stop stop-color="#CC9CF9"/>
<stop offset="1" stop-color="#B75FFF"/>
</linearGradient>
<clipPath id="clip0_5617_312">
<rect width="206.699" height="77.23" fill="white" transform="translate(129.932 194.267) rotate(-9.79412)"/>
</clipPath>
<clipPath id="clip1_5617_312">
<rect width="206.699" height="77.23" fill="white" transform="translate(68.6133 278.87) rotate(-47.316)"/>
</clipPath>
</defs>
</svg>
