<svg width="500" height="500" viewBox="0 0 500 500" fill="none" xmlns="http://www.w3.org/2000/svg">
<g clip-path="url(#clip0_5617_272)">
<rect width="500" height="500" fill="white"/>
<ellipse cx="278.5" cy="261.416" rx="127.5" ry="181.5" transform="rotate(57.9273 278.5 261.416)" fill="#DFB8FF" fill-opacity="0.39"/>
<path d="M403.159 175.79C435.75 198.72 429.247 264.113 388.635 321.836C348.023 379.559 290.228 406.29 257.637 383.361C225.046 360.431 229.976 296.506 270.587 238.783C311.199 181.059 370.551 152.848 403.142 175.778L403.159 175.79Z" fill="#CDCDCD" stroke="#AEAEAE" stroke-width="2.10618" stroke-miterlimit="10"/>
<mask id="mask0_5617_272" style="mask-type:alpha" maskUnits="userSpaceOnUse" x="235" y="166" width="190" height="227">
<path d="M403.159 175.79C435.75 198.72 429.247 264.113 388.635 321.836C348.023 379.559 290.228 406.29 257.637 383.361C225.046 360.431 229.976 296.506 270.587 238.783C311.199 181.059 370.551 152.848 403.142 175.778L403.159 175.79Z" fill="#CDCDCD" stroke="#AEAEAE" stroke-width="2.10618" stroke-miterlimit="10"/>
</mask>
<g mask="url(#mask0_5617_272)">
<path d="M358 294.41L367.357 269.814L396.154 338.371L383.782 355.955L358 294.41Z" fill="white"/>
<path d="M375.565 263.362L384.922 238.766L413.416 313.835L404.209 326.921L375.565 263.362Z" fill="white"/>
<path d="M403.159 175.79C435.75 198.72 429.247 264.113 388.635 321.836C348.023 379.559 290.228 406.29 257.637 383.361C225.046 360.431 229.976 296.506 270.587 238.783C311.199 181.059 370.551 152.848 403.142 175.778L403.159 175.79Z" stroke="#AEAEAE" stroke-width="2.10618" stroke-miterlimit="10"/>
</g>
<path d="M259.599 384.742L226.885 361.725L264.958 353.664L297.869 379.876L275.562 389.859L259.599 384.742Z" fill="#CDCDCD"/>
<path d="M400.56 173.961L371.526 153.534L365.741 157.411L383.205 185.594L418.191 201.038L407.511 178.852L400.56 173.961Z" fill="#CDCDCD"/>
<path d="M259.599 384.742L226.885 361.725L264.958 353.664L297.869 379.876L275.562 389.859L259.599 384.742Z" stroke="#CDCDCD"/>
<path d="M400.56 173.961L371.526 153.534L365.741 157.411L383.205 185.594L418.191 201.038L407.511 178.852L400.56 173.961Z" stroke="#CDCDCD"/>
<path d="M373.13 155.274C405.721 178.204 399.217 243.597 358.606 301.32C317.994 359.043 260.215 385.786 227.624 362.857C195.033 339.927 199.964 276.002 240.575 218.279C281.187 160.556 340.539 132.344 373.13 155.274Z" fill="url(#paint0_linear_5617_272)" stroke="#AEAEAE" stroke-width="2.10618" stroke-miterlimit="10"/>
<mask id="mask1_5617_272" style="mask-type:alpha" maskUnits="userSpaceOnUse" x="205" y="146" width="190" height="227">
<path d="M373.13 155.274C405.721 178.204 399.217 243.597 358.606 301.32C317.994 359.043 260.215 385.786 227.624 362.857C195.033 339.927 199.964 276.002 240.575 218.279C281.187 160.556 340.539 132.344 373.13 155.274Z" fill="url(#paint1_linear_5617_272)" stroke="#AEAEAE" stroke-width="2.10618" stroke-miterlimit="10"/>
</mask>
<g mask="url(#mask1_5617_272)">
<g filter="url(#filter0_f_5617_272)">
<path d="M307.13 147.865C339.721 170.795 333.217 236.188 292.606 293.911C251.994 351.634 194.215 378.377 161.624 355.448C129.033 332.518 133.964 268.593 174.575 210.87C215.187 153.147 274.539 124.935 307.13 147.865Z" fill="#30050A" fill-opacity="0.42"/>
</g>
</g>
<mask id="mask2_5617_272" style="mask-type:luminance" maskUnits="userSpaceOnUse" x="211" y="133" width="167" height="220">
<path d="M216.663 261.309L377.208 133.621L372.189 224.469L211.643 352.156L216.663 261.309Z" fill="white"/>
</mask>
<g mask="url(#mask2_5617_272)">
<path fill-rule="evenodd" clip-rule="evenodd" d="M374.57 181.321C372.228 206.147 354.168 238.796 333.344 255.352C312.52 271.909 295.579 265.957 296.954 240.871C298.329 215.785 316.878 181.604 338.351 164.524C358.526 148.491 374.103 153.231 374.797 174.618L357.139 188.668C355.955 178.506 347.709 176.627 337.235 184.973C325.431 194.373 315.237 213.17 314.455 226.963C313.692 240.77 322.661 244.334 334.465 234.934C343.524 227.721 351.649 214.976 355.284 203.19L325.634 226.788L326.023 219.974L374.589 181.335L374.57 181.321ZM225.077 330.231C239.456 334.241 263.077 314.946 278.761 286.032C294.931 256.229 296.517 227.453 282.311 221.801C268.106 216.149 243.479 235.717 227.314 265.553C212.13 293.557 209.816 320.615 221.333 328.494L234.625 303.977C229.412 298.824 230.996 284.727 238.885 270.164C247.787 253.763 261.311 242.996 269.145 246.098C276.966 249.22 276.091 265.021 267.19 281.421C260.354 294.009 250.799 303.282 243.172 305.508L265.487 264.339L261.63 262.802L238.283 305.878L225.077 330.231Z" fill="white"/>
</g>
<path d="M337.199 157.78C358.832 191.246 328.313 249.445 269.041 287.76C209.768 326.075 146.168 329.218 124.535 295.753C102.902 262.287 131.411 204.859 190.684 166.544C249.956 128.229 315.554 124.297 337.187 157.762L337.199 157.78Z" fill="#CDCDCD" stroke="#AEAEAE" stroke-width="2.10618" stroke-miterlimit="10"/>
<mask id="mask3_5617_272" style="mask-type:alpha" maskUnits="userSpaceOnUse" x="116" y="133" width="230" height="187">
<path d="M337.199 157.78C358.832 191.246 328.313 249.445 269.041 287.76C209.768 326.075 146.168 329.218 124.535 295.753C102.902 262.287 131.411 204.859 190.684 166.544C249.956 128.229 315.554 124.297 337.187 157.762L337.199 157.78Z" fill="#CDCDCD" stroke="#AEAEAE" stroke-width="2.10618" stroke-miterlimit="10"/>
</mask>
<g mask="url(#mask3_5617_272)">
<path d="M250.905 250.858L268.792 231.555L269.82 305.907L251.764 317.579L250.905 250.858Z" fill="white"/>
<path d="M278.818 228.646L296.705 209.344L295.014 289.621L281.577 298.307L278.818 228.646Z" fill="white"/>
<path d="M337.199 157.78C358.832 191.246 328.313 249.445 269.041 287.76C209.768 326.075 146.168 329.218 124.535 295.753C102.902 262.287 131.411 204.859 190.684 166.544C249.956 128.229 315.554 124.297 337.187 157.762L337.199 157.78Z" stroke="#AEAEAE" stroke-width="2.10618" stroke-miterlimit="10"/>
</g>
<path d="M125.837 297.768L104.122 264.175L142.443 270.959L163.145 307.588L138.722 308.491L125.837 297.768Z" fill="#CDCDCD"/>
<path d="M335.473 155.11L316.201 125.297L309.385 126.726L315.025 159.398L341.681 186.819L340.087 162.249L335.473 155.11Z" fill="#CDCDCD"/>
<path d="M125.837 297.768L104.122 264.175L142.443 270.959L163.145 307.588L138.722 308.491L125.837 297.768Z" stroke="#CDCDCD"/>
<path d="M335.473 155.11L316.201 125.297L309.385 126.726L315.025 159.398L341.681 186.819L340.087 162.249L335.473 155.11Z" stroke="#CDCDCD"/>
<path d="M317.037 127.512C338.67 160.977 308.151 219.177 248.879 257.492C189.606 295.807 126.017 298.967 104.384 265.502C82.7514 232.036 111.261 174.609 170.534 136.294C229.806 97.9785 295.404 94.0459 317.037 127.512Z" fill="url(#paint2_linear_5617_272)" stroke="#AEAEAE" stroke-width="2.10618" stroke-miterlimit="10"/>
<mask id="mask4_5617_272" style="mask-type:luminance" maskUnits="userSpaceOnUse" x="90" y="114" width="236" height="141">
<path d="M129.1 172.603L325.78 114.326L287.105 196.684L90.4258 254.96L129.1 172.603Z" fill="white"/>
</mask>
<g mask="url(#mask4_5617_272)">
<path fill-rule="evenodd" clip-rule="evenodd" d="M305.471 157.568C294.002 179.71 265.031 203.22 239.522 210.774C214.013 218.328 200.533 206.465 211.202 183.719C221.871 160.974 251.87 136.226 278.177 128.429C302.888 121.118 315.556 131.346 308.191 151.437L286.557 157.852C289.265 147.987 282.323 143.156 269.485 146.973C255.019 151.269 238.528 164.88 232.638 177.377C226.761 189.893 233.742 196.557 248.207 192.262C259.308 188.966 271.615 180.191 279.398 170.623L243.069 181.401L245.981 175.228L305.483 157.587L305.471 157.568ZM111.092 239.661C122.923 248.764 152.051 239.718 177.421 218.782C203.576 197.202 215.822 171.114 204.766 160.554C193.711 149.993 163.549 158.915 137.387 180.527C112.821 200.807 100.542 225.03 108.271 236.648L129.777 218.893C126.873 212.163 133.621 199.685 146.39 189.135C160.785 177.261 177.357 172.342 183.459 178.153C189.542 183.976 182.814 198.299 168.419 210.173C157.367 219.285 145.035 224.305 137.129 223.513L173.237 193.696L170.236 190.827L132.457 222.025L111.092 239.661Z" fill="white"/>
</g>
</g>
<defs>
<filter id="filter0_f_5617_272" x="122.84" y="122.492" width="222.444" height="258.541" filterUnits="userSpaceOnUse" color-interpolation-filters="sRGB">
<feFlood flood-opacity="0" result="BackgroundImageFix"/>
<feBlend mode="normal" in="SourceGraphic" in2="BackgroundImageFix" result="shape"/>
<feGaussianBlur stdDeviation="8.7" result="effect1_foregroundBlur_5617_272"/>
</filter>
<linearGradient id="paint0_linear_5617_272" x1="293.765" y1="228.431" x2="160.379" y2="457.99" gradientUnits="userSpaceOnUse">
<stop stop-color="#CC9CF9"/>
<stop offset="1" stop-color="#B75FFF"/>
</linearGradient>
<linearGradient id="paint1_linear_5617_272" x1="293.765" y1="228.431" x2="160.379" y2="457.99" gradientUnits="userSpaceOnUse">
<stop stop-color="#CC9CF9"/>
<stop offset="1" stop-color="#B75FFF"/>
</linearGradient>
<linearGradient id="paint2_linear_5617_272" x1="216.052" y1="165.626" x2="6.40714" y2="328.532" gradientUnits="userSpaceOnUse">
<stop stop-color="#CC9CF9"/>
<stop offset="1" stop-color="#B75FFF"/>
</linearGradient>
<clipPath id="clip0_5617_272">
<rect width="500" height="500" fill="white"/>
</clipPath>
</defs>
</svg>
