<svg width="500" height="500" viewBox="0 0 500 500" fill="none" xmlns="http://www.w3.org/2000/svg">
<rect width="500" height="500" fill="white"/>
<ellipse cx="253.501" cy="279.416" rx="127.5" ry="181.5" transform="rotate(57.9273 253.501 279.416)" fill="#DFB8FF" fill-opacity="0.39"/>
<g filter="url(#filter0_f_5617_274)">
<path d="M195.933 391.874L256.668 356.375C256.668 356.375 266.416 353.17 272.92 356.547C279.423 359.924 328.866 388.629 328.866 388.629C328.866 388.629 341.279 394.71 331.029 401.293C320.779 407.875 276.376 432.28 276.376 432.28C276.376 432.28 266.456 439.694 254.386 432.61C242.315 425.526 199.548 401.794 199.548 401.794C199.548 401.794 192.543 396.715 195.92 391.874H195.933Z" fill="#130720" fill-opacity="0.19"/>
</g>
<g filter="url(#filter1_f_5617_274)">
<path d="M117.933 347.874L178.668 312.375C178.668 312.375 188.416 309.17 194.92 312.547C201.423 315.924 250.866 344.629 250.866 344.629C250.866 344.629 263.279 350.71 253.029 357.293C242.779 363.875 198.376 388.28 198.376 388.28C198.376 388.28 188.456 395.694 176.386 388.61C164.315 381.526 121.548 357.794 121.548 357.794C121.548 357.794 114.543 352.715 117.92 347.874H117.933Z" fill="#130720" fill-opacity="0.19"/>
</g>
<path d="M123.393 338.922V291.867H263.026V341.257C263.026 344.212 261.456 346.943 258.91 348.446L202.701 381.518C202.701 381.518 194.957 386.518 186.37 381.188C179.51 376.927 143.365 356.691 129.144 348.75C125.582 346.758 123.379 342.998 123.379 338.922H123.393Z" fill="url(#paint0_linear_5617_274)" stroke="#AEAEAE" stroke-width="1.31917" stroke-miterlimit="10"/>
<mask id="mask0_5617_274" style="mask-type:alpha" maskUnits="userSpaceOnUse" x="122" y="291" width="142" height="94">
<path d="M123.393 338.922V291.867H263.026V341.257C263.026 344.212 261.456 346.943 258.91 348.446L202.701 381.518C202.701 381.518 194.957 386.518 186.37 381.188C179.51 376.927 143.365 356.691 129.144 348.75C125.582 346.758 123.379 342.998 123.379 338.922H123.393Z" fill="url(#paint1_linear_5617_274)" stroke="#AEAEAE" stroke-width="1.31917" stroke-miterlimit="10"/>
</mask>
<g mask="url(#mask0_5617_274)">
<path d="M193.585 390.092V323.474L278.672 277.304L285.267 347.879L228.543 380.199L193.585 390.092Z" fill="#D9D9D9"/>
</g>
<path d="M123.933 287.791L184.668 252.292C184.668 252.292 194.416 249.087 200.92 252.464C207.423 255.841 256.866 284.546 256.866 284.546C256.866 284.546 269.279 290.627 259.029 297.21C248.779 303.793 204.376 328.197 204.376 328.197C204.376 328.197 194.456 335.611 182.386 328.527C170.315 321.443 127.548 297.711 127.548 297.711C127.548 297.711 120.543 292.633 123.92 287.791H123.933Z" fill="url(#paint2_linear_5617_274)" stroke="#AEAEAE" stroke-width="1.31917" stroke-miterlimit="10"/>
<mask id="mask1_5617_274" style="mask-type:alpha" maskUnits="userSpaceOnUse" x="122" y="250" width="142" height="83">
<path d="M123.933 287.791L184.668 252.292C184.668 252.292 194.416 249.087 200.92 252.464C207.423 255.841 256.866 284.546 256.866 284.546C256.866 284.546 269.279 290.627 259.029 297.21C248.779 303.793 204.376 328.197 204.376 328.197C204.376 328.197 194.456 335.611 182.386 328.527C170.315 321.443 127.548 297.711 127.548 297.711C127.548 297.711 120.543 292.633 123.92 287.791H123.933Z" fill="url(#paint3_linear_5617_274)" stroke="#AEAEAE" stroke-width="1.31917" stroke-miterlimit="10"/>
</mask>
<g mask="url(#mask1_5617_274)">
<g filter="url(#filter2_f_5617_274)">
<path d="M200.445 293.068L261.179 257.569C261.179 257.569 270.928 254.363 277.432 257.741C283.935 261.118 333.377 289.823 333.377 289.823C333.377 289.823 345.791 295.904 335.541 302.487C325.291 309.069 280.888 333.474 280.888 333.474C280.888 333.474 270.968 340.888 258.897 333.804C246.827 326.72 204.06 302.988 204.06 302.988C204.06 302.988 197.055 297.909 200.432 293.068H200.445Z" fill="black" fill-opacity="0.17"/>
</g>
</g>
<path d="M161.037 289.569L189.061 273.316C189.061 273.316 193.56 271.849 196.561 273.395C199.561 274.941 222.376 288.084 222.376 288.084C222.376 288.084 228.103 290.868 223.374 293.882C218.644 296.896 198.155 308.069 198.155 308.069C198.155 308.069 193.578 311.463 188.008 308.22C182.439 304.977 162.704 294.111 162.704 294.111C162.704 294.111 159.472 291.786 161.031 289.569H161.037Z" fill="#BF7FF8"/>
<path d="M183.164 290.702L191.743 286.058C191.743 286.058 193.12 285.639 194.039 286.081C194.957 286.523 201.941 290.278 201.941 290.278C201.941 290.278 203.695 291.073 202.247 291.934C200.799 292.795 194.527 295.988 194.527 295.988C194.527 295.988 193.126 296.957 191.421 296.031C189.716 295.104 183.675 292 183.675 292C183.675 292 182.685 291.335 183.162 290.702H183.164Z" fill="#ECD6FF"/>
<path d="M193.309 379.816V332.762H332.942V382.151C332.942 385.106 331.372 387.837 328.826 389.341L272.617 422.412C272.617 422.412 264.873 427.412 256.286 422.082C249.426 417.821 213.281 397.585 199.06 389.644C195.498 387.652 193.295 383.893 193.295 379.816H193.309Z" fill="url(#paint4_linear_5617_274)" stroke="#AEAEAE" stroke-width="1.31917" stroke-miterlimit="10"/>
<mask id="mask2_5617_274" style="mask-type:alpha" maskUnits="userSpaceOnUse" x="192" y="332" width="142" height="94">
<path d="M193.309 379.816V332.762H332.942V382.151C332.942 385.106 331.372 387.837 328.826 389.341L272.617 422.412C272.617 422.412 264.873 427.412 256.286 422.082C249.426 417.821 213.281 397.585 199.06 389.644C195.498 387.652 193.295 383.893 193.295 379.816H193.309Z" fill="url(#paint5_linear_5617_274)" stroke="#AEAEAE" stroke-width="1.31917" stroke-miterlimit="10"/>
</mask>
<g mask="url(#mask2_5617_274)">
<path d="M263.501 430.987V364.369L348.588 318.198L355.183 388.774L298.459 421.093L263.501 430.987Z" fill="#D9D9D9"/>
</g>
<path d="M193.849 328.685L254.584 293.187C254.584 293.187 264.332 289.981 270.836 293.358C277.339 296.735 326.782 325.44 326.782 325.44C326.782 325.44 339.195 331.522 328.945 338.104C318.695 344.687 274.292 369.091 274.292 369.091C274.292 369.091 264.372 376.505 252.302 369.421C240.231 362.337 197.464 338.606 197.464 338.606C197.464 338.606 190.459 333.527 193.836 328.685H193.849Z" fill="url(#paint6_linear_5617_274)" stroke="#AEAEAE" stroke-width="1.31917" stroke-miterlimit="10"/>
<mask id="mask3_5617_274" style="mask-type:alpha" maskUnits="userSpaceOnUse" x="192" y="291" width="142" height="83">
<path d="M193.849 328.685L254.584 293.187C254.584 293.187 264.332 289.981 270.836 293.358C277.339 296.735 326.782 325.44 326.782 325.44C326.782 325.44 339.195 331.522 328.945 338.104C318.695 344.687 274.292 369.091 274.292 369.091C274.292 369.091 264.372 376.505 252.302 369.421C240.231 362.337 197.464 338.606 197.464 338.606C197.464 338.606 190.459 333.527 193.836 328.685H193.849Z" fill="url(#paint7_linear_5617_274)" stroke="#AEAEAE" stroke-width="1.31917" stroke-miterlimit="10"/>
</mask>
<g mask="url(#mask3_5617_274)">
</g>
<mask id="mask4_5617_274" style="mask-type:alpha" maskUnits="userSpaceOnUse" x="192" y="291" width="142" height="83">
<path d="M193.849 328.685L254.584 293.187C254.584 293.187 264.332 289.981 270.836 293.358C277.339 296.735 326.782 325.44 326.782 325.44C326.782 325.44 339.195 331.522 328.945 338.104C318.695 344.687 274.292 369.091 274.292 369.091C274.292 369.091 264.372 376.505 252.302 369.421C240.231 362.337 197.464 338.606 197.464 338.606C197.464 338.606 190.459 333.527 193.836 328.685H193.849Z" fill="url(#paint8_linear_5617_274)" stroke="#AEAEAE" stroke-width="1.31917" stroke-miterlimit="10"/>
</mask>
<g mask="url(#mask4_5617_274)">
<g filter="url(#filter3_f_5617_274)">
<path d="M146.36 283.834L207.094 248.335C207.094 248.335 216.843 245.13 223.346 248.507C229.85 251.884 279.292 280.589 279.292 280.589C279.292 280.589 291.705 286.67 281.455 293.253C271.205 299.835 226.802 324.24 226.802 324.24C226.802 324.24 216.882 331.654 204.812 324.57C192.742 317.486 149.974 293.754 149.974 293.754C149.974 293.754 142.969 288.675 146.346 283.834H146.36Z" fill="black" fill-opacity="0.17"/>
</g>
</g>
<path d="M230.953 330.464L258.977 314.211C258.977 314.211 263.476 312.743 266.477 314.289C269.477 315.835 292.292 328.978 292.292 328.978C292.292 328.978 298.02 331.762 293.29 334.776C288.56 337.79 268.071 348.963 268.071 348.963C268.071 348.963 263.494 352.358 257.924 349.114C252.355 345.871 232.621 335.006 232.621 335.006C232.621 335.006 229.388 332.68 230.947 330.464H230.953Z" fill="#BF7FF8"/>
<path d="M253.08 331.596L261.659 326.953C261.659 326.953 263.036 326.533 263.954 326.975C264.873 327.417 271.857 331.172 271.857 331.172C271.857 331.172 273.61 331.967 272.162 332.828C270.715 333.689 264.442 336.882 264.442 336.882C264.442 336.882 263.041 337.852 261.336 336.925C259.631 335.998 253.59 332.894 253.59 332.894C253.59 332.894 252.601 332.23 253.078 331.596H253.08Z" fill="#ECD6FF"/>
<path d="M180.117 262.411V215.356H319.75V264.746C319.75 267.7 318.181 270.431 315.635 271.935L259.425 305.006C259.425 305.006 251.681 310.006 243.094 304.677C236.234 300.416 200.089 280.18 185.868 272.238C182.307 270.246 180.104 266.487 180.104 262.411H180.117Z" fill="url(#paint9_linear_5617_274)" stroke="#AEAEAE" stroke-width="1.31917" stroke-miterlimit="10"/>
<mask id="mask5_5617_274" style="mask-type:alpha" maskUnits="userSpaceOnUse" x="179" y="214" width="142" height="94">
<path d="M180.117 262.411V215.356H319.75V264.746C319.75 267.7 318.181 270.431 315.635 271.935L259.425 305.006C259.425 305.006 251.681 310.006 243.094 304.677C236.234 300.416 200.089 280.18 185.868 272.238C182.307 270.246 180.104 266.487 180.104 262.411H180.117Z" fill="url(#paint10_linear_5617_274)" stroke="#AEAEAE" stroke-width="1.31917" stroke-miterlimit="10"/>
</mask>
<g mask="url(#mask5_5617_274)">
<path d="M250.31 313.581V246.963L335.396 200.792L341.992 271.368L285.267 303.687L250.31 313.581Z" fill="#D9D9D9"/>
</g>
<path d="M180.658 211.28L241.392 175.781C241.392 175.781 251.141 172.575 257.644 175.952C264.147 179.33 313.59 208.035 313.59 208.035C313.59 208.035 326.003 214.116 315.753 220.699C305.503 227.281 261.1 251.686 261.1 251.686C261.1 251.686 251.18 259.099 239.11 252.016C227.039 244.932 184.272 221.2 184.272 221.2C184.272 221.2 177.267 216.121 180.644 211.28H180.658Z" fill="url(#paint11_linear_5617_274)" stroke="#AEAEAE" stroke-width="1.31917" stroke-miterlimit="10"/>
<mask id="mask6_5617_274" style="mask-type:alpha" maskUnits="userSpaceOnUse" x="179" y="173" width="142" height="83">
<path d="M180.658 211.28L241.392 175.781C241.392 175.781 251.141 172.575 257.644 175.952C264.147 179.33 313.59 208.035 313.59 208.035C313.59 208.035 326.003 214.116 315.753 220.699C305.503 227.281 261.1 251.686 261.1 251.686C261.1 251.686 251.18 259.099 239.11 252.016C227.039 244.932 184.272 221.2 184.272 221.2C184.272 221.2 177.267 216.121 180.644 211.28H180.658Z" fill="url(#paint12_linear_5617_274)" stroke="#AEAEAE" stroke-width="1.31917" stroke-miterlimit="10"/>
</mask>
<g mask="url(#mask6_5617_274)">
<g filter="url(#filter4_f_5617_274)">
<path d="M170.933 170.874L231.668 135.375C231.668 135.375 241.416 132.17 247.92 135.547C254.423 138.924 303.866 167.629 303.866 167.629C303.866 167.629 316.279 173.71 306.029 180.293C295.779 186.875 251.376 211.28 251.376 211.28C251.376 211.28 241.456 218.694 229.386 211.61C217.315 204.526 174.548 180.794 174.548 180.794C174.548 180.794 167.543 175.715 170.92 170.874H170.933Z" fill="black" fill-opacity="0.37"/>
</g>
</g>
<path d="M217.761 213.058L245.785 196.805C245.785 196.805 250.284 195.337 253.285 196.883C256.286 198.43 279.1 211.572 279.1 211.572C279.1 211.572 284.828 214.356 280.098 217.37C275.368 220.384 254.879 231.558 254.879 231.558C254.879 231.558 250.302 234.952 244.732 231.709C239.163 228.465 219.429 217.6 219.429 217.6C219.429 217.6 216.196 215.274 217.755 213.058H217.761Z" fill="#BF7FF8"/>
<path d="M239.888 214.191L248.467 209.547C248.467 209.547 249.844 209.128 250.762 209.569C251.681 210.011 258.665 213.766 258.665 213.766C258.665 213.766 260.418 214.562 258.971 215.423C257.523 216.284 251.251 219.476 251.251 219.476C251.251 219.476 249.849 220.446 248.144 219.519C246.439 218.593 240.398 215.488 240.398 215.488C240.398 215.488 239.409 214.824 239.886 214.191H239.888Z" fill="#ECD6FF"/>
<path d="M152.414 145.005V97.9502H292.048V147.34C292.048 150.295 290.478 153.025 287.932 154.529L231.722 187.601C231.722 187.601 223.979 192.6 215.391 187.271C208.531 183.01 172.386 162.774 158.166 154.833C154.604 152.841 152.401 149.081 152.401 145.005H152.414Z" fill="url(#paint13_linear_5617_274)" stroke="#AEAEAE" stroke-width="1.31917" stroke-miterlimit="10"/>
<mask id="mask7_5617_274" style="mask-type:alpha" maskUnits="userSpaceOnUse" x="151" y="97" width="142" height="94">
<path d="M152.414 145.005V97.9502H292.048V147.34C292.048 150.295 290.478 153.025 287.932 154.529L231.722 187.601C231.722 187.601 223.979 192.6 215.391 187.271C208.531 183.01 172.386 162.774 158.166 154.833C154.604 152.841 152.401 149.081 152.401 145.005H152.414Z" fill="url(#paint14_linear_5617_274)" stroke="#AEAEAE" stroke-width="1.31917" stroke-miterlimit="10"/>
</mask>
<g mask="url(#mask7_5617_274)">
<path d="M222.607 196.175V129.557L307.693 83.3867L314.289 153.962L257.565 186.282L222.607 196.175Z" fill="#D9D9D9"/>
</g>
<path d="M152.955 93.8739L213.689 58.3752C213.689 58.3752 223.438 55.1696 229.941 58.5467C236.445 61.9238 285.887 90.6288 285.887 90.6288C285.887 90.6288 298.3 96.7102 288.051 103.293C277.801 109.875 233.398 134.28 233.398 134.28C233.398 134.28 223.477 141.694 211.407 134.61C199.337 127.526 156.569 103.794 156.569 103.794C156.569 103.794 149.565 98.7153 152.942 93.8739H152.955Z" fill="url(#paint15_linear_5617_274)" stroke="#AEAEAE" stroke-width="1.31917" stroke-miterlimit="10"/>
<path d="M190.058 95.6521L218.083 79.3992C218.083 79.3992 222.581 77.9315 225.582 79.4777C228.583 81.0239 251.397 94.1663 251.397 94.1663C251.397 94.1663 257.125 96.9506 252.395 99.9645C247.666 102.978 227.177 114.152 227.177 114.152C227.177 114.152 222.599 117.546 217.03 114.303C211.46 111.059 191.726 100.194 191.726 100.194C191.726 100.194 188.494 97.8687 190.052 95.6521H190.058Z" fill="#BF7FF8"/>
<path d="M212.185 96.7848L220.764 92.1411C220.764 92.1411 222.141 91.7217 223.06 92.1635C223.978 92.6053 230.962 96.3603 230.962 96.3603C230.962 96.3603 232.716 97.1558 231.268 98.0169C229.82 98.878 223.548 102.07 223.548 102.07C223.548 102.07 222.147 103.04 220.442 102.114C218.737 101.187 212.696 98.0825 212.696 98.0825C212.696 98.0825 211.706 97.4181 212.183 96.7848H212.185Z" fill="#ECD6FF"/>
<defs>
<filter id="filter0_f_5617_274" x="191" y="351" width="148.084" height="88.6748" filterUnits="userSpaceOnUse" color-interpolation-filters="sRGB">
<feFlood flood-opacity="0" result="BackgroundImageFix"/>
<feBlend mode="normal" in="SourceGraphic" in2="BackgroundImageFix" result="shape"/>
<feGaussianBlur stdDeviation="2" result="effect1_foregroundBlur_5617_274"/>
</filter>
<filter id="filter1_f_5617_274" x="113" y="307" width="148.084" height="88.6748" filterUnits="userSpaceOnUse" color-interpolation-filters="sRGB">
<feFlood flood-opacity="0" result="BackgroundImageFix"/>
<feBlend mode="normal" in="SourceGraphic" in2="BackgroundImageFix" result="shape"/>
<feGaussianBlur stdDeviation="2" result="effect1_foregroundBlur_5617_274"/>
</filter>
<filter id="filter2_f_5617_274" x="191.333" y="248.015" width="156.442" height="97.0325" filterUnits="userSpaceOnUse" color-interpolation-filters="sRGB">
<feFlood flood-opacity="0" result="BackgroundImageFix"/>
<feBlend mode="normal" in="SourceGraphic" in2="BackgroundImageFix" result="shape"/>
<feGaussianBlur stdDeviation="4.08941" result="effect1_foregroundBlur_5617_274"/>
</filter>
<filter id="filter3_f_5617_274" x="137.247" y="238.781" width="156.442" height="97.0325" filterUnits="userSpaceOnUse" color-interpolation-filters="sRGB">
<feFlood flood-opacity="0" result="BackgroundImageFix"/>
<feBlend mode="normal" in="SourceGraphic" in2="BackgroundImageFix" result="shape"/>
<feGaussianBlur stdDeviation="4.08941" result="effect1_foregroundBlur_5617_274"/>
</filter>
<filter id="filter4_f_5617_274" x="161.821" y="125.821" width="156.442" height="97.0325" filterUnits="userSpaceOnUse" color-interpolation-filters="sRGB">
<feFlood flood-opacity="0" result="BackgroundImageFix"/>
<feBlend mode="normal" in="SourceGraphic" in2="BackgroundImageFix" result="shape"/>
<feGaussianBlur stdDeviation="4.08941" result="effect1_foregroundBlur_5617_274"/>
</filter>
<linearGradient id="paint0_linear_5617_274" x1="392.779" y1="330.07" x2="123.379" y2="337.756" gradientUnits="userSpaceOnUse">
<stop stop-color="#7E7E7E"/>
<stop offset="1" stop-color="#E4E4E4"/>
</linearGradient>
<linearGradient id="paint1_linear_5617_274" x1="392.779" y1="330.07" x2="123.379" y2="337.756" gradientUnits="userSpaceOnUse">
<stop stop-color="#7E7E7E"/>
<stop offset="1" stop-color="#E4E4E4"/>
</linearGradient>
<linearGradient id="paint2_linear_5617_274" x1="263.084" y1="291.255" x2="123" y2="291.255" gradientUnits="userSpaceOnUse">
<stop stop-color="#EDDEFC"/>
<stop offset="1" stop-color="#C389F8"/>
</linearGradient>
<linearGradient id="paint3_linear_5617_274" x1="263.084" y1="291.255" x2="123" y2="291.255" gradientUnits="userSpaceOnUse">
<stop stop-color="#EDDEFC"/>
<stop offset="1" stop-color="#C389F8"/>
</linearGradient>
<linearGradient id="paint4_linear_5617_274" x1="462.695" y1="370.965" x2="193.295" y2="378.651" gradientUnits="userSpaceOnUse">
<stop stop-color="#7E7E7E"/>
<stop offset="1" stop-color="#E4E4E4"/>
</linearGradient>
<linearGradient id="paint5_linear_5617_274" x1="462.695" y1="370.965" x2="193.295" y2="378.651" gradientUnits="userSpaceOnUse">
<stop stop-color="#7E7E7E"/>
<stop offset="1" stop-color="#E4E4E4"/>
</linearGradient>
<linearGradient id="paint6_linear_5617_274" x1="333" y1="332.149" x2="192.916" y2="332.149" gradientUnits="userSpaceOnUse">
<stop stop-color="#EDDEFC"/>
<stop offset="1" stop-color="#C389F8"/>
</linearGradient>
<linearGradient id="paint7_linear_5617_274" x1="333" y1="332.149" x2="192.916" y2="332.149" gradientUnits="userSpaceOnUse">
<stop stop-color="#EDDEFC"/>
<stop offset="1" stop-color="#C389F8"/>
</linearGradient>
<linearGradient id="paint8_linear_5617_274" x1="333" y1="332.149" x2="192.916" y2="332.149" gradientUnits="userSpaceOnUse">
<stop stop-color="#EDDEFC"/>
<stop offset="1" stop-color="#C389F8"/>
</linearGradient>
<linearGradient id="paint9_linear_5617_274" x1="449.503" y1="253.559" x2="180.104" y2="261.245" gradientUnits="userSpaceOnUse">
<stop stop-color="#7E7E7E"/>
<stop offset="1" stop-color="#E4E4E4"/>
</linearGradient>
<linearGradient id="paint10_linear_5617_274" x1="449.503" y1="253.559" x2="180.104" y2="261.245" gradientUnits="userSpaceOnUse">
<stop stop-color="#7E7E7E"/>
<stop offset="1" stop-color="#E4E4E4"/>
</linearGradient>
<linearGradient id="paint11_linear_5617_274" x1="319.808" y1="214.743" x2="179.724" y2="214.743" gradientUnits="userSpaceOnUse">
<stop stop-color="#EDDEFC"/>
<stop offset="1" stop-color="#C389F8"/>
</linearGradient>
<linearGradient id="paint12_linear_5617_274" x1="319.808" y1="214.743" x2="179.724" y2="214.743" gradientUnits="userSpaceOnUse">
<stop stop-color="#EDDEFC"/>
<stop offset="1" stop-color="#C389F8"/>
</linearGradient>
<linearGradient id="paint13_linear_5617_274" x1="421.801" y1="136.153" x2="152.401" y2="143.839" gradientUnits="userSpaceOnUse">
<stop stop-color="#7E7E7E"/>
<stop offset="1" stop-color="#E4E4E4"/>
</linearGradient>
<linearGradient id="paint14_linear_5617_274" x1="421.801" y1="136.153" x2="152.401" y2="143.839" gradientUnits="userSpaceOnUse">
<stop stop-color="#7E7E7E"/>
<stop offset="1" stop-color="#E4E4E4"/>
</linearGradient>
<linearGradient id="paint15_linear_5617_274" x1="272.065" y1="97.8941" x2="158.617" y2="97.8941" gradientUnits="userSpaceOnUse">
<stop stop-color="#EDDEFC"/>
<stop offset="1" stop-color="#C389F8"/>
</linearGradient>
</defs>
</svg>
