<svg width="58" height="28" viewBox="0 0 58 28" fill="none" xmlns="http://www.w3.org/2000/svg">
<mask id="mask0_2047_2269" style="mask-type:luminance" maskUnits="userSpaceOnUse" x="29" y="0" width="29" height="28">
<path d="M57.6971 14.7122C57.3424 22.1127 51.2187 28 43.7473 28C36.2759 28 29.7739 21.7344 29.7739 14.0266C29.7739 6.31873 36.0159 0.0531654 43.7473 0.0531654C51.4788 0.0531654 56.9641 5.56214 57.6498 12.6316H51.3133C50.6513 9.0614 47.5303 6.34238 43.7473 6.34238C39.9643 6.34238 36.0631 9.79435 36.0631 14.0266C36.0631 18.2588 39.5151 21.7108 43.7473 21.7108C47.9795 21.7108 49.8001 19.6774 50.9114 16.8165H40.2481V14.7122H57.6971Z" fill="white"/>
</mask>
<g mask="url(#mask0_2047_2269)">
<mask id="mask1_2047_2269" style="mask-type:luminance" maskUnits="userSpaceOnUse" x="-1" y="-3" width="59" height="33">
<path d="M16.0607 -2.31126H41.6432C50.5568 -2.31126 57.7918 4.9237 57.7918 13.8374C57.7918 22.751 50.5568 29.986 41.6432 29.986H16.0607C7.14707 29.9623 -0.0878906 22.751 -0.0878906 13.8374C-0.0878906 4.9237 7.14707 -2.31126 16.0607 -2.31126Z" fill="white"/>
</mask>
<g mask="url(#mask1_2047_2269)">
<path d="M16.0607 -2.31126H41.6432C50.5568 -2.31126 57.7918 4.9237 57.7918 13.8374C57.7918 22.751 50.5568 29.986 41.6432 29.986H16.0607C7.14707 29.9623 -0.0878906 22.751 -0.0878906 13.8374C-0.0878906 4.9237 7.14707 -2.31126 16.0607 -2.31126Z" fill="url(#paint0_linear_2047_2269)"/>
</g>
</g>
<mask id="mask2_2047_2269" style="mask-type:luminance" maskUnits="userSpaceOnUse" x="0" y="0" width="28" height="28">
<path d="M4.61695 24.3352C10.1023 29.3004 18.5903 29.1349 23.8629 23.8624C29.3246 18.4007 29.3246 9.55795 23.8629 4.09626C18.4012 -1.36542 9.55847 -1.36542 4.09679 4.09626C-1.03389 9.22694 -1.34126 17.3367 3.15104 22.822L7.64333 18.3297C5.58634 15.327 5.87006 11.213 8.54179 8.54127C11.5445 5.53853 16.4151 5.53853 19.4179 8.54127C22.4206 11.544 22.4206 16.4146 19.4179 19.4174C17.1244 21.7108 13.7198 22.2546 10.9062 21.0251L18.4485 13.4828L16.9589 11.9932L4.61695 24.3352Z" fill="white"/>
</mask>
<g mask="url(#mask2_2047_2269)">
<mask id="mask3_2047_2269" style="mask-type:luminance" maskUnits="userSpaceOnUse" x="-1" y="-3" width="59" height="33">
<path d="M16.0605 -2.3112H41.6429C50.5566 -2.3112 57.7915 4.92376 57.7915 13.8374C57.7915 22.7511 50.5566 29.986 41.6429 29.986H16.0605C7.14682 29.9624 -0.0881348 22.7511 -0.0881348 13.8374C-0.0881348 4.92376 7.14682 -2.3112 16.0605 -2.3112Z" fill="white"/>
</mask>
<g mask="url(#mask3_2047_2269)">
<path d="M16.0605 -2.3112H41.6429C50.5566 -2.3112 57.7915 4.92376 57.7915 13.8374C57.7915 22.7511 50.5566 29.986 41.6429 29.986H16.0605C7.14682 29.9624 -0.0881348 22.7511 -0.0881348 13.8374C-0.0881348 4.92376 7.14682 -2.3112 16.0605 -2.3112Z" fill="url(#paint1_linear_2047_2269)"/>
</g>
</g>
<defs>
<linearGradient id="paint0_linear_2047_2269" x1="57.0352" y1="6.38961" x2="-0.986351" y2="21.7107" gradientUnits="userSpaceOnUse">
<stop stop-color="#FFDB3B"/>
<stop offset="0.2" stop-color="#FF6270"/>
<stop offset="0.4" stop-color="#FF1CE6"/>
<stop offset="0.6" stop-color="#B14EFF"/>
<stop offset="0.8" stop-color="#3BADFF"/>
<stop offset="1" stop-color="#6BE5FF"/>
</linearGradient>
<linearGradient id="paint1_linear_2047_2269" x1="57.0349" y1="6.38967" x2="-0.986596" y2="21.7108" gradientUnits="userSpaceOnUse">
<stop stop-color="#FFDB3B"/>
<stop offset="0.2" stop-color="#FF6270"/>
<stop offset="0.4" stop-color="#FF1CE6"/>
<stop offset="0.6" stop-color="#B14EFF"/>
<stop offset="0.8" stop-color="#3BADFF"/>
<stop offset="1" stop-color="#6BE5FF"/>
</linearGradient>
</defs>
</svg>
