<svg width="41" height="24" viewBox="0 0 41 24" fill="none" xmlns="http://www.w3.org/2000/svg">
    <g clip-path="url(#clip0_2081_637)">
        <path d="M1.66098 0.440001H19.4797C19.8021 0.440001 20.0631 0.695537 20.0631 1.01116V9.18453C20.0631 9.69484 19.7594 10.158 19.2862 10.3702L17.0418 11.3787C16.9322 11.4281 16.8616 11.5353 16.8616 11.6539C16.8616 11.7711 16.9299 11.8768 17.038 11.927L19.3026 12.9811C19.7671 13.1971 20.0631 13.6556 20.0631 14.1599V22.9881C20.0631 23.3037 19.8021 23.5593 19.4797 23.5593H1.66098C0.74348 23.5593 0 22.8315 0 21.9332V2.06601C0 1.16782 0.74348 0.440001 1.66098 0.440001ZM11.3255 15.8528C11.7799 15.8528 12.1039 15.7927 12.2965 15.6734C12.5063 15.5532 12.6112 15.3311 12.6112 15.0056V14.9539C12.6112 14.6116 12.4978 14.3713 12.2701 14.2344C12.0603 14.0975 11.7015 14.0291 11.1942 14.0291H7.8722V15.8528H11.3255ZM11.1685 9.61043C11.9734 9.61043 12.3759 9.32751 12.3759 8.76244V8.63391C12.3759 8.30841 12.271 8.08558 12.0612 7.96617C11.8685 7.82928 11.5453 7.76083 11.09 7.76083H7.87297V9.61043H11.1693H11.1685ZM21.5733 13.9522H28.9165C28.9165 14.5348 29.0214 14.9372 29.2312 15.16C29.4588 15.3828 29.7819 15.4938 30.2022 15.4938C30.9193 15.4938 31.2783 15.0915 31.2783 14.2862C31.2783 13.8922 31.1555 13.61 30.9108 13.4381C30.6832 13.267 30.3335 13.1811 29.8612 13.1811H25.8198V10.2014L32.0388 8.68563H21.5733C21.2813 8.68563 21.0443 8.45366 21.0443 8.16771V0.87274C21.0443 0.633934 21.2424 0.440001 21.4864 0.440001H38.7022C39.6197 0.440001 40.3631 1.16782 40.3631 2.06601V7.8962C40.3631 8.55482 39.9009 9.12749 39.2468 9.28036L32.4327 10.8699L32.7474 10.9216H39.2507C40.0532 10.9216 40.7042 11.5589 40.7042 12.3445V21.934C40.7042 22.8322 39.9607 23.56 39.0433 23.56H21.4864C21.2424 23.56 21.0443 23.366 21.0443 23.1273V14.4702C21.0443 14.1843 21.2813 13.9522 21.5733 13.9522Z" fill="#3368EF"/>
    </g>
    <defs>
        <clipPath id="clip0_2081_637">
        <rect width="40.7042" height="23.12" fill="white" transform="translate(0 0.440001)"/>
        </clipPath>
    </defs>
</svg>
