<svg width="459" height="157" viewBox="0 0 459 157" fill="none" xmlns="http://www.w3.org/2000/svg">
<g clip-path="url(#clip0_2167_8850)">
<g clip-path="url(#clip1_2167_8850)">
<path d="M1 10.8223C1 6.40399 4.58172 2.82227 9 2.82227H450C454.418 2.82227 458 6.40399 458 10.8223V149.822C458 154.241 454.418 157.822 450 157.822H9C4.58172 157.822 1 154.241 1 149.822V10.8223Z" fill="white"/>
<line opacity="0.1" x1="47.5" y1="-278.178" x2="47.5" y2="299.822" stroke="#272727" stroke-dasharray="2 2"/>
<line opacity="0.1" x1="98.5" y1="-278.178" x2="98.5" y2="299.822" stroke="#272727" stroke-dasharray="2 2"/>
<line opacity="0.1" x1="149.5" y1="-278.178" x2="149.5" y2="299.822" stroke="#272727" stroke-dasharray="2 2"/>
<line opacity="0.1" x1="200.5" y1="-278.178" x2="200.5" y2="299.822" stroke="#272727" stroke-dasharray="2 2"/>
<line opacity="0.1" x1="251.5" y1="-278.178" x2="251.5" y2="299.822" stroke="#272727" stroke-dasharray="2 2"/>
<line opacity="0.1" x1="302.5" y1="-278.178" x2="302.5" y2="299.822" stroke="#272727" stroke-dasharray="2 2"/>
<line opacity="0.1" x1="353.5" y1="-278.178" x2="353.5" y2="299.822" stroke="#272727" stroke-dasharray="2 2"/>
<line opacity="0.1" x1="404.5" y1="-278.178" x2="404.5" y2="299.822" stroke="#272727" stroke-dasharray="2 2"/>
<line opacity="0.1" x1="492" y1="31.3223" x2="-41" y2="31.3223" stroke="#272727" stroke-dasharray="2 2"/>
<line opacity="0.1" x1="492" y1="82.3223" x2="-41" y2="82.3223" stroke="#272727" stroke-dasharray="2 2"/>
<line opacity="0.1" x1="492" y1="133.322" x2="-41" y2="133.322" stroke="#272727" stroke-dasharray="2 2"/>
</g>
<g clip-path="url(#clip2_2167_8850)" filter="url(#filter0_dd_2167_8850)">
<g filter="url(#filter1_dd_2167_8850)">
<path d="M228.919 29.2178L230.067 37.8C230.228 39.003 230.309 39.6045 230.528 40.1465C230.722 40.6269 230.995 41.0713 231.336 41.4613C231.721 41.9014 232.221 42.2447 233.222 42.9313L240.362 47.8298L231.78 48.9783C230.577 49.1393 229.975 49.2198 229.433 49.4388C228.953 49.6328 228.509 49.9061 228.119 50.2472C227.679 50.632 227.335 51.1324 226.649 52.1332L221.75 59.2731L220.602 50.6909C220.441 49.4879 220.36 48.8865 220.141 48.3444C219.947 47.8641 219.674 47.4196 219.333 47.0296C218.948 46.5896 218.448 46.2463 217.447 45.5596L210.307 40.6612L218.889 39.5126C220.092 39.3517 220.693 39.2712 221.236 39.0522C221.716 38.8581 222.16 38.5848 222.55 38.2438C222.99 37.8589 223.334 37.3586 224.02 36.3578L228.919 29.2178Z" fill="#272727"/>
<path d="M228.919 29.2178L230.067 37.8C230.228 39.003 230.309 39.6045 230.528 40.1465C230.722 40.6269 230.995 41.0713 231.336 41.4613C231.721 41.9014 232.221 42.2447 233.222 42.9313L240.362 47.8298L231.78 48.9783C230.577 49.1393 229.975 49.2198 229.433 49.4388C228.953 49.6328 228.509 49.9061 228.119 50.2472C227.679 50.632 227.335 51.1324 226.649 52.1332L221.75 59.2731L220.602 50.6909C220.441 49.4879 220.36 48.8865 220.141 48.3444C219.947 47.8641 219.674 47.4196 219.333 47.0296C218.948 46.5896 218.448 46.2463 217.447 45.5596L210.307 40.6612L218.889 39.5126C220.092 39.3517 220.693 39.2712 221.236 39.0522C221.716 38.8581 222.16 38.5848 222.55 38.2438C222.99 37.8589 223.334 37.3586 224.02 36.3578L228.919 29.2178Z" stroke="white" stroke-width="4" stroke-linecap="round" stroke-linejoin="round"/>
</g>
</g>
<g filter="url(#filter2_dd_2167_8850)">
<path d="M288.145 57.5629L256.484 47.4146C254.842 46.8883 254.021 46.6252 253.291 46.7437C252.65 46.848 252.057 47.1527 251.599 47.6143C251.079 48.139 250.816 48.9599 250.29 50.6018L248.34 56.6835C247.881 58.1176 247.651 58.8347 247.596 59.5614C247.548 60.2057 247.602 60.8536 247.755 61.4812C247.928 62.1891 248.273 62.8587 248.962 64.1978L254.801 75.546C255.59 77.0791 255.984 77.8457 255.987 78.5848C255.99 79.2349 255.787 79.8691 255.406 80.3966C254.974 80.9963 254.208 81.3907 252.675 82.1796L241.327 88.0189C239.987 88.7079 239.318 89.0524 238.766 89.5279C238.276 89.9495 237.856 90.4455 237.52 90.9977C237.142 91.6206 236.912 92.3376 236.453 93.7717L234.503 99.8535C233.977 101.495 233.714 102.316 233.832 103.046C233.937 103.688 234.241 104.28 234.703 104.738C235.228 105.258 236.049 105.521 237.69 106.048L269.352 116.196C270.994 116.722 271.815 116.985 272.545 116.867C273.186 116.762 273.779 116.458 274.236 115.996C274.757 115.471 275.02 114.651 275.546 113.009L277.496 106.927C277.955 105.493 278.185 104.776 278.24 104.049C278.288 103.405 278.234 102.757 278.081 102.129C277.908 101.421 277.563 100.752 276.874 99.4126L271.035 88.0644C270.246 86.5313 269.852 85.7648 269.849 85.0257C269.846 84.3755 270.049 83.7413 270.429 83.2138C270.861 82.6141 271.628 82.2197 273.161 81.4308L284.509 75.5916C285.848 74.9025 286.518 74.558 287.07 74.0825C287.56 73.661 287.98 73.165 288.316 72.6127C288.694 71.9899 288.924 71.2728 289.383 69.8387L291.333 63.7569C291.859 62.1151 292.122 61.2941 292.003 60.5646C291.899 59.9229 291.594 59.3307 291.133 58.8728C290.608 58.3522 289.787 58.0891 288.145 57.5629Z" fill="#3368EF"/>
<path d="M288.145 57.5629L256.484 47.4146C254.842 46.8883 254.021 46.6252 253.291 46.7437C252.65 46.848 252.057 47.1527 251.599 47.6143C251.079 48.139 250.816 48.9599 250.29 50.6018L248.34 56.6835C247.881 58.1176 247.651 58.8347 247.596 59.5614C247.548 60.2057 247.602 60.8536 247.755 61.4812C247.928 62.1891 248.273 62.8587 248.962 64.1978L254.801 75.546C255.59 77.0791 255.984 77.8457 255.987 78.5848C255.99 79.2349 255.787 79.8691 255.406 80.3966C254.974 80.9963 254.208 81.3907 252.675 82.1796L241.327 88.0189C239.987 88.7079 239.318 89.0524 238.766 89.5279C238.276 89.9495 237.856 90.4455 237.52 90.9977C237.142 91.6206 236.912 92.3376 236.453 93.7717L234.503 99.8535C233.977 101.495 233.714 102.316 233.832 103.046C233.937 103.688 234.241 104.28 234.703 104.738C235.228 105.258 236.049 105.521 237.69 106.048L269.352 116.196C270.994 116.722 271.815 116.985 272.545 116.867C273.186 116.762 273.779 116.458 274.236 115.996C274.757 115.471 275.02 114.651 275.546 113.009L277.496 106.927C277.955 105.493 278.185 104.776 278.24 104.049C278.288 103.405 278.234 102.757 278.081 102.129C277.908 101.421 277.563 100.752 276.874 99.4126L271.035 88.0644C270.246 86.5313 269.852 85.7648 269.849 85.0257C269.846 84.3755 270.049 83.7413 270.429 83.2138C270.861 82.6141 271.628 82.2197 273.161 81.4308L284.509 75.5916C285.848 74.9025 286.518 74.558 287.07 74.0825C287.56 73.661 287.98 73.165 288.316 72.6127C288.694 71.9899 288.924 71.2728 289.383 69.8387L291.333 63.7569C291.859 62.1151 292.122 61.2941 292.003 60.5646C291.899 59.9229 291.594 59.3307 291.133 58.8728C290.608 58.3522 289.787 58.0891 288.145 57.5629Z" fill="white" fill-opacity="0.8"/>
<path d="M231.858 103.367L233.832 103.046L231.858 103.367C232.03 104.425 232.533 105.402 233.294 106.157L234.683 104.757L233.294 106.157C233.819 106.678 234.424 106.995 235.014 107.239C235.567 107.467 236.249 107.686 237.011 107.93L237.08 107.952L268.742 118.1L268.811 118.123C269.573 118.367 270.255 118.586 270.837 118.721C271.46 118.866 272.136 118.959 272.865 118.841C273.924 118.669 274.901 118.166 275.656 117.405C276.177 116.88 276.494 116.276 276.738 115.685C276.966 115.132 277.185 114.45 277.429 113.688L277.451 113.619L279.4 107.537C279.422 107.471 279.443 107.406 279.463 107.341C279.863 106.097 280.162 105.165 280.234 104.198L278.24 104.049L280.234 104.198C280.298 103.344 280.227 102.486 280.024 101.655L278.081 102.129L280.024 101.655C279.793 100.712 279.345 99.8421 278.747 98.6808C278.716 98.6205 278.684 98.5594 278.653 98.4976L272.813 87.1493C272.404 86.3534 272.153 85.8628 271.994 85.4801C271.844 85.119 271.849 85.0181 271.849 85.0177C271.848 84.7899 271.919 84.5677 272.052 84.3829C272.052 84.3826 272.107 84.2978 272.439 84.0912C272.791 83.8723 273.28 83.6188 274.076 83.2092L285.424 77.3699C285.486 77.3381 285.547 77.3067 285.608 77.2758C286.77 76.6786 287.64 76.2312 288.375 75.5982L287.134 74.157L288.375 75.5982C289.024 75.0397 289.581 74.3825 290.025 73.6509L288.316 72.6127L290.025 73.6509C290.529 72.8217 290.827 71.8896 291.225 70.6453C291.246 70.5808 291.267 70.5154 291.288 70.4492L293.237 64.3674L293.259 64.2982C293.504 63.5366 293.722 62.8541 293.858 62.272C294.003 61.6494 294.096 60.973 293.978 60.2439C293.806 59.1853 293.303 58.2083 292.542 57.4529L291.138 58.8681L292.542 57.4529C292.017 56.9327 291.412 56.6154 290.822 56.3714C290.269 56.1433 289.587 55.9246 288.825 55.6805L288.756 55.6583L257.094 45.51C257.071 45.5026 257.048 45.4952 257.025 45.4878C256.263 45.2437 255.581 45.0249 254.999 44.8894C254.376 44.7445 253.7 44.6511 252.971 44.7696C251.912 44.9416 250.935 45.4443 250.18 46.2057C249.659 46.7301 249.342 47.3348 249.098 47.9256C248.87 48.478 248.651 49.1605 248.407 49.9221C248.4 49.9451 248.392 49.9682 248.385 49.9913L246.436 56.0731C246.414 56.1393 246.393 56.2047 246.373 56.2692C245.973 57.5131 245.674 58.4449 245.602 59.4124C245.538 60.266 245.609 61.1243 245.812 61.9559L247.755 61.4812L245.812 61.9559C246.043 62.8983 246.491 63.7683 247.089 64.9297C247.12 64.9899 247.151 65.051 247.183 65.1129L253.023 76.4611C253.432 77.257 253.683 77.7477 253.842 78.1304C253.99 78.4883 253.987 78.5906 253.987 78.5927L253.987 78.5927C253.988 78.8205 253.917 79.0427 253.784 79.2275L253.784 79.2275C253.783 79.2293 253.726 79.3144 253.397 79.5192C253.045 79.7382 252.556 79.9917 251.76 80.4012L240.411 86.2405C240.35 86.2723 240.289 86.3037 240.228 86.3347C239.066 86.9319 238.196 87.3793 237.461 88.0123C236.812 88.5708 236.255 89.2279 235.811 89.9595C235.307 90.7887 235.009 91.7208 234.611 92.9651C234.59 93.0296 234.569 93.095 234.548 93.1613L232.599 99.243L232.577 99.3122C232.332 100.074 232.114 100.756 231.978 101.338C231.833 101.961 231.74 102.637 231.858 103.367Z" stroke="white" stroke-width="4" stroke-linecap="round" stroke-linejoin="round"/>
</g>
<rect x="240.913" y="92.8076" width="35.3988" height="9.23447" rx="3.71406" transform="rotate(17.7718 240.913 92.8076)" fill="#3368EF"/>
<g filter="url(#filter3_dd_2167_8850)">
<path d="M174.658 100.038L177.838 102.505C178.784 103.24 179.923 103.685 181.114 103.785C182.306 103.886 183.501 103.638 184.553 103.071C185.605 102.505 186.47 101.645 187.043 100.595C187.615 99.545 187.871 98.3502 187.779 97.1557L187.471 93.1417C187.364 91.7165 187.708 90.2949 188.455 89.0794C189.208 87.8585 190.327 86.9084 191.654 86.3652L195.37 84.849C196.476 84.3969 197.427 83.6328 198.106 82.6493C198.786 81.6658 199.166 80.5052 199.2 79.3081C199.234 78.1111 198.922 76.9289 198.299 75.9049C197.677 74.8808 196.772 74.0589 195.693 73.5389L192.069 71.7905C190.774 71.1603 189.712 70.1349 189.035 68.8622C188.353 67.5964 188.089 66.1479 188.28 64.7247L188.818 60.7365C188.978 59.5501 188.79 58.3419 188.278 57.2584C187.767 56.1748 186.952 55.2626 185.934 54.6323C184.916 54.001 183.738 53.6786 182.543 53.7042C181.348 53.7297 180.187 54.1021 179.2 54.7762L175.887 57.043C174.703 57.8507 173.294 58.2619 171.86 58.2176C170.43 58.169 169.051 57.6682 167.921 56.7871L164.729 54.3251C163.783 53.5901 162.645 53.1455 161.453 53.045C160.261 52.9445 159.067 53.1926 158.015 53.759C156.962 54.3251 156.097 55.1854 155.525 56.2354C154.952 57.2855 154.696 58.4802 154.788 59.6748L155.096 63.6888C155.209 65.1177 154.867 66.5446 154.12 67.7648C153.367 68.9857 152.247 69.9358 150.921 70.479L147.193 72.0011C146.087 72.4531 145.137 73.2172 144.457 74.2007C143.778 75.1842 143.398 76.3449 143.364 77.542C143.329 78.7389 143.642 79.9211 144.264 80.9452C144.887 81.9692 145.792 82.7911 146.87 83.3111L150.495 85.0596C151.788 85.684 152.851 86.7023 153.532 87.9683C154.214 89.2341 154.478 90.6825 154.287 92.1058L153.75 96.094C153.59 97.2803 153.777 98.4886 154.289 99.5721C154.801 100.656 155.615 101.568 156.633 102.198C157.651 102.829 158.829 103.151 160.024 103.125C161.219 103.1 162.38 102.728 163.367 102.054L166.68 99.7875C167.864 98.9798 169.273 98.5686 170.707 98.6129C172.14 98.6575 173.523 99.1563 174.658 100.038Z" fill="#3368EF"/>
<path d="M175.26 85.8145C179.332 83.6229 180.851 78.5346 178.653 74.4494C176.454 70.3642 171.371 68.8292 167.299 71.0207C163.226 73.2123 161.707 78.3006 163.906 82.3858C166.104 86.471 171.188 88.0061 175.26 85.8145Z" fill="#3368EF"/>
<path d="M174.658 100.038L177.838 102.505C178.784 103.24 179.923 103.685 181.114 103.785C182.306 103.886 183.501 103.638 184.553 103.071C185.605 102.505 186.47 101.645 187.043 100.595C187.615 99.545 187.871 98.3502 187.779 97.1557L187.471 93.1417C187.364 91.7165 187.708 90.2949 188.455 89.0794C189.208 87.8585 190.327 86.9084 191.654 86.3652L195.37 84.849C196.476 84.3969 197.427 83.6328 198.106 82.6493C198.786 81.6658 199.166 80.5052 199.2 79.3081C199.234 78.1111 198.922 76.9289 198.299 75.9049C197.677 74.8808 196.772 74.0589 195.693 73.5389L192.069 71.7905C190.774 71.1603 189.712 70.1349 189.035 68.8622C188.353 67.5964 188.089 66.1479 188.28 64.7247L188.818 60.7365C188.978 59.5501 188.79 58.3419 188.278 57.2584C187.767 56.1748 186.952 55.2626 185.934 54.6323C184.916 54.001 183.738 53.6786 182.543 53.7042C181.348 53.7297 180.187 54.1021 179.2 54.7762L175.887 57.043C174.703 57.8507 173.294 58.2619 171.86 58.2176C170.43 58.169 169.051 57.6682 167.921 56.7871L164.729 54.3251C163.783 53.5901 162.645 53.1455 161.453 53.045C160.261 52.9445 159.067 53.1926 158.015 53.759C156.962 54.3251 156.097 55.1854 155.525 56.2354C154.952 57.2855 154.696 58.4802 154.788 59.6748L155.096 63.6888C155.209 65.1177 154.867 66.5446 154.12 67.7648C153.367 68.9857 152.247 69.9358 150.921 70.479L147.193 72.0011C146.087 72.4531 145.137 73.2172 144.457 74.2007C143.778 75.1842 143.398 76.3449 143.364 77.542C143.329 78.7389 143.642 79.9211 144.264 80.9452C144.887 81.9692 145.792 82.7911 146.87 83.3111L150.495 85.0596C151.788 85.684 152.851 86.7023 153.532 87.9683C154.214 89.2341 154.478 90.6825 154.287 92.1058L153.75 96.094C153.59 97.2803 153.777 98.4886 154.289 99.5721C154.801 100.656 155.615 101.568 156.633 102.198C157.651 102.829 158.829 103.151 160.024 103.125C161.219 103.1 162.38 102.728 163.367 102.054L166.68 99.7875C167.864 98.9798 169.273 98.5686 170.707 98.6129C172.14 98.6575 173.523 99.1563 174.658 100.038Z" stroke="white" stroke-width="4" stroke-linecap="round" stroke-linejoin="round"/>
<path d="M175.26 85.8145C179.332 83.6229 180.851 78.5346 178.653 74.4494C176.454 70.3642 171.371 68.8292 167.299 71.0207C163.226 73.2123 161.707 78.3006 163.906 82.3858C166.104 86.471 171.188 88.0061 175.26 85.8145Z" stroke="white" stroke-width="4" stroke-linecap="round" stroke-linejoin="round"/>
</g>
</g>
<rect x="0.5" y="0.5" width="458" height="156" rx="8.5" stroke="#E5E5E5"/>
<defs>
<filter id="filter0_dd_2167_8850" x="191" y="13.9111" width="68.6689" height="68.6687" filterUnits="userSpaceOnUse" color-interpolation-filters="sRGB">
<feFlood flood-opacity="0" result="BackgroundImageFix"/>
<feColorMatrix in="SourceAlpha" type="matrix" values="0 0 0 0 0 0 0 0 0 0 0 0 0 0 0 0 0 0 127 0" result="hardAlpha"/>
<feOffset dy="2"/>
<feGaussianBlur stdDeviation="1"/>
<feComposite in2="hardAlpha" operator="out"/>
<feColorMatrix type="matrix" values="0 0 0 0 0 0 0 0 0 0 0 0 0 0 0 0 0 0 0.03 0"/>
<feBlend mode="normal" in2="BackgroundImageFix" result="effect1_dropShadow_2167_8850"/>
<feColorMatrix in="SourceAlpha" type="matrix" values="0 0 0 0 0 0 0 0 0 0 0 0 0 0 0 0 0 0 127 0" result="hardAlpha"/>
<feOffset dy="4"/>
<feGaussianBlur stdDeviation="6"/>
<feComposite in2="hardAlpha" operator="out"/>
<feColorMatrix type="matrix" values="0 0 0 0 0 0 0 0 0 0 0 0 0 0 0 0 0 0 0.02 0"/>
<feBlend mode="normal" in2="effect1_dropShadow_2167_8850" result="effect2_dropShadow_2167_8850"/>
<feBlend mode="normal" in="SourceGraphic" in2="effect2_dropShadow_2167_8850" result="shape"/>
</filter>
<filter id="filter1_dd_2167_8850" x="196.307" y="19.2177" width="58.0557" height="58.0555" filterUnits="userSpaceOnUse" color-interpolation-filters="sRGB">
<feFlood flood-opacity="0" result="BackgroundImageFix"/>
<feColorMatrix in="SourceAlpha" type="matrix" values="0 0 0 0 0 0 0 0 0 0 0 0 0 0 0 0 0 0 127 0" result="hardAlpha"/>
<feOffset dy="2"/>
<feGaussianBlur stdDeviation="1"/>
<feComposite in2="hardAlpha" operator="out"/>
<feColorMatrix type="matrix" values="0 0 0 0 0 0 0 0 0 0 0 0 0 0 0 0 0 0 0.03 0"/>
<feBlend mode="normal" in2="BackgroundImageFix" result="effect1_dropShadow_2167_8850"/>
<feColorMatrix in="SourceAlpha" type="matrix" values="0 0 0 0 0 0 0 0 0 0 0 0 0 0 0 0 0 0 127 0" result="hardAlpha"/>
<feOffset dy="4"/>
<feGaussianBlur stdDeviation="6"/>
<feComposite in2="hardAlpha" operator="out"/>
<feColorMatrix type="matrix" values="0 0 0 0 0 0 0 0 0 0 0 0 0 0 0 0 0 0 0.02 0"/>
<feBlend mode="normal" in2="effect1_dropShadow_2167_8850" result="effect2_dropShadow_2167_8850"/>
<feBlend mode="normal" in="SourceGraphic" in2="effect2_dropShadow_2167_8850" result="shape"/>
</filter>
<filter id="filter2_dd_2167_8850" x="207.52" y="27.8595" width="110.795" height="122.748" filterUnits="userSpaceOnUse" color-interpolation-filters="sRGB">
<feFlood flood-opacity="0" result="BackgroundImageFix"/>
<feColorMatrix in="SourceAlpha" type="matrix" values="0 0 0 0 0 0 0 0 0 0 0 0 0 0 0 0 0 0 127 0" result="hardAlpha"/>
<feOffset dy="3.71406"/>
<feGaussianBlur stdDeviation="1.85703"/>
<feComposite in2="hardAlpha" operator="out"/>
<feColorMatrix type="matrix" values="0 0 0 0 0 0 0 0 0 0 0 0 0 0 0 0 0 0 0.03 0"/>
<feBlend mode="normal" in2="BackgroundImageFix" result="effect1_dropShadow_2167_8850"/>
<feColorMatrix in="SourceAlpha" type="matrix" values="0 0 0 0 0 0 0 0 0 0 0 0 0 0 0 0 0 0 127 0" result="hardAlpha"/>
<feOffset dy="7.42812"/>
<feGaussianBlur stdDeviation="11.1422"/>
<feComposite in2="hardAlpha" operator="out"/>
<feColorMatrix type="matrix" values="0 0 0 0 0 0 0 0 0 0 0 0 0 0 0 0 0 0 0.02 0"/>
<feBlend mode="normal" in2="effect1_dropShadow_2167_8850" result="effect2_dropShadow_2167_8850"/>
<feBlend mode="normal" in="SourceGraphic" in2="effect2_dropShadow_2167_8850" result="shape"/>
</filter>
<filter id="filter3_dd_2167_8850" x="129.361" y="43.0232" width="83.8408" height="78.7841" filterUnits="userSpaceOnUse" color-interpolation-filters="sRGB">
<feFlood flood-opacity="0" result="BackgroundImageFix"/>
<feColorMatrix in="SourceAlpha" type="matrix" values="0 0 0 0 0 0 0 0 0 0 0 0 0 0 0 0 0 0 127 0" result="hardAlpha"/>
<feOffset dy="2"/>
<feGaussianBlur stdDeviation="1"/>
<feComposite in2="hardAlpha" operator="out"/>
<feColorMatrix type="matrix" values="0 0 0 0 0 0 0 0 0 0 0 0 0 0 0 0 0 0 0.03 0"/>
<feBlend mode="normal" in2="BackgroundImageFix" result="effect1_dropShadow_2167_8850"/>
<feColorMatrix in="SourceAlpha" type="matrix" values="0 0 0 0 0 0 0 0 0 0 0 0 0 0 0 0 0 0 127 0" result="hardAlpha"/>
<feOffset dy="4"/>
<feGaussianBlur stdDeviation="6"/>
<feComposite in2="hardAlpha" operator="out"/>
<feColorMatrix type="matrix" values="0 0 0 0 0 0 0 0 0 0 0 0 0 0 0 0 0 0 0.02 0"/>
<feBlend mode="normal" in2="effect1_dropShadow_2167_8850" result="effect2_dropShadow_2167_8850"/>
<feBlend mode="normal" in="SourceGraphic" in2="effect2_dropShadow_2167_8850" result="shape"/>
</filter>
<clipPath id="clip0_2167_8850">
<rect x="1" y="1" width="457" height="155" rx="8" fill="white"/>
</clipPath>
<clipPath id="clip1_2167_8850">
<rect width="457" height="155" fill="white" transform="translate(1 1.91113)"/>
</clipPath>
<clipPath id="clip2_2167_8850">
<rect width="37.0781" height="37.0781" fill="white" transform="translate(211.603 21.9111) rotate(13.4152)"/>
</clipPath>
</defs>
</svg>
