
<svg width="457" height="156" viewBox="0 0 457 156" fill="none" xmlns="http://www.w3.org/2000/svg">
    <g clip-path="url(#clip0_1944_5886)">
        <mask id="mask0_1944_5886" style="mask-type:alpha" maskUnits="userSpaceOnUse" x="0" y="0" width="457" height="156">
            <rect y="0.455566" width="457" height="155" fill="#313131"/>
        </mask>
        <g mask="url(#mask0_1944_5886)">
            <rect x="94.7547" y="-94.7551" width="992.436" height="257.438" rx="126.34" transform="matrix(-3.43675e-08 1 -1 4.02422e-06 636.633 -340.458)" fill="black" stroke="#B7F7B0" stroke-width="189.509"/>
            <rect x="88.4377" y="-88.4381" width="979.802" height="244.804" rx="120.023" transform="matrix(-3.43675e-08 1 -1 4.02422e-06 636.633 -327.824)" fill="black" stroke="#07DC10" stroke-width="176.875"/>
            <rect x="82.1208" y="-82.1211" width="967.168" height="232.17" rx="113.706" transform="matrix(-3.43675e-08 1 -1 4.02422e-06 636.633 -315.19)" fill="black" stroke="#0C9B00" stroke-width="164.242"/>
            <rect x="75.8038" y="-75.8041" width="954.534" height="219.536" rx="107.389" transform="matrix(-3.43675e-08 1 -1 4.02422e-06 636.633 -302.556)" fill="black" stroke="#B7F7B0" stroke-width="151.608"/>
            <rect x="69.4868" y="-69.4871" width="941.9" height="206.902" rx="101.072" transform="matrix(-3.43675e-08 1 -1 4.02422e-06 636.633 -289.922)" fill="black" stroke="#07DC10" stroke-width="138.974"/>
            <rect x="63.1698" y="-63.1701" width="929.266" height="194.268" rx="94.7547" transform="matrix(-3.43675e-08 1 -1 4.02422e-06 636.633 -277.288)" fill="black" stroke="#0C9B00" stroke-width="126.34"/>
            <rect x="56.8528" y="-56.8531" width="916.632" height="181.634" rx="88.4377" transform="matrix(-3.43675e-08 1 -1 4.02422e-06 636.633 -264.654)" fill="black" stroke="#B7F7B0" stroke-width="113.706"/>
            <rect x="94.7547" y="-94.7551" width="992.436" height="257.438" rx="126.34" transform="matrix(-3.43675e-08 1 -1 4.02422e-06 199.156 -340.458)" fill="black" stroke="#B7F7B0" stroke-width="189.509"/>
            <rect x="88.4377" y="-88.4381" width="979.802" height="244.804" rx="120.023" transform="matrix(-3.43675e-08 1 -1 4.02422e-06 199.156 -327.824)" fill="black" stroke="#07DC10" stroke-width="176.875"/>
            <rect x="82.1208" y="-82.1211" width="967.168" height="232.17" rx="113.706" transform="matrix(-3.43675e-08 1 -1 4.02422e-06 199.156 -315.19)" fill="black" stroke="#0C9B00" stroke-width="164.242"/>
            <rect x="75.8038" y="-75.8041" width="954.534" height="219.536" rx="107.389" transform="matrix(-3.43675e-08 1 -1 4.02422e-06 199.156 -302.556)" fill="black" stroke="#B7F7B0" stroke-width="151.608"/>
            <rect x="69.4868" y="-69.4871" width="941.9" height="206.902" rx="101.072" transform="matrix(-3.43675e-08 1 -1 4.02422e-06 199.156 -289.922)" fill="black" stroke="#07DC10" stroke-width="138.974"/>
            <rect x="63.1698" y="-63.1701" width="929.266" height="194.268" rx="94.7547" transform="matrix(-3.43675e-08 1 -1 4.02422e-06 199.156 -277.288)" fill="black" stroke="#0C9B00" stroke-width="126.34"/>
            <rect x="56.8528" y="-56.8531" width="916.632" height="181.634" rx="88.4377" transform="matrix(-3.43675e-08 1 -1 4.02422e-06 199.156 -264.654)" fill="black" stroke="#B7F7B0" stroke-width="113.706"/>
            <rect x="50.5359" y="-50.5361" width="903.998" height="169" rx="82.1208" transform="matrix(-3.43675e-08 1 -1 4.02422e-06 199.156 -252.02)" fill="black" stroke="#07DC10" stroke-width="101.072"/>
            <rect x="44.2189" y="-44.219" width="891.364" height="156.366" rx="75.8038" transform="matrix(-3.43675e-08 1 -1 4.02422e-06 199.156 -239.385)" fill="black" stroke="#0C9B00" stroke-width="88.4377"/>
            <rect x="37.9019" y="-37.902" width="878.73" height="143.732" rx="69.4868" transform="matrix(-3.43675e-08 1 -1 4.02422e-06 199.156 -226.752)" fill="black" stroke="#B7F7B0" stroke-width="75.8038"/>
            <rect x="31.5849" y="-31.585" width="866.096" height="131.098" rx="63.1698" transform="matrix(-3.43675e-08 1 -1 4.02422e-06 199.156 -214.118)" fill="black" stroke="#07DC10" stroke-width="63.1698"/>
            <rect x="25.2679" y="-25.268" width="853.463" height="118.464" rx="56.8528" transform="matrix(-3.43675e-08 1 -1 4.02422e-06 199.156 -201.484)" fill="black" stroke="#0C9B00" stroke-width="50.5359"/>
            <rect x="18.9509" y="-18.951" width="840.829" height="105.83" rx="50.5359" transform="matrix(-3.43675e-08 1 -1 4.02422e-06 199.156 -188.85)" fill="black" stroke="#B7F7B0" stroke-width="37.9019"/>
            <rect x="12.634" y="-12.634" width="828.195" height="93.1962" rx="44.2189" transform="matrix(-3.43675e-08 1 -1 4.02422e-06 199.156 -176.216)" fill="black" stroke="#07DC10" stroke-width="25.2679"/>
            <rect x="6.31698" y="-6.31701" width="815.561" height="80.5623" rx="37.9019" transform="matrix(-3.43675e-08 1 -1 4.02422e-06 199.156 -163.582)" fill="#EAEAEA" stroke="#0C9B00" stroke-width="12.634"/>
            <rect x="-94.7551" y="-94.7547" width="208.438" height="379.438" rx="104.219" transform="matrix(1 0 4.07982e-06 1 175.273 155.426)" fill="black" stroke="#B7F7B0" stroke-width="189.509"/>
            <rect x="-88.4381" y="-88.4377" width="195.804" height="366.804" rx="97.902" transform="matrix(1 0 4.07982e-06 1 175.273 155.426)" fill="black" stroke="#07DC10" stroke-width="176.875"/>
            <rect x="-82.1211" y="-82.1208" width="183.17" height="354.17" rx="91.585" transform="matrix(1 0 4.07982e-06 1 175.273 155.426)" fill="black" stroke="#0C9B00" stroke-width="164.242"/>
            <rect x="-75.8041" y="-75.8038" width="170.536" height="341.536" rx="85.268" transform="matrix(1 0 4.07982e-06 1 175.273 155.426)" fill="black" stroke="#B7F7B0" stroke-width="151.608"/>
            <rect x="-69.4871" y="-69.4868" width="157.902" height="328.902" rx="78.9511" transform="matrix(1 0 4.07982e-06 1 175.273 155.426)" fill="black" stroke="#07DC10" stroke-width="138.974"/>
            <rect x="-63.1701" y="-63.1698" width="145.268" height="316.268" rx="72.6341" transform="matrix(1 0 4.07982e-06 1 175.273 155.426)" fill="black" stroke="#0C9B00" stroke-width="126.34"/>
            <rect x="-56.8531" y="-56.8528" width="132.634" height="303.634" rx="66.3171" transform="matrix(1 0 4.07982e-06 1 175.273 155.426)" fill="black" stroke="#B7F7B0" stroke-width="113.706"/>
            <rect x="-50.5361" y="-50.5359" width="120" height="291" rx="60.0001" transform="matrix(1 0 4.07982e-06 1 175.273 155.426)" fill="black" stroke="#07DC10" stroke-width="101.072"/>
            <rect x="-44.219" y="-44.2189" width="107.366" height="278.366" rx="53.6831" transform="matrix(1 0 4.07982e-06 1 175.274 155.426)" fill="black" stroke="#0C9B00" stroke-width="88.4377"/>
            <rect x="-37.902" y="-37.9019" width="94.7323" height="265.732" rx="47.3662" transform="matrix(1 0 4.07982e-06 1 175.273 155.426)" fill="black" stroke="#B7F7B0" stroke-width="75.8038"/>
            <rect x="-31.585" y="-31.5849" width="82.0984" height="253.098" rx="41.0492" transform="matrix(1 0 4.07982e-06 1 175.273 155.426)" fill="black" stroke="#07DC10" stroke-width="63.1698"/>
            <rect x="-25.268" y="-25.2679" width="69.4644" height="240.464" rx="34.7322" transform="matrix(1 0 4.07982e-06 1 175.273 155.426)" fill="black" stroke="#0C9B00" stroke-width="50.5359"/>
            <rect x="-18.951" y="-18.9509" width="56.8304" height="227.83" rx="28.4152" transform="matrix(1 0 4.07982e-06 1 175.273 155.426)" fill="black" stroke="#B7F7B0" stroke-width="37.9019"/>
            <rect x="-12.634" y="-12.634" width="44.1965" height="215.196" rx="22.0982" transform="matrix(1 0 4.07982e-06 1 175.273 155.426)" fill="black" stroke="#07DC10" stroke-width="25.2679"/>
            <rect x="-6.31701" y="-6.31698" width="31.5625" height="202.562" rx="15.7812" transform="matrix(1 0 4.07982e-06 1 175.273 155.426)" fill="#EAEAEA" stroke="#0C9B00" stroke-width="12.634"/>
            <rect x="-94.7551" y="-94.7547" width="568.437" height="379.438" rx="126.34" transform="matrix(1 0 4.07982e-06 1 573.846 155.426)" fill="black" stroke="#B7F7B0" stroke-width="189.509"/>
            <rect x="-88.4381" y="-88.4377" width="555.803" height="366.804" rx="120.023" transform="matrix(1 0 4.07982e-06 1 573.846 155.426)" fill="black" stroke="#07DC10" stroke-width="176.875"/>
            <rect x="-82.1211" y="-82.1208" width="543.169" height="354.17" rx="113.706" transform="matrix(1 0 4.07982e-06 1 573.846 155.426)" fill="black" stroke="#0C9B00" stroke-width="164.242"/>
            <rect x="-75.8041" y="-75.8038" width="530.535" height="341.536" rx="107.389" transform="matrix(1 0 4.07982e-06 1 573.846 155.426)" fill="black" stroke="#B7F7B0" stroke-width="151.608"/>
            <rect x="-69.4871" y="-69.4868" width="517.901" height="328.902" rx="101.072" transform="matrix(1 0 4.07982e-06 1 573.846 155.426)" fill="black" stroke="#07DC10" stroke-width="138.974"/>
            <rect x="-63.1701" y="-63.1698" width="505.267" height="316.268" rx="94.7547" transform="matrix(1 0 4.07982e-06 1 573.846 155.426)" fill="black" stroke="#0C9B00" stroke-width="126.34"/>
            <g filter="url(#filter0_dd_1944_5886)">
                <path d="M252.858 87.1952L263.595 90.8922C265.683 84.8277 263.106 79.833 261.572 77.431C260.189 75.2648 258.17 72.9447 256.467 70.9887C256.35 70.854 256.234 70.721 256.12 70.59L240.211 52.2892C240.097 52.1581 239.982 52.025 239.865 51.8901C238.165 49.9317 236.148 47.6087 234.196 45.9377C232.03 44.0848 227.443 40.8373 221.147 42.0612C214.851 43.285 211.814 48.0145 210.501 50.5436C209.316 52.8243 208.317 55.7335 207.474 58.1861C207.416 58.3551 207.359 58.5218 207.302 58.6861L199.408 81.6137C199.351 81.7779 199.294 81.9446 199.235 82.1134C198.389 84.5648 197.386 87.4726 196.915 89.9991C196.393 92.8007 195.874 98.3972 200.082 103.238C204.29 108.079 209.904 108.344 212.751 108.217C215.319 108.102 218.338 107.513 220.883 107.016C221.058 106.982 221.232 106.948 221.402 106.915L245.205 102.288C245.376 102.255 245.549 102.222 245.724 102.188C248.27 101.695 251.29 101.11 253.714 100.254C256.401 99.3057 261.507 96.9567 263.595 90.8922L252.858 87.1952Z" fill="#EAEAEA" stroke="#B7F7B0" stroke-width="22.7111"/>
                <path d="M221.869 45.7768C217.294 46.6661 214.997 50.0985 213.86 52.2881C212.811 54.3077 211.899 56.9599 211.023 59.5062C210.976 59.644 210.929 59.7814 210.881 59.9184L202.987 82.846C202.94 82.983 202.892 83.1204 202.845 83.2581C201.967 85.8037 201.053 88.4553 200.636 90.6925C200.184 93.1181 199.881 97.2369 202.939 100.755C205.997 104.272 210.118 104.545 212.583 104.435C214.856 104.334 217.609 103.798 220.252 103.283C220.395 103.255 220.538 103.227 220.68 103.2L244.483 98.5727C244.625 98.545 244.768 98.5173 244.911 98.4896C247.554 97.9768 250.308 97.4426 252.454 96.6851C254.78 95.8637 258.499 94.0668 260.016 89.6599C261.534 85.2529 259.71 81.5475 258.382 79.4679C257.157 77.5497 255.316 75.4337 253.549 73.4021C253.454 73.2922 253.358 73.1826 253.263 73.0733L237.355 54.7725C237.26 54.6632 237.164 54.5535 237.069 54.4435C235.303 52.4107 233.464 50.2933 231.735 48.8137C229.86 47.2094 226.444 44.8875 221.869 45.7768Z" fill="#EAEAEA" stroke="#07DC10" stroke-width="15.1408"/>
                <path d="M222.591 49.4925C219.737 50.0473 218.18 52.1825 217.219 54.0327C216.304 55.7951 215.475 58.2027 214.551 60.8876C214.521 60.975 214.491 61.0627 214.46 61.1507L206.566 84.0783C206.535 84.1663 206.505 84.254 206.475 84.3414C205.55 87.0261 204.721 89.4336 204.357 91.3859C203.975 93.4355 203.888 96.0767 205.796 98.2712C207.703 100.466 210.331 100.747 212.414 100.654C214.398 100.565 216.897 100.079 219.684 99.537C219.775 99.5194 219.866 99.5017 219.958 99.4839L243.761 94.857C243.852 94.8393 243.943 94.8216 244.034 94.804C246.821 94.2624 249.321 93.7769 251.193 93.1158C253.159 92.4217 255.491 91.1769 256.437 88.4275C257.384 85.6781 256.313 83.262 255.191 81.5047C254.123 79.8308 252.452 77.9093 250.589 75.7665L250.406 75.5566L234.498 57.2558C234.437 57.1856 234.376 57.1156 234.315 57.0458C232.453 54.9026 230.782 52.9808 229.274 51.6896C227.689 50.334 225.446 48.9376 222.591 49.4925Z" fill="#EAEAEA" stroke="#0C9B00" stroke-width="7.57038"/>
                <path d="M227.911 66.5767C228.467 66.4685 229.002 66.8441 229.09 67.4043L231.076 80.1518C231.159 80.6831 230.807 81.1848 230.279 81.2874L227.374 81.852C226.847 81.9546 226.332 81.6214 226.21 81.0977L223.276 68.5343C223.147 67.9822 223.503 67.4335 224.059 67.3253L227.911 66.5767ZM230.183 88.5468C229.37 88.7049 228.617 88.5602 227.927 88.1126C227.241 87.6568 226.823 87.0233 226.673 86.2121C226.513 85.4244 226.665 84.6943 227.131 84.0219C227.604 83.3481 228.247 82.9322 229.061 82.7741C229.832 82.6242 230.567 82.7723 231.265 83.2185C231.97 83.6633 232.402 84.2795 232.563 85.0673C232.661 85.6085 232.612 86.1279 232.418 86.6254C232.229 87.1146 231.94 87.5337 231.549 87.8826C231.157 88.2245 230.702 88.4459 230.183 88.5468Z" fill="#0C9B00"/>
            </g>
        </g>
    </g>
    <defs>
        <filter id="filter0_dd_1944_5886" x="173.218" y="22.4297" width="114.527" height="113.164" filterUnits="userSpaceOnUse" color-interpolation-filters="sRGB">
            <feFlood flood-opacity="0" result="BackgroundImageFix"/>
            <feColorMatrix in="SourceAlpha" type="matrix" values="0 0 0 0 0 0 0 0 0 0 0 0 0 0 0 0 0 0 127 0" result="hardAlpha"/>
            <feOffset dy="2"/>
            <feGaussianBlur stdDeviation="1"/>
            <feComposite in2="hardAlpha" operator="out"/>
            <feColorMatrix type="matrix" values="0 0 0 0 0 0 0 0 0 0 0 0 0 0 0 0 0 0 0.03 0"/>
            <feBlend mode="normal" in2="BackgroundImageFix" result="effect1_dropShadow_1944_5886"/>
            <feColorMatrix in="SourceAlpha" type="matrix" values="0 0 0 0 0 0 0 0 0 0 0 0 0 0 0 0 0 0 127 0" result="hardAlpha"/>
            <feOffset dy="4"/>
            <feGaussianBlur stdDeviation="6"/>
            <feComposite in2="hardAlpha" operator="out"/>
            <feColorMatrix type="matrix" values="0 0 0 0 0 0 0 0 0 0 0 0 0 0 0 0 0 0 0.02 0"/>
            <feBlend mode="normal" in2="effect1_dropShadow_1944_5886" result="effect2_dropShadow_1944_5886"/>
            <feBlend mode="normal" in="SourceGraphic" in2="effect2_dropShadow_1944_5886" result="shape"/>
        </filter>
        <clipPath id="clip0_1944_5886">
            <rect width="457" height="155" fill="white" transform="translate(0 0.455566)"/>
        </clipPath>
    </defs>
</svg>
