
<svg width="320" height="100" viewBox="0 0 320 100" fill="none" xmlns="http://www.w3.org/2000/svg">
    <g clip-path="url(#clip0_1952_7636)">
        <g opacity="0.2" filter="url(#filter0_f_1952_7636)">
            <ellipse cx="159.335" cy="53.171" rx="87.665" ry="12.829" transform="rotate(-180 159.335 53.171)" fill="#0C9B00"/>
        </g>
        <g clip-path="url(#clip1_1952_7636)" filter="url(#filter1_dd_1952_7636)">
            <g filter="url(#filter2_dd_1952_7636)">
                <path d="M40.1663 14.2486L40.7704 21.854C40.8551 22.92 40.8974 23.4531 41.0644 23.9403C41.2124 24.3722 41.4318 24.7761 41.7134 25.1354C42.0312 25.5408 42.4552 25.8666 43.3032 26.5181L49.3532 31.1661L41.7478 31.7702C40.6818 31.8548 40.1488 31.8972 39.6615 32.0642C39.2297 32.2122 38.8257 32.4316 38.4664 32.7132C38.061 33.0309 37.7352 33.4549 37.0837 34.303L32.4357 40.353L31.8316 32.7476C31.747 31.6816 31.7046 31.1486 31.5376 30.6613C31.3896 30.2294 31.1702 29.8255 30.8886 29.4662C30.5709 29.0608 30.1469 28.735 29.2989 28.0835L23.2488 23.4355L30.8542 22.8314C31.9203 22.7468 32.4533 22.7044 32.9405 22.5374C33.3724 22.3894 33.7764 22.17 34.1357 21.8884C34.5411 21.5707 34.8668 21.1467 35.5183 20.2986L40.1663 14.2486Z" fill="#07DC10"/>
                <path d="M40.1663 14.2486L40.7704 21.854C40.8551 22.92 40.8974 23.4531 41.0644 23.9403C41.2124 24.3722 41.4318 24.7761 41.7134 25.1354C42.0312 25.5408 42.4552 25.8666 43.3032 26.5181L49.3532 31.1661L41.7478 31.7702C40.6818 31.8548 40.1488 31.8972 39.6615 32.0642C39.2297 32.2122 38.8257 32.4316 38.4664 32.7132C38.061 33.0309 37.7352 33.4549 37.0837 34.303L32.4357 40.353L31.8316 32.7476C31.747 31.6816 31.7046 31.1486 31.5376 30.6613C31.3896 30.2294 31.1702 29.8255 30.8886 29.4662C30.5709 29.0608 30.1469 28.735 29.2989 28.0835L23.2488 23.4355L30.8542 22.8314C31.9203 22.7468 32.4533 22.7044 32.9405 22.5374C33.3724 22.3894 33.7764 22.17 34.1357 21.8884C34.5411 21.5707 34.8668 21.1467 35.5183 20.2986L40.1663 14.2486Z" stroke="white" stroke-width="3.52446" stroke-linecap="round" stroke-linejoin="round"/>
            </g>
        </g>
        <g clip-path="url(#clip2_1952_7636)" filter="url(#filter3_dd_1952_7636)">
            <g filter="url(#filter4_dd_1952_7636)">
                <path d="M242.583 10.3556L248.451 15.2309C249.274 15.9142 249.685 16.2559 250.151 16.4763C250.563 16.6717 251.006 16.7965 251.46 16.8456C251.972 16.901 252.501 16.8246 253.56 16.672L261.111 15.5829L256.235 21.4514C255.552 22.274 255.21 22.6852 254.99 23.1508C254.795 23.5634 254.67 24.0058 254.621 24.4596C254.565 24.9717 254.642 25.501 254.794 26.5594L255.883 34.1106L250.015 29.2354C249.192 28.552 248.781 28.2104 248.316 27.9899C247.903 27.7945 247.461 27.6697 247.007 27.6206C246.495 27.5653 245.965 27.6416 244.907 27.7943L237.356 28.8834L242.231 23.0149C242.914 22.1923 243.256 21.781 243.476 21.3155C243.672 20.9029 243.797 20.4605 243.846 20.0066C243.901 19.4945 243.825 18.9653 243.672 17.9068L242.583 10.3556Z" fill="#B7F7B0"/>
                <path d="M242.583 10.3556L248.451 15.2309C249.274 15.9142 249.685 16.2559 250.151 16.4763C250.563 16.6717 251.006 16.7965 251.46 16.8456C251.972 16.901 252.501 16.8246 253.56 16.672L261.111 15.5829L256.235 21.4514C255.552 22.274 255.21 22.6852 254.99 23.1508C254.795 23.5634 254.67 24.0058 254.621 24.4596C254.565 24.9717 254.642 25.501 254.794 26.5594L255.883 34.1106L250.015 29.2354C249.192 28.552 248.781 28.2104 248.316 27.9899C247.903 27.7945 247.461 27.6697 247.007 27.6206C246.495 27.5653 245.965 27.6416 244.907 27.7943L237.356 28.8834L242.231 23.0149C242.914 22.1923 243.256 21.781 243.476 21.3155C243.672 20.9029 243.797 20.4605 243.846 20.0066C243.901 19.4945 243.825 18.9653 243.672 17.9068L242.583 10.3556Z" stroke="white" stroke-width="3.52446" stroke-linecap="round" stroke-linejoin="round"/>
            </g>
        </g>
        <g filter="url(#filter5_dd_1952_7636)">
            <rect x="47.844" y="62.8486" width="17.1671" height="10.8089" transform="rotate(-12.0488 47.844 62.8486)" fill="#B7F7B0"/>
            <path d="M54.0441 54.3838C50.5771 55.1239 47.4696 56.1374 45.242 57.1997C44.1376 57.7264 43.1834 58.2961 42.508 58.8943C41.9203 59.4148 41.1403 60.3191 41.3847 61.4639C41.6291 62.6088 42.7102 63.1158 43.4593 63.351C44.3201 63.6213 45.4237 63.7517 46.6469 63.7816C49.1141 63.8419 52.3646 63.4983 55.8316 62.7583C59.2986 62.0182 62.4062 61.0047 64.6337 59.9424C65.7382 59.4157 66.6924 58.846 67.3678 58.2478C67.9555 57.7273 68.7354 56.823 68.4911 55.6782C68.2467 54.5333 67.1655 54.0263 66.4165 53.7911C65.5557 53.5208 64.4521 53.3904 63.2288 53.3605C60.7617 53.3002 57.5112 53.6438 54.0441 54.3838Z" fill="#B7F7B0" stroke="white" stroke-width="2.54328"/>
            <path d="M44.0693 74.0407C44.5653 76.3646 45.3694 78.4499 46.3105 79.9452C46.7782 80.6883 47.3176 81.3465 47.9238 81.8038C48.5264 82.2584 49.3345 82.6109 50.2355 82.4186C51.1366 82.2263 51.7302 81.5746 52.0947 80.9136C52.4614 80.2486 52.6851 79.4275 52.8086 78.5582C53.0572 76.8089 52.9398 74.5771 52.4437 72.2532C51.9477 69.9294 51.1437 67.8441 50.2025 66.3487C49.7348 65.6056 49.1954 64.9474 48.5892 64.4902C47.9866 64.0356 47.1786 63.6831 46.2775 63.8754C45.3765 64.0677 44.7828 64.7194 44.4183 65.3804C44.0517 66.0453 43.828 66.8664 43.7044 67.7357C43.4559 69.4851 43.5733 71.7169 44.0693 74.0407Z" fill="#B7F7B0" stroke="white" stroke-width="2.54328"/>
            <path d="M53.5498 72.5773C54.0161 74.7618 54.7959 76.7224 55.726 78.1278C56.1888 78.8271 56.7265 79.4463 57.3343 79.8729C57.944 80.3009 58.7346 80.605 59.6018 80.42C60.4689 80.2349 61.0664 79.6344 61.4483 78.9948C61.8289 78.3572 62.067 77.5724 62.2039 76.7451C62.4791 75.0825 62.3905 72.9743 61.9242 70.7898C61.458 68.6054 60.6781 66.6447 59.748 65.2393C59.2853 64.5401 58.7475 63.9208 58.1397 63.4942C57.53 63.0663 56.7394 62.7621 55.8723 62.9472C55.0051 63.1323 54.4076 63.7327 54.0258 64.3723C53.6451 65.0099 53.4071 65.7947 53.2701 66.622C52.9949 68.2846 53.0835 70.3928 53.5498 72.5773Z" fill="#B7F7B0" stroke="white" stroke-width="2.54328"/>
            <path d="M62.8009 70.0427C63.2969 72.3665 64.1009 74.4518 65.0421 75.9472C65.5098 76.6903 66.0492 77.3485 66.6554 77.8058C67.258 78.2604 68.066 78.6129 68.9671 78.4205C69.8681 78.2282 70.4618 77.5765 70.8263 76.9155C71.193 76.2506 71.4166 75.4295 71.5402 74.5602C71.7887 72.8109 71.6713 70.579 71.1753 68.2552C70.6793 65.9313 69.8752 63.8461 68.9341 62.3507C68.4664 61.6076 67.927 60.9494 67.3208 60.4921C66.7182 60.0375 65.9101 59.685 65.0091 59.8773C64.1081 60.0697 63.5144 60.7214 63.1499 61.3824C62.7832 62.0473 62.5595 62.8684 62.436 63.7377C62.1874 65.487 62.3049 67.7188 62.8009 70.0427Z" fill="#B7F7B0" stroke="white" stroke-width="2.54328"/>
        </g>
        <g filter="url(#filter6_dd_1952_7636)">
            <path d="M204 83.2553L209.851 84.4829L213.534 66.9297L207.683 65.7021L204 83.2553ZM239.557 73.9167C239.896 72.3004 238.861 70.7165 237.245 70.3774L228.008 68.4393L230.807 62.0476C230.867 61.9074 230.921 61.7584 230.955 61.5975C231.082 60.9905 230.949 60.3898 230.637 59.912L229.403 58.0419L217.749 65.6532C217.111 66.0767 216.628 66.739 216.459 67.5435L213.39 82.1712C213.051 83.7875 214.086 85.3714 215.702 85.7105L228.867 88.4726C230.081 88.7273 231.275 88.2065 231.933 87.2527L238.507 77.8656C238.709 77.5567 238.865 77.2152 238.943 76.8422L239.531 74.041L239.519 74.0234L239.557 73.9167Z" fill="#07DC10"/>
            <path d="M202.767 82.9966L202.509 84.2294L203.741 84.4881L209.592 85.7157L210.825 85.9744L211.084 84.7415L214.767 67.1884L215.025 65.9556L213.793 65.6969L207.942 64.4693L206.709 64.2106L206.45 65.4434L202.767 82.9966ZM240.855 73.7653C241.093 71.616 239.664 69.5978 237.504 69.1446L229.783 67.5248L231.961 62.5529L231.961 62.5529L231.965 62.543C232.043 62.3604 232.131 62.1277 232.188 61.8562C232.387 60.9059 232.177 59.9664 231.691 59.2231L231.688 59.2182L230.454 57.3481L229.763 56.3017L228.714 56.9873L217.061 64.5986L217.061 64.5986L217.053 64.6034C216.155 65.1987 215.467 66.1372 215.227 67.2849L212.158 81.9125C211.676 84.2097 213.146 86.4613 215.443 86.9433L228.608 89.7054C230.333 90.0673 232.029 89.3277 232.967 87.9722C232.968 87.9709 232.969 87.9695 232.97 87.9682L239.539 78.5881L239.55 78.5721L239.561 78.5557C239.833 78.139 240.06 77.653 240.176 77.1009L240.763 74.2997L240.772 74.2572L240.79 74.1754L240.871 73.789L240.855 73.7653Z" stroke="white" stroke-width="2.51932"/>
        </g>
        <g filter="url(#filter7_dd_1952_7636)">
            <g clip-path="url(#clip3_1952_7636)">
                <path d="M283.721 51.3657C287.244 50.1553 291.082 52.0305 292.292 55.5536C293.503 59.0768 291.628 62.9147 288.104 64.1251C284.581 65.3355 280.743 63.4603 279.533 59.9371C278.323 56.4139 280.198 52.5761 283.721 51.3657ZM279.776 39.8822C277.369 40.709 275.192 41.9865 273.303 43.6806C271.482 45.3116 270.015 47.2546 268.941 49.4532C267.867 51.6518 267.236 54.0031 267.068 56.4413C266.892 58.9714 267.223 61.4755 268.049 63.8822C268.876 66.289 270.154 68.466 271.848 70.3554C273.479 72.1756 275.422 73.6426 277.62 74.7168C279.819 75.791 282.17 76.4222 284.609 76.5903C287.139 76.766 289.643 76.4354 292.049 75.6085C294.456 74.7817 296.633 73.5042 298.523 71.8101C300.343 70.1791 301.81 68.2361 302.884 66.0376C303.958 63.839 304.589 61.4877 304.758 59.0494C304.933 56.5194 304.603 54.0153 303.776 51.6085C302.949 49.2018 301.671 47.0248 299.977 45.1353C298.346 43.3151 296.403 41.8482 294.205 40.7739C292.006 39.6997 289.655 39.0685 287.217 38.9004C284.687 38.7247 282.183 39.0554 279.776 39.8822Z" fill="#B7F7B0"/>
                <path d="M283.721 51.3656C287.244 50.1552 291.082 52.0304 292.292 55.5536C293.503 59.0767 291.628 62.9146 288.104 64.125C284.581 65.3354 280.743 63.4602 279.533 59.937C278.323 56.4138 280.198 52.576 283.721 51.3656ZM281.091 43.7099C273.352 46.3685 269.219 54.8285 271.877 62.5671C274.536 70.3057 282.996 74.4392 290.735 71.7806C298.473 69.1221 302.607 60.6621 299.948 52.9235C297.29 45.1849 288.83 41.0514 281.091 43.7099Z" fill="#07DC10"/>
                <path d="M283.721 51.3655C287.244 50.1551 291.082 52.0303 292.293 55.5535C293.503 59.0767 291.628 62.9145 288.105 64.1249C284.581 65.3353 280.744 63.4601 279.533 59.9369C278.323 56.4137 280.198 52.5759 283.721 51.3655ZM282.406 47.5377C276.778 49.4713 273.772 55.6235 275.705 61.252C277.639 66.8804 283.791 69.8864 289.42 67.9527C295.048 66.0191 298.054 59.8669 296.12 54.2384C294.187 48.6099 288.035 45.604 282.406 47.5377Z" fill="#0C9B00"/>
                <path d="M283.721 51.3659C287.244 50.1555 291.082 52.0307 292.292 55.5539C293.502 59.0771 291.627 62.9149 288.104 64.1253C284.581 65.3357 280.743 63.4605 279.533 59.9373C278.322 56.4141 280.197 52.5763 283.721 51.3659Z" fill="#EAEAEA"/>
            </g>
            <rect x="260" y="45.2962" width="40.9238" height="40.9238" rx="20.4619" transform="rotate(-18.96 260 45.2962)" stroke="white" stroke-width="3.14799" shape-rendering="crispEdges"/>
        </g>
        <path d="M106.408 67.5948L108.134 62.2393C107.515 62.2826 106.888 62.3043 106.253 62.3043C99.9555 62.3043 94.4655 60.0978 90.3754 55.9232C86.2995 51.763 84.1461 46.1709 84.1461 39.7519C84.1461 33.3328 86.3639 27.7137 90.3933 23.5932C94.4458 19.4493 100.1 17.167 106.317 17.167C111.267 17.167 115.833 18.5916 119.527 21.2856C120.474 21.9754 121.362 22.7518 122.18 23.5969H123.825V17.5805H150.169L150.19 24.0212C150.894 24.2577 151.579 24.5376 152.244 24.8626C154.8 23.6438 157.606 23.0263 160.606 23.0263C160.716 23.0263 160.823 23.0263 160.932 23.0281H161.007C161.149 23.0281 161.29 23.0317 161.43 23.0353H178.007L190.987 22.9992V51.3134L185.774 50.4611V62.3982H161.083C161.015 62.4 160.952 62.4018 160.887 62.4018C160.785 62.4018 160.667 62.4036 160.551 62.4036C157.571 62.4036 154.662 61.7481 152.068 60.5004C149.664 61.6561 147.04 62.3079 144.718 62.3079H135.679L133.851 67.5966H106.412L106.408 67.5948Z" fill="#07DC10"/>
        <path d="M106.317 19.3335C110.812 19.3335 114.943 20.6155 118.267 23.0405C119.356 23.835 120.353 24.7468 121.242 25.7634H125.972V19.747H148.026L148.041 24.0661L148.046 25.6677C149.523 26.0017 150.932 26.5525 152.229 27.3036C154.717 25.9151 157.558 25.1928 160.607 25.1928C160.71 25.1928 160.814 25.1928 160.918 25.1946C160.948 25.1946 160.977 25.1946 161.008 25.1946C161.129 25.1946 161.251 25.1982 161.371 25.2H161.408H178.007L184.53 25.182L188.839 25.1693V48.7636L183.855 47.9474L183.626 47.9095V55.4896V55.5022V60.2276H161.045C160.986 60.2294 160.927 60.2312 160.868 60.2312C160.762 60.2312 160.655 60.233 160.551 60.233C157.503 60.233 154.587 59.4746 152.07 58.059C149.773 59.3428 147.078 60.1355 144.718 60.1355H134.154L133.33 62.5171L132.326 65.4242H109.369L111.199 59.7509L111.245 59.6064C109.668 59.9585 108.003 60.1355 106.258 60.1355C100.548 60.1355 95.5862 58.1511 91.9077 54.3972C88.2382 50.6523 86.2996 45.5857 86.2996 39.748C86.2996 33.9104 88.299 28.8239 91.9274 25.1116C95.5719 21.3829 100.684 19.3299 106.321 19.3299M106.317 15C99.5224 15 93.3236 17.5116 88.8647 22.0727C84.438 26.6012 82 32.8794 82 39.7517C82 46.6239 84.3682 52.8732 88.8486 57.4469C93.1124 61.7985 98.7348 64.2072 105.163 64.4528L103.451 69.7631H135.375L136.379 66.8561L137.202 64.4744H144.715C147.049 64.4744 149.636 63.9038 152.065 62.8728C154.705 63.9887 157.598 64.5701 160.547 64.5701C160.671 64.5701 160.795 64.5701 160.92 64.5665C160.982 64.5665 161.043 64.5647 161.106 64.5629H187.92V55.4697V55.4625V55.3704V53.005L188.149 53.0429L193.133 53.8591V20.825L188.824 20.8376L184.516 20.8503L178.002 20.8683H161.462C161.328 20.8647 161.174 20.8611 161.004 20.8611H160.943C160.83 20.8611 160.718 20.8593 160.605 20.8593C157.671 20.8593 154.898 21.3956 152.331 22.4555L152.322 19.7344L152.308 15.4153H121.676V20.2165C121.384 19.9799 121.087 19.7524 120.784 19.5303C116.724 16.5655 111.721 15 106.317 15Z" fill="#B7F7B0"/>
        <path d="M112.323 62.9001L114.614 55.7949C112.149 57.001 109.35 57.6113 106.255 57.6113C101.132 57.6113 96.6977 55.849 93.4327 52.5176C90.1695 49.1862 88.444 44.6469 88.444 39.3925C88.444 34.1381 90.2232 29.5807 93.4542 26.2781C96.6923 22.9666 101.26 21.1411 106.319 21.1411C110.357 21.1411 114.055 22.2805 117.011 24.4364C118.224 25.323 119.307 26.3738 120.242 27.5692H128.123V21.5528H145.889L145.907 27.1521C148.232 27.3633 150.371 28.1596 152.211 29.494C154.619 27.8545 157.486 26.9968 160.608 26.9968C160.709 26.9968 160.809 26.9968 160.909 26.9986H161.007C161.109 26.9986 161.21 27.0004 161.312 27.004H161.382L178.013 27.0058L186.692 26.9823V45.8585L181.473 45.0044C181.473 45.1145 181.48 45.4721 181.48 45.4721V55.5367V57.7034H160.984C160.936 57.7052 160.888 57.707 160.839 57.707C160.743 57.707 160.646 57.7088 160.551 57.7088C157.386 57.7088 154.49 56.8349 152.073 55.1665C149.723 56.7771 146.78 57.6113 144.718 57.6113H132.627C132.516 57.9327 132.41 58.2415 132.306 58.5394L130.799 62.9001H112.325H112.323Z" fill="#0C9B00"/>
        <path d="M106.317 23.667C109.901 23.667 113.164 24.6637 115.751 26.5524C117.079 27.5221 118.221 28.7156 119.152 30.0969H130.271V24.0805H143.748L143.763 28.3996C143.763 28.7734 143.764 29.1941 143.764 29.6455C143.992 29.631 144.223 29.6238 144.453 29.6238C144.514 29.6238 144.575 29.6238 144.634 29.6238C147.547 29.6238 150.16 30.6801 152.161 32.632C154.413 30.6187 157.354 29.5263 160.608 29.5263C160.703 29.5263 160.798 29.5263 160.895 29.5281C160.932 29.5281 160.972 29.5281 161.009 29.5281C161.126 29.5281 161.24 29.5317 161.357 29.5353H178.014L184.546 29.5173V43.6735L179.563 42.8573C179.514 42.8501 179.468 42.8429 179.423 42.8356C179.357 43.39 179.305 44.2928 179.334 45.7517V45.7933V45.8348V55.5202V55.8994H161.008C160.945 55.8994 160.882 55.903 160.82 55.903C160.73 55.903 160.642 55.9048 160.555 55.9048C157.272 55.9048 154.311 54.8016 152.063 52.7703C150.092 54.686 146.87 55.8091 144.722 55.8091H131.1C130.808 56.6614 130.533 57.4649 130.282 58.1908L129.278 61.0978H115.287L117.116 55.4245L117.933 52.8912L117.951 52.8371L117.97 52.7829C118.151 52.2665 118.343 51.6562 118.527 51.0675C118.539 51.026 118.552 50.9845 118.566 50.9448C118.507 50.7895 118.448 50.6324 118.389 50.4753C117.582 51.4702 116.651 52.3423 115.609 53.0736C113.023 54.8901 109.878 55.8109 106.262 55.8109C101.726 55.8109 97.8201 54.2725 94.9668 51.3601C92.1082 48.4421 90.5974 44.4318 90.5974 39.757C90.5974 30.2865 97.0647 23.6724 106.323 23.6724M106.317 19.3335C100.681 19.3335 95.5683 21.3865 91.9238 25.1151C88.2955 28.8275 86.296 34.026 86.296 39.7516C86.296 45.4773 88.2364 50.6541 91.9041 54.4007C95.5826 58.1547 100.545 60.1391 106.255 60.1391C108 60.1391 109.665 59.9621 111.242 59.61L111.195 59.7545L109.366 65.4278H132.323L133.327 62.5207L134.15 60.1391H144.715C147.074 60.1391 149.772 59.3464 152.066 58.0626C154.583 59.4782 157.499 60.2366 160.547 60.2366C160.653 60.2366 160.759 60.2366 160.864 60.2348C160.923 60.2348 160.982 60.2329 161.042 60.2311H161.047H179.326H183.623V55.495V55.3812V47.9131L183.852 47.951L188.835 48.7672V25.1711L184.526 25.1838L178.004 25.2018H161.367C161.247 25.1982 161.126 25.1946 161.004 25.1946C160.974 25.1946 160.945 25.1946 160.914 25.1946C160.811 25.1946 160.707 25.1928 160.603 25.1928C157.555 25.1928 154.714 25.915 152.226 27.3036C150.928 26.5524 149.521 26.0017 148.042 25.6677L148.037 24.0661L148.023 19.747H125.968V25.7634H121.239C120.347 24.7468 119.352 23.8349 118.264 23.0405C114.94 20.6155 110.807 19.3335 106.314 19.3335H106.317Z" fill="#07DC10"/>
        <path d="M180.245 33.8994V38.3972C179.702 38.3088 179.212 38.2636 178.77 38.2636C175.593 38.2636 174.937 40.5965 175.032 45.6505V50.876H170.135C170.12 48.6677 170.169 36.198 170.104 34.2479H174.656C174.658 35.6816 174.61 35.9145 174.592 36.8769H174.655C175.503 34.7553 177.105 33.8362 179.241 33.8362C179.711 33.8362 180.026 33.8687 180.245 33.8994ZM169.283 43.7221H157.035C157.256 46.2247 158.763 47.6818 160.929 47.6818C162.436 47.6818 163.472 47.1112 164.07 45.9394H169.063C168.057 49.2022 165.2 51.387 160.773 51.387C160.698 51.3888 160.623 51.3888 160.549 51.3888C149.244 51.3888 149.389 33.6791 160.605 33.6791C160.692 33.6791 160.778 33.6791 160.866 33.6791H161.006C166.725 33.6791 169.66 38.1408 169.283 43.7203V43.7221ZM164.383 40.6471C164.133 38.4622 162.876 37.1947 160.836 37.1947C158.795 37.1947 157.444 38.4622 157.163 40.6471H164.383ZM144.457 51.2949C144.394 51.2949 144.332 51.2931 144.269 51.2931C141.473 51.2931 139.871 49.8034 139.15 48.6623C139.18 49.2004 139.18 50.2151 139.18 50.8814H134.565V28.2333H139.463C139.47 30.3062 139.459 33.9536 139.432 35.9939C140.218 35.0442 141.819 33.7766 144.487 33.7766H144.631C154.198 33.7748 154.028 51.2949 144.457 51.2949ZM142.936 37.5414C142.898 37.5414 142.862 37.5414 142.823 37.5432C140.594 37.5432 139.15 39.4445 139.15 42.3895C139.15 45.3345 140.467 47.4579 142.823 47.4579H142.93C147.735 47.4579 147.761 37.5414 142.936 37.5414ZM128.016 37.2796C127.153 40.257 126.219 43.4765 125.78 45.4609H125.623C124.574 41.772 123.417 38.2672 122.198 34.2479H116.988C118.871 39.663 121.101 45.2388 123.111 50.6557C122.778 51.6091 122.401 52.9362 122.012 54.0449L121.194 56.5782H126.219C128.336 50.4571 132.133 39.1159 133.944 34.2479H128.888C128.623 35.1832 128.324 36.216 128.016 37.2796ZM106.138 32.157C106.187 32.157 106.237 32.157 106.285 32.1588C108.796 32.1588 110.493 33.4263 111.467 35.6111L117.088 35.5804C115.674 30.7323 111.811 27.8198 106.317 27.8198C99.5349 27.8198 94.8881 32.3791 94.8881 39.5709C94.8881 46.7628 99.4401 51.2895 106.255 51.2895C111.75 51.2895 115.55 48.5666 117.025 43.7835H111.277C110.273 45.683 108.671 46.8241 106.285 46.8241C106.217 46.8241 106.147 46.8278 106.079 46.8278C98.1512 46.8278 98.3517 32.157 106.138 32.157Z" fill="#EAEAEA"/>
    </g>
    <defs>
        <filter id="filter0_f_1952_7636" x="35.67" y="4.3418" width="247.33" height="97.6582" filterUnits="userSpaceOnUse" color-interpolation-filters="sRGB">
            <feFlood flood-opacity="0" result="BackgroundImageFix"/>
            <feBlend mode="normal" in="SourceGraphic" in2="BackgroundImageFix" result="shape"/>
            <feGaussianBlur stdDeviation="18" result="effect1_foregroundBlur_1952_7636"/>
        </filter>
        <filter id="filter1_dd_1952_7636" x="4" y="-1" width="64.6021" height="64.6021" filterUnits="userSpaceOnUse" color-interpolation-filters="sRGB">
            <feFlood flood-opacity="0" result="BackgroundImageFix"/>
            <feColorMatrix in="SourceAlpha" type="matrix" values="0 0 0 0 0 0 0 0 0 0 0 0 0 0 0 0 0 0 127 0" result="hardAlpha"/>
            <feOffset dy="2"/>
            <feGaussianBlur stdDeviation="1"/>
            <feComposite in2="hardAlpha" operator="out"/>
            <feColorMatrix type="matrix" values="0 0 0 0 0 0 0 0 0 0 0 0 0 0 0 0 0 0 0.03 0"/>
            <feBlend mode="normal" in2="BackgroundImageFix" result="effect1_dropShadow_1952_7636"/>
            <feColorMatrix in="SourceAlpha" type="matrix" values="0 0 0 0 0 0 0 0 0 0 0 0 0 0 0 0 0 0 127 0" result="hardAlpha"/>
            <feOffset dy="4"/>
            <feGaussianBlur stdDeviation="6"/>
            <feComposite in2="hardAlpha" operator="out"/>
            <feColorMatrix type="matrix" values="0 0 0 0 0 0 0 0 0 0 0 0 0 0 0 0 0 0 0.02 0"/>
            <feBlend mode="normal" in2="effect1_dropShadow_1952_7636" result="effect2_dropShadow_1952_7636"/>
            <feBlend mode="normal" in="SourceGraphic" in2="effect2_dropShadow_1952_7636" result="shape"/>
        </filter>
        <filter id="filter2_dd_1952_7636" x="9.48645" y="4.48633" width="53.6292" height="53.6289" filterUnits="userSpaceOnUse" color-interpolation-filters="sRGB">
            <feFlood flood-opacity="0" result="BackgroundImageFix"/>
            <feColorMatrix in="SourceAlpha" type="matrix" values="0 0 0 0 0 0 0 0 0 0 0 0 0 0 0 0 0 0 127 0" result="hardAlpha"/>
            <feOffset dy="2"/>
            <feGaussianBlur stdDeviation="1"/>
            <feComposite in2="hardAlpha" operator="out"/>
            <feColorMatrix type="matrix" values="0 0 0 0 0 0 0 0 0 0 0 0 0 0 0 0 0 0 0.03 0"/>
            <feBlend mode="normal" in2="BackgroundImageFix" result="effect1_dropShadow_1952_7636"/>
            <feColorMatrix in="SourceAlpha" type="matrix" values="0 0 0 0 0 0 0 0 0 0 0 0 0 0 0 0 0 0 127 0" result="hardAlpha"/>
            <feOffset dy="4"/>
            <feGaussianBlur stdDeviation="6"/>
            <feComposite in2="hardAlpha" operator="out"/>
            <feColorMatrix type="matrix" values="0 0 0 0 0 0 0 0 0 0 0 0 0 0 0 0 0 0 0.02 0"/>
            <feBlend mode="normal" in2="effect1_dropShadow_1952_7636" result="effect2_dropShadow_1952_7636"/>
            <feBlend mode="normal" in="SourceGraphic" in2="effect2_dropShadow_1952_7636" result="shape"/>
        </filter>
        <filter id="filter3_dd_1952_7636" x="215" y="-8" width="68.4666" height="68.4663" filterUnits="userSpaceOnUse" color-interpolation-filters="sRGB">
            <feFlood flood-opacity="0" result="BackgroundImageFix"/>
            <feColorMatrix in="SourceAlpha" type="matrix" values="0 0 0 0 0 0 0 0 0 0 0 0 0 0 0 0 0 0 127 0" result="hardAlpha"/>
            <feOffset dy="2"/>
            <feGaussianBlur stdDeviation="1"/>
            <feComposite in2="hardAlpha" operator="out"/>
            <feColorMatrix type="matrix" values="0 0 0 0 0 0 0 0 0 0 0 0 0 0 0 0 0 0 0.03 0"/>
            <feBlend mode="normal" in2="BackgroundImageFix" result="effect1_dropShadow_1952_7636"/>
            <feColorMatrix in="SourceAlpha" type="matrix" values="0 0 0 0 0 0 0 0 0 0 0 0 0 0 0 0 0 0 127 0" result="hardAlpha"/>
            <feOffset dy="4"/>
            <feGaussianBlur stdDeviation="6"/>
            <feComposite in2="hardAlpha" operator="out"/>
            <feColorMatrix type="matrix" values="0 0 0 0 0 0 0 0 0 0 0 0 0 0 0 0 0 0 0.02 0"/>
            <feBlend mode="normal" in2="effect1_dropShadow_1952_7636" result="effect2_dropShadow_1952_7636"/>
            <feBlend mode="normal" in="SourceGraphic" in2="effect2_dropShadow_1952_7636" result="shape"/>
        </filter>
        <filter id="filter4_dd_1952_7636" x="223.594" y="0.593262" width="51.2795" height="51.2798" filterUnits="userSpaceOnUse" color-interpolation-filters="sRGB">
            <feFlood flood-opacity="0" result="BackgroundImageFix"/>
            <feColorMatrix in="SourceAlpha" type="matrix" values="0 0 0 0 0 0 0 0 0 0 0 0 0 0 0 0 0 0 127 0" result="hardAlpha"/>
            <feOffset dy="2"/>
            <feGaussianBlur stdDeviation="1"/>
            <feComposite in2="hardAlpha" operator="out"/>
            <feColorMatrix type="matrix" values="0 0 0 0 0 0 0 0 0 0 0 0 0 0 0 0 0 0 0.03 0"/>
            <feBlend mode="normal" in2="BackgroundImageFix" result="effect1_dropShadow_1952_7636"/>
            <feColorMatrix in="SourceAlpha" type="matrix" values="0 0 0 0 0 0 0 0 0 0 0 0 0 0 0 0 0 0 127 0" result="hardAlpha"/>
            <feOffset dy="4"/>
            <feGaussianBlur stdDeviation="6"/>
            <feComposite in2="hardAlpha" operator="out"/>
            <feColorMatrix type="matrix" values="0 0 0 0 0 0 0 0 0 0 0 0 0 0 0 0 0 0 0.02 0"/>
            <feBlend mode="normal" in2="effect1_dropShadow_1952_7636" result="effect2_dropShadow_1952_7636"/>
            <feBlend mode="normal" in="SourceGraphic" in2="effect2_dropShadow_1952_7636" result="shape"/>
        </filter>
        <filter id="filter5_dd_1952_7636" x="32.4355" y="46.9955" width="48.1324" height="46.9223" filterUnits="userSpaceOnUse" color-interpolation-filters="sRGB">
            <feFlood flood-opacity="0" result="BackgroundImageFix"/>
            <feColorMatrix in="SourceAlpha" type="matrix" values="0 0 0 0 0 0 0 0 0 0 0 0 0 0 0 0 0 0 127 0" result="hardAlpha"/>
            <feOffset dy="1.27164"/>
            <feGaussianBlur stdDeviation="0.63582"/>
            <feComposite in2="hardAlpha" operator="out"/>
            <feColorMatrix type="matrix" values="0 0 0 0 0 0 0 0 0 0 0 0 0 0 0 0 0 0 0.03 0"/>
            <feBlend mode="normal" in2="BackgroundImageFix" result="effect1_dropShadow_1952_7636"/>
            <feColorMatrix in="SourceAlpha" type="matrix" values="0 0 0 0 0 0 0 0 0 0 0 0 0 0 0 0 0 0 127 0" result="hardAlpha"/>
            <feOffset dy="2.54328"/>
            <feGaussianBlur stdDeviation="3.81492"/>
            <feComposite in2="hardAlpha" operator="out"/>
            <feColorMatrix type="matrix" values="0 0 0 0 0 0 0 0 0 0 0 0 0 0 0 0 0 0 0.02 0"/>
            <feBlend mode="normal" in2="effect1_dropShadow_1952_7636" result="effect2_dropShadow_1952_7636"/>
            <feBlend mode="normal" in="SourceGraphic" in2="effect2_dropShadow_1952_7636" result="shape"/>
        </filter>
        <filter id="filter6_dd_1952_7636" x="193.459" y="49.5229" width="56.3094" height="51.611" filterUnits="userSpaceOnUse" color-interpolation-filters="sRGB">
            <feFlood flood-opacity="0" result="BackgroundImageFix"/>
            <feColorMatrix in="SourceAlpha" type="matrix" values="0 0 0 0 0 0 0 0 0 0 0 0 0 0 0 0 0 0 127 0" result="hardAlpha"/>
            <feOffset dy="1.25966"/>
            <feGaussianBlur stdDeviation="0.62983"/>
            <feComposite in2="hardAlpha" operator="out"/>
            <feColorMatrix type="matrix" values="0 0 0 0 0 0 0 0 0 0 0 0 0 0 0 0 0 0 0.03 0"/>
            <feBlend mode="normal" in2="BackgroundImageFix" result="effect1_dropShadow_1952_7636"/>
            <feColorMatrix in="SourceAlpha" type="matrix" values="0 0 0 0 0 0 0 0 0 0 0 0 0 0 0 0 0 0 127 0" result="hardAlpha"/>
            <feOffset dy="2.51932"/>
            <feGaussianBlur stdDeviation="3.77898"/>
            <feComposite in2="hardAlpha" operator="out"/>
            <feColorMatrix type="matrix" values="0 0 0 0 0 0 0 0 0 0 0 0 0 0 0 0 0 0 0.02 0"/>
            <feBlend mode="normal" in2="effect1_dropShadow_1952_7636" result="effect2_dropShadow_1952_7636"/>
            <feBlend mode="normal" in="SourceGraphic" in2="effect2_dropShadow_1952_7636" result="shape"/>
        </filter>
        <filter id="filter7_dd_1952_7636" x="250" y="26" width="72" height="72" filterUnits="userSpaceOnUse" color-interpolation-filters="sRGB">
            <feFlood flood-opacity="0" result="BackgroundImageFix"/>
            <feColorMatrix in="SourceAlpha" type="matrix" values="0 0 0 0 0 0 0 0 0 0 0 0 0 0 0 0 0 0 127 0" result="hardAlpha"/>
            <feOffset dy="2"/>
            <feGaussianBlur stdDeviation="1"/>
            <feComposite in2="hardAlpha" operator="out"/>
            <feColorMatrix type="matrix" values="0 0 0 0 0 0 0 0 0 0 0 0 0 0 0 0 0 0 0.03 0"/>
            <feBlend mode="normal" in2="BackgroundImageFix" result="effect1_dropShadow_1952_7636"/>
            <feColorMatrix in="SourceAlpha" type="matrix" values="0 0 0 0 0 0 0 0 0 0 0 0 0 0 0 0 0 0 127 0" result="hardAlpha"/>
            <feOffset dy="4"/>
            <feGaussianBlur stdDeviation="6"/>
            <feComposite in2="hardAlpha" operator="out"/>
            <feColorMatrix type="matrix" values="0 0 0 0 0 0 0 0 0 0 0 0 0 0 0 0 0 0 0.02 0"/>
            <feBlend mode="normal" in2="effect1_dropShadow_1952_7636" result="effect2_dropShadow_1952_7636"/>
            <feBlend mode="normal" in="SourceGraphic" in2="effect2_dropShadow_1952_7636" result="shape"/>
        </filter>
        <clipPath id="clip0_1952_7636">
            <rect width="320" height="100" fill="white"/>
        </clipPath>
        <clipPath id="clip1_1952_7636">
            <rect width="32.67" height="32.67" fill="white" transform="translate(25.2767 7) rotate(16.4962)"/>
        </clipPath>
        <clipPath id="clip2_1952_7636">
            <rect width="32.67" height="32.67" fill="white" transform="translate(227 15.9604) rotate(-29.2445)"/>
        </clipPath>
        <clipPath id="clip3_1952_7636">
            <rect x="262" y="46.2734" width="37.7758" height="37.7758" rx="18.8879" transform="rotate(-18.96 262 46.2734)" fill="white"/>
        </clipPath>
    </defs>
</svg>
