<svg width="16" height="16" viewBox="0 0 16 16" fill="none" xmlns="http://www.w3.org/2000/svg">
    <g clip-path="url(#clip0_2173_232)">
        <path d="M8 5.02897C9.57786 5.02897 10.8571 6.30825 10.8571 7.88611C10.8571 9.46397 9.57786 10.7433 8 10.7433C6.42214 10.7433 5.14286 9.46397 5.14286 7.88611C5.14286 6.30825 6.42214 5.02897 8 5.02897ZM8 -0.113892C6.92214 -0.113892 5.87429 0.0982513 4.88429 0.516823C3.93071 0.91968 3.07571 1.49611 2.34286 2.22897C1.61 2.96182 1.03357 3.81682 0.630714 4.77039C0.212143 5.75968 0 6.80825 0 7.88611C0 8.96397 0.212143 10.0118 0.630714 11.0018C1.03357 11.9554 1.61 12.8104 2.34286 13.5433C3.07571 14.2761 3.93071 14.8525 4.88429 15.2554C5.87357 15.674 6.92214 15.8861 8 15.8861C9.07786 15.8861 10.1257 15.674 11.1157 15.2554C12.0693 14.8525 12.9243 14.2761 13.6571 13.5433C14.39 12.8104 14.9664 11.9554 15.3693 11.0018C15.7879 10.0125 16 8.96397 16 7.88611C16 6.80825 15.7879 5.76039 15.3693 4.77039C14.9664 3.81682 14.39 2.96182 13.6571 2.22897C12.9243 1.49611 12.0693 0.91968 11.1157 0.516823C10.1264 0.0982513 9.07786 -0.113892 8 -0.113892Z" fill="#B7F7B0"/>
        <path d="M8.00007 5.02897C9.57793 5.02897 10.8572 6.30826 10.8572 7.88612C10.8572 9.46397 9.57793 10.7433 8.00007 10.7433C6.42221 10.7433 5.14293 9.46397 5.14293 7.88612C5.14293 6.30826 6.42221 5.02897 8.00007 5.02897ZM8.00007 1.6004C4.53436 1.6004 1.71436 4.4204 1.71436 7.88612C1.71436 11.3518 4.53436 14.1718 8.00007 14.1718C11.4658 14.1718 14.2858 11.3518 14.2858 7.88612C14.2858 4.4204 11.4658 1.6004 8.00007 1.6004Z" fill="#07DC10"/>
        <path d="M8.00014 5.02898C9.578 5.02898 10.8573 6.30827 10.8573 7.88613C10.8573 9.46398 9.578 10.7433 8.00014 10.7433C6.42228 10.7433 5.143 9.46398 5.143 7.88613C5.143 6.30827 6.42228 5.02898 8.00014 5.02898ZM8.00014 3.3147C5.47942 3.3147 3.42871 5.36541 3.42871 7.88613C3.42871 10.4068 5.47942 12.4576 8.00014 12.4576C10.5209 12.4576 12.5716 10.4068 12.5716 7.88613C12.5716 5.36541 10.5209 3.3147 8.00014 3.3147Z" fill="#0C9B00"/>
        <path d="M7.99984 5.02899C9.5777 5.02899 10.857 6.30828 10.857 7.88613C10.857 9.46399 9.5777 10.7433 7.99984 10.7433C6.42199 10.7433 5.1427 9.46399 5.1427 7.88613C5.1427 6.30828 6.42199 5.02899 7.99984 5.02899Z" fill="#EAEAEA"/>
    </g>
    <defs>
        <clipPath id="clip0_2173_232">
            <rect width="16" height="16" rx="8" fill="white"/>
        </clipPath>
    </defs>
</svg>
