<svg width="320" height="101" viewBox="0 0 320 101" fill="none" xmlns="http://www.w3.org/2000/svg">
<g clip-path="url(#clip0_1952_7636)">
<g opacity="0.2" filter="url(#filter0_f_1952_7636)">
<ellipse cx="159.335" cy="53.6265" rx="87.665" ry="12.829" transform="rotate(-180 159.335 53.6265)" fill="#0C9B00"/>
</g>
<g clip-path="url(#clip1_1952_7636)" filter="url(#filter1_dd_1952_7636)">
<g filter="url(#filter2_dd_1952_7636)">
<path d="M40.1663 14.7042L40.7704 22.3096C40.8551 23.3756 40.8974 23.9086 41.0644 24.3959C41.2124 24.8277 41.4318 25.2317 41.7134 25.591C42.0312 25.9964 42.4552 26.3222 43.3032 26.9737L49.3532 31.6217L41.7478 32.2257C40.6818 32.3104 40.1488 32.3528 39.6615 32.5198C39.2297 32.6678 38.8257 32.8871 38.4664 33.1688C38.061 33.4865 37.7352 33.9105 37.0837 34.7585L32.4357 40.8086L31.8316 33.2032C31.747 32.1371 31.7046 31.6041 31.5376 31.1169C31.3896 30.685 31.1702 30.281 30.8886 29.9217C30.5709 29.5163 30.1469 29.1906 29.2989 28.5391L23.2488 23.8911L30.8542 23.287C31.9203 23.2023 32.4533 23.16 32.9405 22.993C33.3724 22.845 33.7764 22.6256 34.1357 22.344C34.5411 22.0262 34.8668 21.6022 35.5183 20.7542L40.1663 14.7042Z" fill="#07DC10"/>
<path d="M40.1663 14.7042L40.7704 22.3096C40.8551 23.3756 40.8974 23.9086 41.0644 24.3959C41.2124 24.8277 41.4318 25.2317 41.7134 25.591C42.0312 25.9964 42.4552 26.3222 43.3032 26.9737L49.3532 31.6217L41.7478 32.2257C40.6818 32.3104 40.1488 32.3528 39.6615 32.5198C39.2297 32.6678 38.8257 32.8871 38.4664 33.1688C38.061 33.4865 37.7352 33.9105 37.0837 34.7585L32.4357 40.8086L31.8316 33.2032C31.747 32.1371 31.7046 31.6041 31.5376 31.1169C31.3896 30.685 31.1702 30.281 30.8886 29.9217C30.5709 29.5163 30.1469 29.1906 29.2989 28.5391L23.2488 23.8911L30.8542 23.287C31.9203 23.2023 32.4533 23.16 32.9405 22.993C33.3724 22.845 33.7764 22.6256 34.1357 22.344C34.5411 22.0262 34.8668 21.6022 35.5183 20.7542L40.1663 14.7042Z" stroke="white" stroke-width="3.52446" stroke-linecap="round" stroke-linejoin="round"/>
</g>
</g>
<g clip-path="url(#clip2_1952_7636)" filter="url(#filter3_dd_1952_7636)">
<g filter="url(#filter4_dd_1952_7636)">
<path d="M242.583 10.8112L248.452 15.6864C249.274 16.3698 249.685 16.7114 250.151 16.9319C250.564 17.1273 251.006 17.2521 251.46 17.3012C251.972 17.3565 252.501 17.2802 253.56 17.1276L261.111 16.0385L256.236 21.9069C255.552 22.7295 255.211 23.1408 254.99 23.6063C254.795 24.0189 254.67 24.4613 254.621 24.9152C254.565 25.4273 254.642 25.9565 254.794 27.015L255.884 34.5662L250.015 29.691C249.192 29.0076 248.781 28.6659 248.316 28.4455C247.903 28.2501 247.461 28.1253 247.007 28.0762C246.495 28.0208 245.965 28.0972 244.907 28.2498L237.356 29.3389L242.231 23.4704C242.914 22.6479 243.256 22.2366 243.476 21.771C243.672 21.3585 243.797 20.916 243.846 20.4622C243.901 19.9501 243.825 19.4208 243.672 18.3624L242.583 10.8112Z" fill="#B7F7B0"/>
<path d="M242.583 10.8112L248.452 15.6864C249.274 16.3698 249.685 16.7114 250.151 16.9319C250.564 17.1273 251.006 17.2521 251.46 17.3012C251.972 17.3565 252.501 17.2802 253.56 17.1276L261.111 16.0385L256.236 21.9069C255.552 22.7295 255.211 23.1408 254.99 23.6063C254.795 24.0189 254.67 24.4613 254.621 24.9152C254.565 25.4273 254.642 25.9565 254.794 27.015L255.884 34.5662L250.015 29.691C249.192 29.0076 248.781 28.6659 248.316 28.4455C247.903 28.2501 247.461 28.1253 247.007 28.0762C246.495 28.0208 245.965 28.0972 244.907 28.2498L237.356 29.3389L242.231 23.4704C242.914 22.6479 243.256 22.2366 243.476 21.771C243.672 21.3585 243.797 20.916 243.846 20.4622C243.901 19.9501 243.825 19.4208 243.672 18.3624L242.583 10.8112Z" stroke="white" stroke-width="3.52446" stroke-linecap="round" stroke-linejoin="round"/>
</g>
</g>
<g filter="url(#filter5_d_1952_7636)">
<mask id="path-4-outside-1_1952_7636" maskUnits="userSpaceOnUse" x="38.9353" y="49.7759" width="35" height="36" fill="black">
<rect fill="white" x="38.9353" y="49.7759" width="35" height="36"/>
<path d="M53.4086 66.4607C54.0779 70.2705 54.9405 74.0548 55.7726 77.5761C56.1582 79.1566 57.4776 79.8578 59.3008 79.4462L59.4922 79.4055C59.5126 79.4012 59.5316 79.3971 59.5519 79.3928C61.3462 79.0114 62.243 77.8449 61.9558 76.2604C61.291 72.732 60.5437 68.943 59.5948 65.1458C59.1642 63.4003 57.4527 63.1102 55.9948 63.4186C54.5385 63.7282 53.0947 64.6904 53.4083 66.4594L53.4086 66.4607Z"/>
<path d="M47.1029 64.7855L45.1811 65.194C44.847 65.2636 44.6319 65.593 44.7031 65.9282L48.0614 81.7276C48.1323 82.0615 48.4618 82.2766 48.797 82.2054L50.7188 81.7969C52.604 81.3962 53.8117 79.5365 53.411 77.6513L51.2488 67.479C50.8481 65.5938 48.9884 64.3861 47.1032 64.7868L47.1029 64.7855Z"/>
<path d="M43.4267 58.4613C43.0915 58.5325 42.8777 58.8617 42.949 59.1969L43.2464 60.5962C43.6471 62.4814 45.5068 63.689 47.392 63.2883L50.3276 62.6643C50.3396 62.6604 50.3586 62.6563 50.3857 62.6506C50.402 62.6471 50.4237 62.6425 50.4492 62.6356L50.4655 62.6322C50.5149 62.6245 50.5651 62.6138 50.6154 62.6032C50.6357 62.5988 50.6656 62.5925 50.6992 62.5839L50.8417 62.5536C50.8678 62.5495 50.9017 62.5423 50.9446 62.5303L50.9609 62.5269C51.0005 62.5199 51.0388 62.5132 51.0779 62.5034C51.0996 62.4988 51.1267 62.493 51.1614 62.4828L51.1777 62.4794C51.2296 62.4698 51.2692 62.4628 51.314 62.4532C51.3317 62.4495 51.3507 62.4454 51.3748 62.4389L51.3911 62.4354C51.4405 62.4278 51.4894 62.4174 51.541 62.4064C51.5641 62.4015 51.5912 62.3957 51.6232 62.3861L51.6395 62.3826C51.6832 62.3748 51.7299 62.3677 51.7744 62.3568C51.8043 62.3505 51.8382 62.3432 51.8783 62.3319L51.896 62.3281C51.9302 62.3223 51.9666 62.3131 51.9994 62.3076C52.0211 62.3029 52.0456 62.2977 52.0724 62.2906L52.0874 62.2874C52.1379 62.2781 52.1843 62.2697 52.2332 62.2593C52.2562 62.2544 52.2834 62.2486 52.3113 62.2398L52.3276 62.2364C52.3713 62.2285 52.4164 62.2203 52.4598 62.2111C52.491 62.2045 52.5263 62.197 52.5678 62.1853L52.5841 62.1819C52.6183 62.176 52.6533 62.1671 52.6875 62.1613C52.712 62.1561 52.7432 62.1495 52.7765 62.1395L52.7942 62.1358C52.8447 62.1265 52.88 62.119 52.9169 62.1125C52.9386 62.1079 52.9644 62.1024 52.9926 62.095C53.0567 62.0828 53.1059 62.0738 53.1534 62.0637C53.1778 62.0585 53.2049 62.0527 53.2342 62.0437L53.2532 62.0396C53.2969 62.0318 53.3379 62.0245 53.3814 62.0152C53.4058 62.01 53.4329 62.0043 53.4622 61.9952L53.4785 61.9917C53.5236 61.9836 53.5673 61.9757 53.6094 61.9668C53.6406 61.9601 53.6786 61.9521 53.716 61.9413L53.7323 61.9378C53.7665 61.9319 53.8021 61.9258 53.8344 61.9175C53.8588 61.9123 53.8846 61.9068 53.9142 61.8991L53.9305 61.8957C53.9785 61.8883 54.0206 61.8794 54.064 61.8701C54.0993 61.8626 54.1401 61.854 54.1815 61.8423L54.1978 61.8388C54.2307 61.8333 54.2636 61.8277 54.2931 61.82C54.3216 61.814 54.3556 61.8067 54.3903 61.7965L54.4066 61.7931C54.4584 61.7835 54.4926 61.7776 54.5306 61.7695C54.5551 61.7643 54.5809 61.7589 54.6091 61.7514L54.6254 61.748C54.6707 61.7412 54.7158 61.733 54.7562 61.723C54.7874 61.7164 54.8214 61.7091 54.8588 61.6984L54.8751 61.6949C54.9202 61.6867 54.9585 61.68 54.9937 61.6725C55.0263 61.6656 55.0575 61.659 55.0922 61.6487L55.1085 61.6453C55.1536 61.6371 55.1905 61.6307 55.2258 61.6232C55.2557 61.6168 55.2869 61.6102 55.3203 61.6003L55.3365 61.5968C55.3816 61.5886 55.4186 61.5822 55.4552 61.5744C55.4864 61.5678 55.5176 61.5612 55.551 61.5512L55.5673 61.5478C55.6137 61.5393 55.6493 61.5332 55.6873 61.5251C55.7239 61.5173 55.7619 61.5092 55.7994 61.4984L55.9066 61.4756C55.9408 61.4698 55.9747 61.4626 56.0108 61.4521L56.0271 61.4486C56.0789 61.439 56.1118 61.4334 56.1471 61.4259C56.1769 61.4196 56.2109 61.4124 56.2429 61.4027L56.2754 61.3958C56.311 61.3897 56.3425 61.3844 56.3737 61.3778C56.4022 61.3717 56.4307 61.3656 56.4617 61.3577L56.4847 61.3527C56.526 61.3468 56.564 61.3387 56.6007 61.3309C56.636 61.3234 56.674 61.3154 56.7114 61.3046L56.7277 61.3011C56.7673 61.2941 56.8056 61.2874 56.8396 61.2802C56.8735 61.273 56.9061 61.266 56.9394 61.2561L56.9557 61.2526C57.0035 61.2439 57.0353 61.24 57.0649 61.2323C57.0934 61.2262 57.1273 61.219 57.1569 61.2113L57.1731 61.2078C57.2144 61.2019 57.2538 61.1935 57.2891 61.186C57.3393 61.1754 57.3906 61.163 57.444 61.1474L57.5187 61.1316C57.558 61.1232 57.596 61.1151 57.6362 61.1038L57.6524 61.1003C57.6935 61.093 57.7263 61.0874 57.7562 61.0811C57.7915 61.0736 57.8267 61.0661 57.8642 61.0553L57.8805 61.0518C57.9215 61.0445 57.9543 61.039 57.9842 61.0326C58.0168 61.0257 58.0507 61.0185 58.0857 61.0096L58.102 61.0062C58.1433 61.0002 58.1783 60.9914 58.2111 60.9858C58.2478 60.978 58.2858 60.9699 58.3232 60.9591L58.3408 60.9554C58.3832 60.9478 58.4161 60.9422 58.4459 60.9359C58.4826 60.9281 58.5206 60.92 58.558 60.9092L58.5743 60.9058C58.6234 60.8967 58.6509 60.8923 58.6794 60.8863C58.716 60.8785 58.7554 60.8701 58.7928 60.8593L58.8091 60.8559C58.8542 60.8477 58.8846 60.8441 58.9101 60.8372C58.9467 60.8294 58.9847 60.8214 59.0222 60.8106L59.0561 60.8034C59.0873 60.7967 59.1134 60.7926 59.1381 60.7888C59.1829 60.7792 59.2277 60.7697 59.2733 60.7572L59.2895 60.7537C59.3153 60.7483 59.3384 60.7433 59.3615 60.7384C59.4022 60.7298 59.4456 60.7206 59.4871 60.7089L59.5034 60.7054C59.5471 60.6976 59.5762 60.6942 59.6003 60.6877C59.6397 60.6793 59.6804 60.6707 59.7219 60.659L59.7558 60.6518C59.783 60.646 59.8053 60.6441 59.827 60.6395C59.8609 60.6323 59.8976 60.6245 59.9326 60.6156L59.9489 60.6122C59.9915 60.6059 60.0257 60.6001 60.0539 60.5927C60.0974 60.5834 60.1395 60.5745 60.185 60.562L60.2176 60.5551C60.2488 60.5484 60.2738 60.5459 60.2942 60.5416C60.3349 60.533 60.3742 60.5246 60.4157 60.5129L60.4551 60.5046C60.4836 60.4985 60.5059 60.4966 60.5233 60.4915C60.5694 60.4817 60.6183 60.4713 60.6638 60.4588L60.6801 60.4553C60.7075 60.4509 60.7336 60.4468 60.751 60.4417C60.7863 60.4342 60.8243 60.4261 60.8606 60.417L61.0074 60.3801L61.0094 60.3896L63.7462 59.8107C65.6313 59.41 66.839 57.5504 66.4383 55.6652L66.1412 54.2672C66.0702 53.9334 65.7408 53.7183 65.4055 53.7895L43.4267 58.4613Z"/>
<path d="M66.5978 60.6402L64.676 61.0487C62.7908 61.4494 61.5831 63.3091 61.9838 65.1942L64.146 75.3666C64.5467 77.2518 66.4064 78.4594 68.2916 78.0587L70.2134 77.6502C70.5472 77.5793 70.7624 77.2498 70.6911 76.9146L67.3334 61.1179C67.2624 60.7841 66.933 60.569 66.5978 60.6402Z"/>
</mask>
<path d="M53.4086 66.4607C54.0779 70.2705 54.9405 74.0548 55.7726 77.5761C56.1582 79.1566 57.4776 79.8578 59.3008 79.4462L59.4922 79.4055C59.5126 79.4012 59.5316 79.3971 59.5519 79.3928C61.3462 79.0114 62.243 77.8449 61.9558 76.2604C61.291 72.732 60.5437 68.943 59.5948 65.1458C59.1642 63.4003 57.4527 63.1102 55.9948 63.4186C54.5385 63.7282 53.0947 64.6904 53.4083 66.4594L53.4086 66.4607Z" fill="#07DC10"/>
<path d="M47.1029 64.7855L45.1811 65.194C44.847 65.2636 44.6319 65.593 44.7031 65.9282L48.0614 81.7276C48.1323 82.0615 48.4618 82.2766 48.797 82.2054L50.7188 81.7969C52.604 81.3962 53.8117 79.5365 53.411 77.6513L51.2488 67.479C50.8481 65.5938 48.9884 64.3861 47.1032 64.7868L47.1029 64.7855Z" fill="#07DC10"/>
<path d="M43.4267 58.4613C43.0915 58.5325 42.8777 58.8617 42.949 59.1969L43.2464 60.5962C43.6471 62.4814 45.5068 63.689 47.392 63.2883L50.3276 62.6643C50.3396 62.6604 50.3586 62.6563 50.3857 62.6506C50.402 62.6471 50.4237 62.6425 50.4492 62.6356L50.4655 62.6322C50.5149 62.6245 50.5651 62.6138 50.6154 62.6032C50.6357 62.5988 50.6656 62.5925 50.6992 62.5839L50.8417 62.5536C50.8678 62.5495 50.9017 62.5423 50.9446 62.5303L50.9609 62.5269C51.0005 62.5199 51.0388 62.5132 51.0779 62.5034C51.0996 62.4988 51.1267 62.493 51.1614 62.4828L51.1777 62.4794C51.2296 62.4698 51.2692 62.4628 51.314 62.4532C51.3317 62.4495 51.3507 62.4454 51.3748 62.4389L51.3911 62.4354C51.4405 62.4278 51.4894 62.4174 51.541 62.4064C51.5641 62.4015 51.5912 62.3957 51.6232 62.3861L51.6395 62.3826C51.6832 62.3748 51.7299 62.3677 51.7744 62.3568C51.8043 62.3505 51.8382 62.3432 51.8783 62.3319L51.896 62.3281C51.9302 62.3223 51.9666 62.3131 51.9994 62.3076C52.0211 62.3029 52.0456 62.2977 52.0724 62.2906L52.0874 62.2874C52.1379 62.2781 52.1843 62.2697 52.2332 62.2593C52.2562 62.2544 52.2834 62.2486 52.3113 62.2398L52.3276 62.2364C52.3713 62.2285 52.4164 62.2203 52.4598 62.2111C52.491 62.2045 52.5263 62.197 52.5678 62.1853L52.5841 62.1819C52.6183 62.176 52.6533 62.1671 52.6875 62.1613C52.712 62.1561 52.7432 62.1495 52.7765 62.1395L52.7942 62.1358C52.8447 62.1265 52.88 62.119 52.9169 62.1125C52.9386 62.1079 52.9644 62.1024 52.9926 62.095C53.0567 62.0828 53.1059 62.0738 53.1534 62.0637C53.1778 62.0585 53.2049 62.0527 53.2342 62.0437L53.2532 62.0396C53.2969 62.0318 53.3379 62.0245 53.3814 62.0152C53.4058 62.01 53.4329 62.0043 53.4622 61.9952L53.4785 61.9917C53.5236 61.9836 53.5673 61.9757 53.6094 61.9668C53.6406 61.9601 53.6786 61.9521 53.716 61.9413L53.7323 61.9378C53.7665 61.9319 53.8021 61.9258 53.8344 61.9175C53.8588 61.9123 53.8846 61.9068 53.9142 61.8991L53.9305 61.8957C53.9785 61.8883 54.0206 61.8794 54.064 61.8701C54.0993 61.8626 54.1401 61.854 54.1815 61.8423L54.1978 61.8388C54.2307 61.8333 54.2636 61.8277 54.2931 61.82C54.3216 61.814 54.3556 61.8067 54.3903 61.7965L54.4066 61.7931C54.4584 61.7835 54.4926 61.7776 54.5306 61.7695C54.5551 61.7643 54.5809 61.7589 54.6091 61.7514L54.6254 61.748C54.6707 61.7412 54.7158 61.733 54.7562 61.723C54.7874 61.7164 54.8214 61.7091 54.8588 61.6984L54.8751 61.6949C54.9202 61.6867 54.9585 61.68 54.9937 61.6725C55.0263 61.6656 55.0575 61.659 55.0922 61.6487L55.1085 61.6453C55.1536 61.6371 55.1905 61.6307 55.2258 61.6232C55.2557 61.6168 55.2869 61.6102 55.3203 61.6003L55.3365 61.5968C55.3816 61.5886 55.4186 61.5822 55.4552 61.5744C55.4864 61.5678 55.5176 61.5612 55.551 61.5512L55.5673 61.5478C55.6137 61.5393 55.6493 61.5332 55.6873 61.5251C55.7239 61.5173 55.7619 61.5092 55.7994 61.4984L55.9066 61.4756C55.9408 61.4698 55.9747 61.4626 56.0108 61.4521L56.0271 61.4486C56.0789 61.439 56.1118 61.4334 56.1471 61.4259C56.1769 61.4196 56.2109 61.4124 56.2429 61.4027L56.2754 61.3958C56.311 61.3897 56.3425 61.3844 56.3737 61.3778C56.4022 61.3717 56.4307 61.3656 56.4617 61.3577L56.4847 61.3527C56.526 61.3468 56.564 61.3387 56.6007 61.3309C56.636 61.3234 56.674 61.3154 56.7114 61.3046L56.7277 61.3011C56.7673 61.2941 56.8056 61.2874 56.8396 61.2802C56.8735 61.273 56.9061 61.266 56.9394 61.2561L56.9557 61.2526C57.0035 61.2439 57.0353 61.24 57.0649 61.2323C57.0934 61.2262 57.1273 61.219 57.1569 61.2113L57.1731 61.2078C57.2144 61.2019 57.2538 61.1935 57.2891 61.186C57.3393 61.1754 57.3906 61.163 57.444 61.1474L57.5187 61.1316C57.558 61.1232 57.596 61.1151 57.6362 61.1038L57.6524 61.1003C57.6935 61.093 57.7263 61.0874 57.7562 61.0811C57.7915 61.0736 57.8267 61.0661 57.8642 61.0553L57.8805 61.0518C57.9215 61.0445 57.9543 61.039 57.9842 61.0326C58.0168 61.0257 58.0507 61.0185 58.0857 61.0096L58.102 61.0062C58.1433 61.0002 58.1783 60.9914 58.2111 60.9858C58.2478 60.978 58.2858 60.9699 58.3232 60.9591L58.3408 60.9554C58.3832 60.9478 58.4161 60.9422 58.4459 60.9359C58.4826 60.9281 58.5206 60.92 58.558 60.9092L58.5743 60.9058C58.6234 60.8967 58.6509 60.8923 58.6794 60.8863C58.716 60.8785 58.7554 60.8701 58.7928 60.8593L58.8091 60.8559C58.8542 60.8477 58.8846 60.8441 58.9101 60.8372C58.9467 60.8294 58.9847 60.8214 59.0222 60.8106L59.0561 60.8034C59.0873 60.7967 59.1134 60.7926 59.1381 60.7888C59.1829 60.7792 59.2277 60.7697 59.2733 60.7572L59.2895 60.7537C59.3153 60.7483 59.3384 60.7433 59.3615 60.7384C59.4022 60.7298 59.4456 60.7206 59.4871 60.7089L59.5034 60.7054C59.5471 60.6976 59.5762 60.6942 59.6003 60.6877C59.6397 60.6793 59.6804 60.6707 59.7219 60.659L59.7558 60.6518C59.783 60.646 59.8053 60.6441 59.827 60.6395C59.8609 60.6323 59.8976 60.6245 59.9326 60.6156L59.9489 60.6122C59.9915 60.6059 60.0257 60.6001 60.0539 60.5927C60.0974 60.5834 60.1395 60.5745 60.185 60.562L60.2176 60.5551C60.2488 60.5484 60.2738 60.5459 60.2942 60.5416C60.3349 60.533 60.3742 60.5246 60.4157 60.5129L60.4551 60.5046C60.4836 60.4985 60.5059 60.4966 60.5233 60.4915C60.5694 60.4817 60.6183 60.4713 60.6638 60.4588L60.6801 60.4553C60.7075 60.4509 60.7336 60.4468 60.751 60.4417C60.7863 60.4342 60.8243 60.4261 60.8606 60.417L61.0074 60.3801L61.0094 60.3896L63.7462 59.8107C65.6313 59.41 66.839 57.5504 66.4383 55.6652L66.1412 54.2672C66.0702 53.9334 65.7408 53.7183 65.4055 53.7895L43.4267 58.4613Z" fill="#07DC10"/>
<path d="M66.5978 60.6402L64.676 61.0487C62.7908 61.4494 61.5831 63.3091 61.9838 65.1942L64.146 75.3666C64.5467 77.2518 66.4064 78.4594 68.2916 78.0587L70.2134 77.6502C70.5472 77.5793 70.7624 77.2498 70.6911 76.9146L67.3334 61.1179C67.2624 60.7841 66.933 60.569 66.5978 60.6402Z" fill="#07DC10"/>
<path d="M53.4086 66.4607C54.0779 70.2705 54.9405 74.0548 55.7726 77.5761C56.1582 79.1566 57.4776 79.8578 59.3008 79.4462L59.4922 79.4055C59.5126 79.4012 59.5316 79.3971 59.5519 79.3928C61.3462 79.0114 62.243 77.8449 61.9558 76.2604C61.291 72.732 60.5437 68.943 59.5948 65.1458C59.1642 63.4003 57.4527 63.1102 55.9948 63.4186C54.5385 63.7282 53.0947 64.6904 53.4083 66.4594L53.4086 66.4607Z" stroke="white" stroke-width="6" mask="url(#path-4-outside-1_1952_7636)"/>
<path d="M47.1029 64.7855L45.1811 65.194C44.847 65.2636 44.6319 65.593 44.7031 65.9282L48.0614 81.7276C48.1323 82.0615 48.4618 82.2766 48.797 82.2054L50.7188 81.7969C52.604 81.3962 53.8117 79.5365 53.411 77.6513L51.2488 67.479C50.8481 65.5938 48.9884 64.3861 47.1032 64.7868L47.1029 64.7855Z" stroke="white" stroke-width="6" mask="url(#path-4-outside-1_1952_7636)"/>
<path d="M43.4267 58.4613C43.0915 58.5325 42.8777 58.8617 42.949 59.1969L43.2464 60.5962C43.6471 62.4814 45.5068 63.689 47.392 63.2883L50.3276 62.6643C50.3396 62.6604 50.3586 62.6563 50.3857 62.6506C50.402 62.6471 50.4237 62.6425 50.4492 62.6356L50.4655 62.6322C50.5149 62.6245 50.5651 62.6138 50.6154 62.6032C50.6357 62.5988 50.6656 62.5925 50.6992 62.5839L50.8417 62.5536C50.8678 62.5495 50.9017 62.5423 50.9446 62.5303L50.9609 62.5269C51.0005 62.5199 51.0388 62.5132 51.0779 62.5034C51.0996 62.4988 51.1267 62.493 51.1614 62.4828L51.1777 62.4794C51.2296 62.4698 51.2692 62.4628 51.314 62.4532C51.3317 62.4495 51.3507 62.4454 51.3748 62.4389L51.3911 62.4354C51.4405 62.4278 51.4894 62.4174 51.541 62.4064C51.5641 62.4015 51.5912 62.3957 51.6232 62.3861L51.6395 62.3826C51.6832 62.3748 51.7299 62.3677 51.7744 62.3568C51.8043 62.3505 51.8382 62.3432 51.8783 62.3319L51.896 62.3281C51.9302 62.3223 51.9666 62.3131 51.9994 62.3076C52.0211 62.3029 52.0456 62.2977 52.0724 62.2906L52.0874 62.2874C52.1379 62.2781 52.1843 62.2697 52.2332 62.2593C52.2562 62.2544 52.2834 62.2486 52.3113 62.2398L52.3276 62.2364C52.3713 62.2285 52.4164 62.2203 52.4598 62.2111C52.491 62.2045 52.5263 62.197 52.5678 62.1853L52.5841 62.1819C52.6183 62.176 52.6533 62.1671 52.6875 62.1613C52.712 62.1561 52.7432 62.1495 52.7765 62.1395L52.7942 62.1358C52.8447 62.1265 52.88 62.119 52.9169 62.1125C52.9386 62.1079 52.9644 62.1024 52.9926 62.095C53.0567 62.0828 53.1059 62.0738 53.1534 62.0637C53.1778 62.0585 53.2049 62.0527 53.2342 62.0437L53.2532 62.0396C53.2969 62.0318 53.3379 62.0245 53.3814 62.0152C53.4058 62.01 53.4329 62.0043 53.4622 61.9952L53.4785 61.9917C53.5236 61.9836 53.5673 61.9757 53.6094 61.9668C53.6406 61.9601 53.6786 61.9521 53.716 61.9413L53.7323 61.9378C53.7665 61.9319 53.8021 61.9258 53.8344 61.9175C53.8588 61.9123 53.8846 61.9068 53.9142 61.8991L53.9305 61.8957C53.9785 61.8883 54.0206 61.8794 54.064 61.8701C54.0993 61.8626 54.1401 61.854 54.1815 61.8423L54.1978 61.8388C54.2307 61.8333 54.2636 61.8277 54.2931 61.82C54.3216 61.814 54.3556 61.8067 54.3903 61.7965L54.4066 61.7931C54.4584 61.7835 54.4926 61.7776 54.5306 61.7695C54.5551 61.7643 54.5809 61.7589 54.6091 61.7514L54.6254 61.748C54.6707 61.7412 54.7158 61.733 54.7562 61.723C54.7874 61.7164 54.8214 61.7091 54.8588 61.6984L54.8751 61.6949C54.9202 61.6867 54.9585 61.68 54.9937 61.6725C55.0263 61.6656 55.0575 61.659 55.0922 61.6487L55.1085 61.6453C55.1536 61.6371 55.1905 61.6307 55.2258 61.6232C55.2557 61.6168 55.2869 61.6102 55.3203 61.6003L55.3365 61.5968C55.3816 61.5886 55.4186 61.5822 55.4552 61.5744C55.4864 61.5678 55.5176 61.5612 55.551 61.5512L55.5673 61.5478C55.6137 61.5393 55.6493 61.5332 55.6873 61.5251C55.7239 61.5173 55.7619 61.5092 55.7994 61.4984L55.9066 61.4756C55.9408 61.4698 55.9747 61.4626 56.0108 61.4521L56.0271 61.4486C56.0789 61.439 56.1118 61.4334 56.1471 61.4259C56.1769 61.4196 56.2109 61.4124 56.2429 61.4027L56.2754 61.3958C56.311 61.3897 56.3425 61.3844 56.3737 61.3778C56.4022 61.3717 56.4307 61.3656 56.4617 61.3577L56.4847 61.3527C56.526 61.3468 56.564 61.3387 56.6007 61.3309C56.636 61.3234 56.674 61.3154 56.7114 61.3046L56.7277 61.3011C56.7673 61.2941 56.8056 61.2874 56.8396 61.2802C56.8735 61.273 56.9061 61.266 56.9394 61.2561L56.9557 61.2526C57.0035 61.2439 57.0353 61.24 57.0649 61.2323C57.0934 61.2262 57.1273 61.219 57.1569 61.2113L57.1731 61.2078C57.2144 61.2019 57.2538 61.1935 57.2891 61.186C57.3393 61.1754 57.3906 61.163 57.444 61.1474L57.5187 61.1316C57.558 61.1232 57.596 61.1151 57.6362 61.1038L57.6524 61.1003C57.6935 61.093 57.7263 61.0874 57.7562 61.0811C57.7915 61.0736 57.8267 61.0661 57.8642 61.0553L57.8805 61.0518C57.9215 61.0445 57.9543 61.039 57.9842 61.0326C58.0168 61.0257 58.0507 61.0185 58.0857 61.0096L58.102 61.0062C58.1433 61.0002 58.1783 60.9914 58.2111 60.9858C58.2478 60.978 58.2858 60.9699 58.3232 60.9591L58.3408 60.9554C58.3832 60.9478 58.4161 60.9422 58.4459 60.9359C58.4826 60.9281 58.5206 60.92 58.558 60.9092L58.5743 60.9058C58.6234 60.8967 58.6509 60.8923 58.6794 60.8863C58.716 60.8785 58.7554 60.8701 58.7928 60.8593L58.8091 60.8559C58.8542 60.8477 58.8846 60.8441 58.9101 60.8372C58.9467 60.8294 58.9847 60.8214 59.0222 60.8106L59.0561 60.8034C59.0873 60.7967 59.1134 60.7926 59.1381 60.7888C59.1829 60.7792 59.2277 60.7697 59.2733 60.7572L59.2895 60.7537C59.3153 60.7483 59.3384 60.7433 59.3615 60.7384C59.4022 60.7298 59.4456 60.7206 59.4871 60.7089L59.5034 60.7054C59.5471 60.6976 59.5762 60.6942 59.6003 60.6877C59.6397 60.6793 59.6804 60.6707 59.7219 60.659L59.7558 60.6518C59.783 60.646 59.8053 60.6441 59.827 60.6395C59.8609 60.6323 59.8976 60.6245 59.9326 60.6156L59.9489 60.6122C59.9915 60.6059 60.0257 60.6001 60.0539 60.5927C60.0974 60.5834 60.1395 60.5745 60.185 60.562L60.2176 60.5551C60.2488 60.5484 60.2738 60.5459 60.2942 60.5416C60.3349 60.533 60.3742 60.5246 60.4157 60.5129L60.4551 60.5046C60.4836 60.4985 60.5059 60.4966 60.5233 60.4915C60.5694 60.4817 60.6183 60.4713 60.6638 60.4588L60.6801 60.4553C60.7075 60.4509 60.7336 60.4468 60.751 60.4417C60.7863 60.4342 60.8243 60.4261 60.8606 60.417L61.0074 60.3801L61.0094 60.3896L63.7462 59.8107C65.6313 59.41 66.839 57.5504 66.4383 55.6652L66.1412 54.2672C66.0702 53.9334 65.7408 53.7183 65.4055 53.7895L43.4267 58.4613Z" stroke="white" stroke-width="6" mask="url(#path-4-outside-1_1952_7636)"/>
<path d="M66.5978 60.6402L64.676 61.0487C62.7908 61.4494 61.5831 63.3091 61.9838 65.1942L64.146 75.3666C64.5467 77.2518 66.4064 78.4594 68.2916 78.0587L70.2134 77.6502C70.5472 77.5793 70.7624 77.2498 70.6911 76.9146L67.3334 61.1179C67.2624 60.7841 66.933 60.569 66.5978 60.6402Z" stroke="white" stroke-width="6" mask="url(#path-4-outside-1_1952_7636)"/>
</g>
<g filter="url(#filter6_dd_1952_7636)">
<path d="M204 83.7108L209.851 84.9384L213.534 67.3853L207.683 66.1577L204 83.7108ZM239.557 74.3723C239.896 72.7559 238.861 71.1721 237.245 70.8329L228.008 68.8949L230.807 62.5031C230.867 62.363 230.921 62.214 230.955 62.0531C231.082 61.4461 230.949 60.8453 230.637 60.3675L229.403 58.4975L217.749 66.1088C217.111 66.5322 216.628 67.1946 216.459 67.9991L213.39 82.6267C213.051 84.2431 214.086 85.8269 215.702 86.166L228.867 88.9282C230.081 89.1829 231.275 88.6621 231.933 87.7083L238.507 78.3211C238.709 78.0123 238.865 77.6708 238.943 77.2978L239.531 74.4966L239.519 74.4789L239.557 74.3723Z" fill="#07DC10"/>
<path d="M202.767 83.4522L202.509 84.685L203.741 84.9437L209.592 86.1713L210.825 86.4299L211.084 85.1971L214.767 67.6439L215.025 66.4111L213.793 66.1525L207.942 64.9249L206.709 64.6662L206.45 65.899L202.767 83.4522ZM240.855 74.2209C241.093 72.0715 239.664 70.0534 237.504 69.6001L229.783 67.9803L231.961 63.0085L231.961 63.0085L231.965 62.9985C232.043 62.8159 232.131 62.5833 232.188 62.3118C232.387 61.3615 232.177 60.422 231.691 59.6787L231.688 59.6737L230.454 57.8037L229.763 56.7572L228.714 57.4428L217.061 65.0542L217.061 65.0542L217.053 65.059C216.155 65.6542 215.467 66.5928 215.227 67.7404L212.158 82.3681C211.676 84.6653 213.146 86.9169 215.443 87.3989L228.608 90.161C230.333 90.5228 232.029 89.7833 232.967 88.4277C232.968 88.4264 232.969 88.4251 232.97 88.4238L239.539 79.0437L239.55 79.0276L239.561 79.0112C239.833 78.5946 240.06 78.1086 240.176 77.5565L240.763 74.7553L240.772 74.7128L240.79 74.6309L240.871 74.2446L240.855 74.2209Z" stroke="white" stroke-width="2.51932"/>
</g>
<g filter="url(#filter7_dd_1952_7636)">
<g clip-path="url(#clip3_1952_7636)">
<path d="M283.721 51.8212C287.244 50.6109 291.082 52.486 292.292 56.0092C293.503 59.5324 291.628 63.3703 288.104 64.5806C284.581 65.791 280.743 63.9159 279.533 60.3927C278.323 56.8695 280.198 53.0316 283.721 51.8212ZM279.776 40.3378C277.369 41.1646 275.192 42.4421 273.303 44.1362C271.482 45.7672 270.015 47.7102 268.941 49.9087C267.867 52.1073 267.236 54.4586 267.068 56.8969C266.892 59.4269 267.223 61.931 268.049 64.3378C268.876 66.7445 270.154 68.9215 271.848 70.811C273.479 72.6312 275.422 74.0982 277.62 75.1724C279.819 76.2466 282.17 76.8778 284.609 77.0459C287.139 77.2216 289.643 76.8909 292.049 76.0641C294.456 75.2373 296.633 73.9598 298.523 72.2657C300.343 70.6347 301.81 68.6917 302.884 66.4931C303.958 64.2946 304.589 61.9433 304.758 59.505C304.933 56.9749 304.603 54.4708 303.776 52.0641C302.949 49.6574 301.671 47.4803 299.977 45.5909C298.346 43.7707 296.403 42.3037 294.205 41.2295C292.006 40.1553 289.655 39.5241 287.217 39.356C284.687 39.1803 282.183 39.5109 279.776 40.3378Z" fill="#B7F7B0"/>
<path d="M283.721 51.8211C287.244 50.6108 291.082 52.4859 292.293 56.0091C293.503 59.5323 291.628 63.3702 288.105 64.5806C284.581 65.7909 280.743 63.9158 279.533 60.3926C278.323 56.8694 280.198 53.0315 283.721 51.8211ZM281.091 44.1655C273.352 46.8241 269.219 55.2841 271.877 63.0226C274.536 70.7612 282.996 74.8948 290.735 72.2362C298.473 69.5776 302.607 61.1176 299.948 53.3791C297.29 45.6405 288.83 41.5069 281.091 44.1655Z" fill="#07DC10"/>
<path d="M283.721 51.8211C287.244 50.6107 291.082 52.4858 292.293 56.009C293.503 59.5322 291.628 63.3701 288.105 64.5805C284.581 65.7908 280.744 63.9157 279.533 60.3925C278.323 56.8693 280.198 53.0314 283.721 51.8211ZM282.406 47.9932C276.778 49.9269 273.772 56.079 275.705 61.7075C277.639 67.336 283.791 70.3419 289.42 68.4083C295.048 66.4746 298.054 60.3225 296.12 54.694C294.187 49.0655 288.035 46.0596 282.406 47.9932Z" fill="#0C9B00"/>
<path d="M283.721 51.8215C287.244 50.6111 291.082 52.4862 292.292 56.0094C293.502 59.5326 291.627 63.3705 288.104 64.5809C284.581 65.7912 280.743 63.9161 279.533 60.3929C278.322 56.8697 280.197 53.0318 283.721 51.8215Z" fill="#EAEAEA"/>
</g>
<rect x="260" y="45.7518" width="40.9238" height="40.9238" rx="20.4619" transform="rotate(-18.96 260 45.7518)" stroke="white" stroke-width="3.14799" shape-rendering="crispEdges"/>
</g>
<path d="M106.408 68.0504L108.134 62.6948C107.515 62.7382 106.888 62.7598 106.253 62.7598C99.9555 62.7598 94.4655 60.5534 90.3754 56.3787C86.2995 52.2185 84.1461 46.6265 84.1461 40.2075C84.1461 33.7884 86.3639 28.1693 90.3933 24.0488C94.4458 19.9049 100.1 17.6226 106.317 17.6226C111.267 17.6226 115.833 19.0472 119.527 21.7412C120.474 22.431 121.362 23.2074 122.18 24.0524H123.825V18.036H150.169L150.19 24.4768C150.894 24.7133 151.579 24.9932 152.244 25.3182C154.8 24.0994 157.606 23.4818 160.606 23.4818C160.716 23.4818 160.823 23.4818 160.932 23.4837H161.007C161.149 23.4837 161.29 23.4873 161.43 23.4909H178.007L190.987 23.4548V51.7689L185.774 50.9167V62.8537H161.083C161.015 62.8555 160.952 62.8573 160.887 62.8573C160.785 62.8573 160.667 62.8591 160.551 62.8591C157.571 62.8591 154.662 62.2037 152.068 60.956C149.664 62.1116 147.04 62.7635 144.718 62.7635H135.679L133.851 68.0522H106.412L106.408 68.0504Z" fill="#07DC10"/>
<path d="M106.317 19.7891C110.812 19.7891 114.943 21.0711 118.267 23.4961C119.356 24.2905 120.353 25.2024 121.242 26.219H125.972V20.2026H148.026L148.041 24.5217L148.046 26.1233C149.523 26.4573 150.932 27.008 152.229 27.7592C154.717 26.3706 157.558 25.6484 160.607 25.6484C160.71 25.6484 160.814 25.6484 160.918 25.6502C160.948 25.6502 160.977 25.6502 161.008 25.6502C161.129 25.6502 161.251 25.6538 161.371 25.6556H161.408H178.007L184.53 25.6375L188.839 25.6249V49.2192L183.855 48.403L183.626 48.3651V55.9451V55.9578V60.6831H161.045C160.986 60.6849 160.927 60.6867 160.868 60.6867C160.762 60.6867 160.655 60.6885 160.551 60.6885C157.503 60.6885 154.587 59.9302 152.07 58.5146C149.773 59.7984 147.078 60.591 144.718 60.591H134.154L133.33 62.9727L132.326 65.8797H109.369L111.199 60.2064L111.245 60.062C109.668 60.4141 108.003 60.591 106.258 60.591C100.548 60.591 95.5862 58.6066 91.9077 54.8527C88.2382 51.1078 86.2996 46.0412 86.2996 40.2036C86.2996 34.366 88.299 29.2795 91.9274 25.5671C95.5719 21.8385 100.684 19.7855 106.321 19.7855M106.317 15.4556C99.5224 15.4556 93.3236 17.9672 88.8647 22.5282C84.438 27.0568 82 33.335 82 40.2072C82 47.0795 84.3682 53.3288 88.8486 57.9025C93.1124 62.254 98.7348 64.6628 105.163 64.9083L103.451 70.2187H135.375L136.379 67.3116L137.202 64.93H144.715C147.049 64.93 149.636 64.3594 152.065 63.3284C154.705 64.4443 157.598 65.0257 160.547 65.0257C160.671 65.0257 160.795 65.0257 160.92 65.0221C160.982 65.0221 161.043 65.0203 161.106 65.0185H187.92V55.9253V55.9181V55.826V53.4606L188.149 53.4985L193.133 54.3147V21.2805L188.824 21.2932L184.516 21.3058L178.002 21.3239H161.462C161.328 21.3203 161.174 21.3167 161.004 21.3167H160.943C160.83 21.3167 160.718 21.3149 160.605 21.3149C157.671 21.3149 154.898 21.8511 152.331 22.911L152.322 20.1899L152.308 15.8709H121.676V20.672C121.384 20.4355 121.087 20.208 120.784 19.9859C116.724 17.0211 111.721 15.4556 106.317 15.4556Z" fill="#B7F7B0"/>
<path d="M112.323 63.3556L114.614 56.2504C112.149 57.4566 109.35 58.0669 106.255 58.0669C101.132 58.0669 96.6977 56.3046 93.4327 52.9732C90.1695 49.6418 88.444 45.1024 88.444 39.848C88.444 34.5936 90.2232 30.0362 93.4542 26.7337C96.6923 23.4222 101.26 21.5967 106.319 21.5967C110.357 21.5967 114.055 22.736 117.011 24.892C118.224 25.7785 119.307 26.8294 120.242 28.0247H128.123V22.0084H145.889L145.907 27.6076C148.232 27.8189 150.371 28.6152 152.211 29.9495C154.619 28.31 157.486 27.4524 160.608 27.4524C160.709 27.4524 160.809 27.4524 160.909 27.4542H161.007C161.109 27.4542 161.21 27.456 161.312 27.4596H161.382L178.013 27.4614L186.692 27.4379V46.314L181.473 45.46C181.473 45.5701 181.48 45.9276 181.48 45.9276V55.9922V58.159H160.984C160.936 58.1608 160.888 58.1626 160.839 58.1626C160.743 58.1626 160.646 58.1644 160.551 58.1644C157.386 58.1644 154.49 57.2905 152.073 55.6221C149.723 57.2327 146.78 58.0669 144.718 58.0669H132.627C132.516 58.3883 132.41 58.6971 132.306 58.995L130.799 63.3556H112.325H112.323Z" fill="#0C9B00"/>
<path d="M106.317 24.1226C109.901 24.1226 113.164 25.1193 115.751 27.008C117.079 27.9776 118.221 29.1711 119.152 30.5525H130.271V24.5361H143.748L143.763 28.8552C143.763 29.2289 143.764 29.6496 143.764 30.101C143.992 30.0866 144.223 30.0794 144.453 30.0794C144.514 30.0794 144.575 30.0794 144.634 30.0794C147.547 30.0794 150.16 31.1357 152.161 33.0876C154.413 31.0743 157.354 29.9819 160.608 29.9819C160.703 29.9819 160.798 29.9819 160.895 29.9837C160.932 29.9837 160.972 29.9837 161.009 29.9837C161.126 29.9837 161.24 29.9873 161.357 29.9909H178.014L184.546 29.9728V44.129L179.563 43.3129C179.514 43.3057 179.468 43.2984 179.423 43.2912C179.357 43.8455 179.305 44.7484 179.334 46.2073V46.2488V46.2904V55.9758V56.355H161.008C160.945 56.355 160.882 56.3586 160.82 56.3586C160.73 56.3586 160.642 56.3604 160.555 56.3604C157.272 56.3604 154.311 55.2572 152.063 53.2258C150.092 55.1416 146.87 56.2647 144.722 56.2647H131.1C130.808 57.117 130.533 57.9205 130.282 58.6463L129.278 61.5534H115.287L117.116 55.8801L117.933 53.3468L117.951 53.2926L117.97 53.2385C118.151 52.722 118.343 52.1117 118.527 51.5231C118.539 51.4816 118.552 51.4401 118.566 51.4003C118.507 51.245 118.448 51.0879 118.389 50.9309C117.582 51.9258 116.651 52.7979 115.609 53.5292C113.023 55.3456 109.878 56.2665 106.262 56.2665C101.726 56.2665 97.8201 54.7281 94.9668 51.8156C92.1082 48.8977 90.5974 44.8874 90.5974 40.2126C90.5974 30.742 97.0647 24.128 106.323 24.128M106.317 19.7891C100.681 19.7891 95.5683 21.8421 91.9238 25.5707C88.2955 29.2831 86.296 34.4815 86.296 40.2072C86.296 45.9329 88.2364 51.1096 91.9041 54.8563C95.5826 58.6102 100.545 60.5946 106.255 60.5946C108 60.5946 109.665 60.4177 111.242 60.0656L111.195 60.21L109.366 65.8833H132.323L133.327 62.9763L134.15 60.5946H144.715C147.074 60.5946 149.772 59.8019 152.066 58.5181C154.583 59.9338 157.499 60.6921 160.547 60.6921C160.653 60.6921 160.759 60.6921 160.864 60.6903C160.923 60.6903 160.982 60.6885 161.042 60.6867H161.047H179.326H183.623V55.9505V55.8368V48.3687L183.852 48.4066L188.835 49.2227V25.6267L184.526 25.6393L178.004 25.6574H161.367C161.247 25.6538 161.126 25.6502 161.004 25.6502C160.974 25.6502 160.945 25.6502 160.914 25.6502C160.811 25.6502 160.707 25.6483 160.603 25.6483C157.555 25.6483 154.714 26.3706 152.226 27.7591C150.928 27.008 149.521 26.4573 148.042 26.1232L148.037 24.5216L148.023 20.2026H125.968V26.2189H121.239C120.347 25.2024 119.352 24.2905 118.264 23.496C114.94 21.0711 110.807 19.7891 106.314 19.7891H106.317Z" fill="#07DC10"/>
<path d="M180.245 34.355V38.8528C179.702 38.7643 179.212 38.7192 178.77 38.7192C175.593 38.7192 174.937 41.0521 175.032 46.106V51.3316H170.135C170.12 49.1233 170.169 36.6535 170.104 34.7035H174.656C174.658 36.1371 174.61 36.3701 174.592 37.3325H174.655C175.503 35.2108 177.105 34.2918 179.241 34.2918C179.711 34.2918 180.026 34.3243 180.245 34.355ZM169.283 44.1776H157.035C157.256 46.6802 158.763 48.1374 160.929 48.1374C162.436 48.1374 163.472 47.5668 164.07 46.3949H169.063C168.057 49.6577 165.2 51.8426 160.773 51.8426C160.698 51.8444 160.623 51.8444 160.549 51.8444C149.244 51.8444 149.389 34.1347 160.605 34.1347C160.692 34.1347 160.778 34.1347 160.866 34.1347H161.006C166.725 34.1347 169.66 38.5964 169.283 44.1758V44.1776ZM164.383 41.1026C164.133 38.9178 162.876 37.6503 160.836 37.6503C158.795 37.6503 157.444 38.9178 157.163 41.1026H164.383ZM144.457 51.7505C144.394 51.7505 144.332 51.7487 144.269 51.7487C141.473 51.7487 139.871 50.259 139.15 49.1178C139.18 49.6559 139.18 50.6707 139.18 51.337H134.565V28.6889H139.463C139.47 30.7618 139.459 34.4091 139.432 36.4495C140.218 35.4997 141.819 34.2322 144.487 34.2322H144.631C154.198 34.2304 154.028 51.7505 144.457 51.7505ZM142.936 37.9969C142.898 37.9969 142.862 37.9969 142.823 37.9987C140.594 37.9987 139.15 39.9001 139.15 42.8451C139.15 45.7901 140.467 47.9135 142.823 47.9135H142.93C147.735 47.9135 147.761 37.9969 142.936 37.9969ZM128.016 37.7351C127.153 40.7126 126.219 43.9321 125.78 45.9165H125.623C124.574 42.2275 123.417 38.7228 122.198 34.7035H116.988C118.871 40.1186 121.101 45.6944 123.111 51.1113C122.778 52.0646 122.401 53.3918 122.012 54.5004L121.194 57.0338H126.219C128.336 50.9126 132.133 39.5714 133.944 34.7035H128.888C128.623 35.6388 128.324 36.6716 128.016 37.7351ZM106.138 32.6125C106.187 32.6125 106.237 32.6125 106.285 32.6143C108.796 32.6143 110.493 33.8819 111.467 36.0667L117.088 36.036C115.674 31.1879 111.811 28.2754 106.317 28.2754C99.5349 28.2754 94.8881 32.8346 94.8881 40.0265C94.8881 47.2183 99.4401 51.745 106.255 51.745C111.75 51.745 115.55 49.0221 117.025 44.239H111.277C110.273 46.1385 108.671 47.2797 106.285 47.2797C106.217 47.2797 106.147 47.2833 106.079 47.2833C98.1512 47.2833 98.3517 32.6125 106.138 32.6125Z" fill="#EAEAEA"/>
</g>
<defs>
<filter id="filter0_f_1952_7636" x="35.67" y="4.79736" width="247.33" height="97.6582" filterUnits="userSpaceOnUse" color-interpolation-filters="sRGB">
<feFlood flood-opacity="0" result="BackgroundImageFix"/>
<feBlend mode="normal" in="SourceGraphic" in2="BackgroundImageFix" result="shape"/>
<feGaussianBlur stdDeviation="18" result="effect1_foregroundBlur_1952_7636"/>
</filter>
<filter id="filter1_dd_1952_7636" x="4" y="-0.544434" width="64.6021" height="64.6021" filterUnits="userSpaceOnUse" color-interpolation-filters="sRGB">
<feFlood flood-opacity="0" result="BackgroundImageFix"/>
<feColorMatrix in="SourceAlpha" type="matrix" values="0 0 0 0 0 0 0 0 0 0 0 0 0 0 0 0 0 0 127 0" result="hardAlpha"/>
<feOffset dy="2"/>
<feGaussianBlur stdDeviation="1"/>
<feComposite in2="hardAlpha" operator="out"/>
<feColorMatrix type="matrix" values="0 0 0 0 0 0 0 0 0 0 0 0 0 0 0 0 0 0 0.03 0"/>
<feBlend mode="normal" in2="BackgroundImageFix" result="effect1_dropShadow_1952_7636"/>
<feColorMatrix in="SourceAlpha" type="matrix" values="0 0 0 0 0 0 0 0 0 0 0 0 0 0 0 0 0 0 127 0" result="hardAlpha"/>
<feOffset dy="4"/>
<feGaussianBlur stdDeviation="6"/>
<feComposite in2="hardAlpha" operator="out"/>
<feColorMatrix type="matrix" values="0 0 0 0 0 0 0 0 0 0 0 0 0 0 0 0 0 0 0.02 0"/>
<feBlend mode="normal" in2="effect1_dropShadow_1952_7636" result="effect2_dropShadow_1952_7636"/>
<feBlend mode="normal" in="SourceGraphic" in2="effect2_dropShadow_1952_7636" result="shape"/>
</filter>
<filter id="filter2_dd_1952_7636" x="9.48645" y="4.94189" width="53.6292" height="53.6289" filterUnits="userSpaceOnUse" color-interpolation-filters="sRGB">
<feFlood flood-opacity="0" result="BackgroundImageFix"/>
<feColorMatrix in="SourceAlpha" type="matrix" values="0 0 0 0 0 0 0 0 0 0 0 0 0 0 0 0 0 0 127 0" result="hardAlpha"/>
<feOffset dy="2"/>
<feGaussianBlur stdDeviation="1"/>
<feComposite in2="hardAlpha" operator="out"/>
<feColorMatrix type="matrix" values="0 0 0 0 0 0 0 0 0 0 0 0 0 0 0 0 0 0 0.03 0"/>
<feBlend mode="normal" in2="BackgroundImageFix" result="effect1_dropShadow_1952_7636"/>
<feColorMatrix in="SourceAlpha" type="matrix" values="0 0 0 0 0 0 0 0 0 0 0 0 0 0 0 0 0 0 127 0" result="hardAlpha"/>
<feOffset dy="4"/>
<feGaussianBlur stdDeviation="6"/>
<feComposite in2="hardAlpha" operator="out"/>
<feColorMatrix type="matrix" values="0 0 0 0 0 0 0 0 0 0 0 0 0 0 0 0 0 0 0.02 0"/>
<feBlend mode="normal" in2="effect1_dropShadow_1952_7636" result="effect2_dropShadow_1952_7636"/>
<feBlend mode="normal" in="SourceGraphic" in2="effect2_dropShadow_1952_7636" result="shape"/>
</filter>
<filter id="filter3_dd_1952_7636" x="215" y="-7.54443" width="68.4666" height="68.4663" filterUnits="userSpaceOnUse" color-interpolation-filters="sRGB">
<feFlood flood-opacity="0" result="BackgroundImageFix"/>
<feColorMatrix in="SourceAlpha" type="matrix" values="0 0 0 0 0 0 0 0 0 0 0 0 0 0 0 0 0 0 127 0" result="hardAlpha"/>
<feOffset dy="2"/>
<feGaussianBlur stdDeviation="1"/>
<feComposite in2="hardAlpha" operator="out"/>
<feColorMatrix type="matrix" values="0 0 0 0 0 0 0 0 0 0 0 0 0 0 0 0 0 0 0.03 0"/>
<feBlend mode="normal" in2="BackgroundImageFix" result="effect1_dropShadow_1952_7636"/>
<feColorMatrix in="SourceAlpha" type="matrix" values="0 0 0 0 0 0 0 0 0 0 0 0 0 0 0 0 0 0 127 0" result="hardAlpha"/>
<feOffset dy="4"/>
<feGaussianBlur stdDeviation="6"/>
<feComposite in2="hardAlpha" operator="out"/>
<feColorMatrix type="matrix" values="0 0 0 0 0 0 0 0 0 0 0 0 0 0 0 0 0 0 0.02 0"/>
<feBlend mode="normal" in2="effect1_dropShadow_1952_7636" result="effect2_dropShadow_1952_7636"/>
<feBlend mode="normal" in="SourceGraphic" in2="effect2_dropShadow_1952_7636" result="shape"/>
</filter>
<filter id="filter4_dd_1952_7636" x="223.594" y="1.04883" width="51.2795" height="51.2798" filterUnits="userSpaceOnUse" color-interpolation-filters="sRGB">
<feFlood flood-opacity="0" result="BackgroundImageFix"/>
<feColorMatrix in="SourceAlpha" type="matrix" values="0 0 0 0 0 0 0 0 0 0 0 0 0 0 0 0 0 0 127 0" result="hardAlpha"/>
<feOffset dy="2"/>
<feGaussianBlur stdDeviation="1"/>
<feComposite in2="hardAlpha" operator="out"/>
<feColorMatrix type="matrix" values="0 0 0 0 0 0 0 0 0 0 0 0 0 0 0 0 0 0 0.03 0"/>
<feBlend mode="normal" in2="BackgroundImageFix" result="effect1_dropShadow_1952_7636"/>
<feColorMatrix in="SourceAlpha" type="matrix" values="0 0 0 0 0 0 0 0 0 0 0 0 0 0 0 0 0 0 127 0" result="hardAlpha"/>
<feOffset dy="4"/>
<feGaussianBlur stdDeviation="6"/>
<feComposite in2="hardAlpha" operator="out"/>
<feColorMatrix type="matrix" values="0 0 0 0 0 0 0 0 0 0 0 0 0 0 0 0 0 0 0.02 0"/>
<feBlend mode="normal" in2="effect1_dropShadow_1952_7636" result="effect2_dropShadow_1952_7636"/>
<feBlend mode="normal" in="SourceGraphic" in2="effect2_dropShadow_1952_7636" result="shape"/>
</filter>
<filter id="filter5_d_1952_7636" x="31.9347" y="44.7754" width="49.7708" height="50.4443" filterUnits="userSpaceOnUse" color-interpolation-filters="sRGB">
<feFlood flood-opacity="0" result="BackgroundImageFix"/>
<feColorMatrix in="SourceAlpha" type="matrix" values="0 0 0 0 0 0 0 0 0 0 0 0 0 0 0 0 0 0 127 0" result="hardAlpha"/>
<feOffset dy="2"/>
<feGaussianBlur stdDeviation="4"/>
<feComposite in2="hardAlpha" operator="out"/>
<feColorMatrix type="matrix" values="0 0 0 0 0 0 0 0 0 0 0 0 0 0 0 0 0 0 0.1 0"/>
<feBlend mode="normal" in2="BackgroundImageFix" result="effect1_dropShadow_1952_7636"/>
<feBlend mode="normal" in="SourceGraphic" in2="effect1_dropShadow_1952_7636" result="shape"/>
</filter>
<filter id="filter6_dd_1952_7636" x="193.459" y="49.9784" width="56.3094" height="51.611" filterUnits="userSpaceOnUse" color-interpolation-filters="sRGB">
<feFlood flood-opacity="0" result="BackgroundImageFix"/>
<feColorMatrix in="SourceAlpha" type="matrix" values="0 0 0 0 0 0 0 0 0 0 0 0 0 0 0 0 0 0 127 0" result="hardAlpha"/>
<feOffset dy="1.25966"/>
<feGaussianBlur stdDeviation="0.62983"/>
<feComposite in2="hardAlpha" operator="out"/>
<feColorMatrix type="matrix" values="0 0 0 0 0 0 0 0 0 0 0 0 0 0 0 0 0 0 0.03 0"/>
<feBlend mode="normal" in2="BackgroundImageFix" result="effect1_dropShadow_1952_7636"/>
<feColorMatrix in="SourceAlpha" type="matrix" values="0 0 0 0 0 0 0 0 0 0 0 0 0 0 0 0 0 0 127 0" result="hardAlpha"/>
<feOffset dy="2.51932"/>
<feGaussianBlur stdDeviation="3.77898"/>
<feComposite in2="hardAlpha" operator="out"/>
<feColorMatrix type="matrix" values="0 0 0 0 0 0 0 0 0 0 0 0 0 0 0 0 0 0 0.02 0"/>
<feBlend mode="normal" in2="effect1_dropShadow_1952_7636" result="effect2_dropShadow_1952_7636"/>
<feBlend mode="normal" in="SourceGraphic" in2="effect2_dropShadow_1952_7636" result="shape"/>
</filter>
<filter id="filter7_dd_1952_7636" x="250" y="26.4556" width="72" height="72" filterUnits="userSpaceOnUse" color-interpolation-filters="sRGB">
<feFlood flood-opacity="0" result="BackgroundImageFix"/>
<feColorMatrix in="SourceAlpha" type="matrix" values="0 0 0 0 0 0 0 0 0 0 0 0 0 0 0 0 0 0 127 0" result="hardAlpha"/>
<feOffset dy="2"/>
<feGaussianBlur stdDeviation="1"/>
<feComposite in2="hardAlpha" operator="out"/>
<feColorMatrix type="matrix" values="0 0 0 0 0 0 0 0 0 0 0 0 0 0 0 0 0 0 0.03 0"/>
<feBlend mode="normal" in2="BackgroundImageFix" result="effect1_dropShadow_1952_7636"/>
<feColorMatrix in="SourceAlpha" type="matrix" values="0 0 0 0 0 0 0 0 0 0 0 0 0 0 0 0 0 0 127 0" result="hardAlpha"/>
<feOffset dy="4"/>
<feGaussianBlur stdDeviation="6"/>
<feComposite in2="hardAlpha" operator="out"/>
<feColorMatrix type="matrix" values="0 0 0 0 0 0 0 0 0 0 0 0 0 0 0 0 0 0 0.02 0"/>
<feBlend mode="normal" in2="effect1_dropShadow_1952_7636" result="effect2_dropShadow_1952_7636"/>
<feBlend mode="normal" in="SourceGraphic" in2="effect2_dropShadow_1952_7636" result="shape"/>
</filter>
<clipPath id="clip0_1952_7636">
<rect width="320" height="100" fill="white" transform="translate(0 0.455566)"/>
</clipPath>
<clipPath id="clip1_1952_7636">
<rect width="32.67" height="32.67" fill="white" transform="translate(25.2767 7.45557) rotate(16.4962)"/>
</clipPath>
<clipPath id="clip2_1952_7636">
<rect width="32.67" height="32.67" fill="white" transform="translate(227 16.416) rotate(-29.2445)"/>
</clipPath>
<clipPath id="clip3_1952_7636">
<rect x="262" y="46.729" width="37.7758" height="37.7758" rx="18.8879" transform="rotate(-18.96 262 46.729)" fill="white"/>
</clipPath>
</defs>
</svg>
