<svg width="48" height="49" viewBox="0 0 48 49" fill="none" xmlns="http://www.w3.org/2000/svg">
<path d="M24 15.4389C28.7336 15.4389 32.5714 19.2794 32.5714 24.0161C32.5714 28.7529 28.7336 32.5933 24 32.5933C19.2664 32.5933 15.4286 28.7529 15.4286 24.0161C15.4286 19.2794 19.2664 15.4389 24 15.4389ZM24 0C20.7664 0 17.6229 0.636856 14.6529 1.89341C11.7921 3.1028 9.22714 4.83325 7.02857 7.0333C4.83 9.23335 3.10071 11.8001 1.89214 14.6627C0.636429 17.6326 0 20.7804 0 24.0161C0 27.2519 0.636429 30.3976 1.89214 33.3696C3.10071 36.2322 4.83 38.7989 7.02857 40.999C9.22714 43.199 11.7921 44.9295 14.6529 46.1388C17.6207 47.3954 20.7664 48.0323 24 48.0323C27.2336 48.0323 30.3771 47.3954 33.3471 46.1388C36.2079 44.9295 38.7729 43.199 40.9714 40.999C43.17 38.7989 44.8993 36.2322 46.1079 33.3696C47.3636 30.3997 48 27.2519 48 24.0161C48 20.7804 47.3636 17.6347 46.1079 14.6627C44.8993 11.8001 43.17 9.23335 40.9714 7.0333C38.7729 4.83325 36.2079 3.1028 33.3471 1.89341C30.3793 0.636856 27.2336 0 24 0Z" fill="#B7F7B0"/>
<path d="M24 15.4389C28.7336 15.4389 32.5715 19.2794 32.5715 24.0161C32.5715 28.7529 28.7336 32.5933 24 32.5933C19.2665 32.5933 15.4286 28.7529 15.4286 24.0161C15.4286 19.2794 19.2665 15.4389 24 15.4389ZM24 5.1463C13.6029 5.1463 5.14288 13.612 5.14288 24.0161C5.14288 34.4203 13.6029 42.8859 24 42.8859C34.3972 42.8859 42.8572 34.4203 42.8572 24.0161C42.8572 13.612 34.3972 5.1463 24 5.1463Z" fill="#07DC10"/>
<path d="M24.0001 15.4389C28.7336 15.4389 32.5715 19.2794 32.5715 24.0161C32.5715 28.7529 28.7336 32.5933 24.0001 32.5933C19.2665 32.5933 15.4286 28.7529 15.4286 24.0161C15.4286 19.2794 19.2665 15.4389 24.0001 15.4389ZM24.0001 10.2926C16.4379 10.2926 10.2858 16.4489 10.2858 24.0161C10.2858 31.5833 16.4379 37.7396 24.0001 37.7396C31.5622 37.7396 37.7143 31.5833 37.7143 24.0161C37.7143 16.4489 31.5622 10.2926 24.0001 10.2926Z" fill="#0C9B00"/>
<path d="M23.9998 15.439C28.7334 15.439 32.5713 19.2794 32.5713 24.0162C32.5713 28.7529 28.7334 32.5933 23.9998 32.5933C19.2663 32.5933 15.4284 28.7529 15.4284 24.0162C15.4284 19.2794 19.2663 15.439 23.9998 15.439Z" fill="#EAEAEA"/>
</svg>
