
<svg width="457" height="156" viewBox="0 0 457 156" fill="none" xmlns="http://www.w3.org/2000/svg">
    <g clip-path="url(#clip0_1944_5806)">
        <mask id="mask0_1944_5806" style="mask-type:alpha" maskUnits="userSpaceOnUse" x="0" y="0" width="457" height="156">
            <rect y="0.455566" width="457" height="155" fill="#313131"/>
        </mask>
        <g mask="url(#mask0_1944_5806)">
            <rect x="94.7547" y="-94.7551" width="992.436" height="257.438" rx="126.34" transform="matrix(-3.43675e-08 1 -1 4.02422e-06 636.633 -340.458)" fill="black" stroke="#B7F7B0" stroke-width="189.509"/>
            <rect x="88.4377" y="-88.4381" width="979.802" height="244.804" rx="120.023" transform="matrix(-3.43675e-08 1 -1 4.02422e-06 636.633 -327.824)" fill="black" stroke="#07DC10" stroke-width="176.875"/>
            <rect x="82.1208" y="-82.1211" width="967.168" height="232.17" rx="113.706" transform="matrix(-3.43675e-08 1 -1 4.02422e-06 636.633 -315.19)" fill="black" stroke="#0C9B00" stroke-width="164.242"/>
            <rect x="75.8038" y="-75.8041" width="954.534" height="219.536" rx="107.389" transform="matrix(-3.43675e-08 1 -1 4.02422e-06 636.633 -302.556)" fill="black" stroke="#B7F7B0" stroke-width="151.608"/>
            <rect x="69.4868" y="-69.4871" width="941.9" height="206.902" rx="101.072" transform="matrix(-3.43675e-08 1 -1 4.02422e-06 636.633 -289.922)" fill="black" stroke="#07DC10" stroke-width="138.974"/>
            <rect x="63.1698" y="-63.1701" width="929.266" height="194.268" rx="94.7547" transform="matrix(-3.43675e-08 1 -1 4.02422e-06 636.633 -277.288)" fill="black" stroke="#0C9B00" stroke-width="126.34"/>
            <rect x="56.8528" y="-56.8531" width="916.632" height="181.634" rx="88.4377" transform="matrix(-3.43675e-08 1 -1 4.02422e-06 636.633 -264.654)" fill="black" stroke="#B7F7B0" stroke-width="113.706"/>
            <rect x="94.7547" y="-94.7551" width="992.436" height="257.438" rx="126.34" transform="matrix(-3.43675e-08 1 -1 4.02422e-06 199.156 -340.458)" fill="black" stroke="#B7F7B0" stroke-width="189.509"/>
            <rect x="88.4377" y="-88.4381" width="979.802" height="244.804" rx="120.023" transform="matrix(-3.43675e-08 1 -1 4.02422e-06 199.156 -327.824)" fill="black" stroke="#07DC10" stroke-width="176.875"/>
            <rect x="82.1208" y="-82.1211" width="967.168" height="232.17" rx="113.706" transform="matrix(-3.43675e-08 1 -1 4.02422e-06 199.156 -315.19)" fill="black" stroke="#0C9B00" stroke-width="164.242"/>
            <rect x="75.8038" y="-75.8041" width="954.534" height="219.536" rx="107.389" transform="matrix(-3.43675e-08 1 -1 4.02422e-06 199.156 -302.556)" fill="black" stroke="#B7F7B0" stroke-width="151.608"/>
            <rect x="69.4868" y="-69.4871" width="941.9" height="206.902" rx="101.072" transform="matrix(-3.43675e-08 1 -1 4.02422e-06 199.156 -289.922)" fill="black" stroke="#07DC10" stroke-width="138.974"/>
            <rect x="63.1698" y="-63.1701" width="929.266" height="194.268" rx="94.7547" transform="matrix(-3.43675e-08 1 -1 4.02422e-06 199.156 -277.288)" fill="black" stroke="#0C9B00" stroke-width="126.34"/>
            <rect x="56.8528" y="-56.8531" width="916.632" height="181.634" rx="88.4377" transform="matrix(-3.43675e-08 1 -1 4.02422e-06 199.156 -264.654)" fill="black" stroke="#B7F7B0" stroke-width="113.706"/>
            <rect x="50.5359" y="-50.5361" width="903.998" height="169" rx="82.1208" transform="matrix(-3.43675e-08 1 -1 4.02422e-06 199.156 -252.02)" fill="black" stroke="#07DC10" stroke-width="101.072"/>
            <rect x="44.2189" y="-44.219" width="891.364" height="156.366" rx="75.8038" transform="matrix(-3.43675e-08 1 -1 4.02422e-06 199.156 -239.385)" fill="black" stroke="#0C9B00" stroke-width="88.4377"/>
            <rect x="37.9019" y="-37.902" width="878.73" height="143.732" rx="69.4868" transform="matrix(-3.43675e-08 1 -1 4.02422e-06 199.156 -226.752)" fill="black" stroke="#B7F7B0" stroke-width="75.8038"/>
            <rect x="31.5849" y="-31.585" width="866.096" height="131.098" rx="63.1698" transform="matrix(-3.43675e-08 1 -1 4.02422e-06 199.156 -214.118)" fill="black" stroke="#07DC10" stroke-width="63.1698"/>
            <rect x="25.2679" y="-25.268" width="853.463" height="118.464" rx="56.8528" transform="matrix(-3.43675e-08 1 -1 4.02422e-06 199.156 -201.484)" fill="black" stroke="#0C9B00" stroke-width="50.5359"/>
            <rect x="18.9509" y="-18.951" width="840.829" height="105.83" rx="50.5359" transform="matrix(-3.43675e-08 1 -1 4.02422e-06 199.156 -188.85)" fill="black" stroke="#B7F7B0" stroke-width="37.9019"/>
            <rect x="12.634" y="-12.634" width="828.195" height="93.1962" rx="44.2189" transform="matrix(-3.43675e-08 1 -1 4.02422e-06 199.156 -176.216)" fill="black" stroke="#07DC10" stroke-width="25.2679"/>
            <rect x="6.31698" y="-6.31701" width="815.561" height="80.5623" rx="37.9019" transform="matrix(-3.43675e-08 1 -1 4.02422e-06 199.156 -163.582)" fill="#EAEAEA" stroke="#0C9B00" stroke-width="12.634"/>
            <rect x="-94.7551" y="-94.7547" width="208.438" height="379.438" rx="104.219" transform="matrix(1 0 4.07982e-06 1 175.273 155.426)" fill="black" stroke="#B7F7B0" stroke-width="189.509"/>
            <rect x="-88.4381" y="-88.4377" width="195.804" height="366.804" rx="97.902" transform="matrix(1 0 4.07982e-06 1 175.273 155.426)" fill="black" stroke="#07DC10" stroke-width="176.875"/>
            <rect x="-82.1211" y="-82.1208" width="183.17" height="354.17" rx="91.585" transform="matrix(1 0 4.07982e-06 1 175.273 155.426)" fill="black" stroke="#0C9B00" stroke-width="164.242"/>
            <rect x="-75.8041" y="-75.8038" width="170.536" height="341.536" rx="85.268" transform="matrix(1 0 4.07982e-06 1 175.273 155.426)" fill="black" stroke="#B7F7B0" stroke-width="151.608"/>
            <rect x="-69.4871" y="-69.4868" width="157.902" height="328.902" rx="78.9511" transform="matrix(1 0 4.07982e-06 1 175.273 155.426)" fill="black" stroke="#07DC10" stroke-width="138.974"/>
            <rect x="-63.1701" y="-63.1698" width="145.268" height="316.268" rx="72.6341" transform="matrix(1 0 4.07982e-06 1 175.273 155.426)" fill="black" stroke="#0C9B00" stroke-width="126.34"/>
            <rect x="-56.8531" y="-56.8528" width="132.634" height="303.634" rx="66.3171" transform="matrix(1 0 4.07982e-06 1 175.273 155.426)" fill="black" stroke="#B7F7B0" stroke-width="113.706"/>
            <rect x="-50.5361" y="-50.5359" width="120" height="291" rx="60.0001" transform="matrix(1 0 4.07982e-06 1 175.273 155.426)" fill="black" stroke="#07DC10" stroke-width="101.072"/>
            <rect x="-44.219" y="-44.2189" width="107.366" height="278.366" rx="53.6831" transform="matrix(1 0 4.07982e-06 1 175.274 155.426)" fill="black" stroke="#0C9B00" stroke-width="88.4377"/>
            <rect x="-37.902" y="-37.9019" width="94.7323" height="265.732" rx="47.3662" transform="matrix(1 0 4.07982e-06 1 175.273 155.426)" fill="black" stroke="#B7F7B0" stroke-width="75.8038"/>
            <rect x="-31.585" y="-31.5849" width="82.0984" height="253.098" rx="41.0492" transform="matrix(1 0 4.07982e-06 1 175.273 155.426)" fill="black" stroke="#07DC10" stroke-width="63.1698"/>
            <rect x="-25.268" y="-25.2679" width="69.4644" height="240.464" rx="34.7322" transform="matrix(1 0 4.07982e-06 1 175.273 155.426)" fill="black" stroke="#0C9B00" stroke-width="50.5359"/>
            <rect x="-18.951" y="-18.9509" width="56.8304" height="227.83" rx="28.4152" transform="matrix(1 0 4.07982e-06 1 175.273 155.426)" fill="black" stroke="#B7F7B0" stroke-width="37.9019"/>
            <rect x="-12.634" y="-12.634" width="44.1965" height="215.196" rx="22.0982" transform="matrix(1 0 4.07982e-06 1 175.273 155.426)" fill="black" stroke="#07DC10" stroke-width="25.2679"/>
            <rect x="-6.31701" y="-6.31698" width="31.5625" height="202.562" rx="15.7812" transform="matrix(1 0 4.07982e-06 1 175.273 155.426)" fill="#EAEAEA" stroke="#0C9B00" stroke-width="12.634"/>
            <rect x="-94.7551" y="-94.7547" width="568.437" height="379.438" rx="126.34" transform="matrix(1 0 4.07982e-06 1 573.846 155.426)" fill="black" stroke="#B7F7B0" stroke-width="189.509"/>
            <rect x="-88.4381" y="-88.4377" width="555.803" height="366.804" rx="120.023" transform="matrix(1 0 4.07982e-06 1 573.846 155.426)" fill="black" stroke="#07DC10" stroke-width="176.875"/>
            <rect x="-82.1211" y="-82.1208" width="543.169" height="354.17" rx="113.706" transform="matrix(1 0 4.07982e-06 1 573.846 155.426)" fill="black" stroke="#0C9B00" stroke-width="164.242"/>
            <rect x="-75.8041" y="-75.8038" width="530.535" height="341.536" rx="107.389" transform="matrix(1 0 4.07982e-06 1 573.846 155.426)" fill="black" stroke="#B7F7B0" stroke-width="151.608"/>
            <rect x="-69.4871" y="-69.4868" width="517.901" height="328.902" rx="101.072" transform="matrix(1 0 4.07982e-06 1 573.846 155.426)" fill="black" stroke="#07DC10" stroke-width="138.974"/>
            <rect x="-63.1701" y="-63.1698" width="505.267" height="316.268" rx="94.7547" transform="matrix(1 0 4.07982e-06 1 573.846 155.426)" fill="black" stroke="#0C9B00" stroke-width="126.34"/>
            <mask id="path-45-outside-1_1944_5806" maskUnits="userSpaceOnUse" x="169.071" y="13.4885" width="117.717" height="130.011" fill="black">
                <rect fill="white" x="169.071" y="13.4885" width="117.717" height="130.011"/>
                <path d="M253.27 54.0629L221.609 43.9146C219.967 43.3883 219.146 43.1252 218.416 43.2437C217.775 43.348 217.182 43.6527 216.724 44.1143C216.204 44.639 215.941 45.4599 215.415 47.1018L213.465 53.1835C213.006 54.6176 212.776 55.3347 212.721 56.0614C212.673 56.7057 212.727 57.3536 212.88 57.9812C213.053 58.6891 213.398 59.3587 214.087 60.6978L219.926 72.046C220.715 73.5791 221.109 74.3457 221.112 75.0848C221.115 75.7349 220.912 76.3691 220.531 76.8966C220.099 77.4963 219.333 77.8907 217.8 78.6796L206.452 84.5189C205.112 85.2079 204.443 85.5524 203.891 86.0279C203.401 86.4495 202.981 86.9455 202.645 87.4977C202.267 88.1206 202.037 88.8376 201.578 90.2717L199.628 96.3535C199.102 97.9954 198.839 98.8163 198.957 99.5458C199.062 100.188 199.366 100.78 199.828 101.238C200.353 101.758 201.174 102.021 202.815 102.548L234.477 112.696C236.119 113.222 236.94 113.485 237.67 113.367C238.311 113.262 238.904 112.958 239.361 112.496C239.882 111.971 240.145 111.151 240.671 109.509L242.621 103.427C243.08 101.993 243.31 101.276 243.365 100.549C243.413 99.9047 243.359 99.2569 243.206 98.6292C243.033 97.9213 242.688 97.2517 241.999 95.9126L236.16 84.5644C235.371 83.0313 234.977 82.2648 234.974 81.5257C234.971 80.8755 235.174 80.2413 235.554 79.7138C235.986 79.1141 236.753 78.7197 238.286 77.9308L249.634 72.0916C250.973 71.4025 251.643 71.058 252.195 70.5825C252.685 70.161 253.105 69.665 253.441 69.1127C253.819 68.4899 254.049 67.7728 254.508 66.3387L256.458 60.2569C256.984 58.6151 257.247 57.7941 257.128 57.0646C257.024 56.4229 256.719 55.8307 256.258 55.3728C255.733 54.8522 254.912 54.5891 253.27 54.0629Z"/>
            </mask>
            <path d="M253.27 54.0629L221.609 43.9146C219.967 43.3883 219.146 43.1252 218.416 43.2437C217.775 43.348 217.182 43.6527 216.724 44.1143C216.204 44.639 215.941 45.4599 215.415 47.1018L213.465 53.1835C213.006 54.6176 212.776 55.3347 212.721 56.0614C212.673 56.7057 212.727 57.3536 212.88 57.9812C213.053 58.6891 213.398 59.3587 214.087 60.6978L219.926 72.046C220.715 73.5791 221.109 74.3457 221.112 75.0848C221.115 75.7349 220.912 76.3691 220.531 76.8966C220.099 77.4963 219.333 77.8907 217.8 78.6796L206.452 84.5189C205.112 85.2079 204.443 85.5524 203.891 86.0279C203.401 86.4495 202.981 86.9455 202.645 87.4977C202.267 88.1206 202.037 88.8376 201.578 90.2717L199.628 96.3535C199.102 97.9954 198.839 98.8163 198.957 99.5458C199.062 100.188 199.366 100.78 199.828 101.238C200.353 101.758 201.174 102.021 202.815 102.548L234.477 112.696C236.119 113.222 236.94 113.485 237.67 113.367C238.311 113.262 238.904 112.958 239.361 112.496C239.882 111.971 240.145 111.151 240.671 109.509L242.621 103.427C243.08 101.993 243.31 101.276 243.365 100.549C243.413 99.9047 243.359 99.2569 243.206 98.6292C243.033 97.9213 242.688 97.2517 241.999 95.9126L236.16 84.5644C235.371 83.0313 234.977 82.2648 234.974 81.5257C234.971 80.8755 235.174 80.2413 235.554 79.7138C235.986 79.1141 236.753 78.7197 238.286 77.9308L249.634 72.0916C250.973 71.4025 251.643 71.058 252.195 70.5825C252.685 70.161 253.105 69.665 253.441 69.1127C253.819 68.4899 254.049 67.7728 254.508 66.3387L256.458 60.2569C256.984 58.6151 257.247 57.7941 257.128 57.0646C257.024 56.4229 256.719 55.8307 256.258 55.3728C255.733 54.8522 254.912 54.5891 253.27 54.0629Z" fill="#EAEAEA"/>
            <path d="M209.674 105.356L227.264 110.994L234.196 89.3662L216.606 83.7283L209.674 105.356ZM219.926 72.046L199.731 82.4372L199.731 82.4372L219.926 72.046ZM214.087 60.6978L193.892 71.0889L193.892 71.089L214.087 60.6978ZM206.452 84.5189L196.06 64.3243L196.06 64.3243L206.452 84.5189ZM217.8 78.6796L228.191 98.8741L228.191 98.8741L217.8 78.6796ZM238.286 77.9308L227.895 57.7363L227.895 57.7363L238.286 77.9308ZM249.634 72.0916L260.026 92.2861L260.026 92.2861L249.634 72.0916ZM234.974 81.5257L212.263 81.6161L212.263 81.6162L234.974 81.5257ZM235.554 79.7138L217.128 66.4378L217.128 66.4378L235.554 79.7138ZM243.365 100.549L266.013 102.241L266.013 102.241L243.365 100.549ZM243.206 98.6292L265.268 93.2395L265.268 93.2395L243.206 98.6292ZM237.67 113.367L234.028 90.9495L234.028 90.9495L237.67 113.367ZM239.361 112.496L255.485 128.491L255.485 128.491L239.361 112.496ZM198.957 99.5458L176.54 103.188L176.54 103.188L198.957 99.5458ZM199.828 101.238L215.823 85.1146L215.823 85.1146L199.828 101.238ZM203.891 86.0279L218.709 103.239L218.709 103.239L203.891 86.0279ZM202.645 87.4977L183.234 75.7084L183.234 75.7084L202.645 87.4977ZM221.112 75.0848L198.401 75.1752L198.401 75.1752L221.112 75.0848ZM220.531 76.8966L202.105 63.6207L202.105 63.6207L220.531 76.8966ZM253.441 69.1127L272.852 80.9021L272.852 80.902L253.441 69.1127ZM252.195 70.5825L267.014 87.7933L267.014 87.7933L252.195 70.5825ZM212.721 56.0614L235.369 57.7531L235.369 57.7531L212.721 56.0614ZM212.88 57.9812L234.943 52.5915L234.943 52.5915L212.88 57.9812ZM256.258 55.3728L272.253 39.2497L272.253 39.2497L256.258 55.3728ZM257.128 57.0646L234.711 60.7067L234.711 60.7067L257.128 57.0646ZM218.416 43.2437L214.774 20.8265L214.774 20.8265L218.416 43.2437ZM216.724 44.1143L200.601 28.1192L200.601 28.1192L216.724 44.1143ZM214.677 65.542L246.338 75.6902L260.202 32.4355L228.541 22.2872L214.677 65.542ZM235.093 60.1156L237.042 54.0338L193.787 40.1697L191.838 46.2515L235.093 60.1156ZM234.83 53.3249L232.881 59.4067L276.136 73.2707L278.085 67.189L234.83 53.3249ZM240.121 61.6548L234.281 50.3066L193.892 71.089L199.731 82.4372L240.121 61.6548ZM216.843 104.713L228.191 98.8741L207.409 58.485L196.06 64.3243L216.843 104.713ZM179.95 83.3397L178.001 89.4215L221.256 103.286L223.205 97.2038L179.95 83.3397ZM195.883 124.175L227.545 134.323L241.409 91.0685L209.748 80.9202L195.883 124.175ZM262.299 116.441L264.248 110.359L220.993 96.4949L219.044 102.577L262.299 116.441ZM262.194 85.5215L256.354 74.1732L215.965 94.9556L221.805 106.304L262.194 85.5215ZM248.677 98.1254L260.026 92.2861L239.243 51.897L227.895 57.7363L248.677 98.1254ZM256.354 74.1732C256.134 73.7438 256.05 73.5805 255.998 73.4742C255.945 73.3673 256.069 73.6095 256.246 74.0351C256.589 74.8608 257.669 77.6126 257.685 81.4351L212.263 81.6162C212.281 86.1778 213.56 89.6824 214.298 91.4595C214.935 92.9908 215.742 94.5223 215.965 94.9556L256.354 74.1732ZM227.895 57.7363C227.462 57.9593 225.914 58.7357 224.506 59.612C222.873 60.6288 219.794 62.7366 217.128 66.4378L253.981 92.9898C251.747 96.0913 249.268 97.7021 248.509 98.1746C248.117 98.4181 247.875 98.5429 247.981 98.4867C248.085 98.4307 248.248 98.3463 248.677 98.1254L227.895 57.7363ZM257.685 81.4352C257.701 85.5812 256.405 89.6259 253.981 92.9898L217.128 66.4378C213.944 70.8567 212.241 76.1699 212.263 81.6161L257.685 81.4352ZM264.248 110.359C264.378 109.954 265.711 106.272 266.013 102.241L220.716 98.8573C220.833 97.2959 221.124 96.1533 221.223 95.7858C221.265 95.6297 221.283 95.5808 221.234 95.7386C221.184 95.9006 221.117 96.1084 220.993 96.4949L264.248 110.359ZM221.805 106.304C221.99 106.665 222.09 106.859 222.166 107.01C222.241 107.158 222.215 107.113 222.148 106.966C221.989 106.619 221.515 105.54 221.143 104.019L265.268 93.2395C264.309 89.3129 262.388 85.8993 262.194 85.5215L221.805 106.304ZM266.013 102.241C266.238 99.2198 265.987 96.1822 265.268 93.2395L221.143 104.019C220.731 102.331 220.587 100.59 220.716 98.8574L266.013 102.241ZM227.545 134.323C228.009 134.472 229.653 135.017 231.268 135.393C233.142 135.829 236.809 136.515 241.312 135.784L234.028 90.9495C237.801 90.3365 240.693 90.9504 241.563 91.153C242.012 91.2575 242.272 91.3403 242.157 91.3057C242.044 91.2713 241.869 91.2159 241.409 91.0685L227.545 134.323ZM219.044 102.577C218.897 103.036 218.84 103.211 218.802 103.323C218.764 103.436 218.847 103.177 219.023 102.751C219.365 101.925 220.546 99.2148 223.238 96.5011L255.485 128.491C258.697 125.253 260.271 121.87 261.005 120.092C261.638 118.559 262.15 116.905 262.299 116.441L219.044 102.577ZM241.312 135.784C246.688 134.911 251.649 132.358 255.485 128.491L223.238 96.5011C226.158 93.5578 229.935 91.6144 234.028 90.9495L241.312 135.784ZM178.001 89.4215C177.852 89.8855 177.307 91.5289 176.931 93.1439C176.495 95.0181 175.809 98.6853 176.54 103.188L221.375 95.9037C221.988 99.6769 221.374 102.569 221.171 103.44C221.067 103.889 220.984 104.148 221.018 104.034C221.053 103.92 221.108 103.745 221.256 103.286L178.001 89.4215ZM209.748 80.9202C209.288 80.7728 209.113 80.7163 209.001 80.6783C208.888 80.6401 209.147 80.7235 209.573 80.8994C210.399 81.2407 213.109 82.4224 215.823 85.1146L183.833 117.361C187.071 120.573 190.454 122.147 192.233 122.882C193.765 123.515 195.419 124.026 195.883 124.175L209.748 80.9202ZM176.54 103.188C177.414 108.564 179.966 113.525 183.833 117.361L215.823 85.1146C218.766 88.0346 220.71 91.8114 221.375 95.9037L176.54 103.188ZM196.06 64.3243C195.682 64.5187 192.135 66.1798 189.072 68.8171L218.709 103.239C217.523 104.26 216.509 104.863 216.179 105.052C216.039 105.133 215.992 105.155 216.138 105.078C216.288 104.999 216.482 104.899 216.843 104.713L196.06 64.3243ZM223.205 97.2038C223.329 96.8173 223.396 96.6096 223.449 96.4485C223.501 96.2916 223.487 96.3416 223.43 96.4932C223.298 96.8501 222.87 97.9487 222.057 99.287L183.234 75.7084C181.136 79.1632 180.08 82.935 179.95 83.3397L223.205 97.2038ZM189.072 68.8171C186.777 70.7936 184.806 73.1192 183.234 75.7084L222.057 99.287C221.155 100.772 220.025 102.105 218.709 103.239L189.072 68.8171ZM199.731 82.4372C199.952 82.8666 200.036 83.0299 200.088 83.1362C200.141 83.2431 200.017 83.0009 199.84 82.5753C199.497 81.7497 198.416 78.9979 198.401 75.1752L243.823 74.9943C243.805 70.4326 242.526 66.9279 241.787 65.151C241.151 63.6196 240.343 62.0882 240.121 61.6548L199.731 82.4372ZM228.191 98.8741C228.624 98.6512 230.172 97.8747 231.58 96.9985C233.213 95.9817 236.292 93.8738 238.958 90.1726L202.105 63.6207C204.339 60.5192 206.818 58.9083 207.577 58.4359C207.969 58.1923 208.211 58.0675 208.105 58.1238C208.001 58.1797 207.838 58.2641 207.409 58.485L228.191 98.8741ZM198.401 75.1752C198.385 71.0293 199.681 66.9845 202.105 63.6207L238.958 90.1726C242.142 85.7538 243.845 80.4405 243.823 74.9943L198.401 75.1752ZM232.881 59.4067C232.757 59.7932 232.69 60.0008 232.637 60.1619C232.585 60.3188 232.599 60.2689 232.656 60.1173C232.788 59.7604 233.216 58.6617 234.029 57.3235L272.852 80.902C274.95 77.4472 276.006 73.6754 276.136 73.2707L232.881 59.4067ZM260.026 92.2861C260.403 92.0917 263.951 90.4306 267.014 87.7933L237.377 53.3717C238.563 52.3501 239.577 51.7476 239.907 51.5581C240.047 51.4777 240.094 51.4555 239.948 51.5324C239.798 51.6114 239.604 51.7113 239.243 51.897L260.026 92.2861ZM234.029 57.3234C234.931 55.8387 236.06 54.5051 237.377 53.3717L267.014 87.7933C269.309 85.8168 271.28 83.4912 272.852 80.9021L234.029 57.3234ZM191.838 46.2515C191.708 46.6562 190.374 50.3389 190.073 54.3697L235.369 57.7531C235.253 59.3145 234.962 60.4571 234.863 60.8247C234.82 60.9808 234.803 61.0296 234.852 60.8719C234.902 60.7098 234.969 60.5021 235.093 60.1156L191.838 46.2515ZM234.281 50.3066C234.096 49.9457 233.996 49.7517 233.92 49.6001C233.845 49.4525 233.871 49.4979 233.938 49.6449C234.097 49.9911 234.571 51.0704 234.943 52.5915L190.818 63.371C191.777 67.2975 193.698 70.7111 193.892 71.0889L234.281 50.3066ZM190.073 54.3697C189.848 57.3906 190.099 60.4282 190.818 63.371L234.943 52.5915C235.355 54.279 235.499 56.0208 235.369 57.7531L190.073 54.3697ZM246.338 75.6902C246.798 75.8376 246.973 75.8941 247.085 75.9321C247.198 75.9703 246.939 75.887 246.513 75.711C245.687 75.3697 242.977 74.1881 240.263 71.4958L272.253 39.2497C269.015 36.037 265.632 34.4635 263.853 33.7289C262.321 33.0959 260.667 32.5842 260.202 32.4355L246.338 75.6902ZM278.085 67.189C278.234 66.7249 278.779 65.0815 279.155 63.4665C279.591 61.5923 280.277 57.9251 279.546 53.4225L234.711 60.7067C234.098 56.9336 234.712 54.0416 234.915 53.1708C235.019 52.7219 235.102 52.4627 235.067 52.5768C235.033 52.6903 234.978 52.8651 234.83 53.3249L278.085 67.189ZM240.263 71.4958C237.32 68.5759 235.376 64.7991 234.711 60.7067L279.546 53.4225C278.672 48.0467 276.119 43.0854 272.253 39.2497L240.263 71.4958ZM228.541 22.2872C228.077 22.1385 226.433 21.5932 224.818 21.2173C222.944 20.7812 219.277 20.095 214.774 20.8265L222.058 65.6609C218.285 66.274 215.393 65.6601 214.522 65.4574C214.074 65.3529 213.814 65.2701 213.928 65.3047C214.042 65.3391 214.217 65.3946 214.677 65.542L228.541 22.2872ZM237.042 54.0338C237.189 53.5739 237.246 53.3995 237.284 53.2871C237.322 53.1742 237.239 53.4333 237.063 53.8592C236.721 54.6856 235.54 57.3956 232.847 60.1094L200.601 28.1192C197.389 31.3576 195.815 34.7404 195.081 36.5189C194.448 38.0515 193.936 39.7057 193.787 40.1697L237.042 54.0338ZM214.774 20.8265C209.398 21.6999 204.437 24.2528 200.601 28.1192L232.847 60.1094C229.928 63.0527 226.151 64.996 222.058 65.6609L214.774 20.8265Z" fill="#B7F7B0" mask="url(#path-45-outside-1_1944_5806)"/>
            <path d="M205.526 59.7778L212.314 58.1196L205.526 59.7778C205.923 61.4009 206.68 62.8608 207.208 63.8779C207.26 63.9767 207.309 64.0713 207.355 64.1615L214.033 60.7255L207.355 64.1615L211.984 73.1581L202.988 77.7873C202.898 77.8338 202.803 77.8822 202.703 77.9328C201.683 78.4535 200.217 79.2008 198.951 80.291C197.86 81.2309 196.923 82.3367 196.175 83.5679C195.308 84.996 194.811 86.5641 194.465 87.6567C194.432 87.7628 194.399 87.8645 194.369 87.961L192.419 94.0428C192.404 94.0905 192.388 94.1394 192.372 94.1893C192.152 94.8746 191.867 95.7623 191.678 96.5758C191.455 97.535 191.202 99.0158 191.485 100.76L198.926 99.5509L191.485 100.76C191.846 102.98 192.9 105.028 194.496 106.612C195.751 107.856 197.103 108.512 198.013 108.887C198.785 109.206 199.673 109.49 200.358 109.71C200.408 109.726 200.457 109.741 200.505 109.757L232.167 119.905C232.214 119.92 232.263 119.936 232.313 119.952C232.998 120.172 233.886 120.457 234.7 120.646C235.659 120.87 237.14 121.122 238.884 120.839L237.67 113.367L238.884 120.839C241.103 120.478 243.152 119.424 244.736 117.828C245.98 116.573 246.635 115.222 247.011 114.311C247.33 113.539 247.614 112.651 247.834 111.966C247.85 111.916 247.865 111.867 247.881 111.819L249.83 105.738C249.861 105.641 249.894 105.54 249.928 105.434C250.282 104.344 250.789 102.779 250.914 101.113L250.914 101.113C251.021 99.6764 250.902 98.232 250.56 96.8326L250.56 96.8326C250.163 95.2095 249.406 93.7497 248.878 92.7325C248.826 92.6337 248.777 92.5391 248.731 92.4489L244.101 83.4523L253.098 78.8231C253.188 78.7767 253.283 78.7282 253.382 78.6777C254.403 78.157 255.869 77.4097 257.135 76.3195L257.135 76.3195C258.226 75.3796 259.163 74.2737 259.911 73.0425L259.911 73.0425C260.778 71.6144 261.275 70.0463 261.621 68.9537C261.654 68.8476 261.686 68.746 261.717 68.6494L263.667 62.5676C263.682 62.5199 263.698 62.471 263.714 62.4211C263.934 61.7358 264.219 60.8481 264.408 60.0346C264.631 59.0754 264.884 57.5946 264.601 55.8505C264.24 53.6308 263.186 51.5823 261.59 49.9984L256.28 55.3501L261.59 49.9984C260.335 48.754 258.983 48.0989 258.073 47.7229C257.301 47.4041 256.413 47.12 255.728 46.9007C255.678 46.8847 255.629 46.869 255.581 46.8537L223.919 36.7055C223.872 36.6902 223.823 36.6745 223.773 36.6584C223.087 36.4384 222.2 36.1533 221.386 35.964C220.427 35.7408 218.946 35.488 217.202 35.7713C214.982 36.132 212.934 37.1861 211.35 38.7826C210.106 40.0369 209.451 41.3888 209.075 42.299C208.756 43.071 208.472 43.959 208.252 44.6445C208.236 44.6945 208.221 44.7434 208.205 44.7911L206.256 50.8729C206.225 50.9694 206.192 51.0709 206.158 51.1767C205.804 52.2668 205.297 53.8313 205.172 55.4975C205.065 56.934 205.184 58.3784 205.526 59.7778Z" fill="#EAEAEA" stroke="#07DC10" stroke-width="15.1408"/>
            <path d="M214.037 41.4484L216.724 44.1143L214.037 41.4484C213.285 42.2068 212.859 43.0509 212.573 43.744C212.316 44.3659 212.077 45.112 211.844 45.8402C211.833 45.8757 211.821 45.9111 211.81 45.9464L209.861 52.0282C209.832 52.1167 209.804 52.205 209.775 52.2931C209.399 53.461 209.035 54.5917 208.947 55.7795C208.869 56.8199 208.956 57.866 209.203 58.8795C209.486 60.0366 210.031 61.0921 210.593 62.1823C210.636 62.2645 210.678 62.347 210.721 62.4296L214.043 60.7201L210.721 62.4297L216.56 73.7779C216.761 74.1688 216.919 74.4755 217.051 74.7424C217.059 74.7584 217.067 74.7742 217.074 74.7896C217.059 74.7977 217.044 74.806 217.028 74.8144C216.765 74.9548 216.459 75.1127 216.068 75.3138L204.72 81.1531L206.452 84.5189L204.72 81.1531C204.637 81.1957 204.554 81.238 204.472 81.2802C203.38 81.8402 202.324 82.3823 201.421 83.1594C200.63 83.8402 199.952 84.6411 199.41 85.5328L202.622 87.4835L199.41 85.5328C198.792 86.5509 198.431 87.6825 198.058 88.8513C198.03 88.9395 198.001 89.0278 197.973 89.1164L196.024 95.1981L195.99 95.3043C195.756 96.0324 195.517 96.7785 195.364 97.4338C195.194 98.1642 195.05 99.0984 195.221 100.153L198.957 99.5458L195.221 100.153C195.454 101.584 196.133 102.904 197.162 103.925C197.921 104.677 198.765 105.103 199.458 105.389C200.08 105.646 200.826 105.885 201.554 106.118L201.66 106.152L233.322 116.3L233.428 116.334C234.156 116.568 234.902 116.807 235.558 116.96C236.288 117.13 237.222 117.274 238.277 117.103C239.707 116.87 241.028 116.191 242.049 115.162C242.801 114.404 243.227 113.56 243.513 112.866C243.77 112.245 244.009 111.498 244.242 110.77L244.276 110.664L246.225 104.582C246.254 104.494 246.282 104.405 246.31 104.317C246.686 103.149 247.05 102.019 247.139 100.831L247.139 100.831C247.217 99.7906 247.13 98.7444 246.883 97.7309L243.206 98.6292L246.883 97.7309C246.6 96.5738 246.055 95.5183 245.492 94.4281C245.45 94.3459 245.408 94.2634 245.365 94.1808L239.526 82.8325C239.325 82.4416 239.167 82.1349 239.035 81.868C239.027 81.852 239.019 81.8363 239.012 81.8209C239.027 81.8127 239.042 81.8045 239.058 81.796C239.32 81.6556 239.627 81.4978 240.018 81.2966L251.366 75.4573C251.449 75.4148 251.531 75.3725 251.614 75.3302C252.705 74.7703 253.762 74.2282 254.665 73.451L254.665 73.451C255.456 72.7703 256.134 71.9693 256.676 71.0776C257.294 70.0595 257.655 68.9279 258.028 67.7591C258.056 67.671 258.084 67.5826 258.113 67.494L260.062 61.4123L260.096 61.3061C260.33 60.578 260.569 59.8319 260.722 59.1766C260.891 58.4462 261.036 57.512 260.865 56.4576C260.632 55.0269 259.953 53.7065 258.924 52.6856L256.258 55.3728L258.924 52.6856C258.165 51.9333 257.321 51.5077 256.628 51.2215C256.006 50.9646 255.26 50.7256 254.532 50.4923L254.426 50.4583L222.764 40.31C222.729 40.2987 222.693 40.2873 222.658 40.276C221.93 40.0425 221.184 39.8032 220.528 39.6507C219.798 39.4807 218.864 39.3362 217.809 39.5075L218.416 43.2437L217.809 39.5075C216.379 39.74 215.058 40.4194 214.037 41.4484Z" fill="#EAEAEA" stroke="#0C9B00" stroke-width="7.57038"/>
            <rect x="206.038" y="89.3076" width="35.3988" height="9.23447" rx="3.71406" transform="rotate(17.7718 206.038 89.3076)" fill="#0C9B00"/>
        </g>
    </g>
    <defs>
        <clipPath id="clip0_1944_5806">
            <rect width="457" height="155" fill="white" transform="translate(0 0.455566)"/>
        </clipPath>
    </defs>
</svg>
