<?xml version="1.0" encoding="UTF-8"?>
<svg version="1.1" xmlns="http://www.w3.org/2000/svg" width="500" height="500">
<path d="M0 0 C165 0 330 0 500 0 C500 165 500 330 500 500 C335 500 170 500 0 500 C0 335 0 170 0 0 Z " fill="#D7D7D7" transform="translate(0,0)"/>
<path d="M0 0 C0 164.67 0 329.34 0 499 C-28.05 499 -56.1 499 -85 499 C-86.125 486.625 -86.125 486.625 -86.11352539 480.41723633 C-86.11367142 479.74263367 -86.11381744 479.06803101 -86.1139679 478.37298584 C-86.11328365 476.19263228 -86.10556295 474.01236945 -86.09765625 471.83203125 C-86.09578675 470.30075629 -86.09436537 468.76948073 -86.09336853 467.23820496 C-86.08958518 463.24508965 -86.07979158 459.25201182 -86.06866455 455.25891113 C-86.05835955 451.16935737 -86.05385161 447.07979743 -86.04882812 442.99023438 C-86.03816475 434.99347255 -86.0211398 426.99674096 -86 419 C-79.43088592 418.03689233 -73.00632707 417.65461297 -66.375 417.4375 C-64.48056152 417.3748999 -64.48056152 417.3748999 -62.54785156 417.31103516 C-49.95089949 416.93103317 -37.35183562 416.89013772 -24.75 416.875 C-23.73476257 416.8724118 -22.71952515 416.86982361 -21.67352295 416.86715698 C-18.77710409 416.8613244 -15.88079459 416.86287114 -12.984375 416.8671875 C-12.10550629 416.86520859 -11.22663757 416.86322968 -10.32113647 416.8611908 C-4.23060463 416.88469768 -4.23060463 416.88469768 -2 418 C-2 391.27 -2 364.54 -2 337 C-29.39 337 -56.78 337 -85 337 C-85.33 336.01 -85.66 335.02 -86 334 C-85.67 333.34 -85.34 332.68 -85 332 C-84.90715654 329.52810918 -84.87416841 327.08468489 -84.88647461 324.61279297 C-84.88625557 323.47118713 -84.88625557 323.47118713 -84.8860321 322.30651855 C-84.88673007 319.78504611 -84.89451706 317.26364708 -84.90234375 314.7421875 C-84.90420834 312.99626709 -84.90563205 311.25034616 -84.90663147 309.50442505 C-84.91045341 304.90454672 -84.92028095 300.30469986 -84.93133545 295.70483398 C-84.94155651 291.0128624 -84.94613058 286.32088575 -84.95117188 281.62890625 C-84.96190349 272.41925699 -84.97897606 263.20963111 -85 254 C-86.31718018 254.00523682 -87.63436035 254.01047363 -88.99145508 254.01586914 C-93.87230756 254.03395149 -98.75315707 254.04544389 -103.6340332 254.05493164 C-105.74764504 254.05996444 -107.86125338 254.0667912 -109.97485352 254.07543945 C-113.01058818 254.08755104 -116.04627686 254.09323881 -119.08203125 254.09765625 C-120.02899368 254.10281754 -120.97595612 254.10797882 -121.95161438 254.11329651 C-123.27264412 254.11340981 -123.27264412 254.11340981 -124.62036133 254.11352539 C-125.39535477 254.115746 -126.17034821 254.11796661 -126.96882629 254.12025452 C-129 254 -129 254 -132 253 C-133.99521536 252.94009168 -135.99244424 252.93936991 -137.98828125 252.97265625 C-139.16970703 252.98490234 -140.35113281 252.99714844 -141.56835938 253.00976562 C-144.05279504 253.04475768 -146.53717738 253.08378191 -149.02148438 253.12695312 C-150.20677734 253.13791016 -151.39207031 253.14886719 -152.61328125 253.16015625 C-154.23423706 253.18541382 -154.23423706 253.18541382 -155.88793945 253.21118164 C-159 253 -159 253 -165 251 C-165 223.94 -165 196.88 -165 169 C-138.6 168.67 -112.2 168.34 -85 168 C-85.33 167.34 -85.66 166.68 -86 166 C-86.09746791 164.28474863 -86.13077019 162.56567344 -86.1328125 160.84765625 C-86.13474609 159.77483398 -86.13667969 158.70201172 -86.13867188 157.59667969 C-86.13416016 156.43040039 -86.12964844 155.26412109 -86.125 154.0625 C-86.12306641 152.85625977 -86.12113281 151.65001953 -86.11914062 150.40722656 C-86.07471069 140.89675161 -85.76155271 131.41021917 -85.3581543 121.90917969 C-84.91028954 110.93770362 -84.896473 99.97864065 -85 89 C-85.97195313 89.03029297 -86.94390625 89.06058594 -87.9453125 89.09179688 C-113.30986331 89.86913074 -138.6215628 90.09031472 -164 90 C-164.33 114.75 -164.66 139.5 -165 165 C-199.8125 165.4375 -199.8125 165.4375 -210.74145508 165.56811523 C-214.01846314 165.61144129 -214.01846314 165.61144129 -217.29545593 165.65589905 C-218.73745268 165.67492441 -220.17947199 165.69229039 -221.62150574 165.70826721 C-223.8256271 165.73302758 -226.02961547 165.76266118 -228.23364258 165.79467773 C-228.91316042 165.80311895 -229.59267826 165.81156017 -230.29278755 165.82025719 C-235.22190708 165.90968101 -240.02124169 166.38999926 -244.88456726 167.18299866 C-247 167 -247 167 -248.7590332 165.1532135 C-253.26477279 157.33526113 -251.19843123 144.54027225 -251.1875 135.625 C-251.18759064 134.4907962 -251.18759064 134.4907962 -251.18768311 133.3336792 C-251.17534398 122.40551686 -250.85513815 111.52886211 -250.125 100.625 C-250.00741333 98.81829834 -250.00741333 98.81829834 -249.88745117 96.97509766 C-249.14967864 87.20084953 -249.14967864 87.20084953 -247 83 C-237.27828237 78.77316625 -224.95657914 79.84915719 -214.5703125 79.8671875 C-212.71936478 79.86575241 -212.71936478 79.86575241 -210.83102417 79.86428833 C-208.24444528 79.86361252 -205.65786463 79.86542467 -203.07128906 79.86962891 C-199.11519589 79.87501334 -195.15921482 79.8696494 -191.203125 79.86328125 C-188.67968725 79.8639416 -186.15624957 79.86522187 -183.6328125 79.8671875 C-181.86552292 79.86415115 -181.86552292 79.86415115 -180.06253052 79.86105347 C-178.96053314 79.86420563 -177.85853577 79.86735779 -176.72314453 79.87060547 C-175.27852341 79.87179886 -175.27852341 79.87179886 -173.80471802 79.87301636 C-171 80 -171 80 -165 81 C-165 54.6 -165 28.2 -165 1 C-112.82146035 -16.39284655 -55.00101009 0 0 0 Z " fill="#D7D7D7" transform="translate(500,0)"/>
<path d="M0 0 C0 81.84 0 163.68 0 248 C-28.05 248 -56.1 248 -85 248 C-86.125 235.625 -86.125 235.625 -86.11352539 229.41723633 C-86.11367142 228.74263367 -86.11381744 228.06803101 -86.1139679 227.37298584 C-86.11328365 225.19263228 -86.10556295 223.01236945 -86.09765625 220.83203125 C-86.09578675 219.30075629 -86.09436537 217.76948073 -86.09336853 216.23820496 C-86.08958518 212.24508965 -86.07979158 208.25201182 -86.06866455 204.25891113 C-86.05835955 200.16935737 -86.05385161 196.07979743 -86.04882812 191.99023438 C-86.03816475 183.99347255 -86.0211398 175.99674096 -86 168 C-79.43088592 167.03689233 -73.00632707 166.65461297 -66.375 166.4375 C-65.11204102 166.3957666 -63.84908203 166.3540332 -62.54785156 166.31103516 C-49.95089949 165.93103317 -37.35183562 165.89013772 -24.75 165.875 C-23.73476257 165.8724118 -22.71952515 165.86982361 -21.67352295 165.86715698 C-18.77710409 165.8613244 -15.88079459 165.86287114 -12.984375 165.8671875 C-12.10550629 165.86520859 -11.22663757 165.86322968 -10.32113647 165.8611908 C-4.23060463 165.88469768 -4.23060463 165.88469768 -2 167 C-2 140.27 -2 113.54 -2 86 C-29.39 86 -56.78 86 -85 86 C-85.33 85.01 -85.66 84.02 -86 83 C-85.505 82.01 -85.505 82.01 -85 81 C-84.93640701 78.49644311 -84.9339888 76.02320014 -84.97827148 73.52099609 C-84.98787903 72.75017197 -84.99748657 71.97934784 -85.00738525 71.18516541 C-85.04043007 68.63116477 -85.08074142 66.07733228 -85.12109375 63.5234375 C-85.14538952 61.75510251 -85.16923334 59.98676126 -85.19264221 58.21841431 C-85.25553725 53.55929441 -85.32458852 48.9002851 -85.39489746 44.24127197 C-85.46553201 39.4890243 -85.53037815 34.7366981 -85.59570312 29.984375 C-85.72478531 20.65616369 -85.86036753 11.32805893 -86 2 C-62.42797289 -5.85734237 -19.9339808 0 0 0 Z " fill="#D7D7D7" transform="translate(500,251)"/>
<path d="M0 0 C33 0 33 0 36 1 C37.45706917 1.11349848 38.91844959 1.17601475 40.37963867 1.20532227 C41.26032516 1.22526749 42.14101166 1.24521271 43.04838562 1.26576233 C43.99534805 1.28247482 44.94231049 1.29918732 45.91796875 1.31640625 C46.89034988 1.33718735 47.86273102 1.35796844 48.86457825 1.37937927 C51.97214665 1.44478748 55.07979985 1.50371929 58.1875 1.5625 C60.29362858 1.60569351 62.39974856 1.64930807 64.50585938 1.69335938 C69.67048591 1.80045999 74.83519778 1.90175219 80 2 C80.17690836 12.11795085 80.34286792 22.23601598 80.49477577 32.35437489 C80.56565519 37.05252082 80.64033269 41.7505429 80.72363281 46.44848633 C80.80385393 50.98060813 80.87417318 55.51278449 80.93757248 60.04517174 C80.96353488 61.77601488 80.99309033 63.50680791 81.02626419 65.23752785 C81.07205203 67.65807423 81.10516483 70.07848235 81.13525391 72.49926758 C81.1517952 73.21783936 81.16833649 73.93641113 81.18537903 74.67675781 C81.21704854 78.36891652 81.10960957 79.83558565 79 83 C76.69889832 83.32952881 76.69889832 83.32952881 73.78198242 83.26464844 C72.6887114 83.24762878 71.59544037 83.23060913 70.46903992 83.21307373 C69.27656143 83.17885315 68.08408295 83.14463257 66.85546875 83.109375 C65.0033654 83.07327118 65.0033654 83.07327118 63.11384583 83.03643799 C59.80882556 82.9688234 56.50466249 82.88778909 53.20013428 82.80072021 C49.92208901 82.71811049 46.64366053 82.65528468 43.36523438 82.58984375 C28.89152989 82.28024337 14.46856486 81.68897928 0 81 C0 108.39 0 135.78 0 164 C-27.72 164 -55.44 164 -84 164 C-85.95380446 135.66983536 -86.19783066 108.22727406 -85 80 C-75.05128508 79.04925324 -65.18021539 78.86659623 -55.19921875 78.90234375 C-53.80261271 78.90381895 -52.40600612 78.90483609 -51.00939941 78.90539551 C-45.90209103 78.91058145 -40.79479458 78.92454227 -35.6875 78.9375 C-24.240625 78.958125 -12.79375 78.97875 -1 79 C-0.67 52.93 -0.34 26.86 0 0 Z " fill="#999999" transform="translate(335,252)"/>
<path d="M0 0 C0.65257782 -0.00131927 1.30515564 -0.00263855 1.97750854 -0.0039978 C4.16604047 -0.00594385 6.35444928 0.00051322 8.54296875 0.0078125 C9.29413971 0.00869873 10.04531067 0.00958496 10.81924438 0.01049805 C31.79447198 0.03911251 52.76330942 0.59449554 73.73046875 1.1328125 C74.94368875 11.5501993 74.88291069 21.95536419 74.86083984 32.42797852 C74.85554833 35.40060696 74.86077407 38.37307969 74.8671875 41.34570312 C74.87141081 54.96376784 74.43426835 68.53355333 73.73046875 82.1328125 C72.50046143 82.12757568 71.2704541 82.12233887 70.00317383 82.11694336 C65.22958166 82.09818897 60.45599224 82.08713708 55.68237305 82.07788086 C53.6556747 82.07299497 51.62897954 82.0662908 49.60229492 82.05737305 C29.61787696 81.97194808 9.7270341 82.59236479 -10.26953125 83.1328125 C-9.93953125 109.5328125 -9.60953125 135.9328125 -9.26953125 163.1328125 C18.78046875 163.1328125 46.83046875 163.1328125 75.73046875 163.1328125 C75.73046875 163.4628125 75.73046875 163.7928125 75.73046875 164.1328125 C-5.77953125 164.1328125 -87.28953125 164.1328125 -171.26953125 164.1328125 C-171.26953125 163.8028125 -171.26953125 163.4728125 -171.26953125 163.1328125 C-144.20953125 163.1328125 -117.14953125 163.1328125 -89.26953125 163.1328125 C-89.26953125 137.3928125 -89.26953125 111.6528125 -89.26953125 85.1328125 C-86.4840616 84.20432262 -84.7176567 83.98931097 -81.83325195 83.94335938 C-80.93834549 83.92664185 -80.04343903 83.90992432 -79.12141418 83.8927002 C-78.15580063 83.87912476 -77.19018707 83.86554932 -76.1953125 83.8515625 C-75.19751266 83.83315308 -74.19971283 83.81474365 -73.17167664 83.79577637 C-69.97518845 83.73699898 -66.77864556 83.68424288 -63.58203125 83.6328125 C-59.39052106 83.56481287 -55.19916655 83.49102409 -51.0078125 83.4140625 C-49.5745739 83.39369934 -49.5745739 83.39369934 -48.11238098 83.3729248 C-42.75036848 83.27449193 -37.58119334 82.86538014 -32.26953125 82.1328125 C-29.87490488 82.04610611 -27.47822097 82.00249354 -25.08203125 82.0078125 C-23.91285156 82.00523437 -22.74367188 82.00265625 -21.5390625 82 C-18.65300054 82.11723549 -16.07271383 82.46765053 -13.26953125 83.1328125 C-13.26953125 82.4728125 -13.26953125 81.8128125 -13.26953125 81.1328125 C-12.27953125 81.1328125 -11.28953125 81.1328125 -10.26953125 81.1328125 C-10.27476807 80.08528809 -10.28000488 79.03776367 -10.28540039 77.95849609 C-10.30375229 74.00358972 -10.31507142 70.04868695 -10.32446289 66.09375 C-10.32943512 64.39485029 -10.33621527 62.69595473 -10.3449707 60.99707031 C-10.39111184 51.80141405 -10.27981357 42.70855954 -9.52563477 33.53662109 C-9.05533704 27.28601009 -8.90159177 21.02202332 -8.70703125 14.7578125 C-8.66365867 13.4244711 -8.62003984 12.09113769 -8.57617188 10.7578125 C-8.47155457 7.54954862 -8.36937287 4.34122793 -8.26953125 1.1328125 C-5.46151539 -0.27119543 -3.14229847 0.00303081 0 0 Z " fill="#999999" transform="translate(424.26953125,335.8671875)"/>
<path d="M0 0 C26.4 0 52.8 0 80 0 C81.85659797 12.99618577 80.89993331 26.03334398 80.3581543 39.11157227 C79.84536589 52.40803716 79.90547702 65.69552713 80 79 C75.11248905 79.79467903 70.4717006 80.12213466 65.50415039 80.11352539 C64.77971709 80.11364593 64.05528379 80.11376646 63.30889797 80.11389065 C60.98845167 80.11315055 58.66808799 80.10556396 56.34765625 80.09765625 C54.90523314 80.09618403 53.46280949 80.09516504 52.02038574 80.09460449 C46.70108229 80.08938409 41.38179031 80.07542283 36.0625 80.0625 C24.161875 80.041875 12.26125 80.02125 0 80 C0 106.73 0 133.46 0 161 C-4.95 160.67 -9.9 160.34 -15 160 C-18.77408166 159.93653806 -22.52510719 159.90321498 -26.296875 159.9375 C-27.29599915 159.94128662 -28.29512329 159.94507324 -29.32452393 159.94897461 C-33.51067617 159.96498128 -37.69672181 159.9931051 -41.8828125 160.02050781 C-44.97916175 160.03893846 -48.075494 160.05080968 -51.171875 160.0625 C-52.52910675 160.07494751 -52.52910675 160.07494751 -53.91375732 160.08764648 C-63.33269894 160.12179345 -72.53644956 159.4980816 -82 159 C-82 132.27 -82 105.54 -82 78 C-69.625 75.75 -69.625 75.75 -63.23364258 75.77294922 C-62.52855151 75.77270815 -61.82346045 75.77246708 -61.09700298 75.7722187 C-58.86270744 75.77368611 -56.62876537 75.78879725 -54.39453125 75.8046875 C-52.99589193 75.80763596 -51.59725038 75.80967144 -50.1986084 75.81079102 C-45.06987147 75.8211853 -39.9411821 75.8491074 -34.8125 75.875 C-17.5803125 75.936875 -17.5803125 75.936875 0 76 C0 50.92 0 25.84 0 0 Z " fill="#999999" transform="translate(335,89)"/>
<path d="M0 0 C28.38 0 56.76 0 86 0 C85.67 7.92 85.34 15.84 85 24 C84.87174492 29.08506225 84.75644113 34.16459871 84.68359375 39.25 C84.6524221 41.16341187 84.6524221 41.16341187 84.62062073 43.11547852 C84.55672264 47.0769467 84.49700806 51.03846372 84.4375 55 C84.39450933 57.73308307 84.35058481 60.46615087 84.30664062 63.19921875 C84.20121317 69.79943186 84.09919266 76.39969039 84 83 C86.97 83 89.94 83 93 83 C93 83.33 93 83.66 93 84 C90.36 84 87.72 84 85 84 C84.505 85.485 84.505 85.485 84 87 C82.89628052 86.90150757 82.89628052 86.90150757 81.77026367 86.80102539 C71.01411655 85.93175309 60.26566817 85.7001297 49.47973633 85.49731445 C46.3360011 85.43794383 43.19242829 85.3727415 40.04882812 85.30664062 C27.69757939 85.05595543 15.35365324 84.94244767 3 85 C3.33 85.99 3.66 86.98 4 88 C4.09596067 89.98385104 4.13074404 91.97086179 4.1328125 93.95703125 C4.13482666 95.19702881 4.13684082 96.43702637 4.13891602 97.71459961 C4.13480731 99.0805681 4.13015337 100.44653505 4.125 101.8125 C4.12378143 102.50441437 4.12256287 103.19632874 4.12130737 103.90921021 C4.09646862 116.08870868 3.86953543 128.26213606 3.5625 140.4375 C3.5429425 141.25151276 3.52338501 142.06552551 3.50323486 142.90420532 C3.30460406 150.9763122 3.09454675 158.98865364 2 167 C1.34 167 0.68 167 0 167 C0 111.89 0 56.78 0 0 Z " fill="#D7D7D7" transform="translate(0,0)"/>
<path d="M0 0 C27.06 0 54.12 0 82 0 C82 27.39 82 54.78 82 83 C70.12 83.33 58.24 83.66 46 84 C43.36 84.33 40.72 84.66 38 85 C36.50547359 85.09680625 35.00898026 85.17084585 33.51171875 85.20532227 C32.73151367 85.22526749 31.95130859 85.24521271 31.14746094 85.26576233 C30.33567383 85.28247482 29.52388672 85.29918732 28.6875 85.31640625 C27.83317383 85.33718735 26.97884766 85.35796844 26.09863281 85.37937927 C23.39916158 85.44418599 20.69960235 85.50343565 18 85.5625 C16.15754339 85.60575092 14.31509531 85.64936718 12.47265625 85.69335938 C7.98185846 85.79979557 3.49097316 85.90125193 -1 86 C-3.68145364 65.98486394 -1.81721477 45.21360196 -1 25.125 C-0.67 16.83375 -0.34 8.5425 0 0 Z " fill="#999999" transform="translate(418,0)"/>
<path d="M0 0 C1.41849732 0.00147416 2.83699519 0.00249194 4.25549316 0.00305176 C9.4580976 0.00824973 14.66069032 0.02221078 19.86328125 0.03515625 C37.34296875 0.06609375 37.34296875 0.06609375 55.17578125 0.09765625 C55.17578125 27.48765625 55.17578125 54.87765625 55.17578125 83.09765625 C13.16913792 83.69990203 -28.81478193 84.1998721 -70.82421875 84.16015625 C-72.19230808 84.15887222 -72.19230808 84.15887222 -73.58803558 84.15756226 C-84.6667848 84.14637349 -95.74550181 84.12661103 -106.82421875 84.09765625 C-106.82421875 83.76765625 -106.82421875 83.43765625 -106.82421875 83.09765625 C-80.09421875 83.09765625 -53.36421875 83.09765625 -25.82421875 83.09765625 C-26.48421875 71.54765625 -27.14421875 59.99765625 -27.82421875 48.09765625 C-27.94643921 39.52511284 -28.02397026 30.97907692 -27.94921875 22.41015625 C-27.93911903 20.30534304 -27.93000612 18.20052486 -27.921875 16.09570312 C-27.90052784 11.09622358 -27.86642924 6.0970013 -27.82421875 1.09765625 C-18.54697332 -0.00305768 -9.32387357 -0.03267823 0 0 Z " fill="#999999" transform="translate(192.82421875,415.90234375)"/>
<path d="M0 0 C9.77098318 -0.04644324 19.54193988 -0.08192999 29.31301117 -0.10362434 C33.850641 -0.11403917 38.38819503 -0.12815617 42.92578125 -0.15087891 C47.30891154 -0.17268956 51.69196914 -0.18458592 56.07514954 -0.18975449 C57.74320112 -0.19343552 59.41124896 -0.20062353 61.07926941 -0.21146011 C63.42467695 -0.22608453 65.76978821 -0.22797341 68.11523438 -0.22705078 C69.13807526 -0.23783661 69.13807526 -0.23783661 70.18157959 -0.24884033 C75.30308834 -0.22719345 78.76080408 0.69020102 84 2 C84 28.4 84 54.8 84 82 C76.059375 82.144375 68.11875 82.28875 59.9375 82.4375 C40.28509871 82.80524841 20.64218867 83.26187522 1 84 C-0.04990808 79.71589529 -0.13539183 75.56390531 -0.11352539 71.18041992 C-0.11367142 70.40915771 -0.11381744 69.63789551 -0.1139679 68.84326172 C-0.11327378 66.305635 -0.10550492 63.76808258 -0.09765625 61.23046875 C-0.09579029 59.46641581 -0.09436723 57.70236236 -0.09336853 55.93830872 C-0.08955738 51.3039506 -0.07973909 46.66962401 -0.06866455 42.03527832 C-0.05842026 37.30282009 -0.05386445 32.57035675 -0.04882812 27.83789062 C-0.03811555 18.55857993 -0.02105599 9.27929259 0 0 Z " fill="#999999" transform="translate(416,169)"/>
<path d="M0 0 C0.02313662 10.39615851 0.04092185 20.79231093 0.05181217 31.18848991 C0.0570381 36.01548037 0.06413052 40.84245325 0.07543945 45.66943359 C0.0862786 50.32485248 0.09227903 54.98025444 0.09487724 59.63568497 C0.09672963 61.41474804 0.1003467 63.19381016 0.10573006 64.97286606 C0.11295409 67.45833107 0.11399036 69.94372546 0.11352539 72.42919922 C0.11712067 73.17006775 0.12071594 73.91093628 0.12442017 74.67425537 C0.11405216 79.77189568 0.11405216 79.77189568 -1 82 C-2.82035767 82.029729 -2.82035767 82.029729 -4.67749023 82.06005859 C-9.26442098 82.13725678 -13.85108042 82.22577719 -18.43774414 82.31738281 C-20.40708993 82.35520861 -22.37649401 82.39013362 -24.34594727 82.421875 C-34.73852952 82.59133367 -44.96793333 82.9435501 -55.27854919 84.30241394 C-61.0460038 85.05414045 -66.69111838 85.27073435 -72.5 85.1875 C-73.41652344 85.18685547 -74.33304688 85.18621094 -75.27734375 85.18554688 C-81.8584576 85.1415424 -81.8584576 85.1415424 -83 84 C-83.09886033 82.35266043 -83.12799025 80.70108396 -83.12939453 79.05078125 C-83.13254669 77.99036621 -83.13569885 76.92995117 -83.13894653 75.83740234 C-83.1369223 74.67418457 -83.13489807 73.5109668 -83.1328125 72.3125 C-83.13376923 71.10803223 -83.13472595 69.90356445 -83.13571167 68.66259766 C-83.13639499 66.09000599 -83.13453023 63.51741262 -83.13037109 60.94482422 C-83.12513601 57.09989251 -83.13025167 53.25508373 -83.13671875 49.41015625 C-83.14055785 33.58384868 -82.78054602 17.80718412 -82 2 C-77.74819265 0.81833377 -73.56652721 0.77138133 -69.1796875 0.68359375 C-68.28935822 0.66281265 -67.39902893 0.64203156 -66.48171997 0.62062073 C-64.57689224 0.57730806 -62.67201161 0.5362722 -60.76708984 0.49731445 C-57.98907887 0.43985939 -55.21138103 0.37394605 -52.43359375 0.30664062 C-34.95671513 -0.08943757 -17.48017106 -0.04425631 0 0 Z " fill="#999999" transform="translate(250,248)"/>
<path d="M0 0 C26.4 0 52.8 0 80 0 C80 27.39 80 54.78 80 83 C52.94 83 25.88 83 -2 83 C-2.0309375 68.9853125 -2.0309375 68.9853125 -2.0625 54.6875 C-2.071604 51.78026123 -2.08070801 48.87302246 -2.09008789 45.87768555 C-2.15489293 10.77446464 -2.15489293 10.77446464 0 0 Z " fill="#999999" transform="translate(86,0)"/>
<path d="M0 0 C0.08275943 10.15080149 -0.05860999 20.29247571 -0.25390625 30.44140625 C-0.27842865 31.74177826 -0.30295105 33.04215027 -0.32821655 34.38192749 C-0.43129485 39.82671463 -0.53528078 45.27147116 -0.64819336 50.71606445 C-0.70435532 53.43174821 -0.75751216 56.14745896 -0.80735779 58.86326599 C-0.85398458 61.39872324 -0.90492912 63.9341059 -0.96083069 66.46937561 C-0.98092697 67.61844894 -1.00102325 68.76752228 -1.02172852 69.95141602 C-1.04171402 70.95350601 -1.06169952 71.95559601 -1.08229065 72.98805237 C-0.99061349 76.34355872 -0.47471734 79.67697863 0 83 C-27.06 83.33 -54.12 83.66 -82 84 C-82.020625 70.84125 -82.04125 57.6825 -82.0625 44.125 C-82.071604 39.96664551 -82.08070801 35.80829102 -82.09008789 31.52392578 C-82.09460449 26.45483398 -82.09460449 26.45483398 -82.09544373 24.08346558 C-82.09698157 22.42355074 -82.10050325 20.76363704 -82.10557556 19.10372925 C-82.11286652 16.59273328 -82.11390696 14.08180571 -82.11352539 11.57080078 C-82.1171235 10.828528 -82.12072161 10.08625523 -82.12442875 9.32148933 C-82.11402634 4.22805267 -82.11402634 4.22805267 -81 2 C-73.09680574 1.73572104 -65.19351166 1.47474146 -57.29007912 1.21769714 C-53.6181375 1.09817627 -49.94623661 0.97762091 -46.27441406 0.85449219 C-15.08365767 -0.19003033 -15.08365767 -0.19003033 0 0 Z " fill="#999999" transform="translate(82,416)"/>
<path d="M0 0 C1.14474792 0.00539291 1.14474792 0.00539291 2.31262207 0.01089478 C3.51253029 0.01067574 3.51253029 0.01067574 4.73667908 0.01045227 C7.39344958 0.01115161 10.05015086 0.01894498 12.70690918 0.02676392 C14.54393984 0.02862802 16.38097099 0.03005196 18.21800232 0.03105164 C23.06284955 0.03487742 27.90766701 0.04470821 32.75250244 0.05575562 C37.69237871 0.06596845 42.63225978 0.07054898 47.57214355 0.07559204 C57.27202646 0.08633042 66.97188722 0.10340756 76.67175293 0.12442017 C76.6852676 2.80086973 76.69504735 5.47724945 76.70275879 8.15371704 C76.70691551 8.90143372 76.71107224 9.64915039 76.71535492 10.41952515 C76.72562796 15.19204162 76.5387144 19.89681392 76.17565918 24.65567017 C75.40890877 35.63629325 75.56493822 46.62266523 75.60925293 57.62442017 C75.61428132 59.81582539 75.61884184 62.00723173 75.6229248 64.19863892 C75.63381657 69.5072577 75.65044708 74.81583348 75.67175293 80.12442017 C74.95417313 80.13472763 74.23659332 80.1450351 73.49726868 80.15565491 C66.63131553 80.25490219 59.76542029 80.35755973 52.89957142 80.46375942 C49.37240222 80.51820447 45.84522461 80.57147022 42.31799316 80.62173462 C26.08725421 80.85391847 9.8805604 81.19641328 -6.32824707 82.12442017 C-7.58391184 59.52994457 -7.59606459 36.98819465 -6.89074707 14.37442017 C-6.8515918 13.06473267 -6.81243652 11.75504517 -6.77209473 10.40567017 C-6.73003906 9.20426392 -6.6879834 8.00285767 -6.64465332 6.76504517 C-6.60799561 5.69802368 -6.57133789 4.6310022 -6.53356934 3.53164673 C-6.15362367 -0.92288871 -3.9563893 0.00786696 0 0 Z " fill="#999999" transform="translate(174.3282470703125,83.87557983398438)"/>
<path d="M0 0 C28.05 0 56.1 0 85 0 C84.01 0.33 83.02 0.66 82 1 C82 27.4 82 53.8 82 81 C54.94 81 27.88 81 0 81 C0 54.27 0 27.54 0 0 Z " fill="#999999" transform="translate(253,0)"/>
<path d="M0 0 C1.07733398 -0.00459229 2.15466797 -0.00918457 3.26464844 -0.01391602 C4.25368164 -0.01190186 5.24271484 -0.0098877 6.26171875 -0.0078125 C7.10049561 -0.00668457 7.93927246 -0.00555664 8.8034668 -0.00439453 C11.69379121 0.14466375 14.46779333 0.60392322 17.3125 1.125 C17.2675515 2.02876625 17.2675515 2.02876625 17.22169495 2.95079041 C16.37226386 20.53857997 16.1892627 38.08170547 16.25 55.6875 C16.25503384 58.27148349 16.25959336 60.85546795 16.26367188 63.43945312 C16.27450802 69.66799049 16.29109152 75.89649044 16.3125 82.125 C15.40953438 82.1404612 15.40953438 82.1404612 14.48832703 82.15623474 C8.17693956 82.26509726 1.8656722 82.37962152 -4.44555664 82.49731445 C-6.79546577 82.54040984 -9.14540112 82.5821007 -11.49536133 82.62231445 C-14.88891475 82.68063778 -18.28233923 82.74414757 -21.67578125 82.80859375 C-22.71269608 82.82530624 -23.7496109 82.84201874 -24.81794739 82.85923767 C-30.64480403 82.97543159 -36.39542597 83.30334941 -42.19274902 83.90783691 C-46.41836707 84.27566852 -50.6369019 84.23112255 -54.875 84.1875 C-55.73158203 84.18298828 -56.58816406 84.17847656 -57.47070312 84.17382812 C-59.54300033 84.16225105 -61.61526058 84.14432659 -63.6875 84.125 C-65.19893336 81.10213327 -64.82608807 77.97709725 -64.81689453 74.66186523 C-64.81864685 73.8926474 -64.82039917 73.12342957 -64.82220459 72.3309021 C-64.8266152 69.78177654 -64.82368818 67.23272004 -64.8203125 64.68359375 C-64.8209857 62.91764818 -64.82195585 61.1517027 -64.82321167 59.38575745 C-64.82468751 55.68269978 -64.82253746 51.9796662 -64.81787109 48.27661133 C-64.81216971 43.51921137 -64.81545612 38.76186777 -64.82144356 34.00446987 C-64.82504867 30.35776847 -64.82391089 26.71108054 -64.82131577 23.06437874 C-64.82064657 21.30961157 -64.82147465 19.5548432 -64.82379532 17.80007744 C-64.82632149 15.35293183 -64.82248197 12.9058789 -64.81689453 10.45874023 C-64.81891876 9.72676926 -64.82094299 8.99479828 -64.82302856 8.24064636 C-64.80176354 3.23926354 -64.80176354 3.23926354 -63.6875 2.125 C-58.44812208 1.18297985 -53.29845135 0.92324581 -47.984375 0.80859375 C-47.15647964 0.78772202 -46.32858429 0.76685028 -45.4756012 0.74534607 C-42.79632296 0.67957456 -40.11695689 0.62050427 -37.4375 0.5625 C-36.06989029 0.53123016 -36.06989029 0.53123016 -34.6746521 0.49932861 C-23.11709394 0.23613481 -11.56073589 0.02695001 0 0 Z " fill="#999999" transform="translate(148.6875,165.875)"/>
<path d="M0 0 C26.73 0 53.46 0 81 0 C80.855625 11.88 80.71125 23.76 80.5625 36 C80.51939697 39.73828125 80.47629395 43.4765625 80.43188477 47.328125 C80.3729248 51.92578125 80.3729248 51.92578125 80.34410095 54.08447266 C80.32499697 55.57826759 80.30764787 57.07208565 80.29173279 58.56591797 C80.26714366 60.84089506 80.23682212 63.11573442 80.20532227 65.390625 C80.18977798 66.66969727 80.1742337 67.94876953 80.15821838 69.26660156 C79.98992771 73.23767066 79.54395063 77.06478711 79 81 C26.06186249 82.20926758 26.06186249 82.20926758 0 82 C-0.02505615 81.24380371 -0.0501123 80.48760742 -0.07592773 79.70849609 C-0.19236886 76.26384541 -0.31487662 72.81943592 -0.4375 69.375 C-0.47681641 68.18519531 -0.51613281 66.99539063 -0.55664062 65.76953125 C-0.59853516 64.61582031 -0.64042969 63.46210938 -0.68359375 62.2734375 C-0.72025146 61.21560059 -0.75690918 60.15776367 -0.79467773 59.06787109 C-0.94881235 55.98487386 -0.94881235 55.98487386 -1.52514648 52.91552734 C-1.96985049 50.18511335 -2.05289522 47.83173203 -1.9140625 45.078125 C-1.84832031 43.65886719 -1.84832031 43.65886719 -1.78125 42.2109375 C-1.7296875 41.23382813 -1.678125 40.25671875 -1.625 39.25 C-0.98780571 26.16877615 -0.50345691 13.0898796 0 0 Z " fill="#999999" transform="translate(2,252)"/>
<path d="M0 0 C3.17605751 0.07863353 6.35220859 0.14558139 9.52856445 0.2109375 C37.84539636 0.83050378 37.84539636 0.83050378 39.71801758 2.703125 C39.81977719 4.60065375 39.84885373 6.50208943 39.85083008 8.40234375 C39.85276367 9.65345947 39.85469727 10.9045752 39.85668945 12.19360352 C39.85255484 13.59261199 39.84798434 14.99161923 39.84301758 16.390625 C39.84168823 17.44768143 39.84168823 17.44768143 39.84033203 18.52609253 C39.80978588 39.58913216 39.24054598 60.64773194 38.71801758 81.703125 C22.11548939 82.72728819 5.55623445 82.82811367 -11.07409668 82.77178955 C-14.49429687 82.76135392 -17.91450511 82.7569497 -21.3347168 82.75195312 C-27.98382538 82.74106945 -34.63289953 82.72444562 -41.28198242 82.703125 C-41.25168945 81.46264404 -41.22139648 80.22216309 -41.19018555 78.9440918 C-40.56052116 52.85935366 -40.11414278 26.7957335 -40.28198242 0.703125 C-26.82219185 -0.24369477 -13.48613457 -0.33602453 0 0 Z " fill="#999999" transform="translate(43.281982421875,84.296875)"/>
<path d="M0 0 C1.53127496 0.0018695 3.06255052 0.00329088 4.59382629 0.00428772 C8.5869416 0.00807107 12.58001943 0.01786467 16.57312012 0.0289917 C20.66267388 0.0392967 24.75223382 0.04380464 28.84179688 0.04882812 C36.8385587 0.0594915 44.83529029 0.07651645 52.83203125 0.09765625 C52.76056885 0.73441788 52.68910645 1.3711795 52.61547852 2.02723694 C51.83896755 9.59122514 51.71681327 17.05740796 51.76953125 24.65625 C51.77331787 25.92179214 51.77710449 27.18733429 51.78100586 28.4912262 C51.79517784 33.18242372 51.81842382 37.87354209 51.84240723 42.56469727 C51.86549869 47.17853946 51.88073651 51.79236872 51.89453125 56.40625 C51.90697876 58.19741493 51.90697876 58.19741493 51.91967773 60.02476501 C51.94105984 67.43526161 51.57687965 74.72438141 50.83203125 82.09765625 C-0.70045958 83.296457 -0.70045958 83.296457 -26.16796875 83.09765625 C-26.95737093 74.13814171 -27.35864421 65.23013515 -27.484375 56.23828125 C-27.51554665 54.33354034 -27.51554665 54.33354034 -27.54734802 52.39031982 C-27.60114662 49.05339524 -27.65149907 45.71645584 -27.70019531 42.37945557 C-27.74061534 39.66666881 -27.78453812 36.95394396 -27.82862949 34.24121475 C-27.95383696 26.52683968 -28.07580413 18.81250175 -28.16796875 11.09765625 C-28.1832663 10.17641968 -28.19856384 9.25518311 -28.21432495 8.30603027 C-28.23738098 6.23664301 -28.20900959 4.16676496 -28.16796875 2.09765625 C-23.23774635 -2.83256615 -6.88043021 -0.02495094 0 0 Z " fill="#999999" transform="translate(112.16796875,332.90234375)"/>
<path d="M0 0 C0.99 0.495 0.99 0.495 2 1 C1.67 28.72 1.34 56.44 1 85 C1.66 85 2.32 85 3 85 C4.07650795 88.22952386 4.12927494 90.56021505 4.1328125 93.95703125 C4.13482666 95.19702881 4.13684082 96.43702637 4.13891602 97.71459961 C4.13480731 99.0805681 4.13015337 100.44653505 4.125 101.8125 C4.12378143 102.50441437 4.12256287 103.19632874 4.12130737 103.90921021 C4.09646862 116.08870868 3.86953543 128.26213606 3.5625 140.4375 C3.5429425 141.25151276 3.52338501 142.06552551 3.50323486 142.90420532 C3.30460406 150.9763122 3.09454675 158.98865364 2 167 C1.34 167 0.68 167 0 167 C0 111.89 0 56.78 0 0 Z " fill="#CACACA" transform="translate(0,0)"/>
</svg>
