<svg width="457" height="156" viewBox="0 0 457 156" fill="none" xmlns="http://www.w3.org/2000/svg">
<g clip-path="url(#clip0_2670_6103)">
<path d="M0 9.82227C0 5.40399 3.58172 1.82227 8 1.82227H449C453.418 1.82227 457 5.40399 457 9.82227V148.822C457 153.241 453.418 156.822 449 156.822H8C3.58172 156.822 0 153.241 0 148.822V9.82227Z" fill="#141414"/>
<line opacity="0.1" x1="46.5" y1="-279.178" x2="46.5" y2="298.822" stroke="#95958F" stroke-dasharray="2 2"/>
<line opacity="0.1" x1="97.5" y1="-279.178" x2="97.5" y2="298.822" stroke="#95958F" stroke-dasharray="2 2"/>
<line opacity="0.1" x1="148.5" y1="-279.178" x2="148.5" y2="298.822" stroke="#95958F" stroke-dasharray="2 2"/>
<line opacity="0.1" x1="199.5" y1="-279.178" x2="199.5" y2="298.822" stroke="#95958F" stroke-dasharray="2 2"/>
<line opacity="0.1" x1="250.5" y1="-279.178" x2="250.5" y2="298.822" stroke="#95958F" stroke-dasharray="2 2"/>
<line opacity="0.1" x1="301.5" y1="-279.178" x2="301.5" y2="298.822" stroke="#95958F" stroke-dasharray="2 2"/>
<line opacity="0.1" x1="352.5" y1="-279.178" x2="352.5" y2="298.822" stroke="#95958F" stroke-dasharray="2 2"/>
<line opacity="0.1" x1="403.5" y1="-279.178" x2="403.5" y2="298.822" stroke="#95958F" stroke-dasharray="2 2"/>
<line opacity="0.1" x1="491" y1="30.3223" x2="-42" y2="30.3223" stroke="#95958F" stroke-dasharray="2 2"/>
<line opacity="0.1" x1="491" y1="81.3223" x2="-42" y2="81.3223" stroke="#95958F" stroke-dasharray="2 2"/>
<line opacity="0.1" x1="491" y1="132.322" x2="-42" y2="132.322" stroke="#95958F" stroke-dasharray="2 2"/>
</g>
<path d="M293.341 57.3916L261.679 47.2434C260.037 46.7171 259.216 46.454 258.487 46.5725C257.845 46.6768 257.253 46.9815 256.795 47.443C256.275 47.9677 256.011 48.7887 255.485 50.4305L253.536 56.5123C253.076 57.9464 252.846 58.6635 252.792 59.3902C252.744 60.0345 252.797 60.6824 252.951 61.31C253.124 62.0179 253.468 62.6875 254.157 64.0266L259.997 75.3748C260.785 76.9079 261.18 77.6745 261.183 78.4135C261.185 79.0637 260.982 79.6979 260.602 80.2254C260.17 80.8251 259.403 81.2195 257.87 82.0084L246.522 87.8476C245.183 88.5367 244.514 88.8812 243.961 89.3567C243.472 89.7782 243.051 90.2742 242.716 90.8265C242.338 91.4493 242.108 92.1664 241.648 93.6005L239.699 99.6823C239.173 101.324 238.91 102.145 239.028 102.875C239.132 103.516 239.437 104.109 239.899 104.566C240.423 105.087 241.244 105.35 242.886 105.876L274.548 116.025C276.19 116.551 277.011 116.814 277.74 116.695C278.382 116.591 278.974 116.286 279.432 115.825C279.953 115.3 280.216 114.479 280.742 112.837L282.691 106.756C283.151 105.322 283.381 104.605 283.435 103.878C283.483 103.233 283.43 102.586 283.276 101.958C283.103 101.25 282.759 100.581 282.07 99.2414L276.231 87.8932C275.442 86.3601 275.047 85.5935 275.044 84.8544C275.042 84.2043 275.245 83.5701 275.625 83.0426C276.057 82.4429 276.824 82.0485 278.357 81.2596L289.705 75.4203C291.044 74.7313 291.714 74.3868 292.266 73.9113C292.756 73.4897 293.176 72.9937 293.511 72.4415C293.889 71.8186 294.119 71.1016 294.579 69.6675L296.528 63.5857C297.054 61.9438 297.318 61.1229 297.199 60.3934C297.095 59.7517 296.79 59.1594 296.329 58.7016C295.804 58.181 294.983 57.9179 293.341 57.3916Z" fill="#FCA52A"/>
<path d="M293.341 57.3916L261.679 47.2434C260.037 46.7171 259.216 46.454 258.487 46.5725C257.845 46.6768 257.253 46.9815 256.795 47.443C256.275 47.9677 256.011 48.7887 255.485 50.4305L253.536 56.5123C253.076 57.9464 252.846 58.6635 252.792 59.3902C252.744 60.0345 252.797 60.6824 252.951 61.31C253.124 62.0179 253.468 62.6875 254.157 64.0266L259.997 75.3748C260.785 76.9079 261.18 77.6745 261.183 78.4135C261.185 79.0637 260.982 79.6979 260.602 80.2254C260.17 80.8251 259.403 81.2195 257.87 82.0084L246.522 87.8476C245.183 88.5367 244.514 88.8812 243.961 89.3567C243.472 89.7782 243.051 90.2742 242.716 90.8265C242.338 91.4493 242.108 92.1664 241.648 93.6005L239.699 99.6823C239.173 101.324 238.91 102.145 239.028 102.875C239.132 103.516 239.437 104.109 239.899 104.566C240.423 105.087 241.244 105.35 242.886 105.876L274.548 116.025C276.19 116.551 277.011 116.814 277.74 116.695C278.382 116.591 278.974 116.286 279.432 115.825C279.953 115.3 280.216 114.479 280.742 112.837L282.691 106.756C283.151 105.322 283.381 104.605 283.435 103.878C283.483 103.233 283.43 102.586 283.276 101.958C283.103 101.25 282.759 100.581 282.07 99.2414L276.231 87.8932C275.442 86.3601 275.047 85.5935 275.044 84.8544C275.042 84.2043 275.245 83.5701 275.625 83.0426C276.057 82.4429 276.824 82.0485 278.357 81.2596L289.705 75.4203C291.044 74.7313 291.714 74.3868 292.266 73.9113C292.756 73.4897 293.176 72.9937 293.511 72.4415C293.889 71.8186 294.119 71.1016 294.579 69.6675L296.528 63.5857C297.054 61.9438 297.318 61.1229 297.199 60.3934C297.095 59.7517 296.79 59.1594 296.329 58.7016C295.804 58.181 294.983 57.9179 293.341 57.3916Z" fill="white" fill-opacity="0.7"/>
<path d="M285.43 104.027L283.435 103.878L285.43 104.027C285.493 103.173 285.422 102.315 285.219 101.483C284.989 100.541 284.541 99.6709 283.943 98.5095C283.911 98.4492 283.88 98.3882 283.848 98.3263L278.009 86.9781C277.599 86.1822 277.349 85.6915 277.19 85.3088C277.04 84.9478 277.044 84.8468 277.044 84.8465C277.043 84.6187 277.115 84.3965 277.248 84.2117C277.248 84.2114 277.303 84.1266 277.635 83.92C277.987 83.701 278.476 83.4475 279.272 83.038L290.62 77.1987C290.682 77.1669 290.743 77.1355 290.803 77.1045C291.965 76.5073 292.836 76.0599 293.571 75.4269C294.219 74.8684 294.776 74.2113 295.221 73.4797C295.724 72.6505 296.022 71.7184 296.421 70.4742C296.441 70.4096 296.462 70.3442 296.483 70.2779L298.433 64.1962L298.455 64.1271C298.699 63.3654 298.918 62.6829 299.053 62.1008C299.198 61.4782 299.292 60.8018 299.173 60.0726C299.001 59.014 298.498 58.0371 297.737 57.2817C297.213 56.7615 296.608 56.4442 296.017 56.2002C295.465 55.972 294.782 55.7533 294.021 55.5093L293.951 55.4871L262.29 45.3388L262.22 45.3166C261.459 45.0725 260.776 44.8537 260.194 44.7182C259.572 44.5733 258.895 44.4799 258.166 44.5984C257.108 44.7704 256.131 45.2731 255.375 46.0345C254.855 46.5589 254.538 47.1636 254.294 47.7543C254.066 48.3068 253.847 48.9893 253.603 49.7509L253.581 49.8201L251.631 55.9019C251.61 55.9681 251.589 56.0335 251.568 56.098C251.169 57.3419 250.87 58.2737 250.798 59.2412C250.734 60.0948 250.805 60.9531 251.008 61.7846C251.238 62.7271 251.686 63.5971 252.285 64.7584C252.316 64.8187 252.347 64.8798 252.379 64.9416L258.218 76.2899C258.628 77.0858 258.878 77.5764 259.037 77.9591C259.186 78.3172 259.183 78.4194 259.183 78.4215V78.4215C259.184 78.6493 259.113 78.8715 258.979 79.0563C258.979 79.0566 258.924 79.1414 258.592 79.348C258.24 79.567 257.751 79.8204 256.955 80.23L245.607 86.0693C245.545 86.1011 245.484 86.1325 245.424 86.1635C244.262 86.7607 243.392 87.208 242.656 87.8411C242.008 88.3996 241.451 89.0567 241.007 89.7883C240.503 90.6175 240.205 91.5496 239.807 92.7938C239.786 92.8584 239.765 92.9238 239.744 92.9901L237.794 99.0718L237.772 99.141C237.528 99.9026 237.309 100.585 237.174 101.167C237.029 101.79 236.935 102.466 237.054 103.195C237.226 104.254 237.729 105.231 238.49 105.986C239.014 106.507 239.619 106.824 240.21 107.068C240.762 107.296 241.445 107.515 242.206 107.759L242.276 107.781L273.937 117.929L274.007 117.951C274.768 118.196 275.451 118.414 276.033 118.55C276.655 118.695 277.332 118.788 278.061 118.67C279.12 118.498 280.097 117.995 280.852 117.234C281.372 116.709 281.689 116.104 281.933 115.514C282.162 114.961 282.38 114.279 282.624 113.517L282.647 113.448L284.596 107.366C284.617 107.3 284.638 107.235 284.659 107.17C285.058 105.926 285.357 104.994 285.43 104.027Z" stroke="#262929" stroke-width="4"/>
<path d="M249.117 95.6069L275.753 104.144C277.218 104.614 278.025 106.182 277.555 107.647L277.004 109.367C276.534 110.832 274.966 111.639 273.501 111.17L246.865 102.632C245.4 102.163 244.593 100.594 245.062 99.1294L245.614 97.4093C246.083 95.9443 247.652 95.1373 249.117 95.6069Z" fill="#F75150" stroke="#262929" stroke-width="1.85703"/>
<g clip-path="url(#clip1_2670_6103)" filter="url(#filter0_dd_2670_6103)">
<g filter="url(#filter1_dd_2670_6103)">
<path d="M227.919 28.2178L229.067 36.8001C229.228 38.003 229.309 38.6045 229.528 39.1465C229.722 39.6269 229.995 40.0713 230.336 40.4614C230.721 40.9014 231.221 41.2447 232.222 41.9313L239.362 46.8298L230.78 47.9783C229.577 48.1393 228.975 48.2198 228.433 48.4388C227.953 48.6329 227.509 48.9061 227.119 49.2472C226.679 49.632 226.335 50.1324 225.649 51.1332L220.75 58.2732L219.602 49.6909C219.441 48.488 219.36 47.8865 219.141 47.3445C218.947 46.8641 218.674 46.4197 218.333 46.0296C217.948 45.5896 217.448 45.2463 216.447 44.5597L209.307 39.6612L217.889 38.5127C219.092 38.3517 219.693 38.2712 220.236 38.0522C220.716 37.8581 221.16 37.5849 221.55 37.2438C221.99 36.859 222.334 36.3586 223.02 35.3578L227.919 28.2178Z" fill="#FCA52A"/>
<path d="M227.919 28.2178L229.067 36.8001C229.228 38.003 229.309 38.6045 229.528 39.1465C229.722 39.6269 229.995 40.0713 230.336 40.4614C230.721 40.9014 231.221 41.2447 232.222 41.9313L239.362 46.8298L230.78 47.9783C229.577 48.1393 228.975 48.2198 228.433 48.4388C227.953 48.6329 227.509 48.9061 227.119 49.2472C226.679 49.632 226.335 50.1324 225.649 51.1332L220.75 58.2732L219.602 49.6909C219.441 48.488 219.36 47.8865 219.141 47.3445C218.947 46.8641 218.674 46.4197 218.333 46.0296C217.948 45.5896 217.448 45.2463 216.447 44.5597L209.307 39.6612L217.889 38.5127C219.092 38.3517 219.693 38.2712 220.236 38.0522C220.716 37.8581 221.16 37.5849 221.55 37.2438C221.99 36.859 222.334 36.3586 223.02 35.3578L227.919 28.2178Z" fill="white" fill-opacity="0.4"/>
<path d="M227.919 28.2178L229.067 36.8001C229.228 38.003 229.309 38.6045 229.528 39.1465C229.722 39.6269 229.995 40.0713 230.336 40.4614C230.721 40.9014 231.221 41.2447 232.222 41.9313L239.362 46.8298L230.78 47.9783C229.577 48.1393 228.975 48.2198 228.433 48.4388C227.953 48.6329 227.509 48.9061 227.119 49.2472C226.679 49.632 226.335 50.1324 225.649 51.1332L220.75 58.2732L219.602 49.6909C219.441 48.488 219.36 47.8865 219.141 47.3445C218.947 46.8641 218.674 46.4197 218.333 46.0296C217.948 45.5896 217.448 45.2463 216.447 44.5597L209.307 39.6612L217.889 38.5127C219.092 38.3517 219.693 38.2712 220.236 38.0522C220.716 37.8581 221.16 37.5849 221.55 37.2438C221.99 36.859 222.334 36.3586 223.02 35.3578L227.919 28.2178Z" stroke="#262929" stroke-width="4" stroke-linecap="round" stroke-linejoin="round"/>
</g>
</g>
<g filter="url(#filter2_dd_2670_6103)">
<path d="M173.658 99.0376L176.838 101.505C177.784 102.24 178.923 102.685 180.114 102.785C181.306 102.886 182.501 102.638 183.553 102.071C184.605 101.505 185.47 100.645 186.043 99.5951C186.615 98.545 186.871 97.3502 186.779 96.1557L186.471 92.1417C186.364 90.7165 186.708 89.2949 187.455 88.0794C188.208 86.8585 189.327 85.9084 190.654 85.3652L194.37 83.849C195.476 83.3969 196.427 82.6328 197.106 81.6493C197.786 80.6658 198.166 79.5052 198.2 78.3081C198.234 77.1111 197.922 75.9289 197.299 74.9049C196.677 73.8808 195.772 73.0589 194.693 72.5389L191.069 70.7905C189.774 70.1603 188.712 69.1349 188.035 67.8622C187.353 66.5964 187.089 65.1479 187.28 63.7247L187.818 59.7365C187.978 58.5501 187.79 57.3419 187.278 56.2584C186.767 55.1748 185.952 54.2626 184.934 53.6323C183.916 53.001 182.738 52.6786 181.543 52.7042C180.348 52.7297 179.187 53.1021 178.2 53.7762L174.887 56.043C173.703 56.8507 172.294 57.2619 170.86 57.2176C169.43 57.169 168.051 56.6682 166.921 55.7871L163.729 53.3251C162.783 52.5901 161.645 52.1455 160.453 52.045C159.261 51.9445 158.067 52.1926 157.015 52.759C155.962 53.3251 155.097 54.1854 154.525 55.2354C153.952 56.2855 153.696 57.4802 153.788 58.6748L154.096 62.6888C154.209 64.1177 153.867 65.5446 153.12 66.7648C152.367 67.9857 151.247 68.9358 149.921 69.479L146.193 71.0011C145.087 71.4531 144.137 72.2172 143.457 73.2007C142.778 74.1842 142.398 75.3449 142.364 76.542C142.329 77.7389 142.642 78.9211 143.264 79.9452C143.887 80.9692 144.792 81.7911 145.87 82.3111L149.495 84.0596C150.788 84.684 151.851 85.7023 152.532 86.9683C153.214 88.2341 153.478 89.6825 153.287 91.1058L152.75 95.094C152.59 96.2803 152.777 97.4886 153.289 98.5721C153.801 99.6557 154.615 100.568 155.633 101.198C156.651 101.829 157.829 102.151 159.024 102.125C160.219 102.1 161.38 101.728 162.367 101.054L165.68 98.7875C166.864 97.9798 168.273 97.5686 169.707 97.6129C171.14 97.6575 172.523 98.1563 173.658 99.0376Z" fill="#F75150"/>
<path d="M174.26 84.8145C178.332 82.6229 179.851 77.5346 177.653 73.4494C175.454 69.3642 170.371 67.8292 166.299 70.0207C162.226 72.2123 160.707 77.3006 162.906 81.3858C165.104 85.471 170.188 87.0061 174.26 84.8145Z" fill="#F75150"/>
<path d="M173.658 99.0376L176.838 101.505C177.784 102.24 178.923 102.685 180.114 102.785C181.306 102.886 182.501 102.638 183.553 102.071C184.605 101.505 185.47 100.645 186.043 99.5951C186.615 98.545 186.871 97.3502 186.779 96.1557L186.471 92.1417C186.364 90.7165 186.708 89.2949 187.455 88.0794C188.208 86.8585 189.327 85.9084 190.654 85.3652L194.37 83.849C195.476 83.3969 196.427 82.6328 197.106 81.6493C197.786 80.6658 198.166 79.5052 198.2 78.3081C198.234 77.1111 197.922 75.9289 197.299 74.9049C196.677 73.8808 195.772 73.0589 194.693 72.5389L191.069 70.7905C189.774 70.1603 188.712 69.1349 188.035 67.8622C187.353 66.5964 187.089 65.1479 187.28 63.7247L187.818 59.7365C187.978 58.5501 187.79 57.3419 187.278 56.2584C186.767 55.1748 185.952 54.2626 184.934 53.6323C183.916 53.001 182.738 52.6786 181.543 52.7042C180.348 52.7297 179.187 53.1021 178.2 53.7762L174.887 56.043C173.703 56.8507 172.294 57.2619 170.86 57.2176C169.43 57.169 168.051 56.6682 166.921 55.7871L163.729 53.3251C162.783 52.5901 161.645 52.1455 160.453 52.045C159.261 51.9445 158.067 52.1926 157.015 52.759C155.962 53.3251 155.097 54.1854 154.525 55.2354C153.952 56.2855 153.696 57.4802 153.788 58.6748L154.096 62.6888C154.209 64.1177 153.867 65.5446 153.12 66.7648C152.367 67.9857 151.247 68.9358 149.921 69.479L146.193 71.0011C145.087 71.4531 144.137 72.2172 143.457 73.2007C142.778 74.1842 142.398 75.3449 142.364 76.542C142.329 77.7389 142.642 78.9211 143.264 79.9452C143.887 80.9692 144.792 81.7911 145.87 82.3111L149.495 84.0596C150.788 84.684 151.851 85.7023 152.532 86.9683C153.214 88.2341 153.478 89.6825 153.287 91.1058L152.75 95.094C152.59 96.2803 152.777 97.4886 153.289 98.5721C153.801 99.6557 154.615 100.568 155.633 101.198C156.651 101.829 157.829 102.151 159.024 102.125C160.219 102.1 161.38 101.728 162.367 101.054L165.68 98.7875C166.864 97.9798 168.273 97.5686 169.707 97.6129C171.14 97.6575 172.523 98.1563 173.658 99.0376Z" stroke="#262929" stroke-width="4" stroke-linecap="round" stroke-linejoin="round"/>
<path d="M174.26 84.8145C178.332 82.6229 179.851 77.5346 177.653 73.4494C175.454 69.3642 170.371 67.8292 166.299 70.0207C162.226 72.2123 160.707 77.3006 162.906 81.3858C165.104 85.471 170.188 87.0061 174.26 84.8145Z" stroke="#262929" stroke-width="4" stroke-linecap="round" stroke-linejoin="round"/>
</g>
<defs>
<filter id="filter0_dd_2670_6103" x="190" y="12.9111" width="68.6689" height="68.6687" filterUnits="userSpaceOnUse" color-interpolation-filters="sRGB">
<feFlood flood-opacity="0" result="BackgroundImageFix"/>
<feColorMatrix in="SourceAlpha" type="matrix" values="0 0 0 0 0 0 0 0 0 0 0 0 0 0 0 0 0 0 127 0" result="hardAlpha"/>
<feOffset dy="2"/>
<feGaussianBlur stdDeviation="1"/>
<feComposite in2="hardAlpha" operator="out"/>
<feColorMatrix type="matrix" values="0 0 0 0 0 0 0 0 0 0 0 0 0 0 0 0 0 0 0.03 0"/>
<feBlend mode="normal" in2="BackgroundImageFix" result="effect1_dropShadow_2670_6103"/>
<feColorMatrix in="SourceAlpha" type="matrix" values="0 0 0 0 0 0 0 0 0 0 0 0 0 0 0 0 0 0 127 0" result="hardAlpha"/>
<feOffset dy="4"/>
<feGaussianBlur stdDeviation="6"/>
<feComposite in2="hardAlpha" operator="out"/>
<feColorMatrix type="matrix" values="0 0 0 0 0 0 0 0 0 0 0 0 0 0 0 0 0 0 0.02 0"/>
<feBlend mode="normal" in2="effect1_dropShadow_2670_6103" result="effect2_dropShadow_2670_6103"/>
<feBlend mode="normal" in="SourceGraphic" in2="effect2_dropShadow_2670_6103" result="shape"/>
</filter>
<filter id="filter1_dd_2670_6103" x="195.307" y="18.2178" width="58.0557" height="58.0555" filterUnits="userSpaceOnUse" color-interpolation-filters="sRGB">
<feFlood flood-opacity="0" result="BackgroundImageFix"/>
<feColorMatrix in="SourceAlpha" type="matrix" values="0 0 0 0 0 0 0 0 0 0 0 0 0 0 0 0 0 0 127 0" result="hardAlpha"/>
<feOffset dy="2"/>
<feGaussianBlur stdDeviation="1"/>
<feComposite in2="hardAlpha" operator="out"/>
<feColorMatrix type="matrix" values="0 0 0 0 0 0 0 0 0 0 0 0 0 0 0 0 0 0 0.03 0"/>
<feBlend mode="normal" in2="BackgroundImageFix" result="effect1_dropShadow_2670_6103"/>
<feColorMatrix in="SourceAlpha" type="matrix" values="0 0 0 0 0 0 0 0 0 0 0 0 0 0 0 0 0 0 127 0" result="hardAlpha"/>
<feOffset dy="4"/>
<feGaussianBlur stdDeviation="6"/>
<feComposite in2="hardAlpha" operator="out"/>
<feColorMatrix type="matrix" values="0 0 0 0 0 0 0 0 0 0 0 0 0 0 0 0 0 0 0.02 0"/>
<feBlend mode="normal" in2="effect1_dropShadow_2670_6103" result="effect2_dropShadow_2670_6103"/>
<feBlend mode="normal" in="SourceGraphic" in2="effect2_dropShadow_2670_6103" result="shape"/>
</filter>
<filter id="filter2_dd_2670_6103" x="128.361" y="42.0232" width="83.8408" height="78.7841" filterUnits="userSpaceOnUse" color-interpolation-filters="sRGB">
<feFlood flood-opacity="0" result="BackgroundImageFix"/>
<feColorMatrix in="SourceAlpha" type="matrix" values="0 0 0 0 0 0 0 0 0 0 0 0 0 0 0 0 0 0 127 0" result="hardAlpha"/>
<feOffset dy="2"/>
<feGaussianBlur stdDeviation="1"/>
<feComposite in2="hardAlpha" operator="out"/>
<feColorMatrix type="matrix" values="0 0 0 0 0 0 0 0 0 0 0 0 0 0 0 0 0 0 0.03 0"/>
<feBlend mode="normal" in2="BackgroundImageFix" result="effect1_dropShadow_2670_6103"/>
<feColorMatrix in="SourceAlpha" type="matrix" values="0 0 0 0 0 0 0 0 0 0 0 0 0 0 0 0 0 0 127 0" result="hardAlpha"/>
<feOffset dy="4"/>
<feGaussianBlur stdDeviation="6"/>
<feComposite in2="hardAlpha" operator="out"/>
<feColorMatrix type="matrix" values="0 0 0 0 0 0 0 0 0 0 0 0 0 0 0 0 0 0 0.02 0"/>
<feBlend mode="normal" in2="effect1_dropShadow_2670_6103" result="effect2_dropShadow_2670_6103"/>
<feBlend mode="normal" in="SourceGraphic" in2="effect2_dropShadow_2670_6103" result="shape"/>
</filter>
<clipPath id="clip0_2670_6103">
<rect width="457" height="155" fill="white" transform="translate(0 0.911133)"/>
</clipPath>
<clipPath id="clip1_2670_6103">
<rect width="37.0781" height="37.0781" fill="white" transform="translate(210.603 20.9111) rotate(13.4152)"/>
</clipPath>
</defs>
</svg>
