<svg width="132" height="122" viewBox="0 0 132 122" fill="none" xmlns="http://www.w3.org/2000/svg">
    <path d="M128.136 72.3311L81.7699 2.18735C81.5403 1.84776 81.0111 1.98759 80.9911 2.39709C80.8813 4.1749 79.3837 13.6532 68.7007 13.6532C60.0345 13.6532 56.0309 12.0952 47.1051 12.0952C44.02 12.0952 40.3458 13.843 38.4189 16.7694L34.7747 22.2826L69.6592 75.0378H83.3075C87.3311 75.0378 91.0851 77.0553 93.3016 80.4112L101.628 93.0257H130.003V78.5235C130.003 76.3262 129.354 74.1688 128.136 72.3311ZM90.0867 42.288C84.4856 40.0208 80.1225 30.0731 80.1225 30.0731C91.4445 30.0731 99.0724 43.5665 99.0724 43.5665C99.0724 43.5665 95.6978 44.5553 90.0967 42.288H90.0867Z" fill="#EAEBEA"/>
    <path d="M86.1729 119.992H34.9344C31.2503 119.992 27.8257 118.155 25.789 115.079L3.98366 82.0891C1.32789 78.074 1.32789 72.8704 3.98366 68.8554L28.2451 32.1904H28.255L86.1729 120.002V119.992Z" fill="#EAEBEA"/>
</svg>
