<svg width="320" height="100" viewBox="0 0 320 100" fill="none" xmlns="http://www.w3.org/2000/svg">
<g clip-path="url(#clip0_2423_4569)">
<g opacity="0.2" filter="url(#filter0_f_2423_4569)">
<ellipse cx="159.335" cy="53.171" rx="87.665" ry="12.829" transform="rotate(-180 159.335 53.171)" fill="#F75150"/>
</g>
<g clip-path="url(#clip1_2423_4569)" filter="url(#filter1_dd_2423_4569)">
<g filter="url(#filter2_dd_2423_4569)">
<path d="M40.1664 14.249L40.7705 21.8544C40.8552 22.9204 40.8975 23.4534 41.0645 23.9407C41.2125 24.3725 41.4319 24.7765 41.7135 25.1358C42.0313 25.5412 42.4553 25.867 43.3033 26.5185L49.3533 31.1665L41.7479 31.7705C40.6819 31.8552 40.1489 31.8975 39.6616 32.0646C39.2298 32.2126 38.8258 32.4319 38.4665 32.7136C38.0611 33.0313 37.7354 33.4553 37.0839 34.3033L32.4358 40.3534L31.8318 32.748C31.7471 31.6819 31.7048 31.1489 31.5378 30.6617C31.3897 30.2298 31.1704 29.8258 30.8888 29.4665C30.571 29.0611 30.147 28.7354 29.299 28.0839L23.249 23.4359L30.8543 22.8318C31.9204 22.7471 32.4534 22.7048 32.9407 22.5378C33.3725 22.3898 33.7765 22.1704 34.1358 21.8888C34.5412 21.571 34.8669 21.147 35.5184 20.299L40.1664 14.249Z" fill="#FCA52A"/>
<path d="M40.1664 14.249L40.7705 21.8544C40.8552 22.9204 40.8975 23.4534 41.0645 23.9407C41.2125 24.3725 41.4319 24.7765 41.7135 25.1358C42.0313 25.5412 42.4553 25.867 43.3033 26.5185L49.3533 31.1665L41.7479 31.7705C40.6819 31.8552 40.1489 31.8975 39.6616 32.0646C39.2298 32.2126 38.8258 32.4319 38.4665 32.7136C38.0611 33.0313 37.7354 33.4553 37.0839 34.3033L32.4358 40.3534L31.8318 32.748C31.7471 31.6819 31.7048 31.1489 31.5378 30.6617C31.3897 30.2298 31.1704 29.8258 30.8888 29.4665C30.571 29.0611 30.147 28.7354 29.299 28.0839L23.249 23.4359L30.8543 22.8318C31.9204 22.7471 32.4534 22.7048 32.9407 22.5378C33.3725 22.3898 33.7765 22.1704 34.1358 21.8888C34.5412 21.571 34.8669 21.147 35.5184 20.299L40.1664 14.249Z" fill="white" fill-opacity="0.4"/>
<path d="M40.1664 14.249L40.7705 21.8544C40.8552 22.9204 40.8975 23.4534 41.0645 23.9407C41.2125 24.3725 41.4319 24.7765 41.7135 25.1358C42.0313 25.5412 42.4553 25.867 43.3033 26.5185L49.3533 31.1665L41.7479 31.7705C40.6819 31.8552 40.1489 31.8975 39.6616 32.0646C39.2298 32.2126 38.8258 32.4319 38.4665 32.7136C38.0611 33.0313 37.7354 33.4553 37.0839 34.3033L32.4358 40.3534L31.8318 32.748C31.7471 31.6819 31.7048 31.1489 31.5378 30.6617C31.3897 30.2298 31.1704 29.8258 30.8888 29.4665C30.571 29.0611 30.147 28.7354 29.299 28.0839L23.249 23.4359L30.8543 22.8318C31.9204 22.7471 32.4534 22.7048 32.9407 22.5378C33.3725 22.3898 33.7765 22.1704 34.1358 21.8888C34.5412 21.571 34.8669 21.147 35.5184 20.299L40.1664 14.249Z" stroke="white" stroke-width="3.52446" stroke-linecap="round" stroke-linejoin="round"/>
</g>
</g>
<g clip-path="url(#clip2_2423_4569)" filter="url(#filter3_dd_2423_4569)">
<g filter="url(#filter4_dd_2423_4569)">
<path d="M205.583 10.3558L211.452 15.231C212.274 15.9143 212.685 16.256 213.151 16.4765C213.564 16.6718 214.006 16.7967 214.46 16.8457C214.972 16.9011 215.501 16.8248 216.56 16.6721L224.111 15.583L219.236 21.4515C218.552 22.2741 218.211 22.6854 217.99 23.1509C217.795 23.5635 217.67 24.0059 217.621 24.4598C217.565 24.9719 217.642 25.5011 217.794 26.5595L218.884 34.1107L213.015 29.2355C212.192 28.5522 211.781 28.2105 211.316 27.99C210.903 27.7947 210.461 27.6698 210.007 27.6208C209.495 27.5654 208.965 27.6417 207.907 27.7944L200.356 28.8835L205.231 23.015C205.914 22.1924 206.256 21.7811 206.476 21.3156C206.672 20.903 206.797 20.4606 206.846 20.0067C206.901 19.4946 206.825 18.9654 206.672 17.907L205.583 10.3558Z" fill="#F75150"/>
<path d="M205.583 10.3558L211.452 15.231C212.274 15.9143 212.685 16.256 213.151 16.4765C213.564 16.6718 214.006 16.7967 214.46 16.8457C214.972 16.9011 215.501 16.8248 216.56 16.6721L224.111 15.583L219.236 21.4515C218.552 22.2741 218.211 22.6854 217.99 23.1509C217.795 23.5635 217.67 24.0059 217.621 24.4598C217.565 24.9719 217.642 25.5011 217.794 26.5595L218.884 34.1107L213.015 29.2355C212.192 28.5522 211.781 28.2105 211.316 27.99C210.903 27.7947 210.461 27.6698 210.007 27.6208C209.495 27.5654 208.965 27.6417 207.907 27.7944L200.356 28.8835L205.231 23.015C205.914 22.1924 206.256 21.7811 206.476 21.3156C206.672 20.903 206.797 20.4606 206.846 20.0067C206.901 19.4946 206.825 18.9654 206.672 17.907L205.583 10.3558Z" stroke="white" stroke-width="3.52446" stroke-linecap="round" stroke-linejoin="round"/>
</g>
</g>
<g filter="url(#filter5_d_2423_4569)">
<mask id="path-4-outside-1_2423_4569" maskUnits="userSpaceOnUse" x="55.9355" y="48.3203" width="35" height="36" fill="black">
<rect fill="white" x="55.9355" y="48.3203" width="35" height="36"/>
<path d="M70.4088 65.0052C71.0782 68.8149 71.9407 72.5993 72.7729 76.1205C73.1585 77.7011 74.4778 78.4023 76.3011 77.9906L76.4925 77.9499C76.5128 77.9456 76.5318 77.9416 76.5522 77.9372C78.3464 77.5559 79.2432 76.3893 78.9561 74.8048C78.2912 71.2764 77.544 67.4874 76.595 63.6902C76.1644 61.9448 74.453 61.6546 72.995 61.9631C71.5388 62.2726 70.0949 63.2349 70.4085 65.0038L70.4088 65.0052Z"/>
<path d="M64.1032 63.3299L62.1814 63.7384C61.8472 63.808 61.6321 64.1374 61.7034 64.4727L65.0616 80.2721C65.1326 80.6059 65.462 80.821 65.7973 80.7498L67.7191 80.3413C69.6043 79.9406 70.8119 78.0809 70.4112 76.1958L68.249 66.0234C67.8483 64.1382 65.9887 62.9306 64.1035 63.3313L64.1032 63.3299Z"/>
<path d="M60.427 57.0057C60.0917 57.0769 59.878 57.4061 59.9492 57.7413L60.2467 59.1406C60.6474 61.0258 62.507 62.2335 64.3922 61.8328L67.3279 61.2088C67.3398 61.2048 67.3588 61.2008 67.3859 61.195C67.4022 61.1915 67.4239 61.1869 67.4494 61.1801L67.4657 61.1766C67.5152 61.1689 67.5654 61.1583 67.6156 61.1476C67.636 61.1433 67.6658 61.1369 67.6995 61.1284L67.842 61.0981C67.868 61.0939 67.902 61.0867 67.9448 61.0748L67.9611 61.0713C68.0008 61.0643 68.0391 61.0576 68.0781 61.0479C68.0998 61.0433 68.127 61.0375 68.1617 61.0273L68.178 61.0238C68.2298 61.0142 68.2695 61.0072 68.3143 60.9977C68.3319 60.9939 68.3509 60.9899 68.3751 60.9833L68.3914 60.9799C68.4408 60.9722 68.4896 60.9618 68.5412 60.9509C68.5643 60.9459 68.5914 60.9402 68.6234 60.9305L68.6397 60.9271C68.6834 60.9192 68.7302 60.9121 68.7747 60.9012C68.8045 60.8949 68.8385 60.8877 68.8786 60.8763L68.8962 60.8726C68.9305 60.8667 68.9668 60.8576 68.9997 60.852C69.0214 60.8474 69.0458 60.8422 69.0727 60.835L69.0876 60.8319C69.1381 60.8226 69.1845 60.8141 69.2334 60.8037C69.2565 60.7988 69.2836 60.793 69.3115 60.7843L69.3278 60.7808C69.3716 60.7729 69.4166 60.7648 69.4601 60.7555C69.4913 60.7489 69.5266 60.7414 69.5681 60.7298L69.5843 60.7263C69.6186 60.7204 69.6536 60.7116 69.6878 60.7057C69.7122 60.7005 69.7434 60.6939 69.7768 60.684L69.7944 60.6802C69.8449 60.6709 69.8802 60.6634 69.9172 60.657C69.9389 60.6524 69.9647 60.6469 69.9929 60.6395C70.0569 60.6273 70.1061 60.6182 70.1536 60.6081C70.178 60.6029 70.2052 60.5972 70.2345 60.5881L70.2535 60.5841C70.2972 60.5762 70.3382 60.5689 70.3816 60.5597C70.406 60.5545 70.4332 60.5487 70.4625 60.5396L70.4788 60.5362C70.5238 60.528 70.5675 60.5201 70.6096 60.5112C70.6408 60.5046 70.6788 60.4965 70.7163 60.4857L70.7326 60.4822C70.7668 60.4764 70.8023 60.4702 70.8346 60.462C70.8591 60.4568 70.8848 60.4513 70.9144 60.4436L70.9307 60.4401C70.9788 60.4327 71.0209 60.4238 71.0643 60.4146C71.0996 60.4071 71.1403 60.3984 71.1818 60.3867L71.1981 60.3833C71.2309 60.3777 71.2638 60.3721 71.2934 60.3644C71.3219 60.3584 71.3558 60.3512 71.3905 60.341L71.4068 60.3375C71.4587 60.3279 71.4929 60.322 71.5309 60.314C71.5553 60.3088 71.5811 60.3033 71.6093 60.2959L71.6256 60.2924C71.671 60.2856 71.716 60.2774 71.7565 60.2674C71.7877 60.2608 71.8216 60.2536 71.859 60.2428L71.8753 60.2393C71.9204 60.2312 71.9587 60.2244 71.994 60.2169C72.0266 60.21 72.0578 60.2034 72.0925 60.1932L72.1088 60.1897C72.1538 60.1815 72.1908 60.1751 72.2261 60.1676C72.2559 60.1613 72.2871 60.1546 72.3205 60.1447L72.3368 60.1412C72.3819 60.1331 72.4188 60.1266 72.4554 60.1189C72.4867 60.1122 72.5179 60.1056 72.5512 60.0957L72.5675 60.0922C72.6139 60.0837 72.6495 60.0776 72.6875 60.0695C72.7242 60.0617 72.7622 60.0537 72.7996 60.0429L72.9068 60.0201C72.941 60.0142 72.975 60.007 73.011 59.9965L73.0273 59.993C73.0792 59.9834 73.112 59.9779 73.1473 59.9704C73.1772 59.964 73.2111 59.9568 73.2431 59.9472L73.2757 59.9403C73.3113 59.9341 73.3428 59.9288 73.374 59.9222C73.4025 59.9161 73.431 59.9101 73.4619 59.9021L73.485 59.8972C73.5263 59.8912 73.5643 59.8832 73.6009 59.8754C73.6362 59.8679 73.6742 59.8598 73.7116 59.849L73.7279 59.8455C73.7676 59.8385 73.8059 59.8318 73.8398 59.8246C73.8737 59.8174 73.9063 59.8105 73.9397 59.8005L73.9559 59.7971C74.0037 59.7883 74.0355 59.7844 74.0651 59.7767C74.0936 59.7707 74.1275 59.7634 74.1571 59.7557L74.1734 59.7523C74.2147 59.7463 74.254 59.738 74.2893 59.7305C74.3395 59.7198 74.3908 59.7075 74.4443 59.6919L74.5189 59.676C74.5583 59.6676 74.5963 59.6596 74.6364 59.6482L74.6527 59.6447C74.6937 59.6374 74.7266 59.6319 74.7564 59.6255C74.7917 59.618 74.827 59.6105 74.8644 59.5997L74.8807 59.5963C74.9217 59.589 74.9546 59.5834 74.9844 59.577C75.017 59.5701 75.0509 59.5629 75.0859 59.5541L75.1022 59.5506C75.1435 59.5447 75.1785 59.5358 75.2114 59.5302C75.248 59.5224 75.286 59.5144 75.3234 59.5036L75.3411 59.4998C75.3835 59.4922 75.4163 59.4867 75.4462 59.4803C75.4828 59.4725 75.5208 59.4645 75.5582 59.4537L75.5745 59.4502C75.6237 59.4412 75.6511 59.4368 75.6796 59.4307C75.7163 59.4229 75.7556 59.4145 75.793 59.4038L75.8093 59.4003C75.8544 59.3921 75.8848 59.3885 75.9103 59.3817C75.947 59.3739 75.985 59.3658 76.0224 59.355L76.0563 59.3478C76.0876 59.3412 76.1136 59.337 76.1384 59.3332C76.1831 59.3237 76.2279 59.3142 76.2735 59.3016L76.2898 59.2982C76.3156 59.2927 76.3386 59.2878 76.3617 59.2829C76.4024 59.2742 76.4459 59.265 76.4874 59.2533L76.5037 59.2499C76.5474 59.242 76.5764 59.2387 76.6006 59.2321C76.6399 59.2237 76.6807 59.2151 76.7222 59.2034L76.7561 59.1962C76.7832 59.1904 76.8055 59.1885 76.8272 59.1839C76.8612 59.1767 76.8978 59.1689 76.9328 59.1601L76.9491 59.1566C76.9918 59.1504 77.026 59.1445 77.0542 59.1371C77.0976 59.1279 77.1397 59.1189 77.1853 59.1064L77.2178 59.0995C77.2491 59.0929 77.2741 59.0904 77.2944 59.086C77.3351 59.0774 77.3745 59.069 77.416 59.0574L77.4553 59.049C77.4838 59.0429 77.5061 59.041 77.5235 59.0359C77.5696 59.0261 77.6185 59.0157 77.6641 59.0032L77.6804 58.9998C77.7078 58.9953 77.7339 58.9912 77.7512 58.9861C77.7865 58.9786 77.8245 58.9705 77.8609 58.9614L78.0077 58.9245L78.0097 58.934L80.7464 58.3551C82.6316 57.9544 83.8392 56.0948 83.4385 54.2096L83.1414 52.8117C83.0704 52.4778 82.741 52.2627 82.4058 52.334L60.427 57.0057Z"/>
<path d="M83.598 59.1846L81.6762 59.5931C79.791 59.9938 78.5834 61.8535 78.9841 63.7387L81.1463 73.911C81.547 75.7962 83.4066 77.0039 85.2918 76.6031L87.2136 76.1947C87.5475 76.1237 87.7626 75.7943 87.6913 75.459L84.3337 59.6624C84.2627 59.3285 83.9333 59.1134 83.598 59.1846Z"/>
</mask>
<path d="M70.4088 65.0052C71.0782 68.8149 71.9407 72.5993 72.7729 76.1205C73.1585 77.7011 74.4778 78.4023 76.3011 77.9906L76.4925 77.9499C76.5128 77.9456 76.5318 77.9416 76.5522 77.9372C78.3464 77.5559 79.2432 76.3893 78.9561 74.8048C78.2912 71.2764 77.544 67.4874 76.595 63.6902C76.1644 61.9448 74.453 61.6546 72.995 61.9631C71.5388 62.2726 70.0949 63.2349 70.4085 65.0038L70.4088 65.0052Z" fill="#F75150"/>
<path d="M64.1032 63.3299L62.1814 63.7384C61.8472 63.808 61.6321 64.1374 61.7034 64.4727L65.0616 80.2721C65.1326 80.6059 65.462 80.821 65.7973 80.7498L67.7191 80.3413C69.6043 79.9406 70.8119 78.0809 70.4112 76.1958L68.249 66.0234C67.8483 64.1382 65.9887 62.9306 64.1035 63.3313L64.1032 63.3299Z" fill="#F75150"/>
<path d="M60.427 57.0057C60.0917 57.0769 59.878 57.4061 59.9492 57.7413L60.2467 59.1406C60.6474 61.0258 62.507 62.2335 64.3922 61.8328L67.3279 61.2088C67.3398 61.2048 67.3588 61.2008 67.3859 61.195C67.4022 61.1915 67.4239 61.1869 67.4494 61.1801L67.4657 61.1766C67.5152 61.1689 67.5654 61.1583 67.6156 61.1476C67.636 61.1433 67.6658 61.1369 67.6995 61.1284L67.842 61.0981C67.868 61.0939 67.902 61.0867 67.9448 61.0748L67.9611 61.0713C68.0008 61.0643 68.0391 61.0576 68.0781 61.0479C68.0998 61.0433 68.127 61.0375 68.1617 61.0273L68.178 61.0238C68.2298 61.0142 68.2695 61.0072 68.3143 60.9977C68.3319 60.9939 68.3509 60.9899 68.3751 60.9833L68.3914 60.9799C68.4408 60.9722 68.4896 60.9618 68.5412 60.9509C68.5643 60.9459 68.5914 60.9402 68.6234 60.9305L68.6397 60.9271C68.6834 60.9192 68.7302 60.9121 68.7747 60.9012C68.8045 60.8949 68.8385 60.8877 68.8786 60.8763L68.8962 60.8726C68.9305 60.8667 68.9668 60.8576 68.9997 60.852C69.0214 60.8474 69.0458 60.8422 69.0727 60.835L69.0876 60.8319C69.1381 60.8226 69.1845 60.8141 69.2334 60.8037C69.2565 60.7988 69.2836 60.793 69.3115 60.7843L69.3278 60.7808C69.3716 60.7729 69.4166 60.7648 69.4601 60.7555C69.4913 60.7489 69.5266 60.7414 69.5681 60.7298L69.5843 60.7263C69.6186 60.7204 69.6536 60.7116 69.6878 60.7057C69.7122 60.7005 69.7434 60.6939 69.7768 60.684L69.7944 60.6802C69.8449 60.6709 69.8802 60.6634 69.9172 60.657C69.9389 60.6524 69.9647 60.6469 69.9929 60.6395C70.0569 60.6273 70.1061 60.6182 70.1536 60.6081C70.178 60.6029 70.2052 60.5972 70.2345 60.5881L70.2535 60.5841C70.2972 60.5762 70.3382 60.5689 70.3816 60.5597C70.406 60.5545 70.4332 60.5487 70.4625 60.5396L70.4788 60.5362C70.5238 60.528 70.5675 60.5201 70.6096 60.5112C70.6408 60.5046 70.6788 60.4965 70.7163 60.4857L70.7326 60.4822C70.7668 60.4764 70.8023 60.4702 70.8346 60.462C70.8591 60.4568 70.8848 60.4513 70.9144 60.4436L70.9307 60.4401C70.9788 60.4327 71.0209 60.4238 71.0643 60.4146C71.0996 60.4071 71.1403 60.3984 71.1818 60.3867L71.1981 60.3833C71.2309 60.3777 71.2638 60.3721 71.2934 60.3644C71.3219 60.3584 71.3558 60.3512 71.3905 60.341L71.4068 60.3375C71.4587 60.3279 71.4929 60.322 71.5309 60.314C71.5553 60.3088 71.5811 60.3033 71.6093 60.2959L71.6256 60.2924C71.671 60.2856 71.716 60.2774 71.7565 60.2674C71.7877 60.2608 71.8216 60.2536 71.859 60.2428L71.8753 60.2393C71.9204 60.2312 71.9587 60.2244 71.994 60.2169C72.0266 60.21 72.0578 60.2034 72.0925 60.1932L72.1088 60.1897C72.1538 60.1815 72.1908 60.1751 72.2261 60.1676C72.2559 60.1613 72.2871 60.1546 72.3205 60.1447L72.3368 60.1412C72.3819 60.1331 72.4188 60.1266 72.4554 60.1189C72.4867 60.1122 72.5179 60.1056 72.5512 60.0957L72.5675 60.0922C72.6139 60.0837 72.6495 60.0776 72.6875 60.0695C72.7242 60.0617 72.7622 60.0537 72.7996 60.0429L72.9068 60.0201C72.941 60.0142 72.975 60.007 73.011 59.9965L73.0273 59.993C73.0792 59.9834 73.112 59.9779 73.1473 59.9704C73.1772 59.964 73.2111 59.9568 73.2431 59.9472L73.2757 59.9403C73.3113 59.9341 73.3428 59.9288 73.374 59.9222C73.4025 59.9161 73.431 59.9101 73.4619 59.9021L73.485 59.8972C73.5263 59.8912 73.5643 59.8832 73.6009 59.8754C73.6362 59.8679 73.6742 59.8598 73.7116 59.849L73.7279 59.8455C73.7676 59.8385 73.8059 59.8318 73.8398 59.8246C73.8737 59.8174 73.9063 59.8105 73.9397 59.8005L73.9559 59.7971C74.0037 59.7883 74.0355 59.7844 74.0651 59.7767C74.0936 59.7707 74.1275 59.7634 74.1571 59.7557L74.1734 59.7523C74.2147 59.7463 74.254 59.738 74.2893 59.7305C74.3395 59.7198 74.3908 59.7075 74.4443 59.6919L74.5189 59.676C74.5583 59.6676 74.5963 59.6596 74.6364 59.6482L74.6527 59.6447C74.6937 59.6374 74.7266 59.6319 74.7564 59.6255C74.7917 59.618 74.827 59.6105 74.8644 59.5997L74.8807 59.5963C74.9217 59.589 74.9546 59.5834 74.9844 59.577C75.017 59.5701 75.0509 59.5629 75.0859 59.5541L75.1022 59.5506C75.1435 59.5447 75.1785 59.5358 75.2114 59.5302C75.248 59.5224 75.286 59.5144 75.3234 59.5036L75.3411 59.4998C75.3835 59.4922 75.4163 59.4867 75.4462 59.4803C75.4828 59.4725 75.5208 59.4645 75.5582 59.4537L75.5745 59.4502C75.6237 59.4412 75.6511 59.4368 75.6796 59.4307C75.7163 59.4229 75.7556 59.4145 75.793 59.4038L75.8093 59.4003C75.8544 59.3921 75.8848 59.3885 75.9103 59.3817C75.947 59.3739 75.985 59.3658 76.0224 59.355L76.0563 59.3478C76.0876 59.3412 76.1136 59.337 76.1384 59.3332C76.1831 59.3237 76.2279 59.3142 76.2735 59.3016L76.2898 59.2982C76.3156 59.2927 76.3386 59.2878 76.3617 59.2829C76.4024 59.2742 76.4459 59.265 76.4874 59.2533L76.5037 59.2499C76.5474 59.242 76.5764 59.2387 76.6006 59.2321C76.6399 59.2237 76.6807 59.2151 76.7222 59.2034L76.7561 59.1962C76.7832 59.1904 76.8055 59.1885 76.8272 59.1839C76.8612 59.1767 76.8978 59.1689 76.9328 59.1601L76.9491 59.1566C76.9918 59.1504 77.026 59.1445 77.0542 59.1371C77.0976 59.1279 77.1397 59.1189 77.1853 59.1064L77.2178 59.0995C77.2491 59.0929 77.2741 59.0904 77.2944 59.086C77.3351 59.0774 77.3745 59.069 77.416 59.0574L77.4553 59.049C77.4838 59.0429 77.5061 59.041 77.5235 59.0359C77.5696 59.0261 77.6185 59.0157 77.6641 59.0032L77.6804 58.9998C77.7078 58.9953 77.7339 58.9912 77.7512 58.9861C77.7865 58.9786 77.8245 58.9705 77.8609 58.9614L78.0077 58.9245L78.0097 58.934L80.7464 58.3551C82.6316 57.9544 83.8392 56.0948 83.4385 54.2096L83.1414 52.8117C83.0704 52.4778 82.741 52.2627 82.4058 52.334L60.427 57.0057Z" fill="#F75150"/>
<path d="M83.598 59.1846L81.6762 59.5931C79.791 59.9938 78.5834 61.8535 78.9841 63.7387L81.1463 73.911C81.547 75.7962 83.4066 77.0039 85.2918 76.6031L87.2136 76.1947C87.5475 76.1237 87.7626 75.7943 87.6913 75.459L84.3337 59.6624C84.2627 59.3285 83.9333 59.1134 83.598 59.1846Z" fill="#F75150"/>
<path d="M70.4088 65.0052C71.0782 68.8149 71.9407 72.5993 72.7729 76.1205C73.1585 77.7011 74.4778 78.4023 76.3011 77.9906L76.4925 77.9499C76.5128 77.9456 76.5318 77.9416 76.5522 77.9372C78.3464 77.5559 79.2432 76.3893 78.9561 74.8048C78.2912 71.2764 77.544 67.4874 76.595 63.6902C76.1644 61.9448 74.453 61.6546 72.995 61.9631C71.5388 62.2726 70.0949 63.2349 70.4085 65.0038L70.4088 65.0052Z" stroke="white" stroke-width="6" mask="url(#path-4-outside-1_2423_4569)"/>
<path d="M64.1032 63.3299L62.1814 63.7384C61.8472 63.808 61.6321 64.1374 61.7034 64.4727L65.0616 80.2721C65.1326 80.6059 65.462 80.821 65.7973 80.7498L67.7191 80.3413C69.6043 79.9406 70.8119 78.0809 70.4112 76.1958L68.249 66.0234C67.8483 64.1382 65.9887 62.9306 64.1035 63.3313L64.1032 63.3299Z" stroke="white" stroke-width="6" mask="url(#path-4-outside-1_2423_4569)"/>
<path d="M60.427 57.0057C60.0917 57.0769 59.878 57.4061 59.9492 57.7413L60.2467 59.1406C60.6474 61.0258 62.507 62.2335 64.3922 61.8328L67.3279 61.2088C67.3398 61.2048 67.3588 61.2008 67.3859 61.195C67.4022 61.1915 67.4239 61.1869 67.4494 61.1801L67.4657 61.1766C67.5152 61.1689 67.5654 61.1583 67.6156 61.1476C67.636 61.1433 67.6658 61.1369 67.6995 61.1284L67.842 61.0981C67.868 61.0939 67.902 61.0867 67.9448 61.0748L67.9611 61.0713C68.0008 61.0643 68.0391 61.0576 68.0781 61.0479C68.0998 61.0433 68.127 61.0375 68.1617 61.0273L68.178 61.0238C68.2298 61.0142 68.2695 61.0072 68.3143 60.9977C68.3319 60.9939 68.3509 60.9899 68.3751 60.9833L68.3914 60.9799C68.4408 60.9722 68.4896 60.9618 68.5412 60.9509C68.5643 60.9459 68.5914 60.9402 68.6234 60.9305L68.6397 60.9271C68.6834 60.9192 68.7302 60.9121 68.7747 60.9012C68.8045 60.8949 68.8385 60.8877 68.8786 60.8763L68.8962 60.8726C68.9305 60.8667 68.9668 60.8576 68.9997 60.852C69.0214 60.8474 69.0458 60.8422 69.0727 60.835L69.0876 60.8319C69.1381 60.8226 69.1845 60.8141 69.2334 60.8037C69.2565 60.7988 69.2836 60.793 69.3115 60.7843L69.3278 60.7808C69.3716 60.7729 69.4166 60.7648 69.4601 60.7555C69.4913 60.7489 69.5266 60.7414 69.5681 60.7298L69.5843 60.7263C69.6186 60.7204 69.6536 60.7116 69.6878 60.7057C69.7122 60.7005 69.7434 60.6939 69.7768 60.684L69.7944 60.6802C69.8449 60.6709 69.8802 60.6634 69.9172 60.657C69.9389 60.6524 69.9647 60.6469 69.9929 60.6395C70.0569 60.6273 70.1061 60.6182 70.1536 60.6081C70.178 60.6029 70.2052 60.5972 70.2345 60.5881L70.2535 60.5841C70.2972 60.5762 70.3382 60.5689 70.3816 60.5597C70.406 60.5545 70.4332 60.5487 70.4625 60.5396L70.4788 60.5362C70.5238 60.528 70.5675 60.5201 70.6096 60.5112C70.6408 60.5046 70.6788 60.4965 70.7163 60.4857L70.7326 60.4822C70.7668 60.4764 70.8023 60.4702 70.8346 60.462C70.8591 60.4568 70.8848 60.4513 70.9144 60.4436L70.9307 60.4401C70.9788 60.4327 71.0209 60.4238 71.0643 60.4146C71.0996 60.4071 71.1403 60.3984 71.1818 60.3867L71.1981 60.3833C71.2309 60.3777 71.2638 60.3721 71.2934 60.3644C71.3219 60.3584 71.3558 60.3512 71.3905 60.341L71.4068 60.3375C71.4587 60.3279 71.4929 60.322 71.5309 60.314C71.5553 60.3088 71.5811 60.3033 71.6093 60.2959L71.6256 60.2924C71.671 60.2856 71.716 60.2774 71.7565 60.2674C71.7877 60.2608 71.8216 60.2536 71.859 60.2428L71.8753 60.2393C71.9204 60.2312 71.9587 60.2244 71.994 60.2169C72.0266 60.21 72.0578 60.2034 72.0925 60.1932L72.1088 60.1897C72.1538 60.1815 72.1908 60.1751 72.2261 60.1676C72.2559 60.1613 72.2871 60.1546 72.3205 60.1447L72.3368 60.1412C72.3819 60.1331 72.4188 60.1266 72.4554 60.1189C72.4867 60.1122 72.5179 60.1056 72.5512 60.0957L72.5675 60.0922C72.6139 60.0837 72.6495 60.0776 72.6875 60.0695C72.7242 60.0617 72.7622 60.0537 72.7996 60.0429L72.9068 60.0201C72.941 60.0142 72.975 60.007 73.011 59.9965L73.0273 59.993C73.0792 59.9834 73.112 59.9779 73.1473 59.9704C73.1772 59.964 73.2111 59.9568 73.2431 59.9472L73.2757 59.9403C73.3113 59.9341 73.3428 59.9288 73.374 59.9222C73.4025 59.9161 73.431 59.9101 73.4619 59.9021L73.485 59.8972C73.5263 59.8912 73.5643 59.8832 73.6009 59.8754C73.6362 59.8679 73.6742 59.8598 73.7116 59.849L73.7279 59.8455C73.7676 59.8385 73.8059 59.8318 73.8398 59.8246C73.8737 59.8174 73.9063 59.8105 73.9397 59.8005L73.9559 59.7971C74.0037 59.7883 74.0355 59.7844 74.0651 59.7767C74.0936 59.7707 74.1275 59.7634 74.1571 59.7557L74.1734 59.7523C74.2147 59.7463 74.254 59.738 74.2893 59.7305C74.3395 59.7198 74.3908 59.7075 74.4443 59.6919L74.5189 59.676C74.5583 59.6676 74.5963 59.6596 74.6364 59.6482L74.6527 59.6447C74.6937 59.6374 74.7266 59.6319 74.7564 59.6255C74.7917 59.618 74.827 59.6105 74.8644 59.5997L74.8807 59.5963C74.9217 59.589 74.9546 59.5834 74.9844 59.577C75.017 59.5701 75.0509 59.5629 75.0859 59.5541L75.1022 59.5506C75.1435 59.5447 75.1785 59.5358 75.2114 59.5302C75.248 59.5224 75.286 59.5144 75.3234 59.5036L75.3411 59.4998C75.3835 59.4922 75.4163 59.4867 75.4462 59.4803C75.4828 59.4725 75.5208 59.4645 75.5582 59.4537L75.5745 59.4502C75.6237 59.4412 75.6511 59.4368 75.6796 59.4307C75.7163 59.4229 75.7556 59.4145 75.793 59.4038L75.8093 59.4003C75.8544 59.3921 75.8848 59.3885 75.9103 59.3817C75.947 59.3739 75.985 59.3658 76.0224 59.355L76.0563 59.3478C76.0876 59.3412 76.1136 59.337 76.1384 59.3332C76.1831 59.3237 76.2279 59.3142 76.2735 59.3016L76.2898 59.2982C76.3156 59.2927 76.3386 59.2878 76.3617 59.2829C76.4024 59.2742 76.4459 59.265 76.4874 59.2533L76.5037 59.2499C76.5474 59.242 76.5764 59.2387 76.6006 59.2321C76.6399 59.2237 76.6807 59.2151 76.7222 59.2034L76.7561 59.1962C76.7832 59.1904 76.8055 59.1885 76.8272 59.1839C76.8612 59.1767 76.8978 59.1689 76.9328 59.1601L76.9491 59.1566C76.9918 59.1504 77.026 59.1445 77.0542 59.1371C77.0976 59.1279 77.1397 59.1189 77.1853 59.1064L77.2178 59.0995C77.2491 59.0929 77.2741 59.0904 77.2944 59.086C77.3351 59.0774 77.3745 59.069 77.416 59.0574L77.4553 59.049C77.4838 59.0429 77.5061 59.041 77.5235 59.0359C77.5696 59.0261 77.6185 59.0157 77.6641 59.0032L77.6804 58.9998C77.7078 58.9953 77.7339 58.9912 77.7512 58.9861C77.7865 58.9786 77.8245 58.9705 77.8609 58.9614L78.0077 58.9245L78.0097 58.934L80.7464 58.3551C82.6316 57.9544 83.8392 56.0948 83.4385 54.2096L83.1414 52.8117C83.0704 52.4778 82.741 52.2627 82.4058 52.334L60.427 57.0057Z" stroke="white" stroke-width="6" mask="url(#path-4-outside-1_2423_4569)"/>
<path d="M83.598 59.1846L81.6762 59.5931C79.791 59.9938 78.5834 61.8535 78.9841 63.7387L81.1463 73.911C81.547 75.7962 83.4066 77.0039 85.2918 76.6031L87.2136 76.1947C87.5475 76.1237 87.7626 75.7943 87.6913 75.459L84.3337 59.6624C84.2627 59.3285 83.9333 59.1134 83.598 59.1846Z" stroke="white" stroke-width="6" mask="url(#path-4-outside-1_2423_4569)"/>
</g>
<g filter="url(#filter6_dd_2423_4569)">
<path d="M215 74.6328L220.851 75.8604L224.534 58.3073L218.683 57.0797L215 74.6328ZM250.557 65.2943C250.896 63.6779 249.861 62.0941 248.245 61.7549L239.008 59.8169L241.807 53.4251C241.867 53.285 241.921 53.136 241.955 52.9751C242.083 52.368 241.949 51.7673 241.637 51.2895L240.403 49.4195L228.75 57.0308C228.111 57.4542 227.628 58.1166 227.46 58.9211L224.391 73.5487C224.051 75.1651 225.086 76.7489 226.702 77.088L239.867 79.8502C241.081 80.1049 242.275 79.5841 242.933 78.6303L249.507 69.2431C249.709 68.9343 249.865 68.5928 249.943 68.2198L250.531 65.4186L250.519 65.4009L250.557 65.2943Z" fill="#FCA52A"/>
<path d="M215 74.6328L220.851 75.8604L224.534 58.3073L218.683 57.0797L215 74.6328ZM250.557 65.2943C250.896 63.6779 249.861 62.0941 248.245 61.7549L239.008 59.8169L241.807 53.4251C241.867 53.285 241.921 53.136 241.955 52.9751C242.083 52.368 241.949 51.7673 241.637 51.2895L240.403 49.4195L228.75 57.0308C228.111 57.4542 227.628 58.1166 227.46 58.9211L224.391 73.5487C224.051 75.1651 225.086 76.7489 226.702 77.088L239.867 79.8502C241.081 80.1049 242.275 79.5841 242.933 78.6303L249.507 69.2431C249.709 68.9343 249.865 68.5928 249.943 68.2198L250.531 65.4186L250.519 65.4009L250.557 65.2943Z" fill="white" fill-opacity="0.4"/>
<path d="M213.767 74.3742L213.509 75.607L214.741 75.8656L220.593 77.0933L221.825 77.3519L222.084 76.1191L225.767 58.5659L226.025 57.3331L224.793 57.0745L218.942 55.8469L217.709 55.5882L217.45 56.821L213.767 74.3742ZM251.855 65.143C252.093 62.9936 250.664 60.9754 248.504 60.5221L240.784 58.9023L242.961 53.9305L242.961 53.9305L242.965 53.9205C243.044 53.7379 243.131 53.5053 243.188 53.2338C243.387 52.2835 243.177 51.344 242.691 50.6007L242.688 50.5957L241.454 48.7257L240.764 47.6792L239.714 48.3648L228.061 55.9762L228.061 55.9762L228.053 55.981C227.156 56.5762 226.468 57.5148 226.227 58.6624L223.158 73.2901C222.676 75.5873 224.146 77.8389 226.444 78.3209L239.608 81.083C241.333 81.4449 243.029 80.7052 243.967 79.3495C243.968 79.3483 243.969 79.347 243.97 79.3458L250.539 69.9657L250.55 69.9496L250.561 69.9332C250.834 69.5166 251.06 69.0306 251.176 68.4785L251.764 65.6773L251.773 65.6348L251.79 65.5529L251.871 65.1666L251.855 65.143Z" stroke="white" stroke-width="2.51932"/>
</g>
<g filter="url(#filter7_dd_2423_4569)">
<rect x="274.624" y="20.5736" width="27.2405" height="27.2405" rx="13.6202" transform="rotate(15 274.624 20.5736)" fill="#F75150" shape-rendering="crispEdges"/>
<rect x="273.851" y="19.2343" width="29.4275" height="29.4275" rx="14.7137" transform="rotate(15 273.851 19.2343)" stroke="white" stroke-width="2.18703" shape-rendering="crispEdges"/>
<g clip-path="url(#clip3_2423_4569)">
<path d="M275.586 35.883L280.911 37.3099M287.124 38.9746L292.449 40.4014M285.444 32.8171L282.115 45.2424M285.444 32.8171C286.67 33.1455 287.929 32.4183 288.258 31.1929M285.444 32.8171C284.219 32.4888 283.492 31.2292 283.82 30.0038M275.015 43.3399L289.215 47.1448M278.939 28.6959L283.82 30.0038M283.82 30.0038C284.148 28.7784 285.408 28.0512 286.633 28.3795C287.859 28.7079 288.586 29.9675 288.258 31.1929M288.258 31.1929L293.139 32.5008M280.931 38.5864C280.211 39.8528 278.733 40.5313 277.297 40.1465C275.861 39.7617 274.921 38.4355 274.931 36.9786C274.931 36.8596 274.932 36.8 274.99 36.5774C275.026 36.4409 275.16 36.1403 275.239 36.0229C275.366 35.8314 275.475 35.7332 275.693 35.5367L279.438 32.1589L280.992 36.9566C281.082 37.2356 281.127 37.3751 281.142 37.6048C281.151 37.7455 281.118 38.0733 281.08 38.2093C281.019 38.4312 280.99 38.4829 280.931 38.5864ZM292.469 41.6779C291.748 42.9443 290.271 43.6229 288.835 43.2381C287.399 42.8533 286.459 41.5271 286.468 40.0701C286.469 39.9511 286.469 39.8916 286.528 39.6689C286.563 39.5324 286.698 39.2318 286.776 39.1144C286.904 38.9229 287.013 38.8247 287.231 38.6283L290.975 35.2504L292.53 40.0481C292.62 40.3271 292.665 40.4666 292.68 40.6963C292.689 40.8371 292.655 41.1648 292.618 41.3008C292.557 41.5227 292.528 41.5745 292.469 41.6779Z" stroke="white" stroke-opacity="0.901961" stroke-width="1.29716" stroke-linecap="round" stroke-linejoin="round"/>
</g>
</g>
<path d="M179.898 58.9156C186.4 42.4821 178.349 23.889 161.916 17.3867C145.482 10.8844 126.889 18.9352 120.387 35.3687C113.884 51.8022 121.935 70.3953 138.369 76.8976C154.802 83.3999 173.395 75.349 179.898 58.9156Z" fill="url(#paint0_linear_2423_4569)"/>
<path d="M170.225 50.1231L156.221 26.7107C156.153 26.597 155.98 26.6357 155.966 26.7671C155.906 27.3407 155.281 30.3904 151.818 30.2339C149.008 30.1069 147.735 29.5429 144.839 29.4121C143.838 29.3668 142.621 29.8804 141.953 30.8012L140.691 32.5353L151.227 50.1458L155.65 50.3457C156.955 50.4047 158.144 51.1143 158.813 52.2351L161.33 56.4438L170.53 56.8595L170.742 52.1609C170.774 51.4483 170.595 50.7396 170.227 50.1252L170.225 50.1231ZM158.33 39.8279C156.547 39.0098 155.276 35.7251 155.276 35.7251C158.944 35.8909 161.222 40.3739 161.222 40.3739C161.222 40.3739 160.113 40.646 158.33 39.8279Z" fill="white"/>
<path d="M155.925 64.9558L139.314 64.2051C138.121 64.1532 137.035 63.5044 136.421 62.4791L129.831 51.4629C129.03 50.1245 129.107 48.4358 130.025 47.1751L138.429 35.6468L138.433 35.6431L155.924 64.9537L155.925 64.9558Z" fill="white"/>
</g>
<defs>
<filter id="filter0_f_2423_4569" x="35.6699" y="4.34192" width="247.33" height="97.6581" filterUnits="userSpaceOnUse" color-interpolation-filters="sRGB">
<feFlood flood-opacity="0" result="BackgroundImageFix"/>
<feBlend mode="normal" in="SourceGraphic" in2="BackgroundImageFix" result="shape"/>
<feGaussianBlur stdDeviation="18" result="effect1_foregroundBlur_2423_4569"/>
</filter>
<filter id="filter1_dd_2423_4569" x="5.42663" y="-0.0487912" width="61.7488" height="61.7488" filterUnits="userSpaceOnUse" color-interpolation-filters="sRGB">
<feFlood flood-opacity="0" result="BackgroundImageFix"/>
<feColorMatrix in="SourceAlpha" type="matrix" values="0 0 0 0 0 0 0 0 0 0 0 0 0 0 0 0 0 0 127 0" result="hardAlpha"/>
<feOffset dy="1.76223"/>
<feGaussianBlur stdDeviation="0.881114"/>
<feComposite in2="hardAlpha" operator="out"/>
<feColorMatrix type="matrix" values="0 0 0 0 0 0 0 0 0 0 0 0 0 0 0 0 0 0 0.03 0"/>
<feBlend mode="normal" in2="BackgroundImageFix" result="effect1_dropShadow_2423_4569"/>
<feColorMatrix in="SourceAlpha" type="matrix" values="0 0 0 0 0 0 0 0 0 0 0 0 0 0 0 0 0 0 127 0" result="hardAlpha"/>
<feOffset dy="3.52446"/>
<feGaussianBlur stdDeviation="5.28668"/>
<feComposite in2="hardAlpha" operator="out"/>
<feColorMatrix type="matrix" values="0 0 0 0 0 0 0 0 0 0 0 0 0 0 0 0 0 0 0.02 0"/>
<feBlend mode="normal" in2="effect1_dropShadow_2423_4569" result="effect2_dropShadow_2423_4569"/>
<feBlend mode="normal" in="SourceGraphic" in2="effect2_dropShadow_2423_4569" result="shape"/>
</filter>
<filter id="filter2_dd_2423_4569" x="10.9134" y="5.43778" width="50.7756" height="50.7758" filterUnits="userSpaceOnUse" color-interpolation-filters="sRGB">
<feFlood flood-opacity="0" result="BackgroundImageFix"/>
<feColorMatrix in="SourceAlpha" type="matrix" values="0 0 0 0 0 0 0 0 0 0 0 0 0 0 0 0 0 0 127 0" result="hardAlpha"/>
<feOffset dy="1.76223"/>
<feGaussianBlur stdDeviation="0.881114"/>
<feComposite in2="hardAlpha" operator="out"/>
<feColorMatrix type="matrix" values="0 0 0 0 0 0 0 0 0 0 0 0 0 0 0 0 0 0 0.03 0"/>
<feBlend mode="normal" in2="BackgroundImageFix" result="effect1_dropShadow_2423_4569"/>
<feColorMatrix in="SourceAlpha" type="matrix" values="0 0 0 0 0 0 0 0 0 0 0 0 0 0 0 0 0 0 127 0" result="hardAlpha"/>
<feOffset dy="3.52446"/>
<feGaussianBlur stdDeviation="5.28668"/>
<feComposite in2="hardAlpha" operator="out"/>
<feColorMatrix type="matrix" values="0 0 0 0 0 0 0 0 0 0 0 0 0 0 0 0 0 0 0.02 0"/>
<feBlend mode="normal" in2="effect1_dropShadow_2423_4569" result="effect2_dropShadow_2423_4569"/>
<feBlend mode="normal" in="SourceGraphic" in2="effect2_dropShadow_2423_4569" result="shape"/>
</filter>
<filter id="filter3_dd_2423_4569" x="179.427" y="-7.04891" width="65.613" height="65.6133" filterUnits="userSpaceOnUse" color-interpolation-filters="sRGB">
<feFlood flood-opacity="0" result="BackgroundImageFix"/>
<feColorMatrix in="SourceAlpha" type="matrix" values="0 0 0 0 0 0 0 0 0 0 0 0 0 0 0 0 0 0 127 0" result="hardAlpha"/>
<feOffset dy="1.76223"/>
<feGaussianBlur stdDeviation="0.881114"/>
<feComposite in2="hardAlpha" operator="out"/>
<feColorMatrix type="matrix" values="0 0 0 0 0 0 0 0 0 0 0 0 0 0 0 0 0 0 0.03 0"/>
<feBlend mode="normal" in2="BackgroundImageFix" result="effect1_dropShadow_2423_4569"/>
<feColorMatrix in="SourceAlpha" type="matrix" values="0 0 0 0 0 0 0 0 0 0 0 0 0 0 0 0 0 0 127 0" result="hardAlpha"/>
<feOffset dy="3.52446"/>
<feGaussianBlur stdDeviation="5.28668"/>
<feComposite in2="hardAlpha" operator="out"/>
<feColorMatrix type="matrix" values="0 0 0 0 0 0 0 0 0 0 0 0 0 0 0 0 0 0 0.02 0"/>
<feBlend mode="normal" in2="effect1_dropShadow_2423_4569" result="effect2_dropShadow_2423_4569"/>
<feBlend mode="normal" in="SourceGraphic" in2="effect2_dropShadow_2423_4569" result="shape"/>
</filter>
<filter id="filter4_dd_2423_4569" x="188.02" y="1.54459" width="48.426" height="48.4262" filterUnits="userSpaceOnUse" color-interpolation-filters="sRGB">
<feFlood flood-opacity="0" result="BackgroundImageFix"/>
<feColorMatrix in="SourceAlpha" type="matrix" values="0 0 0 0 0 0 0 0 0 0 0 0 0 0 0 0 0 0 127 0" result="hardAlpha"/>
<feOffset dy="1.76223"/>
<feGaussianBlur stdDeviation="0.881114"/>
<feComposite in2="hardAlpha" operator="out"/>
<feColorMatrix type="matrix" values="0 0 0 0 0 0 0 0 0 0 0 0 0 0 0 0 0 0 0.03 0"/>
<feBlend mode="normal" in2="BackgroundImageFix" result="effect1_dropShadow_2423_4569"/>
<feColorMatrix in="SourceAlpha" type="matrix" values="0 0 0 0 0 0 0 0 0 0 0 0 0 0 0 0 0 0 127 0" result="hardAlpha"/>
<feOffset dy="3.52446"/>
<feGaussianBlur stdDeviation="5.28668"/>
<feComposite in2="hardAlpha" operator="out"/>
<feColorMatrix type="matrix" values="0 0 0 0 0 0 0 0 0 0 0 0 0 0 0 0 0 0 0.02 0"/>
<feBlend mode="normal" in2="effect1_dropShadow_2423_4569" result="effect2_dropShadow_2423_4569"/>
<feBlend mode="normal" in="SourceGraphic" in2="effect2_dropShadow_2423_4569" result="shape"/>
</filter>
<filter id="filter5_d_2423_4569" x="48.9351" y="43.3196" width="49.7705" height="50.4446" filterUnits="userSpaceOnUse" color-interpolation-filters="sRGB">
<feFlood flood-opacity="0" result="BackgroundImageFix"/>
<feColorMatrix in="SourceAlpha" type="matrix" values="0 0 0 0 0 0 0 0 0 0 0 0 0 0 0 0 0 0 127 0" result="hardAlpha"/>
<feOffset dy="2"/>
<feGaussianBlur stdDeviation="4"/>
<feComposite in2="hardAlpha" operator="out"/>
<feColorMatrix type="matrix" values="0 0 0 0 0 0 0 0 0 0 0 0 0 0 0 0 0 0 0.1 0"/>
<feBlend mode="normal" in2="BackgroundImageFix" result="effect1_dropShadow_2423_4569"/>
<feBlend mode="normal" in="SourceGraphic" in2="effect1_dropShadow_2423_4569" result="shape"/>
</filter>
<filter id="filter6_dd_2423_4569" x="204.459" y="40.9003" width="56.3098" height="51.6113" filterUnits="userSpaceOnUse" color-interpolation-filters="sRGB">
<feFlood flood-opacity="0" result="BackgroundImageFix"/>
<feColorMatrix in="SourceAlpha" type="matrix" values="0 0 0 0 0 0 0 0 0 0 0 0 0 0 0 0 0 0 127 0" result="hardAlpha"/>
<feOffset dy="1.25966"/>
<feGaussianBlur stdDeviation="0.62983"/>
<feComposite in2="hardAlpha" operator="out"/>
<feColorMatrix type="matrix" values="0 0 0 0 0 0 0 0 0 0 0 0 0 0 0 0 0 0 0.03 0"/>
<feBlend mode="normal" in2="BackgroundImageFix" result="effect1_dropShadow_2423_4569"/>
<feColorMatrix in="SourceAlpha" type="matrix" values="0 0 0 0 0 0 0 0 0 0 0 0 0 0 0 0 0 0 127 0" result="hardAlpha"/>
<feOffset dy="2.51932"/>
<feGaussianBlur stdDeviation="3.77898"/>
<feComposite in2="hardAlpha" operator="out"/>
<feColorMatrix type="matrix" values="0 0 0 0 0 0 0 0 0 0 0 0 0 0 0 0 0 0 0.02 0"/>
<feBlend mode="normal" in2="effect1_dropShadow_2423_4569" result="effect2_dropShadow_2423_4569"/>
<feBlend mode="normal" in="SourceGraphic" in2="effect2_dropShadow_2423_4569" result="shape"/>
</filter>
<filter id="filter7_dd_2423_4569" x="254.452" y="11.8255" width="59.6072" height="59.607" filterUnits="userSpaceOnUse" color-interpolation-filters="sRGB">
<feFlood flood-opacity="0" result="BackgroundImageFix"/>
<feColorMatrix in="SourceAlpha" type="matrix" values="0 0 0 0 0 0 0 0 0 0 0 0 0 0 0 0 0 0 127 0" result="hardAlpha"/>
<feOffset dy="4.37406"/>
<feGaussianBlur stdDeviation="4.37406"/>
<feComposite in2="hardAlpha" operator="out"/>
<feColorMatrix type="matrix" values="0 0 0 0 0 0 0 0 0 0 0 0 0 0 0 0 0 0 0.06 0"/>
<feBlend mode="normal" in2="BackgroundImageFix" result="effect1_dropShadow_2423_4569"/>
<feColorMatrix in="SourceAlpha" type="matrix" values="0 0 0 0 0 0 0 0 0 0 0 0 0 0 0 0 0 0 127 0" result="hardAlpha"/>
<feOffset dy="4.37406"/>
<feGaussianBlur stdDeviation="6.56109"/>
<feComposite in2="hardAlpha" operator="out"/>
<feColorMatrix type="matrix" values="0 0 0 0 0 0 0 0 0 0 0 0 0 0 0 0 0 0 0.04 0"/>
<feBlend mode="normal" in2="effect1_dropShadow_2423_4569" result="effect2_dropShadow_2423_4569"/>
<feBlend mode="normal" in="SourceGraphic" in2="effect2_dropShadow_2423_4569" result="shape"/>
</filter>
<linearGradient id="paint0_linear_2423_4569" x1="161.916" y1="17.3867" x2="138.369" y2="76.8976" gradientUnits="userSpaceOnUse">
<stop stop-color="#F75150"/>
<stop offset="1" stop-color="#FCA52A"/>
</linearGradient>
<clipPath id="clip0_2423_4569">
<rect width="320" height="100" fill="white"/>
</clipPath>
<clipPath id="clip1_2423_4569">
<rect width="32.67" height="32.67" fill="white" transform="translate(25.2769 7.00012) rotate(16.4962)"/>
</clipPath>
<clipPath id="clip2_2423_4569">
<rect width="32.67" height="32.67" fill="white" transform="translate(190 15.9606) rotate(-29.2445)"/>
</clipPath>
<clipPath id="clip3_2423_4569">
<rect width="22.0518" height="22.0518" fill="white" transform="translate(276.458 23.7507) rotate(15)"/>
</clipPath>
</defs>
</svg>
