<svg width="457" height="155" viewBox="0 0 457 155" fill="none" xmlns="http://www.w3.org/2000/svg">
<g clip-path="url(#clip0_4412_6309)">
<path d="M0 8.91113C0 4.49286 3.58172 0.911133 8 0.911133H449C453.418 0.911133 457 4.49285 457 8.91113V147.911C457 152.329 453.418 155.911 449 155.911H8C3.58172 155.911 0 152.329 0 147.911V8.91113Z" fill="#141414"/>
<line opacity="0.1" x1="46.5" y1="-280.089" x2="46.5" y2="297.911" stroke="black" stroke-dasharray="2 2"/>
<line opacity="0.1" x1="97.5" y1="-280.089" x2="97.5" y2="297.911" stroke="black" stroke-dasharray="2 2"/>
<line opacity="0.1" x1="148.5" y1="-280.089" x2="148.5" y2="297.911" stroke="black" stroke-dasharray="2 2"/>
<line opacity="0.1" x1="199.5" y1="-280.089" x2="199.5" y2="297.911" stroke="black" stroke-dasharray="2 2"/>
<line opacity="0.1" x1="250.5" y1="-280.089" x2="250.5" y2="297.911" stroke="black" stroke-dasharray="2 2"/>
<line opacity="0.1" x1="301.5" y1="-280.089" x2="301.5" y2="297.911" stroke="black" stroke-dasharray="2 2"/>
<line opacity="0.1" x1="352.5" y1="-280.089" x2="352.5" y2="297.911" stroke="black" stroke-dasharray="2 2"/>
<line opacity="0.1" x1="403.5" y1="-280.089" x2="403.5" y2="297.911" stroke="black" stroke-dasharray="2 2"/>
<line opacity="0.1" x1="491" y1="80.4111" x2="-42" y2="80.4111" stroke="black" stroke-dasharray="2 2"/>
<line opacity="0.1" x1="491" y1="131.411" x2="-42" y2="131.411" stroke="black" stroke-dasharray="2 2"/>
<g clip-path="url(#clip1_4412_6309)" filter="url(#filter0_dd_4412_6309)">
<g filter="url(#filter1_dd_4412_6309)">
<path d="M187.427 32.1381L188.113 40.7696C188.209 41.9795 188.257 42.5844 188.446 43.1374C188.614 43.6275 188.863 44.086 189.183 44.4938C189.543 44.9539 190.025 45.3236 190.987 46.063L197.853 51.3382L189.222 52.0238C188.012 52.1199 187.407 52.1679 186.854 52.3574C186.364 52.5254 185.906 52.7744 185.498 53.094C185.038 53.4546 184.668 53.9358 183.929 54.8983L178.653 61.7646L177.968 53.1331C177.872 51.9232 177.824 51.3183 177.634 50.7653C177.466 50.2751 177.217 49.8167 176.898 49.4089C176.537 48.9488 176.056 48.5791 175.093 47.8397L168.227 42.5645L176.858 41.8789C178.068 41.7828 178.673 41.7348 179.226 41.5452C179.716 41.3773 180.175 41.1283 180.583 40.8087C181.043 40.4481 181.412 39.9668 182.152 39.0044L187.427 32.1381Z" fill="#F75150"/>
<path d="M187.427 32.1381L188.113 40.7696C188.209 41.9795 188.257 42.5844 188.446 43.1374C188.614 43.6275 188.863 44.086 189.183 44.4938C189.543 44.9539 190.025 45.3236 190.987 46.063L197.853 51.3382L189.222 52.0238C188.012 52.1199 187.407 52.1679 186.854 52.3574C186.364 52.5254 185.906 52.7744 185.498 53.094C185.038 53.4546 184.668 53.9358 183.929 54.8983L178.653 61.7646L177.968 53.1331C177.872 51.9232 177.824 51.3183 177.634 50.7653C177.466 50.2751 177.217 49.8167 176.898 49.4089C176.537 48.9488 176.056 48.5791 175.093 47.8397L168.227 42.5645L176.858 41.8789C178.068 41.7828 178.673 41.7348 179.226 41.5452C179.716 41.3773 180.175 41.1283 180.583 40.8087C181.043 40.4481 181.412 39.9668 182.152 39.0044L187.427 32.1381Z" fill="white" fill-opacity="0.4"/>
<path d="M187.427 32.1381L188.113 40.7696C188.209 41.9795 188.257 42.5844 188.446 43.1374C188.614 43.6275 188.863 44.086 189.183 44.4938C189.543 44.9539 190.025 45.3236 190.987 46.063L197.853 51.3382L189.222 52.0238C188.012 52.1199 187.407 52.1679 186.854 52.3574C186.364 52.5254 185.906 52.7744 185.498 53.094C185.038 53.4546 184.668 53.9358 183.929 54.8983L178.653 61.7646L177.968 53.1331C177.872 51.9232 177.824 51.3183 177.634 50.7653C177.466 50.2751 177.217 49.8167 176.898 49.4089C176.537 48.9488 176.056 48.5791 175.093 47.8397L168.227 42.5645L176.858 41.8789C178.068 41.7828 178.673 41.7348 179.226 41.5452C179.716 41.3773 180.175 41.1283 180.583 40.8087C181.043 40.4481 181.412 39.9668 182.152 39.0044L187.427 32.1381Z" stroke="#262929" stroke-width="4" stroke-linecap="round" stroke-linejoin="round"/>
</g>
</g>
<g clip-path="url(#clip2_4412_6309)" filter="url(#filter2_dd_4412_6309)">
<g filter="url(#filter3_dd_4412_6309)">
<path d="M313.686 97.6634L320.346 103.196C321.28 103.972 321.746 104.36 322.275 104.61C322.743 104.832 323.245 104.973 323.76 105.029C324.341 105.092 324.942 105.005 326.143 104.832L334.713 103.596L329.18 110.256C328.405 111.19 328.017 111.657 327.767 112.185C327.545 112.653 327.403 113.155 327.348 113.67C327.285 114.252 327.371 114.852 327.545 116.054L328.781 124.624L322.12 119.091C321.187 118.315 320.72 117.927 320.192 117.677C319.723 117.455 319.221 117.314 318.706 117.258C318.125 117.195 317.524 117.282 316.323 117.455L307.753 118.691L313.286 112.031C314.062 111.097 314.449 110.63 314.7 110.102C314.921 109.634 315.063 109.132 315.119 108.617C315.182 108.035 315.095 107.435 314.922 106.233L313.686 97.6634Z" fill="#FCA52A"/>
<path d="M313.686 97.6634L320.346 103.196C321.28 103.972 321.746 104.36 322.275 104.61C322.743 104.832 323.245 104.973 323.76 105.029C324.341 105.092 324.942 105.005 326.143 104.832L334.713 103.596L329.18 110.256C328.405 111.19 328.017 111.657 327.767 112.185C327.545 112.653 327.403 113.155 327.348 113.67C327.285 114.252 327.371 114.852 327.545 116.054L328.781 124.624L322.12 119.091C321.187 118.315 320.72 117.927 320.192 117.677C319.723 117.455 319.221 117.314 318.706 117.258C318.125 117.195 317.524 117.282 316.323 117.455L307.753 118.691L313.286 112.031C314.062 111.097 314.449 110.63 314.7 110.102C314.921 109.634 315.063 109.132 315.119 108.617C315.182 108.035 315.095 107.435 314.922 106.233L313.686 97.6634Z" fill="white" fill-opacity="0.4"/>
<path d="M313.686 97.6634L320.346 103.196C321.28 103.972 321.746 104.36 322.275 104.61C322.743 104.832 323.245 104.973 323.76 105.029C324.341 105.092 324.942 105.005 326.143 104.832L334.713 103.596L329.18 110.256C328.405 111.19 328.017 111.657 327.767 112.185C327.545 112.653 327.403 113.155 327.348 113.67C327.285 114.252 327.371 114.852 327.545 116.054L328.781 124.624L322.12 119.091C321.187 118.315 320.72 117.927 320.192 117.677C319.723 117.455 319.221 117.314 318.706 117.258C318.125 117.195 317.524 117.282 316.323 117.455L307.753 118.691L313.286 112.031C314.062 111.097 314.449 110.63 314.7 110.102C314.921 109.634 315.063 109.132 315.119 108.617C315.182 108.035 315.095 107.435 314.922 106.233L313.686 97.6634Z" stroke="#262929" stroke-width="4" stroke-linecap="round" stroke-linejoin="round"/>
</g>
</g>
<g filter="url(#filter4_d_4412_6309)">
<mask id="path-14-outside-1_4412_6309" maskUnits="userSpaceOnUse" x="352.985" y="43.1367" width="51" height="52" fill="black">
<rect fill="white" x="352.985" y="43.1367" width="51" height="52"/>
<path d="M373.947 67.2579C374.903 72.7005 376.135 78.1067 377.324 83.137C377.875 85.395 379.76 86.3967 382.364 85.8086L382.638 85.7505C382.667 85.7443 382.694 85.7385 382.723 85.7323C385.286 85.1875 386.567 83.521 386.157 81.2574C385.207 76.2168 384.14 70.804 382.784 65.3795C382.169 62.8859 379.724 62.4714 377.641 62.9121C375.561 63.3543 373.498 64.7289 373.946 67.256L373.947 67.2579Z"/>
<path d="M364.939 64.8647L362.193 65.4483C361.716 65.5477 361.409 66.0183 361.51 66.4972L366.308 89.0678C366.409 89.5448 366.88 89.8521 367.359 89.7503L370.104 89.1667C372.797 88.5943 374.523 85.9376 373.95 83.2445L370.861 68.7126C370.289 66.0194 367.632 64.2942 364.939 64.8666L364.939 64.8647Z"/>
<path d="M359.687 55.8301C359.208 55.9319 358.903 56.4021 359.004 56.881L359.429 58.88C360.002 61.5731 362.658 63.2984 365.352 62.7259L369.545 61.8345C369.562 61.8288 369.59 61.8231 369.628 61.8148C369.652 61.8099 369.683 61.8033 369.719 61.7935L369.742 61.7886C369.813 61.7776 369.885 61.7624 369.956 61.7471C369.985 61.7409 370.028 61.7319 370.076 61.7196L370.28 61.6764C370.317 61.6705 370.365 61.6602 370.427 61.6431L370.45 61.6382C370.507 61.6281 370.561 61.6185 370.617 61.6047C370.648 61.5981 370.687 61.5898 370.736 61.5752L370.76 61.5703C370.834 61.5566 370.89 61.5465 370.954 61.5329C370.98 61.5276 371.007 61.5218 371.041 61.5125L371.065 61.5075C371.135 61.4966 371.205 61.4817 371.279 61.4661C371.312 61.4591 371.35 61.4508 371.396 61.437L371.419 61.4321C371.482 61.4208 371.549 61.4107 371.612 61.3952C371.655 61.3861 371.703 61.3758 371.761 61.3596L371.786 61.3542C371.835 61.3458 371.887 61.3328 371.934 61.3248C371.965 61.3182 372 61.3108 372.038 61.3006L372.059 61.2961C372.131 61.2828 372.198 61.2707 372.268 61.2559C372.3 61.2489 372.339 61.2406 372.379 61.2281L372.402 61.2231C372.465 61.2119 372.529 61.2002 372.591 61.1871C372.636 61.1776 372.686 61.1669 372.746 61.1502L372.769 61.1453C372.818 61.1369 372.868 61.1242 372.917 61.1159C372.952 61.1085 372.996 61.099 373.044 61.0848L373.069 61.0794C373.141 61.0661 373.192 61.0554 373.244 61.0462C373.275 61.0396 373.312 61.0318 373.352 61.0212C373.444 61.0038 373.514 60.9909 373.582 60.9765C373.617 60.969 373.656 60.9608 373.698 60.9479L373.725 60.9421C373.787 60.9308 373.846 60.9204 373.908 60.9072C373.943 60.8998 373.981 60.8916 374.023 60.8786L374.047 60.8737C374.111 60.862 374.173 60.8508 374.234 60.838C374.278 60.8285 374.332 60.817 374.386 60.8015L374.409 60.7966C374.458 60.7882 374.509 60.7795 374.555 60.7676C374.59 60.7602 374.627 60.7524 374.669 60.7414L374.692 60.7364C374.761 60.7259 374.821 60.7131 374.883 60.6999C374.933 60.6892 374.992 60.6768 375.051 60.6602L375.074 60.6552C375.121 60.6473 375.168 60.6393 375.21 60.6283C375.251 60.6197 375.3 60.6094 375.349 60.5948L375.372 60.5898C375.446 60.5761 375.495 60.5678 375.55 60.5562C375.585 60.5488 375.621 60.541 375.662 60.5304L375.685 60.5254C375.75 60.5157 375.814 60.504 375.872 60.4897C375.916 60.4803 375.965 60.47 376.018 60.4545L376.042 60.4496C376.106 60.4379 376.161 60.4283 376.211 60.4176C376.258 60.4077 376.302 60.3982 376.352 60.3837L376.375 60.3787C376.44 60.367 376.492 60.3579 376.543 60.3471C376.585 60.3381 376.63 60.3286 376.678 60.3144L376.701 60.3095C376.765 60.2978 376.818 60.2886 376.87 60.2775C376.915 60.268 376.96 60.2585 377.007 60.2444L377.031 60.2394C377.097 60.2273 377.148 60.2186 377.202 60.207C377.254 60.1959 377.309 60.1844 377.362 60.1689L377.515 60.1364C377.564 60.128 377.613 60.1177 377.664 60.1027L377.687 60.0978C377.761 60.084 377.808 60.0761 377.859 60.0654C377.901 60.0563 377.95 60.046 377.996 60.0322L378.042 60.0223C378.093 60.0136 378.138 60.006 378.183 59.9966C378.223 59.9879 378.264 59.9792 378.308 59.9678L378.341 59.9608C378.4 59.9523 378.454 59.9408 378.507 59.9297C378.557 59.919 378.612 59.9074 378.665 59.892L378.688 59.887C378.745 59.877 378.8 59.8674 378.848 59.8571C378.897 59.8468 378.943 59.8369 378.991 59.8228L379.014 59.8178C379.082 59.8053 379.128 59.7997 379.17 59.7887C379.211 59.7801 379.259 59.7698 379.301 59.7588L379.325 59.7538C379.384 59.7453 379.44 59.7334 379.49 59.7227C379.562 59.7074 379.635 59.6898 379.712 59.6675L379.818 59.6448C379.874 59.6329 379.929 59.6214 379.986 59.6051L380.009 59.6002C380.068 59.5897 380.115 59.5818 380.158 59.5727C380.208 59.562 380.258 59.5513 380.312 59.5359L380.335 59.5309C380.394 59.5205 380.441 59.5126 380.483 59.5035C380.53 59.4936 380.578 59.4833 380.628 59.4706L380.652 59.4657C380.711 59.4572 380.761 59.4446 380.807 59.4366C380.86 59.4255 380.914 59.4139 380.968 59.3985L380.993 59.3932C381.053 59.3823 381.1 59.3744 381.143 59.3653C381.195 59.3542 381.25 59.3426 381.303 59.3272L381.326 59.3223C381.396 59.3094 381.436 59.3031 381.476 59.2944C381.529 59.2833 381.585 59.2713 381.638 59.2559L381.662 59.251C381.726 59.2393 381.77 59.2341 381.806 59.2244C381.858 59.2132 381.913 59.2017 381.966 59.1863L382.015 59.176C382.059 59.1665 382.096 59.1606 382.132 59.1551C382.196 59.1415 382.26 59.1279 382.325 59.11L382.348 59.1051C382.385 59.0973 382.418 59.0902 382.451 59.0832C382.509 59.0709 382.571 59.0577 382.63 59.041L382.654 59.0361C382.716 59.0248 382.758 59.0201 382.792 59.0107C382.848 58.9988 382.906 58.9864 382.966 58.9697L383.014 58.9594C383.053 58.9512 383.085 58.9485 383.116 58.9419C383.164 58.9316 383.217 58.9205 383.267 58.9078L383.29 58.9029C383.351 58.894 383.4 58.8856 383.44 58.875C383.502 58.8618 383.562 58.849 383.627 58.8311L383.674 58.8213C383.718 58.8118 383.754 58.8082 383.783 58.8021C383.841 58.7897 383.898 58.7777 383.957 58.7611L384.013 58.7491C384.054 58.7405 384.086 58.7378 384.111 58.7305C384.176 58.7165 384.246 58.7016 384.311 58.6837L384.335 58.6788C384.374 58.6725 384.411 58.6666 384.436 58.6593C384.486 58.6486 384.541 58.637 384.592 58.624L384.802 58.5713L384.805 58.5849L388.715 57.7579C391.408 57.1855 393.133 54.5288 392.561 51.8357L392.136 49.8387C392.035 49.3617 391.564 49.0544 391.085 49.1562L359.687 55.8301Z"/>
<path d="M392.788 58.9429L390.043 59.5265C387.35 60.0989 385.625 62.7555 386.197 65.4487L389.286 79.9806C389.858 82.6737 392.515 84.3989 395.208 83.8265L397.954 83.2429C398.431 83.1415 398.738 82.6709 398.636 82.192L393.839 59.6254C393.738 59.1484 393.267 58.8411 392.788 58.9429Z"/>
</mask>
<path d="M373.947 67.2579C374.903 72.7005 376.135 78.1067 377.324 83.137C377.875 85.395 379.76 86.3967 382.364 85.8086L382.638 85.7505C382.667 85.7443 382.694 85.7385 382.723 85.7323C385.286 85.1875 386.567 83.521 386.157 81.2574C385.207 76.2168 384.14 70.804 382.784 65.3795C382.169 62.8859 379.724 62.4714 377.641 62.9121C375.561 63.3543 373.498 64.7289 373.946 67.256L373.947 67.2579Z" fill="#F75150"/>
<path d="M364.939 64.8647L362.193 65.4483C361.716 65.5477 361.409 66.0183 361.51 66.4972L366.308 89.0678C366.409 89.5448 366.88 89.8521 367.359 89.7503L370.104 89.1667C372.797 88.5943 374.523 85.9376 373.95 83.2445L370.861 68.7126C370.289 66.0194 367.632 64.2942 364.939 64.8666L364.939 64.8647Z" fill="#F75150"/>
<path d="M359.687 55.8301C359.208 55.9319 358.903 56.4021 359.004 56.881L359.429 58.88C360.002 61.5731 362.658 63.2984 365.352 62.7259L369.545 61.8345C369.562 61.8288 369.59 61.8231 369.628 61.8148C369.652 61.8099 369.683 61.8033 369.719 61.7935L369.742 61.7886C369.813 61.7776 369.885 61.7624 369.956 61.7471C369.985 61.7409 370.028 61.7319 370.076 61.7196L370.28 61.6764C370.317 61.6705 370.365 61.6602 370.427 61.6431L370.45 61.6382C370.507 61.6281 370.561 61.6185 370.617 61.6047C370.648 61.5981 370.687 61.5898 370.736 61.5752L370.76 61.5703C370.834 61.5566 370.89 61.5465 370.954 61.5329C370.98 61.5276 371.007 61.5218 371.041 61.5125L371.065 61.5075C371.135 61.4966 371.205 61.4817 371.279 61.4661C371.312 61.4591 371.35 61.4508 371.396 61.437L371.419 61.4321C371.482 61.4208 371.549 61.4107 371.612 61.3952C371.655 61.3861 371.703 61.3758 371.761 61.3596L371.786 61.3542C371.835 61.3458 371.887 61.3328 371.934 61.3248C371.965 61.3182 372 61.3108 372.038 61.3006L372.059 61.2961C372.131 61.2828 372.198 61.2707 372.268 61.2559C372.3 61.2489 372.339 61.2406 372.379 61.2281L372.402 61.2231C372.465 61.2119 372.529 61.2002 372.591 61.1871C372.636 61.1776 372.686 61.1669 372.746 61.1502L372.769 61.1453C372.818 61.1369 372.868 61.1242 372.917 61.1159C372.952 61.1085 372.996 61.099 373.044 61.0848L373.069 61.0794C373.141 61.0661 373.192 61.0554 373.244 61.0462C373.275 61.0396 373.312 61.0318 373.352 61.0212C373.444 61.0038 373.514 60.9909 373.582 60.9765C373.617 60.969 373.656 60.9608 373.698 60.9479L373.725 60.9421C373.787 60.9308 373.846 60.9204 373.908 60.9072C373.943 60.8998 373.981 60.8916 374.023 60.8786L374.047 60.8737C374.111 60.862 374.173 60.8508 374.234 60.838C374.278 60.8285 374.332 60.817 374.386 60.8015L374.409 60.7966C374.458 60.7882 374.509 60.7795 374.555 60.7676C374.59 60.7602 374.627 60.7524 374.669 60.7414L374.692 60.7364C374.761 60.7259 374.821 60.7131 374.883 60.6999C374.933 60.6892 374.992 60.6768 375.051 60.6602L375.074 60.6552C375.121 60.6473 375.168 60.6393 375.21 60.6283C375.251 60.6197 375.3 60.6094 375.349 60.5948L375.372 60.5898C375.446 60.5761 375.495 60.5678 375.55 60.5562C375.585 60.5488 375.621 60.541 375.662 60.5304L375.685 60.5254C375.75 60.5157 375.814 60.504 375.872 60.4897C375.916 60.4803 375.965 60.47 376.018 60.4545L376.042 60.4496C376.106 60.4379 376.161 60.4283 376.211 60.4176C376.258 60.4077 376.302 60.3982 376.352 60.3837L376.375 60.3787C376.44 60.367 376.492 60.3579 376.543 60.3471C376.585 60.3381 376.63 60.3286 376.678 60.3144L376.701 60.3095C376.765 60.2978 376.818 60.2886 376.87 60.2775C376.915 60.268 376.96 60.2585 377.007 60.2444L377.031 60.2394C377.097 60.2273 377.148 60.2186 377.202 60.207C377.254 60.1959 377.309 60.1844 377.362 60.1689L377.515 60.1364C377.564 60.128 377.613 60.1177 377.664 60.1027L377.687 60.0978C377.761 60.084 377.808 60.0761 377.859 60.0654C377.901 60.0563 377.95 60.046 377.996 60.0322L378.042 60.0223C378.093 60.0136 378.138 60.006 378.183 59.9966C378.223 59.9879 378.264 59.9792 378.308 59.9678L378.341 59.9608C378.4 59.9523 378.454 59.9408 378.507 59.9297C378.557 59.919 378.612 59.9074 378.665 59.892L378.688 59.887C378.745 59.877 378.8 59.8674 378.848 59.8571C378.897 59.8468 378.943 59.8369 378.991 59.8228L379.014 59.8178C379.082 59.8053 379.128 59.7997 379.17 59.7887C379.211 59.7801 379.259 59.7698 379.301 59.7588L379.325 59.7538C379.384 59.7453 379.44 59.7334 379.49 59.7227C379.562 59.7074 379.635 59.6898 379.712 59.6675L379.818 59.6448C379.874 59.6329 379.929 59.6214 379.986 59.6051L380.009 59.6002C380.068 59.5897 380.115 59.5818 380.158 59.5727C380.208 59.562 380.258 59.5513 380.312 59.5359L380.335 59.5309C380.394 59.5205 380.441 59.5126 380.483 59.5035C380.53 59.4936 380.578 59.4833 380.628 59.4706L380.652 59.4657C380.711 59.4572 380.761 59.4446 380.807 59.4366C380.86 59.4255 380.914 59.4139 380.968 59.3985L380.993 59.3932C381.053 59.3823 381.1 59.3744 381.143 59.3653C381.195 59.3542 381.25 59.3426 381.303 59.3272L381.326 59.3223C381.396 59.3094 381.436 59.3031 381.476 59.2944C381.529 59.2833 381.585 59.2713 381.638 59.2559L381.662 59.251C381.726 59.2393 381.77 59.2341 381.806 59.2244C381.858 59.2132 381.913 59.2017 381.966 59.1863L382.015 59.176C382.059 59.1665 382.096 59.1606 382.132 59.1551C382.196 59.1415 382.26 59.1279 382.325 59.11L382.348 59.1051C382.385 59.0973 382.418 59.0902 382.451 59.0832C382.509 59.0709 382.571 59.0577 382.63 59.041L382.654 59.0361C382.716 59.0248 382.758 59.0201 382.792 59.0107C382.848 58.9988 382.906 58.9864 382.966 58.9697L383.014 58.9594C383.053 58.9512 383.085 58.9485 383.116 58.9419C383.164 58.9316 383.217 58.9205 383.267 58.9078L383.29 58.9029C383.351 58.894 383.4 58.8856 383.44 58.875C383.502 58.8618 383.562 58.849 383.627 58.8311L383.674 58.8213C383.718 58.8118 383.754 58.8082 383.783 58.8021C383.841 58.7897 383.898 58.7777 383.957 58.7611L384.013 58.7491C384.054 58.7405 384.086 58.7378 384.111 58.7305C384.176 58.7165 384.246 58.7016 384.311 58.6837L384.335 58.6788C384.374 58.6725 384.411 58.6666 384.436 58.6593C384.486 58.6486 384.541 58.637 384.592 58.624L384.802 58.5713L384.805 58.5849L388.715 57.7579C391.408 57.1855 393.133 54.5288 392.561 51.8357L392.136 49.8387C392.035 49.3617 391.564 49.0544 391.085 49.1562L359.687 55.8301Z" fill="#F75150"/>
<path d="M392.788 58.9429L390.043 59.5265C387.35 60.0989 385.625 62.7555 386.197 65.4487L389.286 79.9806C389.858 82.6737 392.515 84.3989 395.208 83.8265L397.954 83.2429C398.431 83.1415 398.738 82.6709 398.636 82.192L393.839 59.6254C393.738 59.1484 393.267 58.8411 392.788 58.9429Z" fill="#F75150"/>
<path d="M373.947 67.2579C374.903 72.7005 376.135 78.1067 377.324 83.137C377.875 85.395 379.76 86.3967 382.364 85.8086L382.638 85.7505C382.667 85.7443 382.694 85.7385 382.723 85.7323C385.286 85.1875 386.567 83.521 386.157 81.2574C385.207 76.2168 384.14 70.804 382.784 65.3795C382.169 62.8859 379.724 62.4714 377.641 62.9121C375.561 63.3543 373.498 64.7289 373.946 67.256L373.947 67.2579Z" stroke="#262929" stroke-width="10" mask="url(#path-14-outside-1_4412_6309)"/>
<path d="M364.939 64.8647L362.193 65.4483C361.716 65.5477 361.409 66.0183 361.51 66.4972L366.308 89.0678C366.409 89.5448 366.88 89.8521 367.359 89.7503L370.104 89.1667C372.797 88.5943 374.523 85.9376 373.95 83.2445L370.861 68.7126C370.289 66.0194 367.632 64.2942 364.939 64.8666L364.939 64.8647Z" stroke="#262929" stroke-width="10" mask="url(#path-14-outside-1_4412_6309)"/>
<path d="M359.687 55.8301C359.208 55.9319 358.903 56.4021 359.004 56.881L359.429 58.88C360.002 61.5731 362.658 63.2984 365.352 62.7259L369.545 61.8345C369.562 61.8288 369.59 61.8231 369.628 61.8148C369.652 61.8099 369.683 61.8033 369.719 61.7935L369.742 61.7886C369.813 61.7776 369.885 61.7624 369.956 61.7471C369.985 61.7409 370.028 61.7319 370.076 61.7196L370.28 61.6764C370.317 61.6705 370.365 61.6602 370.427 61.6431L370.45 61.6382C370.507 61.6281 370.561 61.6185 370.617 61.6047C370.648 61.5981 370.687 61.5898 370.736 61.5752L370.76 61.5703C370.834 61.5566 370.89 61.5465 370.954 61.5329C370.98 61.5276 371.007 61.5218 371.041 61.5125L371.065 61.5075C371.135 61.4966 371.205 61.4817 371.279 61.4661C371.312 61.4591 371.35 61.4508 371.396 61.437L371.419 61.4321C371.482 61.4208 371.549 61.4107 371.612 61.3952C371.655 61.3861 371.703 61.3758 371.761 61.3596L371.786 61.3542C371.835 61.3458 371.887 61.3328 371.934 61.3248C371.965 61.3182 372 61.3108 372.038 61.3006L372.059 61.2961C372.131 61.2828 372.198 61.2707 372.268 61.2559C372.3 61.2489 372.339 61.2406 372.379 61.2281L372.402 61.2231C372.465 61.2119 372.529 61.2002 372.591 61.1871C372.636 61.1776 372.686 61.1669 372.746 61.1502L372.769 61.1453C372.818 61.1369 372.868 61.1242 372.917 61.1159C372.952 61.1085 372.996 61.099 373.044 61.0848L373.069 61.0794C373.141 61.0661 373.192 61.0554 373.244 61.0462C373.275 61.0396 373.312 61.0318 373.352 61.0212C373.444 61.0038 373.514 60.9909 373.582 60.9765C373.617 60.969 373.656 60.9608 373.698 60.9479L373.725 60.9421C373.787 60.9308 373.846 60.9204 373.908 60.9072C373.943 60.8998 373.981 60.8916 374.023 60.8786L374.047 60.8737C374.111 60.862 374.173 60.8508 374.234 60.838C374.278 60.8285 374.332 60.817 374.386 60.8015L374.409 60.7966C374.458 60.7882 374.509 60.7795 374.555 60.7676C374.59 60.7602 374.627 60.7524 374.669 60.7414L374.692 60.7364C374.761 60.7259 374.821 60.7131 374.883 60.6999C374.933 60.6892 374.992 60.6768 375.051 60.6602L375.074 60.6552C375.121 60.6473 375.168 60.6393 375.21 60.6283C375.251 60.6197 375.3 60.6094 375.349 60.5948L375.372 60.5898C375.446 60.5761 375.495 60.5678 375.55 60.5562C375.585 60.5488 375.621 60.541 375.662 60.5304L375.685 60.5254C375.75 60.5157 375.814 60.504 375.872 60.4897C375.916 60.4803 375.965 60.47 376.018 60.4545L376.042 60.4496C376.106 60.4379 376.161 60.4283 376.211 60.4176C376.258 60.4077 376.302 60.3982 376.352 60.3837L376.375 60.3787C376.44 60.367 376.492 60.3579 376.543 60.3471C376.585 60.3381 376.63 60.3286 376.678 60.3144L376.701 60.3095C376.765 60.2978 376.818 60.2886 376.87 60.2775C376.915 60.268 376.96 60.2585 377.007 60.2444L377.031 60.2394C377.097 60.2273 377.148 60.2186 377.202 60.207C377.254 60.1959 377.309 60.1844 377.362 60.1689L377.515 60.1364C377.564 60.128 377.613 60.1177 377.664 60.1027L377.687 60.0978C377.761 60.084 377.808 60.0761 377.859 60.0654C377.901 60.0563 377.95 60.046 377.996 60.0322L378.042 60.0223C378.093 60.0136 378.138 60.006 378.183 59.9966C378.223 59.9879 378.264 59.9792 378.308 59.9678L378.341 59.9608C378.4 59.9523 378.454 59.9408 378.507 59.9297C378.557 59.919 378.612 59.9074 378.665 59.892L378.688 59.887C378.745 59.877 378.8 59.8674 378.848 59.8571C378.897 59.8468 378.943 59.8369 378.991 59.8228L379.014 59.8178C379.082 59.8053 379.128 59.7997 379.17 59.7887C379.211 59.7801 379.259 59.7698 379.301 59.7588L379.325 59.7538C379.384 59.7453 379.44 59.7334 379.49 59.7227C379.562 59.7074 379.635 59.6898 379.712 59.6675L379.818 59.6448C379.874 59.6329 379.929 59.6214 379.986 59.6051L380.009 59.6002C380.068 59.5897 380.115 59.5818 380.158 59.5727C380.208 59.562 380.258 59.5513 380.312 59.5359L380.335 59.5309C380.394 59.5205 380.441 59.5126 380.483 59.5035C380.53 59.4936 380.578 59.4833 380.628 59.4706L380.652 59.4657C380.711 59.4572 380.761 59.4446 380.807 59.4366C380.86 59.4255 380.914 59.4139 380.968 59.3985L380.993 59.3932C381.053 59.3823 381.1 59.3744 381.143 59.3653C381.195 59.3542 381.25 59.3426 381.303 59.3272L381.326 59.3223C381.396 59.3094 381.436 59.3031 381.476 59.2944C381.529 59.2833 381.585 59.2713 381.638 59.2559L381.662 59.251C381.726 59.2393 381.77 59.2341 381.806 59.2244C381.858 59.2132 381.913 59.2017 381.966 59.1863L382.015 59.176C382.059 59.1665 382.096 59.1606 382.132 59.1551C382.196 59.1415 382.26 59.1279 382.325 59.11L382.348 59.1051C382.385 59.0973 382.418 59.0902 382.451 59.0832C382.509 59.0709 382.571 59.0577 382.63 59.041L382.654 59.0361C382.716 59.0248 382.758 59.0201 382.792 59.0107C382.848 58.9988 382.906 58.9864 382.966 58.9697L383.014 58.9594C383.053 58.9512 383.085 58.9485 383.116 58.9419C383.164 58.9316 383.217 58.9205 383.267 58.9078L383.29 58.9029C383.351 58.894 383.4 58.8856 383.44 58.875C383.502 58.8618 383.562 58.849 383.627 58.8311L383.674 58.8213C383.718 58.8118 383.754 58.8082 383.783 58.8021C383.841 58.7897 383.898 58.7777 383.957 58.7611L384.013 58.7491C384.054 58.7405 384.086 58.7378 384.111 58.7305C384.176 58.7165 384.246 58.7016 384.311 58.6837L384.335 58.6788C384.374 58.6725 384.411 58.6666 384.436 58.6593C384.486 58.6486 384.541 58.637 384.592 58.624L384.802 58.5713L384.805 58.5849L388.715 57.7579C391.408 57.1855 393.133 54.5288 392.561 51.8357L392.136 49.8387C392.035 49.3617 391.564 49.0544 391.085 49.1562L359.687 55.8301Z" stroke="#262929" stroke-width="10" mask="url(#path-14-outside-1_4412_6309)"/>
<path d="M392.788 58.9429L390.043 59.5265C387.35 60.0989 385.625 62.7555 386.197 65.4487L389.286 79.9806C389.858 82.6737 392.515 84.3989 395.208 83.8265L397.954 83.2429C398.431 83.1415 398.738 82.6709 398.636 82.192L393.839 59.6254C393.738 59.1484 393.267 58.8411 392.788 58.9429Z" stroke="#262929" stroke-width="10" mask="url(#path-14-outside-1_4412_6309)"/>
</g>
<g filter="url(#filter5_dd_4412_6309)">
<path d="M169 115.839L178.586 117.85L184.619 89.0932L175.033 87.0821L169 115.839ZM227.251 100.54C227.806 97.8917 226.112 95.2969 223.464 94.7414L208.331 91.5663L212.917 81.095C213.015 80.8655 213.104 80.6214 213.159 80.3578C213.368 79.3633 213.149 78.3792 212.638 77.5964L210.616 74.5328L191.525 87.002C190.479 87.6957 189.688 88.7808 189.412 90.0988L184.384 114.062C183.828 116.71 185.523 119.305 188.171 119.861L209.738 124.386C211.727 124.803 213.683 123.95 214.761 122.387L225.531 107.009C225.862 106.503 226.117 105.943 226.245 105.332L227.208 100.743L227.189 100.714L227.251 100.54Z" fill="#FCA52A"/>
<path d="M167.043 115.428L166.632 117.385L168.589 117.796L178.175 119.807L180.132 120.218L180.543 118.26L186.576 89.5039L186.987 87.5465L185.03 87.1358L175.444 85.1247L173.487 84.714L173.076 86.6714L167.043 115.428ZM229.312 100.307C229.711 96.8099 227.389 93.5213 223.874 92.784L211.15 90.1143L214.749 81.8974L214.752 81.8895L214.756 81.8816C214.883 81.5846 215.024 81.2077 215.116 80.7685C215.439 79.229 215.099 77.707 214.312 76.5027L214.307 76.4948L212.285 73.4312L211.189 71.7698L209.522 72.8583L190.431 85.3276L190.431 85.3275L190.42 85.3352C188.962 86.3017 187.845 87.8253 187.454 89.6881L182.426 113.652C181.644 117.381 184.031 121.036 187.76 121.818L209.328 126.343C212.127 126.931 214.88 125.73 216.403 123.53C216.404 123.528 216.406 123.526 216.407 123.523L227.169 108.156L227.187 108.131L227.204 108.105C227.647 107.427 228.015 106.639 228.203 105.743L229.165 101.154L229.181 101.08L229.208 100.95L229.336 100.343L229.312 100.307Z" stroke="#262929" stroke-width="4"/>
</g>
<path d="M123 71.506L86.1275 40.0542C85.9461 39.9027 85.6745 40.0644 85.7285 40.2942C85.9497 41.2959 86.623 46.7815 80.6929 48.482C75.8822 49.8614 73.4125 49.6362 68.4578 51.0569C66.7452 51.548 64.9831 53.1004 64.3781 55.0272L63.2304 58.6594L90.9694 82.3123L98.5456 80.1399C100.779 79.4994 103.183 80.0188 104.946 81.5238L111.571 87.182L127.322 82.6654L125.02 74.6369C124.671 73.4205 123.968 72.3294 123 71.506ZM97.1099 60.9303C93.6408 60.5667 89.6397 55.7541 89.6397 55.7541C95.9246 53.952 102.301 60.2078 102.301 60.2078C102.301 60.2078 100.585 61.2924 97.1154 60.9287L97.1099 60.9303Z" fill="url(#paint0_linear_4412_6309)"/>
<path d="M107.272 104.571L78.8296 112.727C76.7846 113.313 74.592 112.841 72.9731 111.463L55.632 96.6699C53.5204 94.8699 52.6943 91.9891 53.5312 89.3437L61.1784 65.1839L61.1839 65.1824L107.274 104.576L107.272 104.571Z" fill="url(#paint1_linear_4412_6309)"/>
<path d="M83.777 40.7323C83.2785 38.5375 85.842 37.21 87.4094 38.5191L87.4254 38.5325L124.296 69.9827L83.777 40.7323ZM83.777 40.7323C83.8437 41.0409 84.0105 42.2694 83.6121 43.5182C83.2552 44.6368 82.4184 45.9066 80.1416 46.5595C77.8705 47.2107 76.1586 47.4842 74.3337 47.7758L74.3138 47.779C72.4644 48.0745 70.5074 48.3886 67.9065 49.1344C65.5945 49.7973 63.2911 51.8151 62.4704 54.4265C62.4703 54.427 62.4701 54.4275 62.4699 54.428L61.3233 58.0568C61.0812 58.823 61.3212 59.6598 61.9327 60.1812L89.6717 83.8342C90.1819 84.2692 90.8761 84.4197 91.5207 84.2348L99.0968 82.0624C100.688 81.6063 102.396 81.977 103.647 83.0446C103.648 83.0447 103.648 83.0449 103.648 83.045L110.272 88.7027C110.782 89.1386 111.477 89.2895 112.122 89.1045L127.873 84.588C128.935 84.2835 129.549 83.1759 129.244 82.1142L126.942 74.0857C126.485 72.491 125.565 71.0626 124.298 69.9843L83.777 40.7323ZM87.6756 39.8376C87.6785 39.8501 87.6813 39.8624 87.684 39.8748C87.6831 39.8708 87.6822 39.8668 87.6814 39.8629L87.6756 39.8376ZM95.1278 58.0211C95.7998 58.2625 96.4573 58.5652 97.0877 58.9056C96.6471 58.8174 96.1069 58.6015 95.4853 58.2397C95.3661 58.1703 95.2469 58.0973 95.1278 58.0211ZM109.195 104.02C109.071 103.588 108.815 103.23 108.482 102.978L62.4834 63.662C61.9731 63.2259 61.278 63.0748 60.6326 63.2598L60.6271 63.2614C59.9828 63.4462 59.4739 63.9414 59.2717 64.5804L51.6244 88.7401L51.6243 88.7405C50.545 92.1524 51.6111 95.8704 54.3345 98.192L71.6751 112.984L71.6764 112.985C73.8069 114.8 76.6937 115.42 79.3809 114.649L107.676 106.536C107.913 106.487 108.143 106.395 108.355 106.259C109.098 105.781 109.44 104.874 109.196 104.025L109.195 104.02Z" stroke="#262929" stroke-width="4" stroke-linejoin="round"/>
<g clip-path="url(#clip3_4412_6309)">
<path d="M305.343 42.7348C300.669 29.1578 285.872 21.9412 272.295 26.6161C258.718 31.2911 251.502 46.0873 256.177 59.6644C260.851 73.2415 275.648 80.4581 289.225 75.7831C302.802 71.1081 310.018 56.3119 305.343 42.7348Z" fill="url(#paint2_linear_4412_6309)" stroke="#262929" stroke-width="4"/>
<path d="M295.588 47.7369L279.361 35.2734C279.282 35.213 279.173 35.2877 279.199 35.383C279.315 35.7999 279.721 38.0992 277.263 38.9456C275.268 39.6325 274.225 39.5903 272.169 40.298C271.458 40.5428 270.752 41.2367 270.54 42.0633L270.138 43.621L282.345 52.9951L285.485 51.9139C286.412 51.5948 287.436 51.7617 288.212 52.3587L291.129 54.5993L297.66 52.3507L296.511 49.0153C296.337 48.5094 296.016 48.0647 295.59 47.7379L295.588 47.7369ZM284.452 43.8394C282.982 43.761 281.19 41.8208 281.19 41.8208C283.794 40.9242 286.619 43.4221 286.619 43.4221C286.619 43.4221 285.921 43.9178 284.452 43.8394Z" fill="#262929"/>
<path d="M289.708 62.0268L277.917 66.0871C277.07 66.3801 276.134 66.2274 275.423 65.6817L267.787 59.8174C266.859 59.1051 266.447 57.9063 266.739 56.7736L269.419 46.4149L269.421 46.4112L289.707 62.0259L289.708 62.0268Z" fill="#262929"/>
</g>
</g>
<defs>
<filter id="filter0_dd_4412_6309" x="148" y="15.9111" width="70.0801" height="70.0803" filterUnits="userSpaceOnUse" color-interpolation-filters="sRGB">
<feFlood flood-opacity="0" result="BackgroundImageFix"/>
<feColorMatrix in="SourceAlpha" type="matrix" values="0 0 0 0 0 0 0 0 0 0 0 0 0 0 0 0 0 0 127 0" result="hardAlpha"/>
<feOffset dy="2"/>
<feGaussianBlur stdDeviation="1"/>
<feComposite in2="hardAlpha" operator="out"/>
<feColorMatrix type="matrix" values="0 0 0 0 0 0 0 0 0 0 0 0 0 0 0 0 0 0 0.03 0"/>
<feBlend mode="normal" in2="BackgroundImageFix" result="effect1_dropShadow_4412_6309"/>
<feColorMatrix in="SourceAlpha" type="matrix" values="0 0 0 0 0 0 0 0 0 0 0 0 0 0 0 0 0 0 127 0" result="hardAlpha"/>
<feOffset dy="4"/>
<feGaussianBlur stdDeviation="6"/>
<feComposite in2="hardAlpha" operator="out"/>
<feColorMatrix type="matrix" values="0 0 0 0 0 0 0 0 0 0 0 0 0 0 0 0 0 0 0.02 0"/>
<feBlend mode="normal" in2="effect1_dropShadow_4412_6309" result="effect2_dropShadow_4412_6309"/>
<feBlend mode="normal" in="SourceGraphic" in2="effect2_dropShadow_4412_6309" result="shape"/>
</filter>
<filter id="filter1_dd_4412_6309" x="154.227" y="22.1379" width="57.6265" height="57.6267" filterUnits="userSpaceOnUse" color-interpolation-filters="sRGB">
<feFlood flood-opacity="0" result="BackgroundImageFix"/>
<feColorMatrix in="SourceAlpha" type="matrix" values="0 0 0 0 0 0 0 0 0 0 0 0 0 0 0 0 0 0 127 0" result="hardAlpha"/>
<feOffset dy="2"/>
<feGaussianBlur stdDeviation="1"/>
<feComposite in2="hardAlpha" operator="out"/>
<feColorMatrix type="matrix" values="0 0 0 0 0 0 0 0 0 0 0 0 0 0 0 0 0 0 0.03 0"/>
<feBlend mode="normal" in2="BackgroundImageFix" result="effect1_dropShadow_4412_6309"/>
<feColorMatrix in="SourceAlpha" type="matrix" values="0 0 0 0 0 0 0 0 0 0 0 0 0 0 0 0 0 0 127 0" result="hardAlpha"/>
<feOffset dy="4"/>
<feGaussianBlur stdDeviation="6"/>
<feComposite in2="hardAlpha" operator="out"/>
<feColorMatrix type="matrix" values="0 0 0 0 0 0 0 0 0 0 0 0 0 0 0 0 0 0 0.02 0"/>
<feBlend mode="normal" in2="effect1_dropShadow_4412_6309" result="effect2_dropShadow_4412_6309"/>
<feBlend mode="normal" in="SourceGraphic" in2="effect2_dropShadow_4412_6309" result="shape"/>
</filter>
<filter id="filter2_dd_4412_6309" x="284" y="77.9104" width="74.4663" height="74.4663" filterUnits="userSpaceOnUse" color-interpolation-filters="sRGB">
<feFlood flood-opacity="0" result="BackgroundImageFix"/>
<feColorMatrix in="SourceAlpha" type="matrix" values="0 0 0 0 0 0 0 0 0 0 0 0 0 0 0 0 0 0 127 0" result="hardAlpha"/>
<feOffset dy="2"/>
<feGaussianBlur stdDeviation="1"/>
<feComposite in2="hardAlpha" operator="out"/>
<feColorMatrix type="matrix" values="0 0 0 0 0 0 0 0 0 0 0 0 0 0 0 0 0 0 0.03 0"/>
<feBlend mode="normal" in2="BackgroundImageFix" result="effect1_dropShadow_4412_6309"/>
<feColorMatrix in="SourceAlpha" type="matrix" values="0 0 0 0 0 0 0 0 0 0 0 0 0 0 0 0 0 0 127 0" result="hardAlpha"/>
<feOffset dy="4"/>
<feGaussianBlur stdDeviation="6"/>
<feComposite in2="hardAlpha" operator="out"/>
<feColorMatrix type="matrix" values="0 0 0 0 0 0 0 0 0 0 0 0 0 0 0 0 0 0 0.02 0"/>
<feBlend mode="normal" in2="effect1_dropShadow_4412_6309" result="effect2_dropShadow_4412_6309"/>
<feBlend mode="normal" in="SourceGraphic" in2="effect2_dropShadow_4412_6309" result="shape"/>
</filter>
<filter id="filter3_dd_4412_6309" x="293.753" y="87.6633" width="54.9604" height="54.9602" filterUnits="userSpaceOnUse" color-interpolation-filters="sRGB">
<feFlood flood-opacity="0" result="BackgroundImageFix"/>
<feColorMatrix in="SourceAlpha" type="matrix" values="0 0 0 0 0 0 0 0 0 0 0 0 0 0 0 0 0 0 127 0" result="hardAlpha"/>
<feOffset dy="2"/>
<feGaussianBlur stdDeviation="1"/>
<feComposite in2="hardAlpha" operator="out"/>
<feColorMatrix type="matrix" values="0 0 0 0 0 0 0 0 0 0 0 0 0 0 0 0 0 0 0.03 0"/>
<feBlend mode="normal" in2="BackgroundImageFix" result="effect1_dropShadow_4412_6309"/>
<feColorMatrix in="SourceAlpha" type="matrix" values="0 0 0 0 0 0 0 0 0 0 0 0 0 0 0 0 0 0 127 0" result="hardAlpha"/>
<feOffset dy="4"/>
<feGaussianBlur stdDeviation="6"/>
<feComposite in2="hardAlpha" operator="out"/>
<feColorMatrix type="matrix" values="0 0 0 0 0 0 0 0 0 0 0 0 0 0 0 0 0 0 0.02 0"/>
<feBlend mode="normal" in2="effect1_dropShadow_4412_6309" result="effect2_dropShadow_4412_6309"/>
<feBlend mode="normal" in="SourceGraphic" in2="effect2_dropShadow_4412_6309" result="shape"/>
</filter>
<filter id="filter4_d_4412_6309" x="343.984" y="38.1355" width="69.6729" height="70.6355" filterUnits="userSpaceOnUse" color-interpolation-filters="sRGB">
<feFlood flood-opacity="0" result="BackgroundImageFix"/>
<feColorMatrix in="SourceAlpha" type="matrix" values="0 0 0 0 0 0 0 0 0 0 0 0 0 0 0 0 0 0 127 0" result="hardAlpha"/>
<feOffset dy="4"/>
<feGaussianBlur stdDeviation="5"/>
<feComposite in2="hardAlpha" operator="out"/>
<feColorMatrix type="matrix" values="0 0 0 0 0 0 0 0 0 0 0 0 0 0 0 0 0 0 0.08 0"/>
<feBlend mode="normal" in2="BackgroundImageFix" result="effect1_dropShadow_4412_6309"/>
<feBlend mode="normal" in="SourceGraphic" in2="effect1_dropShadow_4412_6309" result="shape"/>
</filter>
<filter id="filter5_dd_4412_6309" x="152.264" y="61.0068" width="91.1992" height="83.4851" filterUnits="userSpaceOnUse" color-interpolation-filters="sRGB">
<feFlood flood-opacity="0" result="BackgroundImageFix"/>
<feColorMatrix in="SourceAlpha" type="matrix" values="0 0 0 0 0 0 0 0 0 0 0 0 0 0 0 0 0 0 127 0" result="hardAlpha"/>
<feOffset dy="2"/>
<feGaussianBlur stdDeviation="1"/>
<feComposite in2="hardAlpha" operator="out"/>
<feColorMatrix type="matrix" values="0 0 0 0 0 0 0 0 0 0 0 0 0 0 0 0 0 0 0.03 0"/>
<feBlend mode="normal" in2="BackgroundImageFix" result="effect1_dropShadow_4412_6309"/>
<feColorMatrix in="SourceAlpha" type="matrix" values="0 0 0 0 0 0 0 0 0 0 0 0 0 0 0 0 0 0 127 0" result="hardAlpha"/>
<feOffset dy="4"/>
<feGaussianBlur stdDeviation="6"/>
<feComposite in2="hardAlpha" operator="out"/>
<feColorMatrix type="matrix" values="0 0 0 0 0 0 0 0 0 0 0 0 0 0 0 0 0 0 0.02 0"/>
<feBlend mode="normal" in2="effect1_dropShadow_4412_6309" result="effect2_dropShadow_4412_6309"/>
<feBlend mode="normal" in="SourceGraphic" in2="effect2_dropShadow_4412_6309" result="shape"/>
</filter>
<linearGradient id="paint0_linear_4412_6309" x1="96.0745" y1="107.788" x2="77.342" y2="42.4599" gradientUnits="userSpaceOnUse">
<stop stop-color="#FCB124"/>
<stop offset="1" stop-color="#F63E58"/>
</linearGradient>
<linearGradient id="paint1_linear_4412_6309" x1="83.9135" y1="111.275" x2="69.9707" y2="62.6509" gradientUnits="userSpaceOnUse">
<stop stop-color="#FCB124"/>
<stop offset="1" stop-color="#F63E58"/>
</linearGradient>
<linearGradient id="paint2_linear_4412_6309" x1="272.946" y1="28.5072" x2="288.574" y2="73.8921" gradientUnits="userSpaceOnUse">
<stop stop-color="#F75150"/>
<stop offset="1" stop-color="#FCA52A"/>
</linearGradient>
<clipPath id="clip0_4412_6309">
<rect width="457" height="155" fill="white"/>
</clipPath>
<clipPath id="clip1_4412_6309">
<rect width="37.0781" height="37.0781" fill="white" transform="translate(170.528 23.9111) rotate(16.4962)"/>
</clipPath>
<clipPath id="clip2_4412_6309">
<rect width="37.0781" height="37.0781" fill="white" transform="translate(296 104.024) rotate(-29.2445)"/>
</clipPath>
<clipPath id="clip3_4412_6309">
<rect width="60.8155" height="57.3373" fill="white" transform="translate(242 33.7107) rotate(-19)"/>
</clipPath>
</defs>
</svg>
