<svg width="457" height="155" viewBox="0 0 457 155" fill="none" xmlns="http://www.w3.org/2000/svg">
<g clip-path="url(#clip0_2423_4472)">
<path d="M0 8C0 3.58172 3.58172 0 8 0H449C453.418 0 457 3.58172 457 8V147C457 151.418 453.418 155 449 155H8C3.58172 155 0 151.418 0 147V8Z" fill="#FAFAFA"/>
<line opacity="0.1" x1="46.5" y1="-281" x2="46.5" y2="297" stroke="black" stroke-dasharray="2 2"/>
<line opacity="0.1" x1="97.5" y1="-281" x2="97.5" y2="297" stroke="black" stroke-dasharray="2 2"/>
<line opacity="0.1" x1="148.5" y1="-281" x2="148.5" y2="297" stroke="black" stroke-dasharray="2 2"/>
<line opacity="0.1" x1="199.5" y1="-281" x2="199.5" y2="297" stroke="black" stroke-dasharray="2 2"/>
<line opacity="0.1" x1="250.5" y1="-281" x2="250.5" y2="297" stroke="black" stroke-dasharray="2 2"/>
<line opacity="0.1" x1="301.5" y1="-281" x2="301.5" y2="297" stroke="black" stroke-dasharray="2 2"/>
<line opacity="0.1" x1="352.5" y1="-281" x2="352.5" y2="297" stroke="black" stroke-dasharray="2 2"/>
<line opacity="0.1" x1="403.5" y1="-281" x2="403.5" y2="297" stroke="black" stroke-dasharray="2 2"/>
<line opacity="0.1" x1="491" y1="28.5" x2="-42" y2="28.5" stroke="black" stroke-dasharray="2 2"/>
<line opacity="0.1" x1="491" y1="79.5" x2="-42" y2="79.5" stroke="black" stroke-dasharray="2 2"/>
<line opacity="0.1" x1="491" y1="130.5" x2="-42" y2="130.5" stroke="black" stroke-dasharray="2 2"/>
<g clip-path="url(#clip1_2423_4472)" filter="url(#filter0_dd_2423_4472)">
<g filter="url(#filter1_dd_2423_4472)">
<path d="M187.427 31.2268L188.112 39.8584C188.208 41.0682 188.257 41.6732 188.446 42.2262C188.614 42.7163 188.863 43.1748 189.183 43.5826C189.543 44.0427 190.024 44.4124 190.987 45.1518L197.853 50.4269L189.222 51.1125C188.012 51.2086 187.407 51.2566 186.854 51.4462C186.364 51.6142 185.905 51.8631 185.498 52.1828C185.037 52.5434 184.668 53.0246 183.928 53.987L178.653 60.8534L177.968 52.2218C177.871 51.0119 177.823 50.407 177.634 49.854C177.466 49.3639 177.217 48.9054 176.897 48.4976C176.537 48.0375 176.055 47.6678 175.093 46.9284L168.227 41.6532L176.858 40.9677C178.068 40.8716 178.673 40.8235 179.226 40.634C179.716 40.466 180.175 40.217 180.582 39.8974C181.043 39.5368 181.412 39.0556 182.152 38.0931L187.427 31.2268Z" fill="#F75150"/>
<path d="M187.427 31.2268L188.112 39.8584C188.208 41.0682 188.257 41.6732 188.446 42.2262C188.614 42.7163 188.863 43.1748 189.183 43.5826C189.543 44.0427 190.024 44.4124 190.987 45.1518L197.853 50.4269L189.222 51.1125C188.012 51.2086 187.407 51.2566 186.854 51.4462C186.364 51.6142 185.905 51.8631 185.498 52.1828C185.037 52.5434 184.668 53.0246 183.928 53.987L178.653 60.8534L177.968 52.2218C177.871 51.0119 177.823 50.407 177.634 49.854C177.466 49.3639 177.217 48.9054 176.897 48.4976C176.537 48.0375 176.055 47.6678 175.093 46.9284L168.227 41.6532L176.858 40.9677C178.068 40.8716 178.673 40.8235 179.226 40.634C179.716 40.466 180.175 40.217 180.582 39.8974C181.043 39.5368 181.412 39.0556 182.152 38.0931L187.427 31.2268Z" fill="white" fill-opacity="0.4"/>
<path d="M187.427 31.2268L188.112 39.8584C188.208 41.0682 188.257 41.6732 188.446 42.2262C188.614 42.7163 188.863 43.1748 189.183 43.5826C189.543 44.0427 190.024 44.4124 190.987 45.1518L197.853 50.4269L189.222 51.1125C188.012 51.2086 187.407 51.2566 186.854 51.4462C186.364 51.6142 185.905 51.8631 185.498 52.1828C185.037 52.5434 184.668 53.0246 183.928 53.987L178.653 60.8534L177.968 52.2218C177.871 51.0119 177.823 50.407 177.634 49.854C177.466 49.3639 177.217 48.9054 176.897 48.4976C176.537 48.0375 176.055 47.6678 175.093 46.9284L168.227 41.6532L176.858 40.9677C178.068 40.8716 178.673 40.8235 179.226 40.634C179.716 40.466 180.175 40.217 180.582 39.8974C181.043 39.5368 181.412 39.0556 182.152 38.0931L187.427 31.2268Z" stroke="white" stroke-width="4" stroke-linecap="round" stroke-linejoin="round"/>
</g>
</g>
<g clip-path="url(#clip2_2423_4472)" filter="url(#filter2_dd_2423_4472)">
<g filter="url(#filter3_dd_2423_4472)">
<path d="M313.686 96.7523L320.346 102.285C321.28 103.061 321.746 103.449 322.275 103.699C322.743 103.921 323.245 104.062 323.76 104.118C324.341 104.181 324.942 104.094 326.143 103.921L334.713 102.685L329.18 109.345C328.405 110.279 328.017 110.745 327.767 111.274C327.545 111.742 327.403 112.244 327.348 112.759C327.285 113.341 327.371 113.941 327.545 115.142L328.781 123.712L322.12 118.179C321.187 117.404 320.72 117.016 320.192 116.766C319.723 116.544 319.221 116.402 318.706 116.347C318.125 116.284 317.524 116.371 316.323 116.544L307.753 117.78L313.286 111.12C314.062 110.186 314.449 109.719 314.7 109.191C314.921 108.723 315.063 108.221 315.119 107.705C315.182 107.124 315.095 106.524 314.922 105.322L313.686 96.7523Z" fill="#FCA52A"/>
<path d="M313.686 96.7523L320.346 102.285C321.28 103.061 321.746 103.449 322.275 103.699C322.743 103.921 323.245 104.062 323.76 104.118C324.341 104.181 324.942 104.094 326.143 103.921L334.713 102.685L329.18 109.345C328.405 110.279 328.017 110.745 327.767 111.274C327.545 111.742 327.403 112.244 327.348 112.759C327.285 113.341 327.371 113.941 327.545 115.142L328.781 123.712L322.12 118.179C321.187 117.404 320.72 117.016 320.192 116.766C319.723 116.544 319.221 116.402 318.706 116.347C318.125 116.284 317.524 116.371 316.323 116.544L307.753 117.78L313.286 111.12C314.062 110.186 314.449 109.719 314.7 109.191C314.921 108.723 315.063 108.221 315.119 107.705C315.182 107.124 315.095 106.524 314.922 105.322L313.686 96.7523Z" fill="white" fill-opacity="0.4"/>
<path d="M313.686 96.7523L320.346 102.285C321.28 103.061 321.746 103.449 322.275 103.699C322.743 103.921 323.245 104.062 323.76 104.118C324.341 104.181 324.942 104.094 326.143 103.921L334.713 102.685L329.18 109.345C328.405 110.279 328.017 110.745 327.767 111.274C327.545 111.742 327.403 112.244 327.348 112.759C327.285 113.341 327.371 113.941 327.545 115.142L328.781 123.712L322.12 118.179C321.187 117.404 320.72 117.016 320.192 116.766C319.723 116.544 319.221 116.402 318.706 116.347C318.125 116.284 317.524 116.371 316.323 116.544L307.753 117.78L313.286 111.12C314.062 110.186 314.449 109.719 314.7 109.191C314.921 108.723 315.063 108.221 315.119 107.705C315.182 107.124 315.095 106.524 314.922 105.322L313.686 96.7523Z" stroke="white" stroke-width="4" stroke-linecap="round" stroke-linejoin="round"/>
</g>
</g>
<g filter="url(#filter4_d_2423_4472)">
<mask id="path-15-outside-1_2423_4472" maskUnits="userSpaceOnUse" x="352.985" y="42.2256" width="51" height="52" fill="black">
<rect fill="white" x="352.985" y="42.2256" width="51" height="52"/>
<path d="M373.947 66.3468C374.903 71.7893 376.135 77.1955 377.324 82.2259C377.875 84.4838 379.76 85.4855 382.364 84.8974L382.638 84.8393C382.667 84.8332 382.694 84.8274 382.723 84.8212C385.286 84.2764 386.567 82.6098 386.157 80.3463C385.207 75.3057 384.14 69.8928 382.784 64.4683C382.169 61.9748 379.724 61.5603 377.641 62.0009C375.561 62.4432 373.498 63.8178 373.946 66.3449L373.947 66.3468Z"/>
<path d="M364.939 63.9536L362.193 64.5371C361.716 64.6366 361.409 65.1072 361.51 65.5861L366.308 88.1567C366.409 88.6336 366.88 88.9409 367.359 88.8391L370.104 88.2556C372.797 87.6831 374.523 85.0265 373.95 82.3334L370.861 67.8014C370.289 65.1083 367.632 63.3831 364.939 63.9555L364.939 63.9536Z"/>
<path d="M359.687 54.919C359.208 55.0208 358.903 55.491 359.004 55.9699L359.429 57.9689C360.002 60.662 362.658 62.3872 365.352 61.8148L369.545 60.9234C369.562 60.9177 369.59 60.9119 369.628 60.9037C369.652 60.8988 369.683 60.8922 369.719 60.8824L369.742 60.8774C369.813 60.8665 369.885 60.8512 369.956 60.836C369.985 60.8298 370.028 60.8207 370.076 60.8085L370.28 60.7652C370.317 60.7593 370.365 60.749 370.427 60.732L370.45 60.727C370.507 60.717 370.561 60.7074 370.617 60.6935C370.648 60.6869 370.687 60.6787 370.736 60.6641L370.76 60.6591C370.834 60.6454 370.89 60.6354 370.954 60.6218C370.98 60.6165 371.007 60.6107 371.041 60.6013L371.065 60.5964C371.135 60.5854 371.205 60.5706 371.279 60.5549C371.312 60.5479 371.35 60.5397 371.396 60.5259L371.419 60.521C371.482 60.5097 371.549 60.4996 371.612 60.484C371.655 60.475 371.703 60.4647 371.761 60.4484L371.786 60.4431C371.835 60.4347 371.887 60.4216 371.934 60.4137C371.965 60.4071 372 60.3997 372.038 60.3895L372.059 60.385C372.131 60.3717 372.198 60.3596 372.268 60.3447C372.3 60.3377 372.339 60.3295 372.379 60.317L372.402 60.312C372.465 60.3008 372.529 60.2891 372.591 60.2759C372.636 60.2664 372.686 60.2557 372.746 60.2391L372.769 60.2341C372.818 60.2258 372.868 60.2131 372.917 60.2047C372.952 60.1973 372.996 60.1878 373.044 60.1737L373.069 60.1683C373.141 60.155 373.192 60.1443 373.244 60.1351C373.275 60.1285 373.312 60.1207 373.352 60.1101C373.444 60.0926 373.514 60.0797 373.582 60.0653C373.617 60.0579 373.656 60.0497 373.698 60.0367L373.725 60.0309C373.787 60.0197 373.846 60.0093 373.908 59.9961C373.943 59.9887 373.981 59.9804 374.023 59.9675L374.047 59.9625C374.111 59.9509 374.173 59.9396 374.234 59.9269C374.278 59.9174 374.332 59.9058 374.386 59.8904L374.409 59.8855C374.458 59.8771 374.509 59.8683 374.555 59.8565C374.59 59.8491 374.627 59.8413 374.669 59.8302L374.692 59.8253C374.761 59.8148 374.821 59.802 374.883 59.7888C374.933 59.7781 374.992 59.7657 375.051 59.7491L375.074 59.7441C375.121 59.7362 375.168 59.7282 375.21 59.7172C375.251 59.7085 375.3 59.6982 375.349 59.6837L375.372 59.6787C375.446 59.665 375.495 59.6566 375.55 59.6451C375.585 59.6377 375.621 59.6298 375.662 59.6192L375.685 59.6143C375.75 59.6046 375.814 59.5929 375.872 59.5786C375.916 59.5691 375.965 59.5588 376.018 59.5434L376.042 59.5385C376.106 59.5268 376.161 59.5172 376.211 59.5065C376.258 59.4966 376.302 59.4871 376.352 59.4725L376.375 59.4676C376.44 59.4559 376.492 59.4467 376.543 59.436C376.585 59.4269 376.63 59.4175 376.678 59.4033L376.701 59.3983C376.765 59.3867 376.818 59.3775 376.87 59.3664C376.915 59.3569 376.96 59.3474 377.007 59.3332L377.031 59.3283C377.097 59.3162 377.148 59.3074 377.202 59.2959C377.254 59.2848 377.309 59.2732 377.362 59.2578L377.515 59.2252C377.564 59.2169 377.613 59.2066 377.664 59.1916L377.687 59.1866C377.761 59.1729 377.808 59.165 377.859 59.1542C377.901 59.1452 377.95 59.1349 377.996 59.1211L378.042 59.1112C378.093 59.1024 378.138 59.0949 378.183 59.0854C378.223 59.0768 378.264 59.0681 378.308 59.0567L378.341 59.0497C378.4 59.0412 378.454 59.0297 378.507 59.0185C378.557 59.0078 378.612 58.9963 378.665 58.9809L378.688 58.9759C378.745 58.9659 378.8 58.9563 378.848 58.946C378.897 58.9357 378.943 58.9258 378.991 58.9116L379.014 58.9067C379.082 58.8942 379.128 58.8886 379.17 58.8776C379.211 58.8689 379.259 58.8586 379.301 58.8476L379.325 58.8427C379.384 58.8342 379.44 58.8222 379.49 58.8115C379.562 58.7963 379.635 58.7787 379.712 58.7564L379.818 58.7337C379.874 58.7218 379.929 58.7102 379.986 58.694L380.009 58.689C380.068 58.6786 380.115 58.6707 380.158 58.6616C380.208 58.6509 380.258 58.6402 380.312 58.6247L380.335 58.6198C380.394 58.6094 380.441 58.6014 380.483 58.5924C380.53 58.5825 380.578 58.5722 380.628 58.5595L380.652 58.5546C380.711 58.5461 380.761 58.5334 380.807 58.5255C380.86 58.5143 380.914 58.5028 380.968 58.4874L380.993 58.482C381.053 58.4712 381.1 58.4632 381.143 58.4542C381.195 58.443 381.25 58.4315 381.303 58.4161L381.326 58.4111C381.396 58.3982 381.436 58.3919 381.476 58.3833C381.529 58.3722 381.585 58.3602 381.638 58.3448L381.662 58.3398C381.726 58.3282 381.77 58.323 381.806 58.3132C381.858 58.3021 381.913 58.2906 381.966 58.2751L382.015 58.2648C382.059 58.2554 382.096 58.2495 382.132 58.244C382.196 58.2304 382.26 58.2168 382.325 58.1989L382.348 58.194C382.385 58.1861 382.418 58.1791 382.451 58.1721C382.509 58.1597 382.571 58.1466 382.63 58.1299L382.654 58.125C382.716 58.1137 382.758 58.1089 382.792 58.0996C382.848 58.0876 382.906 58.0753 382.966 58.0586L383.014 58.0483C383.053 58.0401 383.085 58.0373 383.116 58.0308C383.164 58.0204 383.217 58.0093 383.267 57.9967L383.29 57.9917C383.351 57.9828 383.4 57.9745 383.44 57.9639C383.502 57.9507 383.562 57.9379 383.627 57.92L383.674 57.9101C383.718 57.9006 383.754 57.8971 383.783 57.8909C383.841 57.8786 383.898 57.8666 383.957 57.8499L384.013 57.838C384.054 57.8293 384.086 57.8266 384.111 57.8193C384.176 57.8053 384.246 57.7905 384.311 57.7726L384.335 57.7676C384.374 57.7613 384.411 57.7555 384.436 57.7482C384.486 57.7374 384.541 57.7259 384.592 57.7128L384.802 57.6602L384.805 57.6737L388.715 56.8468C391.408 56.2743 393.133 53.6177 392.561 50.9246L392.136 48.9275C392.035 48.4506 391.564 48.1433 391.085 48.2451L359.687 54.919Z"/>
<path d="M392.788 58.0318L390.043 58.6153C387.35 59.1878 385.625 61.8444 386.197 64.5375L389.286 79.0694C389.858 81.7626 392.515 83.4878 395.208 82.9154L397.954 82.3318C398.431 82.2304 398.738 81.7598 398.636 81.2809L393.839 58.7142C393.738 58.2373 393.267 57.93 392.788 58.0318Z"/>
</mask>
<path d="M373.947 66.3468C374.903 71.7893 376.135 77.1955 377.324 82.2259C377.875 84.4838 379.76 85.4855 382.364 84.8974L382.638 84.8393C382.667 84.8332 382.694 84.8274 382.723 84.8212C385.286 84.2764 386.567 82.6098 386.157 80.3463C385.207 75.3057 384.14 69.8928 382.784 64.4683C382.169 61.9748 379.724 61.5603 377.641 62.0009C375.561 62.4432 373.498 63.8178 373.946 66.3449L373.947 66.3468Z" fill="#F75150"/>
<path d="M364.939 63.9536L362.193 64.5371C361.716 64.6366 361.409 65.1072 361.51 65.5861L366.308 88.1567C366.409 88.6336 366.88 88.9409 367.359 88.8391L370.104 88.2556C372.797 87.6831 374.523 85.0265 373.95 82.3334L370.861 67.8014C370.289 65.1083 367.632 63.3831 364.939 63.9555L364.939 63.9536Z" fill="#F75150"/>
<path d="M359.687 54.919C359.208 55.0208 358.903 55.491 359.004 55.9699L359.429 57.9689C360.002 60.662 362.658 62.3872 365.352 61.8148L369.545 60.9234C369.562 60.9177 369.59 60.9119 369.628 60.9037C369.652 60.8988 369.683 60.8922 369.719 60.8824L369.742 60.8774C369.813 60.8665 369.885 60.8512 369.956 60.836C369.985 60.8298 370.028 60.8207 370.076 60.8085L370.28 60.7652C370.317 60.7593 370.365 60.749 370.427 60.732L370.45 60.727C370.507 60.717 370.561 60.7074 370.617 60.6935C370.648 60.6869 370.687 60.6787 370.736 60.6641L370.76 60.6591C370.834 60.6454 370.89 60.6354 370.954 60.6218C370.98 60.6165 371.007 60.6107 371.041 60.6013L371.065 60.5964C371.135 60.5854 371.205 60.5706 371.279 60.5549C371.312 60.5479 371.35 60.5397 371.396 60.5259L371.419 60.521C371.482 60.5097 371.549 60.4996 371.612 60.484C371.655 60.475 371.703 60.4647 371.761 60.4484L371.786 60.4431C371.835 60.4347 371.887 60.4216 371.934 60.4137C371.965 60.4071 372 60.3997 372.038 60.3895L372.059 60.385C372.131 60.3717 372.198 60.3596 372.268 60.3447C372.3 60.3377 372.339 60.3295 372.379 60.317L372.402 60.312C372.465 60.3008 372.529 60.2891 372.591 60.2759C372.636 60.2664 372.686 60.2557 372.746 60.2391L372.769 60.2341C372.818 60.2258 372.868 60.2131 372.917 60.2047C372.952 60.1973 372.996 60.1878 373.044 60.1737L373.069 60.1683C373.141 60.155 373.192 60.1443 373.244 60.1351C373.275 60.1285 373.312 60.1207 373.352 60.1101C373.444 60.0926 373.514 60.0797 373.582 60.0653C373.617 60.0579 373.656 60.0497 373.698 60.0367L373.725 60.0309C373.787 60.0197 373.846 60.0093 373.908 59.9961C373.943 59.9887 373.981 59.9804 374.023 59.9675L374.047 59.9625C374.111 59.9509 374.173 59.9396 374.234 59.9269C374.278 59.9174 374.332 59.9058 374.386 59.8904L374.409 59.8855C374.458 59.8771 374.509 59.8683 374.555 59.8565C374.59 59.8491 374.627 59.8413 374.669 59.8302L374.692 59.8253C374.761 59.8148 374.821 59.802 374.883 59.7888C374.933 59.7781 374.992 59.7657 375.051 59.7491L375.074 59.7441C375.121 59.7362 375.168 59.7282 375.21 59.7172C375.251 59.7085 375.3 59.6982 375.349 59.6837L375.372 59.6787C375.446 59.665 375.495 59.6566 375.55 59.6451C375.585 59.6377 375.621 59.6298 375.662 59.6192L375.685 59.6143C375.75 59.6046 375.814 59.5929 375.872 59.5786C375.916 59.5691 375.965 59.5588 376.018 59.5434L376.042 59.5385C376.106 59.5268 376.161 59.5172 376.211 59.5065C376.258 59.4966 376.302 59.4871 376.352 59.4725L376.375 59.4676C376.44 59.4559 376.492 59.4467 376.543 59.436C376.585 59.4269 376.63 59.4175 376.678 59.4033L376.701 59.3983C376.765 59.3867 376.818 59.3775 376.87 59.3664C376.915 59.3569 376.96 59.3474 377.007 59.3332L377.031 59.3283C377.097 59.3162 377.148 59.3074 377.202 59.2959C377.254 59.2848 377.309 59.2732 377.362 59.2578L377.515 59.2252C377.564 59.2169 377.613 59.2066 377.664 59.1916L377.687 59.1866C377.761 59.1729 377.808 59.165 377.859 59.1542C377.901 59.1452 377.95 59.1349 377.996 59.1211L378.042 59.1112C378.093 59.1024 378.138 59.0949 378.183 59.0854C378.223 59.0768 378.264 59.0681 378.308 59.0567L378.341 59.0497C378.4 59.0412 378.454 59.0297 378.507 59.0185C378.557 59.0078 378.612 58.9963 378.665 58.9809L378.688 58.9759C378.745 58.9659 378.8 58.9563 378.848 58.946C378.897 58.9357 378.943 58.9258 378.991 58.9116L379.014 58.9067C379.082 58.8942 379.128 58.8886 379.17 58.8776C379.211 58.8689 379.259 58.8586 379.301 58.8476L379.325 58.8427C379.384 58.8342 379.44 58.8222 379.49 58.8115C379.562 58.7963 379.635 58.7787 379.712 58.7564L379.818 58.7337C379.874 58.7218 379.929 58.7102 379.986 58.694L380.009 58.689C380.068 58.6786 380.115 58.6707 380.158 58.6616C380.208 58.6509 380.258 58.6402 380.312 58.6247L380.335 58.6198C380.394 58.6094 380.441 58.6014 380.483 58.5924C380.53 58.5825 380.578 58.5722 380.628 58.5595L380.652 58.5546C380.711 58.5461 380.761 58.5334 380.807 58.5255C380.86 58.5143 380.914 58.5028 380.968 58.4874L380.993 58.482C381.053 58.4712 381.1 58.4632 381.143 58.4542C381.195 58.443 381.25 58.4315 381.303 58.4161L381.326 58.4111C381.396 58.3982 381.436 58.3919 381.476 58.3833C381.529 58.3722 381.585 58.3602 381.638 58.3448L381.662 58.3398C381.726 58.3282 381.77 58.323 381.806 58.3132C381.858 58.3021 381.913 58.2906 381.966 58.2751L382.015 58.2648C382.059 58.2554 382.096 58.2495 382.132 58.244C382.196 58.2304 382.26 58.2168 382.325 58.1989L382.348 58.194C382.385 58.1861 382.418 58.1791 382.451 58.1721C382.509 58.1597 382.571 58.1466 382.63 58.1299L382.654 58.125C382.716 58.1137 382.758 58.1089 382.792 58.0996C382.848 58.0876 382.906 58.0753 382.966 58.0586L383.014 58.0483C383.053 58.0401 383.085 58.0373 383.116 58.0308C383.164 58.0204 383.217 58.0093 383.267 57.9967L383.29 57.9917C383.351 57.9828 383.4 57.9745 383.44 57.9639C383.502 57.9507 383.562 57.9379 383.627 57.92L383.674 57.9101C383.718 57.9006 383.754 57.8971 383.783 57.8909C383.841 57.8786 383.898 57.8666 383.957 57.8499L384.013 57.838C384.054 57.8293 384.086 57.8266 384.111 57.8193C384.176 57.8053 384.246 57.7905 384.311 57.7726L384.335 57.7676C384.374 57.7613 384.411 57.7555 384.436 57.7482C384.486 57.7374 384.541 57.7259 384.592 57.7128L384.802 57.6602L384.805 57.6737L388.715 56.8468C391.408 56.2743 393.133 53.6177 392.561 50.9246L392.136 48.9275C392.035 48.4506 391.564 48.1433 391.085 48.2451L359.687 54.919Z" fill="#F75150"/>
<path d="M392.788 58.0318L390.043 58.6153C387.35 59.1878 385.625 61.8444 386.197 64.5375L389.286 79.0694C389.858 81.7626 392.515 83.4878 395.208 82.9154L397.954 82.3318C398.431 82.2304 398.738 81.7598 398.636 81.2809L393.839 58.7142C393.738 58.2373 393.267 57.93 392.788 58.0318Z" fill="#F75150"/>
<path d="M373.947 66.3468C374.903 71.7893 376.135 77.1955 377.324 82.2259C377.875 84.4838 379.76 85.4855 382.364 84.8974L382.638 84.8393C382.667 84.8332 382.694 84.8274 382.723 84.8212C385.286 84.2764 386.567 82.6098 386.157 80.3463C385.207 75.3057 384.14 69.8928 382.784 64.4683C382.169 61.9748 379.724 61.5603 377.641 62.0009C375.561 62.4432 373.498 63.8178 373.946 66.3449L373.947 66.3468Z" stroke="white" stroke-width="10" mask="url(#path-15-outside-1_2423_4472)"/>
<path d="M364.939 63.9536L362.193 64.5371C361.716 64.6366 361.409 65.1072 361.51 65.5861L366.308 88.1567C366.409 88.6336 366.88 88.9409 367.359 88.8391L370.104 88.2556C372.797 87.6831 374.523 85.0265 373.95 82.3334L370.861 67.8014C370.289 65.1083 367.632 63.3831 364.939 63.9555L364.939 63.9536Z" stroke="white" stroke-width="10" mask="url(#path-15-outside-1_2423_4472)"/>
<path d="M359.687 54.919C359.208 55.0208 358.903 55.491 359.004 55.9699L359.429 57.9689C360.002 60.662 362.658 62.3872 365.352 61.8148L369.545 60.9234C369.562 60.9177 369.59 60.9119 369.628 60.9037C369.652 60.8988 369.683 60.8922 369.719 60.8824L369.742 60.8774C369.813 60.8665 369.885 60.8512 369.956 60.836C369.985 60.8298 370.028 60.8207 370.076 60.8085L370.28 60.7652C370.317 60.7593 370.365 60.749 370.427 60.732L370.45 60.727C370.507 60.717 370.561 60.7074 370.617 60.6935C370.648 60.6869 370.687 60.6787 370.736 60.6641L370.76 60.6591C370.834 60.6454 370.89 60.6354 370.954 60.6218C370.98 60.6165 371.007 60.6107 371.041 60.6013L371.065 60.5964C371.135 60.5854 371.205 60.5706 371.279 60.5549C371.312 60.5479 371.35 60.5397 371.396 60.5259L371.419 60.521C371.482 60.5097 371.549 60.4996 371.612 60.484C371.655 60.475 371.703 60.4647 371.761 60.4484L371.786 60.4431C371.835 60.4347 371.887 60.4216 371.934 60.4137C371.965 60.4071 372 60.3997 372.038 60.3895L372.059 60.385C372.131 60.3717 372.198 60.3596 372.268 60.3447C372.3 60.3377 372.339 60.3295 372.379 60.317L372.402 60.312C372.465 60.3008 372.529 60.2891 372.591 60.2759C372.636 60.2664 372.686 60.2557 372.746 60.2391L372.769 60.2341C372.818 60.2258 372.868 60.2131 372.917 60.2047C372.952 60.1973 372.996 60.1878 373.044 60.1737L373.069 60.1683C373.141 60.155 373.192 60.1443 373.244 60.1351C373.275 60.1285 373.312 60.1207 373.352 60.1101C373.444 60.0926 373.514 60.0797 373.582 60.0653C373.617 60.0579 373.656 60.0497 373.698 60.0367L373.725 60.0309C373.787 60.0197 373.846 60.0093 373.908 59.9961C373.943 59.9887 373.981 59.9804 374.023 59.9675L374.047 59.9625C374.111 59.9509 374.173 59.9396 374.234 59.9269C374.278 59.9174 374.332 59.9058 374.386 59.8904L374.409 59.8855C374.458 59.8771 374.509 59.8683 374.555 59.8565C374.59 59.8491 374.627 59.8413 374.669 59.8302L374.692 59.8253C374.761 59.8148 374.821 59.802 374.883 59.7888C374.933 59.7781 374.992 59.7657 375.051 59.7491L375.074 59.7441C375.121 59.7362 375.168 59.7282 375.21 59.7172C375.251 59.7085 375.3 59.6982 375.349 59.6837L375.372 59.6787C375.446 59.665 375.495 59.6566 375.55 59.6451C375.585 59.6377 375.621 59.6298 375.662 59.6192L375.685 59.6143C375.75 59.6046 375.814 59.5929 375.872 59.5786C375.916 59.5691 375.965 59.5588 376.018 59.5434L376.042 59.5385C376.106 59.5268 376.161 59.5172 376.211 59.5065C376.258 59.4966 376.302 59.4871 376.352 59.4725L376.375 59.4676C376.44 59.4559 376.492 59.4467 376.543 59.436C376.585 59.4269 376.63 59.4175 376.678 59.4033L376.701 59.3983C376.765 59.3867 376.818 59.3775 376.87 59.3664C376.915 59.3569 376.96 59.3474 377.007 59.3332L377.031 59.3283C377.097 59.3162 377.148 59.3074 377.202 59.2959C377.254 59.2848 377.309 59.2732 377.362 59.2578L377.515 59.2252C377.564 59.2169 377.613 59.2066 377.664 59.1916L377.687 59.1866C377.761 59.1729 377.808 59.165 377.859 59.1542C377.901 59.1452 377.95 59.1349 377.996 59.1211L378.042 59.1112C378.093 59.1024 378.138 59.0949 378.183 59.0854C378.223 59.0768 378.264 59.0681 378.308 59.0567L378.341 59.0497C378.4 59.0412 378.454 59.0297 378.507 59.0185C378.557 59.0078 378.612 58.9963 378.665 58.9809L378.688 58.9759C378.745 58.9659 378.8 58.9563 378.848 58.946C378.897 58.9357 378.943 58.9258 378.991 58.9116L379.014 58.9067C379.082 58.8942 379.128 58.8886 379.17 58.8776C379.211 58.8689 379.259 58.8586 379.301 58.8476L379.325 58.8427C379.384 58.8342 379.44 58.8222 379.49 58.8115C379.562 58.7963 379.635 58.7787 379.712 58.7564L379.818 58.7337C379.874 58.7218 379.929 58.7102 379.986 58.694L380.009 58.689C380.068 58.6786 380.115 58.6707 380.158 58.6616C380.208 58.6509 380.258 58.6402 380.312 58.6247L380.335 58.6198C380.394 58.6094 380.441 58.6014 380.483 58.5924C380.53 58.5825 380.578 58.5722 380.628 58.5595L380.652 58.5546C380.711 58.5461 380.761 58.5334 380.807 58.5255C380.86 58.5143 380.914 58.5028 380.968 58.4874L380.993 58.482C381.053 58.4712 381.1 58.4632 381.143 58.4542C381.195 58.443 381.25 58.4315 381.303 58.4161L381.326 58.4111C381.396 58.3982 381.436 58.3919 381.476 58.3833C381.529 58.3722 381.585 58.3602 381.638 58.3448L381.662 58.3398C381.726 58.3282 381.77 58.323 381.806 58.3132C381.858 58.3021 381.913 58.2906 381.966 58.2751L382.015 58.2648C382.059 58.2554 382.096 58.2495 382.132 58.244C382.196 58.2304 382.26 58.2168 382.325 58.1989L382.348 58.194C382.385 58.1861 382.418 58.1791 382.451 58.1721C382.509 58.1597 382.571 58.1466 382.63 58.1299L382.654 58.125C382.716 58.1137 382.758 58.1089 382.792 58.0996C382.848 58.0876 382.906 58.0753 382.966 58.0586L383.014 58.0483C383.053 58.0401 383.085 58.0373 383.116 58.0308C383.164 58.0204 383.217 58.0093 383.267 57.9967L383.29 57.9917C383.351 57.9828 383.4 57.9745 383.44 57.9639C383.502 57.9507 383.562 57.9379 383.627 57.92L383.674 57.9101C383.718 57.9006 383.754 57.8971 383.783 57.8909C383.841 57.8786 383.898 57.8666 383.957 57.8499L384.013 57.838C384.054 57.8293 384.086 57.8266 384.111 57.8193C384.176 57.8053 384.246 57.7905 384.311 57.7726L384.335 57.7676C384.374 57.7613 384.411 57.7555 384.436 57.7482C384.486 57.7374 384.541 57.7259 384.592 57.7128L384.802 57.6602L384.805 57.6737L388.715 56.8468C391.408 56.2743 393.133 53.6177 392.561 50.9246L392.136 48.9275C392.035 48.4506 391.564 48.1433 391.085 48.2451L359.687 54.919Z" stroke="white" stroke-width="10" mask="url(#path-15-outside-1_2423_4472)"/>
<path d="M392.788 58.0318L390.043 58.6153C387.35 59.1878 385.625 61.8444 386.197 64.5375L389.286 79.0694C389.858 81.7626 392.515 83.4878 395.208 82.9154L397.954 82.3318C398.431 82.2304 398.738 81.7598 398.636 81.2809L393.839 58.7142C393.738 58.2373 393.267 57.93 392.788 58.0318Z" stroke="white" stroke-width="10" mask="url(#path-15-outside-1_2423_4472)"/>
</g>
<g filter="url(#filter5_dd_2423_4472)">
<path d="M169 114.927L178.586 116.939L184.619 88.1821L175.033 86.171L169 114.927ZM227.251 99.6285C227.806 96.9805 226.112 94.3858 223.464 93.8302L208.331 90.6552L212.917 80.1839C213.015 79.9543 213.104 79.7102 213.159 79.4466C213.368 78.4522 213.149 77.468 212.638 76.6853L210.616 73.6216L191.525 86.0909C190.479 86.7846 189.688 87.8696 189.412 89.1877L184.384 113.151C183.828 115.799 185.523 118.394 188.171 118.95L209.738 123.475C211.727 123.892 213.683 123.039 214.761 121.476L225.531 106.098C225.862 105.592 226.117 105.032 226.245 104.421L227.208 99.8322L227.189 99.8032L227.251 99.6285Z" fill="#FCA52A"/>
<path d="M167.043 114.517L166.632 116.474L168.589 116.885L178.175 118.896L180.132 119.307L180.543 117.349L186.576 88.5928L186.987 86.6354L185.03 86.2247L175.444 84.2136L173.487 83.8029L173.076 85.7603L167.043 114.517ZM229.312 99.3963C229.711 95.8988 227.389 92.6102 223.874 91.8728L211.15 89.2031L214.749 80.9863L214.752 80.9784L214.756 80.9705C214.883 80.6735 215.024 80.2965 215.116 79.8573C215.439 78.3179 215.099 76.7959 214.312 75.5916L214.307 75.5837L212.285 72.5201L211.189 70.8586L209.522 71.9472L190.431 84.4164L190.431 84.4164L190.42 84.424C188.962 85.3906 187.845 86.9142 187.454 88.777L182.426 112.741C181.644 116.47 184.031 120.125 187.76 120.907L209.328 125.432C212.127 126.019 214.881 124.819 216.403 122.618C216.404 122.616 216.406 122.614 216.407 122.612L227.169 107.245L227.187 107.219L227.204 107.193C227.647 106.516 228.015 105.727 228.203 104.832L229.165 100.243L229.181 100.169L229.208 100.039L229.336 99.4321L229.312 99.3963Z" stroke="white" stroke-width="4"/>
</g>
<path d="M123.001 70.5947L86.1277 39.1429C85.9464 38.9915 85.6748 39.1531 85.7287 39.383C85.95 40.3847 86.6233 45.8703 80.6931 47.5707C75.8825 48.9502 73.4128 48.7249 68.458 50.1456C66.7455 50.6367 64.9834 52.1891 64.3783 54.1159L63.2306 57.7481L90.9696 81.4011L98.5458 79.2286C100.779 78.5882 103.183 79.1075 104.947 80.6126L111.571 86.2707L127.322 81.7542L125.02 73.7257C124.671 72.5092 123.968 71.4182 123.001 70.5947ZM97.1101 60.0191C93.641 59.6555 89.6399 54.8429 89.6399 54.8429C95.9248 53.0407 102.301 59.2966 102.301 59.2966C102.301 59.2966 100.585 60.3811 97.1157 60.0175L97.1101 60.0191Z" fill="url(#paint0_linear_2423_4472)"/>
<path d="M107.272 103.66L78.8299 111.815C76.7848 112.402 74.5922 111.93 72.9733 110.551L55.6322 95.7587C53.5206 93.9586 52.6946 91.0779 53.5314 88.4324L61.1787 64.2727L61.1842 64.2711L107.274 103.665L107.272 103.66Z" fill="url(#paint1_linear_2423_4472)"/>
<path d="M83.7772 39.8208C83.2789 37.6262 85.8422 36.2988 87.4097 37.6078L87.4256 37.6213L124.297 69.0715L83.7772 39.8208ZM83.7772 39.8208C83.8438 40.129 84.0108 41.3578 83.6123 42.6069C83.2554 43.7256 82.4186 44.9954 80.1418 45.6482C77.8708 46.2994 76.1588 46.573 74.334 46.8646L74.314 46.8678C72.4646 47.1633 70.5076 47.4773 67.9068 48.2231C65.5947 48.8861 63.2913 50.9039 62.4706 53.5154C62.4705 53.5158 62.4703 53.5163 62.4702 53.5167L61.3235 57.1455C61.0814 57.9118 61.3214 58.7486 61.9329 59.27L89.6719 82.9229C90.1821 83.358 90.8764 83.5084 91.5209 83.3236L99.0971 81.1512C100.688 80.695 102.397 81.0658 103.648 82.1337L110.272 87.7915C110.782 88.2273 111.477 88.3782 112.122 88.1932L127.873 83.6767C128.935 83.3722 129.549 82.2647 129.245 81.2029L126.942 73.1744C126.485 71.5798 125.565 70.1513 124.298 69.0731L83.7772 39.8208ZM87.6759 38.9264C87.679 38.9397 87.682 38.953 87.6848 38.9662C87.6838 38.9613 87.6827 38.9564 87.6816 38.9516L87.6759 38.9264ZM95.1281 57.1099C95.8001 57.3512 96.4576 57.654 97.088 57.9944C96.6473 57.9062 96.1072 57.6902 95.4855 57.3284C95.3664 57.259 95.2471 57.186 95.1281 57.1099ZM109.195 103.108C109.071 102.677 108.815 102.319 108.483 102.067L62.4836 62.7508C61.9733 62.3146 61.2782 62.1635 60.6329 62.3486L60.6274 62.3502C59.9831 62.5349 59.4742 63.0301 59.2719 63.6691L51.6247 87.8289L51.6246 87.8292C50.5452 91.2412 51.6113 94.9591 54.3347 97.2807L71.6754 112.073L71.6766 112.074C73.8071 113.888 76.694 114.509 79.3812 113.738L107.676 105.624C107.913 105.576 108.144 105.484 108.356 105.347C109.098 104.87 109.44 103.962 109.197 103.114L109.195 103.108Z" stroke="white" stroke-width="4" stroke-linejoin="round"/>
<g clip-path="url(#clip3_2423_4472)">
<path d="M305.343 41.8237C300.669 28.2466 285.872 21.03 272.295 25.705C258.718 30.38 251.502 45.1762 256.177 58.7532C260.851 72.3303 275.648 79.5469 289.225 74.872C302.802 70.197 310.018 55.4008 305.343 41.8237Z" fill="url(#paint2_linear_2423_4472)" stroke="white" stroke-width="4"/>
<path d="M295.588 46.8258L279.361 34.3623C279.282 34.3019 279.173 34.3765 279.199 34.4719C279.315 34.8887 279.721 37.188 277.263 38.0344C275.268 38.7213 274.225 38.6792 272.169 39.3869C271.458 39.6316 270.752 40.3256 270.54 41.1521L270.138 42.7098L282.345 52.084L285.485 51.0028C286.412 50.6837 287.436 50.8506 288.212 51.4476L291.129 53.6881L297.66 51.4395L296.511 48.1042C296.337 47.5983 296.016 47.1536 295.59 46.8267L295.588 46.8258ZM284.452 42.9283C282.982 42.8498 281.19 40.9096 281.19 40.9096C283.794 40.0131 286.619 42.511 286.619 42.511C286.619 42.511 285.921 43.0067 284.452 42.9283Z" fill="white"/>
<path d="M289.708 61.1157L277.917 65.1759C277.07 65.469 276.134 65.3163 275.423 64.7706L267.787 58.9063C266.859 58.194 266.447 56.9952 266.739 55.8625L269.419 45.5038L269.421 45.5001L289.707 61.1148L289.708 61.1157Z" fill="white"/>
</g>
</g>
<defs>
<filter id="filter0_dd_2423_4472" x="148" y="15" width="70.0801" height="70.0803" filterUnits="userSpaceOnUse" color-interpolation-filters="sRGB">
<feFlood flood-opacity="0" result="BackgroundImageFix"/>
<feColorMatrix in="SourceAlpha" type="matrix" values="0 0 0 0 0 0 0 0 0 0 0 0 0 0 0 0 0 0 127 0" result="hardAlpha"/>
<feOffset dy="2"/>
<feGaussianBlur stdDeviation="1"/>
<feComposite in2="hardAlpha" operator="out"/>
<feColorMatrix type="matrix" values="0 0 0 0 0 0 0 0 0 0 0 0 0 0 0 0 0 0 0.03 0"/>
<feBlend mode="normal" in2="BackgroundImageFix" result="effect1_dropShadow_2423_4472"/>
<feColorMatrix in="SourceAlpha" type="matrix" values="0 0 0 0 0 0 0 0 0 0 0 0 0 0 0 0 0 0 127 0" result="hardAlpha"/>
<feOffset dy="4"/>
<feGaussianBlur stdDeviation="6"/>
<feComposite in2="hardAlpha" operator="out"/>
<feColorMatrix type="matrix" values="0 0 0 0 0 0 0 0 0 0 0 0 0 0 0 0 0 0 0.02 0"/>
<feBlend mode="normal" in2="effect1_dropShadow_2423_4472" result="effect2_dropShadow_2423_4472"/>
<feBlend mode="normal" in="SourceGraphic" in2="effect2_dropShadow_2423_4472" result="shape"/>
</filter>
<filter id="filter1_dd_2423_4472" x="154.227" y="21.2267" width="57.6267" height="57.6268" filterUnits="userSpaceOnUse" color-interpolation-filters="sRGB">
<feFlood flood-opacity="0" result="BackgroundImageFix"/>
<feColorMatrix in="SourceAlpha" type="matrix" values="0 0 0 0 0 0 0 0 0 0 0 0 0 0 0 0 0 0 127 0" result="hardAlpha"/>
<feOffset dy="2"/>
<feGaussianBlur stdDeviation="1"/>
<feComposite in2="hardAlpha" operator="out"/>
<feColorMatrix type="matrix" values="0 0 0 0 0 0 0 0 0 0 0 0 0 0 0 0 0 0 0.03 0"/>
<feBlend mode="normal" in2="BackgroundImageFix" result="effect1_dropShadow_2423_4472"/>
<feColorMatrix in="SourceAlpha" type="matrix" values="0 0 0 0 0 0 0 0 0 0 0 0 0 0 0 0 0 0 127 0" result="hardAlpha"/>
<feOffset dy="4"/>
<feGaussianBlur stdDeviation="6"/>
<feComposite in2="hardAlpha" operator="out"/>
<feColorMatrix type="matrix" values="0 0 0 0 0 0 0 0 0 0 0 0 0 0 0 0 0 0 0.02 0"/>
<feBlend mode="normal" in2="effect1_dropShadow_2423_4472" result="effect2_dropShadow_2423_4472"/>
<feBlend mode="normal" in="SourceGraphic" in2="effect2_dropShadow_2423_4472" result="shape"/>
</filter>
<filter id="filter2_dd_2423_4472" x="284" y="76.9993" width="74.4663" height="74.4662" filterUnits="userSpaceOnUse" color-interpolation-filters="sRGB">
<feFlood flood-opacity="0" result="BackgroundImageFix"/>
<feColorMatrix in="SourceAlpha" type="matrix" values="0 0 0 0 0 0 0 0 0 0 0 0 0 0 0 0 0 0 127 0" result="hardAlpha"/>
<feOffset dy="2"/>
<feGaussianBlur stdDeviation="1"/>
<feComposite in2="hardAlpha" operator="out"/>
<feColorMatrix type="matrix" values="0 0 0 0 0 0 0 0 0 0 0 0 0 0 0 0 0 0 0.03 0"/>
<feBlend mode="normal" in2="BackgroundImageFix" result="effect1_dropShadow_2423_4472"/>
<feColorMatrix in="SourceAlpha" type="matrix" values="0 0 0 0 0 0 0 0 0 0 0 0 0 0 0 0 0 0 127 0" result="hardAlpha"/>
<feOffset dy="4"/>
<feGaussianBlur stdDeviation="6"/>
<feComposite in2="hardAlpha" operator="out"/>
<feColorMatrix type="matrix" values="0 0 0 0 0 0 0 0 0 0 0 0 0 0 0 0 0 0 0.02 0"/>
<feBlend mode="normal" in2="effect1_dropShadow_2423_4472" result="effect2_dropShadow_2423_4472"/>
<feBlend mode="normal" in="SourceGraphic" in2="effect2_dropShadow_2423_4472" result="shape"/>
</filter>
<filter id="filter3_dd_2423_4472" x="293.753" y="86.7523" width="54.9602" height="54.9601" filterUnits="userSpaceOnUse" color-interpolation-filters="sRGB">
<feFlood flood-opacity="0" result="BackgroundImageFix"/>
<feColorMatrix in="SourceAlpha" type="matrix" values="0 0 0 0 0 0 0 0 0 0 0 0 0 0 0 0 0 0 127 0" result="hardAlpha"/>
<feOffset dy="2"/>
<feGaussianBlur stdDeviation="1"/>
<feComposite in2="hardAlpha" operator="out"/>
<feColorMatrix type="matrix" values="0 0 0 0 0 0 0 0 0 0 0 0 0 0 0 0 0 0 0.03 0"/>
<feBlend mode="normal" in2="BackgroundImageFix" result="effect1_dropShadow_2423_4472"/>
<feColorMatrix in="SourceAlpha" type="matrix" values="0 0 0 0 0 0 0 0 0 0 0 0 0 0 0 0 0 0 127 0" result="hardAlpha"/>
<feOffset dy="4"/>
<feGaussianBlur stdDeviation="6"/>
<feComposite in2="hardAlpha" operator="out"/>
<feColorMatrix type="matrix" values="0 0 0 0 0 0 0 0 0 0 0 0 0 0 0 0 0 0 0.02 0"/>
<feBlend mode="normal" in2="effect1_dropShadow_2423_4472" result="effect2_dropShadow_2423_4472"/>
<feBlend mode="normal" in="SourceGraphic" in2="effect2_dropShadow_2423_4472" result="shape"/>
</filter>
<filter id="filter4_d_2423_4472" x="343.984" y="37.2245" width="69.6729" height="70.6353" filterUnits="userSpaceOnUse" color-interpolation-filters="sRGB">
<feFlood flood-opacity="0" result="BackgroundImageFix"/>
<feColorMatrix in="SourceAlpha" type="matrix" values="0 0 0 0 0 0 0 0 0 0 0 0 0 0 0 0 0 0 127 0" result="hardAlpha"/>
<feOffset dy="4"/>
<feGaussianBlur stdDeviation="5"/>
<feComposite in2="hardAlpha" operator="out"/>
<feColorMatrix type="matrix" values="0 0 0 0 0 0 0 0 0 0 0 0 0 0 0 0 0 0 0.08 0"/>
<feBlend mode="normal" in2="BackgroundImageFix" result="effect1_dropShadow_2423_4472"/>
<feBlend mode="normal" in="SourceGraphic" in2="effect1_dropShadow_2423_4472" result="shape"/>
</filter>
<filter id="filter5_dd_2423_4472" x="152.264" y="60.0956" width="91.1992" height="83.4854" filterUnits="userSpaceOnUse" color-interpolation-filters="sRGB">
<feFlood flood-opacity="0" result="BackgroundImageFix"/>
<feColorMatrix in="SourceAlpha" type="matrix" values="0 0 0 0 0 0 0 0 0 0 0 0 0 0 0 0 0 0 127 0" result="hardAlpha"/>
<feOffset dy="2"/>
<feGaussianBlur stdDeviation="1"/>
<feComposite in2="hardAlpha" operator="out"/>
<feColorMatrix type="matrix" values="0 0 0 0 0 0 0 0 0 0 0 0 0 0 0 0 0 0 0.03 0"/>
<feBlend mode="normal" in2="BackgroundImageFix" result="effect1_dropShadow_2423_4472"/>
<feColorMatrix in="SourceAlpha" type="matrix" values="0 0 0 0 0 0 0 0 0 0 0 0 0 0 0 0 0 0 127 0" result="hardAlpha"/>
<feOffset dy="4"/>
<feGaussianBlur stdDeviation="6"/>
<feComposite in2="hardAlpha" operator="out"/>
<feColorMatrix type="matrix" values="0 0 0 0 0 0 0 0 0 0 0 0 0 0 0 0 0 0 0.02 0"/>
<feBlend mode="normal" in2="effect1_dropShadow_2423_4472" result="effect2_dropShadow_2423_4472"/>
<feBlend mode="normal" in="SourceGraphic" in2="effect2_dropShadow_2423_4472" result="shape"/>
</filter>
<linearGradient id="paint0_linear_2423_4472" x1="96.0747" y1="106.877" x2="77.3423" y2="41.5486" gradientUnits="userSpaceOnUse">
<stop stop-color="#FCB124"/>
<stop offset="1" stop-color="#F63E58"/>
</linearGradient>
<linearGradient id="paint1_linear_2423_4472" x1="83.9137" y1="110.364" x2="69.971" y2="61.7396" gradientUnits="userSpaceOnUse">
<stop stop-color="#FCB124"/>
<stop offset="1" stop-color="#F63E58"/>
</linearGradient>
<linearGradient id="paint2_linear_2423_4472" x1="272.946" y1="27.596" x2="288.574" y2="72.9809" gradientUnits="userSpaceOnUse">
<stop stop-color="#F75150"/>
<stop offset="1" stop-color="#FCA52A"/>
</linearGradient>
<clipPath id="clip0_2423_4472">
<rect width="457" height="155" fill="white"/>
</clipPath>
<clipPath id="clip1_2423_4472">
<rect width="37.0781" height="37.0781" fill="white" transform="translate(170.528 23) rotate(16.4962)"/>
</clipPath>
<clipPath id="clip2_2423_4472">
<rect width="37.0781" height="37.0781" fill="white" transform="translate(296 103.113) rotate(-29.2445)"/>
</clipPath>
<clipPath id="clip3_2423_4472">
<rect width="60.8155" height="57.3373" fill="white" transform="translate(242 32.7996) rotate(-19)"/>
</clipPath>
</defs>
</svg>
