<svg width="457" height="156" viewBox="0 0 457 156" fill="none" xmlns="http://www.w3.org/2000/svg">
<g clip-path="url(#clip0_1663_2979)">
<path d="M0 8.45557C0 4.03729 3.58172 0.455566 8 0.455566H449C453.418 0.455566 457 4.03729 457 8.45557V147.456C457 151.874 453.418 155.456 449 155.456H8C3.58172 155.456 0 151.874 0 147.456V8.45557Z" fill="#FAFAFA"/>
<line opacity="0.1" x1="46.5" y1="-280.544" x2="46.5" y2="297.456" stroke="black" stroke-dasharray="2 2"/>
<line opacity="0.1" x1="97.5" y1="-280.544" x2="97.5" y2="297.456" stroke="black" stroke-dasharray="2 2"/>
<line opacity="0.1" x1="148.5" y1="-280.544" x2="148.5" y2="297.456" stroke="black" stroke-dasharray="2 2"/>
<line opacity="0.1" x1="199.5" y1="-280.544" x2="199.5" y2="297.456" stroke="black" stroke-dasharray="2 2"/>
<line opacity="0.1" x1="250.5" y1="-280.544" x2="250.5" y2="297.456" stroke="black" stroke-dasharray="2 2"/>
<line opacity="0.1" x1="301.5" y1="-280.544" x2="301.5" y2="297.456" stroke="black" stroke-dasharray="2 2"/>
<line opacity="0.1" x1="352.5" y1="-280.544" x2="352.5" y2="297.456" stroke="black" stroke-dasharray="2 2"/>
<line opacity="0.1" x1="403.5" y1="-280.544" x2="403.5" y2="297.456" stroke="black" stroke-dasharray="2 2"/>
<line opacity="0.1" x1="491" y1="28.9556" x2="-42" y2="28.9556" stroke="black" stroke-dasharray="2 2"/>
<line opacity="0.1" x1="491" y1="79.9556" x2="-42" y2="79.9556" stroke="black" stroke-dasharray="2 2"/>
<line opacity="0.1" x1="491" y1="130.956" x2="-42" y2="130.956" stroke="black" stroke-dasharray="2 2"/>
</g>
<g clip-path="url(#clip1_1663_2979)" filter="url(#filter0_dd_1663_2979)">
<g filter="url(#filter1_dd_1663_2979)">
<path d="M227.919 27.762L229.067 36.3443C229.228 37.5472 229.309 38.1487 229.528 38.6907C229.722 39.1711 229.995 39.6155 230.336 40.0055C230.721 40.4456 231.221 40.7889 232.222 41.4755L239.362 46.374L230.78 47.5225C229.577 47.6835 228.976 47.764 228.434 47.983C227.953 48.1771 227.509 48.4503 227.119 48.7914C226.679 49.1762 226.335 49.6766 225.649 50.6774L220.75 57.8173L219.602 49.2351C219.441 48.0322 219.36 47.4307 219.141 46.8887C218.947 46.4083 218.674 45.9638 218.333 45.5738C217.948 45.1338 217.448 44.7905 216.447 44.1039L209.307 39.2054L217.889 38.0569C219.092 37.8959 219.694 37.8154 220.236 37.5964C220.716 37.4023 221.16 37.1291 221.55 36.788C221.99 36.4032 222.334 35.9028 223.02 34.902L227.919 27.762Z" fill="#FFC635"/>
<path d="M227.919 27.762L229.067 36.3443C229.228 37.5472 229.309 38.1487 229.528 38.6907C229.722 39.1711 229.995 39.6155 230.336 40.0055C230.721 40.4456 231.221 40.7889 232.222 41.4755L239.362 46.374L230.78 47.5225C229.577 47.6835 228.976 47.764 228.434 47.983C227.953 48.1771 227.509 48.4503 227.119 48.7914C226.679 49.1762 226.335 49.6766 225.649 50.6774L220.75 57.8173L219.602 49.2351C219.441 48.0322 219.36 47.4307 219.141 46.8887C218.947 46.4083 218.674 45.9638 218.333 45.5738C217.948 45.1338 217.448 44.7905 216.447 44.1039L209.307 39.2054L217.889 38.0569C219.092 37.8959 219.694 37.8154 220.236 37.5964C220.716 37.4023 221.16 37.1291 221.55 36.788C221.99 36.4032 222.334 35.9028 223.02 34.902L227.919 27.762Z" stroke="white" stroke-width="4" stroke-linecap="round" stroke-linejoin="round"/>
</g>
</g>
<g filter="url(#filter2_dd_1663_2979)">
<path d="M287.145 56.1073L255.484 45.959C253.842 45.4328 253.021 45.1696 252.291 45.2882C251.65 45.3924 251.057 45.6972 250.599 46.1587C250.079 46.6834 249.816 47.5043 249.29 49.1462L247.34 55.228C246.881 56.6621 246.651 57.3791 246.596 58.1058C246.548 58.7501 246.602 59.398 246.755 60.0257C246.928 60.7336 247.273 61.4031 247.962 62.7422L253.801 74.0905C254.59 75.6235 254.984 76.3901 254.987 77.1292C254.99 77.7793 254.787 78.4136 254.406 78.9411C253.974 79.5407 253.208 79.9352 251.675 80.724L240.327 86.5633C238.987 87.2523 238.318 87.5968 237.766 88.0723C237.276 88.4939 236.856 88.9899 236.52 89.5421C236.142 90.165 235.912 90.882 235.453 92.3162L233.503 98.3979C232.977 100.04 232.714 100.861 232.832 101.59C232.937 102.232 233.241 102.824 233.703 103.282C234.228 103.803 235.049 104.066 236.69 104.592L268.352 114.74C269.994 115.267 270.815 115.53 271.545 115.411C272.186 115.307 272.779 115.002 273.236 114.541C273.757 114.016 274.02 113.195 274.546 111.553L276.496 105.471C276.955 104.037 277.185 103.32 277.24 102.593C277.288 101.949 277.234 101.301 277.081 100.674C276.908 99.9657 276.563 99.2962 275.874 97.9571L270.035 86.6088C269.246 85.0757 268.852 84.3092 268.849 83.5701C268.846 82.92 269.049 82.2857 269.429 81.7582C269.861 81.1586 270.628 80.7641 272.161 79.9753L283.509 74.136C284.848 73.447 285.518 73.1024 286.07 72.627C286.56 72.2054 286.98 71.7094 287.316 71.1572C287.694 70.5343 287.924 69.8172 288.383 68.3831L290.333 62.3014C290.859 60.6595 291.122 59.8386 291.003 59.109C290.899 58.4673 290.594 57.8751 290.133 57.4172C289.608 56.8967 288.787 56.6336 287.145 56.1073Z" fill="#A574FF"/>
<path d="M287.145 56.1073L255.484 45.959C253.842 45.4328 253.021 45.1696 252.291 45.2882C251.65 45.3924 251.057 45.6972 250.599 46.1587C250.079 46.6834 249.816 47.5043 249.29 49.1462L247.34 55.228C246.881 56.6621 246.651 57.3791 246.596 58.1058C246.548 58.7501 246.602 59.398 246.755 60.0257C246.928 60.7336 247.273 61.4031 247.962 62.7422L253.801 74.0905C254.59 75.6235 254.984 76.3901 254.987 77.1292C254.99 77.7793 254.787 78.4136 254.406 78.9411C253.974 79.5407 253.208 79.9352 251.675 80.724L240.327 86.5633C238.987 87.2523 238.318 87.5968 237.766 88.0723C237.276 88.4939 236.856 88.9899 236.52 89.5421C236.142 90.165 235.912 90.882 235.453 92.3162L233.503 98.3979C232.977 100.04 232.714 100.861 232.832 101.59C232.937 102.232 233.241 102.824 233.703 103.282C234.228 103.803 235.049 104.066 236.69 104.592L268.352 114.74C269.994 115.267 270.815 115.53 271.545 115.411C272.186 115.307 272.779 115.002 273.236 114.541C273.757 114.016 274.02 113.195 274.546 111.553L276.496 105.471C276.955 104.037 277.185 103.32 277.24 102.593C277.288 101.949 277.234 101.301 277.081 100.674C276.908 99.9657 276.563 99.2962 275.874 97.9571L270.035 86.6088C269.246 85.0757 268.852 84.3092 268.849 83.5701C268.846 82.92 269.049 82.2857 269.429 81.7582C269.861 81.1586 270.628 80.7641 272.161 79.9753L283.509 74.136C284.848 73.447 285.518 73.1024 286.07 72.627C286.56 72.2054 286.98 71.7094 287.316 71.1572C287.694 70.5343 287.924 69.8172 288.383 68.3831L290.333 62.3014C290.859 60.6595 291.122 59.8386 291.003 59.109C290.899 58.4673 290.594 57.8751 290.133 57.4172C289.608 56.8967 288.787 56.6336 287.145 56.1073Z" fill="white" fill-opacity="0.8"/>
<path d="M230.858 101.911L232.832 101.59L230.858 101.911C231.03 102.97 231.533 103.947 232.294 104.702L233.683 103.302L232.294 104.702C232.819 105.222 233.424 105.539 234.014 105.783C234.567 106.012 235.249 106.23 236.011 106.474L236.08 106.497L267.742 116.645L267.811 116.667C268.573 116.911 269.255 117.13 269.837 117.265C270.46 117.41 271.136 117.504 271.865 117.385C272.924 117.213 273.901 116.711 274.656 115.949C275.177 115.425 275.494 114.82 275.738 114.229C275.966 113.677 276.185 112.994 276.429 112.233L276.451 112.164L278.4 106.082C278.422 106.016 278.443 105.95 278.463 105.886C278.863 104.642 279.162 103.71 279.234 102.742L277.24 102.593L279.234 102.742C279.298 101.889 279.227 101.031 279.024 100.199L277.081 100.674L279.024 100.199C278.793 99.2565 278.345 98.3865 277.747 97.2252C277.716 97.1649 277.684 97.1039 277.653 97.042L271.813 85.6938C271.404 84.8979 271.153 84.4072 270.994 84.0245C270.844 83.6634 270.849 83.5625 270.849 83.5621C270.848 83.3344 270.919 83.1122 271.052 82.9274C271.052 82.927 271.107 82.8423 271.439 82.6357C271.791 82.4167 272.28 82.1632 273.076 81.7537L284.424 75.9144C284.486 75.8826 284.547 75.8512 284.608 75.8202C285.77 75.223 286.64 74.7756 287.375 74.1426L286.134 72.7014L287.375 74.1426C288.024 73.5841 288.581 72.927 289.025 72.1954L287.316 71.1572L289.025 72.1954C289.529 71.3661 289.827 70.434 290.225 69.1898C290.246 69.1252 290.267 69.0598 290.288 68.9936L292.237 62.9118L292.259 62.8426C292.504 62.081 292.722 61.3985 292.858 60.8164C293.003 60.1939 293.096 59.5175 292.978 58.7883C292.806 57.7297 292.303 56.7527 291.542 55.9974L290.138 57.4125L291.542 55.9974C291.017 55.4771 290.412 55.1599 289.822 54.9159C289.269 54.6877 288.587 54.469 287.825 54.2249L287.756 54.2027L256.094 44.0545C256.071 44.047 256.048 44.0396 256.025 44.0323C255.263 43.7881 254.581 43.5693 253.999 43.4338C253.376 43.289 252.7 43.1956 251.971 43.314C250.912 43.486 249.935 43.9887 249.18 44.7501C248.659 45.2746 248.342 45.8792 248.098 46.47C247.87 47.0224 247.651 47.7049 247.407 48.4666C247.4 48.4896 247.392 48.5126 247.385 48.5358L245.436 54.6175C245.414 54.6838 245.393 54.7491 245.373 54.8137C244.973 56.0576 244.674 56.9894 244.602 57.9569C244.538 58.8105 244.609 59.6688 244.812 60.5003L246.755 60.0257L244.812 60.5003C245.043 61.4427 245.491 62.3128 246.089 63.4741C246.12 63.5344 246.151 63.5954 246.183 63.6573L252.023 75.0055C252.432 75.8014 252.683 76.2921 252.842 76.6748C252.99 77.0327 252.987 77.135 252.987 77.1371L252.987 77.1372C252.988 77.3649 252.917 77.5871 252.784 77.7719L252.784 77.772C252.783 77.7738 252.726 77.8589 252.397 78.0636C252.045 78.2826 251.556 78.5361 250.76 78.9456L239.411 84.7849C239.35 84.8168 239.289 84.8482 239.228 84.8791C238.066 85.4763 237.196 85.9237 236.461 86.5567C235.812 87.1152 235.255 87.7723 234.811 88.5039C234.307 89.3332 234.009 90.2653 233.611 91.5095C233.59 91.574 233.569 91.6394 233.548 91.7057L231.599 97.7875L231.577 97.8566C231.332 98.6183 231.114 99.3008 230.978 99.8829C230.833 100.505 230.74 101.182 230.858 101.911Z" stroke="white" stroke-width="4" stroke-linecap="round" stroke-linejoin="round"/>
</g>
<rect x="239.913" y="91.3521" width="35.3988" height="9.23447" rx="3.71406" transform="rotate(17.7718 239.913 91.3521)" fill="#A574FF"/>
<g filter="url(#filter3_dd_1663_2979)">
<path d="M173.658 98.582L176.838 101.05C177.784 101.785 178.923 102.229 180.114 102.33C181.306 102.43 182.501 102.182 183.553 101.616C184.605 101.05 185.47 100.19 186.043 99.1395C186.615 98.0894 186.871 96.8947 186.779 95.7001L186.471 91.6861C186.364 90.261 186.708 88.8393 187.455 87.6238C188.208 86.4029 189.327 85.4528 190.654 84.9096L194.37 83.3934C195.476 82.9414 196.427 82.1773 197.106 81.1938C197.786 80.2103 198.166 79.0496 198.2 77.8525C198.234 76.6556 197.922 75.4734 197.299 74.4493C196.677 73.4253 195.772 72.6034 194.693 72.0834L191.069 70.3349C189.774 69.7048 188.712 68.6793 188.035 67.4066C187.353 66.1408 187.089 64.6924 187.28 63.2692L187.818 59.2809C187.978 58.0946 187.79 56.8863 187.278 55.8028C186.767 54.7193 185.952 53.807 184.934 53.1767C183.916 52.5455 182.738 52.2231 181.543 52.2486C180.348 52.2742 179.187 52.6465 178.2 53.3206L174.887 55.5874C173.703 56.3951 172.294 56.8063 170.86 56.762C169.43 56.7134 168.051 56.2127 166.921 55.3315L163.729 52.8695C162.783 52.1346 161.645 51.6899 160.453 51.5894C159.261 51.489 158.067 51.737 157.015 52.3034C155.962 52.8695 155.097 53.7298 154.525 54.7799C153.952 55.8299 153.696 57.0247 153.788 58.2192L154.096 62.2332C154.209 63.6622 153.867 65.089 153.12 66.3092C152.367 67.5302 151.247 68.4802 149.921 69.0235L146.193 70.5455C145.087 70.9976 144.137 71.7617 143.457 72.7452C142.778 73.7287 142.398 74.8893 142.364 76.0864C142.329 77.2833 142.642 78.4656 143.264 79.4896C143.887 80.5137 144.792 81.3356 145.87 81.8556L149.495 83.604C150.788 84.2284 151.851 85.2467 152.532 86.5128C153.214 87.7785 153.478 89.227 153.287 90.6502L152.75 94.6384C152.59 95.8248 152.777 97.033 153.289 98.1165C153.801 99.2001 154.615 100.112 155.633 100.743C156.651 101.373 157.829 101.695 159.024 101.67C160.219 101.644 161.38 101.272 162.367 100.599L165.68 98.3319C166.864 97.5242 168.273 97.1131 169.707 97.1573C171.14 97.2019 172.523 97.7008 173.658 98.582Z" fill="#A574FF"/>
<path d="M174.26 84.3589C178.332 82.1673 179.851 77.079 177.653 72.9938C175.454 68.9087 170.371 67.3736 166.299 69.5652C162.226 71.7567 160.707 76.8451 162.906 80.9302C165.104 85.0154 170.188 86.5505 174.26 84.3589Z" fill="#A574FF"/>
<path d="M173.658 98.582L176.838 101.05C177.784 101.785 178.923 102.229 180.114 102.33C181.306 102.43 182.501 102.182 183.553 101.616C184.605 101.05 185.47 100.19 186.043 99.1395C186.615 98.0894 186.871 96.8947 186.779 95.7001L186.471 91.6861C186.364 90.261 186.708 88.8393 187.455 87.6238C188.208 86.4029 189.327 85.4528 190.654 84.9096L194.37 83.3934C195.476 82.9414 196.427 82.1773 197.106 81.1938C197.786 80.2103 198.166 79.0496 198.2 77.8525C198.234 76.6556 197.922 75.4734 197.299 74.4493C196.677 73.4253 195.772 72.6034 194.693 72.0834L191.069 70.3349C189.774 69.7048 188.712 68.6793 188.035 67.4066C187.353 66.1408 187.089 64.6924 187.28 63.2692L187.818 59.2809C187.978 58.0946 187.79 56.8863 187.278 55.8028C186.767 54.7193 185.952 53.807 184.934 53.1767C183.916 52.5455 182.738 52.2231 181.543 52.2486C180.348 52.2742 179.187 52.6465 178.2 53.3206L174.887 55.5874C173.703 56.3951 172.294 56.8063 170.86 56.762C169.43 56.7134 168.051 56.2127 166.921 55.3315L163.729 52.8695C162.783 52.1346 161.645 51.6899 160.453 51.5894C159.261 51.489 158.067 51.737 157.015 52.3034C155.962 52.8695 155.097 53.7298 154.525 54.7799C153.952 55.8299 153.696 57.0247 153.788 58.2192L154.096 62.2332C154.209 63.6622 153.867 65.089 153.12 66.3092C152.367 67.5302 151.247 68.4802 149.921 69.0235L146.193 70.5455C145.087 70.9976 144.137 71.7617 143.457 72.7452C142.778 73.7287 142.398 74.8893 142.364 76.0864C142.329 77.2833 142.642 78.4656 143.264 79.4896C143.887 80.5137 144.792 81.3356 145.87 81.8556L149.495 83.604C150.788 84.2284 151.851 85.2467 152.532 86.5128C153.214 87.7785 153.478 89.227 153.287 90.6502L152.75 94.6384C152.59 95.8248 152.777 97.033 153.289 98.1165C153.801 99.2001 154.615 100.112 155.633 100.743C156.651 101.373 157.829 101.695 159.024 101.67C160.219 101.644 161.38 101.272 162.367 100.599L165.68 98.3319C166.864 97.5242 168.273 97.1131 169.707 97.1573C171.14 97.2019 172.523 97.7008 173.658 98.582Z" stroke="white" stroke-width="4" stroke-linecap="round" stroke-linejoin="round"/>
<path d="M174.26 84.3589C178.332 82.1673 179.851 77.079 177.653 72.9938C175.454 68.9087 170.371 67.3736 166.299 69.5652C162.226 71.7567 160.707 76.8451 162.906 80.9302C165.104 85.0154 170.188 86.5505 174.26 84.3589Z" stroke="white" stroke-width="4" stroke-linecap="round" stroke-linejoin="round"/>
</g>
<defs>
<filter id="filter0_dd_1663_2979" x="190" y="12.4556" width="68.6687" height="68.6685" filterUnits="userSpaceOnUse" color-interpolation-filters="sRGB">
<feFlood flood-opacity="0" result="BackgroundImageFix"/>
<feColorMatrix in="SourceAlpha" type="matrix" values="0 0 0 0 0 0 0 0 0 0 0 0 0 0 0 0 0 0 127 0" result="hardAlpha"/>
<feOffset dy="2"/>
<feGaussianBlur stdDeviation="1"/>
<feComposite in2="hardAlpha" operator="out"/>
<feColorMatrix type="matrix" values="0 0 0 0 0 0 0 0 0 0 0 0 0 0 0 0 0 0 0.03 0"/>
<feBlend mode="normal" in2="BackgroundImageFix" result="effect1_dropShadow_1663_2979"/>
<feColorMatrix in="SourceAlpha" type="matrix" values="0 0 0 0 0 0 0 0 0 0 0 0 0 0 0 0 0 0 127 0" result="hardAlpha"/>
<feOffset dy="4"/>
<feGaussianBlur stdDeviation="6"/>
<feComposite in2="hardAlpha" operator="out"/>
<feColorMatrix type="matrix" values="0 0 0 0 0 0 0 0 0 0 0 0 0 0 0 0 0 0 0.02 0"/>
<feBlend mode="normal" in2="effect1_dropShadow_1663_2979" result="effect2_dropShadow_1663_2979"/>
<feBlend mode="normal" in="SourceGraphic" in2="effect2_dropShadow_1663_2979" result="shape"/>
</filter>
<filter id="filter1_dd_1663_2979" x="195.307" y="17.7617" width="58.0555" height="58.0557" filterUnits="userSpaceOnUse" color-interpolation-filters="sRGB">
<feFlood flood-opacity="0" result="BackgroundImageFix"/>
<feColorMatrix in="SourceAlpha" type="matrix" values="0 0 0 0 0 0 0 0 0 0 0 0 0 0 0 0 0 0 127 0" result="hardAlpha"/>
<feOffset dy="2"/>
<feGaussianBlur stdDeviation="1"/>
<feComposite in2="hardAlpha" operator="out"/>
<feColorMatrix type="matrix" values="0 0 0 0 0 0 0 0 0 0 0 0 0 0 0 0 0 0 0.03 0"/>
<feBlend mode="normal" in2="BackgroundImageFix" result="effect1_dropShadow_1663_2979"/>
<feColorMatrix in="SourceAlpha" type="matrix" values="0 0 0 0 0 0 0 0 0 0 0 0 0 0 0 0 0 0 127 0" result="hardAlpha"/>
<feOffset dy="4"/>
<feGaussianBlur stdDeviation="6"/>
<feComposite in2="hardAlpha" operator="out"/>
<feColorMatrix type="matrix" values="0 0 0 0 0 0 0 0 0 0 0 0 0 0 0 0 0 0 0.02 0"/>
<feBlend mode="normal" in2="effect1_dropShadow_1663_2979" result="effect2_dropShadow_1663_2979"/>
<feBlend mode="normal" in="SourceGraphic" in2="effect2_dropShadow_1663_2979" result="shape"/>
</filter>
<filter id="filter2_dd_1663_2979" x="206.52" y="26.404" width="110.796" height="122.747" filterUnits="userSpaceOnUse" color-interpolation-filters="sRGB">
<feFlood flood-opacity="0" result="BackgroundImageFix"/>
<feColorMatrix in="SourceAlpha" type="matrix" values="0 0 0 0 0 0 0 0 0 0 0 0 0 0 0 0 0 0 127 0" result="hardAlpha"/>
<feOffset dy="3.71406"/>
<feGaussianBlur stdDeviation="1.85703"/>
<feComposite in2="hardAlpha" operator="out"/>
<feColorMatrix type="matrix" values="0 0 0 0 0 0 0 0 0 0 0 0 0 0 0 0 0 0 0.03 0"/>
<feBlend mode="normal" in2="BackgroundImageFix" result="effect1_dropShadow_1663_2979"/>
<feColorMatrix in="SourceAlpha" type="matrix" values="0 0 0 0 0 0 0 0 0 0 0 0 0 0 0 0 0 0 127 0" result="hardAlpha"/>
<feOffset dy="7.42812"/>
<feGaussianBlur stdDeviation="11.1422"/>
<feComposite in2="hardAlpha" operator="out"/>
<feColorMatrix type="matrix" values="0 0 0 0 0 0 0 0 0 0 0 0 0 0 0 0 0 0 0.02 0"/>
<feBlend mode="normal" in2="effect1_dropShadow_1663_2979" result="effect2_dropShadow_1663_2979"/>
<feBlend mode="normal" in="SourceGraphic" in2="effect2_dropShadow_1663_2979" result="shape"/>
</filter>
<filter id="filter3_dd_1663_2979" x="128.361" y="41.5674" width="83.8409" height="78.7842" filterUnits="userSpaceOnUse" color-interpolation-filters="sRGB">
<feFlood flood-opacity="0" result="BackgroundImageFix"/>
<feColorMatrix in="SourceAlpha" type="matrix" values="0 0 0 0 0 0 0 0 0 0 0 0 0 0 0 0 0 0 127 0" result="hardAlpha"/>
<feOffset dy="2"/>
<feGaussianBlur stdDeviation="1"/>
<feComposite in2="hardAlpha" operator="out"/>
<feColorMatrix type="matrix" values="0 0 0 0 0 0 0 0 0 0 0 0 0 0 0 0 0 0 0.03 0"/>
<feBlend mode="normal" in2="BackgroundImageFix" result="effect1_dropShadow_1663_2979"/>
<feColorMatrix in="SourceAlpha" type="matrix" values="0 0 0 0 0 0 0 0 0 0 0 0 0 0 0 0 0 0 127 0" result="hardAlpha"/>
<feOffset dy="4"/>
<feGaussianBlur stdDeviation="6"/>
<feComposite in2="hardAlpha" operator="out"/>
<feColorMatrix type="matrix" values="0 0 0 0 0 0 0 0 0 0 0 0 0 0 0 0 0 0 0.02 0"/>
<feBlend mode="normal" in2="effect1_dropShadow_1663_2979" result="effect2_dropShadow_1663_2979"/>
<feBlend mode="normal" in="SourceGraphic" in2="effect2_dropShadow_1663_2979" result="shape"/>
</filter>
<clipPath id="clip0_1663_2979">
<rect width="457" height="155" fill="white" transform="translate(0 0.455566)"/>
</clipPath>
<clipPath id="clip1_1663_2979">
<rect width="37.0781" height="37.0781" fill="white" transform="translate(210.603 20.4556) rotate(13.4152)"/>
</clipPath>
</defs>
</svg>
