<svg width="36" height="40" viewBox="0 0 36 40" fill="none" xmlns="http://www.w3.org/2000/svg">
    <g clip-path="url(#clip0_512_13)">
        <path
                d="M4.60522 16.2176C5.00137 17.0581 5.99174 18.7392 5.99174 18.7392L17.3315 0L6.28885 7.71323C5.64511 8.15822 5.10041 8.75155 4.70426 9.44376C3.66437 11.5698 3.66437 14.042 4.60522 16.2176Z"
                fill="url(#paint0_linear_512_13)" />
        <path
                d="M0.148575 22.3486C0.396168 25.958 2.22835 29.3202 5.10043 31.4957L17.3315 40C17.3315 40 9.65614 28.9741 3.21873 17.9975C2.57499 16.8603 2.12932 15.5748 1.93124 14.2398C1.83221 13.6465 1.83221 13.0532 1.93124 12.4598C1.78269 12.7565 1.43606 13.3993 1.43606 13.3993C0.792317 14.7343 0.346649 16.1681 0.0990565 17.6514C-0.0494992 19.2336 -0.0494992 20.8158 0.148575 22.3486Z"
                fill="#A0A8D4" />
        <path
                d="M31.3453 23.8319C30.9491 22.9913 29.9588 21.3102 29.9588 21.3102L18.619 40L29.7112 32.3362C30.3549 31.8912 30.8996 31.2979 31.2958 30.6057C32.2861 28.4796 32.3357 26.0074 31.3453 23.8319Z"
                fill="url(#paint1_linear_512_13)" />
        <path
                d="M35.8515 17.6514C35.6039 14.042 33.7717 10.6799 30.8997 8.50433L18.6686 0C18.6686 0 26.344 11.026 32.7814 22.0025C33.4251 23.1397 33.8708 24.4252 34.0689 25.7602C34.1679 26.3535 34.1679 26.9468 34.0689 27.5402C34.2174 27.2435 34.564 26.6007 34.564 26.6007C35.2078 25.2658 35.6534 23.8319 35.901 22.398C36.0001 20.7664 36.0001 19.2336 35.8515 17.6514Z"
                fill="#A0A8D4" />
        <path
                d="M4.70428 9.44376C5.10043 8.75155 5.59562 8.15822 6.28888 7.71323L17.3315 0L5.99177 18.6897C5.99177 18.6897 5.00139 17.0087 4.60525 16.1681C3.66439 14.042 3.66439 11.5698 4.70428 9.44376ZM0.148575 22.3486C0.396168 25.958 2.22835 29.3201 5.10043 31.4957L17.3315 40C17.3315 40 9.65614 28.974 3.21873 17.9975C2.57499 16.8603 2.12932 15.5748 1.93124 14.2398C1.83221 13.6465 1.83221 13.0532 1.93124 12.4598C1.78269 12.7565 1.43606 13.3993 1.43606 13.3993C0.792316 14.7342 0.346649 16.1681 0.0990565 17.6514C-0.0494992 19.2336 -0.0494992 20.8158 0.148575 22.3486ZM31.3453 23.8319C30.9491 22.9913 29.9588 21.3103 29.9588 21.3103L18.619 40L29.7112 32.3362C30.3549 31.8912 30.8996 31.2979 31.2958 30.6057C32.2861 28.4796 32.3356 26.0074 31.3453 23.8319ZM35.8019 17.7009C35.5544 14.0915 33.7222 10.7293 30.8501 8.55377L18.6685 0C18.6685 0 26.3439 11.026 32.7813 22.0025C33.4251 23.1397 33.8707 24.4252 34.0688 25.7602C34.1678 26.3535 34.1678 26.9468 34.0688 27.5402C34.2174 27.2435 34.564 26.6007 34.564 26.6007C35.2077 25.2658 35.6534 23.8319 35.901 22.398C36 20.7664 36 19.2336 35.8019 17.7009Z"
                fill="url(#paint2_linear_512_13)" />
    </g>
    <defs>
        <linearGradient id="paint0_linear_512_13" x1="17.8473" y1="0.468776" x2="3.3217" y2="16.2394"
                        gradientUnits="userSpaceOnUse">
            <stop offset="0.58" stop-color="#A0A8D4" />
            <stop offset="0.73" stop-color="#8791C7" />
            <stop offset="0.91" stop-color="#6470B4" />
        </linearGradient>
        <linearGradient id="paint1_linear_512_13" x1="18.1529" y1="39.5641" x2="32.673" y2="23.8047"
                        gradientUnits="userSpaceOnUse">
            <stop offset="0.58" stop-color="#A0A8D4" />
            <stop offset="0.73" stop-color="#8791C7" />
            <stop offset="0.91" stop-color="#6470B4" />
        </linearGradient>
        <linearGradient id="paint2_linear_512_13" x1="17.9865" y1="-0.197726" x2="17.9865" y2="40.1483"
                        gradientUnits="userSpaceOnUse">
            <stop stop-color="#513EFF" />
            <stop offset="0.18" stop-color="#5157FF" />
            <stop offset="0.57" stop-color="#5298FF" />
            <stop offset="1" stop-color="#52E5FF" />
        </linearGradient>
        <clipPath id="clip0_512_13">
            <rect width="36" height="40" fill="white" />
        </clipPath>
    </defs>
</svg>