<svg width="320" height="101" viewBox="0 0 320 101" fill="none" xmlns="http://www.w3.org/2000/svg">
<g clip-path="url(#clip0_1412_1665)">
<g opacity="0.2" filter="url(#filter0_f_1412_1665)">
<ellipse cx="159.335" cy="53.6265" rx="87.665" ry="12.829" transform="rotate(-180 159.335 53.6265)" fill="#3D2DF8"/>
</g>
<g clip-path="url(#clip1_1412_1665)" filter="url(#filter1_dd_1412_1665)">
<g filter="url(#filter2_dd_1412_1665)">
<path d="M40.1664 14.7047L40.7705 22.3101C40.8552 23.3761 40.8975 23.9091 41.0645 24.3964C41.2125 24.8282 41.4319 25.2322 41.7135 25.5915C42.0313 25.9969 42.4553 26.3226 43.3033 26.9741L49.3533 31.6222L41.7479 32.2262C40.6819 32.3109 40.1489 32.3532 39.6616 32.5202C39.2298 32.6683 38.8258 32.8876 38.4665 33.1692C38.0611 33.487 37.7354 33.911 37.0839 34.759L32.4358 40.809L31.8318 33.2037C31.7471 32.1376 31.7048 31.6046 31.5378 31.1173C31.3897 30.6855 31.1704 30.2815 30.8888 29.9222C30.571 29.5168 30.147 29.1911 29.299 28.5396L23.249 23.8915L30.8543 23.2875C31.9204 23.2028 32.4534 23.1605 32.9407 22.9935C33.3725 22.8455 33.7765 22.6261 34.1358 22.3445C34.5412 22.0267 34.8669 21.6027 35.5184 20.7547L40.1664 14.7047Z" fill="#B75BFF"/>
<path d="M40.1664 14.7047L40.7705 22.3101C40.8552 23.3761 40.8975 23.9091 41.0645 24.3964C41.2125 24.8282 41.4319 25.2322 41.7135 25.5915C42.0313 25.9969 42.4553 26.3226 43.3033 26.9741L49.3533 31.6222L41.7479 32.2262C40.6819 32.3109 40.1489 32.3532 39.6616 32.5202C39.2298 32.6683 38.8258 32.8876 38.4665 33.1692C38.0611 33.487 37.7354 33.911 37.0839 34.759L32.4358 40.809L31.8318 33.2037C31.7471 32.1376 31.7048 31.6046 31.5378 31.1173C31.3897 30.6855 31.1704 30.2815 30.8888 29.9222C30.571 29.5168 30.147 29.1911 29.299 28.5396L23.249 23.8915L30.8543 23.2875C31.9204 23.2028 32.4534 23.1605 32.9407 22.9935C33.3725 22.8455 33.7765 22.6261 34.1358 22.3445C34.5412 22.0267 34.8669 21.6027 35.5184 20.7547L40.1664 14.7047Z" stroke="white" stroke-width="3.52446" stroke-linecap="round" stroke-linejoin="round"/>
</g>
</g>
<g clip-path="url(#clip2_1412_1665)" filter="url(#filter3_dd_1412_1665)">
<g filter="url(#filter4_dd_1412_1665)">
<path d="M205.583 10.8112L211.452 15.6864C212.274 16.3698 212.685 16.7114 213.151 16.9319C213.564 17.1273 214.006 17.2521 214.46 17.3012C214.972 17.3565 215.501 17.2802 216.56 17.1276L224.111 16.0385L219.236 21.9069C218.552 22.7295 218.211 23.1408 217.99 23.6063C217.795 24.0189 217.67 24.4613 217.621 24.9152C217.565 25.4273 217.642 25.9565 217.794 27.015L218.884 34.5662L213.015 29.691C212.192 29.0076 211.781 28.6659 211.316 28.4455C210.903 28.2501 210.461 28.1253 210.007 28.0762C209.495 28.0208 208.965 28.0972 207.907 28.2498L200.356 29.3389L205.231 23.4704C205.914 22.6479 206.256 22.2366 206.476 21.771C206.672 21.3585 206.797 20.916 206.846 20.4622C206.901 19.9501 206.825 19.4208 206.672 18.3624L205.583 10.8112Z" fill="#B75BFF"/>
<path d="M205.583 10.8112L211.452 15.6864C212.274 16.3698 212.685 16.7114 213.151 16.9319C213.564 17.1273 214.006 17.2521 214.46 17.3012C214.972 17.3565 215.501 17.2802 216.56 17.1276L224.111 16.0385L219.236 21.9069C218.552 22.7295 218.211 23.1408 217.99 23.6063C217.795 24.0189 217.67 24.4613 217.621 24.9152C217.565 25.4273 217.642 25.9565 217.794 27.015L218.884 34.5662L213.015 29.691C212.192 29.0076 211.781 28.6659 211.316 28.4455C210.903 28.2501 210.461 28.1253 210.007 28.0762C209.495 28.0208 208.965 28.0972 207.907 28.2498L200.356 29.3389L205.231 23.4704C205.914 22.6479 206.256 22.2366 206.476 21.771C206.672 21.3585 206.797 20.916 206.846 20.4622C206.901 19.9501 206.825 19.4208 206.672 18.3624L205.583 10.8112Z" stroke="white" stroke-width="3.52446" stroke-linecap="round" stroke-linejoin="round"/>
</g>
</g>
<g filter="url(#filter5_d_1412_1665)">
<mask id="path-4-outside-1_1412_1665" maskUnits="userSpaceOnUse" x="55.9353" y="48.7759" width="35" height="36" fill="black">
<rect fill="white" x="55.9353" y="48.7759" width="35" height="36"/>
<path d="M70.4086 65.4607C71.0779 69.2705 71.9405 73.0548 72.7726 76.5761C73.1582 78.1566 74.4776 78.8578 76.3008 78.4462L76.4922 78.4055C76.5126 78.4012 76.5316 78.3971 76.5519 78.3928C78.3462 78.0114 79.243 76.8449 78.9558 75.2604C78.291 71.732 77.5437 67.943 76.5948 64.1458C76.1642 62.4003 74.4527 62.1102 72.9948 62.4186C71.5385 62.7282 70.0947 63.6904 70.4083 65.4594L70.4086 65.4607Z"/>
<path d="M64.1029 63.7855L62.1811 64.194C61.847 64.2636 61.6319 64.593 61.7031 64.9282L65.0614 80.7276C65.1323 81.0615 65.4618 81.2766 65.797 81.2054L67.7188 80.7969C69.604 80.3962 70.8117 78.5365 70.411 76.6513L68.2488 66.479C67.8481 64.5938 65.9884 63.3861 64.1032 63.7868L64.1029 63.7855Z"/>
<path d="M60.4267 57.4613C60.0915 57.5325 59.8777 57.8617 59.949 58.1969L60.2464 59.5962C60.6471 61.4814 62.5068 62.689 64.392 62.2883L67.3276 61.6643C67.3396 61.6604 67.3586 61.6563 67.3857 61.6506C67.402 61.6471 67.4237 61.6425 67.4492 61.6356L67.4655 61.6322C67.5149 61.6245 67.5651 61.6138 67.6154 61.6032C67.6357 61.5988 67.6656 61.5925 67.6992 61.5839L67.8417 61.5536C67.8678 61.5495 67.9017 61.5423 67.9446 61.5303L67.9609 61.5269C68.0005 61.5199 68.0388 61.5132 68.0779 61.5034C68.0996 61.4988 68.1267 61.493 68.1614 61.4828L68.1777 61.4794C68.2296 61.4698 68.2692 61.4628 68.314 61.4532C68.3317 61.4495 68.3507 61.4454 68.3748 61.4389L68.3911 61.4354C68.4405 61.4278 68.4894 61.4174 68.541 61.4064C68.5641 61.4015 68.5912 61.3957 68.6232 61.3861L68.6395 61.3826C68.6832 61.3748 68.7299 61.3677 68.7744 61.3568C68.8043 61.3505 68.8382 61.3432 68.8783 61.3319L68.896 61.3281C68.9302 61.3223 68.9666 61.3131 68.9994 61.3076C69.0211 61.3029 69.0456 61.2977 69.0724 61.2906L69.0874 61.2874C69.1379 61.2781 69.1843 61.2697 69.2332 61.2593C69.2562 61.2544 69.2834 61.2486 69.3113 61.2398L69.3276 61.2364C69.3713 61.2285 69.4164 61.2203 69.4598 61.2111C69.491 61.2045 69.5263 61.197 69.5678 61.1853L69.5841 61.1819C69.6183 61.176 69.6533 61.1671 69.6875 61.1613C69.712 61.1561 69.7432 61.1495 69.7765 61.1395L69.7942 61.1358C69.8447 61.1265 69.88 61.119 69.9169 61.1125C69.9386 61.1079 69.9644 61.1024 69.9926 61.095C70.0567 61.0828 70.1059 61.0738 70.1534 61.0637C70.1778 61.0585 70.2049 61.0527 70.2342 61.0437L70.2532 61.0396C70.2969 61.0318 70.3379 61.0245 70.3814 61.0152C70.4058 61.01 70.4329 61.0043 70.4622 60.9952L70.4785 60.9917C70.5236 60.9836 70.5673 60.9757 70.6094 60.9668C70.6406 60.9601 70.6786 60.9521 70.716 60.9413L70.7323 60.9378C70.7665 60.9319 70.8021 60.9258 70.8344 60.9175C70.8588 60.9123 70.8846 60.9068 70.9142 60.8991L70.9305 60.8957C70.9785 60.8883 71.0206 60.8794 71.064 60.8701C71.0993 60.8626 71.1401 60.854 71.1815 60.8423L71.1978 60.8388C71.2307 60.8333 71.2636 60.8277 71.2931 60.82C71.3216 60.814 71.3556 60.8067 71.3903 60.7965L71.4066 60.7931C71.4584 60.7835 71.4926 60.7776 71.5306 60.7695C71.5551 60.7643 71.5809 60.7589 71.6091 60.7514L71.6254 60.748C71.6707 60.7412 71.7158 60.733 71.7562 60.723C71.7874 60.7164 71.8214 60.7091 71.8588 60.6984L71.8751 60.6949C71.9202 60.6867 71.9585 60.68 71.9937 60.6725C72.0263 60.6656 72.0575 60.659 72.0922 60.6487L72.1085 60.6453C72.1536 60.6371 72.1905 60.6307 72.2258 60.6232C72.2557 60.6168 72.2869 60.6102 72.3203 60.6003L72.3365 60.5968C72.3816 60.5886 72.4186 60.5822 72.4552 60.5744C72.4864 60.5678 72.5176 60.5612 72.551 60.5512L72.5673 60.5478C72.6137 60.5393 72.6493 60.5332 72.6873 60.5251C72.7239 60.5173 72.7619 60.5092 72.7994 60.4984L72.9066 60.4756C72.9408 60.4698 72.9747 60.4626 73.0108 60.4521L73.0271 60.4486C73.0789 60.439 73.1118 60.4334 73.1471 60.4259C73.1769 60.4196 73.2109 60.4124 73.2429 60.4027L73.2754 60.3958C73.311 60.3897 73.3425 60.3844 73.3737 60.3778C73.4022 60.3717 73.4307 60.3656 73.4617 60.3577L73.4847 60.3527C73.526 60.3468 73.564 60.3387 73.6007 60.3309C73.636 60.3234 73.674 60.3154 73.7114 60.3046L73.7277 60.3011C73.7673 60.2941 73.8056 60.2874 73.8396 60.2802C73.8735 60.273 73.9061 60.266 73.9394 60.2561L73.9557 60.2526C74.0035 60.2439 74.0353 60.24 74.0649 60.2323C74.0934 60.2262 74.1273 60.219 74.1569 60.2113L74.1731 60.2078C74.2144 60.2019 74.2538 60.1935 74.2891 60.186C74.3393 60.1754 74.3906 60.163 74.444 60.1474L74.5187 60.1316C74.558 60.1232 74.596 60.1151 74.6362 60.1038L74.6524 60.1003C74.6935 60.093 74.7263 60.0874 74.7562 60.0811C74.7915 60.0736 74.8267 60.0661 74.8642 60.0553L74.8805 60.0518C74.9215 60.0445 74.9543 60.039 74.9842 60.0326C75.0168 60.0257 75.0507 60.0185 75.0857 60.0096L75.102 60.0062C75.1433 60.0002 75.1783 59.9914 75.2111 59.9858C75.2478 59.978 75.2858 59.9699 75.3232 59.9591L75.3408 59.9554C75.3832 59.9478 75.4161 59.9422 75.4459 59.9359C75.4826 59.9281 75.5206 59.92 75.558 59.9092L75.5743 59.9058C75.6234 59.8967 75.6509 59.8923 75.6794 59.8863C75.716 59.8785 75.7554 59.8701 75.7928 59.8593L75.8091 59.8559C75.8542 59.8477 75.8846 59.8441 75.9101 59.8372C75.9467 59.8294 75.9847 59.8214 76.0222 59.8106L76.0561 59.8034C76.0873 59.7967 76.1134 59.7926 76.1381 59.7888C76.1829 59.7792 76.2277 59.7697 76.2733 59.7572L76.2895 59.7537C76.3153 59.7483 76.3384 59.7433 76.3615 59.7384C76.4022 59.7298 76.4456 59.7206 76.4871 59.7089L76.5034 59.7054C76.5471 59.6976 76.5762 59.6942 76.6003 59.6877C76.6397 59.6793 76.6804 59.6707 76.7219 59.659L76.7558 59.6518C76.783 59.646 76.8053 59.6441 76.827 59.6395C76.8609 59.6323 76.8976 59.6245 76.9326 59.6156L76.9489 59.6122C76.9915 59.6059 77.0257 59.6001 77.0539 59.5927C77.0974 59.5834 77.1395 59.5745 77.185 59.562L77.2176 59.5551C77.2488 59.5484 77.2738 59.5459 77.2942 59.5416C77.3349 59.533 77.3742 59.5246 77.4157 59.5129L77.4551 59.5046C77.4836 59.4985 77.5059 59.4966 77.5233 59.4915C77.5694 59.4817 77.6183 59.4713 77.6638 59.4588L77.6801 59.4553C77.7075 59.4509 77.7336 59.4468 77.751 59.4417C77.7863 59.4342 77.8243 59.4261 77.8606 59.417L78.0074 59.3801L78.0094 59.3896L80.7462 58.8107C82.6313 58.41 83.839 56.5504 83.4383 54.6652L83.1412 53.2672C83.0702 52.9334 82.7408 52.7183 82.4055 52.7895L60.4267 57.4613Z"/>
<path d="M83.5978 59.6402L81.676 60.0487C79.7908 60.4494 78.5831 62.3091 78.9838 64.1942L81.146 74.3666C81.5467 76.2518 83.4064 77.4594 85.2916 77.0587L87.2134 76.6502C87.5472 76.5793 87.7624 76.2498 87.6911 75.9146L84.3334 60.1179C84.2624 59.7841 83.933 59.569 83.5978 59.6402Z"/>
</mask>
<path d="M70.4086 65.4607C71.0779 69.2705 71.9405 73.0548 72.7726 76.5761C73.1582 78.1566 74.4776 78.8578 76.3008 78.4462L76.4922 78.4055C76.5126 78.4012 76.5316 78.3971 76.5519 78.3928C78.3462 78.0114 79.243 76.8449 78.9558 75.2604C78.291 71.732 77.5437 67.943 76.5948 64.1458C76.1642 62.4003 74.4527 62.1102 72.9948 62.4186C71.5385 62.7282 70.0947 63.6904 70.4083 65.4594L70.4086 65.4607Z" fill="#377EB7"/>
<path d="M64.1029 63.7855L62.1811 64.194C61.847 64.2636 61.6319 64.593 61.7031 64.9282L65.0614 80.7276C65.1323 81.0615 65.4618 81.2766 65.797 81.2054L67.7188 80.7969C69.604 80.3962 70.8117 78.5365 70.411 76.6513L68.2488 66.479C67.8481 64.5938 65.9884 63.3861 64.1032 63.7868L64.1029 63.7855Z" fill="#377EB7"/>
<path d="M60.4267 57.4613C60.0915 57.5325 59.8777 57.8617 59.949 58.1969L60.2464 59.5962C60.6471 61.4814 62.5068 62.689 64.392 62.2883L67.3276 61.6643C67.3396 61.6604 67.3586 61.6563 67.3857 61.6506C67.402 61.6471 67.4237 61.6425 67.4492 61.6356L67.4655 61.6322C67.5149 61.6245 67.5651 61.6138 67.6154 61.6032C67.6357 61.5988 67.6656 61.5925 67.6992 61.5839L67.8417 61.5536C67.8678 61.5495 67.9017 61.5423 67.9446 61.5303L67.9609 61.5269C68.0005 61.5199 68.0388 61.5132 68.0779 61.5034C68.0996 61.4988 68.1267 61.493 68.1614 61.4828L68.1777 61.4794C68.2296 61.4698 68.2692 61.4628 68.314 61.4532C68.3317 61.4495 68.3507 61.4454 68.3748 61.4389L68.3911 61.4354C68.4405 61.4278 68.4894 61.4174 68.541 61.4064C68.5641 61.4015 68.5912 61.3957 68.6232 61.3861L68.6395 61.3826C68.6832 61.3748 68.7299 61.3677 68.7744 61.3568C68.8043 61.3505 68.8382 61.3432 68.8783 61.3319L68.896 61.3281C68.9302 61.3223 68.9666 61.3131 68.9994 61.3076C69.0211 61.3029 69.0456 61.2977 69.0724 61.2906L69.0874 61.2874C69.1379 61.2781 69.1843 61.2697 69.2332 61.2593C69.2562 61.2544 69.2834 61.2486 69.3113 61.2398L69.3276 61.2364C69.3713 61.2285 69.4164 61.2203 69.4598 61.2111C69.491 61.2045 69.5263 61.197 69.5678 61.1853L69.5841 61.1819C69.6183 61.176 69.6533 61.1671 69.6875 61.1613C69.712 61.1561 69.7432 61.1495 69.7765 61.1395L69.7942 61.1358C69.8447 61.1265 69.88 61.119 69.9169 61.1125C69.9386 61.1079 69.9644 61.1024 69.9926 61.095C70.0567 61.0828 70.1059 61.0738 70.1534 61.0637C70.1778 61.0585 70.2049 61.0527 70.2342 61.0437L70.2532 61.0396C70.2969 61.0318 70.3379 61.0245 70.3814 61.0152C70.4058 61.01 70.4329 61.0043 70.4622 60.9952L70.4785 60.9917C70.5236 60.9836 70.5673 60.9757 70.6094 60.9668C70.6406 60.9601 70.6786 60.9521 70.716 60.9413L70.7323 60.9378C70.7665 60.9319 70.8021 60.9258 70.8344 60.9175C70.8588 60.9123 70.8846 60.9068 70.9142 60.8991L70.9305 60.8957C70.9785 60.8883 71.0206 60.8794 71.064 60.8701C71.0993 60.8626 71.1401 60.854 71.1815 60.8423L71.1978 60.8388C71.2307 60.8333 71.2636 60.8277 71.2931 60.82C71.3216 60.814 71.3556 60.8067 71.3903 60.7965L71.4066 60.7931C71.4584 60.7835 71.4926 60.7776 71.5306 60.7695C71.5551 60.7643 71.5809 60.7589 71.6091 60.7514L71.6254 60.748C71.6707 60.7412 71.7158 60.733 71.7562 60.723C71.7874 60.7164 71.8214 60.7091 71.8588 60.6984L71.8751 60.6949C71.9202 60.6867 71.9585 60.68 71.9937 60.6725C72.0263 60.6656 72.0575 60.659 72.0922 60.6487L72.1085 60.6453C72.1536 60.6371 72.1905 60.6307 72.2258 60.6232C72.2557 60.6168 72.2869 60.6102 72.3203 60.6003L72.3365 60.5968C72.3816 60.5886 72.4186 60.5822 72.4552 60.5744C72.4864 60.5678 72.5176 60.5612 72.551 60.5512L72.5673 60.5478C72.6137 60.5393 72.6493 60.5332 72.6873 60.5251C72.7239 60.5173 72.7619 60.5092 72.7994 60.4984L72.9066 60.4756C72.9408 60.4698 72.9747 60.4626 73.0108 60.4521L73.0271 60.4486C73.0789 60.439 73.1118 60.4334 73.1471 60.4259C73.1769 60.4196 73.2109 60.4124 73.2429 60.4027L73.2754 60.3958C73.311 60.3897 73.3425 60.3844 73.3737 60.3778C73.4022 60.3717 73.4307 60.3656 73.4617 60.3577L73.4847 60.3527C73.526 60.3468 73.564 60.3387 73.6007 60.3309C73.636 60.3234 73.674 60.3154 73.7114 60.3046L73.7277 60.3011C73.7673 60.2941 73.8056 60.2874 73.8396 60.2802C73.8735 60.273 73.9061 60.266 73.9394 60.2561L73.9557 60.2526C74.0035 60.2439 74.0353 60.24 74.0649 60.2323C74.0934 60.2262 74.1273 60.219 74.1569 60.2113L74.1731 60.2078C74.2144 60.2019 74.2538 60.1935 74.2891 60.186C74.3393 60.1754 74.3906 60.163 74.444 60.1474L74.5187 60.1316C74.558 60.1232 74.596 60.1151 74.6362 60.1038L74.6524 60.1003C74.6935 60.093 74.7263 60.0874 74.7562 60.0811C74.7915 60.0736 74.8267 60.0661 74.8642 60.0553L74.8805 60.0518C74.9215 60.0445 74.9543 60.039 74.9842 60.0326C75.0168 60.0257 75.0507 60.0185 75.0857 60.0096L75.102 60.0062C75.1433 60.0002 75.1783 59.9914 75.2111 59.9858C75.2478 59.978 75.2858 59.9699 75.3232 59.9591L75.3408 59.9554C75.3832 59.9478 75.4161 59.9422 75.4459 59.9359C75.4826 59.9281 75.5206 59.92 75.558 59.9092L75.5743 59.9058C75.6234 59.8967 75.6509 59.8923 75.6794 59.8863C75.716 59.8785 75.7554 59.8701 75.7928 59.8593L75.8091 59.8559C75.8542 59.8477 75.8846 59.8441 75.9101 59.8372C75.9467 59.8294 75.9847 59.8214 76.0222 59.8106L76.0561 59.8034C76.0873 59.7967 76.1134 59.7926 76.1381 59.7888C76.1829 59.7792 76.2277 59.7697 76.2733 59.7572L76.2895 59.7537C76.3153 59.7483 76.3384 59.7433 76.3615 59.7384C76.4022 59.7298 76.4456 59.7206 76.4871 59.7089L76.5034 59.7054C76.5471 59.6976 76.5762 59.6942 76.6003 59.6877C76.6397 59.6793 76.6804 59.6707 76.7219 59.659L76.7558 59.6518C76.783 59.646 76.8053 59.6441 76.827 59.6395C76.8609 59.6323 76.8976 59.6245 76.9326 59.6156L76.9489 59.6122C76.9915 59.6059 77.0257 59.6001 77.0539 59.5927C77.0974 59.5834 77.1395 59.5745 77.185 59.562L77.2176 59.5551C77.2488 59.5484 77.2738 59.5459 77.2942 59.5416C77.3349 59.533 77.3742 59.5246 77.4157 59.5129L77.4551 59.5046C77.4836 59.4985 77.5059 59.4966 77.5233 59.4915C77.5694 59.4817 77.6183 59.4713 77.6638 59.4588L77.6801 59.4553C77.7075 59.4509 77.7336 59.4468 77.751 59.4417C77.7863 59.4342 77.8243 59.4261 77.8606 59.417L78.0074 59.3801L78.0094 59.3896L80.7462 58.8107C82.6313 58.41 83.839 56.5504 83.4383 54.6652L83.1412 53.2672C83.0702 52.9334 82.7408 52.7183 82.4055 52.7895L60.4267 57.4613Z" fill="#377EB7"/>
<path d="M83.5978 59.6402L81.676 60.0487C79.7908 60.4494 78.5831 62.3091 78.9838 64.1942L81.146 74.3666C81.5467 76.2518 83.4064 77.4594 85.2916 77.0587L87.2134 76.6502C87.5472 76.5793 87.7624 76.2498 87.6911 75.9146L84.3334 60.1179C84.2624 59.7841 83.933 59.569 83.5978 59.6402Z" fill="#377EB7"/>
<path d="M70.4086 65.4607C71.0779 69.2705 71.9405 73.0548 72.7726 76.5761C73.1582 78.1566 74.4776 78.8578 76.3008 78.4462L76.4922 78.4055C76.5126 78.4012 76.5316 78.3971 76.5519 78.3928C78.3462 78.0114 79.243 76.8449 78.9558 75.2604C78.291 71.732 77.5437 67.943 76.5948 64.1458C76.1642 62.4003 74.4527 62.1102 72.9948 62.4186C71.5385 62.7282 70.0947 63.6904 70.4083 65.4594L70.4086 65.4607Z" stroke="white" stroke-width="6" mask="url(#path-4-outside-1_1412_1665)"/>
<path d="M64.1029 63.7855L62.1811 64.194C61.847 64.2636 61.6319 64.593 61.7031 64.9282L65.0614 80.7276C65.1323 81.0615 65.4618 81.2766 65.797 81.2054L67.7188 80.7969C69.604 80.3962 70.8117 78.5365 70.411 76.6513L68.2488 66.479C67.8481 64.5938 65.9884 63.3861 64.1032 63.7868L64.1029 63.7855Z" stroke="white" stroke-width="6" mask="url(#path-4-outside-1_1412_1665)"/>
<path d="M60.4267 57.4613C60.0915 57.5325 59.8777 57.8617 59.949 58.1969L60.2464 59.5962C60.6471 61.4814 62.5068 62.689 64.392 62.2883L67.3276 61.6643C67.3396 61.6604 67.3586 61.6563 67.3857 61.6506C67.402 61.6471 67.4237 61.6425 67.4492 61.6356L67.4655 61.6322C67.5149 61.6245 67.5651 61.6138 67.6154 61.6032C67.6357 61.5988 67.6656 61.5925 67.6992 61.5839L67.8417 61.5536C67.8678 61.5495 67.9017 61.5423 67.9446 61.5303L67.9609 61.5269C68.0005 61.5199 68.0388 61.5132 68.0779 61.5034C68.0996 61.4988 68.1267 61.493 68.1614 61.4828L68.1777 61.4794C68.2296 61.4698 68.2692 61.4628 68.314 61.4532C68.3317 61.4495 68.3507 61.4454 68.3748 61.4389L68.3911 61.4354C68.4405 61.4278 68.4894 61.4174 68.541 61.4064C68.5641 61.4015 68.5912 61.3957 68.6232 61.3861L68.6395 61.3826C68.6832 61.3748 68.7299 61.3677 68.7744 61.3568C68.8043 61.3505 68.8382 61.3432 68.8783 61.3319L68.896 61.3281C68.9302 61.3223 68.9666 61.3131 68.9994 61.3076C69.0211 61.3029 69.0456 61.2977 69.0724 61.2906L69.0874 61.2874C69.1379 61.2781 69.1843 61.2697 69.2332 61.2593C69.2562 61.2544 69.2834 61.2486 69.3113 61.2398L69.3276 61.2364C69.3713 61.2285 69.4164 61.2203 69.4598 61.2111C69.491 61.2045 69.5263 61.197 69.5678 61.1853L69.5841 61.1819C69.6183 61.176 69.6533 61.1671 69.6875 61.1613C69.712 61.1561 69.7432 61.1495 69.7765 61.1395L69.7942 61.1358C69.8447 61.1265 69.88 61.119 69.9169 61.1125C69.9386 61.1079 69.9644 61.1024 69.9926 61.095C70.0567 61.0828 70.1059 61.0738 70.1534 61.0637C70.1778 61.0585 70.2049 61.0527 70.2342 61.0437L70.2532 61.0396C70.2969 61.0318 70.3379 61.0245 70.3814 61.0152C70.4058 61.01 70.4329 61.0043 70.4622 60.9952L70.4785 60.9917C70.5236 60.9836 70.5673 60.9757 70.6094 60.9668C70.6406 60.9601 70.6786 60.9521 70.716 60.9413L70.7323 60.9378C70.7665 60.9319 70.8021 60.9258 70.8344 60.9175C70.8588 60.9123 70.8846 60.9068 70.9142 60.8991L70.9305 60.8957C70.9785 60.8883 71.0206 60.8794 71.064 60.8701C71.0993 60.8626 71.1401 60.854 71.1815 60.8423L71.1978 60.8388C71.2307 60.8333 71.2636 60.8277 71.2931 60.82C71.3216 60.814 71.3556 60.8067 71.3903 60.7965L71.4066 60.7931C71.4584 60.7835 71.4926 60.7776 71.5306 60.7695C71.5551 60.7643 71.5809 60.7589 71.6091 60.7514L71.6254 60.748C71.6707 60.7412 71.7158 60.733 71.7562 60.723C71.7874 60.7164 71.8214 60.7091 71.8588 60.6984L71.8751 60.6949C71.9202 60.6867 71.9585 60.68 71.9937 60.6725C72.0263 60.6656 72.0575 60.659 72.0922 60.6487L72.1085 60.6453C72.1536 60.6371 72.1905 60.6307 72.2258 60.6232C72.2557 60.6168 72.2869 60.6102 72.3203 60.6003L72.3365 60.5968C72.3816 60.5886 72.4186 60.5822 72.4552 60.5744C72.4864 60.5678 72.5176 60.5612 72.551 60.5512L72.5673 60.5478C72.6137 60.5393 72.6493 60.5332 72.6873 60.5251C72.7239 60.5173 72.7619 60.5092 72.7994 60.4984L72.9066 60.4756C72.9408 60.4698 72.9747 60.4626 73.0108 60.4521L73.0271 60.4486C73.0789 60.439 73.1118 60.4334 73.1471 60.4259C73.1769 60.4196 73.2109 60.4124 73.2429 60.4027L73.2754 60.3958C73.311 60.3897 73.3425 60.3844 73.3737 60.3778C73.4022 60.3717 73.4307 60.3656 73.4617 60.3577L73.4847 60.3527C73.526 60.3468 73.564 60.3387 73.6007 60.3309C73.636 60.3234 73.674 60.3154 73.7114 60.3046L73.7277 60.3011C73.7673 60.2941 73.8056 60.2874 73.8396 60.2802C73.8735 60.273 73.9061 60.266 73.9394 60.2561L73.9557 60.2526C74.0035 60.2439 74.0353 60.24 74.0649 60.2323C74.0934 60.2262 74.1273 60.219 74.1569 60.2113L74.1731 60.2078C74.2144 60.2019 74.2538 60.1935 74.2891 60.186C74.3393 60.1754 74.3906 60.163 74.444 60.1474L74.5187 60.1316C74.558 60.1232 74.596 60.1151 74.6362 60.1038L74.6524 60.1003C74.6935 60.093 74.7263 60.0874 74.7562 60.0811C74.7915 60.0736 74.8267 60.0661 74.8642 60.0553L74.8805 60.0518C74.9215 60.0445 74.9543 60.039 74.9842 60.0326C75.0168 60.0257 75.0507 60.0185 75.0857 60.0096L75.102 60.0062C75.1433 60.0002 75.1783 59.9914 75.2111 59.9858C75.2478 59.978 75.2858 59.9699 75.3232 59.9591L75.3408 59.9554C75.3832 59.9478 75.4161 59.9422 75.4459 59.9359C75.4826 59.9281 75.5206 59.92 75.558 59.9092L75.5743 59.9058C75.6234 59.8967 75.6509 59.8923 75.6794 59.8863C75.716 59.8785 75.7554 59.8701 75.7928 59.8593L75.8091 59.8559C75.8542 59.8477 75.8846 59.8441 75.9101 59.8372C75.9467 59.8294 75.9847 59.8214 76.0222 59.8106L76.0561 59.8034C76.0873 59.7967 76.1134 59.7926 76.1381 59.7888C76.1829 59.7792 76.2277 59.7697 76.2733 59.7572L76.2895 59.7537C76.3153 59.7483 76.3384 59.7433 76.3615 59.7384C76.4022 59.7298 76.4456 59.7206 76.4871 59.7089L76.5034 59.7054C76.5471 59.6976 76.5762 59.6942 76.6003 59.6877C76.6397 59.6793 76.6804 59.6707 76.7219 59.659L76.7558 59.6518C76.783 59.646 76.8053 59.6441 76.827 59.6395C76.8609 59.6323 76.8976 59.6245 76.9326 59.6156L76.9489 59.6122C76.9915 59.6059 77.0257 59.6001 77.0539 59.5927C77.0974 59.5834 77.1395 59.5745 77.185 59.562L77.2176 59.5551C77.2488 59.5484 77.2738 59.5459 77.2942 59.5416C77.3349 59.533 77.3742 59.5246 77.4157 59.5129L77.4551 59.5046C77.4836 59.4985 77.5059 59.4966 77.5233 59.4915C77.5694 59.4817 77.6183 59.4713 77.6638 59.4588L77.6801 59.4553C77.7075 59.4509 77.7336 59.4468 77.751 59.4417C77.7863 59.4342 77.8243 59.4261 77.8606 59.417L78.0074 59.3801L78.0094 59.3896L80.7462 58.8107C82.6313 58.41 83.839 56.5504 83.4383 54.6652L83.1412 53.2672C83.0702 52.9334 82.7408 52.7183 82.4055 52.7895L60.4267 57.4613Z" stroke="white" stroke-width="6" mask="url(#path-4-outside-1_1412_1665)"/>
<path d="M83.5978 59.6402L81.676 60.0487C79.7908 60.4494 78.5831 62.3091 78.9838 64.1942L81.146 74.3666C81.5467 76.2518 83.4064 77.4594 85.2916 77.0587L87.2134 76.6502C87.5472 76.5793 87.7624 76.2498 87.6911 75.9146L84.3334 60.1179C84.2624 59.7841 83.933 59.569 83.5978 59.6402Z" stroke="white" stroke-width="6" mask="url(#path-4-outside-1_1412_1665)"/>
</g>
<g filter="url(#filter6_dd_1412_1665)">
<path d="M215 75.0883L220.851 76.3159L224.534 58.7627L218.683 57.5351L215 75.0883ZM250.557 65.7497C250.896 64.1334 249.861 62.5495 248.245 62.2104L239.008 60.2723L241.807 53.8806C241.867 53.7404 241.921 53.5914 241.955 53.4305C242.082 52.8235 241.949 52.2228 241.637 51.745L240.403 49.8749L228.749 57.4863C228.111 57.9097 227.628 58.572 227.459 59.3765L224.39 74.0042C224.051 75.6205 225.086 77.2044 226.702 77.5435L239.867 80.3056C241.081 80.5603 242.275 80.0395 242.933 79.0857L249.507 69.6986C249.709 69.3897 249.865 69.0483 249.943 68.6752L250.531 65.8741L250.519 65.8564L250.557 65.7497Z" fill="#377EB7"/>
<path d="M213.767 74.8296L213.509 76.0624L214.741 76.3211L220.592 77.5487L221.825 77.8074L222.084 76.5745L225.767 59.0214L226.025 57.7886L224.793 57.5299L218.942 56.3023L217.709 56.0436L217.45 57.2765L213.767 74.8296ZM251.855 65.5984C252.093 63.449 250.664 61.4308 248.504 60.9776L240.783 59.3578L242.961 54.3859L242.961 54.3859L242.965 54.376C243.043 54.1934 243.131 53.9607 243.188 53.6892C243.387 52.7389 243.177 51.7994 242.691 51.0561L242.688 51.0512L241.454 49.1811L240.763 48.1347L239.714 48.8203L228.061 56.4316L228.061 56.4316L228.053 56.4364C227.155 57.0317 226.467 57.9702 226.227 59.1179L223.158 73.7455C222.676 76.0427 224.146 78.2943 226.443 78.7763L239.608 81.5384C241.333 81.9003 243.029 81.1607 243.967 79.8052C243.968 79.8039 243.969 79.8026 243.97 79.8012L250.539 70.4211L250.55 70.4051L250.561 70.3887C250.833 69.972 251.06 69.486 251.176 68.9339L251.763 66.1327L251.772 66.0902L251.79 66.0084L251.871 65.622L251.855 65.5984Z" stroke="white" stroke-width="2.51932"/>
</g>
<g filter="url(#filter7_dd_1412_1665)">
<rect x="274.624" y="21.0293" width="27.2405" height="27.2405" rx="13.6202" transform="rotate(15 274.624 21.0293)" fill="#377EB7" shape-rendering="crispEdges"/>
<rect x="273.851" y="19.69" width="29.4275" height="29.4275" rx="14.7137" transform="rotate(15 273.851 19.69)" stroke="white" stroke-width="2.18703" shape-rendering="crispEdges"/>
<g clip-path="url(#clip3_1412_1665)">
<path d="M275.586 36.3388L280.911 37.7657M287.124 39.4304L292.449 40.8572M285.444 33.2729L282.115 45.6982M285.444 33.2729C286.67 33.6013 287.929 32.8741 288.258 31.6487M285.444 33.2729C284.219 32.9446 283.492 31.685 283.82 30.4596M275.015 43.7957L289.215 47.6006M278.939 29.1517L283.82 30.4596M283.82 30.4596C284.148 29.2342 285.408 28.507 286.633 28.8354C287.859 29.1637 288.586 30.4233 288.258 31.6487M288.258 31.6487L293.139 32.9566M280.931 39.0422C280.21 40.3086 278.733 40.9871 277.297 40.6023C275.861 40.2175 274.921 38.8914 274.931 37.4344C274.931 37.3154 274.932 37.2558 274.99 37.0332C275.025 36.8967 275.16 36.5961 275.238 36.4787C275.366 36.2872 275.475 36.189 275.693 35.9926L279.438 32.6147L280.992 37.4124C281.082 37.6914 281.127 37.8309 281.142 38.0606C281.151 38.2013 281.118 38.5291 281.08 38.6651C281.019 38.887 280.99 38.9387 280.931 39.0422ZM292.469 42.1337C291.748 43.4001 290.271 44.0787 288.835 43.6939C287.399 43.3091 286.459 41.9829 286.468 40.5259C286.469 40.4069 286.469 40.3474 286.528 40.1247C286.563 39.9882 286.698 39.6876 286.776 39.5702C286.904 39.3787 287.013 39.2805 287.23 39.0841L290.975 35.7062L292.529 40.5039C292.62 40.7829 292.665 40.9224 292.68 41.1521C292.689 41.2929 292.655 41.6206 292.618 41.7566C292.557 41.9785 292.527 42.0303 292.469 42.1337Z" stroke="white" stroke-opacity="0.901961" stroke-width="1.29716" stroke-linecap="round" stroke-linejoin="round"/>
</g>
</g>
<path d="M181.73 51.6008C184.02 34.0766 171.669 18.0146 154.145 15.7253C136.621 13.4359 120.559 25.7863 118.27 43.3105C115.98 60.8347 128.331 76.8967 145.855 79.186C163.379 81.4753 179.441 69.125 181.73 51.6008Z" fill="#377EB7"/>
<path d="M137.659 34.6351C138.143 33.9629 138.785 33.4199 139.53 33.054L152.073 26.5561L137.756 44.4273C137.756 44.4273 136.954 42.5596 136.666 41.6301C136.31 40.462 136.215 39.2308 136.386 38.0225C136.557 36.8142 136.992 35.658 137.659 34.6351ZM131.164 47.4049C131.052 49.2781 131.342 51.154 132.016 52.907C132.689 54.6601 133.731 56.2497 135.071 57.5696L146.635 68.067C146.635 68.067 140.17 55.6019 134.944 43.3558C134.421 42.0659 134.136 40.6929 134.102 39.3027C134.089 38.6735 134.171 38.0459 134.345 37.4412C134.128 37.7414 133.702 38.3586 133.702 38.3586C132.841 39.6525 132.184 41.0707 131.755 42.5637C131.412 44.1562 131.214 45.7766 131.164 47.4049ZM163.389 53.1793C163.092 52.2486 162.299 50.3821 162.299 50.3821L148.004 68.2458L160.547 61.753C161.291 61.3871 161.934 60.8442 162.418 60.172C163.085 59.149 163.519 57.9929 163.691 56.7847C163.862 55.5763 163.766 54.345 163.41 53.1769L163.389 53.1793ZM168.892 47.3994C169.004 45.5264 168.714 43.6504 168.041 41.8974C167.367 40.1444 166.325 38.5546 164.985 37.2348L153.442 26.735C153.442 26.735 159.902 39.1994 165.133 51.4461C165.654 52.7362 165.938 54.1089 165.97 55.4986C165.984 56.1278 165.902 56.7554 165.727 57.3601C165.944 57.0598 166.37 56.4427 166.37 56.4427C167.232 55.1488 167.888 53.7306 168.317 52.2376C168.662 50.6454 168.861 49.0253 168.913 47.3971L168.892 47.3994Z" fill="white"/>
</g>
<defs>
<filter id="filter0_f_1412_1665" x="35.6699" y="4.79736" width="247.33" height="97.6582" filterUnits="userSpaceOnUse" color-interpolation-filters="sRGB">
<feFlood flood-opacity="0" result="BackgroundImageFix"/>
<feBlend mode="normal" in="SourceGraphic" in2="BackgroundImageFix" result="shape"/>
<feGaussianBlur stdDeviation="18" result="effect1_foregroundBlur_1412_1665"/>
</filter>
<filter id="filter1_dd_1412_1665" x="4" y="-0.544434" width="64.6021" height="64.6021" filterUnits="userSpaceOnUse" color-interpolation-filters="sRGB">
<feFlood flood-opacity="0" result="BackgroundImageFix"/>
<feColorMatrix in="SourceAlpha" type="matrix" values="0 0 0 0 0 0 0 0 0 0 0 0 0 0 0 0 0 0 127 0" result="hardAlpha"/>
<feOffset dy="2"/>
<feGaussianBlur stdDeviation="1"/>
<feComposite in2="hardAlpha" operator="out"/>
<feColorMatrix type="matrix" values="0 0 0 0 0 0 0 0 0 0 0 0 0 0 0 0 0 0 0.03 0"/>
<feBlend mode="normal" in2="BackgroundImageFix" result="effect1_dropShadow_1412_1665"/>
<feColorMatrix in="SourceAlpha" type="matrix" values="0 0 0 0 0 0 0 0 0 0 0 0 0 0 0 0 0 0 127 0" result="hardAlpha"/>
<feOffset dy="4"/>
<feGaussianBlur stdDeviation="6"/>
<feComposite in2="hardAlpha" operator="out"/>
<feColorMatrix type="matrix" values="0 0 0 0 0 0 0 0 0 0 0 0 0 0 0 0 0 0 0.02 0"/>
<feBlend mode="normal" in2="effect1_dropShadow_1412_1665" result="effect2_dropShadow_1412_1665"/>
<feBlend mode="normal" in="SourceGraphic" in2="effect2_dropShadow_1412_1665" result="shape"/>
</filter>
<filter id="filter2_dd_1412_1665" x="9.48657" y="4.94238" width="53.6292" height="53.6289" filterUnits="userSpaceOnUse" color-interpolation-filters="sRGB">
<feFlood flood-opacity="0" result="BackgroundImageFix"/>
<feColorMatrix in="SourceAlpha" type="matrix" values="0 0 0 0 0 0 0 0 0 0 0 0 0 0 0 0 0 0 127 0" result="hardAlpha"/>
<feOffset dy="2"/>
<feGaussianBlur stdDeviation="1"/>
<feComposite in2="hardAlpha" operator="out"/>
<feColorMatrix type="matrix" values="0 0 0 0 0 0 0 0 0 0 0 0 0 0 0 0 0 0 0.03 0"/>
<feBlend mode="normal" in2="BackgroundImageFix" result="effect1_dropShadow_1412_1665"/>
<feColorMatrix in="SourceAlpha" type="matrix" values="0 0 0 0 0 0 0 0 0 0 0 0 0 0 0 0 0 0 127 0" result="hardAlpha"/>
<feOffset dy="4"/>
<feGaussianBlur stdDeviation="6"/>
<feComposite in2="hardAlpha" operator="out"/>
<feColorMatrix type="matrix" values="0 0 0 0 0 0 0 0 0 0 0 0 0 0 0 0 0 0 0.02 0"/>
<feBlend mode="normal" in2="effect1_dropShadow_1412_1665" result="effect2_dropShadow_1412_1665"/>
<feBlend mode="normal" in="SourceGraphic" in2="effect2_dropShadow_1412_1665" result="shape"/>
</filter>
<filter id="filter3_dd_1412_1665" x="179.427" y="-6.59335" width="65.6133" height="65.613" filterUnits="userSpaceOnUse" color-interpolation-filters="sRGB">
<feFlood flood-opacity="0" result="BackgroundImageFix"/>
<feColorMatrix in="SourceAlpha" type="matrix" values="0 0 0 0 0 0 0 0 0 0 0 0 0 0 0 0 0 0 127 0" result="hardAlpha"/>
<feOffset dy="1.76223"/>
<feGaussianBlur stdDeviation="0.881114"/>
<feComposite in2="hardAlpha" operator="out"/>
<feColorMatrix type="matrix" values="0 0 0 0 0 0 0 0 0 0 0 0 0 0 0 0 0 0 0.03 0"/>
<feBlend mode="normal" in2="BackgroundImageFix" result="effect1_dropShadow_1412_1665"/>
<feColorMatrix in="SourceAlpha" type="matrix" values="0 0 0 0 0 0 0 0 0 0 0 0 0 0 0 0 0 0 127 0" result="hardAlpha"/>
<feOffset dy="3.52446"/>
<feGaussianBlur stdDeviation="5.28668"/>
<feComposite in2="hardAlpha" operator="out"/>
<feColorMatrix type="matrix" values="0 0 0 0 0 0 0 0 0 0 0 0 0 0 0 0 0 0 0.02 0"/>
<feBlend mode="normal" in2="effect1_dropShadow_1412_1665" result="effect2_dropShadow_1412_1665"/>
<feBlend mode="normal" in="SourceGraphic" in2="effect2_dropShadow_1412_1665" result="shape"/>
</filter>
<filter id="filter4_dd_1412_1665" x="188.02" y="1.99991" width="48.4263" height="48.4265" filterUnits="userSpaceOnUse" color-interpolation-filters="sRGB">
<feFlood flood-opacity="0" result="BackgroundImageFix"/>
<feColorMatrix in="SourceAlpha" type="matrix" values="0 0 0 0 0 0 0 0 0 0 0 0 0 0 0 0 0 0 127 0" result="hardAlpha"/>
<feOffset dy="1.76223"/>
<feGaussianBlur stdDeviation="0.881114"/>
<feComposite in2="hardAlpha" operator="out"/>
<feColorMatrix type="matrix" values="0 0 0 0 0 0 0 0 0 0 0 0 0 0 0 0 0 0 0.03 0"/>
<feBlend mode="normal" in2="BackgroundImageFix" result="effect1_dropShadow_1412_1665"/>
<feColorMatrix in="SourceAlpha" type="matrix" values="0 0 0 0 0 0 0 0 0 0 0 0 0 0 0 0 0 0 127 0" result="hardAlpha"/>
<feOffset dy="3.52446"/>
<feGaussianBlur stdDeviation="5.28668"/>
<feComposite in2="hardAlpha" operator="out"/>
<feColorMatrix type="matrix" values="0 0 0 0 0 0 0 0 0 0 0 0 0 0 0 0 0 0 0.02 0"/>
<feBlend mode="normal" in2="effect1_dropShadow_1412_1665" result="effect2_dropShadow_1412_1665"/>
<feBlend mode="normal" in="SourceGraphic" in2="effect2_dropShadow_1412_1665" result="shape"/>
</filter>
<filter id="filter5_d_1412_1665" x="48.9346" y="43.7754" width="49.7708" height="50.4443" filterUnits="userSpaceOnUse" color-interpolation-filters="sRGB">
<feFlood flood-opacity="0" result="BackgroundImageFix"/>
<feColorMatrix in="SourceAlpha" type="matrix" values="0 0 0 0 0 0 0 0 0 0 0 0 0 0 0 0 0 0 127 0" result="hardAlpha"/>
<feOffset dy="2"/>
<feGaussianBlur stdDeviation="4"/>
<feComposite in2="hardAlpha" operator="out"/>
<feColorMatrix type="matrix" values="0 0 0 0 0 0 0 0 0 0 0 0 0 0 0 0 0 0 0.1 0"/>
<feBlend mode="normal" in2="BackgroundImageFix" result="effect1_dropShadow_1412_1665"/>
<feBlend mode="normal" in="SourceGraphic" in2="effect1_dropShadow_1412_1665" result="shape"/>
</filter>
<filter id="filter6_dd_1412_1665" x="204.459" y="41.3559" width="56.3094" height="51.611" filterUnits="userSpaceOnUse" color-interpolation-filters="sRGB">
<feFlood flood-opacity="0" result="BackgroundImageFix"/>
<feColorMatrix in="SourceAlpha" type="matrix" values="0 0 0 0 0 0 0 0 0 0 0 0 0 0 0 0 0 0 127 0" result="hardAlpha"/>
<feOffset dy="1.25966"/>
<feGaussianBlur stdDeviation="0.62983"/>
<feComposite in2="hardAlpha" operator="out"/>
<feColorMatrix type="matrix" values="0 0 0 0 0 0 0 0 0 0 0 0 0 0 0 0 0 0 0.03 0"/>
<feBlend mode="normal" in2="BackgroundImageFix" result="effect1_dropShadow_1412_1665"/>
<feColorMatrix in="SourceAlpha" type="matrix" values="0 0 0 0 0 0 0 0 0 0 0 0 0 0 0 0 0 0 127 0" result="hardAlpha"/>
<feOffset dy="2.51932"/>
<feGaussianBlur stdDeviation="3.77898"/>
<feComposite in2="hardAlpha" operator="out"/>
<feColorMatrix type="matrix" values="0 0 0 0 0 0 0 0 0 0 0 0 0 0 0 0 0 0 0.02 0"/>
<feBlend mode="normal" in2="effect1_dropShadow_1412_1665" result="effect2_dropShadow_1412_1665"/>
<feBlend mode="normal" in="SourceGraphic" in2="effect2_dropShadow_1412_1665" result="shape"/>
</filter>
<filter id="filter7_dd_1412_1665" x="254.451" y="12.2812" width="59.6069" height="59.6072" filterUnits="userSpaceOnUse" color-interpolation-filters="sRGB">
<feFlood flood-opacity="0" result="BackgroundImageFix"/>
<feColorMatrix in="SourceAlpha" type="matrix" values="0 0 0 0 0 0 0 0 0 0 0 0 0 0 0 0 0 0 127 0" result="hardAlpha"/>
<feOffset dy="4.37406"/>
<feGaussianBlur stdDeviation="4.37406"/>
<feComposite in2="hardAlpha" operator="out"/>
<feColorMatrix type="matrix" values="0 0 0 0 0 0 0 0 0 0 0 0 0 0 0 0 0 0 0.06 0"/>
<feBlend mode="normal" in2="BackgroundImageFix" result="effect1_dropShadow_1412_1665"/>
<feColorMatrix in="SourceAlpha" type="matrix" values="0 0 0 0 0 0 0 0 0 0 0 0 0 0 0 0 0 0 127 0" result="hardAlpha"/>
<feOffset dy="4.37406"/>
<feGaussianBlur stdDeviation="6.56109"/>
<feComposite in2="hardAlpha" operator="out"/>
<feColorMatrix type="matrix" values="0 0 0 0 0 0 0 0 0 0 0 0 0 0 0 0 0 0 0.04 0"/>
<feBlend mode="normal" in2="effect1_dropShadow_1412_1665" result="effect2_dropShadow_1412_1665"/>
<feBlend mode="normal" in="SourceGraphic" in2="effect2_dropShadow_1412_1665" result="shape"/>
</filter>
<clipPath id="clip0_1412_1665">
<rect width="320" height="100" fill="white" transform="translate(0 0.455566)"/>
</clipPath>
<clipPath id="clip1_1412_1665">
<rect width="32.67" height="32.67" fill="white" transform="translate(25.2769 7.45557) rotate(16.4962)"/>
</clipPath>
<clipPath id="clip2_1412_1665">
<rect width="32.67" height="32.67" fill="white" transform="translate(190 16.416) rotate(-29.2445)"/>
</clipPath>
<clipPath id="clip3_1412_1665">
<rect width="22.0518" height="22.0518" fill="white" transform="translate(276.458 24.2065) rotate(15)"/>
</clipPath>
</defs>
</svg>
