<svg width="457" height="156" viewBox="0 0 457 156" fill="none" xmlns="http://www.w3.org/2000/svg">
<g clip-path="url(#clip0_1661_2849)">
<path d="M0 8.45557C0 4.03729 3.58172 0.455566 8 0.455566H449C453.418 0.455566 457 4.03729 457 8.45557V147.456C457 151.874 453.418 155.456 449 155.456H8C3.58172 155.456 0 151.874 0 147.456V8.45557Z" fill="#FAFAFA"/>
<line opacity="0.1" x1="46.5" y1="-280.544" x2="46.5" y2="297.456" stroke="black" stroke-dasharray="2 2"/>
<line opacity="0.1" x1="97.5" y1="-280.544" x2="97.5" y2="297.456" stroke="black" stroke-dasharray="2 2"/>
<line opacity="0.1" x1="148.5" y1="-280.544" x2="148.5" y2="297.456" stroke="black" stroke-dasharray="2 2"/>
<line opacity="0.1" x1="199.5" y1="-280.544" x2="199.5" y2="297.456" stroke="black" stroke-dasharray="2 2"/>
<line opacity="0.1" x1="250.5" y1="-280.544" x2="250.5" y2="297.456" stroke="black" stroke-dasharray="2 2"/>
<line opacity="0.1" x1="301.5" y1="-280.544" x2="301.5" y2="297.456" stroke="black" stroke-dasharray="2 2"/>
<line opacity="0.1" x1="352.5" y1="-280.544" x2="352.5" y2="297.456" stroke="black" stroke-dasharray="2 2"/>
<line opacity="0.1" x1="403.5" y1="-280.544" x2="403.5" y2="297.456" stroke="black" stroke-dasharray="2 2"/>
<line opacity="0.1" x1="491" y1="28.9556" x2="-42" y2="28.9556" stroke="black" stroke-dasharray="2 2"/>
<line opacity="0.1" x1="491" y1="79.9556" x2="-42" y2="79.9556" stroke="black" stroke-dasharray="2 2"/>
<line opacity="0.1" x1="491" y1="130.956" x2="-42" y2="130.956" stroke="black" stroke-dasharray="2 2"/>
<g filter="url(#filter0_dd_1661_2849)">
<path d="M65.9075 66.203C66.2771 64.9398 66.9528 63.7863 67.875 62.8442L83.2327 46.4736L71.2328 80.8237C71.2328 80.8237 69.0418 78.4499 68.1204 77.2089C66.9688 75.6472 66.1741 73.853 65.7918 71.9518C65.4096 70.0506 65.4491 68.0886 65.9075 66.203ZM62.9302 88.772C63.7522 91.6383 65.1793 94.2956 67.1161 96.5658C69.0529 98.8363 71.4546 100.667 74.1605 101.936L97.0395 111.549C97.0395 111.549 80.7602 96.2906 66.4521 80.7058C64.9868 79.0494 63.8332 77.1431 63.0466 75.0781C62.6938 74.1424 62.4847 73.1586 62.4264 72.1602C62.2598 72.725 61.9477 73.8751 61.9477 73.8751C61.3417 76.2694 61.1079 78.7417 61.2545 81.2057C61.5832 83.7733 62.144 86.3057 62.9302 88.772ZM114.269 80.38C113.331 79.1427 111.156 76.7652 111.156 76.7652L99.1855 111.093L114.545 94.7299C115.467 93.7878 116.143 92.6345 116.512 91.3713C116.971 89.4856 117.01 87.5235 116.628 85.6225C116.246 83.7213 115.451 81.9269 114.3 80.3652L114.269 80.38ZM119.457 68.809C118.635 65.9429 117.208 63.2855 115.272 61.0152C113.335 58.7449 110.933 56.914 108.227 55.645L85.3785 46.0175C85.3785 46.0175 101.65 61.2773 115.966 76.8603C117.429 78.518 118.579 80.4249 119.363 82.4897C119.716 83.4255 119.925 84.4093 119.984 85.4077C120.15 84.8428 120.462 83.6928 120.462 83.6928C121.068 81.2985 121.302 78.8262 121.155 76.3622C120.83 73.7942 120.271 71.2613 119.488 68.7941L119.457 68.809Z" fill="url(#paint0_linear_1661_2849)"/>
<path d="M63.988 65.6413L63.975 65.6856L63.9641 65.7305C63.467 67.7751 63.3979 69.8983 63.7599 71.9675L60.5082 71.5943C60.4193 71.8955 60.2953 72.3398 60.1967 72.6973C60.1466 72.8786 60.1019 73.0417 60.0697 73.1596L60.0316 73.2994L60.0212 73.3376L60.0185 73.3477L60.0178 73.3504L60.0176 73.3511L60.0175 73.3513L60.0175 73.3513L60.5649 73.4999C60.5649 73.4999 60.5649 73.4999 60.5649 73.4999L60.0175 73.3514L60.013 73.3678L60.0088 73.3844C59.3525 75.9775 59.0993 78.6554 59.258 81.3245L59.2621 81.3923L59.2707 81.4597C59.6135 84.1376 60.1976 86.779 61.0159 89.3518C61.918 92.4822 63.4789 95.3839 65.5945 97.8639C67.7167 100.352 70.3477 102.357 73.3113 103.747L73.3482 103.764L73.3858 103.78L96.2648 113.393L97.9336 110.82L100.644 112.461L115.989 96.1132C117.133 94.9399 117.972 93.5049 118.432 91.933L118.445 91.8886L118.456 91.8437C118.953 89.7972 119.022 87.6721 118.659 85.6015L121.902 85.9738C121.991 85.6724 122.115 85.228 122.213 84.8705C122.263 84.6893 122.308 84.5261 122.34 84.4082L122.378 84.2684L122.389 84.2301L122.392 84.2201L122.392 84.2174L122.393 84.2167L122.393 84.2165L122.393 84.2164L121.845 84.0679L122.393 84.2164L122.397 84.2L122.401 84.1835C123.058 81.5904 123.311 78.9124 123.152 76.2433L123.148 76.1766L123.14 76.1104C122.799 73.4224 122.214 70.7712 121.394 68.1888L120.696 65.9894L120.614 66.0288C119.693 63.7374 118.404 61.605 116.793 59.7172L116.793 59.7171C114.671 57.2297 112.04 55.224 109.076 53.8342L109.04 53.8174L109.004 53.8019L86.1551 44.1744L84.484 46.7472L81.7741 45.1052L66.4301 61.4612C65.2866 62.6346 64.4479 64.0696 63.988 65.6413ZM70.183 81.7927C70.183 81.7927 70.183 81.7927 70.183 81.7927C70.4006 81.5918 70.7311 81.2868 71.2328 80.8237L70.183 81.7927ZM73.1209 81.4833L84.7554 48.1793C85.2251 48.6241 85.9051 49.2703 86.7617 50.0902C88.5054 51.759 90.98 54.147 93.9011 57.0209C98.5714 61.616 104.376 67.4459 110.156 73.561L109.268 76.1067L97.6623 109.387C97.1923 108.942 96.5119 108.296 95.6549 107.476C93.9107 105.807 91.4354 103.42 88.5139 100.546C83.8386 95.9469 78.0282 90.1108 72.2454 83.9896L73.1209 81.4833Z" stroke="white" stroke-width="4"/>
</g>
<g clip-path="url(#clip1_1661_2849)" filter="url(#filter1_dd_1661_2849)">
<g filter="url(#filter2_dd_1661_2849)">
<path d="M187.427 31.6822L188.112 40.3138C188.209 41.5237 188.257 42.1286 188.446 42.6816C188.614 43.1717 188.863 43.6302 189.183 44.038C189.543 44.4981 190.025 44.8678 190.987 45.6072L197.853 50.8824L189.222 51.5679C188.012 51.664 187.407 51.7121 186.854 51.9016C186.364 52.0696 185.905 52.3186 185.498 52.6382C185.037 52.9988 184.668 53.48 183.928 54.4425L178.653 61.3088L177.968 52.6772C177.872 51.4674 177.823 50.8624 177.634 50.3094C177.466 49.8193 177.217 49.3608 176.897 48.9531C176.537 48.493 176.056 48.1233 175.093 47.3839L168.227 42.1087L176.858 41.4231C178.068 41.327 178.673 41.279 179.226 41.0894C179.716 40.9215 180.175 40.6725 180.582 40.3529C181.043 39.9922 181.412 39.511 182.152 38.5486L187.427 31.6822Z" fill="#A574FF"/>
<path d="M187.427 31.6822L188.112 40.3138C188.209 41.5237 188.257 42.1286 188.446 42.6816C188.614 43.1717 188.863 43.6302 189.183 44.038C189.543 44.4981 190.025 44.8678 190.987 45.6072L197.853 50.8824L189.222 51.5679C188.012 51.664 187.407 51.7121 186.854 51.9016C186.364 52.0696 185.905 52.3186 185.498 52.6382C185.037 52.9988 184.668 53.48 183.928 54.4425L178.653 61.3088L177.968 52.6772C177.872 51.4674 177.823 50.8624 177.634 50.3094C177.466 49.8193 177.217 49.3608 176.897 48.9531C176.537 48.493 176.056 48.1233 175.093 47.3839L168.227 42.1087L176.858 41.4231C178.068 41.327 178.673 41.279 179.226 41.0894C179.716 40.9215 180.175 40.6725 180.582 40.3529C181.043 39.9922 181.412 39.511 182.152 38.5486L187.427 31.6822Z" fill="#52B1F3"/>
<path d="M187.427 31.6822L188.112 40.3138C188.209 41.5237 188.257 42.1286 188.446 42.6816C188.614 43.1717 188.863 43.6302 189.183 44.038C189.543 44.4981 190.025 44.8678 190.987 45.6072L197.853 50.8824L189.222 51.5679C188.012 51.664 187.407 51.7121 186.854 51.9016C186.364 52.0696 185.905 52.3186 185.498 52.6382C185.037 52.9988 184.668 53.48 183.928 54.4425L178.653 61.3088L177.968 52.6772C177.872 51.4674 177.823 50.8624 177.634 50.3094C177.466 49.8193 177.217 49.3608 176.897 48.9531C176.537 48.493 176.056 48.1233 175.093 47.3839L168.227 42.1087L176.858 41.4231C178.068 41.327 178.673 41.279 179.226 41.0894C179.716 40.9215 180.175 40.6725 180.582 40.3529C181.043 39.9922 181.412 39.511 182.152 38.5486L187.427 31.6822Z" stroke="white" stroke-width="4" stroke-linecap="round" stroke-linejoin="round"/>
</g>
</g>
<g clip-path="url(#clip2_1661_2849)" filter="url(#filter3_dd_1661_2849)">
<g filter="url(#filter4_dd_1661_2849)">
<path d="M313.686 97.2079L320.346 102.741C321.279 103.516 321.746 103.904 322.275 104.154C322.743 104.376 323.245 104.518 323.76 104.573C324.341 104.636 324.942 104.55 326.143 104.376L334.713 103.14L329.18 109.801C328.405 110.734 328.017 111.201 327.767 111.729C327.545 112.198 327.403 112.7 327.348 113.215C327.285 113.796 327.371 114.397 327.545 115.598L328.781 124.168L322.12 118.635C321.187 117.859 320.72 117.472 320.192 117.221C319.723 117 319.221 116.858 318.706 116.802C318.125 116.74 317.524 116.826 316.323 116.999L307.753 118.235L313.286 111.575C314.062 110.642 314.449 110.175 314.7 109.646C314.921 109.178 315.063 108.676 315.119 108.161C315.182 107.58 315.095 106.979 314.922 105.778L313.686 97.2079Z" fill="#A574FF"/>
<path d="M313.686 97.2079L320.346 102.741C321.279 103.516 321.746 103.904 322.275 104.154C322.743 104.376 323.245 104.518 323.76 104.573C324.341 104.636 324.942 104.55 326.143 104.376L334.713 103.14L329.18 109.801C328.405 110.734 328.017 111.201 327.767 111.729C327.545 112.198 327.403 112.7 327.348 113.215C327.285 113.796 327.371 114.397 327.545 115.598L328.781 124.168L322.12 118.635C321.187 117.859 320.72 117.472 320.192 117.221C319.723 117 319.221 116.858 318.706 116.802C318.125 116.74 317.524 116.826 316.323 116.999L307.753 118.235L313.286 111.575C314.062 110.642 314.449 110.175 314.7 109.646C314.921 109.178 315.063 108.676 315.119 108.161C315.182 107.58 315.095 106.979 314.922 105.778L313.686 97.2079Z" fill="#52B1F3"/>
<path d="M313.686 97.2079L320.346 102.741C321.279 103.516 321.746 103.904 322.275 104.154C322.743 104.376 323.245 104.518 323.76 104.573C324.341 104.636 324.942 104.55 326.143 104.376L334.713 103.14L329.18 109.801C328.405 110.734 328.017 111.201 327.767 111.729C327.545 112.198 327.403 112.7 327.348 113.215C327.285 113.796 327.371 114.397 327.545 115.598L328.781 124.168L322.12 118.635C321.187 117.859 320.72 117.472 320.192 117.221C319.723 117 319.221 116.858 318.706 116.802C318.125 116.74 317.524 116.826 316.323 116.999L307.753 118.235L313.286 111.575C314.062 110.642 314.449 110.175 314.7 109.646C314.921 109.178 315.063 108.676 315.119 108.161C315.182 107.58 315.095 106.979 314.922 105.778L313.686 97.2079Z" stroke="white" stroke-width="4" stroke-linecap="round" stroke-linejoin="round"/>
</g>
</g>
<g filter="url(#filter5_dd_1661_2849)">
<rect x="253.459" y="31.8096" width="52" height="52" rx="26" transform="rotate(-18.96 253.459 31.8096)" stroke="white" stroke-width="4" shape-rendering="crispEdges"/>
<path d="M309.194 40.1536C304.887 27.6179 291.234 20.9469 278.698 25.2535C266.162 29.5601 259.491 43.2135 263.798 55.7492C268.104 68.2849 281.758 74.9559 294.293 70.6493C306.829 66.3427 313.5 52.6893 309.194 40.1536Z" fill="url(#paint1_linear_1661_2849)"/>
<path d="M273.93 43.4547C274.031 42.8417 274.281 42.2626 274.659 41.7685L280.918 33.2201L277.261 50.0002C277.261 50.0002 276.099 49.0133 275.596 48.4846C274.967 47.8188 274.492 47.0236 274.204 46.1547C273.916 45.2859 273.823 44.3643 273.93 43.4547ZM273.826 54.199C274.375 55.495 275.195 56.6583 276.232 57.6112C277.27 58.5642 278.5 59.2846 279.84 59.7244L291.109 62.9195C291.109 62.9195 282.609 56.7019 275.014 50.2184C274.233 49.5262 273.583 48.699 273.097 47.7765C272.878 47.3582 272.724 46.9093 272.639 46.4449C272.594 46.719 272.513 47.2757 272.513 47.2757C272.366 48.4321 272.398 49.6038 272.608 50.7499C272.908 51.9341 273.316 53.0885 273.826 54.199ZM297.399 47.3309C296.889 46.8048 295.734 45.8153 295.734 45.8153L292.089 62.5831L298.349 54.0383C298.727 53.5442 298.978 52.9652 299.079 52.3522C299.186 51.4425 299.092 50.521 298.804 49.6521C298.516 48.7833 298.041 47.988 297.412 47.3222L297.399 47.3309ZM299.168 41.6128C298.619 40.317 297.798 39.1536 296.761 38.2007C295.724 37.2478 294.494 36.5273 293.153 36.0876L281.898 32.8836C281.898 32.8836 290.394 39.1026 297.993 45.5847C298.773 46.2777 299.421 47.1053 299.906 48.0279C300.125 48.4462 300.279 48.8952 300.364 49.3596C300.41 49.0854 300.49 48.5287 300.49 48.5287C300.637 47.3723 300.605 46.2006 300.396 45.0545C300.096 43.87 299.69 42.7152 299.181 41.6041L299.168 41.6128Z" fill="white"/>
</g>
<g filter="url(#filter6_dd_1661_2849)">
<rect x="364.674" y="62.2295" width="27" height="17" transform="rotate(-12.0488 364.674 62.2295)" fill="#9871FF"/>
<path d="M374.426 48.9162C368.973 50.0801 364.085 51.6741 360.582 53.345C358.845 54.1734 357.344 55.0693 356.282 56.0102C355.358 56.8288 354.131 58.251 354.515 60.0516C354.9 61.8522 356.6 62.6496 357.778 63.0196C359.132 63.4447 360.868 63.6498 362.792 63.6968C366.672 63.7916 371.784 63.2512 377.237 62.0873C382.69 60.9234 387.577 59.3294 391.081 57.6586C392.818 56.8302 394.319 55.9343 395.381 54.9934C396.305 54.1747 397.532 52.7526 397.148 50.9519C396.763 49.1513 395.063 48.3539 393.885 47.984C392.531 47.5589 390.795 47.3538 388.871 47.3067C384.991 47.2119 379.879 47.7524 374.426 48.9162Z" fill="#A574FF"/>
<path d="M374.426 48.9162C368.973 50.0801 364.085 51.6741 360.582 53.345C358.845 54.1734 357.344 55.0693 356.282 56.0102C355.358 56.8288 354.131 58.251 354.515 60.0516C354.9 61.8522 356.6 62.6496 357.778 63.0196C359.132 63.4447 360.868 63.6498 362.792 63.6968C366.672 63.7916 371.784 63.2512 377.237 62.0873C382.69 60.9234 387.577 59.3294 391.081 57.6586C392.818 56.8302 394.319 55.9343 395.381 54.9934C396.305 54.1747 397.532 52.7526 397.148 50.9519C396.763 49.1513 395.063 48.3539 393.885 47.984C392.531 47.5589 390.795 47.3538 388.871 47.3067C384.991 47.2119 379.879 47.7524 374.426 48.9162Z" fill="#9871FF"/>
<path d="M374.426 48.9162C368.973 50.0801 364.085 51.6741 360.582 53.345C358.845 54.1734 357.344 55.0693 356.282 56.0102C355.358 56.8288 354.131 58.251 354.515 60.0516C354.9 61.8522 356.6 62.6496 357.778 63.0196C359.132 63.4447 360.868 63.6498 362.792 63.6968C366.672 63.7916 371.784 63.2512 377.237 62.0873C382.69 60.9234 387.577 59.3294 391.081 57.6586C392.818 56.8302 394.319 55.9343 395.381 54.9934C396.305 54.1747 397.532 52.7526 397.148 50.9519C396.763 49.1513 395.063 48.3539 393.885 47.984C392.531 47.5589 390.795 47.3538 388.871 47.3067C384.991 47.2119 379.879 47.7524 374.426 48.9162Z" stroke="white" stroke-width="4"/>
<path d="M358.738 79.832C359.518 83.4869 360.782 86.7666 362.263 89.1184C362.998 90.2872 363.847 91.3224 364.8 92.0416C365.748 92.7566 367.019 93.3109 368.436 93.0085C369.853 92.706 370.787 91.681 371.36 90.6414C371.937 89.5956 372.288 88.3042 372.483 86.937C372.874 84.1857 372.689 80.6756 371.909 77.0207C371.129 73.3658 369.864 70.0861 368.384 67.7342C367.648 66.5655 366.8 65.5303 365.847 64.8111C364.899 64.0961 363.628 63.5418 362.211 63.8442C360.794 64.1467 359.86 65.1717 359.287 66.2113C358.71 67.2571 358.358 68.5485 358.164 69.9157C357.773 72.667 357.958 76.1771 358.738 79.832Z" fill="#A574FF"/>
<path d="M358.738 79.832C359.518 83.4869 360.782 86.7666 362.263 89.1184C362.998 90.2872 363.847 91.3224 364.8 92.0416C365.748 92.7566 367.019 93.3109 368.436 93.0085C369.853 92.706 370.787 91.681 371.36 90.6414C371.937 89.5956 372.288 88.3042 372.483 86.937C372.874 84.1857 372.689 80.6756 371.909 77.0207C371.129 73.3658 369.864 70.0861 368.384 67.7342C367.648 66.5655 366.8 65.5303 365.847 64.8111C364.899 64.0961 363.628 63.5418 362.211 63.8442C360.794 64.1467 359.86 65.1717 359.287 66.2113C358.71 67.2571 358.358 68.5485 358.164 69.9157C357.773 72.667 357.958 76.1771 358.738 79.832Z" fill="#9871FF"/>
<path d="M358.738 79.832C359.518 83.4869 360.782 86.7666 362.263 89.1184C362.998 90.2872 363.847 91.3224 364.8 92.0416C365.748 92.7566 367.019 93.3109 368.436 93.0085C369.853 92.706 370.787 91.681 371.36 90.6414C371.937 89.5956 372.288 88.3042 372.483 86.937C372.874 84.1857 372.689 80.6756 371.909 77.0207C371.129 73.3658 369.864 70.0861 368.384 67.7342C367.648 66.5655 366.8 65.5303 365.847 64.8111C364.899 64.0961 363.628 63.5418 362.211 63.8442C360.794 64.1467 359.86 65.1717 359.287 66.2113C358.71 67.2571 358.358 68.5485 358.164 69.9157C357.773 72.667 357.958 76.1771 358.738 79.832Z" stroke="white" stroke-width="4"/>
<path d="M373.648 77.5303C374.381 80.966 375.608 84.0496 377.071 86.26C377.799 87.3597 378.644 88.3336 379.6 89.0046C380.559 89.6777 381.803 90.1561 383.166 89.865C384.53 89.5739 385.47 88.6295 386.071 87.6236C386.669 86.6207 387.044 85.3864 387.259 84.0854C387.692 81.4704 387.553 78.1547 386.819 74.719C386.086 71.2833 384.859 68.1996 383.396 65.9893C382.669 64.8895 381.823 63.9156 380.867 63.2447C379.908 62.5716 378.665 62.0932 377.301 62.3843C375.937 62.6754 374.997 63.6198 374.397 64.6257C373.798 65.6285 373.424 66.8629 373.208 68.1639C372.775 70.7789 372.915 74.0946 373.648 77.5303Z" fill="#A574FF"/>
<path d="M373.648 77.5303C374.381 80.966 375.608 84.0496 377.071 86.26C377.799 87.3597 378.644 88.3336 379.6 89.0046C380.559 89.6777 381.803 90.1561 383.166 89.865C384.53 89.5739 385.47 88.6295 386.071 87.6236C386.669 86.6207 387.044 85.3864 387.259 84.0854C387.692 81.4704 387.553 78.1547 386.819 74.719C386.086 71.2833 384.859 68.1996 383.396 65.9893C382.669 64.8895 381.823 63.9156 380.867 63.2447C379.908 62.5716 378.665 62.0932 377.301 62.3843C375.937 62.6754 374.997 63.6198 374.397 64.6257C373.798 65.6285 373.424 66.8629 373.208 68.1639C372.775 70.7789 372.915 74.0946 373.648 77.5303Z" fill="#9871FF"/>
<path d="M373.648 77.5303C374.381 80.966 375.608 84.0496 377.071 86.26C377.799 87.3597 378.644 88.3336 379.6 89.0046C380.559 89.6777 381.803 90.1561 383.166 89.865C384.53 89.5739 385.47 88.6295 386.071 87.6236C386.669 86.6207 387.044 85.3864 387.259 84.0854C387.692 81.4704 387.553 78.1547 386.819 74.719C386.086 71.2833 384.859 68.1996 383.396 65.9893C382.669 64.8895 381.823 63.9156 380.867 63.2447C379.908 62.5716 378.665 62.0932 377.301 62.3843C375.937 62.6754 374.997 63.6198 374.397 64.6257C373.798 65.6285 373.424 66.8629 373.208 68.1639C372.775 70.7789 372.915 74.0946 373.648 77.5303Z" stroke="white" stroke-width="4"/>
<path d="M388.198 73.5444C388.978 77.1993 390.243 80.479 391.723 82.8309C392.459 83.9996 393.307 85.0348 394.261 85.754C395.208 86.469 396.479 87.0233 397.896 86.7209C399.313 86.4184 400.247 85.3934 400.82 84.3538C401.397 83.308 401.749 82.0166 401.943 80.6494C402.334 77.8981 402.149 74.388 401.369 70.7331C400.589 67.0782 399.325 63.7985 397.844 61.4466C397.109 60.2779 396.26 59.2427 395.307 58.5235C394.359 57.8085 393.088 57.2542 391.671 57.5566C390.254 57.8591 389.32 58.8841 388.747 59.9237C388.17 60.9695 387.819 62.2609 387.624 63.6281C387.233 66.3794 387.418 69.8895 388.198 73.5444Z" fill="#A574FF"/>
<path d="M388.198 73.5444C388.978 77.1993 390.243 80.479 391.723 82.8309C392.459 83.9996 393.307 85.0348 394.261 85.754C395.208 86.469 396.479 87.0233 397.896 86.7209C399.313 86.4184 400.247 85.3934 400.82 84.3538C401.397 83.308 401.749 82.0166 401.943 80.6494C402.334 77.8981 402.149 74.388 401.369 70.7331C400.589 67.0782 399.325 63.7985 397.844 61.4466C397.109 60.2779 396.26 59.2427 395.307 58.5235C394.359 57.8085 393.088 57.2542 391.671 57.5566C390.254 57.8591 389.32 58.8841 388.747 59.9237C388.17 60.9695 387.819 62.2609 387.624 63.6281C387.233 66.3794 387.418 69.8895 388.198 73.5444Z" fill="#9871FF"/>
<path d="M388.198 73.5444C388.978 77.1993 390.243 80.479 391.723 82.8309C392.459 83.9996 393.307 85.0348 394.261 85.754C395.208 86.469 396.479 87.0233 397.896 86.7209C399.313 86.4184 400.247 85.3934 400.82 84.3538C401.397 83.308 401.749 82.0166 401.943 80.6494C402.334 77.8981 402.149 74.388 401.369 70.7331C400.589 67.0782 399.325 63.7985 397.844 61.4466C397.109 60.2779 396.26 59.2427 395.307 58.5235C394.359 57.8085 393.088 57.2542 391.671 57.5566C390.254 57.8591 389.32 58.8841 388.747 59.9237C388.17 60.9695 387.819 62.2609 387.624 63.6281C387.233 66.3794 387.418 69.8895 388.198 73.5444Z" stroke="white" stroke-width="4"/>
</g>
<g filter="url(#filter7_dd_1661_2849)">
<path d="M169 115.383L178.586 117.394L184.619 88.6377L175.033 86.6265L169 115.383ZM227.251 100.084C227.806 97.4361 226.112 94.8414 223.464 94.2858L208.331 91.1107L212.917 80.6395C213.015 80.4099 213.104 80.1658 213.159 79.9022C213.368 78.9077 213.149 77.9236 212.638 77.1408L210.616 74.0772L191.525 86.5465C190.479 87.2402 189.688 88.3252 189.412 89.6432L184.384 113.607C183.828 116.255 185.523 118.85 188.171 119.405L209.738 123.93C211.727 124.348 213.683 123.494 214.761 121.932L225.531 106.553C225.862 106.047 226.117 105.488 226.245 104.877L227.208 100.288L227.189 100.259L227.251 100.084Z" fill="#A574FF"/>
<path d="M167.043 114.972L166.632 116.93L168.589 117.34L178.175 119.351L180.132 119.762L180.543 117.805L186.576 89.0483L186.987 87.091L185.03 86.6803L175.444 84.6691L173.487 84.2585L173.076 86.2159L167.043 114.972ZM229.312 99.8519C229.711 96.3544 227.389 93.0657 223.874 92.3284L211.15 89.6587L214.749 81.4419L214.752 81.434L214.756 81.4261C214.883 81.129 215.024 80.7521 215.116 80.3129C215.439 78.7734 215.099 77.2514 214.312 76.0471L214.307 76.0393L212.285 72.9756L211.189 71.3142L209.522 72.4027L190.431 84.872L190.431 84.872L190.42 84.8796C188.962 85.8461 187.845 87.3697 187.454 89.2325L182.426 113.196C181.644 116.925 184.031 120.58 187.76 121.363L209.328 125.888C212.127 126.475 214.88 125.275 216.403 123.074C216.404 123.072 216.406 123.07 216.407 123.068L227.169 107.701L227.187 107.675L227.204 107.649C227.647 106.972 228.015 106.183 228.203 105.288L229.165 100.698L229.181 100.625L229.208 100.495L229.336 99.8877L229.312 99.8519Z" stroke="white" stroke-width="4"/>
</g>
</g>
<defs>
<filter id="filter0_dd_1661_2849" x="45.2121" y="34.3315" width="91.9859" height="96.9048" filterUnits="userSpaceOnUse" color-interpolation-filters="sRGB">
<feFlood flood-opacity="0" result="BackgroundImageFix"/>
<feColorMatrix in="SourceAlpha" type="matrix" values="0 0 0 0 0 0 0 0 0 0 0 0 0 0 0 0 0 0 127 0" result="hardAlpha"/>
<feOffset dy="2"/>
<feGaussianBlur stdDeviation="1"/>
<feComposite in2="hardAlpha" operator="out"/>
<feColorMatrix type="matrix" values="0 0 0 0 0 0 0 0 0 0 0 0 0 0 0 0 0 0 0.03 0"/>
<feBlend mode="normal" in2="BackgroundImageFix" result="effect1_dropShadow_1661_2849"/>
<feColorMatrix in="SourceAlpha" type="matrix" values="0 0 0 0 0 0 0 0 0 0 0 0 0 0 0 0 0 0 127 0" result="hardAlpha"/>
<feOffset dy="4"/>
<feGaussianBlur stdDeviation="6"/>
<feComposite in2="hardAlpha" operator="out"/>
<feColorMatrix type="matrix" values="0 0 0 0 0 0 0 0 0 0 0 0 0 0 0 0 0 0 0.02 0"/>
<feBlend mode="normal" in2="effect1_dropShadow_1661_2849" result="effect2_dropShadow_1661_2849"/>
<feBlend mode="normal" in="SourceGraphic" in2="effect2_dropShadow_1661_2849" result="shape"/>
</filter>
<filter id="filter1_dd_1661_2849" x="148" y="15.4556" width="70.0803" height="70.0801" filterUnits="userSpaceOnUse" color-interpolation-filters="sRGB">
<feFlood flood-opacity="0" result="BackgroundImageFix"/>
<feColorMatrix in="SourceAlpha" type="matrix" values="0 0 0 0 0 0 0 0 0 0 0 0 0 0 0 0 0 0 127 0" result="hardAlpha"/>
<feOffset dy="2"/>
<feGaussianBlur stdDeviation="1"/>
<feComposite in2="hardAlpha" operator="out"/>
<feColorMatrix type="matrix" values="0 0 0 0 0 0 0 0 0 0 0 0 0 0 0 0 0 0 0.03 0"/>
<feBlend mode="normal" in2="BackgroundImageFix" result="effect1_dropShadow_1661_2849"/>
<feColorMatrix in="SourceAlpha" type="matrix" values="0 0 0 0 0 0 0 0 0 0 0 0 0 0 0 0 0 0 127 0" result="hardAlpha"/>
<feOffset dy="4"/>
<feGaussianBlur stdDeviation="6"/>
<feComposite in2="hardAlpha" operator="out"/>
<feColorMatrix type="matrix" values="0 0 0 0 0 0 0 0 0 0 0 0 0 0 0 0 0 0 0.02 0"/>
<feBlend mode="normal" in2="effect1_dropShadow_1661_2849" result="effect2_dropShadow_1661_2849"/>
<feBlend mode="normal" in="SourceGraphic" in2="effect2_dropShadow_1661_2849" result="shape"/>
</filter>
<filter id="filter2_dd_1661_2849" x="154.227" y="21.6821" width="57.6268" height="57.627" filterUnits="userSpaceOnUse" color-interpolation-filters="sRGB">
<feFlood flood-opacity="0" result="BackgroundImageFix"/>
<feColorMatrix in="SourceAlpha" type="matrix" values="0 0 0 0 0 0 0 0 0 0 0 0 0 0 0 0 0 0 127 0" result="hardAlpha"/>
<feOffset dy="2"/>
<feGaussianBlur stdDeviation="1"/>
<feComposite in2="hardAlpha" operator="out"/>
<feColorMatrix type="matrix" values="0 0 0 0 0 0 0 0 0 0 0 0 0 0 0 0 0 0 0.03 0"/>
<feBlend mode="normal" in2="BackgroundImageFix" result="effect1_dropShadow_1661_2849"/>
<feColorMatrix in="SourceAlpha" type="matrix" values="0 0 0 0 0 0 0 0 0 0 0 0 0 0 0 0 0 0 127 0" result="hardAlpha"/>
<feOffset dy="4"/>
<feGaussianBlur stdDeviation="6"/>
<feComposite in2="hardAlpha" operator="out"/>
<feColorMatrix type="matrix" values="0 0 0 0 0 0 0 0 0 0 0 0 0 0 0 0 0 0 0.02 0"/>
<feBlend mode="normal" in2="effect1_dropShadow_1661_2849" result="effect2_dropShadow_1661_2849"/>
<feBlend mode="normal" in="SourceGraphic" in2="effect2_dropShadow_1661_2849" result="shape"/>
</filter>
<filter id="filter3_dd_1661_2849" x="284" y="77.4546" width="74.4662" height="74.4663" filterUnits="userSpaceOnUse" color-interpolation-filters="sRGB">
<feFlood flood-opacity="0" result="BackgroundImageFix"/>
<feColorMatrix in="SourceAlpha" type="matrix" values="0 0 0 0 0 0 0 0 0 0 0 0 0 0 0 0 0 0 127 0" result="hardAlpha"/>
<feOffset dy="2"/>
<feGaussianBlur stdDeviation="1"/>
<feComposite in2="hardAlpha" operator="out"/>
<feColorMatrix type="matrix" values="0 0 0 0 0 0 0 0 0 0 0 0 0 0 0 0 0 0 0.03 0"/>
<feBlend mode="normal" in2="BackgroundImageFix" result="effect1_dropShadow_1661_2849"/>
<feColorMatrix in="SourceAlpha" type="matrix" values="0 0 0 0 0 0 0 0 0 0 0 0 0 0 0 0 0 0 127 0" result="hardAlpha"/>
<feOffset dy="4"/>
<feGaussianBlur stdDeviation="6"/>
<feComposite in2="hardAlpha" operator="out"/>
<feColorMatrix type="matrix" values="0 0 0 0 0 0 0 0 0 0 0 0 0 0 0 0 0 0 0.02 0"/>
<feBlend mode="normal" in2="effect1_dropShadow_1661_2849" result="effect2_dropShadow_1661_2849"/>
<feBlend mode="normal" in="SourceGraphic" in2="effect2_dropShadow_1661_2849" result="shape"/>
</filter>
<filter id="filter4_dd_1661_2849" x="293.753" y="87.208" width="54.9602" height="54.96" filterUnits="userSpaceOnUse" color-interpolation-filters="sRGB">
<feFlood flood-opacity="0" result="BackgroundImageFix"/>
<feColorMatrix in="SourceAlpha" type="matrix" values="0 0 0 0 0 0 0 0 0 0 0 0 0 0 0 0 0 0 127 0" result="hardAlpha"/>
<feOffset dy="2"/>
<feGaussianBlur stdDeviation="1"/>
<feComposite in2="hardAlpha" operator="out"/>
<feColorMatrix type="matrix" values="0 0 0 0 0 0 0 0 0 0 0 0 0 0 0 0 0 0 0.03 0"/>
<feBlend mode="normal" in2="BackgroundImageFix" result="effect1_dropShadow_1661_2849"/>
<feColorMatrix in="SourceAlpha" type="matrix" values="0 0 0 0 0 0 0 0 0 0 0 0 0 0 0 0 0 0 127 0" result="hardAlpha"/>
<feOffset dy="4"/>
<feGaussianBlur stdDeviation="6"/>
<feComposite in2="hardAlpha" operator="out"/>
<feColorMatrix type="matrix" values="0 0 0 0 0 0 0 0 0 0 0 0 0 0 0 0 0 0 0.02 0"/>
<feBlend mode="normal" in2="effect1_dropShadow_1661_2849" result="effect2_dropShadow_1661_2849"/>
<feBlend mode="normal" in="SourceGraphic" in2="effect2_dropShadow_1661_2849" result="shape"/>
</filter>
<filter id="filter5_dd_1661_2849" x="244" y="9.45557" width="84.9914" height="84.9917" filterUnits="userSpaceOnUse" color-interpolation-filters="sRGB">
<feFlood flood-opacity="0" result="BackgroundImageFix"/>
<feColorMatrix in="SourceAlpha" type="matrix" values="0 0 0 0 0 0 0 0 0 0 0 0 0 0 0 0 0 0 127 0" result="hardAlpha"/>
<feOffset dy="2"/>
<feGaussianBlur stdDeviation="1"/>
<feComposite in2="hardAlpha" operator="out"/>
<feColorMatrix type="matrix" values="0 0 0 0 0 0 0 0 0 0 0 0 0 0 0 0 0 0 0.03 0"/>
<feBlend mode="normal" in2="BackgroundImageFix" result="effect1_dropShadow_1661_2849"/>
<feColorMatrix in="SourceAlpha" type="matrix" values="0 0 0 0 0 0 0 0 0 0 0 0 0 0 0 0 0 0 127 0" result="hardAlpha"/>
<feOffset dy="4"/>
<feGaussianBlur stdDeviation="6"/>
<feComposite in2="hardAlpha" operator="out"/>
<feColorMatrix type="matrix" values="0 0 0 0 0 0 0 0 0 0 0 0 0 0 0 0 0 0 0.02 0"/>
<feBlend mode="normal" in2="effect1_dropShadow_1661_2849" result="effect2_dropShadow_1661_2849"/>
<feBlend mode="normal" in="SourceGraphic" in2="effect2_dropShadow_1661_2849" result="shape"/>
</filter>
<filter id="filter6_dd_1661_2849" x="340.44" y="37.2959" width="75.7013" height="73.7979" filterUnits="userSpaceOnUse" color-interpolation-filters="sRGB">
<feFlood flood-opacity="0" result="BackgroundImageFix"/>
<feColorMatrix in="SourceAlpha" type="matrix" values="0 0 0 0 0 0 0 0 0 0 0 0 0 0 0 0 0 0 127 0" result="hardAlpha"/>
<feOffset dy="2"/>
<feGaussianBlur stdDeviation="1"/>
<feComposite in2="hardAlpha" operator="out"/>
<feColorMatrix type="matrix" values="0 0 0 0 0 0 0 0 0 0 0 0 0 0 0 0 0 0 0.03 0"/>
<feBlend mode="normal" in2="BackgroundImageFix" result="effect1_dropShadow_1661_2849"/>
<feColorMatrix in="SourceAlpha" type="matrix" values="0 0 0 0 0 0 0 0 0 0 0 0 0 0 0 0 0 0 127 0" result="hardAlpha"/>
<feOffset dy="4"/>
<feGaussianBlur stdDeviation="6"/>
<feComposite in2="hardAlpha" operator="out"/>
<feColorMatrix type="matrix" values="0 0 0 0 0 0 0 0 0 0 0 0 0 0 0 0 0 0 0.02 0"/>
<feBlend mode="normal" in2="effect1_dropShadow_1661_2849" result="effect2_dropShadow_1661_2849"/>
<feBlend mode="normal" in="SourceGraphic" in2="effect2_dropShadow_1661_2849" result="shape"/>
</filter>
<filter id="filter7_dd_1661_2849" x="152.264" y="60.5513" width="91.1991" height="83.4854" filterUnits="userSpaceOnUse" color-interpolation-filters="sRGB">
<feFlood flood-opacity="0" result="BackgroundImageFix"/>
<feColorMatrix in="SourceAlpha" type="matrix" values="0 0 0 0 0 0 0 0 0 0 0 0 0 0 0 0 0 0 127 0" result="hardAlpha"/>
<feOffset dy="2"/>
<feGaussianBlur stdDeviation="1"/>
<feComposite in2="hardAlpha" operator="out"/>
<feColorMatrix type="matrix" values="0 0 0 0 0 0 0 0 0 0 0 0 0 0 0 0 0 0 0.03 0"/>
<feBlend mode="normal" in2="BackgroundImageFix" result="effect1_dropShadow_1661_2849"/>
<feColorMatrix in="SourceAlpha" type="matrix" values="0 0 0 0 0 0 0 0 0 0 0 0 0 0 0 0 0 0 127 0" result="hardAlpha"/>
<feOffset dy="4"/>
<feGaussianBlur stdDeviation="6"/>
<feComposite in2="hardAlpha" operator="out"/>
<feColorMatrix type="matrix" values="0 0 0 0 0 0 0 0 0 0 0 0 0 0 0 0 0 0 0.02 0"/>
<feBlend mode="normal" in2="effect1_dropShadow_1661_2849" result="effect2_dropShadow_1661_2849"/>
<feBlend mode="normal" in="SourceGraphic" in2="effect2_dropShadow_1661_2849" result="shape"/>
</filter>
<linearGradient id="paint0_linear_1661_2849" x1="127.646" y1="127.214" x2="40.7251" y2="58.3594" gradientUnits="userSpaceOnUse">
<stop stop-color="#DE82FF"/>
<stop offset="1" stop-color="#7F6AFF"/>
</linearGradient>
<linearGradient id="paint1_linear_1661_2849" x1="318.762" y1="78.789" x2="250" y2="31.8009" gradientUnits="userSpaceOnUse">
<stop stop-color="#DE82FF"/>
<stop offset="1" stop-color="#7F6AFF"/>
</linearGradient>
<clipPath id="clip0_1661_2849">
<rect width="457" height="155" fill="white" transform="translate(0 0.455566)"/>
</clipPath>
<clipPath id="clip1_1661_2849">
<rect width="37.0781" height="37.0781" fill="white" transform="translate(170.528 23.4556) rotate(16.4962)"/>
</clipPath>
<clipPath id="clip2_1661_2849">
<rect width="37.0781" height="37.0781" fill="white" transform="translate(296 103.569) rotate(-29.2445)"/>
</clipPath>
</defs>
</svg>
