<svg width="36" height="36" viewBox="0 0 36 36" fill="none" xmlns="http://www.w3.org/2000/svg">

    <path
            d="M18 36C27.9411 36 36 27.9411 36 18C36 8.05887 27.9411 0 18 0C8.05887 0 0 8.05887 0 18C0 27.9411 8.05887 36 18 36Z"
            fill="#23144F" />
    <path
            d="M31.0401 23.3026L31.0842 19.0936C31.0863 18.9701 31.017 18.855 30.9088 18.7949L27.2602 16.7862C27.2329 16.772 27.2016 16.7602 27.1726 16.7524C27.0818 16.7178 26.9774 16.7208 26.8876 16.7726L18.5307 21.5921L18.5701 17.9544C18.5721 17.8307 18.5028 17.7156 18.3947 17.6556L15.2605 15.9296L23.6134 11.1125C23.6624 11.0842 23.6979 11.042 23.7269 10.998C23.7731 10.9414 23.8026 10.87 23.8022 10.7941L23.8462 6.5851C23.8482 6.46153 23.779 6.3464 23.6709 6.28641L20.0222 4.27769C19.9501 4.23767 19.8693 4.22983 19.7931 4.24389L19.7899 4.24302C19.7679 4.24749 19.7484 4.25605 19.7256 4.26375C19.7061 4.27231 19.6818 4.27269 19.6646 4.28535L5.41022 12.5005C5.41022 12.5005 5.38229 12.5275 5.36509 12.5401C5.27183 12.6049 5.21677 12.7073 5.22052 12.8221L5.2924 16.9208C5.29528 17.0388 5.3566 17.1448 5.45512 17.2023L8.83249 19.2314L8.90389 23.1644C8.9068 23.2824 8.96808 23.3885 9.06657 23.4459L12.456 25.4817L12.5263 29.4316C12.5292 29.5497 12.5905 29.6557 12.689 29.7132L16.2209 31.8354C16.2474 31.8528 16.2787 31.8648 16.3076 31.8726C16.3141 31.8743 16.3214 31.8726 16.3311 31.8752C16.3311 31.8752 16.3343 31.8761 16.3375 31.877C16.4212 31.8994 16.5136 31.8898 16.5952 31.8426L30.8554 23.6186C30.9043 23.5903 30.9399 23.5482 30.969 23.5043C31.0153 23.4477 31.0448 23.3762 31.0444 23.3003L31.0401 23.3026ZM24.8272 26.3172L24.8637 22.8959L27.1695 21.5689L30.056 23.3044L24.8295 26.3213L24.8272 26.3172ZM16.7398 30.9813L16.7763 27.5601L20.9486 25.1538L23.8351 26.8894L16.7398 30.9813ZM21.2809 24.1842L21.2279 21.2389L23.866 22.6906L21.2817 24.181L21.2809 24.1842ZM24.186 23.2868L24.1548 26.2888L21.619 24.7644L24.1869 23.2836L24.186 23.2868ZM24.551 22.2983L21.5611 20.6524L26.7745 17.6457L26.8331 20.9822L24.551 22.2983ZM20.5536 21.2306L20.6122 24.5671L16.4603 26.9616L13.4704 25.3156L20.5536 21.2306ZM30.409 19.2817L30.3725 22.703L27.5068 20.9799L27.4464 17.6499L30.409 19.2817ZM13.115 24.71L13.1515 21.2887L14.6539 20.4222L17.5404 22.1578L13.115 24.71ZM14.9861 19.4527L14.9332 16.5074L17.5712 17.9591L14.987 19.4494L14.9861 19.4527ZM17.8592 21.5605L15.3234 20.0361L17.8913 18.5552L17.8601 21.5572L17.8592 21.5605ZM14.3199 19.8397L12.8379 20.6943L9.84799 19.0484L14.2612 16.5032L14.3199 19.8397ZM13.3573 8.69538L13.4159 12.0319L9.22728 14.4475L6.23738 12.8015L13.3573 8.69538ZM19.5423 5.12843L19.601 8.46491L17.3555 9.75981L14.3657 8.11385L19.5423 5.12843ZM17.6317 13.7787L17.6675 10.3606L19.9373 9.05156L22.8247 10.7839L17.6317 13.7787ZM14.0846 11.6489L14.0316 8.70364L16.6697 10.1553L14.0855 11.6457L14.0846 11.6489ZM16.9898 10.7514L16.9585 13.7535L14.4259 12.2301L16.9938 10.7491L16.9898 10.7514ZM13.7564 12.6162L16.6438 14.3485L9.51164 18.4617L9.5473 15.0436L13.7564 12.6162ZM23.1752 6.77082L23.1386 10.1921L20.2728 8.46908L20.2125 5.13904L23.1752 6.77082ZM5.90653 13.3921L8.54464 14.8438L5.96037 16.3342L5.9074 13.3889L5.90653 13.3921ZM6.2968 16.9209L8.8647 15.44L8.83344 18.442L6.30086 16.9186L6.2968 16.9209ZM9.57432 22.9682L9.51395 19.6381L12.4766 21.27L12.44 24.6912L9.57432 22.9682ZM13.1396 25.9063L15.7777 27.358L13.1935 28.8483L13.1404 25.903L13.1396 25.9063ZM13.5298 29.435L16.0977 27.9541L16.0665 30.9561L13.5307 29.4318L13.5298 29.435Z"
            fill="white" />
</svg>