<svg width="95" height="95" viewBox="0 0 95 95" fill="none" xmlns="http://www.w3.org/2000/svg">
<circle cx="47.5" cy="47.5" r="47.5" fill="#23144F"/>
<path d="M81.9114 61.4928L82.0277 50.3858C82.0331 50.0598 81.8503 49.7561 81.5649 49.5976L71.9366 44.2968C71.8646 44.2594 71.7819 44.2282 71.7054 44.2076C71.4659 44.1162 71.1904 44.1242 70.9534 44.2609L48.9004 56.9791L49.0043 47.3794C49.0097 47.0531 48.8269 46.7494 48.5415 46.5911L40.2708 42.0363L62.313 29.3244C62.4423 29.2498 62.536 29.1384 62.6126 29.0224C62.7345 28.8731 62.8124 28.6847 62.8114 28.4843L62.9275 17.3772C62.9328 17.0511 62.75 16.7473 62.4647 16.589L52.8363 11.2882C52.646 11.1826 52.4328 11.1619 52.2317 11.199L52.2232 11.1967C52.1653 11.2085 52.1138 11.2311 52.0537 11.2514C52.0021 11.274 51.9381 11.275 51.8927 11.3084L14.2769 32.9874C14.2769 32.9874 14.2032 33.0586 14.1578 33.0919C13.9117 33.2627 13.7664 33.5331 13.7763 33.836L13.966 44.6519C13.9736 44.9633 14.1354 45.2432 14.3954 45.3948L23.3079 50.7494L23.4963 61.1282C23.504 61.4396 23.6657 61.7195 23.9256 61.8711L32.87 67.2433L33.0554 77.6667C33.0632 77.9782 33.2249 78.258 33.4849 78.4097L42.8052 84.0099C42.8749 84.0559 42.9575 84.0876 43.0339 84.108C43.0509 84.1126 43.0704 84.1082 43.0958 84.115C43.0958 84.115 43.1044 84.1173 43.1128 84.1196C43.3337 84.1788 43.5775 84.1534 43.7929 84.029L81.4238 62.3267C81.553 62.2521 81.647 62.1409 81.7238 62.025C81.8458 61.8756 81.9236 61.6871 81.9227 61.4867L81.9114 61.4928ZM65.5161 69.448L65.6126 60.4197L71.6972 56.9177L79.3144 61.4976L65.5223 69.4588L65.5161 69.448ZM44.1743 81.7561L44.2707 72.7278L55.281 66.378L62.8982 70.9579L44.1743 81.7561ZM56.1579 63.8192L56.018 56.047L62.9797 59.8779L56.1601 63.8109L56.1579 63.8192ZM63.8242 61.451L63.7418 69.3731L57.0501 65.3504L63.8265 61.4426L63.8242 61.451ZM64.7872 58.8427L56.8973 54.4992L70.6548 46.565L70.8095 55.3696L64.7872 58.8427ZM54.2386 56.0251L54.3933 64.8298L43.4369 71.1485L35.5469 66.805L54.2386 56.0251ZM80.246 50.8822L80.1496 59.9105L72.5873 55.3636L72.428 46.5761L80.246 50.8822ZM34.6089 65.2067L34.7052 56.1784L38.6699 53.8919L46.2871 58.4718L34.6089 65.2067ZM39.5467 51.3333L39.4069 43.561L46.3685 47.3919L39.549 51.3247L39.5467 51.3333ZM47.1285 56.8955L40.4367 52.873L47.2131 48.965L47.1308 56.887L47.1285 56.8955ZM37.7885 52.3545L33.8777 54.6099L25.9877 50.2664L37.6336 43.55L37.7885 52.3545ZM35.2483 22.946L35.4031 31.7506L24.3497 38.1251L16.4597 33.7816L35.2483 22.946ZM51.5698 13.5332L51.7247 22.3378L45.7993 25.7549L37.9093 21.4114L51.5698 13.5332ZM46.5281 36.3603L46.6224 27.3404L52.6123 23.8859L60.2317 28.4573L46.5281 36.3603ZM37.1676 30.7401L37.0277 22.9678L43.9893 26.7986L37.1699 30.7315L37.1676 30.7401ZM44.834 28.3717L44.7516 36.2938L38.0684 32.2736L44.8448 28.3655L44.834 28.3717ZM36.3016 33.2925L43.9211 37.8639L25.1001 48.7181L25.1942 39.6982L36.3016 33.2925ZM61.1566 17.8673L61.06 26.8957L53.4977 22.3488L53.3385 13.5612L61.1566 17.8673ZM15.5866 35.3402L22.5483 39.1711L15.7287 43.1041L15.5889 35.3317L15.5866 35.3402ZM16.6165 44.6522L23.3929 40.7442L23.3104 48.6663L16.6272 44.6461L16.6165 44.6522ZM25.2655 60.6103L25.1062 51.8227L32.9242 56.1289L32.8277 65.1572L25.2655 60.6103ZM34.6738 68.3636L41.6355 72.1945L34.8161 76.1273L34.6761 68.355L34.6738 68.3636ZM35.7036 77.6756L42.48 73.7676L42.3977 81.6895L35.7059 77.667L35.7036 77.6756Z" fill="white"/>
</svg>
