
<svg width="320" height="100" viewBox="0 0 320 100" fill="none" xmlns="http://www.w3.org/2000/svg">
    <g clip-path="url(#clip0_1405_1713)">
        <g opacity="0.2" filter="url(#filter0_f_1405_1713)">
            <ellipse cx="156" cy="50" rx="123" ry="18" transform="rotate(-180 156 50)" fill="#1F007F"/>
        </g>
        <rect x="156.698" y="13.0793" width="14" height="43" transform="rotate(60 156.698 13.0793)" fill="white"/>
        <rect x="141.083" y="44.0337" width="14" height="19" transform="rotate(60 141.083 44.0337)" fill="white"/>
        <rect x="175.698" y="45.9883" width="14" height="43" transform="rotate(60 175.698 45.9883)" fill="white"/>
        <mask id="mask0_1405_1713" style="mask-type:luminance" maskUnits="userSpaceOnUse" x="100" y="-1" width="99" height="99">
            <path d="M196.199 22.7037L196.588 21.2548L195.139 20.8666L123.66 1.71395L122.211 1.32572L121.823 2.77461L102.689 74.1843L102.301 75.6332L103.75 76.0214L175.228 95.1741L176.677 95.5623L177.065 94.1134L196.199 22.7037Z" fill="white" stroke="white" stroke-width="3"/>
        </mask>
        <g mask="url(#mask0_1405_1713)">
            <mask id="path-6-outside-1_1405_1713" maskUnits="userSpaceOnUse" x="99.4792" y="-1.73614" width="99.2043" height="99.2043" fill="black">
                <rect fill="white" x="99.4792" y="-1.73614" width="99.2043" height="99.2043"/>
                <path d="M183.183 61.6556L183.3 50.5486C183.305 50.2226 183.122 49.9189 182.837 49.7604L173.209 44.4596C173.137 44.4222 173.054 44.391 172.977 44.3705C172.738 44.279 172.462 44.2871 172.225 44.4237L150.172 57.1419L150.276 47.5422C150.282 47.216 150.099 46.9122 149.813 46.7539L141.543 42.1991L163.585 29.4872C163.714 29.4127 163.808 29.3013 163.885 29.1853C164.006 29.036 164.084 28.8476 164.083 28.6471L164.199 17.5401C164.205 17.2139 164.022 16.9102 163.737 16.7518L154.108 11.4511C153.918 11.3455 153.705 11.3248 153.504 11.3618L153.495 11.3596C153.437 11.3714 153.386 11.394 153.326 11.4143C153.274 11.4368 153.21 11.4379 153.165 11.4712L115.549 33.1503C115.549 33.1503 115.475 33.2214 115.43 33.2548C115.184 33.4255 115.038 33.696 115.048 33.9989L115.238 44.8148C115.246 45.1262 115.407 45.406 115.667 45.5577L124.58 50.9122L124.768 61.291C124.776 61.6024 124.938 61.8823 125.198 62.034L134.142 67.4061L134.327 77.8296C134.335 78.1411 134.497 78.4209 134.757 78.5725L144.077 84.1727C144.147 84.2187 144.229 84.2504 144.306 84.2709C144.323 84.2755 144.342 84.2711 144.368 84.2779C144.368 84.2779 144.376 84.2802 144.385 84.2824C144.606 84.3416 144.849 84.3163 145.065 84.1918L182.696 62.4895C182.825 62.4149 182.919 62.3037 182.996 62.1878C183.118 62.0384 183.196 61.8499 183.195 61.6496L183.183 61.6556ZM166.788 69.6109L166.885 60.5826L172.969 57.0805L180.586 61.6604L166.794 69.6216L166.788 69.6109ZM145.446 81.919L145.543 72.8906L156.553 66.5409L164.17 71.1207L145.446 81.919ZM157.43 63.9821L157.29 56.2098L164.252 60.0408L157.432 63.9738L157.43 63.9821ZM165.096 61.6138L165.014 69.5359L158.322 65.5133L165.098 61.6054L165.096 61.6138ZM166.059 59.0056L158.169 54.662L171.927 46.7279L172.081 55.5325L166.059 59.0056ZM155.511 56.188L155.665 64.9927L144.709 71.3114L136.819 66.9678L155.511 56.188ZM181.518 51.0451L181.422 60.0733L173.859 55.5265L173.7 46.7389L181.518 51.0451ZM135.881 65.3695L135.977 56.3412L139.942 54.0548L147.559 58.6346L135.881 65.3695ZM140.819 51.4961L140.679 43.7239L147.64 47.5548L140.821 51.4876L140.819 51.4961ZM148.4 57.0584L141.709 53.0359L148.485 49.1279L148.403 57.0498L148.4 57.0584ZM139.06 52.5173L135.15 54.7727L127.26 50.4292L138.906 43.7128L139.06 52.5173ZM136.52 23.1088L136.675 31.9134L125.622 38.288L117.732 33.9444L136.52 23.1088ZM152.842 13.696L152.997 22.5006L147.071 25.9178L139.181 21.5742L152.842 13.696ZM147.8 36.5231L147.894 27.5032L153.884 24.0488L161.504 28.6202L147.8 36.5231ZM138.44 30.9029L138.3 23.1306L145.261 26.9615L138.442 30.8944L138.44 30.9029ZM146.106 28.5346L146.024 36.4566L139.34 32.4364L146.117 28.5283L146.106 28.5346ZM137.574 33.4553L145.193 38.0268L126.372 48.8809L126.466 39.861L137.574 33.4553ZM162.429 18.0301L162.332 27.0585L154.77 22.5116L154.611 13.7241L162.429 18.0301ZM116.859 35.503L123.82 39.334L117.001 43.267L116.861 35.4946L116.859 35.503ZM117.888 44.815L124.665 40.907L124.582 48.8291L117.899 44.809L117.888 44.815ZM126.537 60.7732L126.378 51.9855L134.196 56.2918L134.1 65.32L126.537 60.7732ZM135.946 68.5264L142.907 72.3574L136.088 76.2902L135.948 68.5179L135.946 68.5264ZM136.976 77.8384L143.752 73.9304L143.67 81.8524L136.978 77.8299L136.976 77.8384Z"/>
            </mask>
            <path d="M183.183 61.6556L183.3 50.5486C183.305 50.2226 183.122 49.9189 182.837 49.7604L173.209 44.4596C173.137 44.4222 173.054 44.391 172.977 44.3705C172.738 44.279 172.462 44.2871 172.225 44.4237L150.172 57.1419L150.276 47.5422C150.282 47.216 150.099 46.9122 149.813 46.7539L141.543 42.1991L163.585 29.4872C163.714 29.4127 163.808 29.3013 163.885 29.1853C164.006 29.036 164.084 28.8476 164.083 28.6471L164.199 17.5401C164.205 17.2139 164.022 16.9102 163.737 16.7518L154.108 11.4511C153.918 11.3455 153.705 11.3248 153.504 11.3618L153.495 11.3596C153.437 11.3714 153.386 11.394 153.326 11.4143C153.274 11.4368 153.21 11.4379 153.165 11.4712L115.549 33.1503C115.549 33.1503 115.475 33.2214 115.43 33.2548C115.184 33.4255 115.038 33.696 115.048 33.9989L115.238 44.8148C115.246 45.1262 115.407 45.406 115.667 45.5577L124.58 50.9122L124.768 61.291C124.776 61.6024 124.938 61.8823 125.198 62.034L134.142 67.4061L134.327 77.8296C134.335 78.1411 134.497 78.4209 134.757 78.5725L144.077 84.1727C144.147 84.2187 144.229 84.2504 144.306 84.2709C144.323 84.2755 144.342 84.2711 144.368 84.2779C144.368 84.2779 144.376 84.2802 144.385 84.2824C144.606 84.3416 144.849 84.3163 145.065 84.1918L182.696 62.4895C182.825 62.4149 182.919 62.3037 182.996 62.1878C183.118 62.0384 183.196 61.8499 183.195 61.6496L183.183 61.6556ZM166.788 69.6109L166.885 60.5826L172.969 57.0805L180.586 61.6604L166.794 69.6216L166.788 69.6109ZM145.446 81.919L145.543 72.8906L156.553 66.5409L164.17 71.1207L145.446 81.919ZM157.43 63.9821L157.29 56.2098L164.252 60.0408L157.432 63.9738L157.43 63.9821ZM165.096 61.6138L165.014 69.5359L158.322 65.5133L165.098 61.6054L165.096 61.6138ZM166.059 59.0056L158.169 54.662L171.927 46.7279L172.081 55.5325L166.059 59.0056ZM155.511 56.188L155.665 64.9927L144.709 71.3114L136.819 66.9678L155.511 56.188ZM181.518 51.0451L181.422 60.0733L173.859 55.5265L173.7 46.7389L181.518 51.0451ZM135.881 65.3695L135.977 56.3412L139.942 54.0548L147.559 58.6346L135.881 65.3695ZM140.819 51.4961L140.679 43.7239L147.64 47.5548L140.821 51.4876L140.819 51.4961ZM148.4 57.0584L141.709 53.0359L148.485 49.1279L148.403 57.0498L148.4 57.0584ZM139.06 52.5173L135.15 54.7727L127.26 50.4292L138.906 43.7128L139.06 52.5173ZM136.52 23.1088L136.675 31.9134L125.622 38.288L117.732 33.9444L136.52 23.1088ZM152.842 13.696L152.997 22.5006L147.071 25.9178L139.181 21.5742L152.842 13.696ZM147.8 36.5231L147.894 27.5032L153.884 24.0488L161.504 28.6202L147.8 36.5231ZM138.44 30.9029L138.3 23.1306L145.261 26.9615L138.442 30.8944L138.44 30.9029ZM146.106 28.5346L146.024 36.4566L139.34 32.4364L146.117 28.5283L146.106 28.5346ZM137.574 33.4553L145.193 38.0268L126.372 48.8809L126.466 39.861L137.574 33.4553ZM162.429 18.0301L162.332 27.0585L154.77 22.5116L154.611 13.7241L162.429 18.0301ZM116.859 35.503L123.82 39.334L117.001 43.267L116.861 35.4946L116.859 35.503ZM117.888 44.815L124.665 40.907L124.582 48.8291L117.899 44.809L117.888 44.815ZM126.537 60.7732L126.378 51.9855L134.196 56.2918L134.1 65.32L126.537 60.7732ZM135.946 68.5264L142.907 72.3574L136.088 76.2902L135.948 68.5179L135.946 68.5264ZM136.976 77.8384L143.752 73.9304L143.67 81.8524L136.978 77.8299L136.976 77.8384Z" fill="#37149F"/>
            <path d="M183.183 61.6556L183.3 50.5486C183.305 50.2226 183.122 49.9189 182.837 49.7604L173.209 44.4596C173.137 44.4222 173.054 44.391 172.977 44.3705C172.738 44.279 172.462 44.2871 172.225 44.4237L150.172 57.1419L150.276 47.5422C150.282 47.216 150.099 46.9122 149.813 46.7539L141.543 42.1991L163.585 29.4872C163.714 29.4127 163.808 29.3013 163.885 29.1853C164.006 29.036 164.084 28.8476 164.083 28.6471L164.199 17.5401C164.205 17.2139 164.022 16.9102 163.737 16.7518L154.108 11.4511C153.918 11.3455 153.705 11.3248 153.504 11.3618L153.495 11.3596C153.437 11.3714 153.386 11.394 153.326 11.4143C153.274 11.4368 153.21 11.4379 153.165 11.4712L115.549 33.1503C115.549 33.1503 115.475 33.2214 115.43 33.2548C115.184 33.4255 115.038 33.696 115.048 33.9989L115.238 44.8148C115.246 45.1262 115.407 45.406 115.667 45.5577L124.58 50.9122L124.768 61.291C124.776 61.6024 124.938 61.8823 125.198 62.034L134.142 67.4061L134.327 77.8296C134.335 78.1411 134.497 78.4209 134.757 78.5725L144.077 84.1727C144.147 84.2187 144.229 84.2504 144.306 84.2709C144.323 84.2755 144.342 84.2711 144.368 84.2779C144.368 84.2779 144.376 84.2802 144.385 84.2824C144.606 84.3416 144.849 84.3163 145.065 84.1918L182.696 62.4895C182.825 62.4149 182.919 62.3037 182.996 62.1878C183.118 62.0384 183.196 61.8499 183.195 61.6496L183.183 61.6556ZM166.788 69.6109L166.885 60.5826L172.969 57.0805L180.586 61.6604L166.794 69.6216L166.788 69.6109ZM145.446 81.919L145.543 72.8906L156.553 66.5409L164.17 71.1207L145.446 81.919ZM157.43 63.9821L157.29 56.2098L164.252 60.0408L157.432 63.9738L157.43 63.9821ZM165.096 61.6138L165.014 69.5359L158.322 65.5133L165.098 61.6054L165.096 61.6138ZM166.059 59.0056L158.169 54.662L171.927 46.7279L172.081 55.5325L166.059 59.0056ZM155.511 56.188L155.665 64.9927L144.709 71.3114L136.819 66.9678L155.511 56.188ZM181.518 51.0451L181.422 60.0733L173.859 55.5265L173.7 46.7389L181.518 51.0451ZM135.881 65.3695L135.977 56.3412L139.942 54.0548L147.559 58.6346L135.881 65.3695ZM140.819 51.4961L140.679 43.7239L147.64 47.5548L140.821 51.4876L140.819 51.4961ZM148.4 57.0584L141.709 53.0359L148.485 49.1279L148.403 57.0498L148.4 57.0584ZM139.06 52.5173L135.15 54.7727L127.26 50.4292L138.906 43.7128L139.06 52.5173ZM136.52 23.1088L136.675 31.9134L125.622 38.288L117.732 33.9444L136.52 23.1088ZM152.842 13.696L152.997 22.5006L147.071 25.9178L139.181 21.5742L152.842 13.696ZM147.8 36.5231L147.894 27.5032L153.884 24.0488L161.504 28.6202L147.8 36.5231ZM138.44 30.9029L138.3 23.1306L145.261 26.9615L138.442 30.8944L138.44 30.9029ZM146.106 28.5346L146.024 36.4566L139.34 32.4364L146.117 28.5283L146.106 28.5346ZM137.574 33.4553L145.193 38.0268L126.372 48.8809L126.466 39.861L137.574 33.4553ZM162.429 18.0301L162.332 27.0585L154.77 22.5116L154.611 13.7241L162.429 18.0301ZM116.859 35.503L123.82 39.334L117.001 43.267L116.861 35.4946L116.859 35.503ZM117.888 44.815L124.665 40.907L124.582 48.8291L117.899 44.809L117.888 44.815ZM126.537 60.7732L126.378 51.9855L134.196 56.2918L134.1 65.32L126.537 60.7732ZM135.946 68.5264L142.907 72.3574L136.088 76.2902L135.948 68.5179L135.946 68.5264ZM136.976 77.8384L143.752 73.9304L143.67 81.8524L136.978 77.8299L136.976 77.8384Z" stroke="white" stroke-width="6" mask="url(#path-6-outside-1_1405_1713)"/>
        </g>
        <g clip-path="url(#clip1_1405_1713)" filter="url(#filter1_dd_1405_1713)">
            <g filter="url(#filter2_dd_1405_1713)">
                <path d="M40.1663 14.2489L40.7704 21.8542C40.8551 22.9203 40.8974 23.4533 41.0644 23.9406C41.2124 24.3724 41.4318 24.7764 41.7134 25.1357C42.0312 25.5411 42.4552 25.8668 43.3032 26.5183L49.3532 31.1664L41.7478 31.7704C40.6818 31.8551 40.1488 31.8974 39.6615 32.0644C39.2297 32.2124 38.8257 32.4318 38.4664 32.7134C38.061 33.0312 37.7352 33.4552 37.0837 34.3032L32.4357 40.3532L31.8316 32.7478C31.747 31.6818 31.7046 31.1488 31.5376 30.6615C31.3896 30.2297 31.1702 29.8257 30.8886 29.4664C30.5709 29.061 30.1469 28.7353 29.2989 28.0838L23.2488 23.4357L30.8542 22.8317C31.9203 22.747 32.4533 22.7047 32.9405 22.5377C33.3724 22.3896 33.7764 22.1703 34.1357 21.8887C34.5411 21.5709 34.8668 21.1469 35.5183 20.2989L40.1663 14.2489Z" fill="#3A22CA"/>
                <path d="M40.1663 14.2489L40.7704 21.8542C40.8551 22.9203 40.8974 23.4533 41.0644 23.9406C41.2124 24.3724 41.4318 24.7764 41.7134 25.1357C42.0312 25.5411 42.4552 25.8668 43.3032 26.5183L49.3532 31.1664L41.7478 31.7704C40.6818 31.8551 40.1488 31.8974 39.6615 32.0644C39.2297 32.2124 38.8257 32.4318 38.4664 32.7134C38.061 33.0312 37.7352 33.4552 37.0837 34.3032L32.4357 40.3532L31.8316 32.7478C31.747 31.6818 31.7046 31.1488 31.5376 30.6615C31.3896 30.2297 31.1702 29.8257 30.8886 29.4664C30.5709 29.061 30.1469 28.7353 29.2989 28.0838L23.2488 23.4357L30.8542 22.8317C31.9203 22.747 32.4533 22.7047 32.9405 22.5377C33.3724 22.3896 33.7764 22.1703 34.1357 21.8887C34.5411 21.5709 34.8668 21.1469 35.5183 20.2989L40.1663 14.2489Z" stroke="white" stroke-width="3.52446" stroke-linecap="round" stroke-linejoin="round"/>
            </g>
        </g>
        <g clip-path="url(#clip2_1405_1713)" filter="url(#filter3_dd_1405_1713)">
            <g filter="url(#filter4_dd_1405_1713)">
                <path d="M205.583 10.3556L211.452 15.2309C212.274 15.9142 212.685 16.2559 213.151 16.4763C213.564 16.6717 214.006 16.7965 214.46 16.8456C214.972 16.901 215.501 16.8246 216.56 16.672L224.111 15.5829L219.236 21.4514C218.552 22.274 218.211 22.6852 217.99 23.1508C217.795 23.5634 217.67 24.0058 217.621 24.4596C217.565 24.9717 217.642 25.501 217.794 26.5594L218.884 34.1106L213.015 29.2354C212.192 28.552 211.781 28.2104 211.316 27.9899C210.903 27.7945 210.461 27.6697 210.007 27.6206C209.495 27.5653 208.965 27.6416 207.907 27.7943L200.356 28.8834L205.231 23.0149C205.914 22.1923 206.256 21.781 206.476 21.3155C206.672 20.9029 206.797 20.4605 206.846 20.0066C206.901 19.4945 206.825 18.9653 206.672 17.9068L205.583 10.3556Z" fill="#330E9B"/>
                <path d="M205.583 10.3556L211.452 15.2309C212.274 15.9142 212.685 16.2559 213.151 16.4763C213.564 16.6717 214.006 16.7965 214.46 16.8456C214.972 16.901 215.501 16.8246 216.56 16.672L224.111 15.5829L219.236 21.4514C218.552 22.274 218.211 22.6852 217.99 23.1508C217.795 23.5634 217.67 24.0058 217.621 24.4596C217.565 24.9717 217.642 25.501 217.794 26.5594L218.884 34.1106L213.015 29.2354C212.192 28.552 211.781 28.2104 211.316 27.9899C210.903 27.7945 210.461 27.6697 210.007 27.6206C209.495 27.5653 208.965 27.6416 207.907 27.7943L200.356 28.8834L205.231 23.0149C205.914 22.1923 206.256 21.781 206.476 21.3155C206.672 20.9029 206.797 20.4605 206.846 20.0066C206.901 19.4945 206.825 18.9653 206.672 17.9068L205.583 10.3556Z" stroke="white" stroke-width="3.52446" stroke-linecap="round" stroke-linejoin="round"/>
            </g>
        </g>
        <g filter="url(#filter5_dd_1405_1713)">
            <rect x="64.8439" y="61.8486" width="17.1671" height="10.8089" transform="rotate(-12.0488 64.8439 61.8486)" fill="white"/>
            <path d="M71.0441 53.3838C67.5771 54.1239 64.4695 55.1374 62.242 56.1997C61.1375 56.7264 60.1833 57.2961 59.5079 57.8943C58.9202 58.4148 58.1403 59.3191 58.3847 60.4639C58.629 61.6088 59.7102 62.1158 60.4592 62.351C61.32 62.6213 62.4236 62.7517 63.6469 62.7816C66.114 62.8419 69.3646 62.4983 72.8316 61.7583C76.2986 61.0182 79.4061 60.0047 81.6337 58.9424C82.7381 58.4157 83.6923 57.846 84.3677 57.2478C84.9554 56.7273 85.7354 55.823 85.491 54.6782C85.2466 53.5333 84.1655 53.0263 83.4165 52.7911C82.5556 52.5208 81.452 52.3904 80.2288 52.3605C77.7616 52.3002 74.5111 52.6438 71.0441 53.3838Z" fill="#330E9B" stroke="white" stroke-width="2.54328"/>
            <path d="M61.0693 73.041C61.5653 75.3648 62.3694 77.4501 63.3105 78.9455C63.7782 79.6886 64.3176 80.3468 64.9238 80.8041C65.5264 81.2587 66.3345 81.6111 67.2355 81.4188C68.1366 81.2265 68.7302 80.5748 69.0947 79.9138C69.4614 79.2489 69.6851 78.4278 69.8086 77.5585C70.0572 75.8092 69.9398 73.5773 69.4437 71.2535C68.9477 68.9296 68.1437 66.8444 67.2025 65.349C66.7348 64.6059 66.1954 63.9477 65.5892 63.4904C64.9866 63.0358 64.1786 62.6833 63.2775 62.8756C62.3765 63.068 61.7828 63.7196 61.4183 64.3807C61.0517 65.0456 60.828 65.8667 60.7044 66.736C60.4559 68.4853 60.5733 70.7171 61.0693 73.041Z" fill="#330E9B" stroke="white" stroke-width="2.54328"/>
            <path d="M70.5499 71.5773C71.0161 73.7618 71.796 75.7224 72.7261 77.1278C73.1888 77.8271 73.7265 78.4463 74.3344 78.8729C74.9441 79.3009 75.7347 79.605 76.6018 79.42C77.469 79.2349 78.0665 78.6344 78.4483 77.9948C78.829 77.3572 79.067 76.5724 79.204 75.7451C79.4792 74.0825 79.3906 71.9743 78.9243 69.7898C78.458 67.6054 77.6782 65.6447 76.7481 64.2393C76.2853 63.5401 75.7476 62.9208 75.1398 62.4942C74.5301 62.0663 73.7394 61.7621 72.8723 61.9472C72.0052 62.1323 71.4077 62.7327 71.0258 63.3723C70.6452 64.0099 70.4071 64.7947 70.2702 65.622C69.995 67.2846 70.0836 69.3928 70.5499 71.5773Z" fill="#330E9B" stroke="white" stroke-width="2.54328"/>
            <path d="M79.8009 69.0429C80.2969 71.3668 81.1009 73.4521 82.0421 74.9474C82.5098 75.6905 83.0492 76.3487 83.6554 76.806C84.258 77.2606 85.066 77.6131 85.9671 77.4208C86.8681 77.2285 87.4618 76.5768 87.8263 75.9158C88.193 75.2508 88.4166 74.4297 88.5402 73.5604C88.7887 71.8111 88.6713 69.5793 88.1753 67.2554C87.6793 64.9316 86.8752 62.8463 85.9341 61.3509C85.4664 60.6078 84.927 59.9496 84.3208 59.4923C83.7182 59.0378 82.9101 58.6853 82.0091 58.8776C81.1081 59.0699 80.5144 59.7216 80.1499 60.3826C79.7832 61.0475 79.5595 61.8686 79.436 62.7379C79.1874 64.4872 79.3049 66.7191 79.8009 69.0429Z" fill="#330E9B" stroke="white" stroke-width="2.54328"/>
        </g>
        <g filter="url(#filter6_dd_1405_1713)">
            <path d="M215 74.6327L220.851 75.8603L224.534 58.3072L218.683 57.0795L215 74.6327ZM250.557 65.2942C250.896 63.6778 249.861 62.094 248.245 61.7548L239.008 59.8167L241.807 53.425C241.867 53.2849 241.921 53.1359 241.955 52.975C242.082 52.3679 241.949 51.7672 241.637 51.2894L240.403 49.4193L228.749 57.0307C228.111 57.4541 227.628 58.1164 227.459 58.921L224.39 73.5486C224.051 75.1649 225.086 76.7488 226.702 77.0879L239.867 79.85C241.081 80.1048 242.275 79.584 242.933 78.6302L249.507 69.243C249.709 68.9342 249.865 68.5927 249.943 68.2197L250.531 65.4185L250.519 65.4008L250.557 65.2942Z" fill="#3A22CA"/>
            <path d="M213.767 74.3741L213.509 75.6069L214.741 75.8655L220.592 77.0931L221.825 77.3518L222.084 76.119L225.767 58.5658L226.025 57.333L224.793 57.0743L218.942 55.8467L217.709 55.5881L217.45 56.8209L213.767 74.3741ZM251.855 65.1428C252.093 62.9934 250.664 60.9752 248.504 60.522L240.783 58.9022L242.961 53.9304L242.961 53.9304L242.965 53.9204C243.043 53.7378 243.131 53.5051 243.188 53.2336C243.387 52.2834 243.177 51.3439 242.691 50.6006L242.688 50.5956L241.454 48.7255L240.763 47.6791L239.714 48.3647L228.061 55.9761L228.061 55.976L228.053 55.9808C227.155 56.5761 226.467 57.5146 226.227 58.6623L223.158 73.2899C222.676 75.5872 224.146 77.8388 226.443 78.3207L239.608 81.0829C241.333 81.4447 243.029 80.7052 243.967 79.3496C243.968 79.3483 243.969 79.347 243.97 79.3457L250.539 69.9656L250.55 69.9495L250.561 69.9331C250.833 69.5165 251.06 69.0304 251.176 68.4783L251.763 65.6771L251.772 65.6347L251.79 65.5528L251.871 65.1664L251.855 65.1428Z" stroke="white" stroke-width="2.51932"/>
        </g>
        <g filter="url(#filter7_dd_1405_1713)">
            <rect x="274.624" y="20.5735" width="27.2405" height="27.2405" rx="13.6202" transform="rotate(15 274.624 20.5735)" fill="#3A22CA" shape-rendering="crispEdges"/>
            <rect x="273.851" y="19.2342" width="29.4275" height="29.4275" rx="14.7137" transform="rotate(15 273.851 19.2342)" stroke="white" stroke-width="2.18703" shape-rendering="crispEdges"/>
            <g clip-path="url(#clip3_1405_1713)">
                <path d="M275.586 35.883L280.911 37.3099M287.124 38.9746L292.449 40.4014M285.444 32.8171L282.115 45.2424M285.444 32.8171C286.67 33.1455 287.929 32.4183 288.258 31.1929M285.444 32.8171C284.219 32.4888 283.492 31.2292 283.82 30.0038M275.015 43.3399L289.215 47.1448M278.939 28.6959L283.82 30.0038M283.82 30.0038C284.148 28.7784 285.408 28.0512 286.633 28.3795C287.859 28.7079 288.586 29.9675 288.258 31.1929M288.258 31.1929L293.139 32.5008M280.931 38.5864C280.21 39.8528 278.733 40.5313 277.297 40.1465C275.861 39.7617 274.921 38.4355 274.931 36.9786C274.931 36.8596 274.932 36.8 274.99 36.5774C275.025 36.4409 275.16 36.1403 275.238 36.0229C275.366 35.8314 275.475 35.7332 275.693 35.5367L279.438 32.1589L280.992 36.9566C281.082 37.2356 281.127 37.3751 281.142 37.6048C281.151 37.7455 281.118 38.0733 281.08 38.2093C281.019 38.4312 280.99 38.4829 280.931 38.5864ZM292.469 41.6779C291.748 42.9443 290.271 43.6229 288.835 43.2381C287.399 42.8533 286.459 41.5271 286.468 40.0701C286.469 39.9511 286.469 39.8916 286.528 39.6689C286.563 39.5324 286.698 39.2318 286.776 39.1144C286.904 38.9229 287.013 38.8247 287.23 38.6283L290.975 35.2504L292.529 40.0481C292.62 40.3271 292.665 40.4666 292.68 40.6963C292.689 40.8371 292.655 41.1648 292.618 41.3008C292.557 41.5227 292.527 41.5745 292.469 41.6779Z" stroke="white" stroke-opacity="0.901961" stroke-width="1.29716" stroke-linecap="round" stroke-linejoin="round"/>
            </g>
        </g>
    </g>
    <defs>
        <filter id="filter0_f_1405_1713" x="-13" y="-14" width="338" height="128" filterUnits="userSpaceOnUse" color-interpolation-filters="sRGB">
            <feFlood flood-opacity="0" result="BackgroundImageFix"/>
            <feBlend mode="normal" in="SourceGraphic" in2="BackgroundImageFix" result="shape"/>
            <feGaussianBlur stdDeviation="23" result="effect1_foregroundBlur_1405_1713"/>
        </filter>
        <filter id="filter1_dd_1405_1713" x="4" y="-1" width="64.602" height="64.6021" filterUnits="userSpaceOnUse" color-interpolation-filters="sRGB">
            <feFlood flood-opacity="0" result="BackgroundImageFix"/>
            <feColorMatrix in="SourceAlpha" type="matrix" values="0 0 0 0 0 0 0 0 0 0 0 0 0 0 0 0 0 0 127 0" result="hardAlpha"/>
            <feOffset dy="2"/>
            <feGaussianBlur stdDeviation="1"/>
            <feComposite in2="hardAlpha" operator="out"/>
            <feColorMatrix type="matrix" values="0 0 0 0 0 0 0 0 0 0 0 0 0 0 0 0 0 0 0.03 0"/>
            <feBlend mode="normal" in2="BackgroundImageFix" result="effect1_dropShadow_1405_1713"/>
            <feColorMatrix in="SourceAlpha" type="matrix" values="0 0 0 0 0 0 0 0 0 0 0 0 0 0 0 0 0 0 127 0" result="hardAlpha"/>
            <feOffset dy="4"/>
            <feGaussianBlur stdDeviation="6"/>
            <feComposite in2="hardAlpha" operator="out"/>
            <feColorMatrix type="matrix" values="0 0 0 0 0 0 0 0 0 0 0 0 0 0 0 0 0 0 0.02 0"/>
            <feBlend mode="normal" in2="effect1_dropShadow_1405_1713" result="effect2_dropShadow_1405_1713"/>
            <feBlend mode="normal" in="SourceGraphic" in2="effect2_dropShadow_1405_1713" result="shape"/>
        </filter>
        <filter id="filter2_dd_1405_1713" x="9.48651" y="4.48657" width="53.629" height="53.6289" filterUnits="userSpaceOnUse" color-interpolation-filters="sRGB">
            <feFlood flood-opacity="0" result="BackgroundImageFix"/>
            <feColorMatrix in="SourceAlpha" type="matrix" values="0 0 0 0 0 0 0 0 0 0 0 0 0 0 0 0 0 0 127 0" result="hardAlpha"/>
            <feOffset dy="2"/>
            <feGaussianBlur stdDeviation="1"/>
            <feComposite in2="hardAlpha" operator="out"/>
            <feColorMatrix type="matrix" values="0 0 0 0 0 0 0 0 0 0 0 0 0 0 0 0 0 0 0.03 0"/>
            <feBlend mode="normal" in2="BackgroundImageFix" result="effect1_dropShadow_1405_1713"/>
            <feColorMatrix in="SourceAlpha" type="matrix" values="0 0 0 0 0 0 0 0 0 0 0 0 0 0 0 0 0 0 127 0" result="hardAlpha"/>
            <feOffset dy="4"/>
            <feGaussianBlur stdDeviation="6"/>
            <feComposite in2="hardAlpha" operator="out"/>
            <feColorMatrix type="matrix" values="0 0 0 0 0 0 0 0 0 0 0 0 0 0 0 0 0 0 0.02 0"/>
            <feBlend mode="normal" in2="effect1_dropShadow_1405_1713" result="effect2_dropShadow_1405_1713"/>
            <feBlend mode="normal" in="SourceGraphic" in2="effect2_dropShadow_1405_1713" result="shape"/>
        </filter>
        <filter id="filter3_dd_1405_1713" x="178" y="-8" width="68.4665" height="68.4663" filterUnits="userSpaceOnUse" color-interpolation-filters="sRGB">
            <feFlood flood-opacity="0" result="BackgroundImageFix"/>
            <feColorMatrix in="SourceAlpha" type="matrix" values="0 0 0 0 0 0 0 0 0 0 0 0 0 0 0 0 0 0 127 0" result="hardAlpha"/>
            <feOffset dy="2"/>
            <feGaussianBlur stdDeviation="1"/>
            <feComposite in2="hardAlpha" operator="out"/>
            <feColorMatrix type="matrix" values="0 0 0 0 0 0 0 0 0 0 0 0 0 0 0 0 0 0 0.03 0"/>
            <feBlend mode="normal" in2="BackgroundImageFix" result="effect1_dropShadow_1405_1713"/>
            <feColorMatrix in="SourceAlpha" type="matrix" values="0 0 0 0 0 0 0 0 0 0 0 0 0 0 0 0 0 0 127 0" result="hardAlpha"/>
            <feOffset dy="4"/>
            <feGaussianBlur stdDeviation="6"/>
            <feComposite in2="hardAlpha" operator="out"/>
            <feColorMatrix type="matrix" values="0 0 0 0 0 0 0 0 0 0 0 0 0 0 0 0 0 0 0.02 0"/>
            <feBlend mode="normal" in2="effect1_dropShadow_1405_1713" result="effect2_dropShadow_1405_1713"/>
            <feBlend mode="normal" in="SourceGraphic" in2="effect2_dropShadow_1405_1713" result="shape"/>
        </filter>
        <filter id="filter4_dd_1405_1713" x="186.594" y="0.593506" width="51.2794" height="51.2793" filterUnits="userSpaceOnUse" color-interpolation-filters="sRGB">
            <feFlood flood-opacity="0" result="BackgroundImageFix"/>
            <feColorMatrix in="SourceAlpha" type="matrix" values="0 0 0 0 0 0 0 0 0 0 0 0 0 0 0 0 0 0 127 0" result="hardAlpha"/>
            <feOffset dy="2"/>
            <feGaussianBlur stdDeviation="1"/>
            <feComposite in2="hardAlpha" operator="out"/>
            <feColorMatrix type="matrix" values="0 0 0 0 0 0 0 0 0 0 0 0 0 0 0 0 0 0 0.03 0"/>
            <feBlend mode="normal" in2="BackgroundImageFix" result="effect1_dropShadow_1405_1713"/>
            <feColorMatrix in="SourceAlpha" type="matrix" values="0 0 0 0 0 0 0 0 0 0 0 0 0 0 0 0 0 0 127 0" result="hardAlpha"/>
            <feOffset dy="4"/>
            <feGaussianBlur stdDeviation="6"/>
            <feComposite in2="hardAlpha" operator="out"/>
            <feColorMatrix type="matrix" values="0 0 0 0 0 0 0 0 0 0 0 0 0 0 0 0 0 0 0.02 0"/>
            <feBlend mode="normal" in2="effect1_dropShadow_1405_1713" result="effect2_dropShadow_1405_1713"/>
            <feBlend mode="normal" in="SourceGraphic" in2="effect2_dropShadow_1405_1713" result="shape"/>
        </filter>
        <filter id="filter5_dd_1405_1713" x="49.4354" y="45.9955" width="48.1324" height="46.9225" filterUnits="userSpaceOnUse" color-interpolation-filters="sRGB">
            <feFlood flood-opacity="0" result="BackgroundImageFix"/>
            <feColorMatrix in="SourceAlpha" type="matrix" values="0 0 0 0 0 0 0 0 0 0 0 0 0 0 0 0 0 0 127 0" result="hardAlpha"/>
            <feOffset dy="1.27164"/>
            <feGaussianBlur stdDeviation="0.63582"/>
            <feComposite in2="hardAlpha" operator="out"/>
            <feColorMatrix type="matrix" values="0 0 0 0 0 0 0 0 0 0 0 0 0 0 0 0 0 0 0.03 0"/>
            <feBlend mode="normal" in2="BackgroundImageFix" result="effect1_dropShadow_1405_1713"/>
            <feColorMatrix in="SourceAlpha" type="matrix" values="0 0 0 0 0 0 0 0 0 0 0 0 0 0 0 0 0 0 127 0" result="hardAlpha"/>
            <feOffset dy="2.54328"/>
            <feGaussianBlur stdDeviation="3.81492"/>
            <feComposite in2="hardAlpha" operator="out"/>
            <feColorMatrix type="matrix" values="0 0 0 0 0 0 0 0 0 0 0 0 0 0 0 0 0 0 0.02 0"/>
            <feBlend mode="normal" in2="effect1_dropShadow_1405_1713" result="effect2_dropShadow_1405_1713"/>
            <feBlend mode="normal" in="SourceGraphic" in2="effect2_dropShadow_1405_1713" result="shape"/>
        </filter>
        <filter id="filter6_dd_1405_1713" x="204.459" y="40.9003" width="56.3094" height="51.611" filterUnits="userSpaceOnUse" color-interpolation-filters="sRGB">
            <feFlood flood-opacity="0" result="BackgroundImageFix"/>
            <feColorMatrix in="SourceAlpha" type="matrix" values="0 0 0 0 0 0 0 0 0 0 0 0 0 0 0 0 0 0 127 0" result="hardAlpha"/>
            <feOffset dy="1.25966"/>
            <feGaussianBlur stdDeviation="0.62983"/>
            <feComposite in2="hardAlpha" operator="out"/>
            <feColorMatrix type="matrix" values="0 0 0 0 0 0 0 0 0 0 0 0 0 0 0 0 0 0 0.03 0"/>
            <feBlend mode="normal" in2="BackgroundImageFix" result="effect1_dropShadow_1405_1713"/>
            <feColorMatrix in="SourceAlpha" type="matrix" values="0 0 0 0 0 0 0 0 0 0 0 0 0 0 0 0 0 0 127 0" result="hardAlpha"/>
            <feOffset dy="2.51932"/>
            <feGaussianBlur stdDeviation="3.77898"/>
            <feComposite in2="hardAlpha" operator="out"/>
            <feColorMatrix type="matrix" values="0 0 0 0 0 0 0 0 0 0 0 0 0 0 0 0 0 0 0.02 0"/>
            <feBlend mode="normal" in2="effect1_dropShadow_1405_1713" result="effect2_dropShadow_1405_1713"/>
            <feBlend mode="normal" in="SourceGraphic" in2="effect2_dropShadow_1405_1713" result="shape"/>
        </filter>
        <filter id="filter7_dd_1405_1713" x="254.451" y="11.8254" width="59.607" height="59.6069" filterUnits="userSpaceOnUse" color-interpolation-filters="sRGB">
            <feFlood flood-opacity="0" result="BackgroundImageFix"/>
            <feColorMatrix in="SourceAlpha" type="matrix" values="0 0 0 0 0 0 0 0 0 0 0 0 0 0 0 0 0 0 127 0" result="hardAlpha"/>
            <feOffset dy="4.37406"/>
            <feGaussianBlur stdDeviation="4.37406"/>
            <feComposite in2="hardAlpha" operator="out"/>
            <feColorMatrix type="matrix" values="0 0 0 0 0 0 0 0 0 0 0 0 0 0 0 0 0 0 0.06 0"/>
            <feBlend mode="normal" in2="BackgroundImageFix" result="effect1_dropShadow_1405_1713"/>
            <feColorMatrix in="SourceAlpha" type="matrix" values="0 0 0 0 0 0 0 0 0 0 0 0 0 0 0 0 0 0 127 0" result="hardAlpha"/>
            <feOffset dy="4.37406"/>
            <feGaussianBlur stdDeviation="6.56109"/>
            <feComposite in2="hardAlpha" operator="out"/>
            <feColorMatrix type="matrix" values="0 0 0 0 0 0 0 0 0 0 0 0 0 0 0 0 0 0 0.04 0"/>
            <feBlend mode="normal" in2="effect1_dropShadow_1405_1713" result="effect2_dropShadow_1405_1713"/>
            <feBlend mode="normal" in="SourceGraphic" in2="effect2_dropShadow_1405_1713" result="shape"/>
        </filter>
        <clipPath id="clip0_1405_1713">
            <rect width="320" height="100" fill="white"/>
        </clipPath>
        <clipPath id="clip1_1405_1713">
            <rect width="32.67" height="32.67" fill="white" transform="translate(25.2767 7) rotate(16.4962)"/>
        </clipPath>
        <clipPath id="clip2_1405_1713">
            <rect width="32.67" height="32.67" fill="white" transform="translate(190 15.9604) rotate(-29.2445)"/>
        </clipPath>
        <clipPath id="clip3_1405_1713">
            <rect width="22.0518" height="22.0518" fill="white" transform="translate(276.458 23.7507) rotate(15)"/>
        </clipPath>
    </defs>
</svg>
