<svg width="320" height="101" viewBox="0 0 320 101" fill="none" xmlns="http://www.w3.org/2000/svg">
<g clip-path="url(#clip0_1412_1660)">
<g opacity="0.2" filter="url(#filter0_f_1412_1660)">
<ellipse cx="159.335" cy="53.6265" rx="87.665" ry="12.829" transform="rotate(-180 159.335 53.6265)" fill="#1F007F"/>
</g>
<rect x="156.698" y="13.5347" width="14" height="43" transform="rotate(60 156.698 13.5347)" fill="white"/>
<rect x="141.083" y="44.4893" width="14" height="19" transform="rotate(60 141.083 44.4893)" fill="white"/>
<rect x="175.698" y="46.4438" width="14" height="43" transform="rotate(60 175.698 46.4438)" fill="white"/>
<mask id="mask0_1412_1660" style="mask-type:luminance" maskUnits="userSpaceOnUse" x="100" y="-1" width="99" height="99">
<path d="M196.199 23.1595L196.587 21.7106L195.138 21.3224L123.66 2.16976L122.211 1.78153L121.823 3.23042L102.689 74.6401L102.3 76.089L103.749 76.4773L175.228 95.6299L176.677 96.0181L177.065 94.5692L196.199 23.1595Z" fill="white" stroke="white" stroke-width="3"/>
</mask>
<g mask="url(#mask0_1412_1660)">
<mask id="path-6-outside-1_1412_1660" maskUnits="userSpaceOnUse" x="99.479" y="-1.28033" width="99.2043" height="99.2043" fill="black">
<rect fill="white" x="99.479" y="-1.28033" width="99.2043" height="99.2043"/>
<path d="M183.183 62.1115L183.299 51.0044C183.305 50.6784 183.122 50.3747 182.837 50.2162L173.208 44.9155C173.136 44.878 173.054 44.8468 172.977 44.8263C172.738 44.7348 172.462 44.7429 172.225 44.8796L150.172 57.5977L150.276 47.998C150.281 47.6718 150.099 47.368 149.813 47.2097L141.543 42.6549L163.585 29.943C163.714 29.8685 163.808 29.7571 163.884 29.6411C164.006 29.4918 164.084 29.3034 164.083 29.1029L164.199 17.9959C164.205 17.6697 164.022 17.366 163.736 17.2076L154.108 11.9069C153.918 11.8013 153.705 11.7806 153.503 11.8177L153.495 11.8154C153.437 11.8272 153.385 11.8498 153.325 11.8701C153.274 11.8926 153.21 11.8937 153.164 11.927L115.549 33.6061C115.549 33.6061 115.475 33.6773 115.43 33.7106C115.183 33.8813 115.038 34.1518 115.048 34.4547L115.238 45.2706C115.245 45.582 115.407 45.8618 115.667 46.0135L124.58 51.368L124.768 61.7468C124.776 62.0583 124.937 62.3381 125.197 62.4898L134.142 67.8619L134.327 78.2854C134.335 78.5969 134.497 78.8767 134.757 79.0283L144.077 84.6285C144.147 84.6745 144.229 84.7062 144.306 84.7267C144.323 84.7313 144.342 84.7269 144.368 84.7337C144.368 84.7337 144.376 84.736 144.385 84.7383C144.605 84.7974 144.849 84.7721 145.065 84.6477L182.696 62.9453C182.825 62.8707 182.919 62.7595 182.996 62.6436C183.118 62.4942 183.195 62.3058 183.194 62.1054L183.183 62.1115ZM166.788 70.0667L166.884 61.0384L172.969 57.5363L180.586 62.1162L166.794 70.0774L166.788 70.0667ZM145.446 82.3748L145.542 73.3464L156.553 66.9967L164.17 71.5765L145.446 82.3748ZM157.43 64.4379L157.29 56.6656L164.251 60.4966L157.432 64.4296L157.43 64.4379ZM165.096 62.0696L165.014 69.9917L158.322 65.9691L165.098 62.0612L165.096 62.0696ZM166.059 59.4614L158.169 55.1178L171.927 47.1837L172.081 55.9883L166.059 59.4614ZM155.51 56.6438L155.665 65.4485L144.709 71.7672L136.819 67.4236L155.51 56.6438ZM181.518 51.5009L181.421 60.5291L173.859 55.9823L173.7 47.1947L181.518 51.5009ZM135.881 65.8254L135.977 56.7971L139.942 54.5106L147.559 59.0904L135.881 65.8254ZM140.818 51.9519L140.679 44.1797L147.64 48.0106L140.821 51.9434L140.818 51.9519ZM148.4 57.5142L141.708 53.4917L148.485 49.5837L148.402 57.5056L148.4 57.5142ZM139.06 52.9731L135.149 55.2285L127.259 50.885L138.905 44.1686L139.06 52.9731ZM136.52 23.5646L136.675 32.3692L125.621 38.7438L117.731 34.4002L136.52 23.5646ZM152.842 14.1518L152.996 22.9564L147.071 26.3736L139.181 22.03L152.842 14.1518ZM147.8 36.9789L147.894 27.959L153.884 24.5046L161.503 29.076L147.8 36.9789ZM138.439 31.3587L138.299 23.5865L145.261 27.4173L138.442 31.3502L138.439 31.3587ZM146.106 28.9904L146.023 36.9124L139.34 32.8922L146.117 28.9841L146.106 28.9904ZM137.573 33.9111L145.193 38.4826L126.372 49.3367L126.466 40.3168L137.573 33.9111ZM162.428 18.486L162.332 27.5143L154.769 22.9674L154.61 14.1799L162.428 18.486ZM116.858 35.9588L123.82 39.7898L117 43.7228L116.861 35.9504L116.858 35.9588ZM117.888 45.2708L124.665 41.3628L124.582 49.2849L117.899 45.2648L117.888 45.2708ZM126.537 61.229L126.378 52.4414L134.196 56.7476L134.099 65.7758L126.537 61.229ZM135.946 68.9822L142.907 72.8132L136.088 76.746L135.948 68.9737L135.946 68.9822ZM136.975 78.2942L143.752 74.3862L143.669 82.3082L136.978 78.2857L136.975 78.2942Z"/>
</mask>
<path d="M183.183 62.1115L183.299 51.0044C183.305 50.6784 183.122 50.3747 182.837 50.2162L173.208 44.9155C173.136 44.878 173.054 44.8468 172.977 44.8263C172.738 44.7348 172.462 44.7429 172.225 44.8796L150.172 57.5977L150.276 47.998C150.281 47.6718 150.099 47.368 149.813 47.2097L141.543 42.6549L163.585 29.943C163.714 29.8685 163.808 29.7571 163.884 29.6411C164.006 29.4918 164.084 29.3034 164.083 29.1029L164.199 17.9959C164.205 17.6697 164.022 17.366 163.736 17.2076L154.108 11.9069C153.918 11.8013 153.705 11.7806 153.503 11.8177L153.495 11.8154C153.437 11.8272 153.385 11.8498 153.325 11.8701C153.274 11.8926 153.21 11.8937 153.164 11.927L115.549 33.6061C115.549 33.6061 115.475 33.6773 115.43 33.7106C115.183 33.8813 115.038 34.1518 115.048 34.4547L115.238 45.2706C115.245 45.582 115.407 45.8618 115.667 46.0135L124.58 51.368L124.768 61.7468C124.776 62.0583 124.937 62.3381 125.197 62.4898L134.142 67.8619L134.327 78.2854C134.335 78.5969 134.497 78.8767 134.757 79.0283L144.077 84.6285C144.147 84.6745 144.229 84.7062 144.306 84.7267C144.323 84.7313 144.342 84.7269 144.368 84.7337C144.368 84.7337 144.376 84.736 144.385 84.7383C144.605 84.7974 144.849 84.7721 145.065 84.6477L182.696 62.9453C182.825 62.8707 182.919 62.7595 182.996 62.6436C183.118 62.4942 183.195 62.3058 183.194 62.1054L183.183 62.1115ZM166.788 70.0667L166.884 61.0384L172.969 57.5363L180.586 62.1162L166.794 70.0774L166.788 70.0667ZM145.446 82.3748L145.542 73.3464L156.553 66.9967L164.17 71.5765L145.446 82.3748ZM157.43 64.4379L157.29 56.6656L164.251 60.4966L157.432 64.4296L157.43 64.4379ZM165.096 62.0696L165.014 69.9917L158.322 65.9691L165.098 62.0612L165.096 62.0696ZM166.059 59.4614L158.169 55.1178L171.927 47.1837L172.081 55.9883L166.059 59.4614ZM155.51 56.6438L155.665 65.4485L144.709 71.7672L136.819 67.4236L155.51 56.6438ZM181.518 51.5009L181.421 60.5291L173.859 55.9823L173.7 47.1947L181.518 51.5009ZM135.881 65.8254L135.977 56.7971L139.942 54.5106L147.559 59.0904L135.881 65.8254ZM140.818 51.9519L140.679 44.1797L147.64 48.0106L140.821 51.9434L140.818 51.9519ZM148.4 57.5142L141.708 53.4917L148.485 49.5837L148.402 57.5056L148.4 57.5142ZM139.06 52.9731L135.149 55.2285L127.259 50.885L138.905 44.1686L139.06 52.9731ZM136.52 23.5646L136.675 32.3692L125.621 38.7438L117.731 34.4002L136.52 23.5646ZM152.842 14.1518L152.996 22.9564L147.071 26.3736L139.181 22.03L152.842 14.1518ZM147.8 36.9789L147.894 27.959L153.884 24.5046L161.503 29.076L147.8 36.9789ZM138.439 31.3587L138.299 23.5865L145.261 27.4173L138.442 31.3502L138.439 31.3587ZM146.106 28.9904L146.023 36.9124L139.34 32.8922L146.117 28.9841L146.106 28.9904ZM137.573 33.9111L145.193 38.4826L126.372 49.3367L126.466 40.3168L137.573 33.9111ZM162.428 18.486L162.332 27.5143L154.769 22.9674L154.61 14.1799L162.428 18.486ZM116.858 35.9588L123.82 39.7898L117 43.7228L116.861 35.9504L116.858 35.9588ZM117.888 45.2708L124.665 41.3628L124.582 49.2849L117.899 45.2648L117.888 45.2708ZM126.537 61.229L126.378 52.4414L134.196 56.7476L134.099 65.7758L126.537 61.229ZM135.946 68.9822L142.907 72.8132L136.088 76.746L135.948 68.9737L135.946 68.9822ZM136.975 78.2942L143.752 74.3862L143.669 82.3082L136.978 78.2857L136.975 78.2942Z" fill="#37149F"/>
<path d="M183.183 62.1115L183.299 51.0044C183.305 50.6784 183.122 50.3747 182.837 50.2162L173.208 44.9155C173.136 44.878 173.054 44.8468 172.977 44.8263C172.738 44.7348 172.462 44.7429 172.225 44.8796L150.172 57.5977L150.276 47.998C150.281 47.6718 150.099 47.368 149.813 47.2097L141.543 42.6549L163.585 29.943C163.714 29.8685 163.808 29.7571 163.884 29.6411C164.006 29.4918 164.084 29.3034 164.083 29.1029L164.199 17.9959C164.205 17.6697 164.022 17.366 163.736 17.2076L154.108 11.9069C153.918 11.8013 153.705 11.7806 153.503 11.8177L153.495 11.8154C153.437 11.8272 153.385 11.8498 153.325 11.8701C153.274 11.8926 153.21 11.8937 153.164 11.927L115.549 33.6061C115.549 33.6061 115.475 33.6773 115.43 33.7106C115.183 33.8813 115.038 34.1518 115.048 34.4547L115.238 45.2706C115.245 45.582 115.407 45.8618 115.667 46.0135L124.58 51.368L124.768 61.7468C124.776 62.0583 124.937 62.3381 125.197 62.4898L134.142 67.8619L134.327 78.2854C134.335 78.5969 134.497 78.8767 134.757 79.0283L144.077 84.6285C144.147 84.6745 144.229 84.7062 144.306 84.7267C144.323 84.7313 144.342 84.7269 144.368 84.7337C144.368 84.7337 144.376 84.736 144.385 84.7383C144.605 84.7974 144.849 84.7721 145.065 84.6477L182.696 62.9453C182.825 62.8707 182.919 62.7595 182.996 62.6436C183.118 62.4942 183.195 62.3058 183.194 62.1054L183.183 62.1115ZM166.788 70.0667L166.884 61.0384L172.969 57.5363L180.586 62.1162L166.794 70.0774L166.788 70.0667ZM145.446 82.3748L145.542 73.3464L156.553 66.9967L164.17 71.5765L145.446 82.3748ZM157.43 64.4379L157.29 56.6656L164.251 60.4966L157.432 64.4296L157.43 64.4379ZM165.096 62.0696L165.014 69.9917L158.322 65.9691L165.098 62.0612L165.096 62.0696ZM166.059 59.4614L158.169 55.1178L171.927 47.1837L172.081 55.9883L166.059 59.4614ZM155.51 56.6438L155.665 65.4485L144.709 71.7672L136.819 67.4236L155.51 56.6438ZM181.518 51.5009L181.421 60.5291L173.859 55.9823L173.7 47.1947L181.518 51.5009ZM135.881 65.8254L135.977 56.7971L139.942 54.5106L147.559 59.0904L135.881 65.8254ZM140.818 51.9519L140.679 44.1797L147.64 48.0106L140.821 51.9434L140.818 51.9519ZM148.4 57.5142L141.708 53.4917L148.485 49.5837L148.402 57.5056L148.4 57.5142ZM139.06 52.9731L135.149 55.2285L127.259 50.885L138.905 44.1686L139.06 52.9731ZM136.52 23.5646L136.675 32.3692L125.621 38.7438L117.731 34.4002L136.52 23.5646ZM152.842 14.1518L152.996 22.9564L147.071 26.3736L139.181 22.03L152.842 14.1518ZM147.8 36.9789L147.894 27.959L153.884 24.5046L161.503 29.076L147.8 36.9789ZM138.439 31.3587L138.299 23.5865L145.261 27.4173L138.442 31.3502L138.439 31.3587ZM146.106 28.9904L146.023 36.9124L139.34 32.8922L146.117 28.9841L146.106 28.9904ZM137.573 33.9111L145.193 38.4826L126.372 49.3367L126.466 40.3168L137.573 33.9111ZM162.428 18.486L162.332 27.5143L154.769 22.9674L154.61 14.1799L162.428 18.486ZM116.858 35.9588L123.82 39.7898L117 43.7228L116.861 35.9504L116.858 35.9588ZM117.888 45.2708L124.665 41.3628L124.582 49.2849L117.899 45.2648L117.888 45.2708ZM126.537 61.229L126.378 52.4414L134.196 56.7476L134.099 65.7758L126.537 61.229ZM135.946 68.9822L142.907 72.8132L136.088 76.746L135.948 68.9737L135.946 68.9822ZM136.975 78.2942L143.752 74.3862L143.669 82.3082L136.978 78.2857L136.975 78.2942Z" stroke="white" stroke-width="6" mask="url(#path-6-outside-1_1412_1660)"/>
</g>
<g clip-path="url(#clip1_1412_1660)" filter="url(#filter1_dd_1412_1660)">
<g filter="url(#filter2_dd_1412_1660)">
<path d="M40.1664 14.7047L40.7705 22.3101C40.8552 23.3761 40.8975 23.9091 41.0645 24.3964C41.2125 24.8282 41.4319 25.2322 41.7135 25.5915C42.0313 25.9969 42.4553 26.3226 43.3033 26.9741L49.3533 31.6222L41.7479 32.2262C40.6819 32.3109 40.1489 32.3532 39.6616 32.5202C39.2298 32.6683 38.8258 32.8876 38.4665 33.1692C38.0611 33.487 37.7354 33.911 37.0839 34.759L32.4358 40.809L31.8318 33.2037C31.7471 32.1376 31.7048 31.6046 31.5378 31.1173C31.3897 30.6855 31.1704 30.2815 30.8888 29.9222C30.571 29.5168 30.147 29.1911 29.299 28.5396L23.249 23.8915L30.8543 23.2875C31.9204 23.2028 32.4534 23.1605 32.9407 22.9935C33.3725 22.8455 33.7765 22.6261 34.1358 22.3445C34.5412 22.0267 34.8669 21.6027 35.5184 20.7547L40.1664 14.7047Z" fill="#3A22CA"/>
<path d="M40.1664 14.7047L40.7705 22.3101C40.8552 23.3761 40.8975 23.9091 41.0645 24.3964C41.2125 24.8282 41.4319 25.2322 41.7135 25.5915C42.0313 25.9969 42.4553 26.3226 43.3033 26.9741L49.3533 31.6222L41.7479 32.2262C40.6819 32.3109 40.1489 32.3532 39.6616 32.5202C39.2298 32.6683 38.8258 32.8876 38.4665 33.1692C38.0611 33.487 37.7354 33.911 37.0839 34.759L32.4358 40.809L31.8318 33.2037C31.7471 32.1376 31.7048 31.6046 31.5378 31.1173C31.3897 30.6855 31.1704 30.2815 30.8888 29.9222C30.571 29.5168 30.147 29.1911 29.299 28.5396L23.249 23.8915L30.8543 23.2875C31.9204 23.2028 32.4534 23.1605 32.9407 22.9935C33.3725 22.8455 33.7765 22.6261 34.1358 22.3445C34.5412 22.0267 34.8669 21.6027 35.5184 20.7547L40.1664 14.7047Z" stroke="white" stroke-width="3.52446" stroke-linecap="round" stroke-linejoin="round"/>
</g>
</g>
<g clip-path="url(#clip2_1412_1660)" filter="url(#filter3_dd_1412_1660)">
<g filter="url(#filter4_dd_1412_1660)">
<path d="M205.583 10.8112L211.452 15.6864C212.274 16.3698 212.685 16.7114 213.151 16.9319C213.564 17.1273 214.006 17.2521 214.46 17.3012C214.972 17.3565 215.501 17.2802 216.56 17.1276L224.111 16.0385L219.236 21.9069C218.552 22.7295 218.211 23.1408 217.99 23.6063C217.795 24.0189 217.67 24.4613 217.621 24.9152C217.565 25.4273 217.642 25.9565 217.794 27.015L218.884 34.5662L213.015 29.691C212.192 29.0076 211.781 28.6659 211.316 28.4455C210.903 28.2501 210.461 28.1253 210.007 28.0762C209.495 28.0208 208.965 28.0972 207.907 28.2498L200.356 29.3389L205.231 23.4704C205.914 22.6479 206.256 22.2366 206.476 21.771C206.672 21.3585 206.797 20.916 206.846 20.4622C206.901 19.9501 206.825 19.4208 206.672 18.3624L205.583 10.8112Z" fill="#330E9B"/>
<path d="M205.583 10.8112L211.452 15.6864C212.274 16.3698 212.685 16.7114 213.151 16.9319C213.564 17.1273 214.006 17.2521 214.46 17.3012C214.972 17.3565 215.501 17.2802 216.56 17.1276L224.111 16.0385L219.236 21.9069C218.552 22.7295 218.211 23.1408 217.99 23.6063C217.795 24.0189 217.67 24.4613 217.621 24.9152C217.565 25.4273 217.642 25.9565 217.794 27.015L218.884 34.5662L213.015 29.691C212.192 29.0076 211.781 28.6659 211.316 28.4455C210.903 28.2501 210.461 28.1253 210.007 28.0762C209.495 28.0208 208.965 28.0972 207.907 28.2498L200.356 29.3389L205.231 23.4704C205.914 22.6479 206.256 22.2366 206.476 21.771C206.672 21.3585 206.797 20.916 206.846 20.4622C206.901 19.9501 206.825 19.4208 206.672 18.3624L205.583 10.8112Z" stroke="white" stroke-width="3.52446" stroke-linecap="round" stroke-linejoin="round"/>
</g>
</g>
<g filter="url(#filter5_dd_1412_1660)">
<rect x="64.844" y="62.3042" width="17.1671" height="10.8089" transform="rotate(-12.0488 64.844 62.3042)" fill="white"/>
<path d="M71.0441 53.8394C67.5771 54.5794 64.4696 55.5929 62.242 56.6553C61.1376 57.182 60.1834 57.7516 59.508 58.3498C58.9203 58.8704 58.1403 59.7746 58.3847 60.9195C58.6291 62.0644 59.7102 62.5714 60.4593 62.8066C61.3201 63.0769 62.4237 63.2073 63.6469 63.2372C66.1141 63.2975 69.3646 62.9538 72.8316 62.2138C76.2986 61.4738 79.4062 60.4603 81.6337 59.398C82.7382 58.8712 83.6924 58.3016 84.3678 57.7034C84.9555 57.1828 85.7354 56.2786 85.4911 55.1337C85.2467 53.9889 84.1655 53.4819 83.4165 53.2467C82.5557 52.9763 81.4521 52.8459 80.2288 52.8161C77.7617 52.7558 74.5112 53.0994 71.0441 53.8394Z" fill="#330E9B" stroke="white" stroke-width="2.54328"/>
<path d="M61.0693 73.4963C61.5653 75.8201 62.3694 77.9054 63.3105 79.4008C63.7782 80.1439 64.3176 80.8021 64.9238 81.2594C65.5264 81.714 66.3345 82.0665 67.2355 81.8741C68.1366 81.6818 68.7302 81.0301 69.0947 80.3691C69.4614 79.7042 69.6851 78.8831 69.8086 78.0138C70.0572 76.2645 69.9398 74.0327 69.4437 71.7088C68.9477 69.385 68.1437 67.2997 67.2025 65.8043C66.7348 65.0612 66.1954 64.403 65.5892 63.9457C64.9866 63.4911 64.1786 63.1386 63.2775 63.331C62.3765 63.5233 61.7828 64.175 61.4183 64.836C61.0517 65.5009 60.828 66.322 60.7044 67.1913C60.4559 68.9406 60.5733 71.1725 61.0693 73.4963Z" fill="#330E9B" stroke="white" stroke-width="2.54328"/>
<path d="M70.5498 72.0329C71.0161 74.2173 71.7959 76.178 72.726 77.5834C73.1888 78.2826 73.7265 78.9019 74.3343 79.3285C74.944 79.7564 75.7346 80.0606 76.6018 79.8755C77.4689 79.6904 78.0664 79.09 78.4483 78.4504C78.8289 77.8128 79.067 77.028 79.2039 76.2007C79.4791 74.5381 79.3905 72.4299 78.9242 70.2454C78.458 68.0609 77.6781 66.1003 76.748 64.6949C76.2853 63.9956 75.7475 63.3764 75.1397 62.9498C74.53 62.5218 73.7394 62.2177 72.8723 62.4027C72.0051 62.5878 71.4076 63.1883 71.0258 63.8279C70.6451 64.4655 70.4071 65.2503 70.2701 66.0776C69.9949 67.7402 70.0835 69.8484 70.5498 72.0329Z" fill="#330E9B" stroke="white" stroke-width="2.54328"/>
<path d="M79.8008 69.4983C80.2968 71.8221 81.1008 73.9074 82.042 75.4028C82.5097 76.1459 83.0491 76.8041 83.6553 77.2613C84.2579 77.7159 85.0659 78.0684 85.967 77.8761C86.868 77.6838 87.4617 77.0321 87.8262 76.3711C88.1928 75.7061 88.4165 74.8851 88.5401 74.0158C88.7886 72.2664 88.6712 70.0346 88.1752 67.7108C87.6792 65.3869 86.8751 63.3016 85.934 61.8063C85.4663 61.0632 84.9269 60.4049 84.3207 59.9477C83.7181 59.4931 82.91 59.1406 82.009 59.3329C81.1079 59.5252 80.5142 60.1769 80.1497 60.8379C79.7831 61.5029 79.5594 62.324 79.4359 63.1933C79.1873 64.9426 79.3047 67.1744 79.8008 69.4983Z" fill="#330E9B" stroke="white" stroke-width="2.54328"/>
</g>
<g filter="url(#filter6_dd_1412_1660)">
<path d="M215 75.0883L220.851 76.3159L224.534 58.7627L218.683 57.5351L215 75.0883ZM250.557 65.7497C250.896 64.1334 249.861 62.5495 248.245 62.2104L239.008 60.2723L241.807 53.8806C241.867 53.7404 241.921 53.5914 241.955 53.4305C242.082 52.8235 241.949 52.2228 241.637 51.745L240.403 49.8749L228.749 57.4863C228.111 57.9097 227.628 58.572 227.459 59.3765L224.39 74.0042C224.051 75.6205 225.086 77.2044 226.702 77.5435L239.867 80.3056C241.081 80.5603 242.275 80.0395 242.933 79.0857L249.507 69.6986C249.709 69.3897 249.865 69.0483 249.943 68.6752L250.531 65.8741L250.519 65.8564L250.557 65.7497Z" fill="#3A22CA"/>
<path d="M213.767 74.8296L213.509 76.0624L214.741 76.3211L220.592 77.5487L221.825 77.8074L222.084 76.5745L225.767 59.0214L226.025 57.7886L224.793 57.5299L218.942 56.3023L217.709 56.0436L217.45 57.2765L213.767 74.8296ZM251.855 65.5984C252.093 63.449 250.664 61.4308 248.504 60.9776L240.783 59.3578L242.961 54.3859L242.961 54.3859L242.965 54.376C243.043 54.1934 243.131 53.9607 243.188 53.6892C243.387 52.7389 243.177 51.7994 242.691 51.0561L242.688 51.0512L241.454 49.1811L240.763 48.1347L239.714 48.8203L228.061 56.4316L228.061 56.4316L228.053 56.4364C227.155 57.0317 226.467 57.9702 226.227 59.1179L223.158 73.7455C222.676 76.0427 224.146 78.2943 226.443 78.7763L239.608 81.5384C241.333 81.9003 243.029 81.1607 243.967 79.8052C243.968 79.8039 243.969 79.8026 243.97 79.8012L250.539 70.4211L250.55 70.4051L250.561 70.3887C250.833 69.972 251.06 69.486 251.176 68.9339L251.763 66.1327L251.772 66.0902L251.79 66.0084L251.871 65.622L251.855 65.5984Z" stroke="white" stroke-width="2.51932"/>
</g>
<g filter="url(#filter7_dd_1412_1660)">
<rect x="274.624" y="21.0293" width="27.2405" height="27.2405" rx="13.6202" transform="rotate(15 274.624 21.0293)" fill="#3A22CA" shape-rendering="crispEdges"/>
<rect x="273.851" y="19.69" width="29.4275" height="29.4275" rx="14.7137" transform="rotate(15 273.851 19.69)" stroke="white" stroke-width="2.18703" shape-rendering="crispEdges"/>
<g clip-path="url(#clip3_1412_1660)">
<path d="M275.586 36.3388L280.911 37.7657M287.124 39.4304L292.449 40.8572M285.444 33.2729L282.115 45.6982M285.444 33.2729C286.67 33.6013 287.929 32.8741 288.258 31.6487M285.444 33.2729C284.219 32.9446 283.492 31.685 283.82 30.4596M275.015 43.7957L289.215 47.6006M278.939 29.1517L283.82 30.4596M283.82 30.4596C284.148 29.2342 285.408 28.507 286.633 28.8354C287.859 29.1637 288.586 30.4233 288.258 31.6487M288.258 31.6487L293.139 32.9566M280.931 39.0422C280.21 40.3086 278.733 40.9871 277.297 40.6023C275.861 40.2175 274.921 38.8914 274.931 37.4344C274.931 37.3154 274.932 37.2558 274.99 37.0332C275.025 36.8967 275.16 36.5961 275.238 36.4787C275.366 36.2872 275.475 36.189 275.693 35.9926L279.438 32.6147L280.992 37.4124C281.082 37.6914 281.127 37.8309 281.142 38.0606C281.151 38.2013 281.118 38.5291 281.08 38.6651C281.019 38.887 280.99 38.9387 280.931 39.0422ZM292.469 42.1337C291.748 43.4001 290.271 44.0787 288.835 43.6939C287.399 43.3091 286.459 41.9829 286.468 40.5259C286.469 40.4069 286.469 40.3474 286.528 40.1247C286.563 39.9882 286.698 39.6876 286.776 39.5702C286.904 39.3787 287.013 39.2805 287.23 39.0841L290.975 35.7062L292.529 40.5039C292.62 40.7829 292.665 40.9224 292.68 41.1521C292.689 41.2929 292.655 41.6206 292.618 41.7566C292.557 41.9785 292.527 42.0303 292.469 42.1337Z" stroke="white" stroke-opacity="0.901961" stroke-width="1.29716" stroke-linecap="round" stroke-linejoin="round"/>
</g>
</g>
</g>
<defs>
<filter id="filter0_f_1412_1660" x="35.6699" y="4.79736" width="247.33" height="97.6582" filterUnits="userSpaceOnUse" color-interpolation-filters="sRGB">
<feFlood flood-opacity="0" result="BackgroundImageFix"/>
<feBlend mode="normal" in="SourceGraphic" in2="BackgroundImageFix" result="shape"/>
<feGaussianBlur stdDeviation="18" result="effect1_foregroundBlur_1412_1660"/>
</filter>
<filter id="filter1_dd_1412_1660" x="4" y="-0.544434" width="64.6021" height="64.6021" filterUnits="userSpaceOnUse" color-interpolation-filters="sRGB">
<feFlood flood-opacity="0" result="BackgroundImageFix"/>
<feColorMatrix in="SourceAlpha" type="matrix" values="0 0 0 0 0 0 0 0 0 0 0 0 0 0 0 0 0 0 127 0" result="hardAlpha"/>
<feOffset dy="2"/>
<feGaussianBlur stdDeviation="1"/>
<feComposite in2="hardAlpha" operator="out"/>
<feColorMatrix type="matrix" values="0 0 0 0 0 0 0 0 0 0 0 0 0 0 0 0 0 0 0.03 0"/>
<feBlend mode="normal" in2="BackgroundImageFix" result="effect1_dropShadow_1412_1660"/>
<feColorMatrix in="SourceAlpha" type="matrix" values="0 0 0 0 0 0 0 0 0 0 0 0 0 0 0 0 0 0 127 0" result="hardAlpha"/>
<feOffset dy="4"/>
<feGaussianBlur stdDeviation="6"/>
<feComposite in2="hardAlpha" operator="out"/>
<feColorMatrix type="matrix" values="0 0 0 0 0 0 0 0 0 0 0 0 0 0 0 0 0 0 0.02 0"/>
<feBlend mode="normal" in2="effect1_dropShadow_1412_1660" result="effect2_dropShadow_1412_1660"/>
<feBlend mode="normal" in="SourceGraphic" in2="effect2_dropShadow_1412_1660" result="shape"/>
</filter>
<filter id="filter2_dd_1412_1660" x="9.48657" y="4.94238" width="53.6292" height="53.6289" filterUnits="userSpaceOnUse" color-interpolation-filters="sRGB">
<feFlood flood-opacity="0" result="BackgroundImageFix"/>
<feColorMatrix in="SourceAlpha" type="matrix" values="0 0 0 0 0 0 0 0 0 0 0 0 0 0 0 0 0 0 127 0" result="hardAlpha"/>
<feOffset dy="2"/>
<feGaussianBlur stdDeviation="1"/>
<feComposite in2="hardAlpha" operator="out"/>
<feColorMatrix type="matrix" values="0 0 0 0 0 0 0 0 0 0 0 0 0 0 0 0 0 0 0.03 0"/>
<feBlend mode="normal" in2="BackgroundImageFix" result="effect1_dropShadow_1412_1660"/>
<feColorMatrix in="SourceAlpha" type="matrix" values="0 0 0 0 0 0 0 0 0 0 0 0 0 0 0 0 0 0 127 0" result="hardAlpha"/>
<feOffset dy="4"/>
<feGaussianBlur stdDeviation="6"/>
<feComposite in2="hardAlpha" operator="out"/>
<feColorMatrix type="matrix" values="0 0 0 0 0 0 0 0 0 0 0 0 0 0 0 0 0 0 0.02 0"/>
<feBlend mode="normal" in2="effect1_dropShadow_1412_1660" result="effect2_dropShadow_1412_1660"/>
<feBlend mode="normal" in="SourceGraphic" in2="effect2_dropShadow_1412_1660" result="shape"/>
</filter>
<filter id="filter3_dd_1412_1660" x="178" y="-7.54443" width="68.4666" height="68.4663" filterUnits="userSpaceOnUse" color-interpolation-filters="sRGB">
<feFlood flood-opacity="0" result="BackgroundImageFix"/>
<feColorMatrix in="SourceAlpha" type="matrix" values="0 0 0 0 0 0 0 0 0 0 0 0 0 0 0 0 0 0 127 0" result="hardAlpha"/>
<feOffset dy="2"/>
<feGaussianBlur stdDeviation="1"/>
<feComposite in2="hardAlpha" operator="out"/>
<feColorMatrix type="matrix" values="0 0 0 0 0 0 0 0 0 0 0 0 0 0 0 0 0 0 0.03 0"/>
<feBlend mode="normal" in2="BackgroundImageFix" result="effect1_dropShadow_1412_1660"/>
<feColorMatrix in="SourceAlpha" type="matrix" values="0 0 0 0 0 0 0 0 0 0 0 0 0 0 0 0 0 0 127 0" result="hardAlpha"/>
<feOffset dy="4"/>
<feGaussianBlur stdDeviation="6"/>
<feComposite in2="hardAlpha" operator="out"/>
<feColorMatrix type="matrix" values="0 0 0 0 0 0 0 0 0 0 0 0 0 0 0 0 0 0 0.02 0"/>
<feBlend mode="normal" in2="effect1_dropShadow_1412_1660" result="effect2_dropShadow_1412_1660"/>
<feBlend mode="normal" in="SourceGraphic" in2="effect2_dropShadow_1412_1660" result="shape"/>
</filter>
<filter id="filter4_dd_1412_1660" x="186.594" y="1.04883" width="51.2795" height="51.2798" filterUnits="userSpaceOnUse" color-interpolation-filters="sRGB">
<feFlood flood-opacity="0" result="BackgroundImageFix"/>
<feColorMatrix in="SourceAlpha" type="matrix" values="0 0 0 0 0 0 0 0 0 0 0 0 0 0 0 0 0 0 127 0" result="hardAlpha"/>
<feOffset dy="2"/>
<feGaussianBlur stdDeviation="1"/>
<feComposite in2="hardAlpha" operator="out"/>
<feColorMatrix type="matrix" values="0 0 0 0 0 0 0 0 0 0 0 0 0 0 0 0 0 0 0.03 0"/>
<feBlend mode="normal" in2="BackgroundImageFix" result="effect1_dropShadow_1412_1660"/>
<feColorMatrix in="SourceAlpha" type="matrix" values="0 0 0 0 0 0 0 0 0 0 0 0 0 0 0 0 0 0 127 0" result="hardAlpha"/>
<feOffset dy="4"/>
<feGaussianBlur stdDeviation="6"/>
<feComposite in2="hardAlpha" operator="out"/>
<feColorMatrix type="matrix" values="0 0 0 0 0 0 0 0 0 0 0 0 0 0 0 0 0 0 0.02 0"/>
<feBlend mode="normal" in2="effect1_dropShadow_1412_1660" result="effect2_dropShadow_1412_1660"/>
<feBlend mode="normal" in="SourceGraphic" in2="effect2_dropShadow_1412_1660" result="shape"/>
</filter>
<filter id="filter5_dd_1412_1660" x="49.4353" y="46.451" width="48.1322" height="46.9223" filterUnits="userSpaceOnUse" color-interpolation-filters="sRGB">
<feFlood flood-opacity="0" result="BackgroundImageFix"/>
<feColorMatrix in="SourceAlpha" type="matrix" values="0 0 0 0 0 0 0 0 0 0 0 0 0 0 0 0 0 0 127 0" result="hardAlpha"/>
<feOffset dy="1.27164"/>
<feGaussianBlur stdDeviation="0.63582"/>
<feComposite in2="hardAlpha" operator="out"/>
<feColorMatrix type="matrix" values="0 0 0 0 0 0 0 0 0 0 0 0 0 0 0 0 0 0 0.03 0"/>
<feBlend mode="normal" in2="BackgroundImageFix" result="effect1_dropShadow_1412_1660"/>
<feColorMatrix in="SourceAlpha" type="matrix" values="0 0 0 0 0 0 0 0 0 0 0 0 0 0 0 0 0 0 127 0" result="hardAlpha"/>
<feOffset dy="2.54328"/>
<feGaussianBlur stdDeviation="3.81492"/>
<feComposite in2="hardAlpha" operator="out"/>
<feColorMatrix type="matrix" values="0 0 0 0 0 0 0 0 0 0 0 0 0 0 0 0 0 0 0.02 0"/>
<feBlend mode="normal" in2="effect1_dropShadow_1412_1660" result="effect2_dropShadow_1412_1660"/>
<feBlend mode="normal" in="SourceGraphic" in2="effect2_dropShadow_1412_1660" result="shape"/>
</filter>
<filter id="filter6_dd_1412_1660" x="204.459" y="41.3559" width="56.3094" height="51.611" filterUnits="userSpaceOnUse" color-interpolation-filters="sRGB">
<feFlood flood-opacity="0" result="BackgroundImageFix"/>
<feColorMatrix in="SourceAlpha" type="matrix" values="0 0 0 0 0 0 0 0 0 0 0 0 0 0 0 0 0 0 127 0" result="hardAlpha"/>
<feOffset dy="1.25966"/>
<feGaussianBlur stdDeviation="0.62983"/>
<feComposite in2="hardAlpha" operator="out"/>
<feColorMatrix type="matrix" values="0 0 0 0 0 0 0 0 0 0 0 0 0 0 0 0 0 0 0.03 0"/>
<feBlend mode="normal" in2="BackgroundImageFix" result="effect1_dropShadow_1412_1660"/>
<feColorMatrix in="SourceAlpha" type="matrix" values="0 0 0 0 0 0 0 0 0 0 0 0 0 0 0 0 0 0 127 0" result="hardAlpha"/>
<feOffset dy="2.51932"/>
<feGaussianBlur stdDeviation="3.77898"/>
<feComposite in2="hardAlpha" operator="out"/>
<feColorMatrix type="matrix" values="0 0 0 0 0 0 0 0 0 0 0 0 0 0 0 0 0 0 0.02 0"/>
<feBlend mode="normal" in2="effect1_dropShadow_1412_1660" result="effect2_dropShadow_1412_1660"/>
<feBlend mode="normal" in="SourceGraphic" in2="effect2_dropShadow_1412_1660" result="shape"/>
</filter>
<filter id="filter7_dd_1412_1660" x="254.451" y="12.2812" width="59.6069" height="59.6072" filterUnits="userSpaceOnUse" color-interpolation-filters="sRGB">
<feFlood flood-opacity="0" result="BackgroundImageFix"/>
<feColorMatrix in="SourceAlpha" type="matrix" values="0 0 0 0 0 0 0 0 0 0 0 0 0 0 0 0 0 0 127 0" result="hardAlpha"/>
<feOffset dy="4.37406"/>
<feGaussianBlur stdDeviation="4.37406"/>
<feComposite in2="hardAlpha" operator="out"/>
<feColorMatrix type="matrix" values="0 0 0 0 0 0 0 0 0 0 0 0 0 0 0 0 0 0 0.06 0"/>
<feBlend mode="normal" in2="BackgroundImageFix" result="effect1_dropShadow_1412_1660"/>
<feColorMatrix in="SourceAlpha" type="matrix" values="0 0 0 0 0 0 0 0 0 0 0 0 0 0 0 0 0 0 127 0" result="hardAlpha"/>
<feOffset dy="4.37406"/>
<feGaussianBlur stdDeviation="6.56109"/>
<feComposite in2="hardAlpha" operator="out"/>
<feColorMatrix type="matrix" values="0 0 0 0 0 0 0 0 0 0 0 0 0 0 0 0 0 0 0.04 0"/>
<feBlend mode="normal" in2="effect1_dropShadow_1412_1660" result="effect2_dropShadow_1412_1660"/>
<feBlend mode="normal" in="SourceGraphic" in2="effect2_dropShadow_1412_1660" result="shape"/>
</filter>
<clipPath id="clip0_1412_1660">
<rect width="320" height="100" fill="white" transform="translate(0 0.455566)"/>
</clipPath>
<clipPath id="clip1_1412_1660">
<rect width="32.67" height="32.67" fill="white" transform="translate(25.2769 7.45557) rotate(16.4962)"/>
</clipPath>
<clipPath id="clip2_1412_1660">
<rect width="32.67" height="32.67" fill="white" transform="translate(190 16.416) rotate(-29.2445)"/>
</clipPath>
<clipPath id="clip3_1412_1660">
<rect width="22.0518" height="22.0518" fill="white" transform="translate(276.458 24.2065) rotate(15)"/>
</clipPath>
</defs>
</svg>
