<svg width="48" height="48" viewBox="0 0 48 48" fill="none" xmlns="http://www.w3.org/2000/svg">
    <g clip-path="url(#clip0_1851_8957)">
        <circle cx="24" cy="24" r="24" fill="#FAFAFA"/>
        <rect x="28.4835" y="6.76172" width="7" height="21.5" transform="rotate(60 28.4835 6.76172)" fill="white"/>
        <rect x="20.6761" y="22.2389" width="7" height="9.5" transform="rotate(60 20.6761 22.2389)" fill="white"/>
        <rect x="37.9835" y="23.2162" width="7" height="21.5" transform="rotate(60 37.9835 23.2162)" fill="white"/>
        <mask id="mask0_1851_8957" style="mask-type:luminance" maskUnits="userSpaceOnUse" x="0" y="-1" width="50"
              height="50">
            <path d="M48.2342 11.5739L48.4283 10.8494L47.7039 10.6553L11.9646 1.07902L11.2402 0.884908L11.0461 1.60935L1.47899 37.3142L1.28488 38.0387L2.00932 38.2328L37.7486 47.8091L38.473 48.0032L38.6671 47.2787L48.2342 11.5739Z"
                  fill="white" stroke="white" stroke-width="1.5"/>
        </mask>
        <g mask="url(#mask0_1851_8957)">
            <mask id="path-7-outside-1_1851_8957" maskUnits="userSpaceOnUse" x="-0.255274" y="-0.646023" width="50.2145"
                  height="50.2145" fill="black">
                <rect fill="white" x="-0.255274" y="-0.646023" width="50.2145" height="50.2145"/>
                <path d="M41.7262 31.0499L41.7844 25.4964C41.7871 25.3334 41.6957 25.1815 41.553 25.1023L36.7388 22.4519C36.7028 22.4332 36.6615 22.4175 36.6232 22.4073C36.5035 22.3616 36.3657 22.3656 36.2472 22.4339L25.2207 28.793L25.2727 23.9931C25.2754 23.83 25.184 23.6782 25.0413 23.599L20.9059 21.3216L31.927 14.9657C31.9917 14.9284 32.0385 14.8727 32.0768 14.8147C32.1378 14.74 32.1767 14.6458 32.1762 14.5456L32.2343 8.99208C32.2369 8.829 32.1455 8.67712 32.0029 8.59795L27.1887 5.94757C27.0935 5.89478 26.9869 5.88442 26.8864 5.90297L26.8821 5.90183C26.8532 5.90773 26.8274 5.91902 26.7974 5.92917C26.7716 5.94046 26.7396 5.94098 26.7169 5.95765L7.90898 16.7972C7.90898 16.7972 7.87212 16.8328 7.84944 16.8494C7.72637 16.9348 7.6537 17.07 7.65866 17.2215L7.7535 22.6294C7.75732 22.7851 7.83824 22.9251 7.96822 23.0009L12.4245 25.6781L12.5187 30.8676C12.5225 31.0233 12.6034 31.1632 12.7333 31.239L17.2055 33.9251L17.2982 39.1368C17.3021 39.2926 17.383 39.4325 17.513 39.5083L22.1731 42.3084C22.208 42.3314 22.2493 42.3473 22.2875 42.3575C22.296 42.3598 22.3057 42.3576 22.3184 42.361C22.3184 42.361 22.3227 42.3621 22.3269 42.3633C22.4374 42.3929 22.5593 42.3802 22.667 42.318L41.4824 31.4668C41.547 31.4295 41.594 31.3739 41.6324 31.3159C41.6934 31.2413 41.7323 31.147 41.7319 31.0468L41.7262 31.0499ZM33.5286 35.0275L33.5768 30.5133L36.6191 28.7623L40.4277 31.0522L33.5317 35.0329L33.5286 35.0275ZM22.8577 41.1815L22.9059 36.6674L28.411 33.4925L32.2196 35.7824L22.8577 41.1815ZM28.8495 32.2131L28.7795 28.327L32.2604 30.2424L28.8506 32.2089L28.8495 32.2131ZM32.6826 31.029L32.6414 34.99L29.2956 32.9787L32.6838 31.0248L32.6826 31.029ZM33.1641 29.7248L29.2192 27.553L36.0979 23.586L36.1753 27.9883L33.1641 29.7248ZM27.8898 28.316L27.9672 32.7184L22.489 35.8777L18.544 33.706L27.8898 28.316ZM40.8935 25.7446L40.8453 30.2587L37.0642 27.9853L36.9845 23.5915L40.8935 25.7446ZM18.075 32.9068L18.1231 28.3927L20.1055 27.2494L23.9141 29.5394L18.075 32.9068ZM20.5439 25.9701L20.474 22.084L23.9548 23.9994L20.545 25.9658L20.5439 25.9701ZM24.3348 28.7512L20.9889 26.74L24.3771 24.786L24.3359 28.747L24.3348 28.7512ZM19.6648 26.4807L17.7094 27.6084L13.7644 25.4366L19.5873 22.0785L19.6648 26.4807ZM18.3947 11.7764L18.4721 16.1788L12.9453 19.366L9.00035 17.1942L18.3947 11.7764ZM26.5554 7.07006L26.6329 11.4723L23.6702 13.1809L19.7252 11.0092L26.5554 7.07006ZM24.0346 18.4836L24.0817 13.9737L27.0767 12.2464L30.8864 14.5321L24.0346 18.4836ZM19.3543 15.6735L19.2844 11.7874L22.7652 13.7028L19.3555 15.6692L19.3543 15.6735ZM23.1875 14.4893L23.1463 18.4504L19.8047 16.4402L23.1929 14.4862L23.1875 14.4893ZM18.9213 16.9497L22.7311 19.2354L13.3206 24.6625L13.3676 20.1526L18.9213 16.9497ZM31.3488 9.23712L31.3005 13.7513L27.5194 11.4778L27.4398 7.08408L31.3488 9.23712ZM8.56383 17.9736L12.0447 19.889L8.63489 21.8555L8.56496 17.9693L8.56383 17.9736ZM9.07875 22.6296L12.467 20.6756L12.4257 24.6366L9.08412 22.6265L9.07875 22.6296ZM13.4033 30.6086L13.3236 26.2148L17.2326 28.3679L17.1844 32.8821L13.4033 30.6086ZM18.1074 34.4853L21.5883 36.4007L18.1786 38.3671L18.1086 34.481L18.1074 34.4853ZM18.6223 39.1412L22.0105 37.1872L21.9694 41.1482L18.6235 39.137L18.6223 39.1412Z"/>
            </mask>
            <path d="M41.7262 31.0499L41.7844 25.4964C41.7871 25.3334 41.6957 25.1815 41.553 25.1023L36.7388 22.4519C36.7028 22.4332 36.6615 22.4175 36.6232 22.4073C36.5035 22.3616 36.3657 22.3656 36.2472 22.4339L25.2207 28.793L25.2727 23.9931C25.2754 23.83 25.184 23.6782 25.0413 23.599L20.9059 21.3216L31.927 14.9657C31.9917 14.9284 32.0385 14.8727 32.0768 14.8147C32.1378 14.74 32.1767 14.6458 32.1762 14.5456L32.2343 8.99208C32.2369 8.829 32.1455 8.67712 32.0029 8.59795L27.1887 5.94757C27.0935 5.89478 26.9869 5.88442 26.8864 5.90297L26.8821 5.90183C26.8532 5.90773 26.8274 5.91902 26.7974 5.92917C26.7716 5.94046 26.7396 5.94098 26.7169 5.95765L7.90898 16.7972C7.90898 16.7972 7.87212 16.8328 7.84944 16.8494C7.72637 16.9348 7.6537 17.07 7.65866 17.2215L7.7535 22.6294C7.75732 22.7851 7.83824 22.9251 7.96822 23.0009L12.4245 25.6781L12.5187 30.8676C12.5225 31.0233 12.6034 31.1632 12.7333 31.239L17.2055 33.9251L17.2982 39.1368C17.3021 39.2926 17.383 39.4325 17.513 39.5083L22.1731 42.3084C22.208 42.3314 22.2493 42.3473 22.2875 42.3575C22.296 42.3598 22.3057 42.3576 22.3184 42.361C22.3184 42.361 22.3227 42.3621 22.3269 42.3633C22.4374 42.3929 22.5593 42.3802 22.667 42.318L41.4824 31.4668C41.547 31.4295 41.594 31.3739 41.6324 31.3159C41.6934 31.2413 41.7323 31.147 41.7319 31.0468L41.7262 31.0499ZM33.5286 35.0275L33.5768 30.5133L36.6191 28.7623L40.4277 31.0522L33.5317 35.0329L33.5286 35.0275ZM22.8577 41.1815L22.9059 36.6674L28.411 33.4925L32.2196 35.7824L22.8577 41.1815ZM28.8495 32.2131L28.7795 28.327L32.2604 30.2424L28.8506 32.2089L28.8495 32.2131ZM32.6826 31.029L32.6414 34.99L29.2956 32.9787L32.6838 31.0248L32.6826 31.029ZM33.1641 29.7248L29.2192 27.553L36.0979 23.586L36.1753 27.9883L33.1641 29.7248ZM27.8898 28.316L27.9672 32.7184L22.489 35.8777L18.544 33.706L27.8898 28.316ZM40.8935 25.7446L40.8453 30.2587L37.0642 27.9853L36.9845 23.5915L40.8935 25.7446ZM18.075 32.9068L18.1231 28.3927L20.1055 27.2494L23.9141 29.5394L18.075 32.9068ZM20.5439 25.9701L20.474 22.084L23.9548 23.9994L20.545 25.9658L20.5439 25.9701ZM24.3348 28.7512L20.9889 26.74L24.3771 24.786L24.3359 28.747L24.3348 28.7512ZM19.6648 26.4807L17.7094 27.6084L13.7644 25.4366L19.5873 22.0785L19.6648 26.4807ZM18.3947 11.7764L18.4721 16.1788L12.9453 19.366L9.00035 17.1942L18.3947 11.7764ZM26.5554 7.07006L26.6329 11.4723L23.6702 13.1809L19.7252 11.0092L26.5554 7.07006ZM24.0346 18.4836L24.0817 13.9737L27.0767 12.2464L30.8864 14.5321L24.0346 18.4836ZM19.3543 15.6735L19.2844 11.7874L22.7652 13.7028L19.3555 15.6692L19.3543 15.6735ZM23.1875 14.4893L23.1463 18.4504L19.8047 16.4402L23.1929 14.4862L23.1875 14.4893ZM18.9213 16.9497L22.7311 19.2354L13.3206 24.6625L13.3676 20.1526L18.9213 16.9497ZM31.3488 9.23712L31.3005 13.7513L27.5194 11.4778L27.4398 7.08408L31.3488 9.23712ZM8.56383 17.9736L12.0447 19.889L8.63489 21.8555L8.56496 17.9693L8.56383 17.9736ZM9.07875 22.6296L12.467 20.6756L12.4257 24.6366L9.08412 22.6265L9.07875 22.6296ZM13.4033 30.6086L13.3236 26.2148L17.2326 28.3679L17.1844 32.8821L13.4033 30.6086ZM18.1074 34.4853L21.5883 36.4007L18.1786 38.3671L18.1086 34.481L18.1074 34.4853ZM18.6223 39.1412L22.0105 37.1872L21.9694 41.1482L18.6235 39.137L18.6223 39.1412Z"
                  fill="#37149F"/>
            <path d="M41.7262 31.0499L41.7844 25.4964C41.7871 25.3334 41.6957 25.1815 41.553 25.1023L36.7388 22.4519C36.7028 22.4332 36.6615 22.4175 36.6232 22.4073C36.5035 22.3616 36.3657 22.3656 36.2472 22.4339L25.2207 28.793L25.2727 23.9931C25.2754 23.83 25.184 23.6782 25.0413 23.599L20.9059 21.3216L31.927 14.9657C31.9917 14.9284 32.0385 14.8727 32.0768 14.8147C32.1378 14.74 32.1767 14.6458 32.1762 14.5456L32.2343 8.99208C32.2369 8.829 32.1455 8.67712 32.0029 8.59795L27.1887 5.94757C27.0935 5.89478 26.9869 5.88442 26.8864 5.90297L26.8821 5.90183C26.8532 5.90773 26.8274 5.91902 26.7974 5.92917C26.7716 5.94046 26.7396 5.94098 26.7169 5.95765L7.90898 16.7972C7.90898 16.7972 7.87212 16.8328 7.84944 16.8494C7.72637 16.9348 7.6537 17.07 7.65866 17.2215L7.7535 22.6294C7.75732 22.7851 7.83824 22.9251 7.96822 23.0009L12.4245 25.6781L12.5187 30.8676C12.5225 31.0233 12.6034 31.1632 12.7333 31.239L17.2055 33.9251L17.2982 39.1368C17.3021 39.2926 17.383 39.4325 17.513 39.5083L22.1731 42.3084C22.208 42.3314 22.2493 42.3473 22.2875 42.3575C22.296 42.3598 22.3057 42.3576 22.3184 42.361C22.3184 42.361 22.3227 42.3621 22.3269 42.3633C22.4374 42.3929 22.5593 42.3802 22.667 42.318L41.4824 31.4668C41.547 31.4295 41.594 31.3739 41.6324 31.3159C41.6934 31.2413 41.7323 31.147 41.7319 31.0468L41.7262 31.0499ZM33.5286 35.0275L33.5768 30.5133L36.6191 28.7623L40.4277 31.0522L33.5317 35.0329L33.5286 35.0275ZM22.8577 41.1815L22.9059 36.6674L28.411 33.4925L32.2196 35.7824L22.8577 41.1815ZM28.8495 32.2131L28.7795 28.327L32.2604 30.2424L28.8506 32.2089L28.8495 32.2131ZM32.6826 31.029L32.6414 34.99L29.2956 32.9787L32.6838 31.0248L32.6826 31.029ZM33.1641 29.7248L29.2192 27.553L36.0979 23.586L36.1753 27.9883L33.1641 29.7248ZM27.8898 28.316L27.9672 32.7184L22.489 35.8777L18.544 33.706L27.8898 28.316ZM40.8935 25.7446L40.8453 30.2587L37.0642 27.9853L36.9845 23.5915L40.8935 25.7446ZM18.075 32.9068L18.1231 28.3927L20.1055 27.2494L23.9141 29.5394L18.075 32.9068ZM20.5439 25.9701L20.474 22.084L23.9548 23.9994L20.545 25.9658L20.5439 25.9701ZM24.3348 28.7512L20.9889 26.74L24.3771 24.786L24.3359 28.747L24.3348 28.7512ZM19.6648 26.4807L17.7094 27.6084L13.7644 25.4366L19.5873 22.0785L19.6648 26.4807ZM18.3947 11.7764L18.4721 16.1788L12.9453 19.366L9.00035 17.1942L18.3947 11.7764ZM26.5554 7.07006L26.6329 11.4723L23.6702 13.1809L19.7252 11.0092L26.5554 7.07006ZM24.0346 18.4836L24.0817 13.9737L27.0767 12.2464L30.8864 14.5321L24.0346 18.4836ZM19.3543 15.6735L19.2844 11.7874L22.7652 13.7028L19.3555 15.6692L19.3543 15.6735ZM23.1875 14.4893L23.1463 18.4504L19.8047 16.4402L23.1929 14.4862L23.1875 14.4893ZM18.9213 16.9497L22.7311 19.2354L13.3206 24.6625L13.3676 20.1526L18.9213 16.9497ZM31.3488 9.23712L31.3005 13.7513L27.5194 11.4778L27.4398 7.08408L31.3488 9.23712ZM8.56383 17.9736L12.0447 19.889L8.63489 21.8555L8.56496 17.9693L8.56383 17.9736ZM9.07875 22.6296L12.467 20.6756L12.4257 24.6366L9.08412 22.6265L9.07875 22.6296ZM13.4033 30.6086L13.3236 26.2148L17.2326 28.3679L17.1844 32.8821L13.4033 30.6086ZM18.1074 34.4853L21.5883 36.4007L18.1786 38.3671L18.1086 34.481L18.1074 34.4853ZM18.6223 39.1412L22.0105 37.1872L21.9694 41.1482L18.6235 39.137L18.6223 39.1412Z"
                  stroke="white" stroke-width="3" mask="url(#path-7-outside-1_1851_8957)"/>
        </g>
    </g>
    <defs>
        <clipPath id="clip0_1851_8957">
            <rect width="48" height="48" rx="24" fill="white"/>
        </clipPath>
    </defs>
</svg>
