<svg width="48" height="48" viewBox="0 0 48 48" fill="none" xmlns="http://www.w3.org/2000/svg">
<mask id="mask0_716_800" style="mask-type:alpha" maskUnits="userSpaceOnUse" x="0" y="0" width="48" height="48">
<circle cx="24" cy="24" r="24" fill="#FAFAFA"/>
</mask>
<g mask="url(#mask0_716_800)">
<rect x="-33" y="-4" width="102" height="102" fill="#F8F7F2"/>
<g clipPath="url(#clip0_716_800)">
<path d="M43.1287 39.2303V43.0527H39.3057V39.2303H43.1287Z" fill="#190066"/>
<path d="M43.1285 27.7633V31.5856H39.3054V27.7633H43.1285Z" fill="#190066"/>
<path d="M43.1287 16.2928V20.1152H39.3057V16.2928H43.1287Z" fill="#190066"/>
<path d="M43.1285 4.82239V8.6482H39.3054V4.82239H43.1285Z" fill="#190066"/>
<path d="M31.6607 39.2303V43.0527H27.8376V39.2303H31.6607Z" fill="#190066"/>
<path d="M31.6607 27.7633V31.5856H27.8376V27.7633H31.6607Z" fill="#190066"/>
<path d="M31.6607 16.2928V20.1152H27.8376V16.2928H31.6607Z" fill="#190066"/>
<path d="M31.6607 4.82239V8.6482H27.8376V4.82239H31.6607Z" fill="#190066"/>
<path d="M20.1912 39.2303V43.0527H16.3682V39.2303H20.1912Z" fill="#190066"/>
<path d="M20.1912 27.7633V31.5856H16.3682V27.7633H20.1912Z" fill="#190066"/>
<path d="M20.1912 16.2928V20.1152H16.3682V16.2928H20.1912Z" fill="#190066"/>
<path d="M20.1912 4.82239V8.6482H16.3682V4.82239H20.1912Z" fill="#190066"/>
<path d="M1.07568 52.6102C1.07568 49.4441 3.64335 46.875 6.81024 46.875C9.97747 46.875 12.5448 49.4441 12.5448 52.6102C12.5448 55.7764 9.97747 58.3455 6.81024 58.3455C3.64335 58.3455 1.07568 55.7764 1.07568 52.6102Z" fill="white"/>
<path d="M8.72245 39.2303V43.0527H4.89941V39.2303H8.72245Z" fill="#190066"/>
<path d="M8.72282 27.7633V31.5856H4.89978V27.7633H8.72282Z" fill="#190066"/>
<path d="M8.72245 16.2928V20.1152H4.89941V16.2928H8.72245Z" fill="#190066"/>
<path d="M8.72245 4.82239V8.6482H4.89941V4.82239H8.72245Z" fill="#190066"/>
</g>
</g>
<defs>
<clipPath id="clip0_716_800">
<rect width="126.37" height="92" fill="white" transform="translate(-44.8 1)"/>
</clipPath>
</defs>
</svg>
