<svg width="32" height="32" viewBox="0 0 32 32" fill="none" xmlns="http://www.w3.org/2000/svg">
<path d="M2.4374 4.59742C2.91602 4.38831 3.2505 3.91076 3.2505 3.35509C3.2505 2.60668 2.64378 2 1.89536 2C1.14692 2 0.540207 2.60668 0.540207 3.35509C0.540207 3.91076 0.874681 4.3883 1.35329 4.5974V28.6801C1.35329 28.8713 1.5083 29.0262 1.69956 29.0262H2.09116C2.28243 29.0262 2.4374 28.8713 2.4374 28.6801V4.59742Z" fill="black"/>
<path fill-rule="evenodd" clip-rule="evenodd" d="M12.9773 21.9737C8.82158 21.9737 6.53507 22.2156 4.37979 22.5858C4.1671 22.6223 3.97193 22.4591 3.97193 22.2433V4.63685C3.97193 4.46242 4.10129 4.31527 4.27429 4.293L4.69855 4.23807C6.73566 3.97356 9.24458 3.64782 12.497 3.64782C15.31 3.64782 17.6222 3.90311 19.6673 4.1289C21.2888 4.3079 22.7423 4.46838 24.1441 4.46838C27.1238 4.46838 29.2761 4.34754 31.3187 4.10586C31.5258 4.08136 31.7086 4.24249 31.7086 4.45098V22.1077C31.7086 22.2693 31.5974 22.4098 31.4382 22.4368C30.0325 22.675 26.7221 22.7942 24.1441 22.7942C22.9172 22.7942 21.4298 22.6323 19.7764 22.4523L19.7734 22.452C17.7056 22.227 15.3786 21.9737 12.9773 21.9737ZM18.8492 8.23086V12.2432C20.6456 12.439 21.6224 12.5368 22.9428 12.5368V14.9985C21.7237 14.9985 20.5048 14.9008 18.8492 14.7049V18.771C18.2632 18.6642 17.8784 18.6101 17.567 18.5662L17.5651 18.5659C17.2454 18.5209 17.0031 18.4866 16.6991 18.4174C16.6833 18.0754 16.6799 16.3822 16.6817 14.4586C15.0336 14.3147 13.6322 14.3147 12.8567 14.3147V11.9421C12.9877 11.9421 13.1207 11.9419 13.2558 11.9417C14.2679 11.94 15.4009 11.9381 16.686 12.0289C16.6913 9.88031 16.6991 8.02372 16.6991 8.02372C17.2995 8.02372 18.8492 8.23086 18.8492 8.23086Z" fill="black"/>
</svg>
