<svg width="36" height="36" viewBox="0 0 36 36" fill="none" xmlns="http://www.w3.org/2000/svg">
    <g>
        <mask id="mask0_513_21" maskUnits="userSpaceOnUse" x="0" y="0" width="36"
              height="36">
            <path d="M36 0H0V36H36V0Z" fill="white"/>
        </mask>
        <g mask="url(#mask0_513_21)">
            <path
                    d="M18 36C27.9411 36 36 27.9411 36 18C36 8.05887 27.9411 0 18 0C8.05887 0 0 8.05887 0 18C0 27.9411 8.05887 36 18 36Z"
                    fill="#FF0420"/>
            <path
                    d="M12.7536 22.7841C11.6818 22.7841 10.8037 22.532 10.1191 22.0276C9.44364 21.5142 9.1059 20.7847 9.1059 19.839C9.1059 19.6409 9.1284 19.3977 9.17343 19.1095C9.29054 18.461 9.45714 17.6819 9.67332 16.7722C10.2858 14.2954 11.8664 13.057 14.4153 13.057C15.1088 13.057 15.7303 13.1741 16.2797 13.4083C16.8291 13.6334 17.2614 13.9757 17.5766 14.435C17.8919 14.8853 18.0495 15.4258 18.0495 16.0562C18.0495 16.2454 18.027 16.484 17.9819 16.7722C17.8468 17.5738 17.6847 18.3529 17.4955 19.1095C17.1803 20.3434 16.6354 21.2666 15.8609 21.879C15.0863 22.4824 14.0505 22.7841 12.7536 22.7841ZM12.9427 20.8387C13.4471 20.8387 13.8749 20.6901 14.2262 20.3929C14.5864 20.0957 14.8431 19.6409 14.9962 19.0284C15.2034 18.1818 15.361 17.4432 15.4691 16.8128C15.5051 16.6236 15.5231 16.43 15.5231 16.2318C15.5231 15.4122 15.0953 15.0024 14.2397 15.0024C13.7353 15.0024 13.303 15.1511 12.9427 15.4483C12.5915 15.7455 12.3393 16.2003 12.1861 16.8128C12.024 17.4162 11.8619 18.1548 11.6998 19.0284C11.6638 19.2085 11.6458 19.3977 11.6458 19.5958C11.6458 20.4244 12.0781 20.8387 12.9427 20.8387Z"
                    fill="white"/>
            <path
                    d="M18.6698 22.649C18.5707 22.649 18.4941 22.6174 18.4401 22.5544C18.3951 22.4823 18.3816 22.4013 18.3996 22.3112L20.2639 13.5298C20.282 13.4307 20.3315 13.3496 20.4125 13.2866C20.4936 13.2235 20.5792 13.192 20.6692 13.192H24.2629C25.2626 13.192 26.0642 13.3992 26.6676 13.8135C27.2801 14.2278 27.5863 14.8267 27.5863 15.6103C27.5863 15.8355 27.5593 16.0696 27.5053 16.3128C27.2801 17.3486 26.8253 18.1141 26.1408 18.6095C25.4653 19.1048 24.5376 19.3526 23.3577 19.3526H21.5339L20.9124 22.3112C20.8944 22.4103 20.8449 22.4913 20.7638 22.5544C20.6827 22.6174 20.5972 22.649 20.5071 22.649H18.6698ZM23.4523 17.4882C23.8306 17.4882 24.1593 17.3846 24.4385 17.1774C24.7267 16.9703 24.9159 16.6731 25.0059 16.2858C25.0329 16.1327 25.0464 15.9976 25.0464 15.8805C25.0464 15.6193 24.9699 15.4211 24.8168 15.2861C24.6637 15.142 24.4025 15.0699 24.0332 15.0699H22.412L21.8987 17.4882H23.4523Z"
                    fill="white"/>
        </g>
    </g>
    <defs>
        <clipPath id="clip0_513_21">
            <rect width="36" height="36" fill="white"/>
        </clipPath>
    </defs>
</svg>