<svg width="457" height="155" viewBox="0 0 457 155" fill="none" xmlns="http://www.w3.org/2000/svg">
<g clip-path="url(#clip0_7671_18109)">
<path d="M0 8C0 3.58172 3.58172 0 8 0H449C453.418 0 457 3.58172 457 8V147C457 151.418 453.418 155 449 155H8C3.58172 155 0 151.418 0 147V8Z" fill="#FAFAFA"/>
<line opacity="0.1" x1="46.5" y1="-281" x2="46.5" y2="297" stroke="black" stroke-dasharray="2 2"/>
<line opacity="0.1" x1="97.5" y1="-281" x2="97.5" y2="297" stroke="black" stroke-dasharray="2 2"/>
<line opacity="0.1" x1="148.5" y1="-281" x2="148.5" y2="297" stroke="black" stroke-dasharray="2 2"/>
<line opacity="0.1" x1="199.5" y1="-281" x2="199.5" y2="297" stroke="black" stroke-dasharray="2 2"/>
<line opacity="0.1" x1="250.5" y1="-281" x2="250.5" y2="297" stroke="black" stroke-dasharray="2 2"/>
<line opacity="0.1" x1="301.5" y1="-281" x2="301.5" y2="297" stroke="black" stroke-dasharray="2 2"/>
<line opacity="0.1" x1="352.5" y1="-281" x2="352.5" y2="297" stroke="black" stroke-dasharray="2 2"/>
<line opacity="0.1" x1="403.5" y1="-281" x2="403.5" y2="297" stroke="black" stroke-dasharray="2 2"/>
<line opacity="0.1" x1="491" y1="28.5" x2="-42" y2="28.5" stroke="black" stroke-dasharray="2 2"/>
<line opacity="0.1" x1="491" y1="79.5" x2="-42" y2="79.5" stroke="black" stroke-dasharray="2 2"/>
<line opacity="0.1" x1="491" y1="130.5" x2="-42" y2="130.5" stroke="black" stroke-dasharray="2 2"/>
</g>
<g clip-path="url(#clip1_7671_18109)" filter="url(#filter0_dd_7671_18109)">
<g filter="url(#filter1_dd_7671_18109)">
<path d="M227.919 27.307L229.067 35.8892C229.228 37.0921 229.309 37.6936 229.528 38.2356C229.722 38.716 229.995 39.1605 230.336 39.5505C230.721 39.9905 231.221 40.3338 232.222 41.0204L239.362 45.9189L230.78 47.0674C229.577 47.2284 228.975 47.3089 228.433 47.5279C227.953 47.722 227.509 47.9952 227.119 48.3363C226.679 48.7211 226.335 49.2215 225.649 50.2223L220.75 57.3623L219.602 48.78C219.441 47.5771 219.36 46.9756 219.141 46.4336C218.947 45.9532 218.674 45.5088 218.333 45.1188C217.948 44.6787 217.448 44.3354 216.447 43.6488L209.307 38.7503L217.889 37.6018C219.092 37.4408 219.693 37.3603 220.236 37.1413C220.716 36.9472 221.16 36.674 221.55 36.3329C221.99 35.9481 222.334 35.4477 223.02 34.4469L227.919 27.307Z" fill="#FFC93F"/>
<path d="M227.919 27.307L229.067 35.8892C229.228 37.0921 229.309 37.6936 229.528 38.2356C229.722 38.716 229.995 39.1605 230.336 39.5505C230.721 39.9905 231.221 40.3338 232.222 41.0204L239.362 45.9189L230.78 47.0674C229.577 47.2284 228.975 47.3089 228.433 47.5279C227.953 47.722 227.509 47.9952 227.119 48.3363C226.679 48.7211 226.335 49.2215 225.649 50.2223L220.75 57.3623L219.602 48.78C219.441 47.5771 219.36 46.9756 219.141 46.4336C218.947 45.9532 218.674 45.5088 218.333 45.1188C217.948 44.6787 217.448 44.3354 216.447 43.6488L209.307 38.7503L217.889 37.6018C219.092 37.4408 219.693 37.3603 220.236 37.1413C220.716 36.9472 221.16 36.674 221.55 36.3329C221.99 35.9481 222.334 35.4477 223.02 34.4469L227.919 27.307Z" stroke="white" stroke-width="4" stroke-linecap="round" stroke-linejoin="round"/>
</g>
</g>
<g filter="url(#filter2_dd_7671_18109)">
<path d="M287.145 55.6517L255.484 45.5034C253.842 44.9772 253.021 44.7141 252.291 44.8326C251.65 44.9369 251.057 45.2416 250.599 45.7031C250.079 46.2278 249.816 47.0488 249.29 48.6906L247.34 54.7724C246.881 56.2065 246.651 56.9236 246.596 57.6503C246.548 58.2946 246.602 58.9424 246.755 59.5701C246.928 60.278 247.273 60.9476 247.962 62.2867L253.801 73.6349C254.59 75.168 254.984 75.9345 254.987 76.6736C254.99 77.3238 254.787 77.958 254.406 78.4855C253.974 79.0852 253.208 79.4796 251.675 80.2685L240.327 86.1077C238.987 86.7968 238.318 87.1413 237.766 87.6168C237.276 88.0383 236.856 88.5343 236.52 89.0866C236.142 89.7094 235.912 90.4265 235.453 91.8606L233.503 97.9423C232.977 99.5842 232.714 100.405 232.832 101.135C232.937 101.776 233.241 102.369 233.703 102.827C234.228 103.347 235.049 103.61 236.69 104.136L268.352 114.285C269.994 114.811 270.815 115.074 271.545 114.956C272.186 114.851 272.779 114.547 273.236 114.085C273.757 113.56 274.02 112.739 274.546 111.098L276.496 105.016C276.955 103.582 277.185 102.865 277.24 102.138C277.288 101.494 277.234 100.846 277.081 100.218C276.908 99.5101 276.563 98.8406 275.874 97.5015L270.035 86.1533C269.246 84.6202 268.852 83.8536 268.849 83.1145C268.846 82.4644 269.049 81.8302 269.429 81.3027C269.861 80.703 270.628 80.3086 272.161 79.5197L283.509 73.6804C284.848 72.9914 285.518 72.6469 286.07 72.1714C286.56 71.7498 286.98 71.2538 287.316 70.7016C287.694 70.0787 287.924 69.3617 288.383 67.9276L290.333 61.8458C290.859 60.2039 291.122 59.383 291.003 58.6535C290.899 58.0118 290.594 57.4195 290.133 56.9616C289.608 56.4411 288.787 56.178 287.145 55.6517Z" fill="#FFEAE2"/>
<path d="M230.858 101.455L232.832 101.135L230.858 101.455C231.03 102.514 231.533 103.491 232.294 104.246L233.683 102.846L232.294 104.246C232.819 104.767 233.424 105.084 234.014 105.328C234.567 105.556 235.249 105.775 236.011 106.019L236.08 106.041L267.742 116.189L267.811 116.211C268.573 116.456 269.255 116.674 269.837 116.81C270.46 116.955 271.136 117.048 271.865 116.93C272.924 116.758 273.901 116.255 274.656 115.494C275.177 114.969 275.494 114.364 275.738 113.774C275.966 113.221 276.185 112.539 276.429 111.777L276.451 111.708L278.4 105.626C278.422 105.56 278.443 105.495 278.463 105.43C278.863 104.186 279.162 103.254 279.234 102.287L277.24 102.138L279.234 102.287C279.298 101.433 279.227 100.575 279.024 99.7434L277.081 100.218L279.024 99.7434C278.793 98.801 278.345 97.931 277.747 96.7696C277.716 96.7094 277.684 96.6483 277.653 96.5864L271.813 85.2382C271.404 84.4423 271.153 83.9516 270.994 83.5689C270.844 83.2079 270.849 83.1069 270.849 83.1066C270.848 82.8788 270.919 82.6566 271.052 82.4718C271.052 82.4715 271.107 82.3867 271.439 82.1801C271.791 81.9611 272.28 81.7076 273.076 81.2981L284.424 75.4588C284.486 75.427 284.547 75.3956 284.608 75.3646C285.77 74.7674 286.64 74.32 287.375 73.687L286.134 72.2459L287.375 73.687C288.024 73.1285 288.581 72.4714 289.025 71.7398L287.316 70.7016L289.025 71.7398C289.529 70.9106 289.827 69.9785 290.225 68.7342C290.246 68.6697 290.267 68.6043 290.288 68.538L292.237 62.4563L292.259 62.387C292.504 61.6254 292.722 60.943 292.858 60.3608C293.003 59.7383 293.096 59.0619 292.978 58.3327C292.806 57.2741 292.303 56.2971 291.542 55.5418L290.138 56.957L291.542 55.5418C291.017 55.0215 290.412 54.7043 289.822 54.4603C289.269 54.2321 288.587 54.0134 287.825 53.7693L287.756 53.7472L256.094 43.5989C256.071 43.5915 256.048 43.5841 256.025 43.5767C255.263 43.3325 254.581 43.1138 253.999 42.9783C253.376 42.8334 252.7 42.74 251.971 42.8585C250.912 43.0305 249.935 43.5332 249.18 44.2946C248.659 44.819 248.342 45.4237 248.098 46.0144C247.87 46.5668 247.651 47.2494 247.407 48.011C247.4 48.034 247.392 48.0571 247.385 48.0802L245.436 54.1619C245.414 54.2282 245.393 54.2936 245.373 54.3581C244.973 55.602 244.674 56.5338 244.602 57.5013C244.538 58.3549 244.609 59.2132 244.812 60.0447L246.755 59.5701L244.812 60.0447C245.043 60.9872 245.491 61.8572 246.089 63.0185C246.12 63.0788 246.151 63.1398 246.183 63.2017L252.023 74.55C252.432 75.3458 252.683 75.8365 252.842 76.2192C252.99 76.5771 252.987 76.6795 252.987 76.6816L252.987 76.6816C252.988 76.9094 252.917 77.1316 252.784 77.3164L252.784 77.3164C252.783 77.3182 252.726 77.4033 252.397 77.6081C252.045 77.827 251.556 78.0805 250.76 78.4901L239.411 84.3293C239.35 84.3612 239.289 84.3926 239.228 84.4236C238.066 85.0208 237.196 85.4681 236.461 86.1011C235.812 86.6596 235.255 87.3168 234.811 88.0484C234.307 88.8776 234.009 89.8097 233.611 91.0539C233.59 91.1185 233.569 91.1839 233.548 91.2501L231.599 97.3319L231.577 97.4011C231.332 98.1627 231.114 98.8452 230.978 99.4273C230.833 100.05 230.74 100.726 230.858 101.455Z" stroke="white" stroke-width="4" stroke-linecap="round" stroke-linejoin="round"/>
</g>
<rect x="239.913" y="90.8965" width="35.3988" height="9.23447" rx="3.71406" transform="rotate(17.7718 239.913 90.8965)" fill="#FF4F04"/>
<g filter="url(#filter3_dd_7671_18109)">
<path d="M173.658 98.1264L176.838 100.594C177.784 101.329 178.923 101.774 180.114 101.874C181.306 101.975 182.501 101.727 183.553 101.16C184.605 100.594 185.47 99.734 186.043 98.6839C186.615 97.6339 186.871 96.4391 186.779 95.2446L186.471 91.2306C186.364 89.8054 186.708 88.3838 187.455 87.1683C188.208 85.9473 189.327 84.9973 190.654 84.454L194.37 82.9378C195.476 82.4858 196.427 81.7217 197.106 80.7382C197.786 79.7547 198.166 78.594 198.2 77.3969C198.234 76.2 197.922 75.0178 197.299 73.9938C196.677 72.9697 195.772 72.1478 194.693 71.6278L191.069 69.8794C189.774 69.2492 188.712 68.2238 188.035 66.951C187.353 65.6853 187.089 64.2368 187.28 62.8136L187.818 58.8253C187.978 57.639 187.79 56.4308 187.278 55.3472C186.767 54.2637 185.952 53.3514 184.934 52.7211C183.916 52.0899 182.738 51.7675 181.543 51.793C180.348 51.8186 179.187 52.191 178.2 52.865L174.887 55.1319C173.703 55.9396 172.294 56.3507 170.86 56.3065C169.43 56.2579 168.051 55.7571 166.921 54.8759L163.729 52.4139C162.783 51.679 161.645 51.2343 160.453 51.1339C159.261 51.0334 158.067 51.2814 157.015 51.8479C155.962 52.414 155.097 53.2742 154.525 54.3243C153.952 55.3744 153.696 56.5691 153.788 57.7637L154.096 61.7776C154.209 63.2066 153.867 64.6334 153.12 65.8537C152.367 67.0746 151.247 68.0247 149.921 68.5679L146.193 70.09C145.087 70.542 144.137 71.3061 143.457 72.2896C142.778 73.2731 142.398 74.4338 142.364 75.6309C142.329 76.8278 142.642 78.01 143.264 79.034C143.887 80.0581 144.792 80.88 145.87 81.4L149.495 83.1484C150.788 83.7729 151.851 84.7912 152.532 86.0572C153.214 87.3229 153.478 88.7714 153.287 90.1946L152.75 94.1829C152.59 95.3692 152.777 96.5774 153.289 97.661C153.801 98.7445 154.615 99.6568 155.633 100.287C156.651 100.918 157.829 101.24 159.024 101.214C160.219 101.188 161.38 100.817 162.367 100.143L165.68 97.8763C166.864 97.0686 168.273 96.6575 169.707 96.7018C171.14 96.7464 172.523 97.2452 173.658 98.1264Z" fill="#FD9979"/>
<path d="M174.26 83.9033C178.332 81.7118 179.851 76.6235 177.653 72.5383C175.454 68.4531 170.371 66.918 166.299 69.1096C162.226 71.3012 160.707 76.3895 162.906 80.4747C165.104 84.5599 170.188 86.0949 174.26 83.9033Z" fill="#FD9979"/>
<path d="M173.658 98.1264L176.838 100.594C177.784 101.329 178.923 101.774 180.114 101.874C181.306 101.975 182.501 101.727 183.553 101.16C184.605 100.594 185.47 99.734 186.043 98.6839C186.615 97.6339 186.871 96.4391 186.779 95.2446L186.471 91.2306C186.364 89.8054 186.708 88.3838 187.455 87.1683C188.208 85.9473 189.327 84.9973 190.654 84.454L194.37 82.9378C195.476 82.4858 196.427 81.7217 197.106 80.7382C197.786 79.7547 198.166 78.594 198.2 77.3969C198.234 76.2 197.922 75.0178 197.299 73.9938C196.677 72.9697 195.772 72.1478 194.693 71.6278L191.069 69.8794C189.774 69.2492 188.712 68.2238 188.035 66.951C187.353 65.6853 187.089 64.2368 187.28 62.8136L187.818 58.8253C187.978 57.639 187.79 56.4308 187.278 55.3472C186.767 54.2637 185.952 53.3514 184.934 52.7211C183.916 52.0899 182.738 51.7675 181.543 51.793C180.348 51.8186 179.187 52.191 178.2 52.865L174.887 55.1319C173.703 55.9396 172.294 56.3507 170.86 56.3065C169.43 56.2579 168.051 55.7571 166.921 54.8759L163.729 52.4139C162.783 51.679 161.645 51.2343 160.453 51.1339C159.261 51.0334 158.067 51.2814 157.015 51.8479C155.962 52.414 155.097 53.2742 154.525 54.3243C153.952 55.3744 153.696 56.5691 153.788 57.7637L154.096 61.7776C154.209 63.2066 153.867 64.6334 153.12 65.8537C152.367 67.0746 151.247 68.0247 149.921 68.5679L146.193 70.09C145.087 70.542 144.137 71.3061 143.457 72.2896C142.778 73.2731 142.398 74.4338 142.364 75.6309C142.329 76.8278 142.642 78.01 143.264 79.034C143.887 80.0581 144.792 80.88 145.87 81.4L149.495 83.1484C150.788 83.7729 151.851 84.7912 152.532 86.0572C153.214 87.3229 153.478 88.7714 153.287 90.1946L152.75 94.1829C152.59 95.3692 152.777 96.5774 153.289 97.661C153.801 98.7445 154.615 99.6568 155.633 100.287C156.651 100.918 157.829 101.24 159.024 101.214C160.219 101.188 161.38 100.817 162.367 100.143L165.68 97.8763C166.864 97.0686 168.273 96.6575 169.707 96.7018C171.14 96.7464 172.523 97.2452 173.658 98.1264Z" stroke="white" stroke-width="4" stroke-linecap="round" stroke-linejoin="round"/>
<path d="M174.26 83.9033C178.332 81.7118 179.851 76.6235 177.653 72.5383C175.454 68.4531 170.371 66.918 166.299 69.1096C162.226 71.3012 160.707 76.3895 162.906 80.4747C165.104 84.5599 170.188 86.0949 174.26 83.9033Z" stroke="white" stroke-width="4" stroke-linecap="round" stroke-linejoin="round"/>
</g>
<defs>
<filter id="filter0_dd_7671_18109" x="190" y="12" width="68.6689" height="68.668" filterUnits="userSpaceOnUse" color-interpolation-filters="sRGB">
<feFlood flood-opacity="0" result="BackgroundImageFix"/>
<feColorMatrix in="SourceAlpha" type="matrix" values="0 0 0 0 0 0 0 0 0 0 0 0 0 0 0 0 0 0 127 0" result="hardAlpha"/>
<feOffset dy="2"/>
<feGaussianBlur stdDeviation="1"/>
<feComposite in2="hardAlpha" operator="out"/>
<feColorMatrix type="matrix" values="0 0 0 0 0 0 0 0 0 0 0 0 0 0 0 0 0 0 0.03 0"/>
<feBlend mode="normal" in2="BackgroundImageFix" result="effect1_dropShadow_7671_18109"/>
<feColorMatrix in="SourceAlpha" type="matrix" values="0 0 0 0 0 0 0 0 0 0 0 0 0 0 0 0 0 0 127 0" result="hardAlpha"/>
<feOffset dy="4"/>
<feGaussianBlur stdDeviation="6"/>
<feComposite in2="hardAlpha" operator="out"/>
<feColorMatrix type="matrix" values="0 0 0 0 0 0 0 0 0 0 0 0 0 0 0 0 0 0 0.02 0"/>
<feBlend mode="normal" in2="effect1_dropShadow_7671_18109" result="effect2_dropShadow_7671_18109"/>
<feBlend mode="normal" in="SourceGraphic" in2="effect2_dropShadow_7671_18109" result="shape"/>
</filter>
<filter id="filter1_dd_7671_18109" x="195.307" y="17.3066" width="58.0557" height="58.0566" filterUnits="userSpaceOnUse" color-interpolation-filters="sRGB">
<feFlood flood-opacity="0" result="BackgroundImageFix"/>
<feColorMatrix in="SourceAlpha" type="matrix" values="0 0 0 0 0 0 0 0 0 0 0 0 0 0 0 0 0 0 127 0" result="hardAlpha"/>
<feOffset dy="2"/>
<feGaussianBlur stdDeviation="1"/>
<feComposite in2="hardAlpha" operator="out"/>
<feColorMatrix type="matrix" values="0 0 0 0 0 0 0 0 0 0 0 0 0 0 0 0 0 0 0.03 0"/>
<feBlend mode="normal" in2="BackgroundImageFix" result="effect1_dropShadow_7671_18109"/>
<feColorMatrix in="SourceAlpha" type="matrix" values="0 0 0 0 0 0 0 0 0 0 0 0 0 0 0 0 0 0 127 0" result="hardAlpha"/>
<feOffset dy="4"/>
<feGaussianBlur stdDeviation="6"/>
<feComposite in2="hardAlpha" operator="out"/>
<feColorMatrix type="matrix" values="0 0 0 0 0 0 0 0 0 0 0 0 0 0 0 0 0 0 0.02 0"/>
<feBlend mode="normal" in2="effect1_dropShadow_7671_18109" result="effect2_dropShadow_7671_18109"/>
<feBlend mode="normal" in="SourceGraphic" in2="effect2_dropShadow_7671_18109" result="shape"/>
</filter>
<filter id="filter2_dd_7671_18109" x="206.52" y="25.9484" width="110.795" height="122.748" filterUnits="userSpaceOnUse" color-interpolation-filters="sRGB">
<feFlood flood-opacity="0" result="BackgroundImageFix"/>
<feColorMatrix in="SourceAlpha" type="matrix" values="0 0 0 0 0 0 0 0 0 0 0 0 0 0 0 0 0 0 127 0" result="hardAlpha"/>
<feOffset dy="3.71406"/>
<feGaussianBlur stdDeviation="1.85703"/>
<feComposite in2="hardAlpha" operator="out"/>
<feColorMatrix type="matrix" values="0 0 0 0 0 0 0 0 0 0 0 0 0 0 0 0 0 0 0.03 0"/>
<feBlend mode="normal" in2="BackgroundImageFix" result="effect1_dropShadow_7671_18109"/>
<feColorMatrix in="SourceAlpha" type="matrix" values="0 0 0 0 0 0 0 0 0 0 0 0 0 0 0 0 0 0 127 0" result="hardAlpha"/>
<feOffset dy="7.42812"/>
<feGaussianBlur stdDeviation="11.1422"/>
<feComposite in2="hardAlpha" operator="out"/>
<feColorMatrix type="matrix" values="0 0 0 0 0 0 0 0 0 0 0 0 0 0 0 0 0 0 0.02 0"/>
<feBlend mode="normal" in2="effect1_dropShadow_7671_18109" result="effect2_dropShadow_7671_18109"/>
<feBlend mode="normal" in="SourceGraphic" in2="effect2_dropShadow_7671_18109" result="shape"/>
</filter>
<filter id="filter3_dd_7671_18109" x="128.361" y="41.1113" width="83.8408" height="78.7852" filterUnits="userSpaceOnUse" color-interpolation-filters="sRGB">
<feFlood flood-opacity="0" result="BackgroundImageFix"/>
<feColorMatrix in="SourceAlpha" type="matrix" values="0 0 0 0 0 0 0 0 0 0 0 0 0 0 0 0 0 0 127 0" result="hardAlpha"/>
<feOffset dy="2"/>
<feGaussianBlur stdDeviation="1"/>
<feComposite in2="hardAlpha" operator="out"/>
<feColorMatrix type="matrix" values="0 0 0 0 0 0 0 0 0 0 0 0 0 0 0 0 0 0 0.03 0"/>
<feBlend mode="normal" in2="BackgroundImageFix" result="effect1_dropShadow_7671_18109"/>
<feColorMatrix in="SourceAlpha" type="matrix" values="0 0 0 0 0 0 0 0 0 0 0 0 0 0 0 0 0 0 127 0" result="hardAlpha"/>
<feOffset dy="4"/>
<feGaussianBlur stdDeviation="6"/>
<feComposite in2="hardAlpha" operator="out"/>
<feColorMatrix type="matrix" values="0 0 0 0 0 0 0 0 0 0 0 0 0 0 0 0 0 0 0.02 0"/>
<feBlend mode="normal" in2="effect1_dropShadow_7671_18109" result="effect2_dropShadow_7671_18109"/>
<feBlend mode="normal" in="SourceGraphic" in2="effect2_dropShadow_7671_18109" result="shape"/>
</filter>
<clipPath id="clip0_7671_18109">
<rect width="457" height="155" fill="white"/>
</clipPath>
<clipPath id="clip1_7671_18109">
<rect width="37.0781" height="37.0781" fill="white" transform="translate(210.603 20) rotate(13.4152)"/>
</clipPath>
</defs>
</svg>
