<svg width="48" height="48" viewBox="0 0 48 48" fill="none" xmlns="http://www.w3.org/2000/svg">
    <g clip-path="url(#clip0_1853_3070)">
        <circle cx="24" cy="24" r="24" fill="#FF0000"/>
        <path fill-rule="evenodd" clip-rule="evenodd"
              d="M13.1005 17C13.5945 17 14.0203 17.3474 14.1196 17.8313L14.6705 20.5173L17.3683 21.0668C17.8529 21.1655 18.201 21.5916 18.201 22.0862C18.201 22.5807 17.8529 23.0068 17.3683 23.1055L14.6705 23.655L14.1196 26.341C14.0203 26.8249 13.5945 27.1723 13.1005 27.1723C12.6065 27.1723 12.1807 26.8249 12.0814 26.341L11.5305 23.655L8.83269 23.1055C8.34812 23.0068 8 22.5807 8 22.0862C8 21.5916 8.34812 21.1655 8.83269 21.0668L11.5305 20.5173L12.0814 17.8313C12.1807 17.3474 12.6065 17 13.1005 17Z"
              fill="white"/>
        <path fill-rule="evenodd" clip-rule="evenodd"
              d="M34.7503 17C35.2442 17 35.6701 17.3474 35.7693 17.8313L36.3203 20.5173L39.0181 21.0668C39.5026 21.1655 39.8508 21.5916 39.8508 22.0862C39.8508 22.5807 39.5026 23.0068 39.0181 23.1055L36.3203 23.655L35.7693 26.341C35.6701 26.8249 35.2442 27.1723 34.7503 27.1723C34.2563 27.1723 33.8304 26.8249 33.7312 26.341L33.1802 23.655L30.4824 23.1055C29.9979 23.0068 29.6498 22.5807 29.6498 22.0862C29.6498 21.5916 29.9979 21.1655 30.4824 21.0668L33.1802 20.5173L33.7312 17.8313C33.8304 17.3474 34.2563 17 34.7503 17Z"
              fill="white"/>
        <path fill-rule="evenodd" clip-rule="evenodd"
              d="M18.4841 28.0281C18.4841 27.2306 19.1314 26.5846 19.9283 26.5846C20.7251 26.5846 21.3724 27.2306 21.3724 28.0281C21.3724 29.178 22.3065 30.1129 23.462 30.1129C24.6176 30.1129 25.5516 29.178 25.5516 28.0281C25.5516 27.2306 26.1989 26.5846 26.9958 26.5846C27.7926 26.5846 28.4399 27.2306 28.4399 28.0281C28.4399 30.7756 26.2098 33 23.462 33C20.7143 33 18.4841 30.7756 18.4841 28.0281Z"
              fill="white"/>
    </g>
    <defs>
        <clipPath id="clip0_1853_3070">
            <rect width="48" height="48" rx="24" fill="white"/>
        </clipPath>
    </defs>
</svg>
