<svg
    width="52"
    height="52"
    viewBox="0 0 80 80"
    fill="none"
    xmlns="http://www.w3.org/2000/svg"
>
    <g filter="url(#filter0_dd_3671_5234)">
    <path
        d="M43.339 5.66123L51.6749 13.5959L62.3649 9.33319L65.6168 20.3728L77.006 22.0262L74.3023 33.2127L83.3389 40.3392L75.4043 48.6751L79.667 59.3652L68.6274 62.617L66.974 74.0062L55.7875 71.3026L48.661 80.3392L40.3251 72.4045L29.635 76.6672L26.3832 65.6276L14.994 63.9742L17.6976 52.7877L8.66103 45.6612L16.5957 37.3253L12.333 26.6352L23.3726 23.3834L25.026 11.9942L36.2125 14.6978L43.339 5.66123Z"
        fill="#FF0420"
    />
    <path
        d="M43.4876 7.74629L50.7043 14.6156L51.358 15.2379L52.1964 14.9036L61.4511 11.2132L64.2663 20.7706L64.5214 21.6363L65.4145 21.766L75.2745 23.1974L72.9339 32.882L72.7219 33.7592L73.4306 34.3181L81.2539 40.4878L74.3846 47.7045L73.7623 48.3582L74.0966 49.1966L77.787 58.4513L68.2296 61.2666L67.3639 61.5216L67.2342 62.4147L65.8028 72.2748L56.1182 69.9341L55.241 69.7221L54.6821 70.4308L48.5124 78.2541L41.2957 71.3848L40.6419 70.7625L39.8036 71.0968L30.5489 74.7872L27.7336 65.2298L27.4786 64.3641L26.5855 64.2344L16.7254 62.803L19.0661 53.1184L19.2781 52.2412L18.5694 51.6823L10.7461 45.5126L17.6154 38.2959L18.2376 37.6422L17.9034 36.8038L14.213 27.5491L23.7704 24.7338L24.6361 24.4788L24.7658 23.5857L26.1972 13.7256L35.8817 16.0663L36.759 16.2783L37.3179 15.5696L43.4876 7.74629Z"
        stroke="white"
        stroke-width="2.81562"
    />
    </g>
    <path
    fill-rule="evenodd"
    clip-rule="evenodd"
    d="M41.7724 42.4293C42.5398 42.3746 43.2062 42.9524 43.2609 43.7198C43.3703 45.2547 44.7032 46.4102 46.2381 46.3008C47.7729 46.1915 48.9285 44.8585 48.8191 43.3237C48.7644 42.5563 49.3422 41.8898 50.1096 41.8351C50.877 41.7804 51.5435 42.3582 51.5982 43.1256C51.817 46.1953 49.5058 48.8612 46.4361 49.0799C43.3664 49.2987 40.7006 46.9876 40.4818 43.9179C40.4271 43.1504 41.0049 42.484 41.7724 42.4293Z"
    fill="white"
    />
    <path
    d="M31.9356 31.7829L32.8842 33.7626C33.7221 35.5115 35.2454 36.8336 37.0907 37.4136L39.1924 38.0741L37.2056 39.0261C35.4612 39.8619 34.1408 41.3866 33.5594 43.2367L32.9012 45.3309L31.9526 43.3512C31.1147 41.6023 29.5914 40.2802 27.7461 39.7002L25.6444 39.0397L27.6312 38.0877C29.3756 37.2519 30.696 35.7272 31.2774 33.8771L31.9356 31.7829Z"
    fill="white"
    />
    <path
    d="M58.6842 29.8776L59.6327 31.8573C60.4707 33.6062 61.9939 34.9283 63.8392 35.5083L65.941 36.1689L63.9542 37.1208C62.2097 37.9566 60.8894 39.4813 60.3079 41.3314L59.6497 43.4256L58.7012 41.4459C57.8632 39.697 56.34 38.3749 54.4946 37.7949L52.3929 37.1344L54.3797 36.1824C56.1241 35.3466 57.4445 33.8219 58.026 31.9718L58.6842 29.8776Z"
    fill="white"
    />
    <defs>
    <filter
        id="filter0_dd_3671_5234"
        x="0.21427"
        y="0.0298905"
        width="91.5715"
        height="91.5715"
        filterUnits="userSpaceOnUse"
        color-interpolation-filters="sRGB"
    >
        <feFlood flood-opacity="0" result="BackgroundImageFix" />
        <feColorMatrix
        in="SourceAlpha"
        type="matrix"
        values="0 0 0 0 0 0 0 0 0 0 0 0 0 0 0 0 0 0 127 0"
        result="hardAlpha"
        />
        <feOffset dy="1.40781" />
        <feGaussianBlur stdDeviation="0.703905" />
        <feComposite in2="hardAlpha" operator="out" />
        <feColorMatrix
        type="matrix"
        values="0 0 0 0 0 0 0 0 0 0 0 0 0 0 0 0 0 0 0.03 0"
        />
        <feBlend
        mode="normal"
        in2="BackgroundImageFix"
        result="effect1_dropShadow_3671_5234"
        />
        <feColorMatrix
        in="SourceAlpha"
        type="matrix"
        values="0 0 0 0 0 0 0 0 0 0 0 0 0 0 0 0 0 0 127 0"
        result="hardAlpha"
        />
        <feOffset dy="2.81562" />
        <feGaussianBlur stdDeviation="4.22343" />
        <feComposite in2="hardAlpha" operator="out" />
        <feColorMatrix
        type="matrix"
        values="0 0 0 0 0 0 0 0 0 0 0 0 0 0 0 0 0 0 0.02 0"
        />
        <feBlend
        mode="normal"
        in2="effect1_dropShadow_3671_5234"
        result="effect2_dropShadow_3671_5234"
        />
        <feBlend
        mode="normal"
        in="SourceGraphic"
        in2="effect2_dropShadow_3671_5234"
        result="shape"
        />
    </filter>
    </defs>
</svg>