<svg width="148" height="149" viewBox="0 0 148 149" fill="none" xmlns="http://www.w3.org/2000/svg">
<g clip-path="url(#clip0_10_686)">
<path d="M12.168 49.3051L17.9702 34.1582L23.8899 37.484L19.0509 50.3778H49.8672L45.3702 57.1089H17.5357L12.168 49.3051Z" fill="black"/>
<path d="M56.5922 6.06H43.4016C40.1291 6.06 37.4764 3.40732 37.4764 0.134766H28.4897C28.4897 3.40732 25.837 6.06 22.5644 6.06C19.2919 6.06 16.6404 3.40732 16.6404 0.134766H4.68164V27.0942H16.6404C16.6404 23.8216 19.2931 21.169 22.5657 21.169C25.8382 21.169 28.4909 23.8216 28.4909 27.0942V39.7812H37.4776V27.093C37.4776 23.821 40.1303 21.169 43.4028 21.169H61.8994L56.5922 6.06ZM22.5651 15.0497C18.1562 15.0497 14.2925 17.4307 12.1942 20.975H10.8009V6.25398H12.1942C14.2931 9.79823 18.1562 12.1792 22.5651 12.1792H52.2549L53.2627 15.0497H22.5651Z" fill="black"/>
<path d="M44.0985 34.1582H17.97L17.5215 41.087L40.3976 41.4236C44.9992 41.0356 46.6392 42.3482 50.1014 43.7917L83.7008 58.0372L90.9778 52.8439L44.0985 34.1582Z" fill="black"/>
<path d="M28.4902 41.086V51.1631C31.3375 46.2929 37.4769 38.4762 47.1691 42.4928C41.7891 37.4004 28.4902 41.086 28.4902 41.086Z" fill="black"/>
<path d="M34.9075 53.2568H31.0597C29.6406 53.2568 28.4902 54.4072 28.4902 55.8263V59.6741C28.4902 61.0931 29.6406 62.2435 31.0597 62.2435H34.9075C36.3265 62.2435 37.4769 61.0931 37.4769 59.6741V55.8263C37.4769 54.4072 36.3265 53.2568 34.9075 53.2568Z" fill="black"/>
<path d="M34.9075 73.4863H31.0597C29.6406 73.4863 28.4902 74.6367 28.4902 76.0558V98.7544C28.4902 100.173 29.6406 101.324 31.0597 101.324H34.9075C36.3265 101.324 37.4769 100.173 37.4769 98.7544V76.0558C37.4769 74.6367 36.3265 73.4863 34.9075 73.4863Z" fill="black"/>
<path d="M34.9075 110.514H31.0597C29.6406 110.514 28.4902 111.664 28.4902 113.083V135.782C28.4902 137.201 29.6406 138.351 31.0597 138.351H34.9075C36.3265 138.351 37.4769 137.201 37.4769 135.782V113.083C37.4769 111.664 36.3265 110.514 34.9075 110.514Z" fill="black"/>
<path d="M76.0726 76.5873L49.8652 50.3799L43.843 56.4021L70.0504 82.6095L76.0726 76.5873Z" fill="black"/>
<path d="M105.173 15.0488C109.591 15.0488 111.647 21.168 106.451 21.168H99.2297L96.7637 15.0488H105.173Z" fill="black"/>
<path d="M110.974 33.3933L109.592 35.7889H117.839C121.57 35.7889 122.651 39.7823 122.651 39.7823L131.953 32.4619" fill="black"/>
<path d="M49.7385 78.7792V56.6374C49.7385 53.1788 46.6727 50.375 42.8917 50.375H23.0734C19.2917 50.375 16.2266 53.1788 16.2266 56.6374V78.7792C16.2266 82.2378 19.2923 85.0416 23.0734 85.0416H42.8917C46.6733 85.0416 49.7385 82.2378 49.7385 78.7792ZM26.095 57.2016H39.8706C40.6649 57.2016 41.3086 58.1293 41.3086 59.2736V76.143C41.3086 77.2873 40.6649 78.215 39.8706 78.215H26.095C25.3008 78.215 24.657 77.2873 24.657 76.143V59.2736C24.657 58.1293 25.3008 57.2016 26.095 57.2016Z" fill="black"/>
<path d="M49.7385 78.7792V56.6374C49.7385 53.1788 46.6727 50.375 42.8917 50.375H23.0734C19.2917 50.375 16.2266 53.1788 16.2266 56.6374V78.7792C16.2266 82.2378 19.2923 85.0416 23.0734 85.0416H42.8917C46.6733 85.0416 49.7385 82.2378 49.7385 78.7792ZM26.095 57.2016H39.8706C40.6649 57.2016 41.3086 58.1293 41.3086 59.2736V76.143C41.3086 77.2873 40.6649 78.215 39.8706 78.215H26.095C25.3008 78.215 24.657 77.2873 24.657 76.143V59.2736C24.657 58.1293 25.3008 57.2016 26.095 57.2016Z" fill="black"/>
<path d="M49.7385 118.17V96.028C49.7385 92.5694 46.6727 89.7656 42.8917 89.7656H23.0734C19.2917 89.7656 16.2266 92.5694 16.2266 96.028V118.17C16.2266 121.628 19.2923 124.432 23.0734 124.432H42.8917C46.6733 124.432 49.7385 121.628 49.7385 118.17ZM26.095 96.5922H39.8706C40.6649 96.5922 41.3086 97.5199 41.3086 98.6642V115.534C41.3086 116.678 40.6649 117.606 39.8706 117.606H26.095C25.3008 117.606 24.657 116.678 24.657 115.534V98.6642C24.657 97.5199 25.3008 96.5922 26.095 96.5922Z" fill="black"/>
<path d="M49.7385 118.17V96.028C49.7385 92.5694 46.6727 89.7656 42.8917 89.7656H23.0734C19.2917 89.7656 16.2266 92.5694 16.2266 96.028V118.17C16.2266 121.628 19.2923 124.432 23.0734 124.432H42.8917C46.6733 124.432 49.7385 121.628 49.7385 118.17ZM26.095 96.5922H39.8706C40.6649 96.5922 41.3086 97.5199 41.3086 98.6642V115.534C41.3086 116.678 40.6649 117.606 39.8706 117.606H26.095C25.3008 117.606 24.657 116.678 24.657 115.534V98.6642C24.657 97.5199 25.3008 96.5922 26.095 96.5922Z" fill="black"/>
<path d="M147.71 17.1707H141.359C145.403 3.16806 137.893 0.134766 130.964 0.134766H117.372C118.837 3.21028 116.916 6.06 113.811 6.06H92.6417L95.145 12.1792H111.662C116.445 12.1792 122.463 11.7594 121.653 7.06417H129.205C136.524 7.06417 132.987 16.0453 131.401 18.4716H140.012V18.4851C140.007 23.2238 136.126 22.6058 131.387 22.6058H121.468C119.892 22.6058 118.003 23.8278 117.136 25.39H135.673C135.652 25.4371 135.632 25.4842 135.612 25.5307C134.26 28.6411 131.14 30.6079 127.748 30.6079H115.566C113.99 30.6079 111.987 31.8293 110.973 33.3921H129.245L102.894 47.0123C101.296 47.9828 99.467 48.9796 97.3639 50.0688C102.59 45.1551 100.649 39.1405 100.649 30.5503C91.6962 31.415 81.4882 25.0638 71.3804 31.415V28.6981C71.3804 20.0198 77.7273 17.4271 86.405 17.4271H97.8491L95.0165 10.5019H86.1192C74.0925 10.5019 65.0305 15.811 65.0317 27.8377L65.0336 41.2363C78.5362 32.0526 90.8677 36.6849 93.901 38.7054C93.901 48.4178 95.1928 51.0308 84.0558 56.6837L78.4114 59.7335C72.8588 62.7338 69.3984 68.536 69.3984 74.8474V115.713H0.576172C0.576172 118.261 2.10231 120.561 4.45025 121.55L17.9786 127.252V129.284C17.9786 131.673 16.5161 133.818 14.293 134.69L4.68094 138.463V142.335H64.3862L78.491 127.492L92.8503 134.533L84.9749 142.336H118.773L83.8967 125.132C79.2302 122.831 76.3248 118.09 76.3248 112.78V73.2515C76.3248 69.8039 78.1238 66.6066 81.0708 64.8173L84.1359 62.9565V106.568C84.1359 110.073 85.5158 112.259 89.6616 114.263C93.8074 116.267 131.463 134.473 131.463 134.473C133.694 135.552 134.291 138.449 132.704 140.497L131.278 142.336H147.645L147.537 134.92L132.417 127.378C142.819 125.008 147.709 117.108 147.709 108.903V101.183H134.259C141.651 98.9822 147.709 93.7918 147.709 81.6678V73.0667L139.334 77.4713C144.745 71.9548 147.709 64.6491 147.709 57.5147V50.5204L139.334 55.4519C143.926 50.0706 147.709 45.6532 147.709 32.6737V28.3762L139.334 33.1896C141.307 30.6966 147.709 27.5421 147.709 17.9148V17.1719L147.71 17.1707ZM94.6096 56.9707L104.596 51.8134C104.602 51.8305 104.613 51.8471 104.613 51.8654C104.613 55.2775 103.029 59.0524 99.0087 61.2443L89.3575 66.2915C89.9963 62.2675 91.4197 59.0445 94.6096 56.9707ZM88.852 73.7459C88.8881 70.9916 90.4491 68.484 92.8907 67.2069L104.795 60.9818C103.91 64.9642 101.788 68.8046 98.1716 70.7279L92.0114 74.0041C90.5691 74.8724 88.8361 77.4701 88.8361 77.4701C88.8361 76.1936 88.8361 74.9508 88.852 73.7459ZM104.629 75.1423C104.717 77.8598 103.255 80.3914 100.845 81.6513L89.5863 87.5392C90.197 83.916 91.5671 80.7983 94.609 79.0592L104.596 73.8371C104.602 74.2752 104.615 74.7103 104.629 75.1423ZM89.109 95.0763C89.1133 92.2859 90.6768 89.7311 93.1496 88.4381L104.725 82.385C104.456 86.059 103.266 89.1265 99.2216 91.149C97.4624 92.0283 94.3557 93.6205 93.4537 94.0721C89.9296 95.8344 89.1231 98.9803 89.1231 98.9803C89.1231 97.7088 89.1066 96.3962 89.109 95.0763ZM92.6196 101.007C92.6196 101.007 104.596 94.8621 104.596 94.8792C104.615 97.7436 103.036 100.38 100.497 101.707L90.2087 107.082C88.294 104.966 89.609 102.503 92.6196 101.007ZM92.4538 108.674C92.452 108.562 92.4526 108.605 92.4501 108.492L104.462 102.226C104.056 105.294 103.027 107.082 96.815 110.756L92.4532 108.675L92.4538 108.674ZM138.786 84.6791C138.786 89.6302 138.365 94.1394 134.438 96.264L114.197 107.323H138.786V108.275C138.786 115.363 135.161 121.96 129.177 125.76C129.177 125.76 113.103 118.183 102.169 113.305C111.062 108.985 114.036 100.945 114.036 90.4452L125.789 84.3982L138.785 78.3341V84.6785L138.786 84.6791ZM138.786 64.0463C138.786 68.0868 136.766 72.4174 132.722 74.441C132.722 74.441 120.079 80.7604 108.227 86.6856C111.038 84.077 113.508 79.2679 113.872 68.987L138.787 55.9592V64.0469L138.786 64.0463ZM138.786 42.5324C138.786 46.576 136.766 50.3295 132.722 52.3531L108.918 65.0126C112.278 62.2491 113.817 58.1474 114.036 46.9394L138.786 34.1582V42.5324Z" fill="black"/>
<path d="M70.6501 82.5201L68.0568 74.1582L61.6842 77.1842C59.6196 78.1645 58.1191 80.3282 58.1191 82.6137V91.095C58.1191 91.095 59.7628 87.5954 62.4014 86.437C65.04 85.2787 70.6501 82.5201 70.6501 82.5201Z" fill="black"/>
<path d="M70.6501 96.0741L71.5655 86.0459L61.6842 90.7381C59.6196 91.7184 58.1191 93.8822 58.1191 96.1677V104.649C58.1191 104.649 59.7628 101.149 62.4014 99.991C65.04 98.8326 70.6501 96.0741 70.6501 96.0741Z" fill="black"/>
<path d="M70.6501 109.629L71.5655 99.6006L61.6842 104.293C59.6196 105.273 58.1191 107.437 58.1191 109.722V118.204C58.1191 118.204 59.7628 114.704 62.4014 113.546C65.04 112.387 70.6501 109.629 70.6501 109.629Z" fill="black"/>
<path d="M96.1462 132.452L84.3098 134.894C81.2833 135.85 76.7581 135.829 76.4032 140.191C76.0483 144.554 75.6934 148.916 75.6934 148.916C75.6934 148.916 79.5809 142.333 87.7103 142.333C87.4221 145.875 87.1748 148.916 87.1748 148.916C87.1748 148.916 91.0624 142.333 99.1918 142.333C98.9036 145.875 98.6563 148.916 98.6563 148.916C98.6563 148.916 102.544 142.333 110.673 142.333L96.1462 132.452Z" fill="black"/>
<path d="M22.5666 15.0488H6.82617V21.168H22.5666V15.0488Z" fill="black"/>
<path d="M22.5666 6.05957H6.82617V12.1788H22.5666V6.05957Z" fill="black"/>
</g>
<defs>
<clipPath id="clip0_10_686">
<rect width="148" height="149" fill="white"/>
</clipPath>
</defs>
</svg>
