<svg width="430" height="130" viewBox="0 0 430 130" fill="none" xmlns="http://www.w3.org/2000/svg">
<g clip-path="url(#clip0_9_437)">
<g opacity="0.5">
<path d="M-9 -0.000423431C-9 -4.4187 -5.41828 -8.00043 -1 -8.00043H440C444.418 -8.00043 448 -4.4187 448 -0.000423431V139C448 143.418 444.418 147 440 147H-1C-5.41828 147 -9 143.418 -9 139V-0.000423431Z" fill="#FAFAFA"/>
<path opacity="0.1" d="M37.5 -289V289" stroke="black" stroke-dasharray="2 2"/>
<path opacity="0.1" d="M88.5 -289V289" stroke="black" stroke-dasharray="2 2"/>
<path opacity="0.1" d="M139.5 -289V289" stroke="black" stroke-dasharray="2 2"/>
<path opacity="0.1" d="M190.5 -289V289" stroke="black" stroke-dasharray="2 2"/>
<path opacity="0.1" d="M241.5 -289V289" stroke="black" stroke-dasharray="2 2"/>
<path opacity="0.1" d="M292.5 -289V289" stroke="black" stroke-dasharray="2 2"/>
<path opacity="0.1" d="M343.5 -289V289" stroke="black" stroke-dasharray="2 2"/>
<path opacity="0.1" d="M394.5 -289V289" stroke="black" stroke-dasharray="2 2"/>
<path opacity="0.1" d="M482 20.4996H-51" stroke="black" stroke-dasharray="2 2"/>
<path opacity="0.1" d="M482 71.4996H-51" stroke="black" stroke-dasharray="2 2"/>
<path opacity="0.1" d="M482 122.5H-51" stroke="black" stroke-dasharray="2 2"/>
</g>
<path d="M219.077 34.1832C221.066 34.7365 222.825 35.6847 224.367 37.0025C224.662 37.255 224.95 37.5485 225.275 37.8968C225.579 38.2232 225.952 38.6365 226.329 39.0123C226.622 39.3042 226.96 39.4692 227.218 39.5587C227.474 39.6475 227.854 39.7326 228.293 39.6826C229.546 39.5396 230.796 39.576 232.026 39.7872C232.909 39.9388 233.805 40.1943 234.772 40.4927C236.538 41.0382 238.093 42.0159 239.546 43.3015C240.667 44.2931 241.579 45.4515 242.305 46.7614C243.13 48.2499 243.652 49.8261 243.876 51.4984C243.913 51.7741 243.938 52.0523 243.954 52.3333C243.335 52.0822 242.714 51.8306 242.093 51.5813C241.955 50.569 241.702 49.5423 241.256 48.5389C240.237 46.2457 238.629 44.3582 236.382 43.0211C234.029 41.6214 231.4 41.0253 228.604 41.3013C226.184 41.5402 223.965 42.3852 222.008 43.8385C220.59 44.8915 219.446 46.183 218.607 47.6952C217.686 49.3533 217.113 51.1851 217.111 53.1692C217.111 53.2511 217.116 53.3331 217.118 53.4129C216.578 53.5846 215.993 53.6781 215.346 53.7218C215.324 52.7446 215.381 51.8068 215.561 50.8906C215.814 49.6072 216.268 48.3734 216.891 47.1762C217.501 46.0045 218.288 44.9363 219.245 43.9732C220.272 42.9391 221.45 42.0735 222.772 41.3487C222.916 41.2696 223.027 41.1883 223.067 41.1587C223.123 41.1173 223.126 41.1144 223.161 41.0896L225.175 39.6629L223.251 38.2265C222.975 38.021 222.404 37.5441 221.888 37.2313C221.367 36.9156 220.637 36.4574 219.819 36.1594C218.926 35.8345 217.975 35.5642 216.996 35.3952C215.305 35.103 213.617 35.1943 211.974 35.5929C208.843 36.3528 206.263 38.0247 204.429 40.645C202.356 43.6068 201.759 46.9026 202.63 50.3133C203.317 53.0041 204.85 55.2311 207.146 56.8862C207.903 57.4325 208.779 57.9623 209.742 58.3441C212.389 59.3945 215.188 59.6201 218.058 58.8364C219.847 58.3477 221.462 57.5256 222.889 56.3644C224.236 55.268 225.267 53.9563 226.04 52.477C226.942 50.7521 227.348 48.9585 227.361 47.1269C227.914 46.9494 228.502 46.8513 229.137 46.8104C229.184 48.2346 228.986 49.6417 228.551 51.0328C227.939 52.9926 226.933 54.7411 225.515 56.2638C224.566 57.283 223.488 58.1496 222.277 58.861L221.75 59.1561C221.606 59.2333 221.494 59.3134 221.448 59.3462C221.385 59.3905 221.377 59.3966 221.334 59.4257L219.302 60.8176L221.193 62.2856C221.262 62.3392 221.713 62.7293 222.067 62.9438C222.636 63.2883 223.542 63.912 224.464 64.3063C225.945 64.9402 227.537 65.2855 229.195 65.3036C231.051 65.3237 232.892 65.0027 234.652 64.2378C236.503 63.4331 238.134 62.2679 239.437 60.6828C239.566 60.526 240.149 59.7978 239.851 58.8352C239.577 57.9536 238.781 57.6587 238.663 57.612C238.54 57.5633 238.572 57.5731 238.383 57.4965C237.224 57.0269 236.065 56.5575 234.906 56.088C235.482 55.8641 236.06 55.6414 236.636 55.4161C238.776 56.2885 240.92 57.1554 243.059 58.0219C240.927 62.7268 238.793 67.4325 236.664 72.1398C236.025 72.3852 235.387 72.6329 234.749 72.8794L238.256 65.1419L234.622 66.0902C233.917 66.274 233.422 66.4138 232.885 66.5413C230.644 67.0729 228.42 67.0835 226.199 66.5534C225.362 66.3538 224.731 66.2038 224.18 65.9601C223.215 65.5327 222.266 65.0164 221.315 64.4511C220.453 63.9384 219.694 63.227 218.837 62.343C218.731 62.2134 218.543 61.9761 218.346 61.7513L218.124 61.5121L218.021 61.4134C217.776 61.1961 217.509 61.0627 217.296 60.9838C217.087 60.9066 216.776 60.8245 216.408 60.8359L216.246 60.8473C214.439 61.0359 212.691 60.9229 210.993 60.4565C210.212 60.242 209.611 60.0835 209.065 59.847C207.255 59.0636 205.677 58.0587 204.385 56.7241C203.446 55.7535 202.666 54.7336 202.079 53.6189L201.839 53.1356L201.749 52.9633C201.658 52.8052 201.567 52.6901 201.524 52.6361L201.524 52.6352L201.411 52.5072C201.3 52.3926 201.205 52.3198 201.181 52.3016C201.121 52.2547 201.146 52.2765 201.132 52.2647L199.255 50.738L196.275 57.312C196.021 56.6984 195.767 56.0843 195.512 55.4712C197.602 50.867 199.643 46.2873 201.763 41.7234C202.752 39.5948 204.258 37.8192 206.253 36.3863C207.443 35.5319 208.728 34.8662 210.115 34.3922C211.827 33.8067 213.603 33.5499 215.44 33.6069C216.661 33.6448 217.867 33.8464 219.077 34.1832Z" fill="black" stroke="black" stroke-width="3.63"/>
<mask id="mask0_9_437" style="mask-type:luminance" maskUnits="userSpaceOnUse" x="18" y="61" width="66" height="66">
<path d="M46.1088 61.4882L18.4882 99.091L56.091 126.712L83.7116 89.1088L46.1088 61.4882Z" fill="white"/>
</mask>
<g mask="url(#mask0_9_437)">
<g filter="url(#filter0_di_9_437)">
<g filter="url(#filter1_di_9_437)">
<path d="M35.4321 82.5914L45.9435 85.4593C47.4169 85.8613 48.1536 86.0623 48.8891 86.0737C49.5409 86.0838 50.1898 85.9844 50.809 85.7799C51.5074 85.549 52.1502 85.1369 53.4359 84.3127L62.6084 78.4322L59.7405 88.9436C59.3385 90.417 59.1375 91.1537 59.1262 91.8892C59.1161 92.5411 59.2155 93.19 59.42 93.809C59.6508 94.5075 60.063 95.1504 60.8872 96.436L66.7676 105.609L56.2563 102.741C54.7829 102.339 54.0461 102.138 53.3107 102.126C52.6588 102.116 52.0099 102.216 51.3908 102.42C50.6924 102.651 50.0495 103.063 48.7639 103.887L39.5913 109.768L42.4592 99.2564C42.8612 97.783 43.0623 97.0463 43.0736 96.3108C43.0837 95.6589 42.9843 95.01 42.7797 94.391C42.5489 93.6925 42.1368 93.0496 41.3125 91.764L35.4321 82.5914Z" fill="black"/>
<path d="M35.4321 82.5914L45.9435 85.4593C47.4169 85.8613 48.1536 86.0623 48.8891 86.0737C49.5409 86.0838 50.1898 85.9844 50.809 85.7799C51.5074 85.549 52.1502 85.1369 53.4359 84.3127L62.6084 78.4322L59.7405 88.9436C59.3385 90.417 59.1375 91.1537 59.1262 91.8892C59.1161 92.5411 59.2155 93.19 59.42 93.809C59.6508 94.5075 60.063 95.1504 60.8872 96.436L66.7676 105.609L56.2563 102.741C54.7829 102.339 54.0461 102.138 53.3107 102.126C52.6588 102.116 52.0099 102.216 51.3908 102.42C50.6924 102.651 50.0495 103.063 48.7639 103.887L39.5913 109.768L42.4592 99.2564C42.8612 97.783 43.0623 97.0463 43.0736 96.3108C43.0837 95.6589 42.9843 95.01 42.7797 94.391C42.5489 93.6925 42.1368 93.0496 41.3125 91.764L35.4321 82.5914Z" stroke="white" stroke-width="5.03336" stroke-linecap="round" stroke-linejoin="round"/>
</g>
</g>
</g>
<mask id="mask1_9_437" style="mask-type:luminance" maskUnits="userSpaceOnUse" x="68" y="-4" width="55" height="55">
<path d="M122.381 43.0242L115.024 -3.04907L68.9509 4.30765L76.3076 50.3809L122.381 43.0242Z" fill="white"/>
</mask>
<g mask="url(#mask1_9_437)">
<g filter="url(#filter2_di_9_437)">
<g filter="url(#filter3_di_9_437)">
<path d="M114.863 20.6005L105.438 26.0664C104.116 26.8325 103.456 27.2156 102.931 27.7311C102.466 28.1879 102.081 28.7195 101.791 29.3038C101.465 29.963 101.307 30.71 100.99 32.2041L98.7311 42.863L93.2653 33.4375C92.4991 32.1163 92.116 31.4558 91.6006 30.931C91.1437 30.4659 90.6121 30.0807 90.0279 29.7914C89.3687 29.4649 88.6216 29.3067 87.1277 28.99L76.4687 26.7311L85.8941 21.2652C87.2153 20.4991 87.8759 20.116 88.4006 19.6005C88.8658 19.1437 89.251 18.6121 89.5403 18.0279C89.8667 17.3686 90.0251 16.6216 90.3417 15.1276L92.6006 4.46863L98.0665 13.8941C98.8326 15.2153 99.2156 15.8759 99.7311 16.4006C100.188 16.8658 100.72 17.251 101.304 17.5402C101.963 17.8667 102.71 18.025 104.204 18.3416L114.863 20.6005Z" fill="black"/>
<path d="M114.863 20.6005L105.438 26.0664C104.116 26.8325 103.456 27.2156 102.931 27.7311C102.466 28.1879 102.081 28.7195 101.791 29.3038C101.465 29.963 101.307 30.71 100.99 32.2041L98.7311 42.863L93.2653 33.4375C92.4991 32.1163 92.116 31.4558 91.6006 30.931C91.1437 30.4659 90.6121 30.0807 90.0279 29.7914C89.3687 29.4649 88.6216 29.3067 87.1277 28.99L76.4687 26.7311L85.8941 21.2652C87.2153 20.4991 87.8759 20.116 88.4006 19.6005C88.8658 19.1437 89.251 18.6121 89.5403 18.0279C89.8667 17.3686 90.0251 16.6216 90.3417 15.1276L92.6006 4.46863L98.0665 13.8941C98.8326 15.2153 99.2156 15.8759 99.7311 16.4006C100.188 16.8658 100.72 17.251 101.304 17.5402C101.963 17.8667 102.71 18.025 104.204 18.3416L114.863 20.6005Z" stroke="white" stroke-width="5.03336" stroke-linecap="round" stroke-linejoin="round"/>
</g>
</g>
</g>
<mask id="mask2_9_437" style="mask-type:luminance" maskUnits="userSpaceOnUse" x="278" y="-8" width="64" height="64">
<path d="M318.71 -8L278 14.7936L300.794 55.5038L341.504 32.7101L318.71 -8Z" fill="white"/>
</mask>
<g mask="url(#mask2_9_437)">
<g filter="url(#filter4_di_9_437)">
<g filter="url(#filter5_di_9_437)">
<path d="M300.254 6.78937L308.635 13.7518C309.81 14.7277 310.397 15.2156 311.062 15.5305C311.651 15.8095 312.283 15.9878 312.931 16.0579C313.663 16.1369 314.418 16.0279 315.93 15.8099L326.714 14.2545L319.752 22.6355C318.776 23.8102 318.288 24.3976 317.973 25.0624C317.694 25.6516 317.516 26.2835 317.446 26.9317C317.366 27.663 317.476 28.4188 317.694 29.9304L319.249 40.7144L310.868 33.752C309.693 32.7761 309.106 32.2882 308.441 31.9733C307.852 31.6943 307.22 31.516 306.572 31.4459C305.84 31.3669 305.085 31.4759 303.573 31.6939L292.789 33.2493L299.751 24.8683C300.727 23.6936 301.215 23.1062 301.53 22.4414C301.809 21.8522 301.987 21.2203 302.057 20.5721C302.137 19.8408 302.028 19.085 301.81 17.5734L300.254 6.78937Z" fill="black"/>
<path d="M300.254 6.78937L308.635 13.7518C309.81 14.7277 310.397 15.2156 311.062 15.5305C311.651 15.8095 312.283 15.9878 312.931 16.0579C313.663 16.1369 314.418 16.0279 315.93 15.8099L326.714 14.2545L319.752 22.6355C318.776 23.8102 318.288 24.3976 317.973 25.0624C317.694 25.6516 317.516 26.2835 317.446 26.9317C317.366 27.663 317.476 28.4188 317.694 29.9304L319.249 40.7144L310.868 33.752C309.693 32.7761 309.106 32.2882 308.441 31.9733C307.852 31.6943 307.22 31.516 306.572 31.4459C305.84 31.3669 305.085 31.4759 303.573 31.6939L292.789 33.2493L299.751 24.8683C300.727 23.6936 301.215 23.1062 301.53 22.4414C301.809 21.8522 301.987 21.2203 302.057 20.5721C302.137 19.8408 302.028 19.085 301.81 17.5734L300.254 6.78937Z" stroke="white" stroke-width="5.03336" stroke-linecap="round" stroke-linejoin="round"/>
</g>
</g>
</g>
<mask id="mask3_9_437" style="mask-type:luminance" maskUnits="userSpaceOnUse" x="260" y="63" width="64" height="64">
<path d="M300.71 63L260 85.7936L282.794 126.504L323.504 103.71L300.71 63Z" fill="white"/>
</mask>
<g mask="url(#mask3_9_437)">
<g filter="url(#filter6_di_9_437)">
<g filter="url(#filter7_di_9_437)">
<path d="M282.254 77.7894L290.635 84.7518C291.81 85.7277 292.397 86.2156 293.062 86.5305C293.651 86.8095 294.283 86.9878 294.931 87.0579C295.663 87.1369 296.418 87.0279 297.93 86.8099L308.714 85.2545L301.752 93.6355C300.776 94.8102 300.288 95.3976 299.973 96.0624C299.694 96.6516 299.516 97.2835 299.446 97.9317C299.366 98.663 299.476 99.4188 299.694 100.93L301.249 111.714L292.868 104.752C291.693 103.776 291.106 103.288 290.441 102.973C289.852 102.694 289.22 102.516 288.572 102.446C287.84 102.367 287.085 102.476 285.573 102.694L274.789 104.249L281.751 95.8683C282.727 94.6936 283.215 94.1062 283.53 93.4414C283.809 92.8522 283.987 92.2203 284.057 91.5721C284.137 90.8408 284.028 90.085 283.81 88.5734L282.254 77.7894Z" fill="black"/>
<path d="M282.254 77.7894L290.635 84.7518C291.81 85.7277 292.397 86.2156 293.062 86.5305C293.651 86.8095 294.283 86.9878 294.931 87.0579C295.663 87.1369 296.418 87.0279 297.93 86.8099L308.714 85.2545L301.752 93.6355C300.776 94.8102 300.288 95.3976 299.973 96.0624C299.694 96.6516 299.516 97.2835 299.446 97.9317C299.366 98.663 299.476 99.4188 299.694 100.93L301.249 111.714L292.868 104.752C291.693 103.776 291.106 103.288 290.441 102.973C289.852 102.694 289.22 102.516 288.572 102.446C287.84 102.367 287.085 102.476 285.573 102.694L274.789 104.249L281.751 95.8683C282.727 94.6936 283.215 94.1062 283.53 93.4414C283.809 92.8522 283.987 92.2203 284.057 91.5721C284.137 90.8408 284.028 90.085 283.81 88.5734L282.254 77.7894Z" stroke="white" stroke-width="5.03336" stroke-linecap="round" stroke-linejoin="round"/>
</g>
</g>
</g>
<g filter="url(#filter8_di_9_437)">
<path d="M392.524 74.7701C395.304 64.3935 389.146 53.7275 378.77 50.9471C368.393 48.1667 357.727 54.3247 354.947 64.7013C352.166 75.078 358.324 85.7439 368.701 88.5243C379.078 91.3048 389.744 85.1468 392.524 74.7701Z" fill="black"/>
<path d="M394.033 75.1742C397.036 63.9645 390.384 52.4422 379.174 49.4386C367.964 46.4349 356.442 53.0873 353.439 64.297C350.435 75.5068 357.087 87.029 368.297 90.0327C379.507 93.0363 391.029 86.384 394.033 75.1742Z" stroke="white" stroke-width="3.12335"/>
<mask id="mask4_9_437" style="mask-type:luminance" maskUnits="userSpaceOnUse" x="354" y="50" width="40" height="40">
<path d="M393.021 58.6013L362.601 50.4504L354.45 80.87L384.87 89.0209L393.021 58.6013Z" fill="white"/>
</mask>
<g mask="url(#mask4_9_437)">
<path d="M361.355 67.7769L368.96 69.8147M377.832 72.192L385.437 74.2297M375.434 63.3984L370.679 81.1432M375.434 63.3984C377.184 63.8673 378.983 62.8288 379.452 61.0788M375.434 63.3984C373.684 62.9295 372.645 61.1307 373.114 59.3807M379.452 61.0788C379.921 59.3287 378.882 57.5299 377.132 57.061C375.382 56.5921 373.583 57.6306 373.114 59.3807M379.452 61.0788L386.423 62.9467M373.114 59.3807L366.143 57.5128M360.539 78.4262L380.819 83.8602M368.988 71.6377C367.959 73.4462 365.85 74.4153 363.799 73.8657C361.748 73.3162 360.406 71.4222 360.419 69.3415C360.42 69.1715 360.421 69.0865 360.504 68.7685C360.555 68.5736 360.747 68.1443 360.859 67.9767C361.041 67.7032 361.197 67.5629 361.508 67.2824L366.856 62.4584L369.075 69.3101C369.204 69.7086 369.269 69.9078 369.29 70.2358C369.303 70.4368 369.255 70.9049 369.201 71.0991C369.114 71.416 369.072 71.4899 368.988 71.6377ZM385.466 76.0528C384.437 77.8613 382.327 78.8304 380.276 78.2808C378.225 77.7313 376.883 75.8373 376.896 73.7566C376.897 73.5866 376.898 73.5016 376.981 73.1836C377.032 72.9887 377.224 72.5594 377.336 72.3918C377.518 72.1183 377.674 71.978 377.985 71.6975L383.333 66.8735L385.552 73.7252C385.682 74.1237 385.746 74.3229 385.767 74.6508C385.78 74.8519 385.732 75.3199 385.679 75.5142C385.592 75.8311 385.55 75.905 385.466 76.0528Z" stroke="white" stroke-opacity="0.901961" stroke-width="1.85251" stroke-linecap="round" stroke-linejoin="round"/>
</g>
</g>
<g filter="url(#filter9_d_9_437)">
<path d="M131.022 80.4656C131.902 84.9104 133.035 89.3254 134.129 93.4336C134.636 95.2775 136.37 96.0955 138.766 95.6153L139.018 95.5679C139.044 95.5628 139.069 95.5581 139.096 95.553C141.454 95.1081 142.633 93.7472 142.255 91.8986C141.382 87.7821 140.4 83.3616 139.152 78.9315C138.587 76.8951 136.337 76.5567 134.421 76.9165C132.507 77.2777 130.609 78.4002 131.022 80.4641L131.022 80.4656Z" fill="#1A1C1D"/>
<path d="M122.735 78.5112L120.209 78.9878C119.77 79.069 119.487 79.4533 119.581 79.8444L123.994 98.277C124.087 98.6665 124.521 98.9175 124.961 98.8344L127.487 98.3578C129.965 97.8904 131.552 95.7207 131.025 93.5213L128.183 81.6536C127.657 79.4542 125.213 78.0452 122.735 78.5127L122.735 78.5112Z" fill="#1A1C1D"/>
<path d="M117.903 71.133C117.462 71.2161 117.181 71.6001 117.275 71.9912L117.666 73.6237C118.193 75.8231 120.637 77.232 123.115 76.7645L126.973 76.0365C126.989 76.032 127.013 76.0272 127.049 76.0205C127.071 76.0164 127.099 76.0111 127.133 76.003L127.154 75.9991C127.219 75.9901 127.285 75.9776 127.351 75.9652C127.378 75.9601 127.417 75.9527 127.461 75.9427L127.648 75.9074C127.683 75.9026 127.727 75.8942 127.784 75.8802L127.805 75.8762C127.857 75.868 127.907 75.8602 127.959 75.8488C127.987 75.8434 128.023 75.8367 128.069 75.8248L128.09 75.8208C128.158 75.8096 128.21 75.8014 128.269 75.7902C128.292 75.7859 128.317 75.7811 128.349 75.7735L128.37 75.7695C128.435 75.7606 128.5 75.7485 128.568 75.7356C128.598 75.7299 128.633 75.7231 128.676 75.7119L128.697 75.7079C128.754 75.6988 128.816 75.6905 128.874 75.6778C128.914 75.6704 128.958 75.6619 129.011 75.6487L129.034 75.6443C129.079 75.6375 129.127 75.6268 129.17 75.6204C129.198 75.6149 129.231 75.6088 129.266 75.6005L129.286 75.5968C129.352 75.5859 129.413 75.5761 129.477 75.564C129.507 75.5583 129.543 75.5515 129.58 75.5413L129.601 75.5373C129.659 75.5281 129.718 75.5185 129.775 75.5078C129.816 75.5001 129.862 75.4913 129.917 75.4777L129.938 75.4737C129.983 75.4668 130.029 75.4564 130.074 75.4497C130.107 75.4436 130.148 75.4359 130.191 75.4242L130.215 75.4199C130.281 75.4091 130.327 75.4003 130.376 75.3927C130.404 75.3874 130.438 75.381 130.475 75.3723C130.56 75.3581 130.624 75.3476 130.687 75.3358C130.719 75.3297 130.754 75.323 130.793 75.3125L130.818 75.3077C130.875 75.2986 130.929 75.2901 130.986 75.2792C131.018 75.2732 131.054 75.2665 131.093 75.2559L131.114 75.2518C131.173 75.2424 131.231 75.2331 131.286 75.2228C131.327 75.2149 131.377 75.2056 131.426 75.193L131.447 75.1889C131.492 75.182 131.539 75.1749 131.582 75.1652C131.614 75.1592 131.648 75.1528 131.687 75.1438L131.708 75.1398C131.771 75.1312 131.826 75.1208 131.883 75.1099C131.93 75.1012 131.983 75.0912 132.038 75.0775L132.059 75.0734C132.103 75.067 132.146 75.0605 132.185 75.0515C132.222 75.0445 132.267 75.036 132.312 75.0241L132.334 75.0201C132.402 75.0089 132.447 75.002 132.497 74.9926C132.529 74.9865 132.563 74.9802 132.6 74.9715L132.621 74.9675C132.681 74.9596 132.74 74.95 132.793 74.9383C132.834 74.9306 132.879 74.9221 132.928 74.9096L132.949 74.9055C133.009 74.896 133.059 74.8882 133.105 74.8794C133.148 74.8714 133.189 74.8637 133.235 74.8516L133.256 74.8477C133.315 74.8381 133.364 74.8306 133.41 74.8219C133.45 74.8144 133.491 74.8067 133.535 74.7952L133.556 74.7911C133.615 74.7815 133.664 74.7741 133.712 74.765C133.753 74.7573 133.794 74.7496 133.838 74.7379L133.859 74.7339C133.92 74.724 133.967 74.7169 134.017 74.7074C134.065 74.6983 134.115 74.6889 134.164 74.6763L134.305 74.6497C134.35 74.6429 134.395 74.6345 134.442 74.6223L134.464 74.6182C134.532 74.607 134.575 74.6005 134.621 74.5917C134.66 74.5844 134.705 74.576 134.747 74.5646L134.79 74.5566C134.837 74.5495 134.878 74.5433 134.919 74.5356C134.957 74.5285 134.994 74.5214 135.035 74.5121L135.065 74.5063C135.119 74.4994 135.169 74.49 135.217 74.4809C135.264 74.4721 135.314 74.4628 135.363 74.4502L135.384 74.4461C135.436 74.4379 135.487 74.4301 135.531 74.4217C135.576 74.4133 135.619 74.4052 135.663 74.3936L135.684 74.3895C135.747 74.3794 135.789 74.3748 135.827 74.3658C135.865 74.3587 135.909 74.3503 135.948 74.3413L135.97 74.3373C136.024 74.3304 136.076 74.3206 136.122 74.3118C136.188 74.2995 136.256 74.285 136.326 74.2668L136.424 74.2484C136.476 74.2386 136.526 74.2291 136.578 74.2159L136.6 74.2118C136.654 74.2033 136.697 74.1968 136.736 74.1894C136.782 74.1807 136.829 74.1719 136.878 74.1593L136.899 74.1553C136.953 74.1467 136.996 74.1403 137.036 74.1329C137.079 74.1248 137.123 74.1164 137.169 74.106L137.191 74.1021C137.245 74.0951 137.291 74.0848 137.334 74.0783C137.382 74.0692 137.432 74.0597 137.481 74.0471L137.504 74.0428C137.56 74.0339 137.603 74.0274 137.643 74.02C137.691 74.0109 137.741 74.0015 137.79 73.9889L137.811 73.9849C137.876 73.9743 137.912 73.9692 137.949 73.9622C137.997 73.9531 138.049 73.9433 138.098 73.9307L138.12 73.9267C138.179 73.9171 138.219 73.9129 138.253 73.9049C138.301 73.8958 138.351 73.8865 138.4 73.8739L138.444 73.8655C138.485 73.8576 138.52 73.8529 138.552 73.8484C138.611 73.8372 138.67 73.8261 138.73 73.8116L138.751 73.8075C138.785 73.8012 138.816 73.7953 138.846 73.7896C138.899 73.7796 138.956 73.7689 139.011 73.7552L139.032 73.7511C139.09 73.742 139.128 73.7381 139.16 73.7305C139.212 73.7207 139.265 73.7106 139.32 73.697L139.364 73.6886C139.4 73.6818 139.429 73.6796 139.458 73.6742C139.502 73.6658 139.55 73.6567 139.596 73.6464L139.618 73.6424C139.674 73.635 139.719 73.6283 139.756 73.6196C139.813 73.6088 139.868 73.5984 139.928 73.5838L139.971 73.5758C140.012 73.568 140.045 73.565 140.072 73.56C140.125 73.55 140.177 73.5402 140.231 73.5265L140.283 73.5169C140.321 73.5097 140.35 73.5075 140.373 73.5016C140.433 73.4901 140.498 73.478 140.557 73.4634L140.579 73.4593C140.615 73.4542 140.649 73.4494 140.672 73.4435C140.718 73.4347 140.768 73.4253 140.816 73.4147L141.009 73.3716L141.012 73.3827L144.609 72.7073C147.086 72.2398 148.673 70.0703 148.147 67.8709L147.756 66.2399C147.663 65.8505 147.23 65.5995 146.789 65.6826L117.903 71.133Z" fill="#1A1C1D"/>
<path d="M148.356 73.6751L145.831 74.1517C143.353 74.6191 141.766 76.7888 142.292 78.9881L145.134 90.8559C145.661 93.0553 148.105 94.4641 150.583 93.9967L153.108 93.5201C153.547 93.4374 153.83 93.0529 153.736 92.6619L149.323 74.2324C149.23 73.843 148.797 73.592 148.356 73.6751Z" fill="#1A1C1D"/>
<mask id="mask5_9_437" style="mask-type:luminance" maskUnits="userSpaceOnUse" x="112" y="61" width="46" height="42">
<path d="M158 61H112V103H158V61Z" fill="white"/>
<path d="M131.022 80.4656C131.902 84.9104 133.035 89.3254 134.129 93.4336C134.636 95.2775 136.37 96.0955 138.766 95.6153L139.018 95.5679C139.044 95.5628 139.069 95.5581 139.096 95.553C141.454 95.1081 142.633 93.7472 142.255 91.8986C141.382 87.7821 140.4 83.3616 139.152 78.9315C138.587 76.8951 136.337 76.5567 134.421 76.9165C132.507 77.2777 130.609 78.4002 131.022 80.4641L131.022 80.4656Z" fill="black"/>
<path d="M122.735 78.5112L120.209 78.9878C119.77 79.069 119.487 79.4533 119.581 79.8444L123.994 98.277C124.087 98.6665 124.521 98.9175 124.961 98.8344L127.487 98.3578C129.965 97.8904 131.552 95.7207 131.025 93.5213L128.183 81.6536C127.657 79.4542 125.213 78.0452 122.735 78.5127L122.735 78.5112Z" fill="black"/>
<path d="M117.903 71.133C117.462 71.2161 117.181 71.6001 117.275 71.9912L117.666 73.6237C118.193 75.8231 120.637 77.232 123.115 76.7645L126.973 76.0365C126.989 76.032 127.013 76.0272 127.049 76.0205C127.071 76.0164 127.099 76.0111 127.133 76.003L127.154 75.9991C127.219 75.9901 127.285 75.9776 127.351 75.9652C127.378 75.9601 127.417 75.9527 127.461 75.9427L127.648 75.9074C127.683 75.9026 127.727 75.8942 127.784 75.8802L127.805 75.8762C127.857 75.868 127.907 75.8602 127.959 75.8488C127.987 75.8434 128.023 75.8367 128.069 75.8248L128.09 75.8208C128.158 75.8096 128.21 75.8014 128.269 75.7902C128.292 75.7859 128.317 75.7811 128.349 75.7735L128.37 75.7695C128.435 75.7606 128.5 75.7485 128.568 75.7356C128.598 75.7299 128.633 75.7231 128.676 75.7119L128.697 75.7079C128.754 75.6988 128.816 75.6905 128.874 75.6778C128.914 75.6704 128.958 75.6619 129.011 75.6487L129.034 75.6443C129.079 75.6375 129.127 75.6268 129.17 75.6204C129.198 75.6149 129.231 75.6088 129.266 75.6005L129.286 75.5968C129.352 75.5859 129.413 75.5761 129.477 75.564C129.507 75.5583 129.543 75.5515 129.58 75.5413L129.601 75.5373C129.659 75.5281 129.718 75.5185 129.775 75.5078C129.816 75.5001 129.862 75.4913 129.917 75.4777L129.938 75.4737C129.983 75.4668 130.029 75.4564 130.074 75.4497C130.107 75.4436 130.148 75.4359 130.191 75.4242L130.215 75.4199C130.281 75.4091 130.327 75.4003 130.376 75.3927C130.404 75.3874 130.438 75.381 130.475 75.3723C130.56 75.3581 130.624 75.3476 130.687 75.3358C130.719 75.3297 130.754 75.323 130.793 75.3125L130.818 75.3077C130.875 75.2986 130.929 75.2901 130.986 75.2792C131.018 75.2732 131.054 75.2665 131.093 75.2559L131.114 75.2518C131.173 75.2424 131.231 75.2331 131.286 75.2228C131.327 75.2149 131.377 75.2056 131.426 75.193L131.447 75.1889C131.492 75.182 131.539 75.1749 131.582 75.1652C131.614 75.1592 131.648 75.1528 131.687 75.1438L131.708 75.1398C131.771 75.1312 131.826 75.1208 131.883 75.1099C131.93 75.1012 131.983 75.0912 132.038 75.0775L132.059 75.0734C132.103 75.067 132.146 75.0605 132.185 75.0515C132.222 75.0445 132.267 75.036 132.312 75.0241L132.334 75.0201C132.402 75.0089 132.447 75.002 132.497 74.9926C132.529 74.9865 132.563 74.9802 132.6 74.9715L132.621 74.9675C132.681 74.9596 132.74 74.95 132.793 74.9383C132.834 74.9306 132.879 74.9221 132.928 74.9096L132.949 74.9055C133.009 74.896 133.059 74.8882 133.105 74.8794C133.148 74.8714 133.189 74.8637 133.235 74.8516L133.256 74.8477C133.315 74.8381 133.364 74.8306 133.41 74.8219C133.45 74.8144 133.491 74.8067 133.535 74.7952L133.556 74.7911C133.615 74.7815 133.664 74.7741 133.712 74.765C133.753 74.7573 133.794 74.7496 133.838 74.7379L133.859 74.7339C133.92 74.724 133.967 74.7169 134.017 74.7074C134.065 74.6983 134.115 74.6889 134.164 74.6763L134.305 74.6497C134.35 74.6429 134.395 74.6345 134.442 74.6223L134.464 74.6182C134.532 74.607 134.575 74.6005 134.621 74.5917C134.66 74.5844 134.705 74.576 134.747 74.5646L134.79 74.5566C134.837 74.5495 134.878 74.5433 134.919 74.5356C134.957 74.5285 134.994 74.5214 135.035 74.5121L135.065 74.5063C135.119 74.4994 135.169 74.49 135.217 74.4809C135.264 74.4721 135.314 74.4628 135.363 74.4502L135.384 74.4461C135.436 74.4379 135.487 74.4301 135.531 74.4217C135.576 74.4133 135.619 74.4052 135.663 74.3936L135.684 74.3895C135.747 74.3794 135.789 74.3748 135.827 74.3658C135.865 74.3587 135.909 74.3503 135.948 74.3413L135.97 74.3373C136.024 74.3304 136.076 74.3206 136.122 74.3118C136.188 74.2995 136.256 74.285 136.326 74.2668L136.424 74.2484C136.476 74.2386 136.526 74.2291 136.578 74.2159L136.6 74.2118C136.654 74.2033 136.697 74.1968 136.736 74.1894C136.782 74.1807 136.829 74.1719 136.878 74.1593L136.899 74.1553C136.953 74.1467 136.996 74.1403 137.036 74.1329C137.079 74.1248 137.123 74.1164 137.169 74.106L137.191 74.1021C137.245 74.0951 137.291 74.0848 137.334 74.0783C137.382 74.0692 137.432 74.0597 137.481 74.0471L137.504 74.0428C137.56 74.0339 137.603 74.0274 137.643 74.02C137.691 74.0109 137.741 74.0015 137.79 73.9889L137.811 73.9849C137.876 73.9743 137.912 73.9692 137.949 73.9622C137.997 73.9531 138.049 73.9433 138.098 73.9307L138.12 73.9267C138.179 73.9171 138.219 73.9129 138.253 73.9049C138.301 73.8958 138.351 73.8865 138.4 73.8739L138.444 73.8655C138.485 73.8576 138.52 73.8529 138.552 73.8484C138.611 73.8372 138.67 73.8261 138.73 73.8116L138.751 73.8075C138.785 73.8012 138.816 73.7953 138.846 73.7896C138.899 73.7796 138.956 73.7689 139.011 73.7552L139.032 73.7511C139.09 73.742 139.128 73.7381 139.16 73.7305C139.212 73.7207 139.265 73.7106 139.32 73.697L139.364 73.6886C139.4 73.6818 139.429 73.6796 139.458 73.6742C139.502 73.6658 139.55 73.6567 139.596 73.6464L139.618 73.6424C139.674 73.635 139.719 73.6283 139.756 73.6196C139.813 73.6088 139.868 73.5984 139.928 73.5838L139.971 73.5758C140.012 73.568 140.045 73.565 140.072 73.56C140.125 73.55 140.177 73.5402 140.231 73.5265L140.283 73.5169C140.321 73.5097 140.35 73.5075 140.373 73.5016C140.433 73.4901 140.498 73.478 140.557 73.4634L140.579 73.4593C140.615 73.4542 140.649 73.4494 140.672 73.4435C140.718 73.4347 140.768 73.4253 140.816 73.4147L141.009 73.3716L141.012 73.3827L144.609 72.7073C147.086 72.2398 148.673 70.0703 148.147 67.8709L147.756 66.2399C147.663 65.8505 147.23 65.5995 146.789 65.6826L117.903 71.133Z" fill="black"/>
<path d="M148.356 73.6751L145.831 74.1517C143.353 74.6191 141.766 76.7888 142.292 78.9881L145.134 90.8559C145.661 93.0553 148.105 94.4641 150.583 93.9967L153.108 93.5201C153.547 93.4374 153.83 93.0529 153.736 92.6619L149.323 74.2324C149.23 73.843 148.797 73.592 148.356 73.6751Z" fill="black"/>
</mask>
<g mask="url(#mask5_9_437)">
<path d="M131.022 80.4656C131.902 84.9104 133.035 89.3254 134.129 93.4336C134.636 95.2775 136.37 96.0955 138.766 95.6153L139.018 95.5679C139.044 95.5628 139.069 95.5581 139.096 95.553C141.454 95.1081 142.633 93.7472 142.255 91.8986C141.382 87.7821 140.4 83.3616 139.152 78.9315C138.587 76.8951 136.337 76.5567 134.421 76.9165C132.507 77.2777 130.609 78.4002 131.022 80.4641L131.022 80.4656Z" stroke="white" stroke-width="6"/>
</g>
<mask id="mask6_9_437" style="mask-type:luminance" maskUnits="userSpaceOnUse" x="112" y="61" width="46" height="42">
<path d="M158 61H112V103H158V61Z" fill="white"/>
<path d="M131.022 80.4656C131.902 84.9104 133.035 89.3254 134.129 93.4336C134.636 95.2775 136.37 96.0955 138.766 95.6153L139.018 95.5679C139.044 95.5628 139.069 95.5581 139.096 95.553C141.454 95.1081 142.633 93.7472 142.255 91.8986C141.382 87.7821 140.4 83.3616 139.152 78.9315C138.587 76.8951 136.337 76.5567 134.421 76.9165C132.507 77.2777 130.609 78.4002 131.022 80.4641L131.022 80.4656Z" fill="black"/>
<path d="M122.735 78.5112L120.209 78.9878C119.77 79.069 119.487 79.4533 119.581 79.8444L123.994 98.277C124.087 98.6665 124.521 98.9175 124.961 98.8344L127.487 98.3578C129.965 97.8904 131.552 95.7207 131.025 93.5213L128.183 81.6536C127.657 79.4542 125.213 78.0452 122.735 78.5127L122.735 78.5112Z" fill="black"/>
<path d="M117.903 71.133C117.462 71.2161 117.181 71.6001 117.275 71.9912L117.666 73.6237C118.193 75.8231 120.637 77.232 123.115 76.7645L126.973 76.0365C126.989 76.032 127.013 76.0272 127.049 76.0205C127.071 76.0164 127.099 76.0111 127.133 76.003L127.154 75.9991C127.219 75.9901 127.285 75.9776 127.351 75.9652C127.378 75.9601 127.417 75.9527 127.461 75.9427L127.648 75.9074C127.683 75.9026 127.727 75.8942 127.784 75.8802L127.805 75.8762C127.857 75.868 127.907 75.8602 127.959 75.8488C127.987 75.8434 128.023 75.8367 128.069 75.8248L128.09 75.8208C128.158 75.8096 128.21 75.8014 128.269 75.7902C128.292 75.7859 128.317 75.7811 128.349 75.7735L128.37 75.7695C128.435 75.7606 128.5 75.7485 128.568 75.7356C128.598 75.7299 128.633 75.7231 128.676 75.7119L128.697 75.7079C128.754 75.6988 128.816 75.6905 128.874 75.6778C128.914 75.6704 128.958 75.6619 129.011 75.6487L129.034 75.6443C129.079 75.6375 129.127 75.6268 129.17 75.6204C129.198 75.6149 129.231 75.6088 129.266 75.6005L129.286 75.5968C129.352 75.5859 129.413 75.5761 129.477 75.564C129.507 75.5583 129.543 75.5515 129.58 75.5413L129.601 75.5373C129.659 75.5281 129.718 75.5185 129.775 75.5078C129.816 75.5001 129.862 75.4913 129.917 75.4777L129.938 75.4737C129.983 75.4668 130.029 75.4564 130.074 75.4497C130.107 75.4436 130.148 75.4359 130.191 75.4242L130.215 75.4199C130.281 75.4091 130.327 75.4003 130.376 75.3927C130.404 75.3874 130.438 75.381 130.475 75.3723C130.56 75.3581 130.624 75.3476 130.687 75.3358C130.719 75.3297 130.754 75.323 130.793 75.3125L130.818 75.3077C130.875 75.2986 130.929 75.2901 130.986 75.2792C131.018 75.2732 131.054 75.2665 131.093 75.2559L131.114 75.2518C131.173 75.2424 131.231 75.2331 131.286 75.2228C131.327 75.2149 131.377 75.2056 131.426 75.193L131.447 75.1889C131.492 75.182 131.539 75.1749 131.582 75.1652C131.614 75.1592 131.648 75.1528 131.687 75.1438L131.708 75.1398C131.771 75.1312 131.826 75.1208 131.883 75.1099C131.93 75.1012 131.983 75.0912 132.038 75.0775L132.059 75.0734C132.103 75.067 132.146 75.0605 132.185 75.0515C132.222 75.0445 132.267 75.036 132.312 75.0241L132.334 75.0201C132.402 75.0089 132.447 75.002 132.497 74.9926C132.529 74.9865 132.563 74.9802 132.6 74.9715L132.621 74.9675C132.681 74.9596 132.74 74.95 132.793 74.9383C132.834 74.9306 132.879 74.9221 132.928 74.9096L132.949 74.9055C133.009 74.896 133.059 74.8882 133.105 74.8794C133.148 74.8714 133.189 74.8637 133.235 74.8516L133.256 74.8477C133.315 74.8381 133.364 74.8306 133.41 74.8219C133.45 74.8144 133.491 74.8067 133.535 74.7952L133.556 74.7911C133.615 74.7815 133.664 74.7741 133.712 74.765C133.753 74.7573 133.794 74.7496 133.838 74.7379L133.859 74.7339C133.92 74.724 133.967 74.7169 134.017 74.7074C134.065 74.6983 134.115 74.6889 134.164 74.6763L134.305 74.6497C134.35 74.6429 134.395 74.6345 134.442 74.6223L134.464 74.6182C134.532 74.607 134.575 74.6005 134.621 74.5917C134.66 74.5844 134.705 74.576 134.747 74.5646L134.79 74.5566C134.837 74.5495 134.878 74.5433 134.919 74.5356C134.957 74.5285 134.994 74.5214 135.035 74.5121L135.065 74.5063C135.119 74.4994 135.169 74.49 135.217 74.4809C135.264 74.4721 135.314 74.4628 135.363 74.4502L135.384 74.4461C135.436 74.4379 135.487 74.4301 135.531 74.4217C135.576 74.4133 135.619 74.4052 135.663 74.3936L135.684 74.3895C135.747 74.3794 135.789 74.3748 135.827 74.3658C135.865 74.3587 135.909 74.3503 135.948 74.3413L135.97 74.3373C136.024 74.3304 136.076 74.3206 136.122 74.3118C136.188 74.2995 136.256 74.285 136.326 74.2668L136.424 74.2484C136.476 74.2386 136.526 74.2291 136.578 74.2159L136.6 74.2118C136.654 74.2033 136.697 74.1968 136.736 74.1894C136.782 74.1807 136.829 74.1719 136.878 74.1593L136.899 74.1553C136.953 74.1467 136.996 74.1403 137.036 74.1329C137.079 74.1248 137.123 74.1164 137.169 74.106L137.191 74.1021C137.245 74.0951 137.291 74.0848 137.334 74.0783C137.382 74.0692 137.432 74.0597 137.481 74.0471L137.504 74.0428C137.56 74.0339 137.603 74.0274 137.643 74.02C137.691 74.0109 137.741 74.0015 137.79 73.9889L137.811 73.9849C137.876 73.9743 137.912 73.9692 137.949 73.9622C137.997 73.9531 138.049 73.9433 138.098 73.9307L138.12 73.9267C138.179 73.9171 138.219 73.9129 138.253 73.9049C138.301 73.8958 138.351 73.8865 138.4 73.8739L138.444 73.8655C138.485 73.8576 138.52 73.8529 138.552 73.8484C138.611 73.8372 138.67 73.8261 138.73 73.8116L138.751 73.8075C138.785 73.8012 138.816 73.7953 138.846 73.7896C138.899 73.7796 138.956 73.7689 139.011 73.7552L139.032 73.7511C139.09 73.742 139.128 73.7381 139.16 73.7305C139.212 73.7207 139.265 73.7106 139.32 73.697L139.364 73.6886C139.4 73.6818 139.429 73.6796 139.458 73.6742C139.502 73.6658 139.55 73.6567 139.596 73.6464L139.618 73.6424C139.674 73.635 139.719 73.6283 139.756 73.6196C139.813 73.6088 139.868 73.5984 139.928 73.5838L139.971 73.5758C140.012 73.568 140.045 73.565 140.072 73.56C140.125 73.55 140.177 73.5402 140.231 73.5265L140.283 73.5169C140.321 73.5097 140.35 73.5075 140.373 73.5016C140.433 73.4901 140.498 73.478 140.557 73.4634L140.579 73.4593C140.615 73.4542 140.649 73.4494 140.672 73.4435C140.718 73.4347 140.768 73.4253 140.816 73.4147L141.009 73.3716L141.012 73.3827L144.609 72.7073C147.086 72.2398 148.673 70.0703 148.147 67.8709L147.756 66.2399C147.663 65.8505 147.23 65.5995 146.789 65.6826L117.903 71.133Z" fill="black"/>
<path d="M148.356 73.6751L145.831 74.1517C143.353 74.6191 141.766 76.7888 142.292 78.9881L145.134 90.8559C145.661 93.0553 148.105 94.4641 150.583 93.9967L153.108 93.5201C153.547 93.4374 153.83 93.0529 153.736 92.6619L149.323 74.2324C149.23 73.843 148.797 73.592 148.356 73.6751Z" fill="black"/>
</mask>
<g mask="url(#mask6_9_437)">
<path d="M122.735 78.5112L120.209 78.9878C119.77 79.069 119.487 79.4533 119.581 79.8444L123.994 98.277C124.087 98.6665 124.521 98.9175 124.961 98.8344L127.487 98.3578C129.965 97.8904 131.552 95.7207 131.025 93.5213L128.183 81.6536C127.657 79.4542 125.213 78.0452 122.735 78.5127L122.735 78.5112Z" stroke="white" stroke-width="6"/>
</g>
<mask id="mask7_9_437" style="mask-type:luminance" maskUnits="userSpaceOnUse" x="112" y="61" width="46" height="42">
<path d="M158 61H112V103H158V61Z" fill="white"/>
<path d="M131.022 80.4656C131.902 84.9104 133.035 89.3254 134.129 93.4336C134.636 95.2775 136.37 96.0955 138.766 95.6153L139.018 95.5679C139.044 95.5628 139.069 95.5581 139.096 95.553C141.454 95.1081 142.633 93.7472 142.255 91.8986C141.382 87.7821 140.4 83.3616 139.152 78.9315C138.587 76.8951 136.337 76.5567 134.421 76.9165C132.507 77.2777 130.609 78.4002 131.022 80.4641L131.022 80.4656Z" fill="black"/>
<path d="M122.735 78.5112L120.209 78.9878C119.77 79.069 119.487 79.4533 119.581 79.8444L123.994 98.277C124.087 98.6665 124.521 98.9175 124.961 98.8344L127.487 98.3578C129.965 97.8904 131.552 95.7207 131.025 93.5213L128.183 81.6536C127.657 79.4542 125.213 78.0452 122.735 78.5127L122.735 78.5112Z" fill="black"/>
<path d="M117.903 71.133C117.462 71.2161 117.181 71.6001 117.275 71.9912L117.666 73.6237C118.193 75.8231 120.637 77.232 123.115 76.7645L126.973 76.0365C126.989 76.032 127.013 76.0272 127.049 76.0205C127.071 76.0164 127.099 76.0111 127.133 76.003L127.154 75.9991C127.219 75.9901 127.285 75.9776 127.351 75.9652C127.378 75.9601 127.417 75.9527 127.461 75.9427L127.648 75.9074C127.683 75.9026 127.727 75.8942 127.784 75.8802L127.805 75.8762C127.857 75.868 127.907 75.8602 127.959 75.8488C127.987 75.8434 128.023 75.8367 128.069 75.8248L128.09 75.8208C128.158 75.8096 128.21 75.8014 128.269 75.7902C128.292 75.7859 128.317 75.7811 128.349 75.7735L128.37 75.7695C128.435 75.7606 128.5 75.7485 128.568 75.7356C128.598 75.7299 128.633 75.7231 128.676 75.7119L128.697 75.7079C128.754 75.6988 128.816 75.6905 128.874 75.6778C128.914 75.6704 128.958 75.6619 129.011 75.6487L129.034 75.6443C129.079 75.6375 129.127 75.6268 129.17 75.6204C129.198 75.6149 129.231 75.6088 129.266 75.6005L129.286 75.5968C129.352 75.5859 129.413 75.5761 129.477 75.564C129.507 75.5583 129.543 75.5515 129.58 75.5413L129.601 75.5373C129.659 75.5281 129.718 75.5185 129.775 75.5078C129.816 75.5001 129.862 75.4913 129.917 75.4777L129.938 75.4737C129.983 75.4668 130.029 75.4564 130.074 75.4497C130.107 75.4436 130.148 75.4359 130.191 75.4242L130.215 75.4199C130.281 75.4091 130.327 75.4003 130.376 75.3927C130.404 75.3874 130.438 75.381 130.475 75.3723C130.56 75.3581 130.624 75.3476 130.687 75.3358C130.719 75.3297 130.754 75.323 130.793 75.3125L130.818 75.3077C130.875 75.2986 130.929 75.2901 130.986 75.2792C131.018 75.2732 131.054 75.2665 131.093 75.2559L131.114 75.2518C131.173 75.2424 131.231 75.2331 131.286 75.2228C131.327 75.2149 131.377 75.2056 131.426 75.193L131.447 75.1889C131.492 75.182 131.539 75.1749 131.582 75.1652C131.614 75.1592 131.648 75.1528 131.687 75.1438L131.708 75.1398C131.771 75.1312 131.826 75.1208 131.883 75.1099C131.93 75.1012 131.983 75.0912 132.038 75.0775L132.059 75.0734C132.103 75.067 132.146 75.0605 132.185 75.0515C132.222 75.0445 132.267 75.036 132.312 75.0241L132.334 75.0201C132.402 75.0089 132.447 75.002 132.497 74.9926C132.529 74.9865 132.563 74.9802 132.6 74.9715L132.621 74.9675C132.681 74.9596 132.74 74.95 132.793 74.9383C132.834 74.9306 132.879 74.9221 132.928 74.9096L132.949 74.9055C133.009 74.896 133.059 74.8882 133.105 74.8794C133.148 74.8714 133.189 74.8637 133.235 74.8516L133.256 74.8477C133.315 74.8381 133.364 74.8306 133.41 74.8219C133.45 74.8144 133.491 74.8067 133.535 74.7952L133.556 74.7911C133.615 74.7815 133.664 74.7741 133.712 74.765C133.753 74.7573 133.794 74.7496 133.838 74.7379L133.859 74.7339C133.92 74.724 133.967 74.7169 134.017 74.7074C134.065 74.6983 134.115 74.6889 134.164 74.6763L134.305 74.6497C134.35 74.6429 134.395 74.6345 134.442 74.6223L134.464 74.6182C134.532 74.607 134.575 74.6005 134.621 74.5917C134.66 74.5844 134.705 74.576 134.747 74.5646L134.79 74.5566C134.837 74.5495 134.878 74.5433 134.919 74.5356C134.957 74.5285 134.994 74.5214 135.035 74.5121L135.065 74.5063C135.119 74.4994 135.169 74.49 135.217 74.4809C135.264 74.4721 135.314 74.4628 135.363 74.4502L135.384 74.4461C135.436 74.4379 135.487 74.4301 135.531 74.4217C135.576 74.4133 135.619 74.4052 135.663 74.3936L135.684 74.3895C135.747 74.3794 135.789 74.3748 135.827 74.3658C135.865 74.3587 135.909 74.3503 135.948 74.3413L135.97 74.3373C136.024 74.3304 136.076 74.3206 136.122 74.3118C136.188 74.2995 136.256 74.285 136.326 74.2668L136.424 74.2484C136.476 74.2386 136.526 74.2291 136.578 74.2159L136.6 74.2118C136.654 74.2033 136.697 74.1968 136.736 74.1894C136.782 74.1807 136.829 74.1719 136.878 74.1593L136.899 74.1553C136.953 74.1467 136.996 74.1403 137.036 74.1329C137.079 74.1248 137.123 74.1164 137.169 74.106L137.191 74.1021C137.245 74.0951 137.291 74.0848 137.334 74.0783C137.382 74.0692 137.432 74.0597 137.481 74.0471L137.504 74.0428C137.56 74.0339 137.603 74.0274 137.643 74.02C137.691 74.0109 137.741 74.0015 137.79 73.9889L137.811 73.9849C137.876 73.9743 137.912 73.9692 137.949 73.9622C137.997 73.9531 138.049 73.9433 138.098 73.9307L138.12 73.9267C138.179 73.9171 138.219 73.9129 138.253 73.9049C138.301 73.8958 138.351 73.8865 138.4 73.8739L138.444 73.8655C138.485 73.8576 138.52 73.8529 138.552 73.8484C138.611 73.8372 138.67 73.8261 138.73 73.8116L138.751 73.8075C138.785 73.8012 138.816 73.7953 138.846 73.7896C138.899 73.7796 138.956 73.7689 139.011 73.7552L139.032 73.7511C139.09 73.742 139.128 73.7381 139.16 73.7305C139.212 73.7207 139.265 73.7106 139.32 73.697L139.364 73.6886C139.4 73.6818 139.429 73.6796 139.458 73.6742C139.502 73.6658 139.55 73.6567 139.596 73.6464L139.618 73.6424C139.674 73.635 139.719 73.6283 139.756 73.6196C139.813 73.6088 139.868 73.5984 139.928 73.5838L139.971 73.5758C140.012 73.568 140.045 73.565 140.072 73.56C140.125 73.55 140.177 73.5402 140.231 73.5265L140.283 73.5169C140.321 73.5097 140.35 73.5075 140.373 73.5016C140.433 73.4901 140.498 73.478 140.557 73.4634L140.579 73.4593C140.615 73.4542 140.649 73.4494 140.672 73.4435C140.718 73.4347 140.768 73.4253 140.816 73.4147L141.009 73.3716L141.012 73.3827L144.609 72.7073C147.086 72.2398 148.673 70.0703 148.147 67.8709L147.756 66.2399C147.663 65.8505 147.23 65.5995 146.789 65.6826L117.903 71.133Z" fill="black"/>
<path d="M148.356 73.6751L145.831 74.1517C143.353 74.6191 141.766 76.7888 142.292 78.9881L145.134 90.8559C145.661 93.0553 148.105 94.4641 150.583 93.9967L153.108 93.5201C153.547 93.4374 153.83 93.0529 153.736 92.6619L149.323 74.2324C149.23 73.843 148.797 73.592 148.356 73.6751Z" fill="black"/>
</mask>
<g mask="url(#mask7_9_437)">
<path d="M117.903 71.133C117.462 71.2161 117.181 71.6001 117.275 71.9912L117.666 73.6237C118.193 75.8231 120.637 77.232 123.115 76.7645L126.973 76.0365C126.989 76.032 127.013 76.0272 127.049 76.0205C127.071 76.0164 127.099 76.0111 127.133 76.003L127.154 75.9991C127.219 75.9901 127.285 75.9776 127.351 75.9652C127.378 75.9601 127.417 75.9527 127.461 75.9427L127.648 75.9074C127.683 75.9026 127.727 75.8942 127.784 75.8802L127.805 75.8762C127.857 75.868 127.907 75.8602 127.959 75.8488C127.987 75.8434 128.023 75.8367 128.069 75.8248L128.09 75.8208C128.158 75.8096 128.21 75.8014 128.269 75.7902C128.292 75.7859 128.317 75.7811 128.349 75.7735L128.37 75.7695C128.435 75.7606 128.5 75.7485 128.568 75.7356C128.598 75.7299 128.633 75.7231 128.676 75.7119L128.697 75.7079C128.754 75.6988 128.816 75.6905 128.874 75.6778C128.914 75.6704 128.958 75.6619 129.011 75.6487L129.034 75.6443C129.079 75.6375 129.127 75.6268 129.17 75.6204C129.198 75.6149 129.231 75.6088 129.266 75.6005L129.286 75.5968C129.352 75.5859 129.413 75.5761 129.477 75.564C129.507 75.5583 129.543 75.5515 129.58 75.5413L129.601 75.5373C129.659 75.5281 129.718 75.5185 129.775 75.5078C129.816 75.5001 129.862 75.4913 129.917 75.4777L129.938 75.4737C129.983 75.4668 130.029 75.4564 130.074 75.4497C130.107 75.4436 130.148 75.4359 130.191 75.4242L130.215 75.4199C130.281 75.4091 130.327 75.4003 130.376 75.3927C130.404 75.3874 130.438 75.381 130.475 75.3723C130.56 75.3581 130.624 75.3476 130.687 75.3358C130.719 75.3297 130.754 75.323 130.793 75.3125L130.818 75.3077C130.875 75.2986 130.929 75.2901 130.986 75.2792C131.018 75.2732 131.054 75.2665 131.093 75.2559L131.114 75.2518C131.173 75.2424 131.231 75.2331 131.286 75.2228C131.327 75.2149 131.377 75.2056 131.426 75.193L131.447 75.1889C131.492 75.182 131.539 75.1749 131.582 75.1652C131.614 75.1592 131.648 75.1528 131.687 75.1438L131.708 75.1398C131.771 75.1312 131.826 75.1208 131.883 75.1099C131.93 75.1012 131.983 75.0912 132.038 75.0775L132.059 75.0734C132.103 75.067 132.146 75.0605 132.185 75.0515C132.222 75.0445 132.267 75.036 132.312 75.0241L132.334 75.0201C132.402 75.0089 132.447 75.002 132.497 74.9926C132.529 74.9865 132.563 74.9802 132.6 74.9715L132.621 74.9675C132.681 74.9596 132.74 74.95 132.793 74.9383C132.834 74.9306 132.879 74.9221 132.928 74.9096L132.949 74.9055C133.009 74.896 133.059 74.8882 133.105 74.8794C133.148 74.8714 133.189 74.8637 133.235 74.8516L133.256 74.8477C133.315 74.8381 133.364 74.8306 133.41 74.8219C133.45 74.8144 133.491 74.8067 133.535 74.7952L133.556 74.7911C133.615 74.7815 133.664 74.7741 133.712 74.765C133.753 74.7573 133.794 74.7496 133.838 74.7379L133.859 74.7339C133.92 74.724 133.967 74.7169 134.017 74.7074C134.065 74.6983 134.115 74.6889 134.164 74.6763L134.305 74.6497C134.35 74.6429 134.395 74.6345 134.442 74.6223L134.464 74.6182C134.532 74.607 134.575 74.6005 134.621 74.5917C134.66 74.5844 134.705 74.576 134.747 74.5646L134.79 74.5566C134.837 74.5495 134.878 74.5433 134.919 74.5356C134.957 74.5285 134.994 74.5214 135.035 74.5121L135.065 74.5063C135.119 74.4994 135.169 74.49 135.217 74.4809C135.264 74.4721 135.314 74.4628 135.363 74.4502L135.384 74.4461C135.436 74.4379 135.487 74.4301 135.531 74.4217C135.576 74.4133 135.619 74.4052 135.663 74.3936L135.684 74.3895C135.747 74.3794 135.789 74.3748 135.827 74.3658C135.865 74.3587 135.909 74.3503 135.948 74.3413L135.97 74.3373C136.024 74.3304 136.076 74.3206 136.122 74.3118C136.188 74.2995 136.256 74.285 136.326 74.2668L136.424 74.2484C136.476 74.2386 136.526 74.2291 136.578 74.2159L136.6 74.2118C136.654 74.2033 136.697 74.1968 136.736 74.1894C136.782 74.1807 136.829 74.1719 136.878 74.1593L136.899 74.1553C136.953 74.1467 136.996 74.1403 137.036 74.1329C137.079 74.1248 137.123 74.1164 137.169 74.106L137.191 74.1021C137.245 74.0951 137.291 74.0848 137.334 74.0783C137.382 74.0692 137.432 74.0597 137.481 74.0471L137.504 74.0428C137.56 74.0339 137.603 74.0274 137.643 74.02C137.691 74.0109 137.741 74.0015 137.79 73.9889L137.811 73.9849C137.876 73.9743 137.912 73.9692 137.949 73.9622C137.997 73.9531 138.049 73.9433 138.098 73.9307L138.12 73.9267C138.179 73.9171 138.219 73.9129 138.253 73.9049C138.301 73.8958 138.351 73.8865 138.4 73.8739L138.444 73.8655C138.485 73.8576 138.52 73.8529 138.552 73.8484C138.611 73.8372 138.67 73.8261 138.73 73.8116L138.751 73.8075C138.785 73.8012 138.816 73.7953 138.846 73.7896C138.899 73.7796 138.956 73.7689 139.011 73.7552L139.032 73.7511C139.09 73.742 139.128 73.7381 139.16 73.7305C139.212 73.7207 139.265 73.7106 139.32 73.697L139.364 73.6886C139.4 73.6818 139.429 73.6796 139.458 73.6742C139.502 73.6658 139.55 73.6567 139.596 73.6464L139.618 73.6424C139.674 73.635 139.719 73.6283 139.756 73.6196C139.813 73.6088 139.868 73.5984 139.928 73.5838L139.971 73.5758C140.012 73.568 140.045 73.565 140.072 73.56C140.125 73.55 140.177 73.5402 140.231 73.5265L140.283 73.5169C140.321 73.5097 140.35 73.5075 140.373 73.5016C140.433 73.4901 140.498 73.478 140.557 73.4634L140.579 73.4593C140.615 73.4542 140.649 73.4494 140.672 73.4435C140.718 73.4347 140.768 73.4253 140.816 73.4147L141.009 73.3716L141.012 73.3827L144.609 72.7073C147.086 72.2398 148.673 70.0703 148.147 67.8709L147.756 66.2399C147.663 65.8505 147.23 65.5995 146.789 65.6826L117.903 71.133Z" stroke="white" stroke-width="6"/>
</g>
<mask id="mask8_9_437" style="mask-type:luminance" maskUnits="userSpaceOnUse" x="112" y="61" width="46" height="42">
<path d="M158 61H112V103H158V61Z" fill="white"/>
<path d="M131.022 80.4656C131.902 84.9104 133.035 89.3254 134.129 93.4336C134.636 95.2775 136.37 96.0955 138.766 95.6153L139.018 95.5679C139.044 95.5628 139.069 95.5581 139.096 95.553C141.454 95.1081 142.633 93.7472 142.255 91.8986C141.382 87.7821 140.4 83.3616 139.152 78.9315C138.587 76.8951 136.337 76.5567 134.421 76.9165C132.507 77.2777 130.609 78.4002 131.022 80.4641L131.022 80.4656Z" fill="black"/>
<path d="M122.735 78.5112L120.209 78.9878C119.77 79.069 119.487 79.4533 119.581 79.8444L123.994 98.277C124.087 98.6665 124.521 98.9175 124.961 98.8344L127.487 98.3578C129.965 97.8904 131.552 95.7207 131.025 93.5213L128.183 81.6536C127.657 79.4542 125.213 78.0452 122.735 78.5127L122.735 78.5112Z" fill="black"/>
<path d="M117.903 71.133C117.462 71.2161 117.181 71.6001 117.275 71.9912L117.666 73.6237C118.193 75.8231 120.637 77.232 123.115 76.7645L126.973 76.0365C126.989 76.032 127.013 76.0272 127.049 76.0205C127.071 76.0164 127.099 76.0111 127.133 76.003L127.154 75.9991C127.219 75.9901 127.285 75.9776 127.351 75.9652C127.378 75.9601 127.417 75.9527 127.461 75.9427L127.648 75.9074C127.683 75.9026 127.727 75.8942 127.784 75.8802L127.805 75.8762C127.857 75.868 127.907 75.8602 127.959 75.8488C127.987 75.8434 128.023 75.8367 128.069 75.8248L128.09 75.8208C128.158 75.8096 128.21 75.8014 128.269 75.7902C128.292 75.7859 128.317 75.7811 128.349 75.7735L128.37 75.7695C128.435 75.7606 128.5 75.7485 128.568 75.7356C128.598 75.7299 128.633 75.7231 128.676 75.7119L128.697 75.7079C128.754 75.6988 128.816 75.6905 128.874 75.6778C128.914 75.6704 128.958 75.6619 129.011 75.6487L129.034 75.6443C129.079 75.6375 129.127 75.6268 129.17 75.6204C129.198 75.6149 129.231 75.6088 129.266 75.6005L129.286 75.5968C129.352 75.5859 129.413 75.5761 129.477 75.564C129.507 75.5583 129.543 75.5515 129.58 75.5413L129.601 75.5373C129.659 75.5281 129.718 75.5185 129.775 75.5078C129.816 75.5001 129.862 75.4913 129.917 75.4777L129.938 75.4737C129.983 75.4668 130.029 75.4564 130.074 75.4497C130.107 75.4436 130.148 75.4359 130.191 75.4242L130.215 75.4199C130.281 75.4091 130.327 75.4003 130.376 75.3927C130.404 75.3874 130.438 75.381 130.475 75.3723C130.56 75.3581 130.624 75.3476 130.687 75.3358C130.719 75.3297 130.754 75.323 130.793 75.3125L130.818 75.3077C130.875 75.2986 130.929 75.2901 130.986 75.2792C131.018 75.2732 131.054 75.2665 131.093 75.2559L131.114 75.2518C131.173 75.2424 131.231 75.2331 131.286 75.2228C131.327 75.2149 131.377 75.2056 131.426 75.193L131.447 75.1889C131.492 75.182 131.539 75.1749 131.582 75.1652C131.614 75.1592 131.648 75.1528 131.687 75.1438L131.708 75.1398C131.771 75.1312 131.826 75.1208 131.883 75.1099C131.93 75.1012 131.983 75.0912 132.038 75.0775L132.059 75.0734C132.103 75.067 132.146 75.0605 132.185 75.0515C132.222 75.0445 132.267 75.036 132.312 75.0241L132.334 75.0201C132.402 75.0089 132.447 75.002 132.497 74.9926C132.529 74.9865 132.563 74.9802 132.6 74.9715L132.621 74.9675C132.681 74.9596 132.74 74.95 132.793 74.9383C132.834 74.9306 132.879 74.9221 132.928 74.9096L132.949 74.9055C133.009 74.896 133.059 74.8882 133.105 74.8794C133.148 74.8714 133.189 74.8637 133.235 74.8516L133.256 74.8477C133.315 74.8381 133.364 74.8306 133.41 74.8219C133.45 74.8144 133.491 74.8067 133.535 74.7952L133.556 74.7911C133.615 74.7815 133.664 74.7741 133.712 74.765C133.753 74.7573 133.794 74.7496 133.838 74.7379L133.859 74.7339C133.92 74.724 133.967 74.7169 134.017 74.7074C134.065 74.6983 134.115 74.6889 134.164 74.6763L134.305 74.6497C134.35 74.6429 134.395 74.6345 134.442 74.6223L134.464 74.6182C134.532 74.607 134.575 74.6005 134.621 74.5917C134.66 74.5844 134.705 74.576 134.747 74.5646L134.79 74.5566C134.837 74.5495 134.878 74.5433 134.919 74.5356C134.957 74.5285 134.994 74.5214 135.035 74.5121L135.065 74.5063C135.119 74.4994 135.169 74.49 135.217 74.4809C135.264 74.4721 135.314 74.4628 135.363 74.4502L135.384 74.4461C135.436 74.4379 135.487 74.4301 135.531 74.4217C135.576 74.4133 135.619 74.4052 135.663 74.3936L135.684 74.3895C135.747 74.3794 135.789 74.3748 135.827 74.3658C135.865 74.3587 135.909 74.3503 135.948 74.3413L135.97 74.3373C136.024 74.3304 136.076 74.3206 136.122 74.3118C136.188 74.2995 136.256 74.285 136.326 74.2668L136.424 74.2484C136.476 74.2386 136.526 74.2291 136.578 74.2159L136.6 74.2118C136.654 74.2033 136.697 74.1968 136.736 74.1894C136.782 74.1807 136.829 74.1719 136.878 74.1593L136.899 74.1553C136.953 74.1467 136.996 74.1403 137.036 74.1329C137.079 74.1248 137.123 74.1164 137.169 74.106L137.191 74.1021C137.245 74.0951 137.291 74.0848 137.334 74.0783C137.382 74.0692 137.432 74.0597 137.481 74.0471L137.504 74.0428C137.56 74.0339 137.603 74.0274 137.643 74.02C137.691 74.0109 137.741 74.0015 137.79 73.9889L137.811 73.9849C137.876 73.9743 137.912 73.9692 137.949 73.9622C137.997 73.9531 138.049 73.9433 138.098 73.9307L138.12 73.9267C138.179 73.9171 138.219 73.9129 138.253 73.9049C138.301 73.8958 138.351 73.8865 138.4 73.8739L138.444 73.8655C138.485 73.8576 138.52 73.8529 138.552 73.8484C138.611 73.8372 138.67 73.8261 138.73 73.8116L138.751 73.8075C138.785 73.8012 138.816 73.7953 138.846 73.7896C138.899 73.7796 138.956 73.7689 139.011 73.7552L139.032 73.7511C139.09 73.742 139.128 73.7381 139.16 73.7305C139.212 73.7207 139.265 73.7106 139.32 73.697L139.364 73.6886C139.4 73.6818 139.429 73.6796 139.458 73.6742C139.502 73.6658 139.55 73.6567 139.596 73.6464L139.618 73.6424C139.674 73.635 139.719 73.6283 139.756 73.6196C139.813 73.6088 139.868 73.5984 139.928 73.5838L139.971 73.5758C140.012 73.568 140.045 73.565 140.072 73.56C140.125 73.55 140.177 73.5402 140.231 73.5265L140.283 73.5169C140.321 73.5097 140.35 73.5075 140.373 73.5016C140.433 73.4901 140.498 73.478 140.557 73.4634L140.579 73.4593C140.615 73.4542 140.649 73.4494 140.672 73.4435C140.718 73.4347 140.768 73.4253 140.816 73.4147L141.009 73.3716L141.012 73.3827L144.609 72.7073C147.086 72.2398 148.673 70.0703 148.147 67.8709L147.756 66.2399C147.663 65.8505 147.23 65.5995 146.789 65.6826L117.903 71.133Z" fill="black"/>
<path d="M148.356 73.6751L145.831 74.1517C143.353 74.6191 141.766 76.7888 142.292 78.9881L145.134 90.8559C145.661 93.0553 148.105 94.4641 150.583 93.9967L153.108 93.5201C153.547 93.4374 153.83 93.0529 153.736 92.6619L149.323 74.2324C149.23 73.843 148.797 73.592 148.356 73.6751Z" fill="black"/>
</mask>
<g mask="url(#mask8_9_437)">
<path d="M148.356 73.6751L145.831 74.1517C143.353 74.6191 141.766 76.7888 142.292 78.9881L145.134 90.8559C145.661 93.0553 148.105 94.4641 150.583 93.9967L153.108 93.5201C153.547 93.4374 153.83 93.0529 153.736 92.6619L149.323 74.2324C149.23 73.843 148.797 73.592 148.356 73.6751Z" stroke="white" stroke-width="6"/>
</g>
</g>
</g>
<defs>
<filter id="filter0_di_9_437" x="20.9154" y="67.9155" width="60.3689" height="60.369" filterUnits="userSpaceOnUse" color-interpolation-filters="sRGB">
<feFlood flood-opacity="0" result="BackgroundImageFix"/>
<feColorMatrix in="SourceAlpha" type="matrix" values="0 0 0 0 0 0 0 0 0 0 0 0 0 0 0 0 0 0 127 0" result="hardAlpha"/>
<feOffset dy="4"/>
<feGaussianBlur stdDeviation="6"/>
<feComposite in2="hardAlpha" operator="out"/>
<feColorMatrix type="matrix" values="0 0 0 0 0 0 0 0 0 0 0 0 0 0 0 0 0 0 0.02 0"/>
<feBlend mode="normal" in2="BackgroundImageFix" result="effect1_dropShadow_9_437"/>
<feBlend mode="normal" in="SourceGraphic" in2="effect1_dropShadow_9_437" result="shape"/>
<feColorMatrix in="SourceAlpha" type="matrix" values="0 0 0 0 0 0 0 0 0 0 0 0 0 0 0 0 0 0 127 0" result="hardAlpha"/>
<feOffset dy="2"/>
<feGaussianBlur stdDeviation="1"/>
<feComposite in2="hardAlpha" operator="arithmetic" k2="-1" k3="1"/>
<feColorMatrix type="matrix" values="0 0 0 0 0 0 0 0 0 0 0 0 0 0 0 0 0 0 0.03 0"/>
<feBlend mode="normal" in2="shape" result="effect2_innerShadow_9_437"/>
</filter>
<filter id="filter1_di_9_437" x="20.9154" y="67.9155" width="60.3689" height="60.369" filterUnits="userSpaceOnUse" color-interpolation-filters="sRGB">
<feFlood flood-opacity="0" result="BackgroundImageFix"/>
<feColorMatrix in="SourceAlpha" type="matrix" values="0 0 0 0 0 0 0 0 0 0 0 0 0 0 0 0 0 0 127 0" result="hardAlpha"/>
<feOffset dy="4"/>
<feGaussianBlur stdDeviation="6"/>
<feComposite in2="hardAlpha" operator="out"/>
<feColorMatrix type="matrix" values="0 0 0 0 0 0 0 0 0 0 0 0 0 0 0 0 0 0 0.02 0"/>
<feBlend mode="normal" in2="BackgroundImageFix" result="effect1_dropShadow_9_437"/>
<feBlend mode="normal" in="SourceGraphic" in2="effect1_dropShadow_9_437" result="shape"/>
<feColorMatrix in="SourceAlpha" type="matrix" values="0 0 0 0 0 0 0 0 0 0 0 0 0 0 0 0 0 0 127 0" result="hardAlpha"/>
<feOffset dy="2"/>
<feGaussianBlur stdDeviation="1"/>
<feComposite in2="hardAlpha" operator="arithmetic" k2="-1" k3="1"/>
<feColorMatrix type="matrix" values="0 0 0 0 0 0 0 0 0 0 0 0 0 0 0 0 0 0 0.03 0"/>
<feBlend mode="normal" in2="shape" result="effect2_innerShadow_9_437"/>
</filter>
<filter id="filter2_di_9_437" x="61.9519" y="-6.04816" width="67.4279" height="67.4279" filterUnits="userSpaceOnUse" color-interpolation-filters="sRGB">
<feFlood flood-opacity="0" result="BackgroundImageFix"/>
<feColorMatrix in="SourceAlpha" type="matrix" values="0 0 0 0 0 0 0 0 0 0 0 0 0 0 0 0 0 0 127 0" result="hardAlpha"/>
<feOffset dy="4"/>
<feGaussianBlur stdDeviation="6"/>
<feComposite in2="hardAlpha" operator="out"/>
<feColorMatrix type="matrix" values="0 0 0 0 0 0 0 0 0 0 0 0 0 0 0 0 0 0 0.02 0"/>
<feBlend mode="normal" in2="BackgroundImageFix" result="effect1_dropShadow_9_437"/>
<feBlend mode="normal" in="SourceGraphic" in2="effect1_dropShadow_9_437" result="shape"/>
<feColorMatrix in="SourceAlpha" type="matrix" values="0 0 0 0 0 0 0 0 0 0 0 0 0 0 0 0 0 0 127 0" result="hardAlpha"/>
<feOffset dy="2"/>
<feGaussianBlur stdDeviation="1"/>
<feComposite in2="hardAlpha" operator="arithmetic" k2="-1" k3="1"/>
<feColorMatrix type="matrix" values="0 0 0 0 0 0 0 0 0 0 0 0 0 0 0 0 0 0 0.03 0"/>
<feBlend mode="normal" in2="shape" result="effect2_innerShadow_9_437"/>
</filter>
<filter id="filter3_di_9_437" x="61.9519" y="-6.04816" width="67.4279" height="67.4279" filterUnits="userSpaceOnUse" color-interpolation-filters="sRGB">
<feFlood flood-opacity="0" result="BackgroundImageFix"/>
<feColorMatrix in="SourceAlpha" type="matrix" values="0 0 0 0 0 0 0 0 0 0 0 0 0 0 0 0 0 0 127 0" result="hardAlpha"/>
<feOffset dy="4"/>
<feGaussianBlur stdDeviation="6"/>
<feComposite in2="hardAlpha" operator="out"/>
<feColorMatrix type="matrix" values="0 0 0 0 0 0 0 0 0 0 0 0 0 0 0 0 0 0 0.02 0"/>
<feBlend mode="normal" in2="BackgroundImageFix" result="effect1_dropShadow_9_437"/>
<feBlend mode="normal" in="SourceGraphic" in2="effect1_dropShadow_9_437" result="shape"/>
<feColorMatrix in="SourceAlpha" type="matrix" values="0 0 0 0 0 0 0 0 0 0 0 0 0 0 0 0 0 0 127 0" result="hardAlpha"/>
<feOffset dy="2"/>
<feGaussianBlur stdDeviation="1"/>
<feComposite in2="hardAlpha" operator="arithmetic" k2="-1" k3="1"/>
<feColorMatrix type="matrix" values="0 0 0 0 0 0 0 0 0 0 0 0 0 0 0 0 0 0 0.03 0"/>
<feBlend mode="normal" in2="shape" result="effect2_innerShadow_9_437"/>
</filter>
<filter id="filter4_di_9_437" x="278.272" y="-3.72736" width="62.9584" height="62.9584" filterUnits="userSpaceOnUse" color-interpolation-filters="sRGB">
<feFlood flood-opacity="0" result="BackgroundImageFix"/>
<feColorMatrix in="SourceAlpha" type="matrix" values="0 0 0 0 0 0 0 0 0 0 0 0 0 0 0 0 0 0 127 0" result="hardAlpha"/>
<feOffset dy="4"/>
<feGaussianBlur stdDeviation="6"/>
<feComposite in2="hardAlpha" operator="out"/>
<feColorMatrix type="matrix" values="0 0 0 0 0 0 0 0 0 0 0 0 0 0 0 0 0 0 0.02 0"/>
<feBlend mode="normal" in2="BackgroundImageFix" result="effect1_dropShadow_9_437"/>
<feBlend mode="normal" in="SourceGraphic" in2="effect1_dropShadow_9_437" result="shape"/>
<feColorMatrix in="SourceAlpha" type="matrix" values="0 0 0 0 0 0 0 0 0 0 0 0 0 0 0 0 0 0 127 0" result="hardAlpha"/>
<feOffset dy="2"/>
<feGaussianBlur stdDeviation="1"/>
<feComposite in2="hardAlpha" operator="arithmetic" k2="-1" k3="1"/>
<feColorMatrix type="matrix" values="0 0 0 0 0 0 0 0 0 0 0 0 0 0 0 0 0 0 0.03 0"/>
<feBlend mode="normal" in2="shape" result="effect2_innerShadow_9_437"/>
</filter>
<filter id="filter5_di_9_437" x="278.272" y="-3.72736" width="62.9584" height="62.9584" filterUnits="userSpaceOnUse" color-interpolation-filters="sRGB">
<feFlood flood-opacity="0" result="BackgroundImageFix"/>
<feColorMatrix in="SourceAlpha" type="matrix" values="0 0 0 0 0 0 0 0 0 0 0 0 0 0 0 0 0 0 127 0" result="hardAlpha"/>
<feOffset dy="4"/>
<feGaussianBlur stdDeviation="6"/>
<feComposite in2="hardAlpha" operator="out"/>
<feColorMatrix type="matrix" values="0 0 0 0 0 0 0 0 0 0 0 0 0 0 0 0 0 0 0.02 0"/>
<feBlend mode="normal" in2="BackgroundImageFix" result="effect1_dropShadow_9_437"/>
<feBlend mode="normal" in="SourceGraphic" in2="effect1_dropShadow_9_437" result="shape"/>
<feColorMatrix in="SourceAlpha" type="matrix" values="0 0 0 0 0 0 0 0 0 0 0 0 0 0 0 0 0 0 127 0" result="hardAlpha"/>
<feOffset dy="2"/>
<feGaussianBlur stdDeviation="1"/>
<feComposite in2="hardAlpha" operator="arithmetic" k2="-1" k3="1"/>
<feColorMatrix type="matrix" values="0 0 0 0 0 0 0 0 0 0 0 0 0 0 0 0 0 0 0.03 0"/>
<feBlend mode="normal" in2="shape" result="effect2_innerShadow_9_437"/>
</filter>
<filter id="filter6_di_9_437" x="260.272" y="67.2726" width="62.9584" height="62.9584" filterUnits="userSpaceOnUse" color-interpolation-filters="sRGB">
<feFlood flood-opacity="0" result="BackgroundImageFix"/>
<feColorMatrix in="SourceAlpha" type="matrix" values="0 0 0 0 0 0 0 0 0 0 0 0 0 0 0 0 0 0 127 0" result="hardAlpha"/>
<feOffset dy="4"/>
<feGaussianBlur stdDeviation="6"/>
<feComposite in2="hardAlpha" operator="out"/>
<feColorMatrix type="matrix" values="0 0 0 0 0 0 0 0 0 0 0 0 0 0 0 0 0 0 0.02 0"/>
<feBlend mode="normal" in2="BackgroundImageFix" result="effect1_dropShadow_9_437"/>
<feBlend mode="normal" in="SourceGraphic" in2="effect1_dropShadow_9_437" result="shape"/>
<feColorMatrix in="SourceAlpha" type="matrix" values="0 0 0 0 0 0 0 0 0 0 0 0 0 0 0 0 0 0 127 0" result="hardAlpha"/>
<feOffset dy="2"/>
<feGaussianBlur stdDeviation="1"/>
<feComposite in2="hardAlpha" operator="arithmetic" k2="-1" k3="1"/>
<feColorMatrix type="matrix" values="0 0 0 0 0 0 0 0 0 0 0 0 0 0 0 0 0 0 0.03 0"/>
<feBlend mode="normal" in2="shape" result="effect2_innerShadow_9_437"/>
</filter>
<filter id="filter7_di_9_437" x="260.272" y="67.2726" width="62.9584" height="62.9584" filterUnits="userSpaceOnUse" color-interpolation-filters="sRGB">
<feFlood flood-opacity="0" result="BackgroundImageFix"/>
<feColorMatrix in="SourceAlpha" type="matrix" values="0 0 0 0 0 0 0 0 0 0 0 0 0 0 0 0 0 0 127 0" result="hardAlpha"/>
<feOffset dy="4"/>
<feGaussianBlur stdDeviation="6"/>
<feComposite in2="hardAlpha" operator="out"/>
<feColorMatrix type="matrix" values="0 0 0 0 0 0 0 0 0 0 0 0 0 0 0 0 0 0 0.02 0"/>
<feBlend mode="normal" in2="BackgroundImageFix" result="effect1_dropShadow_9_437"/>
<feBlend mode="normal" in="SourceGraphic" in2="effect1_dropShadow_9_437" result="shape"/>
<feColorMatrix in="SourceAlpha" type="matrix" values="0 0 0 0 0 0 0 0 0 0 0 0 0 0 0 0 0 0 127 0" result="hardAlpha"/>
<feOffset dy="2"/>
<feGaussianBlur stdDeviation="1"/>
<feComposite in2="hardAlpha" operator="arithmetic" k2="-1" k3="1"/>
<feColorMatrix type="matrix" values="0 0 0 0 0 0 0 0 0 0 0 0 0 0 0 0 0 0 0.03 0"/>
<feBlend mode="normal" in2="shape" result="effect2_innerShadow_9_437"/>
</filter>
<filter id="filter8_di_9_437" x="332.415" y="34.6619" width="82.6409" height="82.6409" filterUnits="userSpaceOnUse" color-interpolation-filters="sRGB">
<feFlood flood-opacity="0" result="BackgroundImageFix"/>
<feColorMatrix in="SourceAlpha" type="matrix" values="0 0 0 0 0 0 0 0 0 0 0 0 0 0 0 0 0 0 127 0" result="hardAlpha"/>
<feOffset dy="6.24671"/>
<feGaussianBlur stdDeviation="9.37006"/>
<feComposite in2="hardAlpha" operator="out"/>
<feColorMatrix type="matrix" values="0 0 0 0 0 0 0 0 0 0 0 0 0 0 0 0 0 0 0.04 0"/>
<feBlend mode="normal" in2="BackgroundImageFix" result="effect1_dropShadow_9_437"/>
<feBlend mode="normal" in="SourceGraphic" in2="effect1_dropShadow_9_437" result="shape"/>
<feColorMatrix in="SourceAlpha" type="matrix" values="0 0 0 0 0 0 0 0 0 0 0 0 0 0 0 0 0 0 127 0" result="hardAlpha"/>
<feOffset dy="6.24671"/>
<feGaussianBlur stdDeviation="6.24671"/>
<feComposite in2="hardAlpha" operator="arithmetic" k2="-1" k3="1"/>
<feColorMatrix type="matrix" values="0 0 0 0 0 0 0 0 0 0 0 0 0 0 0 0 0 0 0.06 0"/>
<feBlend mode="normal" in2="shape" result="effect2_innerShadow_9_437"/>
</filter>
<filter id="filter9_d_9_437" x="106.249" y="56.6707" width="58.5125" height="55.1756" filterUnits="userSpaceOnUse" color-interpolation-filters="sRGB">
<feFlood flood-opacity="0" result="BackgroundImageFix"/>
<feColorMatrix in="SourceAlpha" type="matrix" values="0 0 0 0 0 0 0 0 0 0 0 0 0 0 0 0 0 0 127 0" result="hardAlpha"/>
<feOffset dy="2"/>
<feGaussianBlur stdDeviation="4"/>
<feComposite in2="hardAlpha" operator="out"/>
<feColorMatrix type="matrix" values="0 0 0 0 0 0 0 0 0 0 0 0 0 0 0 0 0 0 0.1 0"/>
<feBlend mode="normal" in2="BackgroundImageFix" result="effect1_dropShadow_9_437"/>
<feBlend mode="normal" in="SourceGraphic" in2="effect1_dropShadow_9_437" result="shape"/>
</filter>
<clipPath id="clip0_9_437">
<rect width="430" height="130" fill="white"/>
</clipPath>
</defs>
</svg>
