<svg width="94" height="94" viewBox="0 0 94 94" fill="none" xmlns="http://www.w3.org/2000/svg">
<g clip-path="url(#clip0_11_1391)">
<g opacity="0.05" filter="url(#filter0_d_11_1391)">
<rect width="100" height="9" fill="white"/>
<circle cx="1.5" cy="1.5" r="1.5" fill="black"/>
<circle cx="10.5" cy="1.5" r="1.5" fill="black"/>
<circle cx="19.5" cy="1.5" r="1.5" fill="black"/>
<circle cx="28.5" cy="1.5" r="1.5" fill="black"/>
<circle cx="37.5" cy="1.5" r="1.5" fill="black"/>
<circle cx="46.5" cy="1.5" r="1.5" fill="black"/>
<circle cx="55.5" cy="1.5" r="1.5" fill="black"/>
<circle cx="64.5" cy="1.5" r="1.5" fill="black"/>
<circle cx="73.5" cy="1.5" r="1.5" fill="black"/>
<circle cx="82.5" cy="1.5" r="1.5" fill="black"/>
<circle cx="91.5" cy="1.5" r="1.5" fill="black"/>
</g>
<g opacity="0.05" filter="url(#filter1_d_11_1391)">
<rect width="100" height="9" transform="translate(0 9)" fill="white"/>
<circle cx="1.5" cy="10.5" r="1.5" fill="black"/>
<circle cx="10.5" cy="10.5" r="1.5" fill="black"/>
<circle cx="19.5" cy="10.5" r="1.5" fill="black"/>
<circle cx="28.5" cy="10.5" r="1.5" fill="black"/>
<circle cx="37.5" cy="10.5" r="1.5" fill="black"/>
<circle cx="46.5" cy="10.5" r="1.5" fill="black"/>
<circle cx="55.5" cy="10.5" r="1.5" fill="black"/>
<circle cx="64.5" cy="10.5" r="1.5" fill="black"/>
<circle cx="73.5" cy="10.5" r="1.5" fill="black"/>
<circle cx="82.5" cy="10.5" r="1.5" fill="black"/>
<circle cx="91.5" cy="10.5" r="1.5" fill="black"/>
</g>
<g opacity="0.05" filter="url(#filter2_d_11_1391)">
<rect width="100" height="9" transform="translate(0 18)" fill="white"/>
<circle cx="1.5" cy="19.5" r="1.5" fill="black"/>
<circle cx="10.5" cy="19.5" r="1.5" fill="black"/>
<circle cx="19.5" cy="19.5" r="1.5" fill="black"/>
<circle cx="28.5" cy="19.5" r="1.5" fill="black"/>
<circle cx="37.5" cy="19.5" r="1.5" fill="black"/>
<circle cx="46.5" cy="19.5" r="1.5" fill="black"/>
<circle cx="55.5" cy="19.5" r="1.5" fill="black"/>
<circle cx="64.5" cy="19.5" r="1.5" fill="black"/>
<circle cx="73.5" cy="19.5" r="1.5" fill="black"/>
<circle cx="82.5" cy="19.5" r="1.5" fill="black"/>
<circle cx="91.5" cy="19.5" r="1.5" fill="black"/>
</g>
<g opacity="0.05" filter="url(#filter3_d_11_1391)">
<rect width="100" height="9" transform="translate(0 27)" fill="white"/>
<circle cx="1.5" cy="28.5" r="1.5" fill="black"/>
<circle cx="10.5" cy="28.5" r="1.5" fill="black"/>
<circle cx="19.5" cy="28.5" r="1.5" fill="black"/>
<circle cx="28.5" cy="28.5" r="1.5" fill="black"/>
<circle cx="37.5" cy="28.5" r="1.5" fill="black"/>
<circle cx="46.5" cy="28.5" r="1.5" fill="black"/>
<circle cx="55.5" cy="28.5" r="1.5" fill="black"/>
<circle cx="64.5" cy="28.5" r="1.5" fill="black"/>
<circle cx="73.5" cy="28.5" r="1.5" fill="black"/>
<circle cx="82.5" cy="28.5" r="1.5" fill="black"/>
<circle cx="91.5" cy="28.5" r="1.5" fill="black"/>
</g>
<g opacity="0.05" filter="url(#filter4_d_11_1391)">
<rect width="100" height="9" transform="translate(0 36)" fill="white"/>
<circle cx="1.5" cy="37.5" r="1.5" fill="black"/>
<circle cx="10.5" cy="37.5" r="1.5" fill="black"/>
<circle cx="19.5" cy="37.5" r="1.5" fill="black"/>
<circle cx="28.5" cy="37.5" r="1.5" fill="black"/>
<circle cx="37.5" cy="37.5" r="1.5" fill="black"/>
<circle cx="46.5" cy="37.5" r="1.5" fill="black"/>
<circle cx="55.5" cy="37.5" r="1.5" fill="black"/>
<circle cx="64.5" cy="37.5" r="1.5" fill="black"/>
<circle cx="73.5" cy="37.5" r="1.5" fill="black"/>
<circle cx="82.5" cy="37.5" r="1.5" fill="black"/>
<circle cx="91.5" cy="37.5" r="1.5" fill="black"/>
</g>
<g opacity="0.05" filter="url(#filter5_d_11_1391)">
<rect width="100" height="9" transform="translate(0 45)" fill="white"/>
<circle cx="1.5" cy="46.5" r="1.5" fill="black"/>
<circle cx="10.5" cy="46.5" r="1.5" fill="black"/>
<circle cx="19.5" cy="46.5" r="1.5" fill="black"/>
<circle cx="28.5" cy="46.5" r="1.5" fill="black"/>
<circle cx="37.5" cy="46.5" r="1.5" fill="black"/>
<circle cx="46.5" cy="46.5" r="1.5" fill="black"/>
<circle cx="55.5" cy="46.5" r="1.5" fill="black"/>
<circle cx="64.5" cy="46.5" r="1.5" fill="black"/>
<circle cx="73.5" cy="46.5" r="1.5" fill="black"/>
<circle cx="82.5" cy="46.5" r="1.5" fill="black"/>
<circle cx="91.5" cy="46.5" r="1.5" fill="black"/>
</g>
<g opacity="0.05" filter="url(#filter6_d_11_1391)">
<rect width="100" height="9" transform="translate(0 54)" fill="white"/>
<circle cx="1.5" cy="55.5" r="1.5" fill="black"/>
<circle cx="10.5" cy="55.5" r="1.5" fill="black"/>
<circle cx="19.5" cy="55.5" r="1.5" fill="black"/>
<circle cx="28.5" cy="55.5" r="1.5" fill="black"/>
<circle cx="37.5" cy="55.5" r="1.5" fill="black"/>
<circle cx="46.5" cy="55.5" r="1.5" fill="black"/>
<circle cx="55.5" cy="55.5" r="1.5" fill="black"/>
<circle cx="64.5" cy="55.5" r="1.5" fill="black"/>
<circle cx="73.5" cy="55.5" r="1.5" fill="black"/>
<circle cx="82.5" cy="55.5" r="1.5" fill="black"/>
<circle cx="91.5" cy="55.5" r="1.5" fill="black"/>
</g>
<g opacity="0.05" filter="url(#filter7_d_11_1391)">
<rect width="100" height="9" transform="translate(0 63)" fill="white"/>
<circle cx="1.5" cy="64.5" r="1.5" fill="black"/>
<circle cx="10.5" cy="64.5" r="1.5" fill="black"/>
<circle cx="19.5" cy="64.5" r="1.5" fill="black"/>
<circle cx="28.5" cy="64.5" r="1.5" fill="black"/>
<circle cx="37.5" cy="64.5" r="1.5" fill="black"/>
<circle cx="46.5" cy="64.5" r="1.5" fill="black"/>
<circle cx="55.5" cy="64.5" r="1.5" fill="black"/>
<circle cx="64.5" cy="64.5" r="1.5" fill="black"/>
<circle cx="73.5" cy="64.5" r="1.5" fill="black"/>
<circle cx="82.5" cy="64.5" r="1.5" fill="black"/>
<circle cx="91.5" cy="64.5" r="1.5" fill="black"/>
</g>
<g opacity="0.05" filter="url(#filter8_d_11_1391)">
<rect width="100" height="9" transform="translate(0 72)" fill="white"/>
<circle cx="1.5" cy="73.5" r="1.5" fill="black"/>
<circle cx="10.5" cy="73.5" r="1.5" fill="black"/>
<circle cx="19.5" cy="73.5" r="1.5" fill="black"/>
<circle cx="28.5" cy="73.5" r="1.5" fill="black"/>
<circle cx="37.5" cy="73.5" r="1.5" fill="black"/>
<circle cx="46.5" cy="73.5" r="1.5" fill="black"/>
<circle cx="55.5" cy="73.5" r="1.5" fill="black"/>
<circle cx="64.5" cy="73.5" r="1.5" fill="black"/>
<circle cx="73.5" cy="73.5" r="1.5" fill="black"/>
<circle cx="82.5" cy="73.5" r="1.5" fill="black"/>
<circle cx="91.5" cy="73.5" r="1.5" fill="black"/>
</g>
<g opacity="0.05" filter="url(#filter9_d_11_1391)">
<rect width="100" height="9" transform="translate(0 81)" fill="white"/>
<circle cx="1.5" cy="82.5" r="1.5" fill="black"/>
<circle cx="10.5" cy="82.5" r="1.5" fill="black"/>
<circle cx="19.5" cy="82.5" r="1.5" fill="black"/>
<circle cx="28.5" cy="82.5" r="1.5" fill="black"/>
<circle cx="37.5" cy="82.5" r="1.5" fill="black"/>
<circle cx="46.5" cy="82.5" r="1.5" fill="black"/>
<circle cx="55.5" cy="82.5" r="1.5" fill="black"/>
<circle cx="64.5" cy="82.5" r="1.5" fill="black"/>
<circle cx="73.5" cy="82.5" r="1.5" fill="black"/>
<circle cx="82.5" cy="82.5" r="1.5" fill="black"/>
<circle cx="91.5" cy="82.5" r="1.5" fill="black"/>
</g>
<g opacity="0.05" filter="url(#filter10_d_11_1391)">
<rect width="100" height="9" transform="translate(0 90)" fill="white"/>
<circle cx="1.5" cy="91.5" r="1.5" fill="black"/>
<circle cx="10.5" cy="91.5" r="1.5" fill="black"/>
<circle cx="19.5" cy="91.5" r="1.5" fill="black"/>
<circle cx="28.5" cy="91.5" r="1.5" fill="black"/>
<circle cx="37.5" cy="91.5" r="1.5" fill="black"/>
<circle cx="46.5" cy="91.5" r="1.5" fill="black"/>
<circle cx="55.5" cy="91.5" r="1.5" fill="black"/>
<circle cx="64.5" cy="91.5" r="1.5" fill="black"/>
<circle cx="73.5" cy="91.5" r="1.5" fill="black"/>
<circle cx="82.5" cy="91.5" r="1.5" fill="black"/>
<circle cx="91.5" cy="91.5" r="1.5" fill="black"/>
</g>
<path d="M42.2501 48.625C43.1626 49.845 44.3269 50.8545 45.664 51.585C47.001 52.3155 48.4795 52.7499 49.9992 52.8587C51.5189 52.9675 53.0442 52.7483 54.4717 52.2158C55.8992 51.6833 57.1954 50.85 58.2726 49.7725L64.6476 43.3975C66.583 41.3936 67.6539 38.7097 67.6297 35.9239C67.6055 33.138 66.4881 30.4731 64.5181 28.5032C62.5482 26.5332 59.8833 25.4158 57.0974 25.3916C54.3116 25.3674 51.6277 26.4383 49.6238 28.3738L45.9688 32.0075M50.7501 44.375C49.8375 43.155 48.6732 42.1455 47.3361 41.415C45.9991 40.6845 44.5206 40.2501 43.0009 40.1413C41.4812 40.0325 39.9559 40.2517 38.5284 40.7842C37.101 41.3167 35.8047 42.15 34.7276 43.2275L28.3526 49.6025C26.4171 51.6064 25.3462 54.2903 25.3704 57.0761C25.3946 59.862 26.512 62.5269 28.482 64.4968C30.4519 66.4668 33.1168 67.5842 35.9027 67.6084C38.6885 67.6326 41.3724 66.5617 43.3763 64.6263L47.0101 60.9925" stroke="#1E1E1E" stroke-width="4" stroke-linecap="round" stroke-linejoin="round"/>
</g>
<defs>
<filter id="filter0_d_11_1391" x="-2" y="0" width="104" height="13" filterUnits="userSpaceOnUse" color-interpolation-filters="sRGB">
<feFlood flood-opacity="0" result="BackgroundImageFix"/>
<feColorMatrix in="SourceAlpha" type="matrix" values="0 0 0 0 0 0 0 0 0 0 0 0 0 0 0 0 0 0 127 0" result="hardAlpha"/>
<feOffset dy="2"/>
<feGaussianBlur stdDeviation="1"/>
<feComposite in2="hardAlpha" operator="out"/>
<feColorMatrix type="matrix" values="0 0 0 0 0 0 0 0 0 0 0 0 0 0 0 0 0 0 0.25 0"/>
<feBlend mode="normal" in2="BackgroundImageFix" result="effect1_dropShadow_11_1391"/>
<feBlend mode="normal" in="SourceGraphic" in2="effect1_dropShadow_11_1391" result="shape"/>
</filter>
<filter id="filter1_d_11_1391" x="-2" y="9" width="104" height="13" filterUnits="userSpaceOnUse" color-interpolation-filters="sRGB">
<feFlood flood-opacity="0" result="BackgroundImageFix"/>
<feColorMatrix in="SourceAlpha" type="matrix" values="0 0 0 0 0 0 0 0 0 0 0 0 0 0 0 0 0 0 127 0" result="hardAlpha"/>
<feOffset dy="2"/>
<feGaussianBlur stdDeviation="1"/>
<feComposite in2="hardAlpha" operator="out"/>
<feColorMatrix type="matrix" values="0 0 0 0 0 0 0 0 0 0 0 0 0 0 0 0 0 0 0.25 0"/>
<feBlend mode="normal" in2="BackgroundImageFix" result="effect1_dropShadow_11_1391"/>
<feBlend mode="normal" in="SourceGraphic" in2="effect1_dropShadow_11_1391" result="shape"/>
</filter>
<filter id="filter2_d_11_1391" x="-2" y="18" width="104" height="13" filterUnits="userSpaceOnUse" color-interpolation-filters="sRGB">
<feFlood flood-opacity="0" result="BackgroundImageFix"/>
<feColorMatrix in="SourceAlpha" type="matrix" values="0 0 0 0 0 0 0 0 0 0 0 0 0 0 0 0 0 0 127 0" result="hardAlpha"/>
<feOffset dy="2"/>
<feGaussianBlur stdDeviation="1"/>
<feComposite in2="hardAlpha" operator="out"/>
<feColorMatrix type="matrix" values="0 0 0 0 0 0 0 0 0 0 0 0 0 0 0 0 0 0 0.25 0"/>
<feBlend mode="normal" in2="BackgroundImageFix" result="effect1_dropShadow_11_1391"/>
<feBlend mode="normal" in="SourceGraphic" in2="effect1_dropShadow_11_1391" result="shape"/>
</filter>
<filter id="filter3_d_11_1391" x="-2" y="27" width="104" height="13" filterUnits="userSpaceOnUse" color-interpolation-filters="sRGB">
<feFlood flood-opacity="0" result="BackgroundImageFix"/>
<feColorMatrix in="SourceAlpha" type="matrix" values="0 0 0 0 0 0 0 0 0 0 0 0 0 0 0 0 0 0 127 0" result="hardAlpha"/>
<feOffset dy="2"/>
<feGaussianBlur stdDeviation="1"/>
<feComposite in2="hardAlpha" operator="out"/>
<feColorMatrix type="matrix" values="0 0 0 0 0 0 0 0 0 0 0 0 0 0 0 0 0 0 0.25 0"/>
<feBlend mode="normal" in2="BackgroundImageFix" result="effect1_dropShadow_11_1391"/>
<feBlend mode="normal" in="SourceGraphic" in2="effect1_dropShadow_11_1391" result="shape"/>
</filter>
<filter id="filter4_d_11_1391" x="-2" y="36" width="104" height="13" filterUnits="userSpaceOnUse" color-interpolation-filters="sRGB">
<feFlood flood-opacity="0" result="BackgroundImageFix"/>
<feColorMatrix in="SourceAlpha" type="matrix" values="0 0 0 0 0 0 0 0 0 0 0 0 0 0 0 0 0 0 127 0" result="hardAlpha"/>
<feOffset dy="2"/>
<feGaussianBlur stdDeviation="1"/>
<feComposite in2="hardAlpha" operator="out"/>
<feColorMatrix type="matrix" values="0 0 0 0 0 0 0 0 0 0 0 0 0 0 0 0 0 0 0.25 0"/>
<feBlend mode="normal" in2="BackgroundImageFix" result="effect1_dropShadow_11_1391"/>
<feBlend mode="normal" in="SourceGraphic" in2="effect1_dropShadow_11_1391" result="shape"/>
</filter>
<filter id="filter5_d_11_1391" x="-2" y="45" width="104" height="13" filterUnits="userSpaceOnUse" color-interpolation-filters="sRGB">
<feFlood flood-opacity="0" result="BackgroundImageFix"/>
<feColorMatrix in="SourceAlpha" type="matrix" values="0 0 0 0 0 0 0 0 0 0 0 0 0 0 0 0 0 0 127 0" result="hardAlpha"/>
<feOffset dy="2"/>
<feGaussianBlur stdDeviation="1"/>
<feComposite in2="hardAlpha" operator="out"/>
<feColorMatrix type="matrix" values="0 0 0 0 0 0 0 0 0 0 0 0 0 0 0 0 0 0 0.25 0"/>
<feBlend mode="normal" in2="BackgroundImageFix" result="effect1_dropShadow_11_1391"/>
<feBlend mode="normal" in="SourceGraphic" in2="effect1_dropShadow_11_1391" result="shape"/>
</filter>
<filter id="filter6_d_11_1391" x="-2" y="54" width="104" height="13" filterUnits="userSpaceOnUse" color-interpolation-filters="sRGB">
<feFlood flood-opacity="0" result="BackgroundImageFix"/>
<feColorMatrix in="SourceAlpha" type="matrix" values="0 0 0 0 0 0 0 0 0 0 0 0 0 0 0 0 0 0 127 0" result="hardAlpha"/>
<feOffset dy="2"/>
<feGaussianBlur stdDeviation="1"/>
<feComposite in2="hardAlpha" operator="out"/>
<feColorMatrix type="matrix" values="0 0 0 0 0 0 0 0 0 0 0 0 0 0 0 0 0 0 0.25 0"/>
<feBlend mode="normal" in2="BackgroundImageFix" result="effect1_dropShadow_11_1391"/>
<feBlend mode="normal" in="SourceGraphic" in2="effect1_dropShadow_11_1391" result="shape"/>
</filter>
<filter id="filter7_d_11_1391" x="-2" y="63" width="104" height="13" filterUnits="userSpaceOnUse" color-interpolation-filters="sRGB">
<feFlood flood-opacity="0" result="BackgroundImageFix"/>
<feColorMatrix in="SourceAlpha" type="matrix" values="0 0 0 0 0 0 0 0 0 0 0 0 0 0 0 0 0 0 127 0" result="hardAlpha"/>
<feOffset dy="2"/>
<feGaussianBlur stdDeviation="1"/>
<feComposite in2="hardAlpha" operator="out"/>
<feColorMatrix type="matrix" values="0 0 0 0 0 0 0 0 0 0 0 0 0 0 0 0 0 0 0.25 0"/>
<feBlend mode="normal" in2="BackgroundImageFix" result="effect1_dropShadow_11_1391"/>
<feBlend mode="normal" in="SourceGraphic" in2="effect1_dropShadow_11_1391" result="shape"/>
</filter>
<filter id="filter8_d_11_1391" x="-2" y="72" width="104" height="13" filterUnits="userSpaceOnUse" color-interpolation-filters="sRGB">
<feFlood flood-opacity="0" result="BackgroundImageFix"/>
<feColorMatrix in="SourceAlpha" type="matrix" values="0 0 0 0 0 0 0 0 0 0 0 0 0 0 0 0 0 0 127 0" result="hardAlpha"/>
<feOffset dy="2"/>
<feGaussianBlur stdDeviation="1"/>
<feComposite in2="hardAlpha" operator="out"/>
<feColorMatrix type="matrix" values="0 0 0 0 0 0 0 0 0 0 0 0 0 0 0 0 0 0 0.25 0"/>
<feBlend mode="normal" in2="BackgroundImageFix" result="effect1_dropShadow_11_1391"/>
<feBlend mode="normal" in="SourceGraphic" in2="effect1_dropShadow_11_1391" result="shape"/>
</filter>
<filter id="filter9_d_11_1391" x="-2" y="81" width="104" height="13" filterUnits="userSpaceOnUse" color-interpolation-filters="sRGB">
<feFlood flood-opacity="0" result="BackgroundImageFix"/>
<feColorMatrix in="SourceAlpha" type="matrix" values="0 0 0 0 0 0 0 0 0 0 0 0 0 0 0 0 0 0 127 0" result="hardAlpha"/>
<feOffset dy="2"/>
<feGaussianBlur stdDeviation="1"/>
<feComposite in2="hardAlpha" operator="out"/>
<feColorMatrix type="matrix" values="0 0 0 0 0 0 0 0 0 0 0 0 0 0 0 0 0 0 0.25 0"/>
<feBlend mode="normal" in2="BackgroundImageFix" result="effect1_dropShadow_11_1391"/>
<feBlend mode="normal" in="SourceGraphic" in2="effect1_dropShadow_11_1391" result="shape"/>
</filter>
<filter id="filter10_d_11_1391" x="-2" y="90" width="104" height="13" filterUnits="userSpaceOnUse" color-interpolation-filters="sRGB">
<feFlood flood-opacity="0" result="BackgroundImageFix"/>
<feColorMatrix in="SourceAlpha" type="matrix" values="0 0 0 0 0 0 0 0 0 0 0 0 0 0 0 0 0 0 127 0" result="hardAlpha"/>
<feOffset dy="2"/>
<feGaussianBlur stdDeviation="1"/>
<feComposite in2="hardAlpha" operator="out"/>
<feColorMatrix type="matrix" values="0 0 0 0 0 0 0 0 0 0 0 0 0 0 0 0 0 0 0.25 0"/>
<feBlend mode="normal" in2="BackgroundImageFix" result="effect1_dropShadow_11_1391"/>
<feBlend mode="normal" in="SourceGraphic" in2="effect1_dropShadow_11_1391" result="shape"/>
</filter>
<clipPath id="clip0_11_1391">
<rect width="94" height="94" fill="white"/>
</clipPath>
</defs>
</svg>
