<svg width="94" height="94" viewBox="0 0 94 94" fill="none" xmlns="http://www.w3.org/2000/svg">
<g clip-path="url(#clip0_11_938)">
<g opacity="0.05" filter="url(#filter0_d_11_938)">
<rect width="100" height="9" fill="white"/>
<circle cx="1.5" cy="1.5" r="1.5" fill="black"/>
<circle cx="10.5" cy="1.5" r="1.5" fill="black"/>
<circle cx="19.5" cy="1.5" r="1.5" fill="black"/>
<circle cx="28.5" cy="1.5" r="1.5" fill="black"/>
<circle cx="37.5" cy="1.5" r="1.5" fill="black"/>
<circle cx="46.5" cy="1.5" r="1.5" fill="black"/>
<circle cx="55.5" cy="1.5" r="1.5" fill="black"/>
<circle cx="64.5" cy="1.5" r="1.5" fill="black"/>
<circle cx="73.5" cy="1.5" r="1.5" fill="black"/>
<circle cx="82.5" cy="1.5" r="1.5" fill="black"/>
<circle cx="91.5" cy="1.5" r="1.5" fill="black"/>
</g>
<g opacity="0.05" filter="url(#filter1_d_11_938)">
<rect width="100" height="9" transform="translate(0 9)" fill="white"/>
<circle cx="1.5" cy="10.5" r="1.5" fill="black"/>
<circle cx="10.5" cy="10.5" r="1.5" fill="black"/>
<circle cx="19.5" cy="10.5" r="1.5" fill="black"/>
<circle cx="28.5" cy="10.5" r="1.5" fill="black"/>
<circle cx="37.5" cy="10.5" r="1.5" fill="black"/>
<circle cx="46.5" cy="10.5" r="1.5" fill="black"/>
<circle cx="55.5" cy="10.5" r="1.5" fill="black"/>
<circle cx="64.5" cy="10.5" r="1.5" fill="black"/>
<circle cx="73.5" cy="10.5" r="1.5" fill="black"/>
<circle cx="82.5" cy="10.5" r="1.5" fill="black"/>
<circle cx="91.5" cy="10.5" r="1.5" fill="black"/>
</g>
<g opacity="0.05" filter="url(#filter2_d_11_938)">
<rect width="100" height="9" transform="translate(0 18)" fill="white"/>
<circle cx="1.5" cy="19.5" r="1.5" fill="black"/>
<circle cx="10.5" cy="19.5" r="1.5" fill="black"/>
<circle cx="19.5" cy="19.5" r="1.5" fill="black"/>
<circle cx="28.5" cy="19.5" r="1.5" fill="black"/>
<circle cx="37.5" cy="19.5" r="1.5" fill="black"/>
<circle cx="46.5" cy="19.5" r="1.5" fill="black"/>
<circle cx="55.5" cy="19.5" r="1.5" fill="black"/>
<circle cx="64.5" cy="19.5" r="1.5" fill="black"/>
<circle cx="73.5" cy="19.5" r="1.5" fill="black"/>
<circle cx="82.5" cy="19.5" r="1.5" fill="black"/>
<circle cx="91.5" cy="19.5" r="1.5" fill="black"/>
</g>
<g opacity="0.05" filter="url(#filter3_d_11_938)">
<rect width="100" height="9" transform="translate(0 27)" fill="white"/>
<circle cx="1.5" cy="28.5" r="1.5" fill="black"/>
<circle cx="10.5" cy="28.5" r="1.5" fill="black"/>
<circle cx="19.5" cy="28.5" r="1.5" fill="black"/>
<circle cx="28.5" cy="28.5" r="1.5" fill="black"/>
<circle cx="37.5" cy="28.5" r="1.5" fill="black"/>
<circle cx="46.5" cy="28.5" r="1.5" fill="black"/>
<circle cx="55.5" cy="28.5" r="1.5" fill="black"/>
<circle cx="64.5" cy="28.5" r="1.5" fill="black"/>
<circle cx="73.5" cy="28.5" r="1.5" fill="black"/>
<circle cx="82.5" cy="28.5" r="1.5" fill="black"/>
<circle cx="91.5" cy="28.5" r="1.5" fill="black"/>
</g>
<g opacity="0.05" filter="url(#filter4_d_11_938)">
<rect width="100" height="9" transform="translate(0 36)" fill="white"/>
<circle cx="1.5" cy="37.5" r="1.5" fill="black"/>
<circle cx="10.5" cy="37.5" r="1.5" fill="black"/>
<circle cx="19.5" cy="37.5" r="1.5" fill="black"/>
<circle cx="28.5" cy="37.5" r="1.5" fill="black"/>
<circle cx="37.5" cy="37.5" r="1.5" fill="black"/>
<circle cx="46.5" cy="37.5" r="1.5" fill="black"/>
<circle cx="55.5" cy="37.5" r="1.5" fill="black"/>
<circle cx="64.5" cy="37.5" r="1.5" fill="black"/>
<circle cx="73.5" cy="37.5" r="1.5" fill="black"/>
<circle cx="82.5" cy="37.5" r="1.5" fill="black"/>
<circle cx="91.5" cy="37.5" r="1.5" fill="black"/>
</g>
<g opacity="0.05" filter="url(#filter5_d_11_938)">
<rect width="100" height="9" transform="translate(0 45)" fill="white"/>
<circle cx="1.5" cy="46.5" r="1.5" fill="black"/>
<circle cx="10.5" cy="46.5" r="1.5" fill="black"/>
<circle cx="19.5" cy="46.5" r="1.5" fill="black"/>
<circle cx="28.5" cy="46.5" r="1.5" fill="black"/>
<circle cx="37.5" cy="46.5" r="1.5" fill="black"/>
<circle cx="46.5" cy="46.5" r="1.5" fill="black"/>
<circle cx="55.5" cy="46.5" r="1.5" fill="black"/>
<circle cx="64.5" cy="46.5" r="1.5" fill="black"/>
<circle cx="73.5" cy="46.5" r="1.5" fill="black"/>
<circle cx="82.5" cy="46.5" r="1.5" fill="black"/>
<circle cx="91.5" cy="46.5" r="1.5" fill="black"/>
</g>
<g opacity="0.05" filter="url(#filter6_d_11_938)">
<rect width="100" height="9" transform="translate(0 54)" fill="white"/>
<circle cx="1.5" cy="55.5" r="1.5" fill="black"/>
<circle cx="10.5" cy="55.5" r="1.5" fill="black"/>
<circle cx="19.5" cy="55.5" r="1.5" fill="black"/>
<circle cx="28.5" cy="55.5" r="1.5" fill="black"/>
<circle cx="37.5" cy="55.5" r="1.5" fill="black"/>
<circle cx="46.5" cy="55.5" r="1.5" fill="black"/>
<circle cx="55.5" cy="55.5" r="1.5" fill="black"/>
<circle cx="64.5" cy="55.5" r="1.5" fill="black"/>
<circle cx="73.5" cy="55.5" r="1.5" fill="black"/>
<circle cx="82.5" cy="55.5" r="1.5" fill="black"/>
<circle cx="91.5" cy="55.5" r="1.5" fill="black"/>
</g>
<g opacity="0.05" filter="url(#filter7_d_11_938)">
<rect width="100" height="9" transform="translate(0 63)" fill="white"/>
<circle cx="1.5" cy="64.5" r="1.5" fill="black"/>
<circle cx="10.5" cy="64.5" r="1.5" fill="black"/>
<circle cx="19.5" cy="64.5" r="1.5" fill="black"/>
<circle cx="28.5" cy="64.5" r="1.5" fill="black"/>
<circle cx="37.5" cy="64.5" r="1.5" fill="black"/>
<circle cx="46.5" cy="64.5" r="1.5" fill="black"/>
<circle cx="55.5" cy="64.5" r="1.5" fill="black"/>
<circle cx="64.5" cy="64.5" r="1.5" fill="black"/>
<circle cx="73.5" cy="64.5" r="1.5" fill="black"/>
<circle cx="82.5" cy="64.5" r="1.5" fill="black"/>
<circle cx="91.5" cy="64.5" r="1.5" fill="black"/>
</g>
<g opacity="0.05" filter="url(#filter8_d_11_938)">
<rect width="100" height="9" transform="translate(0 72)" fill="white"/>
<circle cx="1.5" cy="73.5" r="1.5" fill="black"/>
<circle cx="10.5" cy="73.5" r="1.5" fill="black"/>
<circle cx="19.5" cy="73.5" r="1.5" fill="black"/>
<circle cx="28.5" cy="73.5" r="1.5" fill="black"/>
<circle cx="37.5" cy="73.5" r="1.5" fill="black"/>
<circle cx="46.5" cy="73.5" r="1.5" fill="black"/>
<circle cx="55.5" cy="73.5" r="1.5" fill="black"/>
<circle cx="64.5" cy="73.5" r="1.5" fill="black"/>
<circle cx="73.5" cy="73.5" r="1.5" fill="black"/>
<circle cx="82.5" cy="73.5" r="1.5" fill="black"/>
<circle cx="91.5" cy="73.5" r="1.5" fill="black"/>
</g>
<g opacity="0.05" filter="url(#filter9_d_11_938)">
<rect width="100" height="9" transform="translate(0 81)" fill="white"/>
<circle cx="1.5" cy="82.5" r="1.5" fill="black"/>
<circle cx="10.5" cy="82.5" r="1.5" fill="black"/>
<circle cx="19.5" cy="82.5" r="1.5" fill="black"/>
<circle cx="28.5" cy="82.5" r="1.5" fill="black"/>
<circle cx="37.5" cy="82.5" r="1.5" fill="black"/>
<circle cx="46.5" cy="82.5" r="1.5" fill="black"/>
<circle cx="55.5" cy="82.5" r="1.5" fill="black"/>
<circle cx="64.5" cy="82.5" r="1.5" fill="black"/>
<circle cx="73.5" cy="82.5" r="1.5" fill="black"/>
<circle cx="82.5" cy="82.5" r="1.5" fill="black"/>
<circle cx="91.5" cy="82.5" r="1.5" fill="black"/>
</g>
<g opacity="0.05" filter="url(#filter10_d_11_938)">
<rect width="100" height="9" transform="translate(0 90)" fill="white"/>
<circle cx="1.5" cy="91.5" r="1.5" fill="black"/>
<circle cx="10.5" cy="91.5" r="1.5" fill="black"/>
<circle cx="19.5" cy="91.5" r="1.5" fill="black"/>
<circle cx="28.5" cy="91.5" r="1.5" fill="black"/>
<circle cx="37.5" cy="91.5" r="1.5" fill="black"/>
<circle cx="46.5" cy="91.5" r="1.5" fill="black"/>
<circle cx="55.5" cy="91.5" r="1.5" fill="black"/>
<circle cx="64.5" cy="91.5" r="1.5" fill="black"/>
<circle cx="73.5" cy="91.5" r="1.5" fill="black"/>
<circle cx="82.5" cy="91.5" r="1.5" fill="black"/>
<circle cx="91.5" cy="91.5" r="1.5" fill="black"/>
</g>
<g clip-path="url(#clip1_11_938)">
<path d="M20.0974 37.1926L22.5281 31.2965L25.0079 32.5911L22.9808 37.6101H35.8903L34.0064 40.2303H22.346L20.0974 37.1926Z" fill="black"/>
<path d="M38.7075 20.3589H33.1817C31.8108 20.3589 30.6995 19.3263 30.6995 18.0525H26.9348C26.9348 19.3263 25.8236 20.3589 24.4526 20.3589C23.0817 20.3589 21.9709 19.3263 21.9709 18.0525H16.9612V28.5467H21.9709C21.9709 27.2728 23.0822 26.2403 24.4532 26.2403C25.8241 26.2403 26.9353 27.2728 26.9353 28.5467V33.4853H30.7V28.5463C30.7 27.2726 31.8113 26.2403 33.1822 26.2403H40.9308L38.7075 20.3589ZM24.4529 23.8583C22.6059 23.8583 20.9874 24.7851 20.1083 26.1648H19.5247V20.4344H20.1083C20.9876 21.8141 22.6059 22.7409 24.4529 22.7409H36.8905L37.3127 23.8583H24.4529Z" fill="black"/>
<path d="M33.4737 31.2965H22.528L22.3401 33.9936L31.9233 34.1246C33.851 33.9736 34.538 34.4845 35.9884 35.0464L50.0638 40.5917L53.1123 38.5701L33.4737 31.2965Z" fill="black"/>
<path d="M26.9351 33.9932V37.9158C28.1278 36.0201 30.6998 32.9773 34.76 34.5408C32.5062 32.5585 26.9351 33.9932 26.9351 33.9932Z" fill="black"/>
<path d="M29.6234 38.7308H28.0115C27.417 38.7308 26.9351 39.1786 26.9351 39.731V41.2288C26.9351 41.7812 27.417 42.229 28.0115 42.229H29.6234C30.2178 42.229 30.6998 41.7812 30.6998 41.2288V39.731C30.6998 39.1786 30.2178 38.7308 29.6234 38.7308Z" fill="black"/>
<path d="M29.6234 46.6054H28.0115C27.417 46.6054 26.9351 47.0532 26.9351 47.6056V56.4413C26.9351 56.9935 27.417 57.4416 28.0115 57.4416H29.6234C30.2178 57.4416 30.6998 56.9935 30.6998 56.4413V47.6056C30.6998 47.0532 30.2178 46.6054 29.6234 46.6054Z" fill="black"/>
<path d="M29.6234 61.0189H28.0115C27.417 61.0189 26.9351 61.4665 26.9351 62.0189V70.8547C26.9351 71.4071 27.417 71.8548 28.0115 71.8548H29.6234C30.2178 71.8548 30.6998 71.4071 30.6998 70.8547V62.0189C30.6998 61.4665 30.2178 61.0189 29.6234 61.0189Z" fill="black"/>
<path d="M46.8683 47.8125L35.8895 37.611L33.3667 39.9552L44.3455 50.1567L46.8683 47.8125Z" fill="black"/>
<path d="M59.0589 23.8579C60.9097 23.8579 61.771 26.2399 59.5943 26.2399H56.5692L55.5361 23.8579H59.0589Z" fill="black"/>
<path d="M61.4891 30.9987L60.9102 31.9312H64.365C65.928 31.9312 66.3808 33.4857 66.3808 33.4857L70.2776 30.6362" fill="black"/>
<path d="M35.8364 48.6657V40.0468C35.8364 38.7005 34.5521 37.6091 32.9681 37.6091H24.6659C23.0816 37.6091 21.7976 38.7005 21.7976 40.0468V48.6657C21.7976 50.012 23.0819 51.1034 24.6659 51.1034H32.9681C34.5523 51.1034 35.8364 50.012 35.8364 48.6657ZM25.9317 40.2664H31.7025C32.0353 40.2664 32.3049 40.6275 32.3049 41.0729V47.6395C32.3049 48.085 32.0353 48.4461 31.7025 48.4461H25.9317C25.599 48.4461 25.3293 48.085 25.3293 47.6395V41.0729C25.3293 40.6275 25.599 40.2664 25.9317 40.2664Z" fill="black"/>
<path d="M35.8364 48.6657V40.0468C35.8364 38.7005 34.5521 37.6091 32.9681 37.6091H24.6659C23.0816 37.6091 21.7976 38.7005 21.7976 40.0468V48.6657C21.7976 50.012 23.0819 51.1034 24.6659 51.1034H32.9681C34.5523 51.1034 35.8364 50.012 35.8364 48.6657ZM25.9317 40.2664H31.7025C32.0353 40.2664 32.3049 40.6275 32.3049 41.0729V47.6395C32.3049 48.085 32.0353 48.4461 31.7025 48.4461H25.9317C25.599 48.4461 25.3293 48.085 25.3293 47.6395V41.0729C25.3293 40.6275 25.599 40.2664 25.9317 40.2664Z" fill="black"/>
<path d="M35.8364 63.9991V55.38C35.8364 54.0337 34.5521 52.9423 32.9681 52.9423H24.6659C23.0816 52.9423 21.7976 54.0337 21.7976 55.38V63.9991C21.7976 65.3451 23.0819 66.4366 24.6659 66.4366H32.9681C34.5523 66.4366 35.8364 65.3451 35.8364 63.9991ZM25.9317 55.5997H31.7025C32.0353 55.5997 32.3049 55.9608 32.3049 56.4062V62.973C32.3049 63.4183 32.0353 63.7795 31.7025 63.7795H25.9317C25.599 63.7795 25.3293 63.4183 25.3293 62.973V56.4062C25.3293 55.9608 25.599 55.5997 25.9317 55.5997Z" fill="black"/>
<path d="M35.8364 63.9991V55.38C35.8364 54.0337 34.5521 52.9423 32.9681 52.9423H24.6659C23.0816 52.9423 21.7976 54.0337 21.7976 55.38V63.9991C21.7976 65.3451 23.0819 66.4366 24.6659 66.4366H32.9681C34.5523 66.4366 35.8364 65.3451 35.8364 63.9991ZM25.9317 55.5997H31.7025C32.0353 55.5997 32.3049 55.9608 32.3049 56.4062V62.973C32.3049 63.4183 32.0353 63.7795 31.7025 63.7795H25.9317C25.599 63.7795 25.3293 63.4183 25.3293 62.973V56.4062C25.3293 55.9608 25.599 55.5997 25.9317 55.5997Z" fill="black"/>
<path d="M76.8785 24.6839H74.2179C75.912 19.2332 72.766 18.0525 69.8633 18.0525H64.1693C64.783 19.2496 63.9783 20.3589 62.6775 20.3589H53.8093L54.858 22.7409H61.7773C63.781 22.7409 66.302 22.5775 65.9627 20.7498H69.1264C72.1924 20.7498 70.7107 24.2458 70.0463 25.1903H73.6536V25.1955C73.6515 27.0401 72.0257 26.7996 70.0405 26.7996H65.8852C65.225 26.7996 64.4337 27.2753 64.0704 27.8834H71.836C71.8272 27.9017 71.8188 27.92 71.8104 27.9381C71.244 29.1489 69.937 29.9145 68.516 29.9145H63.4127C62.7525 29.9145 61.9134 30.3899 61.4887 30.9983H69.1431L58.1042 36.3001C57.4348 36.6779 56.6686 37.0659 55.7875 37.4899C57.9769 35.5772 57.1637 33.2359 57.1637 29.8921C53.4132 30.2287 49.1369 27.7564 44.9026 30.2287V29.1711C44.9026 25.7929 47.5614 24.7837 51.1967 24.7837H55.9908L54.8042 22.088H51.0769C46.0387 22.088 42.2425 24.1546 42.243 28.8362L42.2438 34.0517C47.9003 30.4769 53.0662 32.28 54.3369 33.0665C54.3369 36.8472 54.878 37.8643 50.2125 40.0648L47.848 41.252C45.5219 42.4199 44.0723 44.6784 44.0723 47.1352V63.0426H15.2413C15.2413 64.0345 15.8807 64.9298 16.8643 65.3148L22.5315 67.5343V68.3253C22.5315 69.2553 21.9189 70.0902 20.9876 70.4297L16.9609 71.8983V73.4056H41.9726L47.8813 67.6278L53.8967 70.3685L50.5976 73.406H64.7562L50.1459 66.7091C48.191 65.8134 46.9739 63.9679 46.9739 61.9009V46.514C46.9739 45.172 47.7275 43.9274 48.9621 43.2309L50.2461 42.5066V59.4828C50.2461 60.8472 50.8241 61.6981 52.5609 62.4782C54.2977 63.2583 70.0723 70.3452 70.0723 70.3452C71.0069 70.7652 71.257 71.8929 70.5922 72.6901L69.9948 73.406H76.8512L76.806 70.5192L70.472 67.5834C74.8295 66.6608 76.8781 63.5857 76.8781 60.3918V57.3867H71.2436C74.3402 56.53 76.8781 54.5096 76.8781 49.7901V46.4421L73.3696 48.1566C75.6364 46.0092 76.8781 43.1654 76.8781 40.3883V37.6657L73.3696 39.5853C75.2933 37.4906 76.8781 35.771 76.8781 30.7186V29.0458L73.3696 30.9194C74.1961 29.949 76.8781 28.7211 76.8781 24.9735V24.6844L76.8785 24.6839ZM54.6337 40.1765L58.8172 38.169C58.8197 38.1756 58.8243 38.1821 58.8243 38.1892C58.8243 39.5174 58.1608 40.9868 56.4766 41.8401L52.4335 43.8047C52.7011 42.2384 53.2974 40.9838 54.6337 40.1765ZM52.2217 46.7065C52.2369 45.6343 52.8908 44.6582 53.9136 44.1611L58.9006 41.7379C58.5298 43.2881 57.6409 44.783 56.1259 45.5317L53.5453 46.807C52.9411 47.145 52.2151 48.1561 52.2151 48.1561C52.2151 47.6593 52.2151 47.1755 52.2217 46.7065ZM58.831 47.25C58.8679 48.3078 58.2554 49.2933 57.2458 49.7837L52.5294 52.0757C52.7852 50.6653 53.3592 49.4517 54.6335 48.7747L58.8172 46.742C58.8197 46.9125 58.8252 47.0819 58.831 47.25ZM52.3294 55.0096C52.3312 53.9234 52.9862 52.9289 54.0221 52.4256L58.8712 50.0693C58.7586 51.4995 58.26 52.6935 56.5658 53.4808C55.8288 53.8231 54.5273 54.4429 54.1495 54.6187C52.6732 55.3047 52.3353 56.5292 52.3353 56.5292C52.3353 56.0343 52.3284 55.5234 52.3294 55.0096ZM53.8001 57.3182C53.8001 57.3182 58.8172 54.9262 58.8172 54.9328C58.8252 56.0478 58.1637 57.0741 57.1001 57.5906L52.7901 59.6829C51.988 58.8592 52.5389 57.9005 53.8001 57.3182ZM53.7306 60.3026C53.7299 60.259 53.7301 60.2758 53.7291 60.2318L58.7611 57.7927C58.591 58.9869 58.1599 59.6829 55.5576 61.1131L53.7304 60.303L53.7306 60.3026ZM73.14 50.9623C73.14 52.8896 72.9637 54.6449 71.3186 55.4719L62.8392 59.7767H73.14V60.1473C73.14 62.9064 71.6215 65.4744 69.1147 66.9536C69.1147 66.9536 62.3809 64.0041 57.8005 62.1053C61.5259 60.4237 62.7718 57.294 62.7718 53.2069L67.6954 50.853L73.1396 48.4925V50.9621L73.14 50.9623ZM73.14 42.9308C73.14 44.5036 72.2938 46.1893 70.5997 46.977C70.5997 46.977 65.3033 49.4369 60.3383 51.7434C61.5159 50.728 62.5506 48.856 62.7031 44.854L73.1405 39.7828V42.931L73.14 42.9308ZM73.14 34.5562C73.14 36.1303 72.2938 37.5913 70.5997 38.3791L60.6278 43.3069C62.0353 42.2312 62.6801 40.6346 62.7718 36.2717L73.14 31.2965V34.5562Z" fill="black"/>
<path d="M44.5966 50.1219L43.5103 46.867L40.8407 48.0449C39.9758 48.4265 39.3472 49.2687 39.3472 50.1584V53.4598C39.3472 53.4598 40.0357 52.0975 41.1411 51.6466C42.2465 51.1957 44.5966 50.1219 44.5966 50.1219Z" fill="black"/>
<path d="M44.5966 55.398L44.9801 51.4944L40.8407 53.3209C39.9758 53.7025 39.3472 54.5448 39.3472 55.4344V58.7359C39.3472 58.7359 40.0357 57.3734 41.1411 56.9227C42.2465 56.4718 44.5966 55.398 44.5966 55.398Z" fill="black"/>
<path d="M44.5966 60.6744L44.9801 56.7707L40.8407 58.5973C39.9758 58.9788 39.3472 59.8211 39.3472 60.7106V64.0123C39.3472 64.0123 40.0357 62.6499 41.1411 62.1991C42.2465 61.748 44.5966 60.6744 44.5966 60.6744Z" fill="black"/>
<path d="M55.2774 69.5585L50.3189 70.5091C49.0511 70.8812 47.1554 70.873 47.0067 72.571C46.858 74.2693 46.7094 75.9673 46.7094 75.9673C46.7094 75.9673 48.3379 73.4048 51.7435 73.4048C51.6227 74.7835 51.5191 75.9673 51.5191 75.9673C51.5191 75.9673 53.1477 73.4048 56.5533 73.4048C56.4325 74.7835 56.3289 75.9673 56.3289 75.9673C56.3289 75.9673 57.9576 73.4048 61.363 73.4048L55.2774 69.5585Z" fill="black"/>
<path d="M24.4536 23.8579H17.8596V26.2399H24.4536V23.8579Z" fill="black"/>
<path d="M24.4536 20.3588H17.8596V22.7407H24.4536V20.3588Z" fill="black"/>
</g>
</g>
<defs>
<filter id="filter0_d_11_938" x="-2" y="0" width="104" height="13" filterUnits="userSpaceOnUse" color-interpolation-filters="sRGB">
<feFlood flood-opacity="0" result="BackgroundImageFix"/>
<feColorMatrix in="SourceAlpha" type="matrix" values="0 0 0 0 0 0 0 0 0 0 0 0 0 0 0 0 0 0 127 0" result="hardAlpha"/>
<feOffset dy="2"/>
<feGaussianBlur stdDeviation="1"/>
<feComposite in2="hardAlpha" operator="out"/>
<feColorMatrix type="matrix" values="0 0 0 0 0 0 0 0 0 0 0 0 0 0 0 0 0 0 0.25 0"/>
<feBlend mode="normal" in2="BackgroundImageFix" result="effect1_dropShadow_11_938"/>
<feBlend mode="normal" in="SourceGraphic" in2="effect1_dropShadow_11_938" result="shape"/>
</filter>
<filter id="filter1_d_11_938" x="-2" y="9" width="104" height="13" filterUnits="userSpaceOnUse" color-interpolation-filters="sRGB">
<feFlood flood-opacity="0" result="BackgroundImageFix"/>
<feColorMatrix in="SourceAlpha" type="matrix" values="0 0 0 0 0 0 0 0 0 0 0 0 0 0 0 0 0 0 127 0" result="hardAlpha"/>
<feOffset dy="2"/>
<feGaussianBlur stdDeviation="1"/>
<feComposite in2="hardAlpha" operator="out"/>
<feColorMatrix type="matrix" values="0 0 0 0 0 0 0 0 0 0 0 0 0 0 0 0 0 0 0.25 0"/>
<feBlend mode="normal" in2="BackgroundImageFix" result="effect1_dropShadow_11_938"/>
<feBlend mode="normal" in="SourceGraphic" in2="effect1_dropShadow_11_938" result="shape"/>
</filter>
<filter id="filter2_d_11_938" x="-2" y="18" width="104" height="13" filterUnits="userSpaceOnUse" color-interpolation-filters="sRGB">
<feFlood flood-opacity="0" result="BackgroundImageFix"/>
<feColorMatrix in="SourceAlpha" type="matrix" values="0 0 0 0 0 0 0 0 0 0 0 0 0 0 0 0 0 0 127 0" result="hardAlpha"/>
<feOffset dy="2"/>
<feGaussianBlur stdDeviation="1"/>
<feComposite in2="hardAlpha" operator="out"/>
<feColorMatrix type="matrix" values="0 0 0 0 0 0 0 0 0 0 0 0 0 0 0 0 0 0 0.25 0"/>
<feBlend mode="normal" in2="BackgroundImageFix" result="effect1_dropShadow_11_938"/>
<feBlend mode="normal" in="SourceGraphic" in2="effect1_dropShadow_11_938" result="shape"/>
</filter>
<filter id="filter3_d_11_938" x="-2" y="27" width="104" height="13" filterUnits="userSpaceOnUse" color-interpolation-filters="sRGB">
<feFlood flood-opacity="0" result="BackgroundImageFix"/>
<feColorMatrix in="SourceAlpha" type="matrix" values="0 0 0 0 0 0 0 0 0 0 0 0 0 0 0 0 0 0 127 0" result="hardAlpha"/>
<feOffset dy="2"/>
<feGaussianBlur stdDeviation="1"/>
<feComposite in2="hardAlpha" operator="out"/>
<feColorMatrix type="matrix" values="0 0 0 0 0 0 0 0 0 0 0 0 0 0 0 0 0 0 0.25 0"/>
<feBlend mode="normal" in2="BackgroundImageFix" result="effect1_dropShadow_11_938"/>
<feBlend mode="normal" in="SourceGraphic" in2="effect1_dropShadow_11_938" result="shape"/>
</filter>
<filter id="filter4_d_11_938" x="-2" y="36" width="104" height="13" filterUnits="userSpaceOnUse" color-interpolation-filters="sRGB">
<feFlood flood-opacity="0" result="BackgroundImageFix"/>
<feColorMatrix in="SourceAlpha" type="matrix" values="0 0 0 0 0 0 0 0 0 0 0 0 0 0 0 0 0 0 127 0" result="hardAlpha"/>
<feOffset dy="2"/>
<feGaussianBlur stdDeviation="1"/>
<feComposite in2="hardAlpha" operator="out"/>
<feColorMatrix type="matrix" values="0 0 0 0 0 0 0 0 0 0 0 0 0 0 0 0 0 0 0.25 0"/>
<feBlend mode="normal" in2="BackgroundImageFix" result="effect1_dropShadow_11_938"/>
<feBlend mode="normal" in="SourceGraphic" in2="effect1_dropShadow_11_938" result="shape"/>
</filter>
<filter id="filter5_d_11_938" x="-2" y="45" width="104" height="13" filterUnits="userSpaceOnUse" color-interpolation-filters="sRGB">
<feFlood flood-opacity="0" result="BackgroundImageFix"/>
<feColorMatrix in="SourceAlpha" type="matrix" values="0 0 0 0 0 0 0 0 0 0 0 0 0 0 0 0 0 0 127 0" result="hardAlpha"/>
<feOffset dy="2"/>
<feGaussianBlur stdDeviation="1"/>
<feComposite in2="hardAlpha" operator="out"/>
<feColorMatrix type="matrix" values="0 0 0 0 0 0 0 0 0 0 0 0 0 0 0 0 0 0 0.25 0"/>
<feBlend mode="normal" in2="BackgroundImageFix" result="effect1_dropShadow_11_938"/>
<feBlend mode="normal" in="SourceGraphic" in2="effect1_dropShadow_11_938" result="shape"/>
</filter>
<filter id="filter6_d_11_938" x="-2" y="54" width="104" height="13" filterUnits="userSpaceOnUse" color-interpolation-filters="sRGB">
<feFlood flood-opacity="0" result="BackgroundImageFix"/>
<feColorMatrix in="SourceAlpha" type="matrix" values="0 0 0 0 0 0 0 0 0 0 0 0 0 0 0 0 0 0 127 0" result="hardAlpha"/>
<feOffset dy="2"/>
<feGaussianBlur stdDeviation="1"/>
<feComposite in2="hardAlpha" operator="out"/>
<feColorMatrix type="matrix" values="0 0 0 0 0 0 0 0 0 0 0 0 0 0 0 0 0 0 0.25 0"/>
<feBlend mode="normal" in2="BackgroundImageFix" result="effect1_dropShadow_11_938"/>
<feBlend mode="normal" in="SourceGraphic" in2="effect1_dropShadow_11_938" result="shape"/>
</filter>
<filter id="filter7_d_11_938" x="-2" y="63" width="104" height="13" filterUnits="userSpaceOnUse" color-interpolation-filters="sRGB">
<feFlood flood-opacity="0" result="BackgroundImageFix"/>
<feColorMatrix in="SourceAlpha" type="matrix" values="0 0 0 0 0 0 0 0 0 0 0 0 0 0 0 0 0 0 127 0" result="hardAlpha"/>
<feOffset dy="2"/>
<feGaussianBlur stdDeviation="1"/>
<feComposite in2="hardAlpha" operator="out"/>
<feColorMatrix type="matrix" values="0 0 0 0 0 0 0 0 0 0 0 0 0 0 0 0 0 0 0.25 0"/>
<feBlend mode="normal" in2="BackgroundImageFix" result="effect1_dropShadow_11_938"/>
<feBlend mode="normal" in="SourceGraphic" in2="effect1_dropShadow_11_938" result="shape"/>
</filter>
<filter id="filter8_d_11_938" x="-2" y="72" width="104" height="13" filterUnits="userSpaceOnUse" color-interpolation-filters="sRGB">
<feFlood flood-opacity="0" result="BackgroundImageFix"/>
<feColorMatrix in="SourceAlpha" type="matrix" values="0 0 0 0 0 0 0 0 0 0 0 0 0 0 0 0 0 0 127 0" result="hardAlpha"/>
<feOffset dy="2"/>
<feGaussianBlur stdDeviation="1"/>
<feComposite in2="hardAlpha" operator="out"/>
<feColorMatrix type="matrix" values="0 0 0 0 0 0 0 0 0 0 0 0 0 0 0 0 0 0 0.25 0"/>
<feBlend mode="normal" in2="BackgroundImageFix" result="effect1_dropShadow_11_938"/>
<feBlend mode="normal" in="SourceGraphic" in2="effect1_dropShadow_11_938" result="shape"/>
</filter>
<filter id="filter9_d_11_938" x="-2" y="81" width="104" height="13" filterUnits="userSpaceOnUse" color-interpolation-filters="sRGB">
<feFlood flood-opacity="0" result="BackgroundImageFix"/>
<feColorMatrix in="SourceAlpha" type="matrix" values="0 0 0 0 0 0 0 0 0 0 0 0 0 0 0 0 0 0 127 0" result="hardAlpha"/>
<feOffset dy="2"/>
<feGaussianBlur stdDeviation="1"/>
<feComposite in2="hardAlpha" operator="out"/>
<feColorMatrix type="matrix" values="0 0 0 0 0 0 0 0 0 0 0 0 0 0 0 0 0 0 0.25 0"/>
<feBlend mode="normal" in2="BackgroundImageFix" result="effect1_dropShadow_11_938"/>
<feBlend mode="normal" in="SourceGraphic" in2="effect1_dropShadow_11_938" result="shape"/>
</filter>
<filter id="filter10_d_11_938" x="-2" y="90" width="104" height="13" filterUnits="userSpaceOnUse" color-interpolation-filters="sRGB">
<feFlood flood-opacity="0" result="BackgroundImageFix"/>
<feColorMatrix in="SourceAlpha" type="matrix" values="0 0 0 0 0 0 0 0 0 0 0 0 0 0 0 0 0 0 127 0" result="hardAlpha"/>
<feOffset dy="2"/>
<feGaussianBlur stdDeviation="1"/>
<feComposite in2="hardAlpha" operator="out"/>
<feColorMatrix type="matrix" values="0 0 0 0 0 0 0 0 0 0 0 0 0 0 0 0 0 0 0.25 0"/>
<feBlend mode="normal" in2="BackgroundImageFix" result="effect1_dropShadow_11_938"/>
<feBlend mode="normal" in="SourceGraphic" in2="effect1_dropShadow_11_938" result="shape"/>
</filter>
<clipPath id="clip0_11_938">
<rect width="94" height="94" fill="white"/>
</clipPath>
<clipPath id="clip1_11_938">
<rect width="62" height="58" fill="white" transform="translate(15 18)"/>
</clipPath>
</defs>
</svg>
