<?xml version="1.0" encoding="UTF-8"?>
<svg id="Layer_2" xmlns="http://www.w3.org/2000/svg" width="283.551" height="220.124" viewBox="0 0 283.551 220.124">
  <path d="M236.412,99.896v73.083l-20,20v-37.07c-11.285,10.575-26.44,17.07-43.091,17.07-11.488,0-22.258-3.102-31.546-8.488-9.287,5.389-20.057,8.488-31.545,8.488-16.651,0-31.805-6.495-43.092-17.07v37.07l-20-20v-63.092c0-34.789,28.302-63.091,63.091-63.091,11.488,0,22.258,3.102,31.545,8.488,9.288-5.388,20.058-8.488,31.546-8.488,28.579,0,52.768,19.106,60.495,45.216h-22.82c-6.708-14.081-21.068-23.843-37.675-23.843-23.041,0-41.721,18.679-41.721,41.72,0,7.557,2.032,14.643,5.564,20.761-4.498,6.368-13.181,10.646-17.833,11.815h0s0-.001,0-.001c-5.769-9.513-9.104-20.658-9.104-32.575,0-14.875,5.186-28.554,13.83-39.352-4.331-1.527-8.984-2.366-13.83-2.366-23.002,0-41.718,18.714-41.718,41.718s18.714,41.718,41.718,41.718h.003c23.041,0,41.716-18.677,41.716-41.718,0-7.558-2.032-14.642-5.564-20.761,4.498-6.368,13.181-10.646,17.833-11.815,5.77,9.515,9.106,20.66,9.106,32.576,0,14.875-5.187,28.555-13.831,39.353,4.33,1.527,8.983,2.365,13.831,2.365,19.558,0,36.01-13.534,40.5-31.727h-34.861l19.983-19.983h37.468Z" fill="#333"/>
</svg>