<svg width="94" height="94" viewBox="0 0 94 94" fill="none" xmlns="http://www.w3.org/2000/svg">
<g clip-path="url(#clip0_11_800)">
<g opacity="0.05" filter="url(#filter0_d_11_800)">
<rect width="100" height="9" fill="white"/>
<circle cx="1.5" cy="1.5" r="1.5" fill="black"/>
<circle cx="10.5" cy="1.5" r="1.5" fill="black"/>
<circle cx="19.5" cy="1.5" r="1.5" fill="black"/>
<circle cx="28.5" cy="1.5" r="1.5" fill="black"/>
<circle cx="37.5" cy="1.5" r="1.5" fill="black"/>
<circle cx="46.5" cy="1.5" r="1.5" fill="black"/>
<circle cx="55.5" cy="1.5" r="1.5" fill="black"/>
<circle cx="64.5" cy="1.5" r="1.5" fill="black"/>
<circle cx="73.5" cy="1.5" r="1.5" fill="black"/>
<circle cx="82.5" cy="1.5" r="1.5" fill="black"/>
<circle cx="91.5" cy="1.5" r="1.5" fill="black"/>
</g>
<g opacity="0.05" filter="url(#filter1_d_11_800)">
<rect width="100" height="9" transform="translate(0 9)" fill="white"/>
<circle cx="1.5" cy="10.5" r="1.5" fill="black"/>
<circle cx="10.5" cy="10.5" r="1.5" fill="black"/>
<circle cx="19.5" cy="10.5" r="1.5" fill="black"/>
<circle cx="28.5" cy="10.5" r="1.5" fill="black"/>
<circle cx="37.5" cy="10.5" r="1.5" fill="black"/>
<circle cx="46.5" cy="10.5" r="1.5" fill="black"/>
<circle cx="55.5" cy="10.5" r="1.5" fill="black"/>
<circle cx="64.5" cy="10.5" r="1.5" fill="black"/>
<circle cx="73.5" cy="10.5" r="1.5" fill="black"/>
<circle cx="82.5" cy="10.5" r="1.5" fill="black"/>
<circle cx="91.5" cy="10.5" r="1.5" fill="black"/>
</g>
<g opacity="0.05" filter="url(#filter2_d_11_800)">
<rect width="100" height="9" transform="translate(0 18)" fill="white"/>
<circle cx="1.5" cy="19.5" r="1.5" fill="black"/>
<circle cx="10.5" cy="19.5" r="1.5" fill="black"/>
<circle cx="19.5" cy="19.5" r="1.5" fill="black"/>
<circle cx="28.5" cy="19.5" r="1.5" fill="black"/>
<circle cx="37.5" cy="19.5" r="1.5" fill="black"/>
<circle cx="46.5" cy="19.5" r="1.5" fill="black"/>
<circle cx="55.5" cy="19.5" r="1.5" fill="black"/>
<circle cx="64.5" cy="19.5" r="1.5" fill="black"/>
<circle cx="73.5" cy="19.5" r="1.5" fill="black"/>
<circle cx="82.5" cy="19.5" r="1.5" fill="black"/>
<circle cx="91.5" cy="19.5" r="1.5" fill="black"/>
</g>
<g opacity="0.05" filter="url(#filter3_d_11_800)">
<rect width="100" height="9" transform="translate(0 27)" fill="white"/>
<circle cx="1.5" cy="28.5" r="1.5" fill="black"/>
<circle cx="10.5" cy="28.5" r="1.5" fill="black"/>
<circle cx="19.5" cy="28.5" r="1.5" fill="black"/>
<circle cx="28.5" cy="28.5" r="1.5" fill="black"/>
<circle cx="37.5" cy="28.5" r="1.5" fill="black"/>
<circle cx="46.5" cy="28.5" r="1.5" fill="black"/>
<circle cx="55.5" cy="28.5" r="1.5" fill="black"/>
<circle cx="64.5" cy="28.5" r="1.5" fill="black"/>
<circle cx="73.5" cy="28.5" r="1.5" fill="black"/>
<circle cx="82.5" cy="28.5" r="1.5" fill="black"/>
<circle cx="91.5" cy="28.5" r="1.5" fill="black"/>
</g>
<g opacity="0.05" filter="url(#filter4_d_11_800)">
<rect width="100" height="9" transform="translate(0 36)" fill="white"/>
<circle cx="1.5" cy="37.5" r="1.5" fill="black"/>
<circle cx="10.5" cy="37.5" r="1.5" fill="black"/>
<circle cx="19.5" cy="37.5" r="1.5" fill="black"/>
<circle cx="28.5" cy="37.5" r="1.5" fill="black"/>
<circle cx="37.5" cy="37.5" r="1.5" fill="black"/>
<circle cx="46.5" cy="37.5" r="1.5" fill="black"/>
<circle cx="55.5" cy="37.5" r="1.5" fill="black"/>
<circle cx="64.5" cy="37.5" r="1.5" fill="black"/>
<circle cx="73.5" cy="37.5" r="1.5" fill="black"/>
<circle cx="82.5" cy="37.5" r="1.5" fill="black"/>
<circle cx="91.5" cy="37.5" r="1.5" fill="black"/>
</g>
<g opacity="0.05" filter="url(#filter5_d_11_800)">
<rect width="100" height="9" transform="translate(0 45)" fill="white"/>
<circle cx="1.5" cy="46.5" r="1.5" fill="black"/>
<circle cx="10.5" cy="46.5" r="1.5" fill="black"/>
<circle cx="19.5" cy="46.5" r="1.5" fill="black"/>
<circle cx="28.5" cy="46.5" r="1.5" fill="black"/>
<circle cx="37.5" cy="46.5" r="1.5" fill="black"/>
<circle cx="46.5" cy="46.5" r="1.5" fill="black"/>
<circle cx="55.5" cy="46.5" r="1.5" fill="black"/>
<circle cx="64.5" cy="46.5" r="1.5" fill="black"/>
<circle cx="73.5" cy="46.5" r="1.5" fill="black"/>
<circle cx="82.5" cy="46.5" r="1.5" fill="black"/>
<circle cx="91.5" cy="46.5" r="1.5" fill="black"/>
</g>
<g opacity="0.05" filter="url(#filter6_d_11_800)">
<rect width="100" height="9" transform="translate(0 54)" fill="white"/>
<circle cx="1.5" cy="55.5" r="1.5" fill="black"/>
<circle cx="10.5" cy="55.5" r="1.5" fill="black"/>
<circle cx="19.5" cy="55.5" r="1.5" fill="black"/>
<circle cx="28.5" cy="55.5" r="1.5" fill="black"/>
<circle cx="37.5" cy="55.5" r="1.5" fill="black"/>
<circle cx="46.5" cy="55.5" r="1.5" fill="black"/>
<circle cx="55.5" cy="55.5" r="1.5" fill="black"/>
<circle cx="64.5" cy="55.5" r="1.5" fill="black"/>
<circle cx="73.5" cy="55.5" r="1.5" fill="black"/>
<circle cx="82.5" cy="55.5" r="1.5" fill="black"/>
<circle cx="91.5" cy="55.5" r="1.5" fill="black"/>
</g>
<g opacity="0.05" filter="url(#filter7_d_11_800)">
<rect width="100" height="9" transform="translate(0 63)" fill="white"/>
<circle cx="1.5" cy="64.5" r="1.5" fill="black"/>
<circle cx="10.5" cy="64.5" r="1.5" fill="black"/>
<circle cx="19.5" cy="64.5" r="1.5" fill="black"/>
<circle cx="28.5" cy="64.5" r="1.5" fill="black"/>
<circle cx="37.5" cy="64.5" r="1.5" fill="black"/>
<circle cx="46.5" cy="64.5" r="1.5" fill="black"/>
<circle cx="55.5" cy="64.5" r="1.5" fill="black"/>
<circle cx="64.5" cy="64.5" r="1.5" fill="black"/>
<circle cx="73.5" cy="64.5" r="1.5" fill="black"/>
<circle cx="82.5" cy="64.5" r="1.5" fill="black"/>
<circle cx="91.5" cy="64.5" r="1.5" fill="black"/>
</g>
<g opacity="0.05" filter="url(#filter8_d_11_800)">
<rect width="100" height="9" transform="translate(0 72)" fill="white"/>
<circle cx="1.5" cy="73.5" r="1.5" fill="black"/>
<circle cx="10.5" cy="73.5" r="1.5" fill="black"/>
<circle cx="19.5" cy="73.5" r="1.5" fill="black"/>
<circle cx="28.5" cy="73.5" r="1.5" fill="black"/>
<circle cx="37.5" cy="73.5" r="1.5" fill="black"/>
<circle cx="46.5" cy="73.5" r="1.5" fill="black"/>
<circle cx="55.5" cy="73.5" r="1.5" fill="black"/>
<circle cx="64.5" cy="73.5" r="1.5" fill="black"/>
<circle cx="73.5" cy="73.5" r="1.5" fill="black"/>
<circle cx="82.5" cy="73.5" r="1.5" fill="black"/>
<circle cx="91.5" cy="73.5" r="1.5" fill="black"/>
</g>
<g opacity="0.05" filter="url(#filter9_d_11_800)">
<rect width="100" height="9" transform="translate(0 81)" fill="white"/>
<circle cx="1.5" cy="82.5" r="1.5" fill="black"/>
<circle cx="10.5" cy="82.5" r="1.5" fill="black"/>
<circle cx="19.5" cy="82.5" r="1.5" fill="black"/>
<circle cx="28.5" cy="82.5" r="1.5" fill="black"/>
<circle cx="37.5" cy="82.5" r="1.5" fill="black"/>
<circle cx="46.5" cy="82.5" r="1.5" fill="black"/>
<circle cx="55.5" cy="82.5" r="1.5" fill="black"/>
<circle cx="64.5" cy="82.5" r="1.5" fill="black"/>
<circle cx="73.5" cy="82.5" r="1.5" fill="black"/>
<circle cx="82.5" cy="82.5" r="1.5" fill="black"/>
<circle cx="91.5" cy="82.5" r="1.5" fill="black"/>
</g>
<g opacity="0.05" filter="url(#filter10_d_11_800)">
<rect width="100" height="9" transform="translate(0 90)" fill="white"/>
<circle cx="1.5" cy="91.5" r="1.5" fill="black"/>
<circle cx="10.5" cy="91.5" r="1.5" fill="black"/>
<circle cx="19.5" cy="91.5" r="1.5" fill="black"/>
<circle cx="28.5" cy="91.5" r="1.5" fill="black"/>
<circle cx="37.5" cy="91.5" r="1.5" fill="black"/>
<circle cx="46.5" cy="91.5" r="1.5" fill="black"/>
<circle cx="55.5" cy="91.5" r="1.5" fill="black"/>
<circle cx="64.5" cy="91.5" r="1.5" fill="black"/>
<circle cx="73.5" cy="91.5" r="1.5" fill="black"/>
<circle cx="82.5" cy="91.5" r="1.5" fill="black"/>
<circle cx="91.5" cy="91.5" r="1.5" fill="black"/>
</g>
<path d="M48.49 35.6533C48.49 32.8279 47.1629 30.1182 44.8007 28.1203C42.4385 26.1224 39.2347 25 35.894 25H17V64.95H39.043C41.5485 64.95 43.9514 65.7918 45.723 67.2902C47.4947 68.7886 48.49 70.8209 48.49 72.94M48.49 35.6533V72.94M48.49 35.6533C48.49 32.8279 49.8171 30.1182 52.1793 28.1203C54.5415 26.1224 57.7453 25 61.086 25H79.98V64.95H57.937C55.4315 64.95 53.0286 65.7918 51.257 67.2902C49.4853 68.7886 48.49 70.8209 48.49 72.94" stroke="#303030" stroke-width="4" stroke-linecap="round" stroke-linejoin="round"/>
</g>
<defs>
<filter id="filter0_d_11_800" x="-2" y="0" width="104" height="13" filterUnits="userSpaceOnUse" color-interpolation-filters="sRGB">
<feFlood flood-opacity="0" result="BackgroundImageFix"/>
<feColorMatrix in="SourceAlpha" type="matrix" values="0 0 0 0 0 0 0 0 0 0 0 0 0 0 0 0 0 0 127 0" result="hardAlpha"/>
<feOffset dy="2"/>
<feGaussianBlur stdDeviation="1"/>
<feComposite in2="hardAlpha" operator="out"/>
<feColorMatrix type="matrix" values="0 0 0 0 0 0 0 0 0 0 0 0 0 0 0 0 0 0 0.25 0"/>
<feBlend mode="normal" in2="BackgroundImageFix" result="effect1_dropShadow_11_800"/>
<feBlend mode="normal" in="SourceGraphic" in2="effect1_dropShadow_11_800" result="shape"/>
</filter>
<filter id="filter1_d_11_800" x="-2" y="9" width="104" height="13" filterUnits="userSpaceOnUse" color-interpolation-filters="sRGB">
<feFlood flood-opacity="0" result="BackgroundImageFix"/>
<feColorMatrix in="SourceAlpha" type="matrix" values="0 0 0 0 0 0 0 0 0 0 0 0 0 0 0 0 0 0 127 0" result="hardAlpha"/>
<feOffset dy="2"/>
<feGaussianBlur stdDeviation="1"/>
<feComposite in2="hardAlpha" operator="out"/>
<feColorMatrix type="matrix" values="0 0 0 0 0 0 0 0 0 0 0 0 0 0 0 0 0 0 0.25 0"/>
<feBlend mode="normal" in2="BackgroundImageFix" result="effect1_dropShadow_11_800"/>
<feBlend mode="normal" in="SourceGraphic" in2="effect1_dropShadow_11_800" result="shape"/>
</filter>
<filter id="filter2_d_11_800" x="-2" y="18" width="104" height="13" filterUnits="userSpaceOnUse" color-interpolation-filters="sRGB">
<feFlood flood-opacity="0" result="BackgroundImageFix"/>
<feColorMatrix in="SourceAlpha" type="matrix" values="0 0 0 0 0 0 0 0 0 0 0 0 0 0 0 0 0 0 127 0" result="hardAlpha"/>
<feOffset dy="2"/>
<feGaussianBlur stdDeviation="1"/>
<feComposite in2="hardAlpha" operator="out"/>
<feColorMatrix type="matrix" values="0 0 0 0 0 0 0 0 0 0 0 0 0 0 0 0 0 0 0.25 0"/>
<feBlend mode="normal" in2="BackgroundImageFix" result="effect1_dropShadow_11_800"/>
<feBlend mode="normal" in="SourceGraphic" in2="effect1_dropShadow_11_800" result="shape"/>
</filter>
<filter id="filter3_d_11_800" x="-2" y="27" width="104" height="13" filterUnits="userSpaceOnUse" color-interpolation-filters="sRGB">
<feFlood flood-opacity="0" result="BackgroundImageFix"/>
<feColorMatrix in="SourceAlpha" type="matrix" values="0 0 0 0 0 0 0 0 0 0 0 0 0 0 0 0 0 0 127 0" result="hardAlpha"/>
<feOffset dy="2"/>
<feGaussianBlur stdDeviation="1"/>
<feComposite in2="hardAlpha" operator="out"/>
<feColorMatrix type="matrix" values="0 0 0 0 0 0 0 0 0 0 0 0 0 0 0 0 0 0 0.25 0"/>
<feBlend mode="normal" in2="BackgroundImageFix" result="effect1_dropShadow_11_800"/>
<feBlend mode="normal" in="SourceGraphic" in2="effect1_dropShadow_11_800" result="shape"/>
</filter>
<filter id="filter4_d_11_800" x="-2" y="36" width="104" height="13" filterUnits="userSpaceOnUse" color-interpolation-filters="sRGB">
<feFlood flood-opacity="0" result="BackgroundImageFix"/>
<feColorMatrix in="SourceAlpha" type="matrix" values="0 0 0 0 0 0 0 0 0 0 0 0 0 0 0 0 0 0 127 0" result="hardAlpha"/>
<feOffset dy="2"/>
<feGaussianBlur stdDeviation="1"/>
<feComposite in2="hardAlpha" operator="out"/>
<feColorMatrix type="matrix" values="0 0 0 0 0 0 0 0 0 0 0 0 0 0 0 0 0 0 0.25 0"/>
<feBlend mode="normal" in2="BackgroundImageFix" result="effect1_dropShadow_11_800"/>
<feBlend mode="normal" in="SourceGraphic" in2="effect1_dropShadow_11_800" result="shape"/>
</filter>
<filter id="filter5_d_11_800" x="-2" y="45" width="104" height="13" filterUnits="userSpaceOnUse" color-interpolation-filters="sRGB">
<feFlood flood-opacity="0" result="BackgroundImageFix"/>
<feColorMatrix in="SourceAlpha" type="matrix" values="0 0 0 0 0 0 0 0 0 0 0 0 0 0 0 0 0 0 127 0" result="hardAlpha"/>
<feOffset dy="2"/>
<feGaussianBlur stdDeviation="1"/>
<feComposite in2="hardAlpha" operator="out"/>
<feColorMatrix type="matrix" values="0 0 0 0 0 0 0 0 0 0 0 0 0 0 0 0 0 0 0.25 0"/>
<feBlend mode="normal" in2="BackgroundImageFix" result="effect1_dropShadow_11_800"/>
<feBlend mode="normal" in="SourceGraphic" in2="effect1_dropShadow_11_800" result="shape"/>
</filter>
<filter id="filter6_d_11_800" x="-2" y="54" width="104" height="13" filterUnits="userSpaceOnUse" color-interpolation-filters="sRGB">
<feFlood flood-opacity="0" result="BackgroundImageFix"/>
<feColorMatrix in="SourceAlpha" type="matrix" values="0 0 0 0 0 0 0 0 0 0 0 0 0 0 0 0 0 0 127 0" result="hardAlpha"/>
<feOffset dy="2"/>
<feGaussianBlur stdDeviation="1"/>
<feComposite in2="hardAlpha" operator="out"/>
<feColorMatrix type="matrix" values="0 0 0 0 0 0 0 0 0 0 0 0 0 0 0 0 0 0 0.25 0"/>
<feBlend mode="normal" in2="BackgroundImageFix" result="effect1_dropShadow_11_800"/>
<feBlend mode="normal" in="SourceGraphic" in2="effect1_dropShadow_11_800" result="shape"/>
</filter>
<filter id="filter7_d_11_800" x="-2" y="63" width="104" height="13" filterUnits="userSpaceOnUse" color-interpolation-filters="sRGB">
<feFlood flood-opacity="0" result="BackgroundImageFix"/>
<feColorMatrix in="SourceAlpha" type="matrix" values="0 0 0 0 0 0 0 0 0 0 0 0 0 0 0 0 0 0 127 0" result="hardAlpha"/>
<feOffset dy="2"/>
<feGaussianBlur stdDeviation="1"/>
<feComposite in2="hardAlpha" operator="out"/>
<feColorMatrix type="matrix" values="0 0 0 0 0 0 0 0 0 0 0 0 0 0 0 0 0 0 0.25 0"/>
<feBlend mode="normal" in2="BackgroundImageFix" result="effect1_dropShadow_11_800"/>
<feBlend mode="normal" in="SourceGraphic" in2="effect1_dropShadow_11_800" result="shape"/>
</filter>
<filter id="filter8_d_11_800" x="-2" y="72" width="104" height="13" filterUnits="userSpaceOnUse" color-interpolation-filters="sRGB">
<feFlood flood-opacity="0" result="BackgroundImageFix"/>
<feColorMatrix in="SourceAlpha" type="matrix" values="0 0 0 0 0 0 0 0 0 0 0 0 0 0 0 0 0 0 127 0" result="hardAlpha"/>
<feOffset dy="2"/>
<feGaussianBlur stdDeviation="1"/>
<feComposite in2="hardAlpha" operator="out"/>
<feColorMatrix type="matrix" values="0 0 0 0 0 0 0 0 0 0 0 0 0 0 0 0 0 0 0.25 0"/>
<feBlend mode="normal" in2="BackgroundImageFix" result="effect1_dropShadow_11_800"/>
<feBlend mode="normal" in="SourceGraphic" in2="effect1_dropShadow_11_800" result="shape"/>
</filter>
<filter id="filter9_d_11_800" x="-2" y="81" width="104" height="13" filterUnits="userSpaceOnUse" color-interpolation-filters="sRGB">
<feFlood flood-opacity="0" result="BackgroundImageFix"/>
<feColorMatrix in="SourceAlpha" type="matrix" values="0 0 0 0 0 0 0 0 0 0 0 0 0 0 0 0 0 0 127 0" result="hardAlpha"/>
<feOffset dy="2"/>
<feGaussianBlur stdDeviation="1"/>
<feComposite in2="hardAlpha" operator="out"/>
<feColorMatrix type="matrix" values="0 0 0 0 0 0 0 0 0 0 0 0 0 0 0 0 0 0 0.25 0"/>
<feBlend mode="normal" in2="BackgroundImageFix" result="effect1_dropShadow_11_800"/>
<feBlend mode="normal" in="SourceGraphic" in2="effect1_dropShadow_11_800" result="shape"/>
</filter>
<filter id="filter10_d_11_800" x="-2" y="90" width="104" height="13" filterUnits="userSpaceOnUse" color-interpolation-filters="sRGB">
<feFlood flood-opacity="0" result="BackgroundImageFix"/>
<feColorMatrix in="SourceAlpha" type="matrix" values="0 0 0 0 0 0 0 0 0 0 0 0 0 0 0 0 0 0 127 0" result="hardAlpha"/>
<feOffset dy="2"/>
<feGaussianBlur stdDeviation="1"/>
<feComposite in2="hardAlpha" operator="out"/>
<feColorMatrix type="matrix" values="0 0 0 0 0 0 0 0 0 0 0 0 0 0 0 0 0 0 0.25 0"/>
<feBlend mode="normal" in2="BackgroundImageFix" result="effect1_dropShadow_11_800"/>
<feBlend mode="normal" in="SourceGraphic" in2="effect1_dropShadow_11_800" result="shape"/>
</filter>
<clipPath id="clip0_11_800">
<rect width="94" height="94" fill="white"/>
</clipPath>
</defs>
</svg>
