<svg width="16" height="17" viewBox="0 0 16 17" fill="none" xmlns="http://www.w3.org/2000/svg">
<path d="M14.8602 11.2683V1.99069C14.8479 1.21245 14.229 0.587402 13.4507 0.587402H3.76866C1.67904 0.618042 0 2.32773 0 4.42347C0 5.12817 0.189965 5.73484 0.477976 6.26796C0.723092 6.70917 1.10915 7.12587 1.48908 7.43839C1.59938 7.52418 1.54423 7.48742 1.87514 7.68964C2.3286 7.96539 2.84947 8.10633 2.84947 8.10633L2.84334 13.6582C2.8556 13.9217 2.88011 14.173 2.95365 14.4119C3.16812 15.1963 3.71351 15.7968 4.44885 16.0849C4.75525 16.2074 5.10454 16.2871 5.47834 16.2932L13.2117 16.3177C14.7498 16.3177 15.9999 15.0676 15.9999 13.5234C16.0061 12.6042 15.5465 11.7831 14.8602 11.2683Z" fill="#FFEEDA"/>
<path d="M15.0501 13.5913C15.0195 14.5779 14.2045 15.3745 13.2056 15.3745L7.8866 15.3562C8.30942 14.8659 8.56679 14.2286 8.56679 13.53C8.56679 12.4393 7.91724 11.6855 7.91724 11.6855H13.2117C14.229 11.6855 15.0562 12.5128 15.0562 13.53L15.0501 13.5913Z" fill="#EBC28E"/>
<path d="M1.99769 6.65375C1.3849 6.0716 0.955952 5.324 0.955952 4.42932V4.33741C1.00498 2.81769 2.25507 1.59211 3.77478 1.54921H13.4569C13.7081 1.56147 13.9103 1.73918 13.9103 1.99655V10.1895C14.1309 10.2263 14.2412 10.257 14.4557 10.3366C14.6273 10.3979 14.8602 10.5327 14.8602 10.5327V1.99655C14.8479 1.21831 14.229 0.593262 13.4507 0.593262H3.76866C1.67904 0.623901 0 2.33358 0 4.42932C0 5.64878 0.557639 6.69052 1.46457 7.41974C1.52585 7.46876 1.58713 7.53617 1.74645 7.53617C2.02833 7.53617 2.23055 7.30944 2.2183 7.06432C2.2183 6.85597 2.12638 6.78244 1.99769 6.65375Z" fill="#101010"/>
<path d="M13.2057 10.7289H5.61324C5.10462 10.735 4.69405 11.1456 4.69405 11.6542V12.745C4.70631 13.2475 5.13526 13.6764 5.65001 13.6764H6.21377V12.745H5.64388V11.6787C5.64388 11.6787 5.78482 11.6787 5.95027 11.6787C6.91235 11.6787 7.61706 12.5673 7.61706 13.5232C7.61706 14.3689 6.84495 15.4474 5.55809 15.3616C4.4183 15.2881 3.79938 14.2708 3.79938 13.5232V4.27011C3.79938 3.85342 3.45622 3.51025 3.03952 3.51025H2.27966V4.46008H2.84343V13.5294C2.81279 15.3739 4.1548 16.2992 5.55809 16.2992L13.2118 16.3237C14.7499 16.3237 16 15.0736 16 13.5294C16.0062 11.9851 14.7499 10.7289 13.2057 10.7289ZM15.0502 13.5906C15.0196 14.5772 14.2046 15.3739 13.2057 15.3739L7.88669 15.3555C8.30951 14.8652 8.56689 14.2279 8.56689 13.5294C8.56689 12.4386 7.91733 11.6849 7.91733 11.6849H13.2118C14.2291 11.6849 15.0563 12.5121 15.0563 13.5294L15.0502 13.5906Z" fill="#101010"/>
<path d="M11.1589 4.63195H5.43549V3.68213H11.1589C11.4163 3.68213 11.6308 3.89048 11.6308 4.15398C11.6369 4.41748 11.4286 4.63195 11.1589 4.63195Z" fill="#101010"/>
<path d="M11.1589 9.08676H5.43549V8.14307H11.1589C11.4163 8.14307 11.6308 8.35141 11.6308 8.61491C11.6369 8.87229 11.4286 9.08676 11.1589 9.08676Z" fill="#101010"/>
<path d="M12.17 6.85607H5.43549V5.90625H12.1639C12.4213 5.90625 12.6358 6.1146 12.6358 6.3781C12.648 6.6416 12.4335 6.85607 12.17 6.85607Z" fill="#101010"/>
</svg>
