<svg width="320" height="101" viewBox="0 0 320 101" fill="none" xmlns="http://www.w3.org/2000/svg">
<g clip-path="url(#clip0_1412_1661)">
<g opacity="0.2" filter="url(#filter0_f_1412_1661)">
<ellipse cx="159.335" cy="53.6265" rx="87.665" ry="12.829" transform="rotate(-180 159.335 53.6265)" fill="#E5A500"/>
</g>
<g clip-path="url(#clip1_1412_1661)" filter="url(#filter1_dd_1412_1661)">
<g filter="url(#filter2_dd_1412_1661)">
<path d="M40.1663 14.7047L40.7704 22.3101C40.8551 23.3761 40.8974 23.9091 41.0644 24.3964C41.2124 24.8282 41.4318 25.2322 41.7134 25.5915C42.0312 25.9969 42.4552 26.3226 43.3032 26.9741L49.3532 31.6222L41.7478 32.2262C40.6818 32.3109 40.1488 32.3532 39.6615 32.5202C39.2297 32.6683 38.8257 32.8876 38.4664 33.1692C38.061 33.487 37.7352 33.911 37.0837 34.759L32.4357 40.809L31.8316 33.2037C31.747 32.1376 31.7046 31.6046 31.5376 31.1173C31.3896 30.6855 31.1702 30.2815 30.8886 29.9222C30.5709 29.5168 30.1469 29.1911 29.2989 28.5396L23.2488 23.8915L30.8542 23.2875C31.9203 23.2028 32.4533 23.1605 32.9405 22.9935C33.3724 22.8455 33.7764 22.6261 34.1357 22.3445C34.5411 22.0267 34.8668 21.6027 35.5183 20.7547L40.1663 14.7047Z" fill="#FF684B"/>
<path d="M40.1663 14.7047L40.7704 22.3101C40.8551 23.3761 40.8974 23.9091 41.0644 24.3964C41.2124 24.8282 41.4318 25.2322 41.7134 25.5915C42.0312 25.9969 42.4552 26.3226 43.3032 26.9741L49.3532 31.6222L41.7478 32.2262C40.6818 32.3109 40.1488 32.3532 39.6615 32.5202C39.2297 32.6683 38.8257 32.8876 38.4664 33.1692C38.061 33.487 37.7352 33.911 37.0837 34.759L32.4357 40.809L31.8316 33.2037C31.747 32.1376 31.7046 31.6046 31.5376 31.1173C31.3896 30.6855 31.1702 30.2815 30.8886 29.9222C30.5709 29.5168 30.1469 29.1911 29.2989 28.5396L23.2488 23.8915L30.8542 23.2875C31.9203 23.2028 32.4533 23.1605 32.9405 22.9935C33.3724 22.8455 33.7764 22.6261 34.1357 22.3445C34.5411 22.0267 34.8668 21.6027 35.5183 20.7547L40.1663 14.7047Z" stroke="white" stroke-width="3.52446" stroke-linecap="round" stroke-linejoin="round"/>
</g>
</g>
<g clip-path="url(#clip2_1412_1661)" filter="url(#filter3_dd_1412_1661)">
<g filter="url(#filter4_dd_1412_1661)">
<path d="M205.583 10.8112L211.452 15.6864C212.274 16.3698 212.685 16.7114 213.151 16.9319C213.564 17.1273 214.006 17.2521 214.46 17.3012C214.972 17.3565 215.501 17.2802 216.56 17.1276L224.111 16.0385L219.236 21.9069C218.552 22.7295 218.211 23.1408 217.99 23.6063C217.795 24.0189 217.67 24.4613 217.621 24.9152C217.565 25.4273 217.642 25.9565 217.794 27.015L218.884 34.5662L213.015 29.691C212.192 29.0076 211.781 28.6659 211.316 28.4455C210.903 28.2501 210.461 28.1253 210.007 28.0762C209.495 28.0208 208.965 28.0972 207.907 28.2498L200.356 29.3389L205.231 23.4704C205.914 22.6479 206.256 22.2366 206.476 21.771C206.672 21.3585 206.797 20.916 206.846 20.4622C206.901 19.9501 206.825 19.4208 206.672 18.3624L205.583 10.8112Z" fill="#EBC28E"/>
<path d="M205.583 10.8112L211.452 15.6864C212.274 16.3698 212.685 16.7114 213.151 16.9319C213.564 17.1273 214.006 17.2521 214.46 17.3012C214.972 17.3565 215.501 17.2802 216.56 17.1276L224.111 16.0385L219.236 21.9069C218.552 22.7295 218.211 23.1408 217.99 23.6063C217.795 24.0189 217.67 24.4613 217.621 24.9152C217.565 25.4273 217.642 25.9565 217.794 27.015L218.884 34.5662L213.015 29.691C212.192 29.0076 211.781 28.6659 211.316 28.4455C210.903 28.2501 210.461 28.1253 210.007 28.0762C209.495 28.0208 208.965 28.0972 207.907 28.2498L200.356 29.3389L205.231 23.4704C205.914 22.6479 206.256 22.2366 206.476 21.771C206.672 21.3585 206.797 20.916 206.846 20.4622C206.901 19.9501 206.825 19.4208 206.672 18.3624L205.583 10.8112Z" stroke="white" stroke-width="3.52446" stroke-linecap="round" stroke-linejoin="round"/>
</g>
</g>
<g filter="url(#filter5_dd_1412_1661)">
<rect x="64.844" y="62.3042" width="17.1671" height="10.8089" transform="rotate(-12.0488 64.844 62.3042)" fill="#EBC28E"/>
<path d="M71.0441 53.8394C67.5771 54.5794 64.4696 55.5929 62.242 56.6553C61.1376 57.182 60.1834 57.7516 59.508 58.3498C58.9203 58.8704 58.1403 59.7746 58.3847 60.9195C58.6291 62.0644 59.7102 62.5714 60.4593 62.8066C61.3201 63.0769 62.4237 63.2073 63.6469 63.2372C66.1141 63.2975 69.3646 62.9538 72.8316 62.2138C76.2986 61.4738 79.4062 60.4603 81.6337 59.398C82.7382 58.8712 83.6924 58.3016 84.3678 57.7034C84.9555 57.1828 85.7354 56.2786 85.4911 55.1337C85.2467 53.9889 84.1655 53.4819 83.4165 53.2467C82.5557 52.9763 81.4521 52.8459 80.2288 52.8161C77.7617 52.7558 74.5112 53.0994 71.0441 53.8394Z" fill="#EBC28E" stroke="white" stroke-width="2.54328"/>
<path d="M61.0693 73.4963C61.5653 75.8201 62.3694 77.9054 63.3105 79.4008C63.7782 80.1439 64.3176 80.8021 64.9238 81.2594C65.5264 81.714 66.3345 82.0665 67.2355 81.8741C68.1366 81.6818 68.7302 81.0301 69.0947 80.3691C69.4614 79.7042 69.6851 78.8831 69.8086 78.0138C70.0572 76.2645 69.9398 74.0327 69.4437 71.7088C68.9477 69.385 68.1437 67.2997 67.2025 65.8043C66.7348 65.0612 66.1954 64.403 65.5892 63.9457C64.9866 63.4911 64.1786 63.1386 63.2775 63.331C62.3765 63.5233 61.7828 64.175 61.4183 64.836C61.0517 65.5009 60.828 66.322 60.7044 67.1913C60.4559 68.9406 60.5733 71.1725 61.0693 73.4963Z" fill="#EBC28E" stroke="white" stroke-width="2.54328"/>
<path d="M70.5498 72.0329C71.0161 74.2173 71.7959 76.178 72.726 77.5834C73.1888 78.2826 73.7265 78.9019 74.3343 79.3285C74.944 79.7564 75.7346 80.0606 76.6018 79.8755C77.4689 79.6904 78.0664 79.09 78.4483 78.4504C78.8289 77.8128 79.067 77.028 79.2039 76.2007C79.4791 74.5381 79.3905 72.4299 78.9242 70.2454C78.458 68.0609 77.6781 66.1003 76.748 64.6949C76.2853 63.9956 75.7475 63.3764 75.1397 62.9498C74.53 62.5218 73.7394 62.2177 72.8723 62.4027C72.0051 62.5878 71.4076 63.1883 71.0258 63.8279C70.6451 64.4655 70.4071 65.2503 70.2701 66.0776C69.9949 67.7402 70.0835 69.8484 70.5498 72.0329Z" fill="#EBC28E" stroke="white" stroke-width="2.54328"/>
<path d="M79.8009 69.4983C80.2969 71.8221 81.1009 73.9074 82.0421 75.4028C82.5098 76.1459 83.0492 76.8041 83.6554 77.2613C84.258 77.7159 85.066 78.0684 85.9671 77.8761C86.8681 77.6838 87.4618 77.0321 87.8263 76.3711C88.193 75.7061 88.4166 74.8851 88.5402 74.0158C88.7887 72.2664 88.6713 70.0346 88.1753 67.7108C87.6793 65.3869 86.8752 63.3016 85.9341 61.8063C85.4664 61.0632 84.927 60.4049 84.3208 59.9477C83.7182 59.4931 82.9101 59.1406 82.0091 59.3329C81.1081 59.5252 80.5144 60.1769 80.1499 60.8379C79.7832 61.5029 79.5595 62.324 79.436 63.1933C79.1874 64.9426 79.3049 67.1744 79.8009 69.4983Z" fill="#EBC28E" stroke="white" stroke-width="2.54328"/>
</g>
<g filter="url(#filter6_dd_1412_1661)">
<path d="M215 75.0883L220.851 76.3159L224.534 58.7627L218.683 57.5351L215 75.0883ZM250.557 65.7497C250.896 64.1334 249.861 62.5495 248.245 62.2104L239.008 60.2723L241.807 53.8806C241.867 53.7404 241.921 53.5914 241.955 53.4305C242.082 52.8235 241.949 52.2228 241.637 51.745L240.403 49.8749L228.749 57.4863C228.111 57.9097 227.628 58.572 227.459 59.3765L224.39 74.0042C224.051 75.6205 225.086 77.2044 226.702 77.5435L239.867 80.3056C241.081 80.5603 242.275 80.0395 242.933 79.0857L249.507 69.6986C249.709 69.3897 249.865 69.0483 249.943 68.6752L250.531 65.8741L250.519 65.8564L250.557 65.7497Z" fill="#FF684B"/>
<path d="M213.767 74.8296L213.509 76.0624L214.741 76.3211L220.592 77.5487L221.825 77.8074L222.084 76.5745L225.767 59.0214L226.025 57.7886L224.793 57.5299L218.942 56.3023L217.709 56.0436L217.45 57.2765L213.767 74.8296ZM251.855 65.5984C252.093 63.449 250.664 61.4308 248.504 60.9776L240.783 59.3578L242.961 54.3859L242.961 54.3859L242.965 54.376C243.043 54.1934 243.131 53.9607 243.188 53.6892C243.387 52.7389 243.177 51.7994 242.691 51.0561L242.688 51.0512L241.454 49.1811L240.763 48.1347L239.714 48.8203L228.061 56.4316L228.061 56.4316L228.053 56.4364C227.155 57.0317 226.467 57.9702 226.227 59.1179L223.158 73.7455C222.676 76.0427 224.146 78.2943 226.443 78.7763L239.608 81.5384C241.333 81.9003 243.029 81.1607 243.967 79.8052C243.968 79.8039 243.969 79.8026 243.97 79.8012L250.539 70.4211L250.55 70.4051L250.561 70.3887C250.833 69.972 251.06 69.486 251.176 68.9339L251.763 66.1327L251.772 66.0902L251.79 66.0084L251.871 65.622L251.855 65.5984Z" stroke="white" stroke-width="2.51932"/>
</g>
<g filter="url(#filter7_dd_1412_1661)">
<rect x="274.624" y="21.0293" width="27.2405" height="27.2405" rx="13.6202" transform="rotate(15 274.624 21.0293)" fill="#FF684B" shape-rendering="crispEdges"/>
<rect x="273.851" y="19.69" width="29.4275" height="29.4275" rx="14.7137" transform="rotate(15 273.851 19.69)" stroke="white" stroke-width="2.18703" shape-rendering="crispEdges"/>
<g clip-path="url(#clip3_1412_1661)">
<path d="M275.586 36.3388L280.911 37.7657M287.124 39.4304L292.449 40.8572M285.444 33.2729L282.115 45.6982M285.444 33.2729C286.67 33.6013 287.929 32.8741 288.258 31.6487M285.444 33.2729C284.219 32.9446 283.492 31.685 283.82 30.4596M275.015 43.7957L289.215 47.6006M278.939 29.1517L283.82 30.4596M283.82 30.4596C284.148 29.2342 285.408 28.507 286.633 28.8354C287.859 29.1637 288.586 30.4233 288.258 31.6487M288.258 31.6487L293.139 32.9566M280.931 39.0422C280.21 40.3086 278.733 40.9871 277.297 40.6023C275.861 40.2175 274.921 38.8914 274.931 37.4344C274.931 37.3154 274.932 37.2558 274.99 37.0332C275.025 36.8967 275.16 36.5961 275.238 36.4787C275.366 36.2872 275.475 36.189 275.693 35.9926L279.438 32.6147L280.992 37.4124C281.082 37.6914 281.127 37.8309 281.142 38.0606C281.151 38.2013 281.118 38.5291 281.08 38.6651C281.019 38.887 280.99 38.9387 280.931 39.0422ZM292.469 42.1337C291.748 43.4001 290.271 44.0787 288.835 43.6939C287.399 43.3091 286.459 41.9829 286.468 40.5259C286.469 40.4069 286.469 40.3474 286.528 40.1247C286.563 39.9882 286.698 39.6876 286.776 39.5702C286.904 39.3787 287.013 39.2805 287.23 39.0841L290.975 35.7062L292.529 40.5039C292.62 40.7829 292.665 40.9224 292.68 41.1521C292.689 41.2929 292.655 41.6206 292.618 41.7566C292.557 41.9785 292.527 42.0303 292.469 42.1337Z" stroke="white" stroke-opacity="0.901961" stroke-width="1.29716" stroke-linecap="round" stroke-linejoin="round"/>
</g>
</g>
<g clip-path="url(#clip4_1412_1661)">
<g clip-path="url(#clip5_1412_1661)">
<path d="M179.748 15.7428L116.287 7.45557L108 70.9168L171.461 79.204L179.748 15.7428Z" fill="#FFEEDA"/>
<path d="M159.05 51.1261L161.876 29.4864C162.084 27.6674 160.831 26.021 159.016 25.784L136.433 22.8349C131.55 22.2699 127.113 25.7462 126.474 30.6345C126.26 32.2782 126.518 33.751 127.027 35.0823C127.465 36.186 128.238 37.2755 129.029 38.1202C129.26 38.3539 129.143 38.2514 129.853 38.8238C130.827 39.6051 131.999 40.0925 131.999 40.0925L130.293 53.0402C130.242 53.6585 130.222 54.252 130.321 54.8318C130.582 56.7266 131.672 58.2935 133.299 59.1892C133.976 59.5684 134.767 59.8606 135.637 59.9888L153.667 62.4015C157.255 62.8699 160.551 60.3349 161.022 56.7331C161.316 54.591 160.494 52.5357 159.05 51.1261Z" fill="#FFEEDA"/>
<path d="M158.786 56.6012C158.414 58.893 156.27 60.5029 153.94 60.1987L141.54 58.5357C142.675 57.521 143.47 56.1129 143.682 54.4835C144.015 51.9393 142.729 49.9835 142.729 49.9835L155.078 51.5961C157.451 51.9059 159.128 54.0875 158.819 56.4601L158.786 56.6012Z" fill="#EBC28E"/>
<path d="M130.454 36.4455C129.202 34.901 128.43 33.0266 128.702 30.9398L128.73 30.7254C129.307 27.1957 132.596 24.7178 136.154 25.0806L158.737 28.0297C159.32 28.1348 159.737 28.6109 159.659 29.2112L157.163 48.321C157.667 48.474 157.914 48.5791 158.39 48.8302C158.772 49.0254 159.274 49.4108 159.274 49.4108L161.874 29.5005C162.083 27.6816 160.829 26.0352 159.014 25.7981L136.431 22.8491C131.548 22.2841 127.111 25.7604 126.472 30.6486C126.101 33.4929 127.084 36.0926 128.978 38.0697C129.106 38.2027 129.228 38.3786 129.6 38.4272C130.257 38.513 130.798 38.0458 130.844 37.4703C130.907 36.9843 130.715 36.7848 130.454 36.4455Z" fill="#101010"/>
<path d="M155.355 49.3644L137.646 47.0518C136.458 46.9112 135.375 47.7438 135.22 48.9301L134.888 51.4743C134.764 52.65 135.634 53.7812 136.834 53.938L138.149 54.1097L138.433 51.9371L137.104 51.7636L137.428 49.2766C137.428 49.2766 137.757 49.3195 138.143 49.3699C140.387 49.6629 141.76 51.9501 141.469 54.1798C141.211 56.1522 139.082 58.4326 136.106 57.8406C133.47 57.3219 132.337 54.7607 132.564 53.017L135.383 31.4344C135.51 30.4625 134.814 29.5576 133.842 29.4307L132.069 29.1992L131.78 31.4146L133.095 31.5864L130.333 52.7401C129.699 57.033 132.548 59.6 135.821 60.0274L153.665 62.4158C157.253 62.8843 160.55 60.3493 161.02 56.7474C161.505 53.1475 158.957 49.8348 155.355 49.3644ZM158.786 56.6011C158.414 58.8929 156.27 60.5028 153.94 60.1985L141.54 58.5355C142.675 57.5209 143.47 56.1128 143.682 54.4834C144.015 51.9392 142.729 49.9833 142.729 49.9833L155.078 51.596C157.451 51.9058 159.129 54.0874 158.819 56.46L158.786 56.6011Z" fill="#101010"/>
<path d="M152.438 34.5193L139.089 32.776L139.378 30.5605L152.728 32.3039C153.328 32.3822 153.765 32.9335 153.685 33.5481C153.619 34.1646 153.067 34.6014 152.438 34.5193Z" fill="#101010"/>
<path d="M151.082 44.9103L137.732 43.167L138.019 40.9658L151.369 42.7091C151.969 42.7875 152.406 43.3388 152.326 43.9534C152.262 44.5556 151.71 44.9924 151.082 44.9103Z" fill="#101010"/>
<path d="M154.119 40.0157L138.411 37.9644L138.701 35.749L154.394 37.7984C154.995 37.8768 155.431 38.4281 155.351 39.0427C155.3 39.6611 154.734 40.096 154.119 40.0157Z" fill="#101010"/>
</g>
</g>
<rect x="114.563" y="5.21343" width="68" height="68" rx="34" transform="rotate(7.44 114.563 5.21343)" stroke="white" stroke-width="4"/>
</g>
<defs>
<filter id="filter0_f_1412_1661" x="35.67" y="4.79736" width="247.33" height="97.6582" filterUnits="userSpaceOnUse" color-interpolation-filters="sRGB">
<feFlood flood-opacity="0" result="BackgroundImageFix"/>
<feBlend mode="normal" in="SourceGraphic" in2="BackgroundImageFix" result="shape"/>
<feGaussianBlur stdDeviation="18" result="effect1_foregroundBlur_1412_1661"/>
</filter>
<filter id="filter1_dd_1412_1661" x="4" y="-0.544434" width="64.6021" height="64.6021" filterUnits="userSpaceOnUse" color-interpolation-filters="sRGB">
<feFlood flood-opacity="0" result="BackgroundImageFix"/>
<feColorMatrix in="SourceAlpha" type="matrix" values="0 0 0 0 0 0 0 0 0 0 0 0 0 0 0 0 0 0 127 0" result="hardAlpha"/>
<feOffset dy="2"/>
<feGaussianBlur stdDeviation="1"/>
<feComposite in2="hardAlpha" operator="out"/>
<feColorMatrix type="matrix" values="0 0 0 0 0 0 0 0 0 0 0 0 0 0 0 0 0 0 0.03 0"/>
<feBlend mode="normal" in2="BackgroundImageFix" result="effect1_dropShadow_1412_1661"/>
<feColorMatrix in="SourceAlpha" type="matrix" values="0 0 0 0 0 0 0 0 0 0 0 0 0 0 0 0 0 0 127 0" result="hardAlpha"/>
<feOffset dy="4"/>
<feGaussianBlur stdDeviation="6"/>
<feComposite in2="hardAlpha" operator="out"/>
<feColorMatrix type="matrix" values="0 0 0 0 0 0 0 0 0 0 0 0 0 0 0 0 0 0 0.02 0"/>
<feBlend mode="normal" in2="effect1_dropShadow_1412_1661" result="effect2_dropShadow_1412_1661"/>
<feBlend mode="normal" in="SourceGraphic" in2="effect2_dropShadow_1412_1661" result="shape"/>
</filter>
<filter id="filter2_dd_1412_1661" x="9.48645" y="4.94238" width="53.6292" height="53.6289" filterUnits="userSpaceOnUse" color-interpolation-filters="sRGB">
<feFlood flood-opacity="0" result="BackgroundImageFix"/>
<feColorMatrix in="SourceAlpha" type="matrix" values="0 0 0 0 0 0 0 0 0 0 0 0 0 0 0 0 0 0 127 0" result="hardAlpha"/>
<feOffset dy="2"/>
<feGaussianBlur stdDeviation="1"/>
<feComposite in2="hardAlpha" operator="out"/>
<feColorMatrix type="matrix" values="0 0 0 0 0 0 0 0 0 0 0 0 0 0 0 0 0 0 0.03 0"/>
<feBlend mode="normal" in2="BackgroundImageFix" result="effect1_dropShadow_1412_1661"/>
<feColorMatrix in="SourceAlpha" type="matrix" values="0 0 0 0 0 0 0 0 0 0 0 0 0 0 0 0 0 0 127 0" result="hardAlpha"/>
<feOffset dy="4"/>
<feGaussianBlur stdDeviation="6"/>
<feComposite in2="hardAlpha" operator="out"/>
<feColorMatrix type="matrix" values="0 0 0 0 0 0 0 0 0 0 0 0 0 0 0 0 0 0 0.02 0"/>
<feBlend mode="normal" in2="effect1_dropShadow_1412_1661" result="effect2_dropShadow_1412_1661"/>
<feBlend mode="normal" in="SourceGraphic" in2="effect2_dropShadow_1412_1661" result="shape"/>
</filter>
<filter id="filter3_dd_1412_1661" x="178" y="-7.54443" width="68.4666" height="68.4663" filterUnits="userSpaceOnUse" color-interpolation-filters="sRGB">
<feFlood flood-opacity="0" result="BackgroundImageFix"/>
<feColorMatrix in="SourceAlpha" type="matrix" values="0 0 0 0 0 0 0 0 0 0 0 0 0 0 0 0 0 0 127 0" result="hardAlpha"/>
<feOffset dy="2"/>
<feGaussianBlur stdDeviation="1"/>
<feComposite in2="hardAlpha" operator="out"/>
<feColorMatrix type="matrix" values="0 0 0 0 0 0 0 0 0 0 0 0 0 0 0 0 0 0 0.03 0"/>
<feBlend mode="normal" in2="BackgroundImageFix" result="effect1_dropShadow_1412_1661"/>
<feColorMatrix in="SourceAlpha" type="matrix" values="0 0 0 0 0 0 0 0 0 0 0 0 0 0 0 0 0 0 127 0" result="hardAlpha"/>
<feOffset dy="4"/>
<feGaussianBlur stdDeviation="6"/>
<feComposite in2="hardAlpha" operator="out"/>
<feColorMatrix type="matrix" values="0 0 0 0 0 0 0 0 0 0 0 0 0 0 0 0 0 0 0.02 0"/>
<feBlend mode="normal" in2="effect1_dropShadow_1412_1661" result="effect2_dropShadow_1412_1661"/>
<feBlend mode="normal" in="SourceGraphic" in2="effect2_dropShadow_1412_1661" result="shape"/>
</filter>
<filter id="filter4_dd_1412_1661" x="186.594" y="1.04883" width="51.2795" height="51.2798" filterUnits="userSpaceOnUse" color-interpolation-filters="sRGB">
<feFlood flood-opacity="0" result="BackgroundImageFix"/>
<feColorMatrix in="SourceAlpha" type="matrix" values="0 0 0 0 0 0 0 0 0 0 0 0 0 0 0 0 0 0 127 0" result="hardAlpha"/>
<feOffset dy="2"/>
<feGaussianBlur stdDeviation="1"/>
<feComposite in2="hardAlpha" operator="out"/>
<feColorMatrix type="matrix" values="0 0 0 0 0 0 0 0 0 0 0 0 0 0 0 0 0 0 0.03 0"/>
<feBlend mode="normal" in2="BackgroundImageFix" result="effect1_dropShadow_1412_1661"/>
<feColorMatrix in="SourceAlpha" type="matrix" values="0 0 0 0 0 0 0 0 0 0 0 0 0 0 0 0 0 0 127 0" result="hardAlpha"/>
<feOffset dy="4"/>
<feGaussianBlur stdDeviation="6"/>
<feComposite in2="hardAlpha" operator="out"/>
<feColorMatrix type="matrix" values="0 0 0 0 0 0 0 0 0 0 0 0 0 0 0 0 0 0 0.02 0"/>
<feBlend mode="normal" in2="effect1_dropShadow_1412_1661" result="effect2_dropShadow_1412_1661"/>
<feBlend mode="normal" in="SourceGraphic" in2="effect2_dropShadow_1412_1661" result="shape"/>
</filter>
<filter id="filter5_dd_1412_1661" x="49.4355" y="46.451" width="48.1324" height="46.9223" filterUnits="userSpaceOnUse" color-interpolation-filters="sRGB">
<feFlood flood-opacity="0" result="BackgroundImageFix"/>
<feColorMatrix in="SourceAlpha" type="matrix" values="0 0 0 0 0 0 0 0 0 0 0 0 0 0 0 0 0 0 127 0" result="hardAlpha"/>
<feOffset dy="1.27164"/>
<feGaussianBlur stdDeviation="0.63582"/>
<feComposite in2="hardAlpha" operator="out"/>
<feColorMatrix type="matrix" values="0 0 0 0 0 0 0 0 0 0 0 0 0 0 0 0 0 0 0.03 0"/>
<feBlend mode="normal" in2="BackgroundImageFix" result="effect1_dropShadow_1412_1661"/>
<feColorMatrix in="SourceAlpha" type="matrix" values="0 0 0 0 0 0 0 0 0 0 0 0 0 0 0 0 0 0 127 0" result="hardAlpha"/>
<feOffset dy="2.54328"/>
<feGaussianBlur stdDeviation="3.81492"/>
<feComposite in2="hardAlpha" operator="out"/>
<feColorMatrix type="matrix" values="0 0 0 0 0 0 0 0 0 0 0 0 0 0 0 0 0 0 0.02 0"/>
<feBlend mode="normal" in2="effect1_dropShadow_1412_1661" result="effect2_dropShadow_1412_1661"/>
<feBlend mode="normal" in="SourceGraphic" in2="effect2_dropShadow_1412_1661" result="shape"/>
</filter>
<filter id="filter6_dd_1412_1661" x="204.459" y="41.3559" width="56.3094" height="51.611" filterUnits="userSpaceOnUse" color-interpolation-filters="sRGB">
<feFlood flood-opacity="0" result="BackgroundImageFix"/>
<feColorMatrix in="SourceAlpha" type="matrix" values="0 0 0 0 0 0 0 0 0 0 0 0 0 0 0 0 0 0 127 0" result="hardAlpha"/>
<feOffset dy="1.25966"/>
<feGaussianBlur stdDeviation="0.62983"/>
<feComposite in2="hardAlpha" operator="out"/>
<feColorMatrix type="matrix" values="0 0 0 0 0 0 0 0 0 0 0 0 0 0 0 0 0 0 0.03 0"/>
<feBlend mode="normal" in2="BackgroundImageFix" result="effect1_dropShadow_1412_1661"/>
<feColorMatrix in="SourceAlpha" type="matrix" values="0 0 0 0 0 0 0 0 0 0 0 0 0 0 0 0 0 0 127 0" result="hardAlpha"/>
<feOffset dy="2.51932"/>
<feGaussianBlur stdDeviation="3.77898"/>
<feComposite in2="hardAlpha" operator="out"/>
<feColorMatrix type="matrix" values="0 0 0 0 0 0 0 0 0 0 0 0 0 0 0 0 0 0 0.02 0"/>
<feBlend mode="normal" in2="effect1_dropShadow_1412_1661" result="effect2_dropShadow_1412_1661"/>
<feBlend mode="normal" in="SourceGraphic" in2="effect2_dropShadow_1412_1661" result="shape"/>
</filter>
<filter id="filter7_dd_1412_1661" x="254.451" y="12.2812" width="59.6069" height="59.6072" filterUnits="userSpaceOnUse" color-interpolation-filters="sRGB">
<feFlood flood-opacity="0" result="BackgroundImageFix"/>
<feColorMatrix in="SourceAlpha" type="matrix" values="0 0 0 0 0 0 0 0 0 0 0 0 0 0 0 0 0 0 127 0" result="hardAlpha"/>
<feOffset dy="4.37406"/>
<feGaussianBlur stdDeviation="4.37406"/>
<feComposite in2="hardAlpha" operator="out"/>
<feColorMatrix type="matrix" values="0 0 0 0 0 0 0 0 0 0 0 0 0 0 0 0 0 0 0.06 0"/>
<feBlend mode="normal" in2="BackgroundImageFix" result="effect1_dropShadow_1412_1661"/>
<feColorMatrix in="SourceAlpha" type="matrix" values="0 0 0 0 0 0 0 0 0 0 0 0 0 0 0 0 0 0 127 0" result="hardAlpha"/>
<feOffset dy="4.37406"/>
<feGaussianBlur stdDeviation="6.56109"/>
<feComposite in2="hardAlpha" operator="out"/>
<feColorMatrix type="matrix" values="0 0 0 0 0 0 0 0 0 0 0 0 0 0 0 0 0 0 0.04 0"/>
<feBlend mode="normal" in2="effect1_dropShadow_1412_1661" result="effect2_dropShadow_1412_1661"/>
<feBlend mode="normal" in="SourceGraphic" in2="effect2_dropShadow_1412_1661" result="shape"/>
</filter>
<clipPath id="clip0_1412_1661">
<rect width="320" height="100" fill="white" transform="translate(0 0.455566)"/>
</clipPath>
<clipPath id="clip1_1412_1661">
<rect width="32.67" height="32.67" fill="white" transform="translate(25.2767 7.45557) rotate(16.4962)"/>
</clipPath>
<clipPath id="clip2_1412_1661">
<rect width="32.67" height="32.67" fill="white" transform="translate(190 16.416) rotate(-29.2445)"/>
</clipPath>
<clipPath id="clip3_1412_1661">
<rect width="22.0518" height="22.0518" fill="white" transform="translate(276.458 24.2065) rotate(15)"/>
</clipPath>
<clipPath id="clip4_1412_1661">
<rect x="116.287" y="7.45557" width="64" height="64" rx="32" transform="rotate(7.44 116.287 7.45557)" fill="white"/>
</clipPath>
<clipPath id="clip5_1412_1661">
<rect width="64" height="64" fill="white" transform="translate(116.287 7.45557) rotate(7.44)"/>
</clipPath>
</defs>
</svg>
