<svg width="457" height="156" viewBox="0 0 457 156" fill="none" xmlns="http://www.w3.org/2000/svg">
<g clip-path="url(#clip0_1692_3026)">
<path d="M0 8.45557C0 4.03729 3.58172 0.455566 8 0.455566H449C453.418 0.455566 457 4.03729 457 8.45557V147.456C457 151.874 453.418 155.456 449 155.456H8C3.58172 155.456 0 151.874 0 147.456V8.45557Z" fill="#FAFAFA"/>
<line opacity="0.1" x1="46.5" y1="-280.544" x2="46.5" y2="297.456" stroke="black" stroke-dasharray="2 2"/>
<line opacity="0.1" x1="97.5" y1="-280.544" x2="97.5" y2="297.456" stroke="black" stroke-dasharray="2 2"/>
<line opacity="0.1" x1="148.5" y1="-280.544" x2="148.5" y2="297.456" stroke="black" stroke-dasharray="2 2"/>
<line opacity="0.1" x1="199.5" y1="-280.544" x2="199.5" y2="297.456" stroke="black" stroke-dasharray="2 2"/>
<line opacity="0.1" x1="250.5" y1="-280.544" x2="250.5" y2="297.456" stroke="black" stroke-dasharray="2 2"/>
<line opacity="0.1" x1="301.5" y1="-280.544" x2="301.5" y2="297.456" stroke="black" stroke-dasharray="2 2"/>
<line opacity="0.1" x1="352.5" y1="-280.544" x2="352.5" y2="297.456" stroke="black" stroke-dasharray="2 2"/>
<line opacity="0.1" x1="403.5" y1="-280.544" x2="403.5" y2="297.456" stroke="black" stroke-dasharray="2 2"/>
<line opacity="0.1" x1="491" y1="28.9556" x2="-42" y2="28.9556" stroke="black" stroke-dasharray="2 2"/>
<line opacity="0.1" x1="491" y1="79.9556" x2="-42" y2="79.9556" stroke="black" stroke-dasharray="2 2"/>
<line opacity="0.1" x1="491" y1="130.956" x2="-42" y2="130.956" stroke="black" stroke-dasharray="2 2"/>
</g>
<g filter="url(#filter0_dd_1692_3026)">
<path d="M199.658 109.582L202.838 112.05C203.784 112.785 204.923 113.229 206.114 113.33C207.306 113.43 208.501 113.182 209.553 112.616C210.605 112.05 211.47 111.19 212.043 110.139C212.615 109.089 212.871 107.895 212.779 106.7L212.471 102.686C212.364 101.261 212.708 99.8393 213.455 98.6238C214.208 97.4029 215.327 96.4528 216.654 95.9096L220.37 94.3934C221.476 93.9414 222.427 93.1773 223.106 92.1938C223.786 91.2103 224.166 90.0496 224.2 88.8525C224.234 87.6556 223.922 86.4734 223.299 85.4493C222.677 84.4253 221.772 83.6034 220.693 83.0834L217.069 81.3349C215.774 80.7048 214.712 79.6793 214.035 78.4066C213.353 77.1408 213.089 75.6924 213.28 74.2692L213.818 70.2809C213.978 69.0946 213.79 67.8863 213.278 66.8028C212.767 65.7193 211.952 64.807 210.934 64.1767C209.916 63.5455 208.738 63.2231 207.543 63.2486C206.348 63.2742 205.187 63.6465 204.2 64.3206L200.887 66.5874C199.703 67.3951 198.294 67.8063 196.86 67.762C195.43 67.7134 194.051 67.2127 192.921 66.3315L189.729 63.8695C188.783 63.1346 187.645 62.6899 186.453 62.5894C185.261 62.489 184.067 62.737 183.015 63.3034C181.962 63.8695 181.097 64.7298 180.525 65.7799C179.952 66.8299 179.696 68.0247 179.788 69.2192L180.096 73.2332C180.209 74.6622 179.867 76.089 179.12 77.3092C178.367 78.5302 177.247 79.4802 175.921 80.0235L172.193 81.5455C171.087 81.9976 170.137 82.7617 169.457 83.7452C168.778 84.7287 168.398 85.8893 168.364 87.0864C168.329 88.2833 168.642 89.4656 169.264 90.4896C169.887 91.5137 170.792 92.3356 171.87 92.8556L175.495 94.604C176.788 95.2284 177.851 96.2467 178.532 97.5128C179.214 98.7785 179.478 100.227 179.287 101.65L178.75 105.638C178.59 106.825 178.777 108.033 179.289 109.117C179.801 110.2 180.615 111.112 181.633 111.743C182.651 112.373 183.829 112.695 185.024 112.67C186.219 112.644 187.38 112.272 188.367 111.599L191.68 109.332C192.864 108.524 194.273 108.113 195.707 108.157C197.14 108.202 198.523 108.701 199.658 109.582Z" fill="#FF684B"/>
<path d="M199.658 109.582L202.838 112.05C203.784 112.785 204.923 113.229 206.114 113.33C207.306 113.43 208.501 113.182 209.553 112.616C210.605 112.05 211.47 111.19 212.043 110.139C212.615 109.089 212.871 107.895 212.779 106.7L212.471 102.686C212.364 101.261 212.708 99.8393 213.455 98.6238C214.208 97.4029 215.327 96.4528 216.654 95.9096L220.37 94.3934C221.476 93.9414 222.427 93.1773 223.106 92.1938C223.786 91.2103 224.166 90.0496 224.2 88.8525C224.234 87.6556 223.922 86.4734 223.299 85.4493C222.677 84.4253 221.772 83.6034 220.693 83.0834L217.069 81.3349C215.774 80.7048 214.712 79.6793 214.035 78.4066C213.353 77.1408 213.089 75.6924 213.28 74.2692L213.818 70.2809C213.978 69.0946 213.79 67.8863 213.278 66.8028C212.767 65.7193 211.952 64.807 210.934 64.1767C209.916 63.5455 208.738 63.2231 207.543 63.2486C206.348 63.2742 205.187 63.6465 204.2 64.3206L200.887 66.5874C199.703 67.3951 198.294 67.8063 196.86 67.762C195.43 67.7134 194.051 67.2127 192.921 66.3315L189.729 63.8695C188.783 63.1346 187.645 62.6899 186.453 62.5894C185.261 62.489 184.067 62.737 183.015 63.3034C181.962 63.8695 181.097 64.7298 180.525 65.7799C179.952 66.8299 179.696 68.0247 179.788 69.2192L180.096 73.2332C180.209 74.6622 179.867 76.089 179.12 77.3092C178.367 78.5302 177.247 79.4802 175.921 80.0235L172.193 81.5455C171.087 81.9976 170.137 82.7617 169.457 83.7452C168.778 84.7287 168.398 85.8893 168.364 87.0864C168.329 88.2833 168.642 89.4656 169.264 90.4896C169.887 91.5137 170.792 92.3356 171.87 92.8556L175.495 94.604C176.788 95.2284 177.851 96.2467 178.532 97.5128C179.214 98.7785 179.478 100.227 179.287 101.65L178.75 105.638C178.59 106.825 178.777 108.033 179.289 109.117C179.801 110.2 180.615 111.112 181.633 111.743C182.651 112.373 183.829 112.695 185.024 112.67C186.219 112.644 187.38 112.272 188.367 111.599L191.68 109.332C192.864 108.524 194.273 108.113 195.707 108.157C197.14 108.202 198.523 108.701 199.658 109.582Z" fill="white" fill-opacity="0.5"/>
<path d="M200.26 95.3589C204.332 93.1673 205.851 88.079 203.653 83.9938C201.454 79.9087 196.371 78.3736 192.299 80.5652C188.226 82.7567 186.707 87.8451 188.906 91.9302C191.104 96.0154 196.188 97.5505 200.26 95.3589Z" fill="#FF684B"/>
<path d="M200.26 95.3589C204.332 93.1673 205.851 88.079 203.653 83.9938C201.454 79.9087 196.371 78.3736 192.299 80.5652C188.226 82.7567 186.707 87.8451 188.906 91.9302C191.104 96.0154 196.188 97.5505 200.26 95.3589Z" fill="white" fill-opacity="0.5"/>
<path d="M199.658 109.582L202.838 112.05C203.784 112.785 204.923 113.229 206.114 113.33C207.306 113.43 208.501 113.182 209.553 112.616C210.605 112.05 211.47 111.19 212.043 110.139C212.615 109.089 212.871 107.895 212.779 106.7L212.471 102.686C212.364 101.261 212.708 99.8393 213.455 98.6238C214.208 97.4029 215.327 96.4528 216.654 95.9096L220.37 94.3934C221.476 93.9414 222.427 93.1773 223.106 92.1938C223.786 91.2103 224.166 90.0496 224.2 88.8525C224.234 87.6556 223.922 86.4734 223.299 85.4493C222.677 84.4253 221.772 83.6034 220.693 83.0834L217.069 81.3349C215.774 80.7048 214.712 79.6793 214.035 78.4066C213.353 77.1408 213.089 75.6924 213.28 74.2692L213.818 70.2809C213.978 69.0946 213.79 67.8863 213.278 66.8028C212.767 65.7193 211.952 64.807 210.934 64.1767C209.916 63.5455 208.738 63.2231 207.543 63.2486C206.348 63.2742 205.187 63.6465 204.2 64.3206L200.887 66.5874C199.703 67.3951 198.294 67.8063 196.86 67.762C195.43 67.7134 194.051 67.2127 192.921 66.3315L189.729 63.8695C188.783 63.1346 187.645 62.6899 186.453 62.5894C185.261 62.489 184.067 62.737 183.015 63.3034C181.962 63.8695 181.097 64.7298 180.525 65.7799C179.952 66.8299 179.696 68.0247 179.788 69.2192L180.096 73.2332C180.209 74.6622 179.867 76.089 179.12 77.3092C178.367 78.5302 177.247 79.4802 175.921 80.0235L172.193 81.5455C171.087 81.9976 170.137 82.7617 169.457 83.7452C168.778 84.7287 168.398 85.8893 168.364 87.0864C168.329 88.2833 168.642 89.4656 169.264 90.4896C169.887 91.5137 170.792 92.3356 171.87 92.8556L175.495 94.604C176.788 95.2284 177.851 96.2467 178.532 97.5128C179.214 98.7785 179.478 100.227 179.287 101.65L178.75 105.638C178.59 106.825 178.777 108.033 179.289 109.117C179.801 110.2 180.615 111.112 181.633 111.743C182.651 112.373 183.829 112.695 185.024 112.67C186.219 112.644 187.38 112.272 188.367 111.599L191.68 109.332C192.864 108.524 194.273 108.113 195.707 108.157C197.14 108.202 198.523 108.701 199.658 109.582Z" stroke="white" stroke-width="4" stroke-linecap="round" stroke-linejoin="round"/>
<path d="M200.26 95.3589C204.332 93.1673 205.851 88.079 203.653 83.9938C201.454 79.9087 196.371 78.3736 192.299 80.5652C188.226 82.7567 186.707 87.8451 188.906 91.9302C191.104 96.0154 196.188 97.5505 200.26 95.3589Z" stroke="white" stroke-width="4" stroke-linecap="round" stroke-linejoin="round"/>
</g>
<g filter="url(#filter1_dd_1692_3026)">
<path d="M286.247 65.2238C284.762 60.8502 279.099 59.7242 276.054 63.197L250.931 91.8475C247.886 95.3203 249.742 100.787 254.273 101.688L291.646 109.12C296.176 110.02 299.983 105.679 298.498 101.306L286.247 65.2238Z" fill="#FFC635" stroke="white" stroke-width="4"/>
<path d="M280.539 77.3432C281.095 77.4538 281.448 78.004 281.317 78.5555L278.33 91.1062C278.205 91.6294 277.689 91.9603 277.162 91.8555L274.26 91.2784C273.732 91.1735 273.382 90.6703 273.467 90.1394L275.509 77.4005C275.598 76.8407 276.135 76.4674 276.691 76.578L280.539 77.3432ZM274.325 98.5381C273.512 98.3765 272.871 97.9578 272.401 97.282C271.939 96.6007 271.792 95.8562 271.96 95.0484C272.11 94.2586 272.527 93.6407 273.213 93.1948C273.906 92.7502 274.659 92.6087 275.471 92.7703C276.242 92.9235 276.866 93.3387 277.343 94.0159C277.827 94.6945 277.994 95.4287 277.844 96.2185C277.73 96.7566 277.489 97.219 277.121 97.6059C276.761 97.9873 276.334 98.2655 275.841 98.4406C275.348 98.6087 274.843 98.6412 274.325 98.5381Z" fill="white"/>
</g>
<g clip-path="url(#clip1_1692_3026)" filter="url(#filter2_dd_1692_3026)">
<g filter="url(#filter3_dd_1692_3026)">
<path d="M244.919 36.762L246.067 45.3443C246.228 46.5472 246.309 47.1487 246.528 47.6907C246.722 48.1711 246.995 48.6155 247.336 49.0055C247.721 49.4456 248.222 49.7889 249.222 50.4755L256.362 55.374L247.78 56.5225C246.577 56.6835 245.976 56.764 245.434 56.983C244.953 57.1771 244.509 57.4503 244.119 57.7914C243.679 58.1762 243.335 58.6766 242.649 59.6774L237.75 66.8173L236.602 58.2351C236.441 57.0322 236.36 56.4307 236.141 55.8887C235.947 55.4083 235.674 54.9638 235.333 54.5738C234.948 54.1338 234.448 53.7905 233.447 53.1039L226.307 48.2054L234.889 47.0569C236.092 46.8959 236.694 46.8154 237.236 46.5964C237.716 46.4023 238.16 46.1291 238.55 45.788C238.991 45.4032 239.334 44.9028 240.02 43.902L244.919 36.762Z" fill="#EBC28E"/>
<path d="M244.919 36.762L246.067 45.3443C246.228 46.5472 246.309 47.1487 246.528 47.6907C246.722 48.1711 246.995 48.6155 247.336 49.0055C247.721 49.4456 248.222 49.7889 249.222 50.4755L256.362 55.374L247.78 56.5225C246.577 56.6835 245.976 56.764 245.434 56.983C244.953 57.1771 244.509 57.4503 244.119 57.7914C243.679 58.1762 243.335 58.6766 242.649 59.6774L237.75 66.8173L236.602 58.2351C236.441 57.0322 236.36 56.4307 236.141 55.8887C235.947 55.4083 235.674 54.9638 235.333 54.5738C234.948 54.1338 234.448 53.7905 233.447 53.1039L226.307 48.2054L234.889 47.0569C236.092 46.8959 236.694 46.8154 237.236 46.5964C237.716 46.4023 238.16 46.1291 238.55 45.788C238.991 45.4032 239.334 44.9028 240.02 43.902L244.919 36.762Z" stroke="white" stroke-width="4" stroke-linecap="round" stroke-linejoin="round"/>
</g>
</g>
<defs>
<filter id="filter0_dd_1692_3026" x="154.361" y="52.5674" width="83.8409" height="78.7842" filterUnits="userSpaceOnUse" color-interpolation-filters="sRGB">
<feFlood flood-opacity="0" result="BackgroundImageFix"/>
<feColorMatrix in="SourceAlpha" type="matrix" values="0 0 0 0 0 0 0 0 0 0 0 0 0 0 0 0 0 0 127 0" result="hardAlpha"/>
<feOffset dy="2"/>
<feGaussianBlur stdDeviation="1"/>
<feComposite in2="hardAlpha" operator="out"/>
<feColorMatrix type="matrix" values="0 0 0 0 0 0 0 0 0 0 0 0 0 0 0 0 0 0 0.03 0"/>
<feBlend mode="normal" in2="BackgroundImageFix" result="effect1_dropShadow_1692_3026"/>
<feColorMatrix in="SourceAlpha" type="matrix" values="0 0 0 0 0 0 0 0 0 0 0 0 0 0 0 0 0 0 127 0" result="hardAlpha"/>
<feOffset dy="4"/>
<feGaussianBlur stdDeviation="6"/>
<feComposite in2="hardAlpha" operator="out"/>
<feColorMatrix type="matrix" values="0 0 0 0 0 0 0 0 0 0 0 0 0 0 0 0 0 0 0.02 0"/>
<feBlend mode="normal" in2="effect1_dropShadow_1692_3026" result="effect2_dropShadow_1692_3026"/>
<feBlend mode="normal" in="SourceGraphic" in2="effect2_dropShadow_1692_3026" result="shape"/>
</filter>
<filter id="filter1_dd_1692_3026" x="235.436" y="51.1499" width="77.391" height="76.0908" filterUnits="userSpaceOnUse" color-interpolation-filters="sRGB">
<feFlood flood-opacity="0" result="BackgroundImageFix"/>
<feColorMatrix in="SourceAlpha" type="matrix" values="0 0 0 0 0 0 0 0 0 0 0 0 0 0 0 0 0 0 127 0" result="hardAlpha"/>
<feOffset dy="2"/>
<feGaussianBlur stdDeviation="1"/>
<feComposite in2="hardAlpha" operator="out"/>
<feColorMatrix type="matrix" values="0 0 0 0 0 0 0 0 0 0 0 0 0 0 0 0 0 0 0.03 0"/>
<feBlend mode="normal" in2="BackgroundImageFix" result="effect1_dropShadow_1692_3026"/>
<feColorMatrix in="SourceAlpha" type="matrix" values="0 0 0 0 0 0 0 0 0 0 0 0 0 0 0 0 0 0 127 0" result="hardAlpha"/>
<feOffset dy="4"/>
<feGaussianBlur stdDeviation="6"/>
<feComposite in2="hardAlpha" operator="out"/>
<feColorMatrix type="matrix" values="0 0 0 0 0 0 0 0 0 0 0 0 0 0 0 0 0 0 0.02 0"/>
<feBlend mode="normal" in2="effect1_dropShadow_1692_3026" result="effect2_dropShadow_1692_3026"/>
<feBlend mode="normal" in="SourceGraphic" in2="effect2_dropShadow_1692_3026" result="shape"/>
</filter>
<filter id="filter2_dd_1692_3026" x="207" y="21.4556" width="68.6687" height="68.6685" filterUnits="userSpaceOnUse" color-interpolation-filters="sRGB">
<feFlood flood-opacity="0" result="BackgroundImageFix"/>
<feColorMatrix in="SourceAlpha" type="matrix" values="0 0 0 0 0 0 0 0 0 0 0 0 0 0 0 0 0 0 127 0" result="hardAlpha"/>
<feOffset dy="2"/>
<feGaussianBlur stdDeviation="1"/>
<feComposite in2="hardAlpha" operator="out"/>
<feColorMatrix type="matrix" values="0 0 0 0 0 0 0 0 0 0 0 0 0 0 0 0 0 0 0.03 0"/>
<feBlend mode="normal" in2="BackgroundImageFix" result="effect1_dropShadow_1692_3026"/>
<feColorMatrix in="SourceAlpha" type="matrix" values="0 0 0 0 0 0 0 0 0 0 0 0 0 0 0 0 0 0 127 0" result="hardAlpha"/>
<feOffset dy="4"/>
<feGaussianBlur stdDeviation="6"/>
<feComposite in2="hardAlpha" operator="out"/>
<feColorMatrix type="matrix" values="0 0 0 0 0 0 0 0 0 0 0 0 0 0 0 0 0 0 0.02 0"/>
<feBlend mode="normal" in2="effect1_dropShadow_1692_3026" result="effect2_dropShadow_1692_3026"/>
<feBlend mode="normal" in="SourceGraphic" in2="effect2_dropShadow_1692_3026" result="shape"/>
</filter>
<filter id="filter3_dd_1692_3026" x="212.307" y="26.7617" width="58.0555" height="58.0557" filterUnits="userSpaceOnUse" color-interpolation-filters="sRGB">
<feFlood flood-opacity="0" result="BackgroundImageFix"/>
<feColorMatrix in="SourceAlpha" type="matrix" values="0 0 0 0 0 0 0 0 0 0 0 0 0 0 0 0 0 0 127 0" result="hardAlpha"/>
<feOffset dy="2"/>
<feGaussianBlur stdDeviation="1"/>
<feComposite in2="hardAlpha" operator="out"/>
<feColorMatrix type="matrix" values="0 0 0 0 0 0 0 0 0 0 0 0 0 0 0 0 0 0 0.03 0"/>
<feBlend mode="normal" in2="BackgroundImageFix" result="effect1_dropShadow_1692_3026"/>
<feColorMatrix in="SourceAlpha" type="matrix" values="0 0 0 0 0 0 0 0 0 0 0 0 0 0 0 0 0 0 127 0" result="hardAlpha"/>
<feOffset dy="4"/>
<feGaussianBlur stdDeviation="6"/>
<feComposite in2="hardAlpha" operator="out"/>
<feColorMatrix type="matrix" values="0 0 0 0 0 0 0 0 0 0 0 0 0 0 0 0 0 0 0.02 0"/>
<feBlend mode="normal" in2="effect1_dropShadow_1692_3026" result="effect2_dropShadow_1692_3026"/>
<feBlend mode="normal" in="SourceGraphic" in2="effect2_dropShadow_1692_3026" result="shape"/>
</filter>
<clipPath id="clip0_1692_3026">
<rect width="457" height="155" fill="white" transform="translate(0 0.455566)"/>
</clipPath>
<clipPath id="clip1_1692_3026">
<rect width="37.0781" height="37.0781" fill="white" transform="translate(227.603 29.4556) rotate(13.4152)"/>
</clipPath>
</defs>
</svg>
