<?xml version="1.0" encoding="UTF-8"?>
<svg id="Layer_1" xmlns="http://www.w3.org/2000/svg" version="1.1" viewBox="0 0 1011.363 1011.362">
  <!-- Generator: Adobe Illustrator 30.2.1, SVG Export Plug-In . SVG Version: 2.1.1 Build 1)  -->
  <defs>
    <style>
      .st0 {
        fill: #fff;
      }
    </style>
  </defs>
  <path d="M971.613,308.839c-25.471-60.22-61.929-114.296-108.361-160.729-46.432-46.432-100.509-82.89-160.728-108.36C640.163,13.374,573.935,0,505.681,0s-134.482,13.374-196.842,39.75c-60.22,25.471-114.296,61.929-160.728,108.361-46.432,46.432-82.89,100.508-108.361,160.728C13.374,371.199,0,437.427,0,505.681s13.374,134.482,39.75,196.842c25.471,60.22,61.929,114.296,108.361,160.729,46.432,46.432,100.508,82.89,160.728,108.36,62.36,26.376,128.588,39.75,196.842,39.75s134.481-13.374,196.843-39.75c60.219-25.471,114.296-61.929,160.728-108.36,46.433-46.432,82.891-100.509,108.361-160.729,26.376-62.36,39.75-128.588,39.75-196.842s-13.374-134.482-39.75-196.842Z"/>
  <path class="st0" d="M925.725,328.197c-22.965-54.294-55.835-103.05-97.698-144.914s-90.619-74.734-144.913-97.698c-56.226-23.781-115.937-35.839-177.475-35.839s-121.25,12.058-177.475,35.839c-54.294,22.964-103.05,55.835-144.914,97.698s-74.734,90.619-97.698,144.914c-23.781,56.225-35.839,115.936-35.839,177.474s12.058,121.25,35.839,177.475c22.964,54.294,55.835,103.051,97.698,144.914s90.619,74.733,144.914,97.698c56.225,23.781,115.936,35.839,177.475,35.839s121.249-12.058,177.475-35.839c54.294-22.965,103.05-55.835,144.913-97.698s74.733-90.62,97.698-144.914c23.781-56.225,35.839-115.936,35.839-177.475s-12.058-121.25-35.839-177.474ZM783.231,801.576l-217.427-299.263,244.398,271.432c-8.547,9.699-17.548,18.987-26.971,27.831ZM201.117,773.793l244.442-271.481-217.463,299.312c-9.426-8.845-18.43-18.133-26.98-27.831ZM909.585,465.492l-308.5-32.425h303.971c1.935,10.67,3.449,21.484,4.529,32.425ZM601.088,423.067l294.311-30.933c2.963,10.154,5.541,20.47,7.713,30.933h-302.024ZM600.042,413.122l281.811-59.901c3.883,9.548,7.41,19.278,10.57,29.17l-292.381,30.731ZM597.963,403.341l266.84-86.701c4.691,8.877,9.06,17.95,13.096,27.199l-279.936,59.502ZM594.871,393.831l249.777-111.208c5.387,8.161,10.488,16.527,15.288,25.083l-265.065,86.125ZM590.802,384.696l230.988-133.361c5.979,7.417,11.699,15.05,17.154,22.881l-248.142,110.48ZM585.805,376.034l210.785-153.144c6.475,6.66,12.726,13.54,18.736,20.63l-229.522,132.514ZM579.923,367.948l189.466-170.596c6.889,5.901,13.58,12.025,20.059,18.368l-209.524,152.228ZM573.24,360.509l167.254-185.754c7.228,5.145,14.276,10.525,21.144,16.12l-188.397,169.634ZM565.804,353.821l144.353-198.685c7.505,4.396,14.861,9.021,22.05,13.875l-166.403,184.81ZM557.712,347.948l120.929-209.456c7.727,3.655,15.321,7.548,22.772,11.668l-143.701,197.788ZM549.052,342.947l97.113-218.119c7.9,2.924,15.683,6.088,23.344,9.482l-120.457,208.637ZM539.917,338.88l73.022-224.738c8.028,2.202,15.957,4.645,23.779,7.321l-96.801,217.417ZM530.407,335.789l48.753-229.365c8.115,1.491,16.147,3.222,24.087,5.189l-72.84,224.176ZM520.626,333.707l24.39-232.059c8.165.79,16.26,1.822,24.278,3.09l-48.669,228.969ZM510.681,332.662V99.778c8.183.1,16.307.45,24.369,1.03l-24.369,231.854ZM500.681,332.662l-24.37-231.86c8.062-.578,16.186-.926,24.37-1.024v232.885ZM490.736,333.708l-48.672-228.983c8.019-1.267,16.115-2.297,24.281-3.085l24.391,232.068ZM480.955,335.79l-72.846-224.197c7.941-1.966,15.973-3.695,24.089-5.184l48.757,229.381ZM471.444,338.877l-96.81-217.439c7.823-2.675,15.753-5.116,23.782-7.317l73.028,224.756ZM462.309,342.944l-120.472-208.664c7.662-3.393,15.448-6.556,23.349-9.479l97.123,218.143ZM453.648,347.944l-143.723-197.818c7.453-4.119,15.049-8.011,22.778-11.666l120.945,209.483ZM445.56,353.824l-166.437-184.847c7.192-4.854,14.549-9.479,22.057-13.875l144.38,198.722ZM438.124,360.51l-188.439-169.671c6.87-5.595,13.92-10.976,21.151-16.121l167.288,185.792ZM431.434,367.943l-209.568-152.26c6.48-6.343,13.175-12.467,20.065-18.369l189.502,170.628ZM425.561,376.037l-229.582-132.549c6.013-7.091,12.266-13.972,18.744-20.634l210.839,153.183ZM420.559,384.696l-248.206-110.508c5.457-7.833,11.18-15.467,17.161-22.885l231.045,133.394ZM416.489,393.83l-265.134-86.147c4.802-8.558,9.905-16.926,15.294-25.089l249.84,111.236ZM413.402,403.342l-280.017-59.519c4.038-9.252,8.409-18.327,13.102-27.206l266.915,86.726ZM411.321,413.122l-292.464-30.739c3.161-9.895,6.689-19.627,10.574-29.178l281.89,59.917ZM410.274,423.067H108.165c2.172-10.466,4.751-20.785,7.715-30.942l294.394,30.942ZM410.277,433.067l-308.586,32.434c1.08-10.943,2.595-21.761,4.53-32.434h304.056ZM99.713,505.671c0-10.097.376-20.108,1.104-30.023l310.503-32.635-311.585,66.229c-.01-1.19-.023-2.379-.023-3.571ZM413.402,452.794l-310.846,101c-1.343-11.323-2.218-22.788-2.606-34.374l313.451-66.626ZM416.492,462.304l-306.049,136.262c-2.676-11.387-4.871-22.957-6.562-34.688l312.611-101.573ZM420.559,471.44l-296.967,171.454c-4.06-11.27-7.636-22.768-10.7-34.472l307.667-136.982ZM425.56,480.099l-283.509,205.981c-5.46-10.959-10.433-22.201-14.903-33.693l298.412-172.289ZM431.432,488.193l-265.666,239.207c-6.841-10.451-13.216-21.233-19.09-32.32l284.755-206.887ZM438.128,495.621l-243.583,270.527c-8.173-9.745-15.899-19.876-23.143-30.366l266.726-240.161ZM453.648,508.191l-187.614,324.957c-10.571-7.755-20.754-16.01-30.515-24.729l218.129-300.229ZM775.81,808.374c-9.758,8.719-19.938,16.974-30.507,24.731l-187.591-324.917,218.098,300.186ZM573.236,495.622l266.672,240.113c-7.241,10.488-14.964,20.619-23.134,30.364l-243.538-270.477ZM579.926,488.189l284.699,206.845c-5.871,11.086-12.244,21.867-19.082,32.316l-265.616-239.162ZM585.806,480.101l298.339,172.246c-4.468,11.49-9.438,22.73-14.895,33.688l-283.444-205.934ZM590.804,471.44l307.591,136.948c-3.062,11.701-6.636,23.198-10.694,34.465l-296.897-171.413ZM594.869,462.303l312.532,101.548c-1.691,11.728-3.884,23.296-6.558,34.681l-305.973-136.228ZM597.962,452.794l313.365,66.608c-.387,11.583-1.26,23.045-2.603,34.365l-310.762-100.973ZM600.041,443.013l310.418,32.626c.729,9.918,1.105,19.931,1.105,30.032,0,1.186-.012,2.369-.023,3.553l-311.501-66.211ZM505.639,911.597c-85.947,0-165.739-26.852-231.432-72.604l231.474-400.925,231.45,400.883c-65.705,45.777-145.519,72.646-231.492,72.646Z"/>
  <circle cx="505.639" cy="428.068" r="71.667"/>
  <path class="st0" d="M505.639,506.734c-43.377,0-78.667-35.29-78.667-78.667s35.29-78.667,78.667-78.667,78.667,35.29,78.667,78.667-35.29,78.667-78.667,78.667ZM505.639,363.401c-35.658,0-64.667,29.009-64.667,64.667s29.009,64.667,64.667,64.667,64.667-29.009,64.667-64.667-29.01-64.667-64.667-64.667Z"/>
</svg>