<svg width="457" height="143" viewBox="0 0 457 143" fill="none" xmlns="http://www.w3.org/2000/svg">
<g clip-path="url(#clip0_26_330)">
<path d="M206.5 85.0002C221.688 85.0002 234 72.688 234 57.5001C234 42.3122 221.688 30 206.5 30C191.312 30 179 42.3122 179 57.5001C179 72.688 191.312 85.0002 206.5 85.0002Z" fill="black"/>
<path d="M189.014 61.6262C188.558 61.5997 188.118 61.516 187.695 61.3753C187.271 61.2345 186.896 61.0422 186.569 60.7977C186.242 60.5534 185.991 60.2615 185.815 59.9215L187.62 59.2205C187.69 59.3268 187.804 59.4397 187.962 59.5591C188.12 59.6787 188.308 59.7783 188.527 59.8577C188.747 59.9374 188.987 59.9773 189.25 59.9773C189.472 59.9773 189.684 59.9495 189.885 59.8937C190.087 59.8381 190.25 59.7517 190.376 59.6348C190.502 59.5182 190.564 59.3667 190.564 59.1808C190.564 58.9845 190.49 58.8316 190.341 58.7226C190.192 58.6139 190.005 58.5315 189.78 58.4757C189.555 58.4198 189.338 58.3682 189.128 58.3203C188.573 58.2195 188.057 58.0629 187.581 57.8502C187.105 57.638 186.723 57.3629 186.433 57.0259C186.144 56.6888 186 56.281 186 55.8032C186 55.2775 186.153 54.8235 186.46 54.441C186.766 54.0585 187.166 53.7639 187.66 53.5569C188.154 53.3498 188.687 53.2461 189.259 53.2461C189.954 53.2461 190.592 53.3774 191.174 53.6405C191.755 53.9034 192.215 54.2737 192.554 54.7517L190.863 55.6597C190.781 55.5324 190.667 55.4142 190.521 55.3053C190.375 55.1965 190.208 55.1062 190.021 55.0345C189.834 54.9627 189.639 54.9218 189.434 54.9111C189.172 54.9004 188.932 54.9218 188.716 54.9749C188.5 55.028 188.326 55.1184 188.195 55.2457C188.063 55.3733 187.997 55.543 187.997 55.7555C187.997 55.9573 188.085 56.1072 188.26 56.2055C188.436 56.3038 188.647 56.3795 188.895 56.4326C189.144 56.4858 189.382 56.5443 189.61 56.6079C190.124 56.762 190.607 56.9504 191.06 57.1735C191.512 57.3967 191.876 57.6702 192.151 57.9941C192.425 58.3181 192.557 58.7058 192.545 59.157C192.545 59.672 192.375 60.1223 192.037 60.507C191.698 60.8923 191.261 61.1854 190.727 61.3872C190.192 61.589 189.621 61.6687 189.014 61.6262Z" fill="white"/>
<path d="M200.508 56.4486V61.4828H198.564V56.9584C198.564 56.6452 198.487 56.3597 198.333 56.1021C198.179 55.8445 197.973 55.6402 197.715 55.4888C197.458 55.3374 197.173 55.2617 196.859 55.2617C196.546 55.2617 196.26 55.3374 196.003 55.4888C195.745 55.6402 195.541 55.8445 195.389 56.1021C195.238 56.3597 195.162 56.6452 195.162 56.9584V61.4828H193.219L193.211 49.5347H195.154L195.162 54.2264C195.433 53.9397 195.757 53.7128 196.134 53.5453C196.511 53.378 196.917 53.2943 197.353 53.2943C197.931 53.2943 198.46 53.4366 198.938 53.7205C199.415 54.0047 199.797 54.3845 200.081 54.8596C200.365 55.3349 200.507 55.8646 200.507 56.4486H200.508Z" fill="white"/>
<path d="M207.629 53.5173H209.572V61.4827H207.629L207.541 60.4951C207.323 60.851 207.035 61.1389 206.677 61.3593C206.319 61.5797 205.895 61.6899 205.406 61.6899C204.817 61.6899 204.265 61.5785 203.75 61.3554C203.234 61.1322 202.782 60.8244 202.391 60.4313C202.001 60.0383 201.696 59.5844 201.475 59.0693C201.255 58.5543 201.145 58.002 201.145 57.4125C201.145 56.8444 201.249 56.3107 201.459 55.8115C201.669 55.3124 201.962 54.8743 202.339 54.4973C202.716 54.1202 203.152 53.8256 203.646 53.6131C204.14 53.4009 204.671 53.2944 205.239 53.2944C205.764 53.2944 206.236 53.4113 206.653 53.6449C207.069 53.8787 207.424 54.1761 207.716 54.537L207.629 53.5173H207.629ZM205.359 59.8182C205.773 59.8182 206.139 59.7147 206.458 59.5077C206.777 59.3007 207.026 59.0204 207.207 58.6675C207.387 58.3143 207.478 57.9253 207.478 57.5004C207.478 57.0702 207.387 56.6786 207.207 56.3253C207.026 55.9724 206.775 55.6922 206.454 55.4852C206.133 55.2781 205.768 55.1746 205.359 55.1746C204.95 55.1746 204.577 55.2796 204.24 55.4894C203.902 55.6991 203.634 55.9793 203.435 56.3296C203.236 56.6798 203.137 57.0705 203.137 57.5006C203.137 57.9308 203.237 58.3212 203.439 58.6714C203.641 59.0219 203.91 59.3007 204.248 59.5079C204.585 59.7149 204.955 59.8184 205.359 59.8184V59.8182Z" fill="white"/>
<path d="M212.313 65.4652H210.369V53.5171H212.313V54.5288C212.573 54.1676 212.893 53.8745 213.272 53.6486C213.652 53.423 214.097 53.3101 214.607 53.3101C215.191 53.3101 215.735 53.419 216.24 53.6367C216.744 53.8546 217.189 54.156 217.574 54.5407C217.959 54.9259 218.259 55.3705 218.474 55.8748C218.689 56.3794 218.796 56.921 218.796 57.4999C218.796 58.0787 218.689 58.623 218.474 59.1329C218.259 59.6427 217.959 60.09 217.574 60.4749C217.189 60.8599 216.744 61.1612 216.24 61.3789C215.735 61.5966 215.191 61.7056 214.607 61.7056C214.097 61.7056 213.652 61.5926 213.272 61.367C212.893 61.1414 212.573 60.848 212.313 60.4869V65.4652ZM214.583 55.1821C214.179 55.1821 213.818 55.2871 213.5 55.4968C213.181 55.7065 212.932 55.9868 212.751 56.337C212.571 56.6875 212.48 57.0752 212.48 57.4999C212.48 57.9246 212.57 58.3138 212.751 58.667C212.931 59.0202 213.181 59.3016 213.5 59.5111C213.819 59.7209 214.18 59.8259 214.583 59.8259C214.992 59.8259 215.366 59.7224 215.706 59.5154C216.046 59.3083 216.317 59.0281 216.519 58.6752C216.72 58.3219 216.821 57.9303 216.821 57.5001C216.821 57.0754 216.72 56.6875 216.519 56.3372C216.317 55.9868 216.047 55.7068 215.71 55.4971C215.373 55.2873 214.997 55.1821 214.583 55.1821Z" fill="white"/>
<path d="M223.209 61.6897C222.476 61.6897 221.809 61.5011 221.206 61.1243C220.603 60.7472 220.123 60.2402 219.764 59.6027C219.406 58.9656 219.227 58.2619 219.227 57.492C219.227 56.9131 219.33 56.3703 219.537 55.8629C219.744 55.3558 220.03 54.9098 220.393 54.5246C220.757 54.1396 221.181 53.8383 221.664 53.6206C222.147 53.4029 222.662 53.2939 223.209 53.2939C223.831 53.2939 224.4 53.4252 224.918 53.6884C225.436 53.9512 225.875 54.3111 226.236 54.7676C226.597 55.2243 226.86 55.7445 227.025 56.3288C227.189 56.9131 227.226 57.5237 227.136 58.1609H221.314C221.388 58.4582 221.51 58.7251 221.68 58.9614C221.85 59.1977 222.065 59.3863 222.325 59.5268C222.585 59.6675 222.88 59.7407 223.209 59.746C223.549 59.7512 223.859 59.6703 224.137 59.503C224.416 59.3357 224.648 59.1088 224.834 58.8219L226.818 59.2838C226.494 59.9902 226.01 60.5675 225.368 61.0163C224.725 61.4651 224.006 61.6897 223.209 61.6897ZM221.25 56.7034H225.169C225.11 56.3847 224.987 56.0968 224.798 55.8391C224.61 55.5817 224.377 55.3759 224.101 55.2218C223.825 55.0679 223.528 54.991 223.209 54.991C222.891 54.991 222.596 55.0667 222.325 55.2181C222.054 55.3695 221.825 55.574 221.636 55.8314C221.448 56.0891 221.319 56.3795 221.25 56.7034Z" fill="white"/>
</g>
<mask id="mask0_26_330" style="mask-type:luminance" maskUnits="userSpaceOnUse" x="0" y="0" width="457" height="143">
<path d="M457 0H0V142.812H457V0Z" fill="white"/>
</mask>
<g mask="url(#mask0_26_330)">
<g opacity="0.2" filter="url(#filter0_f_26_330)">
<path d="M227.549 57.6131C158.405 57.6131 102.352 65.8158 102.352 75.9345C102.352 86.0531 158.405 94.2559 227.549 94.2559C296.693 94.2559 352.746 86.0531 352.746 75.9345C352.746 65.8158 296.693 57.6131 227.549 57.6131Z" fill="#737373"/>
</g>
<mask id="mask1_26_330" style="mask-type:luminance" maskUnits="userSpaceOnUse" x="22" y="9" width="59" height="59">
<path d="M80.213 23.5829L67.2486 67.3608L23.4706 54.3964L36.4351 10.6185L80.213 23.5829Z" fill="white" stroke="white"/>
</mask>
<g mask="url(#mask1_26_330)">
<g filter="url(#filter1_di_26_330)">
<g filter="url(#filter2_di_26_330)">
<path d="M57.7266 31.2505C57.8454 32.7471 57.9082 33.5827 58.1719 34.3521C58.4013 35.0217 58.7421 35.6484 59.1787 36.2056C59.6805 36.8455 60.3475 37.3533 61.5381 38.2681L69.1465 44.1138L59.5811 44.8735C58.0844 44.9924 57.2488 45.0552 56.4795 45.3188C55.8098 45.5484 55.183 45.8891 54.626 46.3257C53.9859 46.8274 53.4781 47.4946 52.5635 48.6851L46.7168 56.2935L45.958 46.728C45.854 45.4186 45.7928 44.6152 45.6025 43.9194L45.5127 43.6265C45.2833 42.9567 44.9425 42.33 44.5059 41.7729C44.0041 41.1329 43.337 40.6251 42.1465 39.7104L34.5371 33.8638L44.1035 33.105C45.6001 32.9861 46.4358 32.9233 47.2051 32.6597C47.8748 32.4301 48.5015 32.0895 49.0586 31.6528C49.6986 31.1511 50.2065 30.484 51.1211 29.2935L56.9668 21.6841L57.7266 31.2505Z" fill="#FFD900" stroke="#171717"/>
<path d="M57.3624 20.3491L58.2252 31.2106C58.3461 32.733 58.4066 33.4942 58.6451 34.1901C58.8564 34.8068 59.1696 35.3837 59.5718 35.8969C60.0256 36.4758 60.6312 36.941 61.8423 37.8715L70.4824 44.5094L59.621 45.3721C58.0985 45.493 57.3373 45.5535 56.6415 45.792C56.0247 46.0034 55.4478 46.3167 54.9347 46.7188C54.3557 47.1726 53.8905 47.7782 52.9601 48.9892L46.3222 57.6294L45.4594 46.768C45.3385 45.2456 45.2781 44.4843 45.0396 43.7885C44.8283 43.1717 44.515 42.5948 44.1128 42.0817C43.659 41.5027 43.0534 41.0375 41.8424 40.1071L33.2021 33.4691L44.0635 32.6064C45.586 32.4855 46.3472 32.4251 47.043 32.1866C47.6598 31.9752 48.2368 31.6619 48.7499 31.2597C49.3289 30.8059 49.794 30.2004 50.7244 28.9893L57.3624 20.3491Z" fill="#FFD900" stroke="#171717" stroke-width="5.03336" stroke-linecap="round" stroke-linejoin="round"/>
</g>
</g>
</g>
<mask id="mask2_26_330" style="mask-type:luminance" maskUnits="userSpaceOnUse" x="271" y="0" width="64" height="64">
<path d="M312.054 -0.00018707L271.344 22.7935L294.137 63.5036L334.848 40.71L312.054 -0.00018707Z" fill="white"/>
</mask>
<g mask="url(#mask2_26_330)">
<g filter="url(#filter3_di_26_330)">
<g filter="url(#filter4_di_26_330)">
<path d="M301.659 22.1362C302.814 23.0956 303.456 23.6347 304.191 23.9829C304.831 24.2858 305.517 24.479 306.221 24.5552C307.03 24.6425 307.858 24.5195 309.345 24.3052L318.842 22.9351L312.711 30.3159C311.751 31.4707 311.214 32.1133 310.865 32.8481C310.562 33.4878 310.369 34.174 310.293 34.8774C310.204 35.6865 310.329 36.5162 310.543 38.0015L311.912 47.4985L304.531 41.3677C303.376 40.4084 302.734 39.8702 301.999 39.522C301.36 39.219 300.673 39.0248 299.97 38.9487C299.161 38.8614 298.332 38.9844 296.846 39.1987L287.348 40.5679L293.479 33.188C294.439 32.0331 294.977 31.3907 295.325 30.6558H295.326C295.629 30.0161 295.821 29.3299 295.897 28.6265C295.986 27.8175 295.863 26.9883 295.648 25.5024L294.278 16.0044L301.659 22.1362Z" fill="#FFD900" stroke="#171717"/>
<path d="M293.598 14.7896L301.979 21.752C303.154 22.7279 303.741 23.2158 304.406 23.5307C304.995 23.8097 305.627 23.988 306.275 24.0581C307.007 24.1371 307.762 24.0281 309.274 23.8101L320.058 22.2547L313.096 30.6357C312.12 31.8104 311.632 32.3977 311.317 33.0625C311.038 33.6517 310.86 34.2837 310.79 34.9319C310.71 35.6632 310.82 36.4189 311.038 37.9305L312.593 48.7146L304.212 41.7522C303.037 40.7763 302.45 40.2883 301.785 39.9734C301.196 39.6944 300.564 39.5161 299.916 39.446C299.184 39.367 298.429 39.476 296.917 39.694L286.133 41.2495L293.095 32.8685C294.071 31.6938 294.559 31.1064 294.874 30.4416C295.153 29.8524 295.331 29.2205 295.401 28.5723C295.481 27.841 295.372 27.0852 295.154 25.5736L293.598 14.7896Z" fill="#FFD900" stroke="#171717" stroke-width="5.03336" stroke-linecap="round" stroke-linejoin="round"/>
</g>
</g>
</g>
<g filter="url(#filter5_di_26_330)">
<path d="M116.196 83.8028L119.21 97.9213L96.2114 102.83L93.1978 88.7118L116.196 83.8028Z" fill="white" stroke="#171717"/>
<path d="M101.46 76.2387C96.5081 77.2955 92.0702 78.7429 88.889 80.2601C87.3117 81.0124 85.949 81.8259 84.9844 82.6802C84.1451 83.4236 83.0312 84.7149 83.3802 86.35C83.7292 87.985 85.2732 88.709 86.3429 89.0449C87.5723 89.431 89.1484 89.6172 90.8953 89.6599C94.4187 89.746 99.0609 89.2553 104.013 88.1984C108.964 87.1416 113.402 85.6942 116.583 84.177C118.16 83.4248 119.523 82.6113 120.488 81.757C121.327 81.0136 122.441 79.7222 122.092 78.0872C121.743 76.4522 120.199 75.7281 119.129 75.3922C117.9 75.0062 116.324 74.8199 114.577 74.7772C111.053 74.6911 106.411 75.1819 101.46 76.2387Z" fill="white" stroke="#171717" stroke-width="3.63212"/>
<path d="M87.2139 104.311C87.9223 107.63 89.0705 110.608 90.4146 112.744C91.0825 113.805 91.8529 114.745 92.7186 115.398C93.5792 116.047 94.7332 116.551 96.02 116.276C97.3068 116.001 98.1547 115.071 98.6752 114.127C99.1988 113.177 99.5183 112.004 99.6947 110.763C100.049 108.265 99.882 105.077 99.1736 101.759C98.4652 98.4397 97.317 95.4617 95.9729 93.3261C95.305 92.2649 94.5346 91.3249 93.6689 90.6718C92.8083 90.0226 91.6543 89.5192 90.3675 89.7939C89.0807 90.0685 88.2328 90.9992 87.7123 91.9432C87.1887 92.8928 86.8692 94.0655 86.6928 95.3069C86.3378 97.8052 86.5055 100.993 87.2139 104.311Z" fill="white" stroke="#171717" stroke-width="3.63212"/>
<path d="M100.754 102.221C101.42 105.341 102.534 108.141 103.862 110.148C104.523 111.147 105.291 112.031 106.159 112.64C107.029 113.252 108.159 113.686 109.397 113.422C110.635 113.157 111.489 112.3 112.034 111.386C112.578 110.476 112.918 109.355 113.113 108.174C113.506 105.799 113.38 102.788 112.714 99.6684C112.048 96.5487 110.934 93.7486 109.606 91.7415C108.945 90.7429 108.177 89.8586 107.309 89.2493C106.438 88.6381 105.309 88.2038 104.071 88.4681C102.832 88.7324 101.979 89.5899 101.434 90.5034C100.89 91.414 100.55 92.5348 100.355 93.7162C99.9616 96.0907 100.088 99.1014 100.754 102.221Z" fill="white" stroke="#171717" stroke-width="3.63212"/>
<path d="M113.966 98.6018C114.674 101.92 115.822 104.899 117.166 107.034C117.834 108.095 118.605 109.035 119.47 109.688C120.331 110.338 121.485 110.841 122.772 110.566C124.058 110.292 124.906 109.361 125.427 108.417C125.951 107.467 126.27 106.295 126.446 105.053C126.801 102.555 126.634 99.3678 125.925 96.0491C125.217 92.7303 124.069 89.7523 122.725 87.6167C122.057 86.5555 121.286 85.6155 120.421 84.9624C119.56 84.3132 118.406 83.8098 117.119 84.0845C115.832 84.3591 114.985 85.2898 114.464 86.2338C113.94 87.1834 113.621 88.356 113.444 89.5975C113.089 92.0958 113.257 95.2831 113.966 98.6018Z" fill="white" stroke="#171717" stroke-width="3.63212"/>
</g>
<g filter="url(#filter6_di_26_330)">
<path d="M424.74 58.2387C427.521 47.8621 421.363 37.1962 410.986 34.4157C400.609 31.6353 389.943 37.7933 387.163 48.17C384.382 58.5466 390.54 69.2125 400.917 71.993C411.294 74.7734 421.96 68.6154 424.74 58.2387Z" fill="#FFD900"/>
<path d="M426.248 58.643C429.252 47.4332 422.6 35.911 411.39 32.9073C400.18 29.9037 388.658 36.556 385.654 47.7658C382.651 58.9756 389.303 70.4978 400.513 73.5014C411.722 76.5051 423.245 69.8527 426.248 58.643Z" stroke="#171717" stroke-width="3.12335"/>
<mask id="mask3_26_330" style="mask-type:luminance" maskUnits="userSpaceOnUse" x="386" y="33" width="40" height="40">
<path d="M425.237 42.0699L394.817 33.9189L386.666 64.3386L417.086 72.4895L425.237 42.0699Z" fill="white"/>
</mask>
<g mask="url(#mask3_26_330)">
<path d="M393.571 51.2455L401.176 53.2833M410.048 55.6606L417.653 57.6983M407.65 46.867L402.895 64.6118M407.65 46.867C409.4 47.3359 411.199 46.2974 411.668 44.5474M407.65 46.867C405.9 46.3981 404.861 44.5993 405.33 42.8493M411.668 44.5474C412.137 42.7973 411.098 40.9985 409.348 40.5296C407.598 40.0607 405.799 41.0992 405.33 42.8493M411.668 44.5474L418.639 46.4153M405.33 42.8493L398.359 40.9814M392.755 61.8948L413.035 67.3288M401.204 55.1063C400.175 56.9148 398.066 57.8839 396.015 57.3343C393.964 56.7848 392.622 54.8908 392.635 52.8101C392.636 52.6401 392.637 52.5551 392.72 52.2371C392.771 52.0422 392.963 51.6129 393.075 51.4453C393.257 51.1718 393.413 51.0315 393.724 50.751L399.072 45.927L401.291 52.7787C401.42 53.1772 401.485 53.3764 401.506 53.7044C401.519 53.9054 401.471 54.3735 401.417 54.5677C401.33 54.8846 401.288 54.9585 401.204 55.1063ZM417.682 59.5214C416.653 61.3299 414.543 62.299 412.492 61.7494C410.441 61.1999 409.099 59.3059 409.112 57.2252C409.113 57.0552 409.114 56.9702 409.197 56.6522C409.248 56.4573 409.44 56.028 409.552 55.8604C409.734 55.5869 409.89 55.4466 410.201 55.1661L415.549 50.3421L417.768 57.1938C417.898 57.5923 417.962 57.7915 417.983 58.1194C417.996 58.3205 417.948 58.7885 417.895 58.9828C417.808 59.2997 417.766 59.3736 417.682 59.5214Z" stroke="#171717" stroke-opacity="0.901961" stroke-width="1.85251" stroke-linecap="round" stroke-linejoin="round"/>
</g>
</g>
</g>
<g filter="url(#filter7_di_26_330)">
<path d="M312.491 111.954L318.342 113.181L322.025 95.628L316.174 94.4004L312.491 111.954ZM348.048 102.615C348.387 100.999 347.352 99.4148 345.736 99.0757L336.499 97.1376L339.298 90.7459C339.358 90.6057 339.412 90.4567 339.446 90.2958C339.573 89.6888 339.44 89.0881 339.128 88.6103L337.894 86.7402L326.24 94.3516C325.602 94.775 325.119 95.4373 324.95 96.2418L321.881 110.87C321.542 112.486 322.577 114.07 324.193 114.409L337.358 117.171C338.572 117.426 339.766 116.905 340.424 115.951L346.998 106.564C347.2 106.255 347.356 105.914 347.434 105.541L348.022 102.739L348.01 102.722L348.048 102.615Z" fill="#FFD900"/>
<path d="M311.258 111.695L311 112.928L312.232 113.186L318.083 114.414L319.316 114.673L319.575 113.44L323.258 95.8867L323.516 94.6539L322.284 94.3952L316.433 93.1676L315.2 92.9089L314.941 94.1418L311.258 111.695ZM349.346 102.464C349.584 100.314 348.155 98.2961 345.995 97.8429L338.274 96.2231L340.452 91.2512L340.456 91.2413C340.534 91.0587 340.622 90.826 340.679 90.5545C340.878 89.6042 340.668 88.6647 340.182 87.9214L340.179 87.9165L338.945 86.0464L338.254 85L337.205 85.6856L325.552 93.2969L325.544 93.3017C324.646 93.897 323.958 94.8355 323.718 95.9832L320.649 110.611C320.167 112.908 321.637 115.16 323.934 115.642L337.099 118.404C338.824 118.766 340.52 118.026 341.458 116.67L341.461 116.667L348.03 107.286L348.041 107.27L348.052 107.254C348.324 106.837 348.551 106.351 348.667 105.799L349.254 102.998L349.263 102.956L349.281 102.874L349.362 102.487L349.346 102.464Z" fill="#FFD900" stroke="#171717" stroke-width="2.51932"/>
</g>
<defs>
<filter id="filter0_f_26_330" x="50.9399" y="6.20068" width="353.219" height="139.468" filterUnits="userSpaceOnUse" color-interpolation-filters="sRGB">
<feFlood flood-opacity="0" result="BackgroundImageFix"/>
<feBlend mode="normal" in="SourceGraphic" in2="BackgroundImageFix" result="shape"/>
<feGaussianBlur stdDeviation="25.7063" result="effect1_foregroundBlur_26_330"/>
</filter>
<filter id="filter1_di_26_330" x="18.6855" y="9.83252" width="66.3135" height="66.3135" filterUnits="userSpaceOnUse" color-interpolation-filters="sRGB">
<feFlood flood-opacity="0" result="BackgroundImageFix"/>
<feColorMatrix in="SourceAlpha" type="matrix" values="0 0 0 0 0 0 0 0 0 0 0 0 0 0 0 0 0 0 127 0" result="hardAlpha"/>
<feOffset dy="4"/>
<feGaussianBlur stdDeviation="6"/>
<feComposite in2="hardAlpha" operator="out"/>
<feColorMatrix type="matrix" values="0 0 0 0 0 0 0 0 0 0 0 0 0 0 0 0 0 0 0.02 0"/>
<feBlend mode="normal" in2="BackgroundImageFix" result="effect1_dropShadow_26_330"/>
<feBlend mode="normal" in="SourceGraphic" in2="effect1_dropShadow_26_330" result="shape"/>
<feColorMatrix in="SourceAlpha" type="matrix" values="0 0 0 0 0 0 0 0 0 0 0 0 0 0 0 0 0 0 127 0" result="hardAlpha"/>
<feOffset dy="2"/>
<feGaussianBlur stdDeviation="1"/>
<feComposite in2="hardAlpha" operator="arithmetic" k2="-1" k3="1"/>
<feColorMatrix type="matrix" values="0 0 0 0 0 0 0 0 0 0 0 0 0 0 0 0 0 0 0.03 0"/>
<feBlend mode="normal" in2="shape" result="effect2_innerShadow_26_330"/>
</filter>
<filter id="filter2_di_26_330" x="18.6855" y="9.83252" width="66.3135" height="66.3135" filterUnits="userSpaceOnUse" color-interpolation-filters="sRGB">
<feFlood flood-opacity="0" result="BackgroundImageFix"/>
<feColorMatrix in="SourceAlpha" type="matrix" values="0 0 0 0 0 0 0 0 0 0 0 0 0 0 0 0 0 0 127 0" result="hardAlpha"/>
<feOffset dy="4"/>
<feGaussianBlur stdDeviation="6"/>
<feComposite in2="hardAlpha" operator="out"/>
<feColorMatrix type="matrix" values="0 0 0 0 0 0 0 0 0 0 0 0 0 0 0 0 0 0 0.02 0"/>
<feBlend mode="normal" in2="BackgroundImageFix" result="effect1_dropShadow_26_330"/>
<feBlend mode="normal" in="SourceGraphic" in2="effect1_dropShadow_26_330" result="shape"/>
<feColorMatrix in="SourceAlpha" type="matrix" values="0 0 0 0 0 0 0 0 0 0 0 0 0 0 0 0 0 0 127 0" result="hardAlpha"/>
<feOffset dy="2"/>
<feGaussianBlur stdDeviation="1"/>
<feComposite in2="hardAlpha" operator="arithmetic" k2="-1" k3="1"/>
<feColorMatrix type="matrix" values="0 0 0 0 0 0 0 0 0 0 0 0 0 0 0 0 0 0 0.03 0"/>
<feBlend mode="normal" in2="shape" result="effect2_innerShadow_26_330"/>
</filter>
<filter id="filter3_di_26_330" x="271.616" y="4.27295" width="62.958" height="62.9585" filterUnits="userSpaceOnUse" color-interpolation-filters="sRGB">
<feFlood flood-opacity="0" result="BackgroundImageFix"/>
<feColorMatrix in="SourceAlpha" type="matrix" values="0 0 0 0 0 0 0 0 0 0 0 0 0 0 0 0 0 0 127 0" result="hardAlpha"/>
<feOffset dy="4"/>
<feGaussianBlur stdDeviation="6"/>
<feComposite in2="hardAlpha" operator="out"/>
<feColorMatrix type="matrix" values="0 0 0 0 0 0 0 0 0 0 0 0 0 0 0 0 0 0 0.02 0"/>
<feBlend mode="normal" in2="BackgroundImageFix" result="effect1_dropShadow_26_330"/>
<feBlend mode="normal" in="SourceGraphic" in2="effect1_dropShadow_26_330" result="shape"/>
<feColorMatrix in="SourceAlpha" type="matrix" values="0 0 0 0 0 0 0 0 0 0 0 0 0 0 0 0 0 0 127 0" result="hardAlpha"/>
<feOffset dy="2"/>
<feGaussianBlur stdDeviation="1"/>
<feComposite in2="hardAlpha" operator="arithmetic" k2="-1" k3="1"/>
<feColorMatrix type="matrix" values="0 0 0 0 0 0 0 0 0 0 0 0 0 0 0 0 0 0 0.03 0"/>
<feBlend mode="normal" in2="shape" result="effect2_innerShadow_26_330"/>
</filter>
<filter id="filter4_di_26_330" x="271.616" y="4.27295" width="62.958" height="62.9585" filterUnits="userSpaceOnUse" color-interpolation-filters="sRGB">
<feFlood flood-opacity="0" result="BackgroundImageFix"/>
<feColorMatrix in="SourceAlpha" type="matrix" values="0 0 0 0 0 0 0 0 0 0 0 0 0 0 0 0 0 0 127 0" result="hardAlpha"/>
<feOffset dy="4"/>
<feGaussianBlur stdDeviation="6"/>
<feComposite in2="hardAlpha" operator="out"/>
<feColorMatrix type="matrix" values="0 0 0 0 0 0 0 0 0 0 0 0 0 0 0 0 0 0 0.02 0"/>
<feBlend mode="normal" in2="BackgroundImageFix" result="effect1_dropShadow_26_330"/>
<feBlend mode="normal" in="SourceGraphic" in2="effect1_dropShadow_26_330" result="shape"/>
<feColorMatrix in="SourceAlpha" type="matrix" values="0 0 0 0 0 0 0 0 0 0 0 0 0 0 0 0 0 0 127 0" result="hardAlpha"/>
<feOffset dy="2"/>
<feGaussianBlur stdDeviation="1"/>
<feComposite in2="hardAlpha" operator="arithmetic" k2="-1" k3="1"/>
<feColorMatrix type="matrix" values="0 0 0 0 0 0 0 0 0 0 0 0 0 0 0 0 0 0 0.03 0"/>
<feBlend mode="normal" in2="shape" result="effect2_innerShadow_26_330"/>
</filter>
<filter id="filter5_di_26_330" x="70.5997" y="65.6874" width="68.739" height="67.0105" filterUnits="userSpaceOnUse" color-interpolation-filters="sRGB">
<feFlood flood-opacity="0" result="BackgroundImageFix"/>
<feColorMatrix in="SourceAlpha" type="matrix" values="0 0 0 0 0 0 0 0 0 0 0 0 0 0 0 0 0 0 127 0" result="hardAlpha"/>
<feOffset dy="3.63212"/>
<feGaussianBlur stdDeviation="5.44818"/>
<feComposite in2="hardAlpha" operator="out"/>
<feColorMatrix type="matrix" values="0 0 0 0 0 0 0 0 0 0 0 0 0 0 0 0 0 0 0.02 0"/>
<feBlend mode="normal" in2="BackgroundImageFix" result="effect1_dropShadow_26_330"/>
<feBlend mode="normal" in="SourceGraphic" in2="effect1_dropShadow_26_330" result="shape"/>
<feColorMatrix in="SourceAlpha" type="matrix" values="0 0 0 0 0 0 0 0 0 0 0 0 0 0 0 0 0 0 127 0" result="hardAlpha"/>
<feOffset dy="1.81606"/>
<feGaussianBlur stdDeviation="0.90803"/>
<feComposite in2="hardAlpha" operator="arithmetic" k2="-1" k3="1"/>
<feColorMatrix type="matrix" values="0 0 0 0 0 0 0 0 0 0 0 0 0 0 0 0 0 0 0.03 0"/>
<feBlend mode="normal" in2="shape" result="effect2_innerShadow_26_330"/>
</filter>
<filter id="filter6_di_26_330" x="364.631" y="18.1306" width="82.6404" height="82.6409" filterUnits="userSpaceOnUse" color-interpolation-filters="sRGB">
<feFlood flood-opacity="0" result="BackgroundImageFix"/>
<feColorMatrix in="SourceAlpha" type="matrix" values="0 0 0 0 0 0 0 0 0 0 0 0 0 0 0 0 0 0 127 0" result="hardAlpha"/>
<feOffset dy="6.24671"/>
<feGaussianBlur stdDeviation="9.37006"/>
<feComposite in2="hardAlpha" operator="out"/>
<feColorMatrix type="matrix" values="0 0 0 0 0 0 0 0 0 0 0 0 0 0 0 0 0 0 0.04 0"/>
<feBlend mode="normal" in2="BackgroundImageFix" result="effect1_dropShadow_26_330"/>
<feBlend mode="normal" in="SourceGraphic" in2="effect1_dropShadow_26_330" result="shape"/>
<feColorMatrix in="SourceAlpha" type="matrix" values="0 0 0 0 0 0 0 0 0 0 0 0 0 0 0 0 0 0 127 0" result="hardAlpha"/>
<feOffset dy="6.24671"/>
<feGaussianBlur stdDeviation="6.24671"/>
<feComposite in2="hardAlpha" operator="arithmetic" k2="-1" k3="1"/>
<feColorMatrix type="matrix" values="0 0 0 0 0 0 0 0 0 0 0 0 0 0 0 0 0 0 0.06 0"/>
<feBlend mode="normal" in2="shape" result="effect2_innerShadow_26_330"/>
</filter>
<filter id="filter7_di_26_330" x="301.951" y="78.2211" width="56.3112" height="51.611" filterUnits="userSpaceOnUse" color-interpolation-filters="sRGB">
<feFlood flood-opacity="0" result="BackgroundImageFix"/>
<feColorMatrix in="SourceAlpha" type="matrix" values="0 0 0 0 0 0 0 0 0 0 0 0 0 0 0 0 0 0 127 0" result="hardAlpha"/>
<feOffset dy="2.51932"/>
<feGaussianBlur stdDeviation="3.77898"/>
<feComposite in2="hardAlpha" operator="out"/>
<feColorMatrix type="matrix" values="0 0 0 0 0 0 0 0 0 0 0 0 0 0 0 0 0 0 0.02 0"/>
<feBlend mode="normal" in2="BackgroundImageFix" result="effect1_dropShadow_26_330"/>
<feBlend mode="normal" in="SourceGraphic" in2="effect1_dropShadow_26_330" result="shape"/>
<feColorMatrix in="SourceAlpha" type="matrix" values="0 0 0 0 0 0 0 0 0 0 0 0 0 0 0 0 0 0 127 0" result="hardAlpha"/>
<feOffset dy="1.25966"/>
<feGaussianBlur stdDeviation="0.62983"/>
<feComposite in2="hardAlpha" operator="arithmetic" k2="-1" k3="1"/>
<feColorMatrix type="matrix" values="0 0 0 0 0 0 0 0 0 0 0 0 0 0 0 0 0 0 0.03 0"/>
<feBlend mode="normal" in2="shape" result="effect2_innerShadow_26_330"/>
</filter>
<clipPath id="clip0_26_330">
<rect width="55" height="55" fill="white" transform="translate(179 30)"/>
</clipPath>
</defs>
</svg>
