<svg xmlns="http://www.w3.org/2000/svg" width="798" height="222" viewBox="0 0 798 222" fill="none">
<g clip-path="url(#clip0_18_9)">
<path d="M110.793 221.586C171.982 221.586 221.586 171.982 221.586 110.793C221.586 49.6037 171.982 0 110.793 0C49.6037 0 0 49.6037 0 110.793C0 171.982 49.6037 221.586 110.793 221.586Z" fill="black"/>
<path d="M306.537 171.41C300.674 171.067 295.017 169.991 289.568 168.181C284.117 166.371 279.289 163.894 275.08 160.749C270.87 157.607 267.639 153.849 265.384 149.475L288.61 140.454C289.512 141.822 290.978 143.273 293.007 144.81C295.036 146.348 297.461 147.629 300.279 148.654C303.098 149.679 306.198 150.192 309.581 150.192C312.437 150.192 315.162 149.833 317.755 149.115C320.348 148.398 322.452 147.288 324.069 145.784C325.685 144.282 326.493 142.335 326.493 139.942C326.493 137.415 325.535 135.449 323.618 134.047C321.701 132.648 319.295 131.587 316.402 130.87C313.507 130.152 310.708 129.486 308.002 128.871C300.86 127.573 294.227 125.558 288.102 122.823C281.975 120.091 277.053 116.554 273.332 112.215C269.611 107.876 267.751 102.631 267.751 96.4811C267.751 89.7151 269.724 83.8731 273.67 78.9531C277.616 74.0331 282.764 70.2411 289.117 67.5761C295.468 64.9111 302.326 63.5781 309.694 63.5781C318.638 63.5781 326.85 65.2691 334.33 68.6521C341.809 72.0351 347.728 76.8001 352.088 82.9511L330.327 94.6361C329.273 92.9961 327.807 91.4771 325.93 90.0751C324.051 88.6751 321.908 87.5131 319.503 86.5901C317.097 85.6671 314.579 85.1391 311.949 85.0011C308.567 84.8651 305.484 85.1391 302.703 85.8211C299.921 86.5051 297.686 87.6661 295.995 89.3051C294.304 90.9461 293.458 93.1331 293.458 95.8661C293.458 98.4641 294.585 100.393 296.84 101.657C299.095 102.923 301.819 103.896 305.014 104.578C308.208 105.263 311.272 106.014 314.203 106.833C320.817 108.816 327.037 111.241 332.863 114.112C338.687 116.982 343.366 120.502 346.901 124.67C350.433 128.838 352.125 133.827 351.975 139.635C351.975 146.264 349.794 152.055 345.435 157.008C341.075 161.964 335.456 165.738 328.579 168.334C321.701 170.931 314.353 171.956 306.536 171.409L306.537 171.41Z" fill="black"/>
<path d="M454.444 104.785V169.566H429.432V111.346C429.432 107.315 428.442 103.642 426.459 100.327C424.476 97.0119 421.83 94.3819 418.516 92.4339C415.202 90.4859 411.53 89.5119 407.498 89.5119C403.466 89.5119 399.793 90.4859 396.479 92.4339C393.164 94.3809 390.534 97.0119 388.587 100.327C386.639 103.641 385.666 107.314 385.666 111.346V169.566H360.656L360.553 15.8159H385.563L385.666 76.1879C389.151 72.4989 393.318 69.5779 398.171 67.4239C403.022 65.2719 408.249 64.1949 413.852 64.1949C421.299 64.1949 428.1 66.0239 434.25 69.6779C440.4 73.3349 445.303 78.2209 448.959 84.3359C452.613 90.4519 454.443 97.2689 454.443 104.784L454.444 104.785Z" fill="black"/>
<path d="M546.079 67.0648H571.089V169.565H546.079L544.951 156.855C542.148 161.434 538.443 165.141 533.83 167.976C529.218 170.811 523.768 172.23 517.481 172.23C509.896 172.23 502.789 170.795 496.162 167.925C489.533 165.055 483.708 161.092 478.685 156.034C473.663 150.978 469.732 145.136 466.897 138.507C464.061 131.88 462.644 124.772 462.644 117.187C462.644 109.876 463.992 103.009 466.693 96.5838C469.391 90.1618 473.166 84.5238 478.019 79.6718C482.87 74.8208 488.474 71.0278 494.829 68.2948C501.184 65.5628 508.017 64.1938 515.329 64.1938C522.094 64.1938 528.157 65.6978 533.522 68.7038C538.886 71.7118 543.448 75.5378 547.207 80.1838L546.079 67.0648ZM516.866 148.143C522.196 148.143 526.912 146.811 531.012 144.146C535.112 141.481 538.324 137.877 540.647 133.333C542.969 128.789 544.132 123.784 544.132 118.316C544.132 112.781 542.969 107.742 540.647 103.196C538.324 98.6528 535.094 95.0479 530.96 92.3829C526.825 89.7179 522.128 88.3858 516.866 88.3858C511.604 88.3858 506.804 89.7358 502.466 92.4348C498.125 95.1348 494.676 98.7388 492.113 103.248C489.55 107.757 488.269 112.781 488.269 118.316C488.269 123.851 489.566 128.874 492.164 133.383C494.761 137.893 498.227 141.481 502.568 144.146C506.906 146.811 511.672 148.143 516.866 148.143Z" fill="black"/>
<path d="M606.348 220.816H581.338V67.0649H606.348V80.0829C609.696 75.4369 613.813 71.6619 618.7 68.7569C623.585 65.8539 629.308 64.4009 635.869 64.4009C643.385 64.4009 650.389 65.8019 656.882 68.6029C663.373 71.4059 669.095 75.2839 674.051 80.2369C679.004 85.1929 682.865 90.9149 685.633 97.4059C688.401 103.899 689.784 110.869 689.784 118.317C689.784 125.765 688.4 132.769 685.633 139.33C682.865 145.89 679.004 151.647 674.051 156.601C669.095 161.556 663.373 165.433 656.882 168.235C650.389 171.036 643.385 172.437 635.869 172.437C629.308 172.437 623.585 170.984 618.7 168.081C613.813 165.178 609.696 161.402 606.348 156.755V220.817V220.816ZM635.561 88.4879C630.368 88.4879 625.721 89.8379 621.621 92.5369C617.521 95.2369 614.309 98.8409 611.986 103.35C609.663 107.86 608.502 112.85 608.502 118.315C608.502 123.78 609.663 128.788 611.986 133.332C614.308 137.877 617.521 141.498 621.621 144.196C625.722 146.896 630.368 148.245 635.561 148.245C640.822 148.245 645.64 146.913 650.013 144.248C654.386 141.583 657.87 137.979 660.468 133.435C663.065 128.891 664.364 123.851 664.364 118.316C664.364 112.85 663.065 107.86 660.468 103.351C657.87 98.8409 654.404 95.2379 650.065 92.5379C645.724 89.8389 640.891 88.4879 635.561 88.4879Z" fill="black"/>
<path d="M746.568 172.231C737.137 172.231 728.544 169.804 720.789 164.954C713.033 160.102 706.85 153.576 702.236 145.376C697.624 137.177 695.318 128.123 695.318 118.214C695.318 110.766 696.65 103.779 699.315 97.2528C701.98 90.7278 705.653 84.9878 710.334 80.0318C715.014 75.0788 720.464 71.2008 726.683 68.3978C732.901 65.5968 739.53 64.1958 746.569 64.1958C754.563 64.1958 761.892 65.8868 768.555 69.2698C775.217 72.6518 780.87 77.2828 785.518 83.1588C790.164 89.0368 793.547 95.7318 795.665 103.249C797.783 110.767 798.262 118.624 797.101 126.825H722.173C723.129 130.652 724.7 134.086 726.888 137.126C729.075 140.168 731.842 142.594 735.191 144.403C738.539 146.215 742.331 147.155 746.569 147.222C750.941 147.29 754.923 146.248 758.509 144.095C762.097 141.943 765.085 139.022 767.478 135.331L793 141.276C788.832 150.365 782.612 157.797 774.346 163.57C766.076 169.345 756.818 172.231 746.568 172.231ZM721.352 108.065H771.783C771.03 103.965 769.441 100.259 767.016 96.9438C764.59 93.6308 761.6 90.9828 758.047 88.9998C754.493 87.0198 750.667 86.0278 746.568 86.0278C742.469 86.0278 738.675 87.0018 735.19 88.9488C731.705 90.8958 728.749 93.5278 726.324 96.8418C723.897 100.157 722.24 103.898 721.352 108.065Z" fill="black"/>
</g>
<defs>
<clipPath id="clip0_18_9">
<rect width="797.717" height="221.585" fill="white"/>
</clipPath>
</defs>
</svg>