<svg xmlns="http://www.w3.org/2000/svg" width="200" height="56" viewBox="0 0 200 56" fill="none">
<g clip-path="url(#clip0_18_9)">
<path d="M27.7775 56.0003C43.1186 56.0003 55.555 43.4642 55.555 28.0001C55.555 12.5361 43.1186 0 27.7775 0C12.4364 0 0 12.5361 0 28.0001C0 43.4642 12.4364 56.0003 27.7775 56.0003Z" fill="black"/>
<path d="M76.8538 43.3197C75.3839 43.233 73.9656 42.9611 72.5994 42.5036C71.2328 42.0462 70.0223 41.4202 68.9671 40.6254C67.9116 39.8313 67.1015 38.8816 66.5361 37.7762L72.3592 35.4963C72.5854 35.8421 72.9529 36.2088 73.4616 36.5972C73.9703 36.9859 74.5783 37.3096 75.2848 37.5687C75.9916 37.8277 76.7688 37.9574 77.617 37.9574C78.333 37.9574 79.0162 37.8666 79.6664 37.6852C80.3165 37.504 80.844 37.2235 81.2494 36.8434C81.6545 36.4638 81.8571 35.9717 81.8571 35.3669C81.8571 34.7283 81.6169 34.2314 81.1363 33.8771C80.6557 33.5236 80.0525 33.2554 79.3271 33.0742C78.6013 32.8928 77.8996 32.7244 77.2211 32.569C75.4305 32.241 73.7675 31.7317 72.2319 31.0405C70.6957 30.3501 69.4617 29.4562 68.5288 28.3596C67.5959 27.2631 67.1296 25.9375 67.1296 24.3833C67.1296 22.6733 67.6242 21.1969 68.6136 19.9535C69.6029 18.7101 70.8936 17.7518 72.4864 17.0783C74.0787 16.4048 75.7981 16.0679 77.6453 16.0679C79.8877 16.0679 81.9466 16.4952 83.822 17.3502C85.6971 18.2052 87.181 19.4094 88.2742 20.9639L82.8183 23.917C82.5541 23.5025 82.1865 23.1186 81.7159 22.7643C81.2449 22.4105 80.7076 22.1168 80.1046 21.8836C79.5014 21.6503 78.8701 21.5169 78.2107 21.482C77.3628 21.4476 76.5898 21.5169 75.8926 21.6892C75.1951 21.8621 74.6347 22.1555 74.2108 22.5697C73.7868 22.9844 73.5747 23.5371 73.5747 24.2278C73.5747 24.8844 73.8573 25.3719 74.4226 25.6914C74.988 26.0113 75.671 26.2572 76.472 26.4296C77.2728 26.6027 78.041 26.7925 78.7758 26.9995C80.434 27.5006 81.9935 28.1135 83.4542 28.8391C84.9143 29.5644 86.0874 30.454 86.9737 31.5073C87.8592 32.5607 88.2834 33.8215 88.2458 35.2893C88.2458 36.9647 87.699 38.4282 86.6062 39.6799C85.513 40.9324 84.1043 41.8862 82.3801 42.5423C80.6557 43.1986 78.8134 43.4577 76.8536 43.3194L76.8538 43.3197Z" fill="black"/>
<path d="M113.936 26.4817V42.8535H107.666V28.1399C107.666 27.1211 107.417 26.1929 106.92 25.3551C106.423 24.5173 105.76 23.8526 104.929 23.3603C104.098 22.868 103.177 22.6219 102.166 22.6219C101.155 22.6219 100.235 22.868 99.4037 23.3603C98.5726 23.8524 97.9132 24.5173 97.425 25.3551C96.9366 26.1926 96.6927 27.1209 96.6927 28.1399V42.8535H90.4223L90.3965 3.99707H96.6669L96.6927 19.2546C97.5664 18.3223 98.6112 17.5841 99.8279 17.0397C101.044 16.4958 102.355 16.2236 103.759 16.2236C105.626 16.2236 107.332 16.6859 108.873 17.6093C110.415 18.5335 111.645 19.7684 112.561 21.3138C113.477 22.8594 113.936 24.5823 113.936 26.4815L113.936 26.4817Z" fill="black"/>
<path d="M136.911 16.9492H143.181V42.8535H136.911L136.628 39.6414C135.925 40.7986 134.996 41.7354 133.84 42.4519C132.683 43.1684 131.317 43.527 129.741 43.527C127.839 43.527 126.057 43.1643 124.396 42.439C122.734 41.7137 121.273 40.7121 120.014 39.4339C118.755 38.1561 117.769 36.6797 117.058 35.0044C116.347 33.3296 115.992 31.5332 115.992 29.6163C115.992 27.7686 116.33 26.0331 117.007 24.4094C117.684 22.7864 118.63 21.3615 119.847 20.1353C121.063 18.9093 122.468 17.9508 124.061 17.2601C125.655 16.5696 127.368 16.2236 129.201 16.2236C130.897 16.2236 132.417 16.6037 133.762 17.3634C135.107 18.1236 136.251 19.0905 137.193 20.2647L136.911 16.9492ZM129.586 37.4396C130.923 37.4396 132.105 37.103 133.133 36.4295C134.161 35.756 134.966 34.8451 135.549 33.6968C136.131 32.5484 136.422 31.2835 136.422 29.9016C136.422 28.5028 136.131 27.2293 135.549 26.0804C134.966 24.9323 134.157 24.0212 133.12 23.3477C132.083 22.6742 130.906 22.3375 129.586 22.3375C128.267 22.3375 127.064 22.6787 125.976 23.3608C124.888 24.0432 124.023 24.954 123.381 26.0935C122.738 27.2331 122.417 28.5028 122.417 29.9016C122.417 31.3004 122.742 32.5699 123.393 33.7094C124.044 34.8492 124.913 35.756 126.002 36.4295C127.089 37.103 128.284 37.4396 129.586 37.4396Z" fill="black"/>
<path d="M152.02 55.8058H145.75V16.9491H152.02V20.2391C152.86 19.0649 153.892 18.1109 155.117 17.3767C156.342 16.6431 157.777 16.2759 159.422 16.2759C161.306 16.2759 163.062 16.6299 164.69 17.3378C166.317 18.0462 167.752 19.0263 168.995 20.278C170.236 21.5305 171.204 22.9766 171.898 24.6171C172.592 26.258 172.939 28.0195 172.939 29.9018C172.939 31.7841 172.592 33.5542 171.898 35.2123C171.204 36.8702 170.236 38.3251 168.995 39.5771C167.752 40.8293 166.317 41.8092 164.69 42.5173C163.062 43.2252 161.306 43.5792 159.422 43.5792C157.777 43.5792 156.342 43.212 155.117 42.4784C153.892 41.7447 152.86 40.7904 152.02 39.616V55.8061V55.8058ZM159.345 22.3633C158.043 22.3633 156.877 22.7044 155.85 23.3865C154.822 24.0689 154.016 24.9797 153.434 26.1193C152.852 27.259 152.56 28.5201 152.56 29.9013C152.56 31.2824 152.852 32.5481 153.434 33.6964C154.016 34.8451 154.822 35.7602 155.85 36.442C156.878 37.1244 158.043 37.4653 159.345 37.4653C160.664 37.4653 161.872 37.1287 162.968 36.4552C164.064 35.7817 164.938 34.8709 165.589 33.7225C166.24 32.5741 166.566 31.3004 166.566 29.9015C166.566 28.5201 166.24 27.259 165.589 26.1195C164.938 24.9797 164.069 24.0692 162.981 23.3868C161.893 22.7047 160.681 22.3633 159.345 22.3633Z" fill="black"/>
<path d="M187.176 43.5272C184.812 43.5272 182.657 42.9139 180.713 41.6882C178.769 40.4619 177.218 38.8127 176.062 36.7403C174.905 34.6682 174.327 32.3801 174.327 29.8758C174.327 27.9935 174.661 26.2277 175.329 24.5784C175.997 22.9294 176.918 21.4788 178.092 20.2263C179.265 18.9745 180.632 17.9945 182.191 17.2861C183.75 16.5782 185.412 16.2241 187.177 16.2241C189.181 16.2241 191.018 16.6515 192.689 17.5064C194.359 18.3612 195.776 19.5315 196.942 21.0165C198.107 22.5021 198.955 24.194 199.486 26.0938C200.017 27.9938 200.137 29.9794 199.846 32.052H181.06C181.3 33.0192 181.694 33.8871 182.242 34.6553C182.791 35.4241 183.484 36.0372 184.324 36.4944C185.163 36.9523 186.114 37.1899 187.177 37.2068C188.273 37.224 189.271 36.9607 190.17 36.4166C191.07 35.8727 191.819 35.1345 192.419 34.2017L198.818 35.7041C197.773 38.0012 196.213 39.8794 194.141 41.3384C192.067 42.7979 189.746 43.5272 187.176 43.5272ZM180.854 27.3109H193.498C193.309 26.2747 192.911 25.3381 192.303 24.5003C191.695 23.6631 190.945 22.9939 190.054 22.4927C189.163 21.9923 188.204 21.7416 187.176 21.7416C186.149 21.7416 185.197 21.9878 184.324 22.4798C183.45 22.9719 182.709 23.637 182.101 24.4746C181.492 25.3124 181.077 26.2578 180.854 27.3109Z" fill="black"/>
</g>
<defs>
<clipPath id="clip0_18_9">
<rect width="200" height="56" fill="white"/>
</clipPath>
</defs>
</svg>