<svg id="svg" version="1.1" xmlns="http://www.w3.org/2000/svg" xmlns:xlink="http://www.w3.org/1999/xlink" width="400" height="400" viewBox="0, 0, 400,400"><defs><clipPath id="circleClip"><circle cx="200" cy="200" r="200"/></clipPath></defs><g id="svgg" clip-path="url(#circleClip)"><path id="path0" d="M194.141 35.035 C 171.388 37.437,153.775 45.762,126.101 67.194 L 123.881 68.913 126.452 72.640 C 134.479 84.276,147.547 95.622,162.389 103.842 L 166.770 106.268 170.670 103.232 C 175.346 99.591,175.259 100.000,171.732 98.280 C 162.943 93.995,149.890 84.693,143.164 77.919 C 139.118 73.845,136.517 70.682,136.964 70.381 C 137.178 70.236,139.365 68.611,141.822 66.769 C 166.744 48.093,191.518 40.600,213.393 45.122 C 228.032 48.149,247.749 58.053,261.411 69.243 L 263.251 70.751 262.073 72.387 C 258.387 77.505,250.067 84.612,240.043 91.206 C 235.271 94.345,226.662 99.219,225.888 99.219 C 224.833 99.219,225.529 99.958,229.454 103.004 L 233.517 106.157 238.555 103.314 C 253.704 94.763,266.083 83.906,273.634 72.547 C 274.946 70.573,275.762 68.984,275.555 68.804 C 249.153 45.822,217.262 32.594,194.141 35.035 M134.961 41.604 C 133.457 41.889,130.117 42.992,127.539 44.056 C 102.081 54.563,76.703 72.285,56.724 93.509 C 50.084 100.562,43.062 109.248,43.599 109.745 C 43.789 109.921,45.450 111.204,47.289 112.596 L 50.634 115.127 54.257 110.322 C 64.895 96.214,82.634 80.230,101.953 67.344 C 114.903 58.707,135.698 47.738,148.617 42.730 C 150.541 41.984,152.196 41.293,152.295 41.195 C 152.723 40.766,137.484 41.126,134.961 41.604 M248.242 41.412 C 248.672 41.601,251.221 42.668,253.906 43.782 C 260.382 46.470,271.069 51.634,277.452 55.159 C 280.288 56.726,282.786 58.075,283.003 58.157 C 284.371 58.673,298.768 67.922,306.152 73.029 C 318.857 81.817,338.132 100.162,346.490 111.421 C 349.508 115.486,348.934 115.390,352.624 112.457 C 354.276 111.145,355.852 109.985,356.127 109.879 C 357.555 109.331,342.906 92.583,332.998 83.438 C 312.734 64.733,279.674 44.429,264.844 41.579 C 261.567 40.949,246.855 40.802,248.242 41.412 M192.234 57.625 C 184.707 58.584,177.570 60.964,170.719 64.800 C 165.999 67.443,160.742 70.959,160.742 71.472 C 160.742 72.232,178.802 86.621,186.204 91.759 L 188.619 93.435 192.531 90.565 C 196.253 87.836,196.998 87.109,196.076 87.109 C 195.852 87.109,194.547 86.274,193.175 85.254 C 191.804 84.233,188.974 82.168,186.887 80.664 C 175.277 72.300,175.721 72.851,179.195 71.127 C 187.083 67.212,198.618 65.518,207.422 66.981 C 213.954 68.067,223.926 71.724,223.432 72.852 C 223.209 73.359,194.251 94.235,186.313 99.609 C 171.375 109.724,154.072 123.647,144.238 133.465 C 137.058 140.633,137.377 140.086,139.565 141.473 C 140.470 142.047,142.280 143.485,143.586 144.669 L 145.962 146.821 150.351 141.967 C 158.165 133.327,173.134 120.935,193.297 106.416 C 197.451 103.424,202.461 99.793,204.429 98.347 C 206.397 96.901,209.063 94.980,210.352 94.079 C 218.074 88.676,234.392 76.166,238.280 72.667 L 239.646 71.438 238.671 70.679 C 225.727 60.602,207.998 55.618,192.234 57.625 M106.539 77.517 C 101.154 80.802,96.513 83.863,93.517 86.107 C 92.637 86.766,90.879 88.084,89.611 89.037 C 80.751 95.694,71.479 104.518,62.970 114.393 L 58.166 119.968 62.774 124.882 C 76.638 139.666,90.146 149.882,101.367 154.072 C 103.516 154.875,105.642 155.677,106.093 155.855 C 106.544 156.033,108.301 156.379,109.999 156.623 C 128.983 159.354,138.159 168.880,137.404 185.074 C 136.636 201.551,126.997 211.544,110.938 212.510 C 91.045 213.707,66.183 228.608,45.644 251.644 L 43.308 254.265 46.126 258.871 C 58.106 278.449,76.317 298.537,92.117 309.604 C 92.777 310.066,93.064 309.793,95.279 306.597 C 102.718 295.862,116.434 282.436,125.732 276.788 C 128.706 274.981,129.214 275.583,121.582 271.875 C 117.983 270.126,114.220 268.192,113.218 267.576 L 111.397 266.456 108.238 270.101 C 104.513 274.397,104.573 274.129,107.037 275.488 C 109.461 276.825,109.456 277.005,106.934 279.224 C 102.457 283.164,97.058 288.648,94.462 291.895 C 91.206 295.964,91.850 295.866,88.217 292.845 C 76.730 283.295,67.037 272.533,58.746 260.122 L 55.461 255.204 59.859 250.888 C 77.425 233.651,95.895 223.614,111.826 222.650 C 130.158 221.540,142.774 210.592,146.500 192.559 C 151.261 169.515,136.340 149.208,113.086 147.081 C 102.415 146.105,81.892 133.015,72.279 121.052 L 71.042 119.513 73.602 116.443 C 80.186 108.550,90.771 99.362,102.598 91.277 C 108.961 86.927,108.537 87.065,109.633 88.985 C 111.115 91.581,115.124 96.756,117.991 99.775 C 120.499 102.415,121.045 103.516,119.847 103.516 C 119.617 103.516,118.842 103.878,118.126 104.320 L 116.824 105.125 119.419 109.023 C 121.372 111.956,122.166 112.856,122.628 112.660 C 122.966 112.517,126.890 111.076,131.348 109.459 C 135.806 107.842,139.443 106.414,139.432 106.287 C 139.420 106.159,138.057 105.088,136.404 103.906 C 128.341 98.143,118.265 86.268,114.050 77.560 C 112.112 73.556,113.024 73.562,106.539 77.517 M287.092 75.488 C 283.820 83.757,274.238 95.518,264.894 102.734 C 259.679 106.762,259.694 106.242,264.746 107.973 C 268.249 109.174,276.123 112.090,277.539 112.712 C 277.896 112.869,282.070 106.884,282.614 105.435 C 282.782 104.988,282.352 104.552,281.072 103.873 C 278.920 102.731,278.927 102.856,280.909 100.958 C 283.096 98.864,288.268 92.383,289.890 89.704 C 291.529 86.996,290.716 86.813,297.526 91.426 C 309.189 99.327,319.656 108.477,327.094 117.275 L 328.984 119.511 327.559 121.181 C 316.301 134.379,297.350 146.266,286.242 147.097 C 263.559 148.794,248.562 169.697,253.451 192.800 C 257.214 210.586,269.746 221.452,287.891 222.663 C 304.593 223.777,324.015 234.497,341.559 252.285 L 344.251 255.014 342.968 257.292 C 336.954 267.967,322.958 283.729,310.507 293.851 C 308.231 295.701,308.794 295.952,304.813 291.309 C 301.005 286.867,295.700 281.469,292.865 279.152 C 290.554 277.263,290.562 276.993,292.961 275.569 C 295.375 274.136,295.481 274.638,291.827 270.226 L 288.733 266.490 280.206 270.791 C 275.517 273.157,271.628 275.138,271.564 275.194 C 271.501 275.250,272.819 276.103,274.494 277.091 C 283.193 282.219,297.434 296.152,304.883 306.822 C 305.742 308.053,306.621 309.310,306.836 309.616 C 307.151 310.063,307.987 309.553,311.133 306.992 C 329.066 292.394,344.546 274.943,353.893 258.789 C 354.390 257.930,355.241 256.559,355.785 255.743 L 356.773 254.260 354.659 252.032 C 344.635 241.467,337.455 234.967,329.492 229.248 C 323.367 224.849,312.948 219.084,307.031 216.821 C 305.205 216.122,303.359 215.392,302.930 215.199 C 300.632 214.166,293.102 212.802,288.086 212.511 C 273.018 211.636,263.328 201.224,262.627 185.156 C 261.940 169.431,271.262 158.773,287.238 157.018 C 301.622 155.437,317.718 145.250,335.796 126.285 L 341.708 120.082 336.465 113.936 C 323.870 99.169,309.636 87.244,291.912 76.610 C 287.223 73.797,287.716 73.912,287.092 75.488 M210.624 98.535 C 210.399 98.804,208.714 100.078,206.880 101.367 C 202.885 104.174,202.962 103.799,205.957 105.879 C 216.370 113.109,234.633 127.507,241.587 133.969 C 247.390 139.361,249.679 141.638,251.802 144.127 L 254.083 146.801 255.841 145.043 C 256.808 144.076,258.607 142.578,259.839 141.714 L 262.079 140.142 258.714 136.497 C 253.687 131.052,243.123 121.630,235.491 115.787 C 234.125 114.741,231.583 112.739,229.841 111.337 C 217.784 101.634,211.522 97.463,210.624 98.535 M104.132 110.641 C 98.328 113.814,87.532 122.621,87.964 123.829 C 88.031 124.016,89.756 125.568,91.797 127.279 L 95.508 130.389 98.828 127.179 C 102.324 123.800,105.374 121.514,110.059 118.762 C 113.446 116.772,113.420 117.586,110.254 112.757 L 107.617 108.735 104.132 110.641 M291.406 109.332 C 291.406 109.524,290.342 111.301,289.041 113.282 C 287.740 115.263,286.729 116.929,286.795 116.983 C 286.860 117.037,288.584 118.089,290.625 119.320 C 295.344 122.166,297.841 124.045,301.413 127.438 C 304.745 130.603,304.103 130.644,308.570 126.978 C 312.826 123.484,312.797 124.174,308.843 120.431 C 302.495 114.422,291.406 107.364,291.406 109.332 M33.119 125.883 C 25.874 138.551,20.115 151.976,16.238 165.234 C 9.234 189.186,9.906 218.172,18.040 242.969 C 20.376 250.090,26.382 264.544,26.946 264.402 C 27.057 264.374,28.589 262.835,30.350 260.983 L 33.552 257.615 31.970 254.100 C 27.713 244.639,26.184 240.292,23.829 230.949 C 18.920 211.470,18.652 185.139,23.227 171.665 C 23.558 170.691,23.828 169.670,23.828 169.397 C 23.828 168.450,27.829 156.430,29.560 152.177 C 32.755 144.327,39.014 132.472,43.015 126.694 C 44.509 124.535,44.608 124.728,40.695 122.168 C 36.350 119.325,37.072 118.971,33.119 125.883 M361.328 120.768 C 355.052 124.593,355.229 124.369,356.789 126.519 C 364.341 136.926,373.045 156.894,376.900 172.656 C 383.086 197.952,379.212 231.589,367.412 255.019 L 366.069 257.687 369.500 261.101 L 372.930 264.516 374.397 261.457 C 380.713 248.284,385.190 233.561,387.503 218.359 C 388.183 213.893,388.453 194.471,387.924 188.131 C 386.365 169.464,379.786 149.540,368.238 128.516 C 362.787 118.592,363.531 119.426,361.328 120.768 M345.213 133.850 C 341.144 137.341,341.239 136.601,344.287 141.073 C 361.681 166.588,366.227 207.612,354.402 232.340 L 353.227 234.797 355.031 236.223 C 356.024 237.007,357.741 238.515,358.848 239.574 C 361.202 241.825,360.769 242.204,363.445 235.547 C 373.060 211.623,372.140 183.722,360.746 153.711 C 358.855 148.728,350.415 132.819,348.692 130.987 C 348.657 130.950,347.091 132.239,345.213 133.850 M49.104 134.668 C 38.463 151.679,32.060 169.840,30.451 187.573 C 28.800 205.762,31.584 225.021,37.868 238.881 L 39.070 241.531 42.094 238.660 C 43.757 237.081,45.440 235.495,45.834 235.136 C 46.528 234.503,46.518 234.416,45.547 232.500 C 33.221 208.176,38.503 164.442,56.783 139.475 L 58.339 137.349 55.049 134.309 C 51.047 130.611,51.665 130.574,49.104 134.668 M195.703 145.729 C 172.354 147.354,158.663 159.122,159.479 176.867 C 160.153 191.521,169.572 198.065,196.709 202.737 C 219.681 206.692,225.827 210.122,225.321 218.704 C 224.242 236.997,186.330 238.573,172.275 220.910 C 169.834 217.842,169.203 217.639,165.535 218.741 C 160.980 220.110,156.250 223.322,156.250 225.047 C 156.250 227.287,164.009 235.988,168.870 239.198 C 179.590 246.278,198.356 249.298,213.123 246.321 C 229.628 242.993,239.068 234.739,241.018 221.930 C 243.745 204.016,231.293 192.863,203.906 188.691 C 200.936 188.238,192.976 186.699,189.563 185.918 C 178.485 183.381,173.959 179.196,175.312 172.741 C 178.393 158.056,208.605 155.662,224.909 168.812 C 228.614 171.801,229.869 172.098,233.797 170.916 C 241.686 168.541,242.154 164.841,235.411 158.157 C 226.533 149.358,211.441 144.634,195.703 145.729 M330.859 152.201 C 315.769 167.523,298.703 178.164,286.753 179.702 C 283.262 180.152,283.690 179.121,283.899 186.564 L 284.075 192.855 287.643 193.299 C 301.514 195.025,321.218 205.321,338.626 219.937 L 341.378 222.247 342.738 219.815 C 354.673 198.468,351.548 172.125,334.468 150.101 L 333.789 149.226 330.859 152.201 M63.953 152.434 C 48.406 173.668,45.800 196.998,56.530 218.881 C 58.087 222.055,58.293 222.309,58.903 221.797 C 78.782 205.110,96.624 195.614,112.603 193.216 L 115.636 192.761 115.746 186.445 L 115.857 180.130 113.885 179.863 C 107.470 178.995,95.799 173.962,88.958 169.112 C 88.049 168.468,86.688 167.532,85.934 167.033 C 83.096 165.153,78.509 161.259,72.371 155.522 L 66.032 149.595 63.953 152.434 M68.424 165.139 C 68.629 165.602,76.462 171.928,79.492 174.077 C 83.752 177.099,90.757 181.201,95.898 183.686 C 98.477 184.932,100.628 186.080,100.679 186.237 C 100.731 186.395,98.270 187.398,95.211 188.467 C 85.041 192.021,76.381 196.797,65.470 204.866 C 63.861 206.056,62.471 206.898,62.380 206.737 C 60.092 202.683,58.926 191.015,60.108 183.984 C 61.630 174.924,67.187 162.333,68.424 165.139 M334.087 167.090 C 340.106 177.391,341.821 191.064,338.631 203.320 C 337.568 207.404,337.666 207.363,334.670 204.984 C 326.394 198.416,311.881 190.694,301.670 187.427 C 298.563 186.433,298.355 186.052,300.507 185.307 C 307.352 182.937,321.083 174.323,328.711 167.612 C 332.491 164.286,332.452 164.290,334.087 167.090 M134.610 232.227 C 134.203 232.535,132.621 233.309,131.095 233.947 C 129.569 234.584,127.672 235.379,126.880 235.712 L 125.440 236.318 127.429 239.936 C 138.663 260.377,153.176 274.569,178.437 289.816 L 185.187 293.891 186.832 293.090 C 187.736 292.649,190.099 291.324,192.081 290.146 L 195.686 288.003 191.495 285.540 C 164.009 269.384,144.345 250.918,136.914 234.285 C 135.623 231.396,135.662 231.430,134.610 232.227 M263.003 234.276 C 252.006 257.575,226.840 277.442,175.413 303.421 C 157.229 312.607,143.352 320.463,144.064 321.167 C 144.648 321.744,153.535 326.771,157.444 328.734 C 184.767 342.459,214.494 342.589,241.748 329.103 C 245.821 327.088,253.044 323.045,254.778 321.810 L 255.902 321.010 252.354 318.715 C 247.200 315.382,239.729 311.272,227.849 305.234 C 222.093 302.308,216.715 299.545,215.898 299.093 C 214.688 298.423,214.290 298.359,213.750 298.748 C 213.385 299.009,212.822 299.341,212.500 299.485 C 208.606 301.224,204.282 304.064,204.937 304.453 C 206.955 305.652,218.842 311.800,227.046 315.888 C 237.379 321.036,237.021 320.747,234.473 321.889 C 220.637 328.088,201.264 330.379,185.938 327.627 C 177.615 326.133,163.675 321.919,163.678 320.898 C 163.678 320.684,170.313 317.224,178.421 313.211 C 197.849 303.595,219.837 291.249,231.055 283.660 C 251.514 269.817,264.264 256.284,272.626 239.536 L 274.243 236.298 272.819 235.703 C 271.570 235.181,264.983 232.076,264.448 231.757 C 264.338 231.691,263.688 232.825,263.003 234.276 M84.355 244.210 C 82.970 245.084,80.915 246.408,79.790 247.153 L 77.744 248.507 78.983 250.328 C 82.902 256.088,87.518 261.115,93.359 265.985 L 96.680 268.753 97.788 267.482 C 98.397 266.783,99.914 264.976,101.159 263.466 L 103.423 260.722 100.686 258.584 C 96.882 255.611,92.142 250.468,89.286 246.213 L 86.874 242.621 84.355 244.210 M312.500 242.919 C 312.500 244.798,305.184 253.565,300.079 257.803 L 296.561 260.724 298.573 263.016 C 299.680 264.276,301.186 266.070,301.920 267.001 L 303.254 268.695 306.217 266.300 C 312.234 261.436,321.875 250.634,321.875 248.756 C 321.875 248.457,313.202 242.578,312.761 242.578 C 312.617 242.578,312.500 242.731,312.500 242.919 M35.837 272.413 L 32.455 276.076 36.264 282.081 C 58.946 317.843,91.840 345.547,127.734 359.120 C 132.724 361.007,132.850 361.023,142.018 360.879 C 151.787 360.726,151.835 360.715,148.145 359.433 C 122.589 350.551,93.642 332.792,73.871 313.867 C 62.071 302.572,44.465 280.553,44.312 276.899 C 44.289 276.333,43.477 274.663,42.508 273.188 C 41.540 271.714,40.538 270.112,40.282 269.629 C 39.608 268.357,39.544 268.397,35.837 272.413 M357.608 271.922 C 355.689 274.661,355.441 275.214,355.791 275.982 C 356.533 277.612,344.968 293.825,336.157 303.506 C 313.883 327.978,282.605 348.495,249.609 360.276 C 249.069 360.469,260.992 360.779,266.067 360.704 C 270.502 360.639,289.572 351.791,302.019 344.023 C 327.474 328.137,351.107 303.957,365.599 278.971 L 367.261 276.105 366.356 275.064 C 364.488 272.915,360.362 268.750,360.102 268.750 C 359.953 268.750,358.831 270.177,357.608 271.922 M146.875 283.328 C 131.615 291.590,115.988 304.321,106.533 316.193 C 102.443 321.328,102.395 320.244,106.888 324.219 C 136.986 350.845,172.316 365.712,203.125 364.715 C 217.079 364.263,226.928 361.980,244.141 355.205 C 254.556 351.105,269.780 342.349,281.055 333.972 C 285.796 330.449,296.484 321.346,296.484 320.831 C 296.484 318.728,284.146 305.479,276.104 298.947 C 266.054 290.783,248.426 279.699,247.076 280.695 C 246.809 280.893,244.721 282.401,242.437 284.046 L 238.285 287.037 240.866 288.245 C 242.286 288.910,243.521 289.453,243.611 289.453 C 244.608 289.453,258.685 298.071,264.258 302.093 C 270.888 306.879,283.594 318.526,283.594 319.819 C 283.594 320.446,273.313 328.505,268.945 331.303 C 268.086 331.853,266.416 332.924,265.234 333.682 C 229.867 356.381,196.639 361.121,162.968 348.272 C 148.779 342.857,129.698 331.596,118.457 322.002 C 115.821 319.752,115.693 320.138,120.801 314.937 C 130.461 305.102,147.581 293.154,159.685 287.800 L 161.408 287.037 158.887 285.218 C 154.792 282.262,152.552 280.670,152.344 280.568 C 152.236 280.515,149.775 281.757,146.875 283.328 " stroke="none" fill="#f7f7f7" fill-rule="evenodd"></path><path id="path1" d="M0.000 200.000 L 0.000 400.000 200.000 400.000 L 400.000 400.000 400.000 200.000 L 400.000 0.000 200.000 0.000 L 0.000 0.000 0.000 200.000 M209.610 34.974 C 217.601 36.022,226.764 38.541,233.075 41.426 C 246.424 47.527,256.777 53.771,268.296 62.667 C 271.376 65.046,274.406 67.344,275.029 67.773 C 276.549 68.822,276.507 69.023,273.988 72.747 C 265.991 84.572,252.211 96.511,237.389 104.457 L 233.177 106.716 231.530 105.209 C 230.624 104.380,228.696 102.835,227.244 101.775 C 225.793 100.714,224.739 99.717,224.901 99.558 C 225.063 99.399,226.514 98.590,228.125 97.761 C 244.198 89.490,264.986 72.555,261.981 70.181 C 219.848 36.888,183.621 36.032,141.699 67.339 C 136.611 71.139,136.612 70.447,141.677 75.770 C 148.842 83.300,160.738 92.109,170.612 97.195 C 173.247 98.552,175.314 99.808,175.205 99.985 C 175.040 100.251,168.766 105.174,167.019 106.408 C 166.680 106.647,165.446 106.113,163.186 104.748 C 161.352 103.640,159.727 102.734,159.573 102.734 C 157.925 102.734,142.950 91.286,136.602 85.174 C 130.410 79.210,123.014 69.536,123.864 68.511 C 124.391 67.876,138.623 57.189,141.602 55.192 C 151.387 48.629,166.543 40.916,174.023 38.692 C 174.883 38.436,175.938 38.076,176.367 37.891 C 182.624 35.199,199.816 33.690,209.610 34.974 M153.506 40.830 C 153.469 41.040,151.037 42.192,148.102 43.391 C 137.037 47.910,126.863 53.006,112.244 61.351 C 90.580 73.718,67.067 93.975,53.368 112.075 C 50.178 116.291,51.055 116.145,47.266 113.086 C 45.536 111.689,43.993 110.544,43.838 110.541 C 41.861 110.499,43.181 108.455,51.523 98.633 C 69.836 77.072,99.486 55.352,125.391 44.521 C 134.491 40.716,133.542 40.917,143.750 40.638 C 154.298 40.350,153.594 40.336,153.506 40.830 M265.292 41.189 C 279.537 44.208,309.974 62.592,330.078 80.319 C 339.332 88.479,358.160 109.161,356.989 109.879 C 355.727 110.653,352.515 112.984,351.059 114.183 C 350.029 115.031,349.137 115.658,349.075 115.577 C 349.012 115.496,347.583 113.584,345.899 111.328 C 327.211 86.303,291.113 59.850,254.988 44.706 C 252.137 43.511,249.499 42.367,249.126 42.165 C 248.753 41.962,248.204 41.797,247.905 41.797 C 247.606 41.797,247.142 41.533,246.875 41.211 C 246.191 40.386,261.420 40.368,265.292 41.189 M210.070 57.413 C 220.682 59.230,241.500 69.603,239.463 72.058 C 237.964 73.865,218.602 88.819,209.961 94.845 C 208.672 95.744,206.006 97.667,204.038 99.119 C 202.069 100.570,197.410 103.947,193.686 106.622 C 171.327 122.683,155.366 136.145,147.953 145.196 C 145.941 147.653,146.184 147.624,144.092 145.664 C 143.152 144.782,141.328 143.272,140.039 142.306 C 138.750 141.341,137.626 140.484,137.542 140.402 C 136.371 139.265,161.856 116.353,171.619 109.766 C 172.097 109.443,173.888 108.111,175.599 106.804 C 178.567 104.539,188.517 97.503,189.917 96.680 C 190.282 96.465,193.272 94.349,196.560 91.978 C 199.849 89.607,207.156 84.345,212.798 80.284 C 218.520 76.165,222.908 72.752,222.721 72.565 C 221.885 71.729,214.732 69.003,210.979 68.090 C 201.136 65.696,187.539 67.271,178.574 71.845 L 176.928 72.685 178.141 73.706 C 179.633 74.961,187.479 80.689,192.871 84.459 C 197.390 87.618,197.330 87.524,195.605 88.712 C 194.907 89.193,193.159 90.524,191.720 91.668 C 190.281 92.813,188.914 93.750,188.683 93.750 C 187.390 93.750,160.156 72.474,160.156 71.465 C 160.156 69.179,176.902 60.672,186.328 58.169 C 191.873 56.697,203.690 56.321,210.070 57.413 M299.440 80.899 C 314.382 90.795,326.835 101.814,337.566 114.636 L 342.125 120.083 339.076 123.422 C 320.071 144.240,301.236 156.453,286.328 157.625 C 268.905 158.995,258.760 175.729,264.428 193.750 C 268.035 205.216,276.035 211.293,288.612 212.120 C 297.797 212.724,305.239 214.968,315.114 220.110 C 320.763 223.052,322.475 224.073,328.125 227.875 C 335.848 233.072,349.443 245.256,355.515 252.422 L 357.071 254.257 354.645 258.281 C 343.457 276.837,330.765 291.274,312.024 306.764 C 306.709 311.156,307.129 311.014,305.766 308.887 C 298.852 298.101,284.131 283.415,274.304 277.501 C 272.553 276.448,271.117 275.410,271.112 275.195 C 271.107 274.980,274.573 273.102,278.813 271.022 C 283.054 268.941,287.003 266.925,287.590 266.542 C 288.573 265.898,288.694 265.894,289.152 266.484 C 289.425 266.835,290.942 268.631,292.522 270.475 C 295.696 274.177,295.760 274.557,293.405 275.758 C 291.098 276.935,291.080 276.895,295.903 281.408 C 298.362 283.708,301.989 287.470,303.964 289.768 C 305.939 292.065,307.760 294.174,308.010 294.454 C 310.161 296.852,335.522 269.423,342.739 256.891 L 343.833 254.993 341.936 253.051 C 339.798 250.861,332.259 244.175,329.883 242.362 C 329.023 241.706,326.826 240.027,325.000 238.632 C 318.746 233.853,310.983 229.432,303.525 226.402 C 299.328 224.696,293.495 223.504,287.305 223.086 C 268.779 221.835,255.358 209.125,252.565 190.184 C 249.207 167.413,263.815 148.783,286.829 146.485 C 297.349 145.435,309.640 138.233,322.754 125.436 C 325.708 122.554,328.125 119.912,328.125 119.567 C 328.125 116.294,306.144 97.049,293.284 89.064 L 291.452 87.926 290.206 89.959 C 288.374 92.951,285.384 96.702,282.334 99.836 L 279.643 102.602 281.423 103.547 C 283.689 104.748,283.689 104.743,280.640 109.382 C 277.777 113.739,278.054 113.554,275.930 112.527 C 275.072 112.113,271.567 110.813,268.142 109.639 C 259.307 106.612,259.522 106.707,260.186 106.100 C 260.492 105.821,262.968 103.802,265.689 101.614 C 274.674 94.388,280.780 86.985,285.576 77.502 L 287.570 73.559 290.673 75.354 C 292.380 76.341,296.325 78.836,299.440 80.899 M115.147 78.618 C 119.720 87.534,127.796 97.001,136.230 103.332 C 140.212 106.321,140.434 106.700,138.574 107.330 C 136.745 107.950,128.033 111.059,124.673 112.292 C 123.096 112.870,121.761 113.285,121.707 113.214 C 121.109 112.441,116.406 105.079,116.406 104.917 C 116.406 104.798,117.265 104.266,118.314 103.734 L 120.221 102.768 118.284 100.700 C 115.511 97.740,112.492 93.993,110.241 90.718 L 108.292 87.881 104.634 90.349 C 92.081 98.817,83.515 106.020,75.781 114.611 C 73.525 117.117,71.631 119.306,71.573 119.475 C 71.377 120.038,82.548 130.627,86.719 133.833 C 96.952 141.699,105.349 145.773,112.891 146.530 C 136.645 148.915,151.809 169.408,146.964 192.578 C 143.202 210.566,130.357 221.870,112.305 223.076 C 95.727 224.184,77.675 233.891,60.070 251.164 L 55.882 255.273 58.898 259.774 C 65.503 269.630,71.788 277.042,81.083 285.938 C 85.745 290.399,91.324 295.168,91.543 294.878 C 95.027 290.266,100.446 284.511,105.894 279.637 L 108.789 277.047 107.481 276.317 C 106.762 275.915,105.753 275.267,105.239 274.878 L 104.306 274.169 107.478 270.385 C 109.223 268.304,110.782 266.455,110.944 266.275 C 111.106 266.096,112.621 266.727,114.311 267.676 C 116.000 268.626,119.888 270.608,122.949 272.079 C 129.382 275.172,129.323 275.064,125.791 277.262 C 115.753 283.508,101.718 297.385,95.000 307.703 C 93.990 309.254,93.030 310.529,92.867 310.535 C 91.843 310.576,79.193 299.515,71.445 291.806 C 60.594 281.008,54.568 273.344,46.100 259.570 C 45.175 258.066,44.092 256.360,43.694 255.778 C 42.534 254.085,42.613 253.970,50.324 246.222 C 71.269 225.173,94.354 212.109,110.606 212.109 C 120.844 212.109,129.211 207.151,133.550 198.513 C 142.796 180.106,133.266 159.989,114.258 157.791 C 98.675 155.989,84.439 147.289,64.894 127.625 C 60.946 123.654,57.782 120.213,57.862 119.979 C 57.942 119.745,60.551 116.630,63.660 113.056 C 76.849 97.894,90.767 86.372,108.789 75.697 C 112.803 73.320,112.315 73.095,115.147 78.618 M212.398 97.829 C 212.776 98.139,215.107 99.827,217.578 101.581 C 222.170 104.840,223.494 105.844,229.297 110.473 C 231.123 111.929,234.199 114.336,236.133 115.821 C 244.193 122.011,254.635 131.418,259.773 137.118 L 262.533 140.179 259.684 142.304 C 258.118 143.473,256.320 144.980,255.689 145.652 C 254.099 147.347,253.930 147.278,250.927 143.720 C 244.656 136.289,216.309 112.819,204.829 105.552 C 202.536 104.102,202.599 103.965,207.010 100.816 C 209.146 99.290,211.002 97.868,211.134 97.654 C 211.450 97.143,211.582 97.161,212.398 97.829 M108.716 109.473 C 109.077 110.171,110.241 112.061,111.303 113.672 C 113.713 117.331,113.723 117.145,111.035 118.683 C 109.800 119.390,108.174 120.342,107.422 120.797 C 104.881 122.337,99.817 126.449,97.708 128.686 L 95.611 130.910 93.802 129.325 C 92.807 128.454,90.991 126.992,89.768 126.077 C 88.545 125.163,87.534 124.135,87.522 123.795 C 87.478 122.567,96.175 114.962,101.054 111.960 C 103.170 110.658,107.341 108.382,107.838 108.258 C 107.959 108.228,108.354 108.774,108.716 109.473 M295.265 109.983 C 300.713 112.863,312.500 122.312,312.500 123.799 C 312.500 124.149,306.679 129.171,305.217 130.083 C 304.439 130.568,304.111 130.362,300.611 127.201 C 296.998 123.938,292.028 120.408,288.152 118.351 C 285.910 117.162,285.890 117.462,288.473 113.499 C 289.653 111.689,290.824 109.757,291.075 109.205 C 291.646 107.952,291.300 107.887,295.265 109.983 M40.783 121.743 C 42.952 123.175,44.788 124.394,44.864 124.452 C 44.939 124.510,44.570 125.141,44.044 125.853 C 43.517 126.566,42.154 128.730,41.014 130.664 C 39.874 132.598,38.722 134.443,38.454 134.766 C 37.629 135.758,32.628 146.030,30.561 150.977 C 16.341 185.008,16.909 219.538,32.252 253.711 L 34.006 257.617 30.473 261.230 C 27.150 264.631,26.172 265.365,26.172 264.461 C 26.172 264.250,25.489 262.620,24.654 260.838 C 21.007 253.053,16.233 239.900,15.250 234.926 C 14.999 233.656,14.547 231.826,14.246 230.859 C 11.049 220.596,10.141 193.572,12.520 179.541 C 14.518 167.760,18.856 154.032,24.323 142.188 C 25.067 140.576,26.158 138.203,26.748 136.914 C 27.961 134.265,36.402 119.141,36.667 119.141 C 36.762 119.141,38.614 120.312,40.783 121.743 M364.951 121.854 C 367.428 125.905,374.138 138.706,375.629 142.227 C 382.380 158.167,385.332 167.662,387.579 180.664 C 389.646 192.624,388.605 220.798,385.752 230.078 C 385.455 231.045,385.020 232.803,384.786 233.984 C 383.350 241.227,374.376 264.844,373.061 264.844 C 372.937 264.844,371.191 263.191,369.180 261.172 L 365.523 257.500 366.709 255.410 C 367.361 254.261,368.367 252.178,368.945 250.781 C 369.523 249.385,370.229 247.715,370.514 247.070 C 379.608 226.488,381.988 192.792,375.921 170.508 C 371.497 154.260,362.989 135.270,355.909 125.840 L 354.926 124.532 355.881 123.792 C 356.406 123.385,358.026 122.326,359.480 121.438 C 360.934 120.550,362.225 119.660,362.348 119.461 C 362.772 118.775,363.448 119.397,364.951 121.854 M56.348 134.914 C 59.073 137.177,59.076 136.689,56.307 140.877 C 47.387 154.367,42.164 169.006,39.814 187.109 C 38.896 194.176,39.402 208.287,40.854 216.156 C 41.963 222.164,43.289 226.428,45.824 232.137 L 46.998 234.781 45.276 236.219 C 44.329 237.010,42.605 238.589,41.444 239.727 C 38.907 242.216,39.010 242.204,37.997 240.137 C 29.184 222.153,26.965 193.788,32.656 171.883 C 33.889 167.137,36.899 157.785,37.876 155.664 C 38.073 155.234,38.796 153.564,39.481 151.953 C 42.040 145.937,45.450 139.589,49.721 132.889 L 51.291 130.427 52.696 131.738 C 53.469 132.459,55.112 133.888,56.348 134.914 M351.403 134.668 C 354.141 139.027,358.702 147.582,360.098 150.977 C 372.997 182.342,373.846 213.573,362.490 238.965 C 361.098 242.078,360.690 242.318,359.505 240.723 C 359.067 240.132,357.459 238.682,355.932 237.500 C 352.844 235.111,352.724 234.769,354.037 232.116 C 360.827 218.399,362.395 195.575,357.947 175.195 C 356.583 168.941,354.270 161.460,352.454 157.422 C 349.415 150.667,345.734 143.733,343.542 140.637 L 341.041 137.102 342.875 135.446 C 343.885 134.535,345.505 133.046,346.476 132.138 C 348.744 130.018,348.357 129.819,351.403 134.668 M207.633 145.520 C 223.771 147.585,239.182 156.948,240.820 165.683 C 241.075 167.043,241.025 167.112,238.464 168.939 C 233.247 172.663,229.092 172.957,225.549 169.855 C 209.080 155.437,175.977 158.499,175.977 174.441 C 175.977 181.707,179.714 183.810,198.828 187.299 C 215.481 190.340,220.724 191.802,227.490 195.291 C 238.564 201.002,243.210 210.005,241.430 222.297 C 236.841 253.969,174.670 257.508,156.739 227.117 L 155.469 224.966 157.232 223.082 C 159.765 220.373,165.603 217.578,168.727 217.578 C 169.277 217.578,171.185 219.227,174.331 222.421 C 177.542 225.680,179.764 227.594,181.128 228.274 C 198.057 236.721,221.804 232.786,224.615 221.068 C 226.974 211.239,218.648 206.178,194.781 202.932 C 172.525 199.905,160.647 191.697,158.967 178.184 C 156.367 157.254,179.259 141.888,207.633 145.520 M335.073 150.293 C 350.793 170.248,354.694 195.138,345.295 215.523 C 344.875 216.434,344.531 217.259,344.531 217.358 C 344.531 217.518,341.852 222.252,341.560 222.607 C 341.494 222.687,340.070 221.618,338.396 220.232 C 320.748 205.622,302.384 195.921,288.601 193.926 C 283.124 193.134,283.639 193.900,283.575 186.445 C 283.515 179.339,283.525 179.297,285.355 179.297 C 295.560 179.297,314.331 168.214,328.711 153.698 C 334.210 148.148,333.628 148.459,335.073 150.293 M69.922 152.770 C 78.977 161.409,87.553 168.257,93.051 171.238 C 101.841 176.004,107.007 178.103,111.966 178.923 C 116.958 179.748,116.539 179.494,116.261 181.520 C 116.126 182.506,116.016 185.532,116.016 188.245 L 116.016 193.177 111.589 193.860 C 97.819 195.984,78.760 205.793,63.477 218.622 C 60.351 221.246,58.216 222.805,58.030 222.601 C 57.960 222.524,57.029 220.703,55.962 218.555 C 45.084 196.657,48.416 171.297,64.913 150.410 C 66.093 148.917,65.680 148.723,69.922 152.770 M65.664 168.612 C 59.915 180.049,58.492 192.922,61.794 203.613 C 62.769 206.769,62.412 206.721,65.793 204.154 C 74.545 197.512,86.031 191.186,95.051 188.039 C 98.023 187.002,100.220 186.080,99.934 185.990 C 94.137 184.158,80.433 175.699,72.054 168.780 C 66.910 164.533,67.704 164.554,65.664 168.612 M330.859 166.294 C 330.107 166.873,328.569 168.177,327.440 169.192 C 321.402 174.625,305.786 184.209,300.068 185.991 C 299.783 186.080,300.486 186.480,301.631 186.881 C 313.227 190.942,327.888 198.810,335.124 204.856 C 337.162 206.559,337.233 206.562,337.791 204.980 C 341.328 194.953,339.969 179.382,334.653 169.043 C 332.434 164.725,332.674 164.899,330.859 166.294 M270.517 234.192 C 272.446 235.006,274.181 235.811,274.374 235.980 C 275.180 236.686,268.675 247.960,263.502 254.822 C 252.155 269.874,236.777 281.878,208.594 297.680 C 191.950 307.012,189.308 308.398,170.954 317.416 L 163.978 320.844 166.852 321.962 C 188.574 330.412,213.777 330.363,233.608 321.831 C 236.097 320.761,237.063 321.441,222.656 314.125 C 205.900 305.616,203.912 304.553,203.912 304.102 C 203.912 303.699,204.619 303.265,209.961 300.384 C 211.680 299.457,213.370 298.525,213.717 298.312 C 214.284 297.964,225.538 303.274,232.617 307.230 C 233.477 307.711,236.465 309.293,239.258 310.746 C 245.231 313.854,247.101 314.925,251.563 317.792 C 253.389 318.966,255.190 320.034,255.566 320.165 C 256.626 320.535,256.374 321.201,254.780 322.244 C 225.788 341.201,193.745 344.668,163.695 332.098 C 157.507 329.509,143.397 321.838,143.368 321.047 C 143.330 320.002,159.964 310.709,179.102 301.083 C 184.473 298.382,190.604 295.187,192.726 293.984 C 194.848 292.781,196.669 291.797,196.773 291.797 C 196.970 291.797,202.712 288.424,205.078 286.918 C 205.830 286.439,208.020 285.117,209.946 283.979 C 237.148 267.897,253.768 252.190,262.507 234.304 L 264.164 230.913 265.588 231.812 C 266.371 232.307,268.589 233.377,270.517 234.192 M137.868 235.225 C 144.163 247.574,154.097 258.837,167.773 269.133 C 174.090 273.889,187.230 282.688,192.285 285.547 C 195.655 287.453,196.967 288.672,195.649 288.672 C 195.404 288.672,194.305 289.231,193.207 289.914 C 185.293 294.839,186.012 294.758,180.273 291.374 C 161.791 280.476,146.779 268.114,137.382 256.055 C 135.010 253.010,129.688 245.223,129.688 244.797 C 129.688 244.716,128.633 242.824,127.344 240.593 C 124.742 236.090,124.717 236.014,125.684 235.670 C 127.692 234.956,133.895 232.237,134.560 231.780 C 135.717 230.984,135.695 230.960,137.868 235.225 M89.607 245.996 C 92.021 249.639,97.772 255.732,102.344 259.490 C 103.398 260.356,103.941 261.053,103.699 261.229 C 103.398 261.450,97.694 268.156,97.006 269.098 C 96.067 270.385,77.325 250.743,77.346 248.493 C 77.349 248.226,86.328 242.268,86.804 242.217 C 86.958 242.201,88.219 243.901,89.607 245.996 M316.995 244.798 C 318.864 246.048,320.814 247.334,321.328 247.656 C 322.576 248.438,322.518 248.866,320.835 251.274 C 316.997 256.764,310.878 263.192,305.599 267.277 L 303.212 269.124 299.946 265.223 C 296.009 260.520,296.044 260.640,298.131 258.970 C 303.381 254.767,308.125 249.528,311.129 244.612 C 312.848 241.800,312.496 241.788,316.995 244.798 M41.007 270.053 C 41.012 270.233,41.899 271.658,42.978 273.219 C 44.170 274.943,44.849 276.297,44.708 276.667 C 44.376 277.530,50.216 286.274,56.641 294.532 C 65.885 306.415,82.654 322.410,93.945 330.116 C 95.020 330.849,96.514 331.917,97.266 332.489 C 107.393 340.192,130.815 352.583,145.508 358.008 C 154.009 361.147,153.653 361.411,141.147 361.234 L 131.055 361.092 126.172 359.034 C 118.675 355.875,109.774 351.551,104.883 348.694 C 103.594 347.942,101.416 346.674,100.042 345.878 C 97.772 344.563,91.187 340.180,86.701 337.001 C 68.707 324.245,49.491 303.756,36.982 283.984 C 35.962 282.373,34.419 279.931,33.553 278.558 L 31.977 276.061 33.661 274.261 C 34.587 273.271,36.311 271.447,37.491 270.209 L 39.636 267.957 40.317 268.842 C 40.692 269.328,41.002 269.874,41.007 270.053 M363.540 271.387 C 368.149 276.505,367.879 275.750,366.190 278.798 C 351.642 305.057,322.859 333.207,294.531 348.883 C 287.070 353.012,283.179 354.871,271.875 359.711 L 268.555 361.133 258.626 361.133 C 247.619 361.133,246.915 360.951,251.271 359.238 C 252.828 358.626,254.453 357.977,254.883 357.796 C 255.313 357.614,258.011 356.482,260.879 355.280 C 299.649 339.030,330.208 314.579,352.126 282.271 C 355.211 277.723,355.475 277.187,355.240 275.934 C 355.042 274.878,355.158 274.370,355.749 273.709 C 356.171 273.237,357.272 271.753,358.197 270.410 C 360.278 267.389,359.874 267.315,363.540 271.387 M154.998 281.934 C 156.428 282.954,158.130 284.181,158.779 284.660 C 159.429 285.138,160.356 285.738,160.840 285.992 C 162.142 286.676,161.916 287.293,160.059 288.124 C 150.612 292.352,138.559 300.016,128.906 307.935 C 125.134 311.029,116.797 319.231,116.797 319.847 C 116.797 320.272,123.598 325.753,128.320 329.132 C 139.390 337.055,158.797 346.996,168.797 349.866 C 190.436 356.076,204.511 356.658,222.852 352.102 C 228.636 350.665,240.620 346.535,243.725 344.908 C 244.061 344.732,247.018 343.258,250.297 341.632 C 255.917 338.844,259.747 336.695,264.258 333.798 C 265.332 333.108,267.529 331.694,269.141 330.657 C 273.730 327.701,283.141 320.403,283.181 319.768 C 283.209 319.325,275.680 311.856,272.070 308.747 C 263.747 301.577,250.780 293.180,241.699 289.079 C 238.419 287.598,236.862 286.328,238.326 286.328 C 238.566 286.328,240.716 284.893,243.105 283.138 L 247.447 279.948 251.943 282.259 C 261.098 286.966,273.810 296.035,282.670 304.181 C 288.502 309.542,296.958 319.558,296.852 320.977 C 296.721 322.715,278.946 336.464,268.419 342.969 C 266.855 343.936,264.927 345.148,264.135 345.662 C 259.467 348.697,246.261 355.064,240.234 357.187 C 238.623 357.754,236.953 358.378,236.523 358.573 C 225.583 363.536,205.670 366.209,189.844 364.839 C 173.557 363.429,148.915 354.311,132.031 343.448 C 122.428 337.269,117.474 333.689,111.267 328.444 C 109.407 326.872,106.738 324.619,105.336 323.438 C 102.152 320.754,102.122 321.109,105.924 316.322 C 116.241 303.329,133.395 289.681,150.195 281.096 C 151.270 280.547,152.205 280.094,152.274 280.088 C 152.343 280.083,153.569 280.913,154.998 281.934 " stroke="none" fill="#040404" fill-rule="evenodd"></path><path id="path2" d="M198.547 34.663 C 199.574 34.743,201.156 34.742,202.063 34.660 C 202.969 34.579,202.129 34.512,200.195 34.514 C 198.262 34.515,197.520 34.582,198.547 34.663 M199.112 56.923 C 199.806 57.009,201.036 57.010,201.847 56.926 C 202.657 56.841,202.090 56.771,200.586 56.769 C 199.082 56.767,198.419 56.836,199.112 56.923 M134.570 83.203 C 135.846 84.492,136.977 85.547,137.085 85.547 C 137.192 85.547,136.237 84.492,134.961 83.203 C 133.685 81.914,132.554 80.859,132.446 80.859 C 132.339 80.859,133.295 81.914,134.570 83.203 M338.281 88.477 C 340.745 90.947,342.849 92.969,342.956 92.969 C 343.063 92.969,341.136 90.947,338.672 88.477 C 336.208 86.006,334.105 83.984,333.997 83.984 C 333.890 83.984,335.818 86.006,338.281 88.477 M332.415 95.801 C 336.218 99.701,336.719 100.177,336.719 99.895 C 336.719 99.838,334.829 97.948,332.520 95.696 L 328.320 91.602 332.415 95.801 M282.202 99.707 L 281.055 100.977 282.324 99.829 C 283.022 99.198,283.594 98.627,283.594 98.560 C 283.594 98.258,283.271 98.524,282.202 99.707 M72.635 103.418 L 71.289 104.883 72.754 103.537 C 74.117 102.284,74.398 101.953,74.100 101.953 C 74.035 101.953,73.376 102.612,72.635 103.418 M79.077 110.645 L 77.930 111.914 79.199 110.767 C 80.383 109.697,80.648 109.375,80.347 109.375 C 80.279 109.375,79.708 109.946,79.077 110.645 M71.468 118.965 C 71.051 119.468,71.089 119.683,71.692 120.234 C 72.378 120.861,72.389 120.860,71.903 120.215 C 71.492 119.668,71.486 119.414,71.875 118.945 C 72.142 118.623,72.273 118.359,72.166 118.359 C 72.059 118.359,71.745 118.632,71.468 118.965 M321.854 126.465 L 320.508 127.930 321.973 126.584 C 323.336 125.331,323.617 125.000,323.319 125.000 C 323.254 125.000,322.594 125.659,321.854 126.465 M78.516 127.075 C 78.516 127.143,79.087 127.714,79.785 128.345 L 81.055 129.492 79.907 128.223 C 78.838 127.039,78.516 126.774,78.516 127.075 M67.578 130.273 C 68.962 131.670,70.183 132.813,70.290 132.813 C 70.397 132.813,69.353 131.670,67.969 130.273 C 66.585 128.877,65.364 127.734,65.257 127.734 C 65.150 127.734,66.194 128.877,67.578 130.273 M331.046 131.348 L 327.930 134.570 331.152 131.454 C 334.145 128.561,334.553 128.125,334.268 128.125 C 334.209 128.125,332.759 129.575,331.046 131.348 M255.078 132.617 C 255.807 133.369,256.491 133.984,256.599 133.984 C 256.706 133.984,256.198 133.369,255.469 132.617 C 254.740 131.865,254.056 131.250,253.948 131.250 C 253.841 131.250,254.349 131.865,255.078 132.617 M166.186 157.129 L 165.039 158.398 166.309 157.251 C 167.492 156.182,167.758 155.859,167.456 155.859 C 167.389 155.859,166.817 156.431,166.186 157.129 M197.960 160.443 C 198.878 160.525,200.285 160.524,201.085 160.440 C 201.885 160.356,201.133 160.289,199.414 160.290 C 197.695 160.292,197.041 160.360,197.960 160.443 M262.634 183.789 C 262.635 185.508,262.704 186.162,262.787 185.244 C 262.869 184.325,262.868 182.919,262.784 182.119 C 262.700 181.319,262.632 182.070,262.634 183.789 M283.715 186.914 C 283.717 188.203,283.790 188.683,283.877 187.981 C 283.964 187.279,283.962 186.225,283.873 185.638 C 283.784 185.051,283.713 185.625,283.715 186.914 M29.778 191.016 C 29.778 191.768,29.859 192.075,29.957 191.699 C 30.055 191.323,30.055 190.708,29.957 190.332 C 29.859 189.956,29.778 190.264,29.778 191.016 M339.965 191.992 C 339.967 193.281,340.040 193.762,340.127 193.059 C 340.214 192.357,340.212 191.303,340.123 190.716 C 340.034 190.129,339.963 190.703,339.965 191.992 M379.395 192.383 C 379.400 193.242,379.480 193.548,379.573 193.062 C 379.667 192.576,379.663 191.873,379.565 191.499 C 379.467 191.126,379.391 191.523,379.395 192.383 M360.653 201.563 C 360.653 202.529,360.729 202.925,360.823 202.441 C 360.916 201.958,360.916 201.167,360.823 200.684 C 360.729 200.200,360.653 200.596,360.653 201.563 M39.161 205.273 C 39.165 206.133,39.245 206.438,39.339 205.952 C 39.432 205.467,39.429 204.763,39.331 204.390 C 39.233 204.017,39.157 204.414,39.161 205.273 M379.395 206.836 C 379.400 207.695,379.480 208.001,379.573 207.515 C 379.667 207.029,379.663 206.326,379.565 205.952 C 379.467 205.579,379.391 205.977,379.395 206.836 M109.269 212.391 C 109.962 212.478,111.193 212.479,112.003 212.394 C 112.813 212.310,112.246 212.239,110.742 212.238 C 109.238 212.236,108.575 212.305,109.269 212.391 M287.988 212.389 C 288.579 212.479,289.546 212.479,290.137 212.389 C 290.728 212.300,290.244 212.226,289.063 212.226 C 287.881 212.226,287.397 212.300,287.988 212.389 M113.184 222.932 C 113.667 223.025,114.458 223.025,114.941 222.932 C 115.425 222.839,115.029 222.763,114.063 222.763 C 113.096 222.763,112.700 222.839,113.184 222.932 M285.449 222.932 C 285.933 223.025,286.724 223.025,287.207 222.932 C 287.690 222.839,287.295 222.763,286.328 222.763 C 285.361 222.763,284.966 222.839,285.449 222.932 M56.811 239.941 L 55.664 241.211 56.934 240.064 C 58.117 238.994,58.383 238.672,58.081 238.672 C 58.014 238.672,57.442 239.243,56.811 239.941 M345.508 242.578 C 346.347 243.438,347.121 244.141,347.229 244.141 C 347.336 244.141,346.738 243.438,345.898 242.578 C 345.059 241.719,344.285 241.016,344.177 241.016 C 344.070 241.016,344.669 241.719,345.508 242.578 M61.108 249.707 L 59.961 250.977 61.230 249.829 C 62.414 248.760,62.680 248.438,62.378 248.438 C 62.311 248.438,61.739 249.009,61.108 249.707 M341.211 252.344 C 342.487 253.633,343.618 254.688,343.726 254.688 C 343.833 254.688,342.877 253.633,341.602 252.344 C 340.326 251.055,339.194 250.000,339.087 250.000 C 338.980 250.000,339.935 251.055,341.211 252.344 M152.734 256.372 C 152.734 256.439,153.306 257.011,154.004 257.642 L 155.273 258.789 154.126 257.520 C 153.057 256.336,152.734 256.070,152.734 256.372 M312.891 260.352 C 311.942 261.318,311.253 262.109,311.361 262.109 C 311.468 262.109,312.332 261.318,313.281 260.352 C 314.230 259.385,314.919 258.594,314.811 258.594 C 314.704 258.594,313.839 259.385,312.891 260.352 M370.508 262.500 C 371.347 263.359,372.121 264.063,372.229 264.063 C 372.336 264.063,371.738 263.359,370.898 262.500 C 370.059 261.641,369.285 260.938,369.177 260.938 C 369.070 260.938,369.669 261.641,370.508 262.500 M87.891 261.450 C 87.891 261.518,88.462 262.089,89.160 262.720 L 90.430 263.867 89.282 262.598 C 88.213 261.414,87.891 261.149,87.891 261.450 M146.680 266.406 C 148.172 267.910,149.481 269.141,149.588 269.141 C 149.696 269.141,148.563 267.910,147.070 266.406 C 145.578 264.902,144.269 263.672,144.162 263.672 C 144.054 263.672,145.187 264.902,146.680 266.406 M252.344 266.992 C 251.395 267.959,250.706 268.750,250.814 268.750 C 250.921 268.750,251.786 267.959,252.734 266.992 C 253.683 266.025,254.372 265.234,254.264 265.234 C 254.157 265.234,253.293 266.025,252.344 266.992 M37.870 269.824 L 36.523 271.289 37.988 269.943 C 38.794 269.203,39.453 268.543,39.453 268.478 C 39.453 268.180,39.123 268.461,37.870 269.824 M69.124 289.551 C 70.082 290.571,70.917 291.406,70.980 291.406 C 71.273 291.406,70.963 291.056,69.238 289.437 L 67.383 287.695 69.124 289.551 M72.266 292.700 C 72.266 292.768,72.837 293.339,73.535 293.970 L 74.805 295.117 73.657 293.848 C 72.588 292.664,72.266 292.399,72.266 292.700 M292.578 292.700 C 292.578 292.768,293.149 293.339,293.848 293.970 L 295.117 295.117 293.970 293.848 C 292.900 292.664,292.578 292.399,292.578 292.700 M120.301 315.527 L 117.773 318.164 120.410 315.636 C 121.860 314.246,123.047 313.059,123.047 313.000 C 123.047 312.712,122.649 313.078,120.301 315.527 M278.906 314.966 C 278.906 315.033,279.478 315.604,280.176 316.236 L 281.445 317.383 280.298 316.113 C 279.229 314.930,278.906 314.664,278.906 314.966 M62.109 315.747 C 62.109 315.814,62.681 316.386,63.379 317.017 L 64.648 318.164 63.501 316.895 C 62.432 315.711,62.109 315.445,62.109 315.747 M198.535 328.803 C 199.556 328.883,201.226 328.883,202.246 328.803 C 203.267 328.722,202.432 328.656,200.391 328.656 C 198.350 328.656,197.515 328.722,198.535 328.803 M197.754 355.367 C 198.989 355.444,201.011 355.444,202.246 355.367 C 203.481 355.289,202.471 355.226,200.000 355.226 C 197.529 355.226,196.519 355.289,197.754 355.367 M134.082 361.222 C 134.888 361.306,136.206 361.306,137.012 361.222 C 137.817 361.138,137.158 361.069,135.547 361.069 C 133.936 361.069,133.276 361.138,134.082 361.222 M204.395 365.113 C 204.771 365.211,205.386 365.211,205.762 365.113 C 206.138 365.015,205.830 364.934,205.078 364.934 C 204.326 364.934,204.019 365.015,204.395 365.113 " stroke="none" fill="#5d5d5e" fill-rule="evenodd"></path><path id="path3" d="M194.829 34.651 C 195.315 34.745,196.018 34.741,196.391 34.643 C 196.765 34.546,196.367 34.469,195.508 34.474 C 194.648 34.478,194.343 34.558,194.829 34.651 M204.204 34.651 C 204.690 34.745,205.393 34.741,205.766 34.643 C 206.140 34.546,205.742 34.469,204.883 34.474 C 204.023 34.478,203.718 34.558,204.204 34.651 M196.394 44.424 C 197.096 44.511,198.150 44.509,198.737 44.420 C 199.324 44.331,198.750 44.259,197.461 44.262 C 196.172 44.264,195.692 44.337,196.394 44.424 M204.395 44.410 C 204.771 44.508,205.386 44.508,205.762 44.410 C 206.138 44.312,205.830 44.231,205.078 44.231 C 204.326 44.231,204.019 44.312,204.395 44.410 M195.605 56.916 C 196.089 57.009,196.880 57.009,197.363 56.916 C 197.847 56.823,197.451 56.747,196.484 56.747 C 195.518 56.747,195.122 56.823,195.605 56.916 M203.613 67.066 C 203.989 67.164,204.604 67.164,204.980 67.066 C 205.356 66.968,205.049 66.888,204.297 66.888 C 203.545 66.888,203.237 66.968,203.613 67.066 M140.234 74.717 C 140.234 74.776,141.597 76.138,143.262 77.744 L 146.289 80.664 143.369 77.637 C 140.657 74.825,140.234 74.431,140.234 74.717 M59.955 89.551 L 54.883 94.727 60.059 89.654 C 64.866 84.942,65.411 84.375,65.131 84.375 C 65.074 84.375,62.745 86.704,59.955 89.551 M138.281 86.914 C 139.010 87.666,139.694 88.281,139.802 88.281 C 139.909 88.281,139.401 87.666,138.672 86.914 C 137.943 86.162,137.259 85.547,137.151 85.547 C 137.044 85.547,137.552 86.162,138.281 86.914 M70.099 93.066 L 68.555 94.727 70.215 93.182 C 71.128 92.333,71.875 91.586,71.875 91.522 C 71.875 91.227,71.535 91.522,70.099 93.066 M64.844 98.242 C 63.895 99.209,63.206 100.000,63.314 100.000 C 63.421 100.000,64.286 99.209,65.234 98.242 C 66.183 97.275,66.872 96.484,66.764 96.484 C 66.657 96.484,65.793 97.275,64.844 98.242 M75.568 100.488 L 74.023 102.148 75.684 100.604 C 76.597 99.755,77.344 99.008,77.344 98.944 C 77.344 98.649,77.004 98.944,75.568 100.488 M323.828 100.122 C 323.828 100.189,324.399 100.761,325.098 101.392 L 326.367 102.539 325.220 101.270 C 324.150 100.086,323.828 99.820,323.828 100.122 M328.711 105.078 C 329.550 105.938,330.325 106.641,330.432 106.641 C 330.539 106.641,329.941 105.938,329.102 105.078 C 328.262 104.219,327.488 103.516,327.381 103.516 C 327.273 103.516,327.872 104.219,328.711 105.078 M69.321 106.738 L 67.383 108.789 69.434 106.851 C 71.339 105.049,71.664 104.688,71.372 104.688 C 71.310 104.688,70.387 105.610,69.321 106.738 M322.640 112.988 C 323.598 114.009,324.433 114.844,324.495 114.844 C 324.789 114.844,324.479 114.493,322.754 112.874 L 320.898 111.133 322.640 112.988 M75.958 114.160 L 74.414 115.820 76.074 114.276 C 77.618 112.840,77.914 112.500,77.618 112.500 C 77.555 112.500,76.807 113.247,75.958 114.160 M89.832 120.996 L 87.305 123.633 89.941 121.105 C 91.392 119.715,92.578 118.528,92.578 118.468 C 92.578 118.181,92.180 118.547,89.832 120.996 M57.813 120.420 C 57.813 120.479,59.175 121.841,60.840 123.447 L 63.867 126.367 60.947 123.340 C 58.235 120.528,57.813 120.134,57.813 120.420 M74.609 123.242 C 75.993 124.639,77.214 125.781,77.321 125.781 C 77.429 125.781,76.384 124.639,75.000 123.242 C 73.616 121.846,72.396 120.703,72.288 120.703 C 72.181 120.703,73.225 121.846,74.609 123.242 M325.181 123.145 L 323.242 125.195 325.293 123.257 C 327.199 121.456,327.523 121.094,327.231 121.094 C 327.170 121.094,326.247 122.017,325.181 123.145 M336.511 125.879 L 334.180 128.320 336.621 125.989 C 337.964 124.706,339.063 123.608,339.063 123.547 C 339.063 123.259,338.677 123.611,336.511 125.879 M246.875 124.732 C 246.875 124.799,247.446 125.370,248.145 126.001 L 249.414 127.148 248.267 125.879 C 247.197 124.696,246.875 124.430,246.875 124.732 M149.389 127.832 L 148.242 129.102 149.512 127.954 C 150.695 126.885,150.961 126.563,150.659 126.563 C 150.592 126.563,150.021 127.134,149.389 127.832 M238.672 131.763 C 238.672 131.830,239.243 132.401,239.941 133.032 L 241.211 134.180 240.064 132.910 C 238.994 131.727,238.672 131.461,238.672 131.763 M72.656 135.352 C 73.385 136.104,74.069 136.719,74.177 136.719 C 74.284 136.719,73.776 136.104,73.047 135.352 C 72.318 134.600,71.634 133.984,71.526 133.984 C 71.419 133.984,71.927 134.600,72.656 135.352 M156.250 136.133 C 155.301 137.100,154.613 137.891,154.720 137.891 C 154.828 137.891,155.692 137.100,156.641 136.133 C 157.589 135.166,158.278 134.375,158.170 134.375 C 158.063 134.375,157.199 135.166,156.250 136.133 M56.250 134.888 C 56.250 134.955,56.821 135.526,57.520 136.157 L 58.789 137.305 57.642 136.035 C 56.572 134.852,56.250 134.586,56.250 134.888 M255.639 145.410 L 254.492 146.680 255.762 145.532 C 256.460 144.901,257.031 144.330,257.031 144.263 C 257.031 143.961,256.709 144.227,255.639 145.410 M198.159 145.211 C 199.402 145.289,201.336 145.288,202.456 145.209 C 203.576 145.131,202.559 145.067,200.195 145.068 C 197.832 145.069,196.916 145.133,198.159 145.211 M112.407 146.761 C 112.893 146.854,113.596 146.851,113.969 146.753 C 114.343 146.655,113.945 146.579,113.086 146.583 C 112.227 146.587,111.921 146.667,112.407 146.761 M285.449 146.760 C 285.933 146.853,286.724 146.853,287.207 146.760 C 287.690 146.667,287.295 146.591,286.328 146.591 C 285.361 146.591,284.966 146.667,285.449 146.760 M233.594 155.982 C 233.594 156.049,234.165 156.620,234.863 157.251 L 236.133 158.398 234.986 157.129 C 233.916 155.946,233.594 155.680,233.594 155.982 M129.688 165.039 C 130.416 165.791,131.101 166.406,131.208 166.406 C 131.315 166.406,130.807 165.791,130.078 165.039 C 129.349 164.287,128.665 163.672,128.558 163.672 C 128.450 163.672,128.959 164.287,129.688 165.039 M158.705 174.805 C 158.708 175.879,158.784 176.272,158.874 175.678 C 158.964 175.084,158.961 174.206,158.869 173.725 C 158.776 173.245,158.703 173.730,158.705 174.805 M175.497 174.609 C 175.497 175.576,175.573 175.972,175.666 175.488 C 175.759 175.005,175.759 174.214,175.666 173.730 C 175.573 173.247,175.497 173.643,175.497 174.609 M116.106 180.859 C 116.106 181.611,116.187 181.919,116.285 181.543 C 116.383 181.167,116.383 180.552,116.285 180.176 C 116.187 179.800,116.106 180.107,116.106 180.859 M252.092 183.789 C 252.091 185.723,252.157 186.563,252.239 185.656 C 252.320 184.750,252.321 183.168,252.241 182.141 C 252.160 181.114,252.093 181.855,252.092 183.789 M147.773 183.984 C 147.773 185.166,147.847 185.649,147.936 185.059 C 148.026 184.468,148.026 183.501,147.936 182.910 C 147.847 182.319,147.773 182.803,147.773 183.984 M59.904 191.602 C 59.903 193.535,59.969 194.375,60.051 193.469 C 60.133 192.562,60.134 190.980,60.053 189.953 C 59.972 188.926,59.905 189.668,59.904 191.602 M164.844 191.211 C 165.573 191.963,166.257 192.578,166.364 192.578 C 166.472 192.578,165.963 191.963,165.234 191.211 C 164.506 190.459,163.821 189.844,163.714 189.844 C 163.607 189.844,164.115 190.459,164.844 191.211 M20.438 192.578 C 20.438 193.975,20.508 194.546,20.595 193.848 C 20.682 193.149,20.682 192.007,20.595 191.309 C 20.508 190.610,20.438 191.182,20.438 192.578 M370.013 191.797 C 370.013 192.549,370.093 192.856,370.191 192.480 C 370.289 192.104,370.289 191.489,370.191 191.113 C 370.093 190.737,370.013 191.045,370.013 191.797 M39.174 194.727 C 39.177 195.801,39.253 196.194,39.343 195.600 C 39.433 195.006,39.430 194.127,39.337 193.647 C 39.245 193.167,39.171 193.652,39.174 194.727 M379.454 199.609 C 379.454 202.939,379.514 204.302,379.587 202.637 C 379.660 200.972,379.660 198.247,379.587 196.582 C 379.514 194.917,379.454 196.279,379.454 199.609 M29.414 197.266 C 29.414 198.447,29.487 198.931,29.577 198.340 C 29.666 197.749,29.666 196.782,29.577 196.191 C 29.487 195.601,29.414 196.084,29.414 197.266 M360.672 197.656 C 360.672 199.053,360.743 199.624,360.829 198.926 C 360.916 198.228,360.916 197.085,360.829 196.387 C 360.743 195.688,360.672 196.260,360.672 197.656 M39.196 200.977 C 39.198 202.695,39.267 203.350,39.349 202.431 C 39.432 201.512,39.430 200.106,39.346 199.306 C 39.263 198.506,39.195 199.258,39.196 200.977 M234.570 200.391 C 235.409 201.250,236.184 201.953,236.291 201.953 C 236.399 201.953,235.800 201.250,234.961 200.391 C 234.122 199.531,233.347 198.828,233.240 198.828 C 233.132 198.828,233.731 199.531,234.570 200.391 M11.078 202.734 C 11.078 204.775,11.144 205.610,11.225 204.590 C 11.305 203.569,11.305 201.899,11.225 200.879 C 11.144 199.858,11.078 200.693,11.078 202.734 M271.484 205.664 C 272.213 206.416,272.897 207.031,273.005 207.031 C 273.112 207.031,272.604 206.416,271.875 205.664 C 271.146 204.912,270.462 204.297,270.355 204.297 C 270.247 204.297,270.756 204.912,271.484 205.664 M20.444 207.422 C 20.444 209.033,20.513 209.692,20.597 208.887 C 20.681 208.081,20.681 206.763,20.597 205.957 C 20.513 205.151,20.444 205.811,20.444 207.422 M29.778 208.203 C 29.778 208.955,29.859 209.263,29.957 208.887 C 30.055 208.511,30.055 207.896,29.957 207.520 C 29.859 207.144,29.778 207.451,29.778 208.203 M175.000 223.633 C 176.167 224.814,177.210 225.781,177.317 225.781 C 177.424 225.781,176.558 224.814,175.391 223.633 C 174.224 222.451,173.181 221.484,173.074 221.484 C 172.966 221.484,173.833 222.451,175.000 223.633 M108.301 223.316 C 108.677 223.414,109.292 223.414,109.668 223.316 C 110.044 223.218,109.736 223.138,108.984 223.138 C 108.232 223.138,107.925 223.218,108.301 223.316 M289.941 223.316 C 290.317 223.414,290.933 223.414,291.309 223.316 C 291.685 223.218,291.377 223.138,290.625 223.138 C 289.873 223.138,289.565 223.218,289.941 223.316 M162.093 234.082 C 163.712 235.807,164.063 236.117,164.063 235.824 C 164.063 235.761,163.228 234.926,162.207 233.968 L 160.352 232.227 162.093 234.082 M200.098 233.092 C 200.688 233.182,201.655 233.182,202.246 233.092 C 202.837 233.003,202.354 232.930,201.172 232.930 C 199.990 232.930,199.507 233.003,200.098 233.092 M234.161 236.426 L 232.617 238.086 234.277 236.542 C 235.190 235.693,235.938 234.945,235.938 234.882 C 235.938 234.586,235.597 234.882,234.161 236.426 M341.797 238.794 C 341.797 238.861,342.368 239.433,343.066 240.064 L 344.336 241.211 343.189 239.941 C 342.119 238.758,341.797 238.492,341.797 238.794 M50.568 245.801 L 49.023 247.461 50.684 245.917 C 52.228 244.481,52.523 244.141,52.228 244.141 C 52.164 244.141,51.417 244.888,50.568 245.801 M64.233 246.973 L 63.086 248.242 64.355 247.095 C 65.539 246.025,65.805 245.703,65.503 245.703 C 65.436 245.703,64.864 246.274,64.233 246.973 M197.949 247.944 C 199.077 248.023,200.923 248.023,202.051 247.944 C 203.179 247.865,202.256 247.801,200.000 247.801 C 197.744 247.801,196.821 247.865,197.949 247.944 M353.711 250.781 C 354.550 251.641,355.325 252.344,355.432 252.344 C 355.539 252.344,354.941 251.641,354.102 250.781 C 353.262 249.922,352.488 249.219,352.381 249.219 C 352.273 249.219,352.872 249.922,353.711 250.781 M95.898 253.906 C 97.607 255.625,99.093 257.031,99.200 257.031 C 99.308 257.031,97.998 255.625,96.289 253.906 C 94.580 252.188,93.095 250.781,92.987 250.781 C 92.880 250.781,94.190 252.188,95.898 253.906 M44.120 252.637 L 42.773 254.102 44.238 252.755 C 45.602 251.502,45.883 251.172,45.584 251.172 C 45.519 251.172,44.860 251.831,44.120 252.637 M303.699 254.004 L 301.367 256.445 303.809 254.114 C 305.151 252.831,306.250 251.733,306.250 251.672 C 306.250 251.384,305.864 251.736,303.699 254.004 M243.530 259.473 L 242.383 260.742 243.652 259.595 C 244.351 258.964,244.922 258.393,244.922 258.325 C 244.922 258.024,244.600 258.289,243.530 259.473 M359.533 268.420 C 359.353 268.711,359.427 268.764,359.742 268.569 C 360.050 268.379,360.897 268.895,362.048 269.974 L 363.867 271.680 362.126 269.824 C 360.284 267.862,359.980 267.697,359.533 268.420 M108.120 276.635 C 108.477 276.993,108.428 277.283,107.905 277.905 C 107.228 278.709,107.229 278.709,108.104 277.968 C 108.905 277.290,108.766 276.172,107.882 276.172 C 107.758 276.172,107.865 276.380,108.120 276.635 M291.246 276.896 C 291.133 277.080,291.518 277.651,292.102 278.166 L 293.164 279.102 292.282 278.096 C 291.796 277.543,291.518 276.972,291.663 276.826 C 291.808 276.681,291.820 276.563,291.690 276.563 C 291.559 276.563,291.360 276.713,291.246 276.896 M322.452 282.520 L 319.336 285.742 322.559 282.626 C 325.552 279.732,325.959 279.297,325.674 279.297 C 325.616 279.297,324.165 280.747,322.452 282.520 M296.468 282.129 C 297.426 283.149,298.261 283.984,298.324 283.984 C 298.617 283.984,298.307 283.634,296.582 282.015 L 294.727 280.273 296.468 282.129 M78.711 283.984 C 79.769 285.059,80.723 285.938,80.830 285.938 C 80.937 285.938,80.160 285.059,79.102 283.984 C 78.043 282.910,77.090 282.031,76.982 282.031 C 76.875 282.031,77.653 282.910,78.711 283.984 M99.389 285.645 L 98.242 286.914 99.512 285.767 C 100.695 284.697,100.961 284.375,100.659 284.375 C 100.592 284.375,100.021 284.946,99.389 285.645 M300.391 286.060 C 300.391 286.127,300.962 286.698,301.660 287.329 L 302.930 288.477 301.782 287.207 C 300.713 286.024,300.391 285.758,300.391 286.060 M286.719 286.826 C 286.719 286.885,288.081 288.248,289.746 289.854 L 292.773 292.773 289.854 289.746 C 287.142 286.934,286.719 286.541,286.719 286.826 M329.871 290.332 L 327.539 292.773 329.980 290.442 C 331.323 289.160,332.422 288.061,332.422 288.001 C 332.422 287.712,332.036 288.064,329.871 290.332 M105.057 294.824 L 103.711 296.289 105.176 294.943 C 106.539 293.690,106.820 293.359,106.522 293.359 C 106.457 293.359,105.797 294.019,105.057 294.824 M331.825 307.520 L 329.102 310.352 331.934 307.628 C 334.564 305.098,334.944 304.688,334.657 304.688 C 334.598 304.688,333.324 305.962,331.825 307.520 M286.133 307.813 C 287.408 309.102,288.540 310.156,288.647 310.156 C 288.755 310.156,287.799 309.102,286.523 307.813 C 285.248 306.523,284.116 305.469,284.009 305.469 C 283.901 305.469,284.857 306.523,286.133 307.813 M111.114 310.254 L 109.570 311.914 111.230 310.370 C 112.774 308.934,113.070 308.594,112.775 308.594 C 112.711 308.594,111.964 309.341,111.114 310.254 M59.961 313.672 C 61.019 314.746,61.973 315.625,62.080 315.625 C 62.187 315.625,61.410 314.746,60.352 313.672 C 59.293 312.598,58.340 311.719,58.232 311.719 C 58.125 311.719,58.903 312.598,59.961 313.672 M336.517 316.895 L 332.227 321.289 336.621 316.999 C 339.038 314.639,341.016 312.662,341.016 312.604 C 341.016 312.323,340.502 312.813,336.517 316.895 M324.588 314.746 L 323.242 316.211 324.707 314.865 C 326.070 313.612,326.351 313.281,326.053 313.281 C 325.988 313.281,325.329 313.940,324.588 314.746 M66.016 319.653 C 66.016 319.721,66.587 320.292,67.285 320.923 L 68.555 322.070 67.407 320.801 C 66.338 319.617,66.016 319.352,66.016 319.653 M191.895 339.332 C 192.271 339.430,192.886 339.430,193.262 339.332 C 193.638 339.234,193.330 339.153,192.578 339.153 C 191.826 339.153,191.519 339.234,191.895 339.332 M141.523 361.229 C 143.414 361.300,146.402 361.300,148.164 361.228 C 149.926 361.156,148.379 361.097,144.727 361.097 C 141.074 361.098,139.633 361.157,141.523 361.229 M254.199 361.229 C 256.187 361.299,259.438 361.299,261.426 361.229 C 263.413 361.158,261.787 361.100,257.813 361.100 C 253.838 361.100,252.212 361.158,254.199 361.229 " stroke="none" fill="#2e2e2e" fill-rule="evenodd"></path><path id="path4" d="M192.871 35.041 C 193.354 35.134,194.146 35.134,194.629 35.041 C 195.112 34.948,194.717 34.872,193.750 34.872 C 192.783 34.872,192.388 34.948,192.871 35.041 M205.957 35.035 C 206.333 35.133,206.948 35.133,207.324 35.035 C 207.700 34.937,207.393 34.856,206.641 34.856 C 205.889 34.856,205.581 34.937,205.957 35.035 M189.551 35.426 C 189.927 35.524,190.542 35.524,190.918 35.426 C 191.294 35.327,190.986 35.247,190.234 35.247 C 189.482 35.247,189.175 35.327,189.551 35.426 M138.721 40.804 C 138.988 41.072,152.760 41.120,153.026 40.854 C 153.152 40.728,149.945 40.625,145.898 40.625 C 141.852 40.625,138.622 40.705,138.721 40.804 M247.265 40.918 C 247.265 41.079,249.506 41.165,252.245 41.109 C 261.464 40.921,262.352 40.778,254.785 40.702 C 250.649 40.659,247.265 40.757,247.265 40.918 M197.949 44.039 C 199.292 44.115,201.489 44.115,202.832 44.039 C 204.175 43.963,203.076 43.901,200.391 43.901 C 197.705 43.901,196.606 43.963,197.949 44.039 M194.629 57.301 C 195.005 57.399,195.620 57.399,195.996 57.301 C 196.372 57.202,196.064 57.122,195.313 57.122 C 194.561 57.122,194.253 57.202,194.629 57.301 M204.594 57.308 C 205.080 57.401,205.783 57.397,206.157 57.300 C 206.530 57.202,206.133 57.125,205.273 57.130 C 204.414 57.134,204.108 57.214,204.594 57.308 M198.940 66.695 C 200.183 66.773,202.117 66.772,203.237 66.694 C 204.357 66.615,203.340 66.551,200.977 66.552 C 198.613 66.553,197.697 66.618,198.940 66.695 M259.936 74.707 L 258.789 75.977 260.059 74.829 C 260.757 74.198,261.328 73.627,261.328 73.560 C 261.328 73.258,261.006 73.524,259.936 74.707 M143.164 78.125 C 144.003 78.984,144.778 79.688,144.885 79.688 C 144.993 79.688,144.394 78.984,143.555 78.125 C 142.716 77.266,141.941 76.563,141.834 76.563 C 141.726 76.563,142.325 77.266,143.164 78.125 M254.468 80.176 L 253.320 81.445 254.590 80.298 C 255.288 79.667,255.859 79.096,255.859 79.028 C 255.859 78.727,255.537 78.992,254.468 80.176 M264.442 83.887 L 261.914 86.523 264.551 83.996 C 267.000 81.648,267.366 81.250,267.079 81.250 C 267.019 81.250,265.832 82.437,264.442 83.887 M63.672 86.133 C 62.071 87.744,60.850 89.063,60.957 89.063 C 61.064 89.063,62.462 87.744,64.063 86.133 C 65.663 84.521,66.885 83.203,66.777 83.203 C 66.670 83.203,65.272 84.521,63.672 86.133 M139.046 87.207 C 140.665 88.932,141.016 89.242,141.016 88.949 C 141.016 88.886,140.181 88.051,139.160 87.093 L 137.305 85.352 139.046 87.207 M322.266 86.060 C 322.266 86.127,322.837 86.698,323.535 87.329 L 324.805 88.477 323.657 87.207 C 322.588 86.024,322.266 85.758,322.266 86.060 M326.953 90.430 C 327.682 91.182,328.366 91.797,328.474 91.797 C 328.581 91.797,328.073 91.182,327.344 90.430 C 326.615 89.678,325.931 89.063,325.823 89.063 C 325.716 89.063,326.224 89.678,326.953 90.430 M57.020 92.871 L 54.492 95.508 57.129 92.980 C 58.579 91.590,59.766 90.403,59.766 90.343 C 59.766 90.056,59.368 90.422,57.020 92.871 M67.375 95.410 L 63.477 99.414 67.480 95.515 C 71.199 91.894,71.662 91.406,71.379 91.406 C 71.322 91.406,69.520 93.208,67.375 95.410 M125.374 93.848 C 126.993 95.572,127.344 95.882,127.344 95.589 C 127.344 95.526,126.509 94.691,125.488 93.734 L 123.633 91.992 125.374 93.848 M274.219 93.945 C 273.270 94.912,272.581 95.703,272.689 95.703 C 272.796 95.703,273.661 94.912,274.609 93.945 C 275.558 92.979,276.247 92.188,276.139 92.188 C 276.032 92.188,275.168 92.979,274.219 93.945 M342.969 93.482 C 342.969 93.549,343.540 94.120,344.238 94.751 L 345.508 95.898 344.361 94.629 C 343.291 93.446,342.969 93.180,342.969 93.482 M52.905 97.363 L 51.758 98.633 53.027 97.486 C 54.211 96.416,54.476 96.094,54.175 96.094 C 54.107 96.094,53.536 96.665,52.905 97.363 M130.078 98.560 C 130.078 98.627,130.649 99.198,131.348 99.829 L 132.617 100.977 131.470 99.707 C 130.400 98.524,130.078 98.258,130.078 98.560 M323.438 100.195 C 324.166 100.947,324.851 101.563,324.958 101.563 C 325.065 101.563,324.557 100.947,323.828 100.195 C 323.099 99.443,322.415 98.828,322.308 98.828 C 322.200 98.828,322.709 99.443,323.438 100.195 M119.094 101.236 C 119.925 102.146,120.292 102.857,120.104 103.189 C 119.863 103.612,119.908 103.617,120.340 103.216 C 120.783 102.804,120.614 102.477,119.330 101.263 L 117.788 99.805 119.094 101.236 M336.719 100.122 C 336.719 100.189,337.290 100.761,337.988 101.392 L 339.258 102.539 338.111 101.270 C 337.041 100.086,336.719 99.820,336.719 100.122 M60.724 102.441 L 59.180 104.102 60.840 102.557 C 62.384 101.121,62.680 100.781,62.384 100.781 C 62.320 100.781,61.573 101.528,60.724 102.441 M280.080 101.756 C 279.576 102.293,279.238 102.797,279.328 102.877 C 279.418 102.957,279.901 102.518,280.401 101.902 C 281.519 100.523,281.322 100.434,280.080 101.756 M282.168 104.445 C 282.590 104.784,282.768 105.225,282.596 105.503 C 282.408 105.808,282.464 105.879,282.752 105.701 C 283.447 105.272,283.291 104.757,282.324 104.289 C 281.503 103.891,281.493 103.902,282.168 104.445 M82.212 107.520 L 80.273 109.570 82.324 107.632 C 84.230 105.831,84.554 105.469,84.263 105.469 C 84.201 105.469,83.278 106.392,82.212 107.520 M319.922 109.961 C 322.386 112.432,324.489 114.453,324.597 114.453 C 324.704 114.453,322.776 112.432,320.313 109.961 C 317.849 107.490,315.745 105.469,315.638 105.469 C 315.530 105.469,317.458 107.490,319.922 109.961 M330.273 107.031 C 331.113 107.891,331.887 108.594,331.994 108.594 C 332.102 108.594,331.503 107.891,330.664 107.031 C 329.825 106.172,329.050 105.469,328.943 105.469 C 328.836 105.469,329.434 106.172,330.273 107.031 M68.359 108.008 C 67.411 108.975,66.722 109.766,66.830 109.766 C 66.937 109.766,67.801 108.975,68.750 108.008 C 69.699 107.041,70.387 106.250,70.280 106.250 C 70.172 106.250,69.308 107.041,68.359 108.008 M76.172 113.477 C 75.223 114.443,74.535 115.234,74.642 115.234 C 74.749 115.234,75.614 114.443,76.563 113.477 C 77.511 112.510,78.200 111.719,78.092 111.719 C 77.985 111.719,77.121 112.510,76.172 113.477 M310.156 121.680 C 311.323 122.861,312.366 123.828,312.473 123.828 C 312.581 123.828,311.714 122.861,310.547 121.680 C 309.380 120.498,308.337 119.531,308.230 119.531 C 308.122 119.531,308.989 120.498,310.156 121.680 M60.156 122.461 C 61.540 123.857,62.761 125.000,62.868 125.000 C 62.975 125.000,61.931 123.857,60.547 122.461 C 59.163 121.064,57.942 119.922,57.835 119.922 C 57.728 119.922,58.772 121.064,60.156 122.461 M74.805 123.828 C 76.080 125.117,77.212 126.172,77.319 126.172 C 77.427 126.172,76.471 125.117,75.195 123.828 C 73.920 122.539,72.788 121.484,72.681 121.484 C 72.573 121.484,73.529 122.539,74.805 123.828 M325.177 123.535 L 323.633 125.195 325.293 123.651 C 326.837 122.215,327.133 121.875,326.837 121.875 C 326.773 121.875,326.026 122.622,325.177 123.535 M337.294 124.707 L 334.570 127.539 337.402 124.815 C 338.960 123.317,340.234 122.043,340.234 121.983 C 340.234 121.697,339.824 122.077,337.294 124.707 M246.094 124.341 C 246.094 124.408,246.665 124.979,247.363 125.611 L 248.633 126.758 247.486 125.488 C 246.416 124.305,246.094 124.039,246.094 124.341 M300.586 126.953 C 301.425 127.813,302.200 128.516,302.307 128.516 C 302.414 128.516,301.816 127.813,300.977 126.953 C 300.137 126.094,299.363 125.391,299.256 125.391 C 299.148 125.391,299.747 126.094,300.586 126.953 M149.979 127.637 L 148.633 129.102 150.098 127.755 C 150.903 127.015,151.563 126.356,151.563 126.291 C 151.563 125.992,151.232 126.273,149.979 127.637 M251.563 129.492 C 252.291 130.244,252.976 130.859,253.083 130.859 C 253.190 130.859,252.682 130.244,251.953 129.492 C 251.224 128.740,250.540 128.125,250.433 128.125 C 250.325 128.125,250.834 128.740,251.563 129.492 M80.859 129.419 C 80.859 129.486,81.431 130.058,82.129 130.689 L 83.398 131.836 82.251 130.566 C 81.182 129.383,80.859 129.117,80.859 129.419 M144.129 133.105 L 141.602 135.742 144.238 133.214 C 145.688 131.824,146.875 130.638,146.875 130.578 C 146.875 130.290,146.477 130.656,144.129 133.105 M73.047 135.352 C 73.776 136.104,74.460 136.719,74.567 136.719 C 74.675 136.719,74.166 136.104,73.438 135.352 C 72.709 134.600,72.024 133.984,71.917 133.984 C 71.810 133.984,72.318 134.600,73.047 135.352 M56.641 135.742 C 57.369 136.494,58.054 137.109,58.161 137.109 C 58.268 137.109,57.760 136.494,57.031 135.742 C 56.302 134.990,55.618 134.375,55.511 134.375 C 55.403 134.375,55.912 134.990,56.641 135.742 M154.297 137.695 C 152.696 139.307,151.475 140.625,151.582 140.625 C 151.689 140.625,153.087 139.307,154.688 137.695 C 156.288 136.084,157.510 134.766,157.402 134.766 C 157.295 134.766,155.897 136.084,154.297 137.695 M257.813 135.669 C 257.813 135.736,258.384 136.308,259.082 136.939 L 260.352 138.086 259.204 136.816 C 258.135 135.633,257.813 135.367,257.813 135.669 M244.141 136.450 C 244.141 136.518,244.712 137.089,245.410 137.720 L 246.680 138.867 245.532 137.598 C 244.463 136.414,244.141 136.149,244.141 136.450 M249.023 141.406 C 249.863 142.266,250.637 142.969,250.744 142.969 C 250.852 142.969,250.253 142.266,249.414 141.406 C 248.575 140.547,247.800 139.844,247.693 139.844 C 247.586 139.844,248.184 140.547,249.023 141.406 M143.945 145.313 C 144.784 146.172,145.559 146.875,145.666 146.875 C 145.774 146.875,145.175 146.172,144.336 145.313 C 143.497 144.453,142.722 143.750,142.615 143.750 C 142.507 143.750,143.106 144.453,143.945 145.313 M195.597 145.594 C 196.290 145.681,197.521 145.682,198.331 145.598 C 199.142 145.513,198.574 145.442,197.070 145.441 C 195.566 145.439,194.903 145.508,195.597 145.594 M202.441 145.592 C 203.032 145.682,203.999 145.682,204.590 145.592 C 205.181 145.503,204.697 145.430,203.516 145.430 C 202.334 145.430,201.851 145.503,202.441 145.592 M113.379 147.144 C 113.755 147.243,114.370 147.243,114.746 147.144 C 115.122 147.046,114.814 146.966,114.063 146.966 C 113.311 146.966,113.003 147.046,113.379 147.144 M284.668 147.151 C 285.151 147.244,285.942 147.244,286.426 147.151 C 286.909 147.058,286.514 146.981,285.547 146.981 C 284.580 146.981,284.185 147.058,284.668 147.151 M279.102 148.047 C 278.609 148.258,278.537 148.383,278.906 148.383 C 279.229 148.383,279.844 148.232,280.273 148.047 C 280.766 147.835,280.838 147.711,280.469 147.711 C 280.146 147.711,279.531 147.862,279.102 148.047 M69.531 152.930 C 70.698 154.111,71.741 155.078,71.848 155.078 C 71.956 155.078,71.089 154.111,69.922 152.930 C 68.755 151.748,67.712 150.781,67.605 150.781 C 67.497 150.781,68.364 151.748,69.531 152.930 M325.962 156.738 L 324.023 158.789 326.074 156.851 C 327.980 155.049,328.304 154.688,328.013 154.688 C 327.951 154.688,327.028 155.610,325.962 156.738 M233.594 156.445 C 234.323 157.197,235.007 157.813,235.114 157.813 C 235.222 157.813,234.713 157.197,233.984 156.445 C 233.256 155.693,232.571 155.078,232.464 155.078 C 232.357 155.078,232.865 155.693,233.594 156.445 M136.328 157.227 C 137.057 157.979,137.741 158.594,137.849 158.594 C 137.956 158.594,137.448 157.979,136.719 157.227 C 135.990 156.475,135.306 155.859,135.198 155.859 C 135.091 155.859,135.599 156.475,136.328 157.227 M112.407 157.308 C 112.893 157.401,113.596 157.397,113.969 157.300 C 114.343 157.202,113.945 157.125,113.086 157.130 C 112.227 157.134,111.921 157.214,112.407 157.308 M285.840 157.307 C 286.323 157.400,287.114 157.400,287.598 157.307 C 288.081 157.214,287.686 157.138,286.719 157.138 C 285.752 157.138,285.356 157.214,285.840 157.307 M270.874 163.770 L 269.727 165.039 270.996 163.892 C 271.694 163.261,272.266 162.689,272.266 162.622 C 272.266 162.320,271.943 162.586,270.874 163.770 M159.121 175.391 C 159.121 177.217,159.188 177.964,159.270 177.051 C 159.353 176.138,159.353 174.644,159.270 173.730 C 159.188 172.817,159.121 173.564,159.121 175.391 M175.106 174.609 C 175.106 175.576,175.183 175.972,175.276 175.488 C 175.369 175.005,175.369 174.214,175.276 173.730 C 175.183 173.247,175.106 173.643,175.106 174.609 M137.255 183.789 C 137.256 186.152,137.321 187.069,137.398 185.826 C 137.476 184.582,137.476 182.649,137.397 181.529 C 137.318 180.409,137.255 181.426,137.255 183.789 M176.563 179.810 C 176.563 179.877,177.134 180.448,177.832 181.079 L 179.102 182.227 177.954 180.957 C 176.885 179.774,176.563 179.508,176.563 179.810 M147.400 183.789 C 147.401 185.508,147.470 186.162,147.552 185.244 C 147.635 184.325,147.634 182.919,147.550 182.119 C 147.466 181.319,147.398 182.070,147.400 183.789 M283.684 183.594 C 283.684 184.346,283.765 184.653,283.863 184.277 C 283.961 183.901,283.961 183.286,283.863 182.910 C 283.765 182.534,283.684 182.842,283.684 183.594 M115.774 187.305 C 115.775 189.883,115.838 190.887,115.915 189.535 C 115.991 188.184,115.990 186.075,115.913 184.848 C 115.836 183.621,115.773 184.727,115.774 187.305 M20.794 184.375 C 20.794 185.127,20.874 185.435,20.972 185.059 C 21.071 184.683,21.071 184.067,20.972 183.691 C 20.874 183.315,20.794 183.623,20.794 184.375 M11.830 187.695 C 11.833 188.770,11.909 189.163,11.999 188.569 C 12.089 187.975,12.086 187.096,11.994 186.616 C 11.901 186.135,11.828 186.621,11.830 187.695 M339.955 188.086 C 339.958 189.160,340.034 189.553,340.124 188.959 C 340.214 188.366,340.211 187.487,340.119 187.006 C 340.026 186.526,339.953 187.012,339.955 188.086 M388.002 188.477 C 388.005 189.551,388.081 189.944,388.171 189.350 C 388.261 188.756,388.258 187.877,388.166 187.397 C 388.073 186.917,387.999 187.402,388.002 188.477 M30.169 188.281 C 30.169 189.033,30.249 189.341,30.347 188.965 C 30.446 188.589,30.446 187.974,30.347 187.598 C 30.249 187.222,30.169 187.529,30.169 188.281 M49.757 191.406 C 49.757 193.877,49.821 194.888,49.898 193.652 C 49.976 192.417,49.976 190.396,49.898 189.160 C 49.821 187.925,49.757 188.936,49.757 191.406 M39.169 189.453 C 39.169 190.420,39.245 190.815,39.338 190.332 C 39.431 189.849,39.431 189.058,39.338 188.574 C 39.245 188.091,39.169 188.486,39.169 189.453 M59.503 191.602 C 59.505 193.105,59.576 193.673,59.660 192.862 C 59.745 192.052,59.743 190.821,59.657 190.128 C 59.571 189.435,59.501 190.098,59.503 191.602 M283.711 191.016 C 283.711 192.197,283.784 192.681,283.874 192.090 C 283.963 191.499,283.963 190.532,283.874 189.941 C 283.784 189.351,283.711 189.834,283.711 191.016 M369.643 190.820 C 369.646 191.895,369.722 192.288,369.812 191.694 C 369.901 191.100,369.899 190.221,369.806 189.741 C 369.714 189.260,369.640 189.746,369.643 190.820 M165.218 191.113 C 166.837 192.838,167.188 193.148,167.188 192.855 C 167.188 192.792,166.353 191.957,165.332 190.999 L 163.477 189.258 165.218 191.113 M360.664 191.797 C 360.664 192.979,360.737 193.462,360.827 192.871 C 360.916 192.280,360.916 191.313,360.827 190.723 C 360.737 190.132,360.664 190.615,360.664 191.797 M350.121 192.383 C 350.123 193.672,350.196 194.152,350.283 193.450 C 350.370 192.748,350.368 191.693,350.279 191.106 C 350.190 190.519,350.119 191.094,350.121 192.383 M388.450 200.781 C 388.450 206.045,388.505 208.198,388.573 205.566 C 388.641 202.935,388.641 198.628,388.573 195.996 C 388.505 193.364,388.450 195.518,388.450 200.781 M11.474 195.898 C 11.475 198.262,11.539 199.178,11.617 197.935 C 11.695 196.692,11.694 194.758,11.616 193.638 C 11.537 192.518,11.473 193.535,11.474 195.898 M29.848 198.828 C 29.848 202.588,29.907 204.126,29.978 202.246 C 30.050 200.366,30.050 197.290,29.978 195.410 C 29.907 193.530,29.848 195.068,29.848 198.828 M38.826 198.242 C 38.827 201.250,38.888 202.429,38.962 200.862 C 39.037 199.295,39.036 196.834,38.961 195.393 C 38.886 193.952,38.825 195.234,38.826 198.242 M20.085 200.586 C 20.085 204.668,20.143 206.285,20.213 204.179 C 20.284 202.073,20.283 198.733,20.213 196.757 C 20.142 194.781,20.084 196.504,20.085 200.586 M370.072 199.609 C 370.072 202.295,370.135 203.394,370.211 202.051 C 370.287 200.708,370.287 198.511,370.211 197.168 C 370.135 195.825,370.072 196.924,370.072 199.609 M361.059 197.852 C 361.061 199.141,361.134 199.621,361.221 198.919 C 361.308 198.217,361.306 197.162,361.217 196.575 C 361.127 195.988,361.056 196.563,361.059 197.852 M50.091 197.266 C 50.091 198.018,50.171 198.325,50.269 197.949 C 50.368 197.573,50.368 196.958,50.269 196.582 C 50.171 196.206,50.091 196.514,50.091 197.266 M349.700 197.266 C 349.700 198.018,349.780 198.325,349.879 197.949 C 349.977 197.573,349.977 196.958,349.879 196.582 C 349.780 196.206,349.700 196.514,349.700 197.266 M179.492 199.219 C 179.922 199.403,180.537 199.554,180.859 199.554 C 181.229 199.554,181.156 199.430,180.664 199.219 C 180.234 199.034,179.619 198.883,179.297 198.883 C 178.928 198.883,179.000 199.007,179.492 199.219 M234.570 200.781 C 235.628 201.855,236.582 202.734,236.689 202.734 C 236.797 202.734,236.019 201.855,234.961 200.781 C 233.903 199.707,232.949 198.828,232.842 198.828 C 232.734 198.828,233.512 199.707,234.570 200.781 M360.668 205.273 C 360.670 206.562,360.743 207.043,360.830 206.341 C 360.917 205.639,360.915 204.584,360.826 203.997 C 360.737 203.410,360.666 203.984,360.668 205.273 M128.885 205.371 L 127.539 206.836 129.004 205.490 C 130.367 204.237,130.648 203.906,130.350 203.906 C 130.285 203.906,129.626 204.565,128.885 205.371 M11.456 208.789 C 11.458 210.293,11.529 210.860,11.613 210.050 C 11.698 209.239,11.696 208.009,11.610 207.316 C 11.524 206.622,11.455 207.285,11.456 208.789 M369.638 207.813 C 369.638 208.779,369.714 209.175,369.807 208.691 C 369.900 208.208,369.900 207.417,369.807 206.934 C 369.714 206.450,369.638 206.846,369.638 207.813 M30.185 208.594 C 30.185 209.561,30.261 209.956,30.354 209.473 C 30.447 208.989,30.447 208.198,30.354 207.715 C 30.261 207.231,30.185 207.627,30.185 208.594 M360.247 209.375 C 360.247 210.127,360.327 210.435,360.426 210.059 C 360.524 209.683,360.524 209.067,360.426 208.691 C 360.327 208.315,360.247 208.623,360.247 209.375 M379.395 209.570 C 379.400 210.430,379.480 210.735,379.573 210.249 C 379.667 209.763,379.663 209.060,379.565 208.687 C 379.467 208.313,379.391 208.711,379.395 209.570 M263.281 212.305 C 264.010 213.057,264.694 213.672,264.802 213.672 C 264.909 213.672,264.401 213.057,263.672 212.305 C 262.943 211.553,262.259 210.938,262.151 210.938 C 262.044 210.938,262.552 211.553,263.281 212.305 M387.997 213.281 C 387.997 214.248,388.073 214.644,388.166 214.160 C 388.259 213.677,388.259 212.886,388.166 212.402 C 388.073 211.919,387.997 212.314,387.997 213.281 M284.668 212.385 C 285.151 212.478,285.942 212.478,286.426 212.385 C 286.909 212.292,286.514 212.216,285.547 212.216 C 284.580 212.216,284.185 212.292,284.668 212.385 M11.817 214.258 C 11.822 215.117,11.902 215.423,11.995 214.937 C 12.088 214.451,12.085 213.748,11.987 213.374 C 11.889 213.001,11.813 213.398,11.817 214.258 M378.997 214.063 C 378.997 214.814,379.077 215.122,379.176 214.746 C 379.274 214.370,379.274 213.755,379.176 213.379 C 379.077 213.003,378.997 213.311,378.997 214.063 M338.672 220.044 C 338.672 220.111,339.243 220.683,339.941 221.314 L 341.211 222.461 340.064 221.191 C 338.994 220.008,338.672 219.742,338.672 220.044 M174.593 223.535 C 176.212 225.260,176.563 225.570,176.563 225.277 C 176.563 225.214,175.728 224.379,174.707 223.421 L 172.852 221.680 174.593 223.535 M109.284 222.939 C 109.986 223.026,111.041 223.024,111.628 222.935 C 112.215 222.846,111.641 222.775,110.352 222.777 C 109.063 222.779,108.582 222.852,109.284 222.939 M288.775 222.937 C 289.369 223.026,290.248 223.024,290.728 222.931 C 291.208 222.839,290.723 222.765,289.648 222.768 C 288.574 222.771,288.181 222.847,288.775 222.937 M162.500 234.180 C 163.667 235.361,164.710 236.328,164.817 236.328 C 164.924 236.328,164.058 235.361,162.891 234.180 C 161.724 232.998,160.681 232.031,160.574 232.031 C 160.466 232.031,161.333 232.998,162.500 234.180 M195.801 233.082 C 196.177 233.180,196.792 233.180,197.168 233.082 C 197.544 232.984,197.236 232.903,196.484 232.903 C 195.732 232.903,195.425 232.984,195.801 233.082 M262.563 234.587 C 261.909 236.023,262.034 236.330,262.742 235.024 C 263.072 234.414,263.269 233.842,263.180 233.753 C 263.091 233.664,262.813 234.039,262.563 234.587 M41.816 238.848 C 40.442 240.235,39.172 241.279,38.995 241.169 C 38.817 241.059,38.672 241.156,38.672 241.383 C 38.672 242.206,39.326 241.749,41.992 239.063 C 43.485 237.559,44.617 236.328,44.509 236.328 C 44.402 236.328,43.189 237.462,41.816 238.848 M358.563 239.533 C 360.395 241.461,361.328 241.998,361.328 241.123 C 361.328 240.992,361.206 241.007,361.058 241.156 C 360.909 241.305,359.810 240.499,358.616 239.366 L 356.445 237.305 358.563 239.533 M51.361 245.410 L 47.070 249.805 51.465 245.514 C 55.547 241.530,56.037 241.016,55.755 241.016 C 55.698 241.016,53.720 242.993,51.361 245.410 M63.452 247.363 L 62.305 248.633 63.574 247.486 C 64.758 246.416,65.023 246.094,64.722 246.094 C 64.654 246.094,64.083 246.665,63.452 247.363 M197.346 247.555 C 198.787 247.630,201.248 247.630,202.815 247.556 C 204.382 247.482,203.203 247.420,200.195 247.420 C 197.188 247.419,195.905 247.480,197.346 247.555 M336.719 247.778 C 336.719 247.846,337.290 248.417,337.988 249.048 L 339.258 250.195 338.111 248.926 C 337.041 247.742,336.719 247.477,336.719 247.778 M354.281 251.660 C 355.238 252.681,356.073 253.516,356.136 253.516 C 356.429 253.516,356.119 253.165,354.395 251.546 L 352.539 249.805 354.281 251.660 M44.120 253.027 L 42.773 254.492 44.238 253.146 C 45.602 251.893,45.883 251.563,45.584 251.563 C 45.519 251.563,44.860 252.222,44.120 253.027 M93.359 251.670 C 93.359 251.729,94.722 253.091,96.387 254.697 L 99.414 257.617 96.494 254.590 C 93.782 251.778,93.359 251.384,93.359 251.670 M304.087 254.004 L 302.148 256.055 304.199 254.116 C 306.105 252.315,306.429 251.953,306.138 251.953 C 306.076 251.953,305.153 252.876,304.087 254.004 M151.172 254.883 C 151.901 255.635,152.585 256.250,152.692 256.250 C 152.800 256.250,152.291 255.635,151.563 254.883 C 150.834 254.131,150.149 253.516,150.042 253.516 C 149.935 253.516,150.443 254.131,151.172 254.883 M245.692 257.715 L 243.164 260.352 245.801 257.824 C 247.251 256.434,248.438 255.247,248.438 255.187 C 248.438 254.900,248.040 255.266,245.692 257.715 M156.624 260.254 C 158.243 261.979,158.594 262.289,158.594 261.995 C 158.594 261.933,157.759 261.098,156.738 260.140 L 154.883 258.398 156.624 260.254 M30.838 260.449 L 29.492 261.914 30.957 260.568 C 31.763 259.828,32.422 259.168,32.422 259.103 C 32.422 258.805,32.091 259.086,30.838 260.449 M142.188 261.523 C 142.916 262.275,143.601 262.891,143.708 262.891 C 143.815 262.891,143.307 262.275,142.578 261.523 C 141.849 260.771,141.165 260.156,141.058 260.156 C 140.950 260.156,141.459 260.771,142.188 261.523 M257.401 261.621 L 256.055 263.086 257.520 261.740 C 258.883 260.487,259.164 260.156,258.866 260.156 C 258.800 260.156,258.141 260.815,257.401 261.621 M239.630 263.379 L 238.086 265.039 239.746 263.495 C 240.659 262.646,241.406 261.899,241.406 261.835 C 241.406 261.539,241.066 261.835,239.630 263.379 M359.533 268.810 C 359.353 269.102,359.427 269.155,359.743 268.960 C 360.054 268.767,360.960 269.346,362.244 270.559 L 364.258 272.461 362.319 270.410 C 360.279 268.251,359.983 268.082,359.533 268.810 M35.135 272.949 L 33.789 274.414 35.254 273.068 C 36.060 272.328,36.719 271.668,36.719 271.603 C 36.719 271.305,36.388 271.586,35.135 272.949 M355.547 274.297 C 354.978 274.866,354.940 275.649,355.464 275.974 C 355.686 276.111,355.751 275.953,355.616 275.601 C 355.487 275.265,355.598 274.729,355.864 274.409 C 356.440 273.714,356.211 273.633,355.547 274.297 M74.219 279.795 C 74.219 279.854,75.581 281.216,77.246 282.822 L 80.273 285.742 77.354 282.715 C 74.642 279.903,74.219 279.509,74.219 279.795 M100.575 284.863 L 97.852 287.695 100.684 284.971 C 103.314 282.441,103.694 282.031,103.407 282.031 C 103.348 282.031,102.074 283.306,100.575 284.863 M335.718 283.691 L 334.570 284.961 335.840 283.814 C 336.538 283.183,337.109 282.611,337.109 282.544 C 337.109 282.242,336.787 282.508,335.718 283.691 M301.758 287.891 C 302.597 288.750,303.371 289.453,303.479 289.453 C 303.586 289.453,302.988 288.750,302.148 287.891 C 301.309 287.031,300.535 286.328,300.427 286.328 C 300.320 286.328,300.919 287.031,301.758 287.891 M327.729 292.090 L 322.461 297.461 327.832 292.193 C 332.821 287.299,333.380 286.719,333.100 286.719 C 333.043 286.719,330.626 289.136,327.729 292.090 M107.805 291.699 L 104.102 295.508 107.910 291.805 C 110.005 289.768,111.719 288.054,111.719 287.996 C 111.719 287.713,111.244 288.162,107.805 291.699 M76.367 296.484 C 77.206 297.344,77.981 298.047,78.088 298.047 C 78.196 298.047,77.597 297.344,76.758 296.484 C 75.919 295.625,75.144 294.922,75.037 294.922 C 74.929 294.922,75.528 295.625,76.367 296.484 M61.328 300.903 C 61.328 300.971,61.899 301.542,62.598 302.173 L 63.867 303.320 62.720 302.051 C 61.650 300.867,61.328 300.602,61.328 300.903 M316.186 302.832 L 315.039 304.102 316.309 302.954 C 317.492 301.885,317.758 301.563,317.456 301.563 C 317.389 301.563,316.817 302.134,316.186 302.832 M117.948 303.809 L 116.602 305.273 118.066 303.927 C 119.430 302.674,119.711 302.344,119.413 302.344 C 119.347 302.344,118.688 303.003,117.948 303.809 M283.594 305.664 C 284.323 306.416,285.007 307.031,285.114 307.031 C 285.222 307.031,284.713 306.416,283.984 305.664 C 283.256 304.912,282.571 304.297,282.464 304.297 C 282.357 304.297,282.865 304.912,283.594 305.664 M68.750 308.789 C 70.567 310.615,72.141 312.109,72.248 312.109 C 72.356 312.109,70.957 310.615,69.141 308.789 C 67.324 306.963,65.750 305.469,65.642 305.469 C 65.535 305.469,66.933 306.963,68.750 308.789 M328.705 311.035 L 323.633 316.211 328.809 311.138 C 333.616 306.427,334.161 305.859,333.881 305.859 C 333.824 305.859,331.495 308.188,328.705 311.035 M54.688 307.544 C 54.688 307.611,55.259 308.183,55.957 308.814 L 57.227 309.961 56.079 308.691 C 55.010 307.508,54.688 307.242,54.688 307.544 M124.609 311.133 C 123.661 312.100,122.972 312.891,123.080 312.891 C 123.187 312.891,124.051 312.100,125.000 311.133 C 125.949 310.166,126.637 309.375,126.530 309.375 C 126.422 309.375,125.558 310.166,124.609 311.133 M274.984 311.035 C 275.941 312.056,276.776 312.891,276.839 312.891 C 277.132 312.891,276.822 312.540,275.098 310.921 L 273.242 309.180 274.984 311.035 M336.127 316.895 L 331.055 322.070 336.230 316.998 C 341.038 312.286,341.583 311.719,341.303 311.719 C 341.246 311.719,338.917 314.048,336.127 316.895 M289.844 312.232 C 289.844 312.299,290.415 312.870,291.113 313.501 L 292.383 314.648 291.236 313.379 C 290.166 312.196,289.844 311.930,289.844 312.232 M321.264 318.066 L 320.117 319.336 321.387 318.189 C 322.085 317.558,322.656 316.986,322.656 316.919 C 322.656 316.617,322.334 316.883,321.264 318.066 M68.164 321.484 C 69.003 322.344,69.778 323.047,69.885 323.047 C 69.993 323.047,69.394 322.344,68.555 321.484 C 67.716 320.625,66.941 319.922,66.834 319.922 C 66.726 319.922,67.325 320.625,68.164 321.484 M288.843 327.832 L 287.695 329.102 288.965 327.954 C 289.663 327.323,290.234 326.752,290.234 326.685 C 290.234 326.383,289.912 326.649,288.843 327.832 M191.313 338.948 C 191.799 339.042,192.502 339.038,192.876 338.940 C 193.249 338.842,192.852 338.766,191.992 338.770 C 191.133 338.775,190.827 338.855,191.313 338.948 M197.965 339.352 C 199.316 339.429,201.425 339.428,202.652 339.351 C 203.879 339.273,202.773 339.211,200.195 339.212 C 197.617 339.212,196.613 339.276,197.965 339.352 M193.262 355.354 C 193.745 355.447,194.536 355.447,195.020 355.354 C 195.503 355.261,195.107 355.185,194.141 355.185 C 193.174 355.185,192.778 355.261,193.262 355.354 M204.985 355.354 C 205.471 355.448,206.174 355.444,206.548 355.347 C 206.921 355.249,206.523 355.172,205.664 355.177 C 204.805 355.181,204.499 355.261,204.985 355.354 M248.827 360.645 C 248.828 360.806,252.212 360.903,256.348 360.861 C 263.914 360.784,263.027 360.642,253.808 360.453 C 251.068 360.397,248.827 360.483,248.827 360.645 M145.616 360.833 C 146.535 360.916,147.941 360.915,148.741 360.831 C 149.541 360.747,148.789 360.679,147.070 360.681 C 145.352 360.682,144.697 360.751,145.616 360.833 M190.923 364.729 C 191.408 364.823,192.112 364.819,192.485 364.722 C 192.858 364.624,192.461 364.547,191.602 364.552 C 190.742 364.556,190.437 364.636,190.923 364.729 M207.324 364.729 C 207.808 364.822,208.599 364.822,209.082 364.729 C 209.565 364.636,209.170 364.560,208.203 364.560 C 207.236 364.560,206.841 364.636,207.324 364.729 M197.183 365.133 C 198.534 365.210,200.644 365.209,201.871 365.132 C 203.098 365.055,201.992 364.992,199.414 364.993 C 196.836 364.994,195.832 365.057,197.183 365.133 " stroke="none" fill="#7c847e" fill-rule="evenodd"></path></g></svg>