<svg width="19" height="11" viewBox="0 0 19 11" fill="none" xmlns="http://www.w3.org/2000/svg">
<path d="M2.002 10.346C1.81533 10.346 1.60533 10.3273 1.372 10.29C1.148 10.2527 0.933332 10.206 0.727999 10.15C0.531999 10.094 0.377999 10.0333 0.265999 9.968C0.200665 9.93067 0.149332 9.89333 0.111999 9.856C0.0839987 9.80933 0.0699987 9.73467 0.0699987 9.632L-1.2964e-06 7.434C-1.2964e-06 7.24733 0.0606654 7.154 0.181999 7.154C0.284665 7.154 0.354665 7.238 0.391999 7.406L0.517999 7.938C0.835332 9.27267 1.428 9.94 2.296 9.94C2.76267 9.94 3.13133 9.786 3.402 9.478C3.682 9.16067 3.822 8.71733 3.822 8.148C3.822 7.59733 3.67733 7.084 3.388 6.608C3.108 6.132 2.65533 5.66067 2.03 5.194C1.33933 4.69933 0.835332 4.22333 0.517999 3.766C0.200665 3.29933 0.0419987 2.80467 0.0419987 2.282C0.0419987 1.59133 0.279999 1.04067 0.755999 0.63C1.24133 0.210001 1.85733 9.53674e-07 2.604 9.53674e-07C2.884 9.53674e-07 3.15467 0.0326675 3.416 0.0980005C3.67733 0.163334 3.892 0.256668 4.06 0.378001C4.116 0.415334 4.158 0.457334 4.186 0.504001C4.22333 0.550668 4.242 0.611334 4.242 0.686L4.284 2.8C4.284 2.95867 4.22333 3.038 4.102 3.038C4.018 3.038 3.95733 2.97267 3.92 2.842L3.822 2.492C3.61667 1.77333 3.402 1.25067 3.178 0.924001C2.96333 0.588001 2.65067 0.420001 2.24 0.420001C1.83867 0.420001 1.51667 0.550667 1.274 0.812001C1.04067 1.07333 0.923999 1.442 0.923999 1.918C0.923999 2.31933 1.05467 2.702 1.316 3.066C1.57733 3.43 2.03467 3.87333 2.688 4.396C3.388 4.96533 3.89667 5.516 4.214 6.048C4.54067 6.57067 4.704 7.13067 4.704 7.728C4.704 8.25067 4.58733 8.708 4.354 9.1C4.12067 9.492 3.79867 9.8 3.388 10.024C2.98667 10.2387 2.52467 10.346 2.002 10.346ZM11.1332 10.346C10.9838 10.346 10.8578 10.234 10.7552 10.01L6.96117 1.778C6.93317 1.71267 6.89584 1.68467 6.84917 1.694C6.81184 1.70333 6.79317 1.74533 6.79317 1.82V9.016C6.79317 9.27733 6.83517 9.478 6.91917 9.618C7.0125 9.74867 7.17584 9.83267 7.40917 9.87L7.59117 9.898C7.7125 9.90733 7.77317 9.96333 7.77317 10.066C7.77317 10.1687 7.70317 10.22 7.56317 10.22H5.56117C5.42117 10.22 5.35117 10.1687 5.35117 10.066C5.35117 9.96333 5.41184 9.90733 5.53317 9.898L5.71517 9.87C5.95784 9.83267 6.12584 9.74867 6.21917 9.618C6.3125 9.478 6.35917 9.27733 6.35917 9.016V1.064C6.35917 0.868001 6.3265 0.737334 6.26117 0.672001C6.20517 0.606668 6.06984 0.555334 5.85517 0.518001L5.53317 0.462001C5.41184 0.434001 5.35117 0.378001 5.35117 0.294001C5.35117 0.191334 5.42117 0.140001 5.56117 0.140001H7.05917C7.2925 0.140001 7.45584 0.242668 7.54917 0.448001L10.8532 7.714C10.8812 7.77 10.9138 7.79333 10.9512 7.784C10.9978 7.77467 11.0212 7.742 11.0212 7.686V1.344C11.0212 1.04533 10.9698 0.840001 10.8672 0.728001C10.7645 0.606667 10.6338 0.532001 10.4752 0.504001L10.2232 0.462001C10.1018 0.434001 10.0412 0.378001 10.0412 0.294001C10.0412 0.191334 10.1112 0.140001 10.2512 0.140001H12.2532C12.3932 0.140001 12.4632 0.191334 12.4632 0.294001C12.4632 0.396668 12.4025 0.452668 12.2812 0.462001L12.0992 0.49C11.8565 0.527334 11.6885 0.606667 11.5952 0.728001C11.5018 0.840001 11.4552 1.04533 11.4552 1.344V9.898C11.4552 10.066 11.4225 10.1827 11.3572 10.248C11.3012 10.3133 11.2265 10.346 11.1332 10.346ZM16.5277 10.346C15.837 10.346 15.2303 10.1313 14.7077 9.702C14.1943 9.27267 13.793 8.67067 13.5037 7.896C13.2237 7.112 13.0837 6.188 13.0837 5.124C13.0837 4.09733 13.2377 3.20133 13.5457 2.436C13.863 1.66133 14.283 1.064 14.8057 0.644001C15.3377 0.214668 15.9257 9.53674e-07 16.5697 9.53674e-07C16.9523 9.53674e-07 17.2883 0.0373341 17.5777 0.112C17.867 0.177334 18.1237 0.266001 18.3477 0.378001C18.4597 0.443334 18.5157 0.541334 18.5157 0.672001L18.5577 2.8C18.5577 2.95867 18.5017 3.038 18.3897 3.038C18.287 3.038 18.2217 2.97733 18.1937 2.856L18.0537 2.338C17.8577 1.61 17.629 1.106 17.3677 0.826001C17.1157 0.546001 16.8123 0.406001 16.4577 0.406001C15.8043 0.406001 15.2583 0.812001 14.8197 1.624C14.3903 2.42667 14.1757 3.59333 14.1757 5.124C14.1757 6.16933 14.283 7.05133 14.4977 7.77C14.7217 8.48867 15.0063 9.03 15.3517 9.394C15.7063 9.758 16.0797 9.94 16.4717 9.94C16.8917 9.94 17.2277 9.80933 17.4797 9.548C17.741 9.28667 17.9603 8.78267 18.1377 8.036L18.3057 7.35C18.3337 7.21 18.4083 7.14933 18.5297 7.168C18.6323 7.18667 18.6837 7.266 18.6837 7.406L18.6277 9.674C18.6277 9.80467 18.567 9.90267 18.4457 9.968C18.2217 10.08 17.9557 10.1687 17.6477 10.234C17.349 10.3087 16.9757 10.346 16.5277 10.346Z" fill="black"/>
</svg>
