<svg xmlns="http://www.w3.org/2000/svg" width="400" height="200" viewBox="0 0 400 200" fill="none">
<defs>
<!-- Gradiente oficial de Towns -->
<linearGradient id="townsGradient" x1="0%" y1="0%" x2="100%" y2="0%" gradientUnits="objectBoundingBox">
<stop offset="0.31" stop-color="#2DD6E1"/>
<stop offset="0.55" stop-color="#FDA92A"/>
<stop offset="0.745" stop-color="#FD2BDD"/>
</linearGradient>
</defs>

<!-- Fondo con gradiente oficial -->
<rect width="400" height="200" fill="url(#townsGradient)" opacity="0.1"/>

<!-- Elementos decorativos con gradiente -->
<circle cx="50" cy="50" r="20" fill="url(#townsGradient)" opacity="0.3"/>
<circle cx="350" cy="150" r="25" fill="url(#townsGradient)" opacity="0.3"/>
<circle cx="300" cy="40" r="15" fill="url(#townsGradient)" opacity="0.3"/>

<!-- Formas geométricas con gradiente -->
<rect x="30" y="120" width="40" height="40" rx="8" fill="url(#townsGradient)" opacity="0.2"/>
<rect x="320" y="30" width="35" height="35" rx="6" fill="url(#townsGradient)" opacity="0.2"/>

<!-- Líneas decorativas con gradiente -->
<path d="M20 100 Q100 80 180 100 T340 100" stroke="url(#townsGradient)" stroke-width="3" fill="none" opacity="0.4"/>
<path d="M60 160 Q140 140 220 160 T380 160" stroke="url(#townsGradient)" stroke-width="2" fill="none" opacity="0.3"/>

<!-- Elementos de red/conexión -->
<g opacity="0.3">
  <line x1="50" y1="50" x2="120" y2="90" stroke="url(#townsGradient)" stroke-width="2"/>
  <line x1="120" y1="90" x2="200" y2="70" stroke="url(#townsGradient)" stroke-width="2"/>
  <line x1="200" y1="70" x2="280" y2="110" stroke="url(#townsGradient)" stroke-width="2"/>
  <line x1="280" y1="110" x2="350" y2="90" stroke="url(#townsGradient)" stroke-width="2"/>
</g>

<!-- Nodos de conexión -->
<circle cx="120" cy="90" r="8" fill="url(#townsGradient)" opacity="0.6"/>
<circle cx="200" cy="70" r="8" fill="url(#townsGradient)" opacity="0.6"/>
<circle cx="280" cy="110" r="8" fill="url(#townsGradient)" opacity="0.6"/>

<!-- Partículas decorativas -->
<g opacity="0.4">
  <circle cx="80" cy="30" r="3" fill="url(#townsGradient)"/>
  <circle cx="150" cy="180" r="4" fill="url(#townsGradient)"/>
  <circle cx="250" cy="20" r="2" fill="url(#townsGradient)"/>
  <circle cx="360" cy="170" r="3" fill="url(#townsGradient)"/>
  <circle cx="40" cy="180" r="2" fill="url(#townsGradient)"/>
</g>

<!-- Elemento central destacado -->
<g transform="translate(200, 100)">
  <circle r="40" fill="url(#townsGradient)" opacity="0.2"/>
  <circle r="25" fill="url(#townsGradient)" opacity="0.4"/>
  <circle r="12" fill="url(#townsGradient)" opacity="0.8"/>
</g>
</svg> 