<svg width="61" height="14" viewBox="0 0 61 14" fill="none" xmlns="http://www.w3.org/2000/svg">
<path d="M1.512 10.36C1.372 10.36 1.302 10.3087 1.302 10.206C1.302 10.1033 1.36267 10.0473 1.484 10.038L2.114 9.94C2.30067 9.912 2.42667 9.86533 2.492 9.8C2.55733 9.72533 2.59 9.59 2.59 9.394V0.994C2.59 0.863334 2.562 0.77 2.506 0.714C2.45 0.658 2.33333 0.63 2.156 0.63C1.81067 0.63 1.47 0.779333 1.134 1.078C0.798001 1.37667 0.578667 1.85733 0.476001 2.52L0.406001 2.982C0.387334 3.10333 0.322001 3.164 0.210001 3.164C0.0700006 3.164 0.00933395 3.08467 0.0280006 2.926L0.154001 0.392C0.172667 0.177334 0.256667 0.0700004 0.406001 0.0700004C0.471334 0.0700004 0.532001 0.0886671 0.588001 0.126001C0.644001 0.154 0.737334 0.186667 0.868001 0.224C1.008 0.261334 1.22733 0.28 1.526 0.28H4.648C4.94667 0.28 5.16133 0.261334 5.292 0.224C5.432 0.186667 5.53 0.154 5.586 0.126001C5.65133 0.0886671 5.712 0.0700004 5.768 0.0700004C5.91733 0.0700004 6.00133 0.177334 6.02 0.392L6.146 2.926C6.16467 3.08467 6.104 3.164 5.964 3.164C5.852 3.164 5.78667 3.10333 5.768 2.982L5.698 2.52C5.60467 1.85733 5.39 1.37667 5.054 1.078C4.718 0.779333 4.37267 0.63 4.018 0.63C3.84067 0.63 3.724 0.658 3.668 0.714C3.612 0.77 3.584 0.863334 3.584 0.994V9.394C3.584 9.59 3.61667 9.72533 3.682 9.8C3.75667 9.86533 3.88267 9.912 4.06 9.94L4.69 10.038C4.81133 10.0473 4.872 10.1033 4.872 10.206C4.872 10.3087 4.802 10.36 4.662 10.36H1.512ZM8.25278 10.486C7.77678 10.486 7.34745 10.3273 6.96478 10.01C6.59145 9.68333 6.29278 9.24 6.06878 8.68C5.84478 8.12 5.73278 7.49467 5.73278 6.804C5.73278 6.11333 5.84478 5.49267 6.06878 4.942C6.29278 4.39133 6.59612 3.95267 6.97878 3.626C7.36145 3.29933 7.78612 3.136 8.25278 3.136C8.72878 3.136 9.15345 3.29933 9.52678 3.626C9.90945 3.95267 10.2128 4.39133 10.4368 4.942C10.6608 5.49267 10.7728 6.11333 10.7728 6.804C10.7728 7.49467 10.6608 8.12 10.4368 8.68C10.2221 9.24 9.92345 9.68333 9.54078 10.01C9.15812 10.3273 8.72878 10.486 8.25278 10.486ZM8.25278 10.136C9.22345 10.136 9.70878 9.02533 9.70878 6.804C9.70878 4.592 9.22345 3.486 8.25278 3.486C7.28212 3.486 6.79678 4.592 6.79678 6.804C6.79678 9.02533 7.28212 10.136 8.25278 10.136ZM13.6616 10.486C13.5403 10.486 13.4563 10.3927 13.4096 10.206L11.7156 4.158C11.6503 3.934 11.5849 3.78933 11.5196 3.724C11.4636 3.65867 11.3703 3.612 11.2396 3.584L11.0296 3.542C10.9083 3.514 10.8476 3.45333 10.8476 3.36C10.8476 3.26667 10.9129 3.22 11.0436 3.22H13.3116C13.4423 3.22 13.5076 3.26667 13.5076 3.36C13.5076 3.46267 13.4469 3.52333 13.3256 3.542L13.1016 3.57C12.8776 3.598 12.7376 3.654 12.6816 3.738C12.6256 3.81267 12.6256 3.95267 12.6816 4.158L13.7876 8.232C13.8156 8.32533 13.8576 8.372 13.9136 8.372C13.9789 8.372 14.0256 8.32533 14.0536 8.232L15.0056 4.606C15.0243 4.53133 15.0336 4.45667 15.0336 4.382C15.0429 4.30733 15.0336 4.228 15.0056 4.144C14.9403 3.92 14.8749 3.78 14.8096 3.724C14.7536 3.65867 14.6603 3.612 14.5296 3.584L14.3196 3.542C14.1983 3.514 14.1376 3.45333 14.1376 3.36C14.1376 3.26667 14.2029 3.22 14.3336 3.22H16.6016C16.7323 3.22 16.7976 3.26667 16.7976 3.36C16.7976 3.46267 16.7369 3.52333 16.6156 3.542L16.3916 3.57C16.1676 3.598 16.0323 3.654 15.9856 3.738C15.9389 3.81267 15.9343 3.95267 15.9716 4.158L16.8676 8.204C16.8863 8.29733 16.9236 8.344 16.9796 8.344C17.0449 8.344 17.0916 8.29733 17.1196 8.204L18.1836 4.41C18.2583 4.158 18.2769 3.97133 18.2396 3.85C18.2116 3.71933 18.0809 3.63533 17.8476 3.598L17.5536 3.542C17.4323 3.514 17.3716 3.45333 17.3716 3.36C17.3716 3.26667 17.4369 3.22 17.5676 3.22H19.3176C19.4483 3.22 19.5136 3.27133 19.5136 3.374C19.5136 3.46733 19.4576 3.53267 19.3456 3.57L19.2196 3.612C19.0796 3.65867 18.9583 3.74267 18.8556 3.864C18.7529 3.98533 18.6596 4.19533 18.5756 4.494L16.9796 10.206C16.9329 10.3927 16.8443 10.486 16.7136 10.486C16.6016 10.486 16.5223 10.3927 16.4756 10.206L15.3836 5.726C15.3556 5.62333 15.3089 5.572 15.2436 5.572C15.1876 5.56267 15.1456 5.614 15.1176 5.726L13.9136 10.206C13.8669 10.3927 13.7829 10.486 13.6616 10.486ZM19.6257 10.36C19.4857 10.36 19.4157 10.3087 19.4157 10.206C19.4157 10.122 19.4764 10.066 19.5977 10.038L19.7657 10.01C19.9617 9.97267 20.0877 9.91667 20.1437 9.842C20.209 9.758 20.2417 9.618 20.2417 9.422V4.718C20.2417 4.55 20.2137 4.438 20.1577 4.382C20.111 4.31667 20.0224 4.27467 19.8917 4.256L19.5977 4.214C19.4764 4.20467 19.4157 4.15333 19.4157 4.06C19.4157 3.98533 19.4904 3.934 19.6397 3.906C19.929 3.85933 20.1484 3.78467 20.2977 3.682C20.4564 3.57933 20.6197 3.45333 20.7877 3.304C20.8717 3.22 20.9417 3.178 20.9977 3.178C21.0817 3.178 21.1237 3.234 21.1237 3.346V3.976C21.1237 4.06 21.1517 4.116 21.2077 4.144C21.273 4.16267 21.343 4.13467 21.4177 4.06C21.791 3.70533 22.1177 3.46267 22.3977 3.332C22.687 3.20133 22.9904 3.136 23.3077 3.136C23.7277 3.136 24.0637 3.28533 24.3157 3.584C24.5677 3.87333 24.6937 4.30267 24.6937 4.872V9.422C24.6937 9.618 24.7217 9.758 24.7777 9.842C24.843 9.91667 24.9737 9.968 25.1697 9.996L25.4777 10.038C25.5804 10.0567 25.6317 10.1127 25.6317 10.206C25.6317 10.3087 25.5757 10.36 25.4637 10.36H23.1117C22.981 10.36 22.9157 10.3087 22.9157 10.206C22.9157 10.1127 22.967 10.0567 23.0697 10.038L23.2657 10.01C23.4617 9.982 23.5877 9.926 23.6437 9.842C23.709 9.758 23.7417 9.618 23.7417 9.422V5.026C23.7417 4.56867 23.6577 4.24667 23.4897 4.06C23.3217 3.87333 23.0837 3.78 22.7757 3.78C22.477 3.78 22.2064 3.86867 21.9637 4.046C21.7304 4.214 21.5437 4.44267 21.4037 4.732C21.2637 5.012 21.1937 5.32467 21.1937 5.67V9.422C21.1937 9.618 21.2217 9.758 21.2777 9.842C21.343 9.926 21.4737 9.97733 21.6697 9.996L22.0477 10.038C22.1504 10.0567 22.2017 10.108 22.2017 10.192C22.2017 10.304 22.1317 10.36 21.9917 10.36H19.6257ZM27.6159 10.486C27.4012 10.486 27.1725 10.458 26.9299 10.402C26.6872 10.3553 26.4912 10.2947 26.3419 10.22C26.2579 10.1733 26.2159 10.094 26.2159 9.982L26.1739 8.414C26.1739 8.25533 26.2345 8.176 26.3559 8.176C26.4585 8.176 26.5285 8.25067 26.5659 8.4C26.7245 9.06267 26.9159 9.51533 27.1399 9.758C27.3732 10.0007 27.6532 10.122 27.9799 10.122C28.2505 10.122 28.4745 10.0193 28.6519 9.814C28.8292 9.59933 28.9179 9.30533 28.9179 8.932C28.9179 8.55867 28.8152 8.22733 28.6099 7.938C28.4045 7.64867 28.0592 7.33133 27.5739 6.986C27.0885 6.65933 26.7339 6.33267 26.5099 6.006C26.2859 5.67 26.1739 5.306 26.1739 4.914C26.1739 4.382 26.3605 3.95267 26.7339 3.626C27.1072 3.29933 27.6019 3.136 28.2179 3.136C28.4045 3.136 28.5865 3.15933 28.7639 3.206C28.9412 3.24333 29.0999 3.30867 29.2399 3.402C29.3239 3.458 29.3659 3.53267 29.3659 3.626L29.3939 5.166C29.3939 5.306 29.3379 5.376 29.2259 5.376C29.1605 5.376 29.1139 5.35733 29.0859 5.32C29.0579 5.27333 29.0345 5.21733 29.0159 5.152C28.8292 4.54533 28.6425 4.12533 28.4559 3.892C28.2692 3.64933 28.0405 3.528 27.7699 3.528C27.5272 3.528 27.3265 3.612 27.1679 3.78C27.0092 3.948 26.9299 4.158 26.9299 4.41C26.9299 4.73667 27.0279 5.02133 27.2239 5.264C27.4199 5.50667 27.7745 5.80533 28.2879 6.16C28.7545 6.496 29.1045 6.86 29.3379 7.252C29.5805 7.63467 29.7019 8.05467 29.7019 8.512C29.7019 9.10933 29.5105 9.59 29.1279 9.954C28.7452 10.3087 28.2412 10.486 27.6159 10.486ZM32.9434 10.36C32.8034 10.36 32.7334 10.3087 32.7334 10.206C32.7334 10.122 32.7941 10.066 32.9154 10.038L33.2374 9.982C33.4334 9.94467 33.5594 9.89333 33.6154 9.828C33.6808 9.76267 33.7134 9.632 33.7134 9.436V1.204C33.7134 1.008 33.6808 0.877334 33.6154 0.812C33.5594 0.746667 33.4334 0.695334 33.2374 0.658L32.9154 0.602C32.7941 0.574 32.7334 0.518 32.7334 0.434C32.7334 0.331333 32.8034 0.28 32.9434 0.28H35.5054C35.6454 0.28 35.7154 0.336 35.7154 0.448001C35.7154 0.532 35.6641 0.583333 35.5614 0.602L35.1834 0.658C34.9874 0.686 34.8568 0.737333 34.7914 0.812C34.7354 0.886667 34.7074 1.022 34.7074 1.218V9.058C34.7074 9.394 34.8008 9.63667 34.9874 9.786C35.1834 9.93533 35.4261 10.01 35.7154 10.01C35.9301 10.01 36.1494 9.968 36.3734 9.884C36.6068 9.79067 36.8168 9.62267 37.0034 9.38C37.1901 9.128 37.3301 8.764 37.4234 8.288L37.6054 7.35C37.6334 7.22867 37.7034 7.168 37.8154 7.168C37.9461 7.168 38.0021 7.24733 37.9834 7.406L37.8154 10.038C37.7968 10.2527 37.6801 10.36 37.4654 10.36H32.9434ZM41.0926 10.486C40.6166 10.486 40.1873 10.3273 39.8046 10.01C39.4313 9.68333 39.1326 9.24 38.9086 8.68C38.6846 8.12 38.5726 7.49467 38.5726 6.804C38.5726 6.11333 38.6846 5.49267 38.9086 4.942C39.1326 4.39133 39.436 3.95267 39.8186 3.626C40.2013 3.29933 40.626 3.136 41.0926 3.136C41.5686 3.136 41.9933 3.29933 42.3666 3.626C42.7493 3.95267 43.0526 4.39133 43.2766 4.942C43.5006 5.49267 43.6126 6.11333 43.6126 6.804C43.6126 7.49467 43.5006 8.12 43.2766 8.68C43.062 9.24 42.7633 9.68333 42.3806 10.01C41.998 10.3273 41.5686 10.486 41.0926 10.486ZM41.0926 10.136C42.0633 10.136 42.5486 9.02533 42.5486 6.804C42.5486 4.592 42.0633 3.486 41.0926 3.486C40.122 3.486 39.6366 4.592 39.6366 6.804C39.6366 9.02533 40.122 10.136 41.0926 10.136ZM46.4995 10.486C46.0888 10.486 45.7201 10.346 45.3935 10.066C45.0761 9.77667 44.8288 9.38 44.6515 8.876C44.4741 8.36267 44.3855 7.77 44.3855 7.098C44.3855 6.314 44.5068 5.628 44.7495 5.04C44.9921 4.44267 45.3281 3.976 45.7575 3.64C46.1868 3.304 46.6721 3.136 47.2135 3.136C47.3441 3.136 47.4748 3.15 47.6055 3.178C47.7361 3.19667 47.8621 3.234 47.9835 3.29C48.1328 3.36467 48.2075 3.332 48.2075 3.192V1.4C48.2075 1.232 48.1795 1.11533 48.1235 1.05C48.0768 0.984667 47.9881 0.947333 47.8575 0.938L47.4935 0.896C47.3908 0.877333 47.3395 0.821334 47.3395 0.728C47.3395 0.634667 47.3908 0.578667 47.4935 0.56C47.7921 0.504 48.0301 0.438667 48.2075 0.364C48.3941 0.289333 48.5481 0.214667 48.6695 0.14C48.8188 0.0466671 48.9308 4.76837e-07 49.0055 4.76837e-07C49.1081 4.76837e-07 49.1595 0.074667 49.1595 0.224V9.03C49.1595 9.422 49.2575 9.618 49.4535 9.618C49.5748 9.618 49.6868 9.53867 49.7895 9.38C49.8921 9.212 49.9435 8.932 49.9435 8.54C49.9435 8.39067 50.0041 8.316 50.1255 8.316C50.2375 8.316 50.2935 8.39533 50.2935 8.554C50.2935 9.23533 50.1768 9.73 49.9435 10.038C49.7101 10.3367 49.4441 10.486 49.1455 10.486C48.8748 10.486 48.6695 10.3973 48.5295 10.22C48.3895 10.0333 48.2961 9.814 48.2495 9.562C48.2401 9.48733 48.2075 9.45 48.1515 9.45C48.0955 9.44067 48.0441 9.47333 47.9975 9.548C47.7361 9.912 47.4981 10.1593 47.2835 10.29C47.0688 10.4207 46.8075 10.486 46.4995 10.486ZM46.8075 9.842C47.0501 9.842 47.2741 9.76267 47.4795 9.604C47.6941 9.436 47.8668 9.212 47.9975 8.932C48.1375 8.652 48.2075 8.33933 48.2075 7.994V4.844C48.2075 4.424 48.1095 4.09267 47.9135 3.85C47.7268 3.60733 47.4795 3.486 47.1715 3.486C46.6488 3.486 46.2241 3.794 45.8975 4.41C45.5801 5.01667 45.4215 5.84733 45.4215 6.902C45.4215 7.86333 45.5428 8.596 45.7855 9.1C46.0375 9.59467 46.3781 9.842 46.8075 9.842ZM52.8559 13.37C52.1466 13.37 51.5866 13.2253 51.1759 12.936C50.7652 12.656 50.5599 12.3153 50.5599 11.914C50.5599 11.746 50.5832 11.592 50.6299 11.452C50.6766 11.3213 50.7746 11.1673 50.9239 10.99C51.0826 10.8127 51.3206 10.584 51.6379 10.304C51.7499 10.2013 51.8059 10.108 51.8059 10.024C51.8059 9.93067 51.7499 9.86067 51.6379 9.814C51.3019 9.674 51.1012 9.49667 51.0359 9.282C50.9706 9.058 51.0499 8.85267 51.2739 8.666L52.2819 7.798C52.3939 7.70467 52.3892 7.62533 52.2679 7.56C51.8852 7.37333 51.5819 7.084 51.3579 6.692C51.1339 6.3 51.0219 5.88 51.0219 5.432C51.0219 5.00267 51.1152 4.61533 51.3019 4.27C51.4886 3.92467 51.7406 3.64933 52.0579 3.444C52.3752 3.23867 52.7299 3.136 53.1219 3.136C53.3459 3.136 53.5606 3.17333 53.7659 3.248C53.8966 3.29467 53.9759 3.25267 54.0039 3.122C54.0879 2.76733 54.2419 2.492 54.4659 2.296C54.6992 2.09067 54.9279 1.988 55.1519 1.988C55.3666 1.988 55.5392 2.05333 55.6699 2.184C55.8099 2.30533 55.8799 2.45933 55.8799 2.646C55.8799 2.80467 55.8332 2.93067 55.7399 3.024C55.6466 3.11733 55.5299 3.164 55.3899 3.164C55.2686 3.164 55.1799 3.14067 55.1239 3.094C55.0679 3.04733 55.0166 3.00067 54.9699 2.954C54.9232 2.90733 54.8486 2.884 54.7459 2.884C54.5219 2.884 54.3819 3.00533 54.3259 3.248C54.2979 3.34133 54.2979 3.42067 54.3259 3.486C54.3632 3.55133 54.4146 3.61667 54.4799 3.682C54.7039 3.89667 54.8766 4.158 54.9979 4.466C55.1286 4.774 55.1939 5.11467 55.1939 5.488C55.1939 5.936 55.1006 6.33733 54.9139 6.692C54.7366 7.04667 54.4892 7.32667 54.1719 7.532C53.8639 7.73733 53.5139 7.84 53.1219 7.84C52.9539 7.84 52.8092 7.87733 52.6879 7.952C52.5666 8.01733 52.4452 8.11533 52.3239 8.246L52.0859 8.512C51.9646 8.66133 51.9272 8.806 51.9739 8.946C52.0299 9.07667 52.1606 9.142 52.3659 9.142H53.5699C54.2419 9.142 54.7739 9.31 55.1659 9.646C55.5579 9.97267 55.7539 10.4253 55.7539 11.004C55.7539 11.4613 55.6232 11.8673 55.3619 12.222C55.1006 12.5767 54.7506 12.8567 54.3119 13.062C53.8826 13.2673 53.3972 13.37 52.8559 13.37ZM53.1079 7.49C53.4439 7.49 53.7099 7.308 53.9059 6.944C54.1019 6.58 54.1999 6.08533 54.1999 5.46C54.1999 4.85333 54.0972 4.368 53.8919 4.004C53.6959 3.63067 53.4346 3.444 53.1079 3.444C52.7812 3.444 52.5152 3.63067 52.3099 4.004C52.1139 4.368 52.0159 4.85333 52.0159 5.46C52.0159 6.08533 52.1139 6.58 52.3099 6.944C52.5059 7.308 52.7719 7.49 53.1079 7.49ZM53.0239 13.062C53.3599 13.062 53.6679 12.9873 53.9479 12.838C54.2279 12.6887 54.4472 12.4787 54.6059 12.208C54.7739 11.9467 54.8579 11.648 54.8579 11.312C54.8579 10.892 54.7319 10.57 54.4799 10.346C54.2372 10.1127 53.8919 9.996 53.4439 9.996H53.1219C52.8326 9.996 52.6132 10.024 52.4639 10.08C52.3239 10.136 52.1886 10.234 52.0579 10.374C51.7686 10.682 51.5866 10.9293 51.5119 11.116C51.4372 11.3027 51.3999 11.494 51.3999 11.69C51.3999 12.1007 51.5399 12.432 51.8199 12.684C52.1092 12.936 52.5106 13.062 53.0239 13.062ZM58.6847 10.486C58.2367 10.486 57.8354 10.3367 57.4807 10.038C57.1261 9.73933 56.8414 9.31933 56.6267 8.778C56.4214 8.22733 56.3187 7.59267 56.3187 6.874C56.3187 6.13667 56.4261 5.488 56.6407 4.928C56.8554 4.368 57.1494 3.92933 57.5227 3.612C57.8961 3.29467 58.3114 3.136 58.7687 3.136C59.3194 3.136 59.7627 3.36467 60.0987 3.822C60.4441 4.27 60.6167 5.00267 60.6167 6.02C60.6167 6.328 60.5001 6.482 60.2667 6.482H57.6067C57.4201 6.482 57.3267 6.58933 57.3267 6.804C57.3267 7.79333 57.4714 8.53533 57.7607 9.03C58.0501 9.52467 58.4187 9.772 58.8667 9.772C59.2214 9.772 59.5107 9.646 59.7347 9.394C59.9587 9.142 60.1407 8.71733 60.2807 8.12C60.3087 8.01733 60.3694 7.966 60.4627 7.966C60.5747 7.966 60.6167 8.05933 60.5887 8.246C60.4394 9.07667 60.2014 9.66 59.8747 9.996C59.5481 10.3227 59.1514 10.486 58.6847 10.486ZM57.5647 6.132H58.9787C59.4267 6.132 59.6507 5.89867 59.6507 5.432C59.6507 4.82533 59.5761 4.34933 59.4267 4.004C59.2774 3.65867 59.0534 3.486 58.7547 3.486C58.3907 3.486 58.0827 3.696 57.8307 4.116C57.5881 4.536 57.4294 5.13333 57.3547 5.908C57.3361 6.05733 57.4061 6.132 57.5647 6.132Z" fill="white"/>
</svg>
