<svg xmlns="http://www.w3.org/2000/svg" width="100" height="100" viewBox="0 0 100 100" fill="none">
<defs>
<!-- Gradiente oficial de Towns -->
<linearGradient id="townsGradient" x1="0%" y1="0%" x2="100%" y2="100%" gradientUnits="objectBoundingBox">
<stop offset="0.31" stop-color="#2DD6E1"/>
<stop offset="0.55" stop-color="#FDA92A"/>
<stop offset="0.745" stop-color="#FD2BDD"/>
</linearGradient>
</defs>

<!-- Fondo sutil -->
<rect width="100" height="100" fill="url(#townsGradient)" opacity="0.1" rx="12"/>

<!-- Urna de votación -->
<rect x="30" y="45" width="40" height="35" fill="white" stroke="url(#townsGradient)" stroke-width="2" rx="4"/>
<rect x="25" y="40" width="50" height="8" fill="url(#townsGradient)" opacity="0.8" rx="4"/>

<!-- Ranura para votos -->
<rect x="45" y="35" width="10" height="3" fill="url(#townsGradient)" opacity="0.6" rx="1"/>

<!-- Papeletas de voto flotantes -->
<g opacity="0.7">
  <rect x="35" y="25" width="8" height="12" fill="url(#townsGradient)" opacity="0.4" rx="1" transform="rotate(-15 39 31)"/>
  <rect x="55" y="20" width="8" height="12" fill="url(#townsGradient)" opacity="0.4" rx="1" transform="rotate(10 59 26)"/>
</g>

<!-- Checkmarks en las papeletas -->
<path d="M37 29 L39 31 L42 28" stroke="white" stroke-width="1.5" fill="none" stroke-linecap="round"/>
<path d="M57 24 L59 26 L62 23" stroke="white" stroke-width="1.5" fill="none" stroke-linecap="round"/>

<!-- Elementos decorativos de gobierno -->
<g opacity="0.4">
  <!-- Balanza de la justicia -->
  <circle cx="20" cy="20" r="8" fill="url(#townsGradient)" opacity="0.3"/>
  <line x1="15" y1="20" x2="25" y2="20" stroke="url(#townsGradient)" stroke-width="2"/>
  <rect x="13" y="18" width="4" height="4" fill="url(#townsGradient)" opacity="0.6"/>
  <rect x="23" y="18" width="4" height="4" fill="url(#townsGradient)" opacity="0.6"/>
  
  <!-- Elementos de red descentralizada -->
  <circle cx="80" cy="80" r="6" fill="url(#townsGradient)" opacity="0.3"/>
  <circle cx="75" cy="70" r="3" fill="url(#townsGradient)" opacity="0.4"/>
  <circle cx="85" cy="70" r="3" fill="url(#townsGradient)" opacity="0.4"/>
  <line x1="80" y1="74" x2="75" y2="73" stroke="url(#townsGradient)" stroke-width="1"/>
  <line x1="80" y1="74" x2="85" y2="73" stroke="url(#townsGradient)" stroke-width="1"/>
</g>
</svg> 