<svg xmlns="http://www.w3.org/2000/svg" width="122" height="30" viewBox="0 0 122 30" fill="none"><script xmlns=""/>
<path fill-rule="evenodd" clip-rule="evenodd" d="M28.2681 1.84319C27.5678 1.0315 26.5317 0.517732 25.3755 0.517732H9.86941C9.56468 0.517732 9.26828 0.553424 8.98417 0.620856C8.13715 0.707304 7.34486 1.12639 6.79524 1.80687C6.79524 1.80687 1.18348 9.19231 0.718545 9.76795C0.253605 10.3436 0 11.0612 0 11.8011V16.5545C0 17.4127 0.340917 18.2357 0.947752 18.8425L1.71745 19.6122C2.27528 20.1701 3.03185 20.4835 3.82074 20.4835C5.46351 20.4835 6.79524 21.8152 6.79524 23.458V25.8875C6.79524 26.7457 6.91524 27.8434 7.67128 28.7207C8.40263 29.5693 9.29926 30 10.2389 30H108.944C110.874 30 112.903 28.9402 113.973 28.1884C115.043 27.4367 118.681 22.6528 119.754 21.1532C120.828 19.6536 121.611 17.9664 121.611 16.0116V14.536C121.611 13.2688 121.219 12.0904 120.549 11.1161C121.233 10.4037 121.644 9.41581 121.557 8.28342C121.314 5.11909 120.223 2.82442 118.184 1.46443C116.352 0.242786 114.171 0.110352 112.758 0.0299648L112.687 0.0258863H104.486C102.334 0.0258863 100.324 0.890473 98.818 2.34582C98.1469 1.24937 96.9381 0.517732 95.5584 0.517732H90.8988C89.5706 0.517732 88.4007 1.19583 87.7165 2.22472C87.0089 1.15865 85.8143 0.517732 84.5347 0.517732H78.5509C77.821 0.517732 77.1389 0.722515 76.5589 1.07776C75.9852 0.724763 75.3053 0.517732 74.5625 0.517732H70.9224C69.2905 0.517732 67.8389 1.55465 67.3098 3.09837L67.3071 3.10625C66.7858 1.57169 65.3394 0.517732 63.6916 0.517732H61.1085C59.4608 0.517732 58.0143 1.5717 57.4931 3.10626L57.4903 3.09836C56.9612 1.55465 55.5096 0.517732 53.8777 0.517732H50.2376C49.1399 0.517732 48.1796 0.969884 47.4961 1.67711L47.3951 1.6639C46.0301 0.619448 44.3259 0 42.4856 0H33.4252C31.5014 0 29.7036 0.674782 28.2681 1.84319ZM42.4857 2.52533H33.4254C31.9239 2.52533 30.526 3.12072 29.4647 4.15619C28.4292 5.19165 27.8338 6.61542 27.8597 8.09096V16.0123C27.8338 17.4878 28.4292 18.8857 29.4647 19.947C30.526 20.9825 31.9498 21.5779 33.4254 21.5779H42.4857C45.5403 21.5779 48.0513 19.0669 48.0513 16.0123V8.09096C48.0513 5.01045 45.5403 2.52533 42.4857 2.52533ZM40.7772 13.9931C40.7772 15.0027 39.9488 15.8311 38.9392 15.8311H36.9459C35.9364 15.8311 35.108 15.0027 35.108 13.9931V10.1101C35.108 9.10053 35.9364 8.27216 36.9459 8.27216H38.9392C39.9488 8.27216 40.7772 9.10053 40.7772 10.1101V13.9931ZM9.86953 3.04306C9.15469 3.04306 8.5752 3.62255 8.5752 4.33739V7.96152C8.5752 8.67636 9.15469 9.25585 9.86953 9.25585H12.6828C13.3977 9.25585 13.9772 9.83535 13.9772 10.5502V20.0534C13.9772 20.7682 14.5567 21.3477 15.2715 21.3477H19.9736C20.6885 21.3477 21.268 20.7682 21.268 20.0534V10.5502C21.268 9.83535 21.8475 9.25585 22.5623 9.25585H25.3756C26.0905 9.25585 26.67 8.67636 26.67 7.96152V4.33739C26.67 3.62255 26.0905 3.04306 25.3756 3.04306H9.86953ZM69.6981 3.9177C69.8774 3.3945 70.3694 3.04306 70.9225 3.04306H74.5626C75.4556 3.04306 76.0804 3.92598 75.7832 4.76808L70.3026 20.3001C70.12 20.8176 69.6309 21.1637 69.0821 21.1637H64.5307C64.2075 21.1637 63.9074 21.0256 63.697 20.797C63.4926 20.575 63.4467 20.2591 63.4077 19.9599C63.2484 18.7392 63.0661 18.0592 62.4273 18.0592C61.7864 18.0592 61.5564 18.7301 61.3879 19.9664C61.3479 20.26 61.3047 20.5701 61.1063 20.7902C60.8965 21.0231 60.594 21.1637 60.2672 21.1637H55.7183C55.1695 21.1637 54.6803 20.8176 54.4977 20.3001L49.0171 4.76808C48.72 3.92598 49.3447 3.04306 50.2377 3.04306H53.8779C54.4309 3.04306 54.9229 3.3945 55.1022 3.9177L56.4784 7.93233C56.8995 9.16084 58.6655 9.07309 58.9628 7.8089L59.8487 4.04114C59.9861 3.45637 60.5079 3.04306 61.1086 3.04306H63.6917C64.2924 3.04306 64.8142 3.45637 64.9517 4.04114L65.8376 7.80889C66.1349 9.07309 67.9009 9.16084 68.322 7.93233L69.6981 3.9177ZM90.8989 3.04306C90.1841 3.04306 89.6046 3.62255 89.6046 4.33739V5.34821C89.6046 6.63065 87.9398 7.13223 87.2314 6.06325L85.6137 3.62236C85.3739 3.26059 84.9688 3.04306 84.5348 3.04306H78.551C77.8362 3.04306 77.2567 3.62255 77.2567 4.33739V19.8953C77.2567 20.6101 77.8362 21.1896 78.551 21.1896H83.4177C84.1325 21.1896 84.712 20.6101 84.712 19.8953V17.228C84.712 15.8977 86.478 15.4329 87.133 16.5908L89.3624 20.5325C89.592 20.9385 90.0225 21.1896 90.489 21.1896H95.5585C96.2734 21.1896 96.8529 20.6101 96.8529 19.8953V4.33739C96.8529 3.62255 96.2734 3.04306 95.5585 3.04306H90.8989ZM106.722 10.3532C106.767 10.3661 106.813 10.3705 106.859 10.3737C107.256 10.4009 109.328 10.5428 111.838 10.7055C112.744 10.7795 113.716 10.8534 114.688 10.9274L114.689 10.9274C115.077 10.957 115.466 10.9866 115.851 11.0161C117.663 11.1715 119.087 12.6988 119.087 14.5367V16.0123C119.087 19.0669 116.602 21.552 113.521 21.552H104.047C100.992 21.552 98.9468 19.0669 98.9468 16.0123V15.624C98.9468 14.9091 99.5263 14.3296 100.241 14.3296H104.965C105.35 14.3296 105.802 14.4979 106.253 14.6662C106.705 14.8344 107.157 15.0027 107.541 15.0027H110.958C111.712 15.0027 111.929 13.9303 111.279 13.7484C111.238 13.737 111.196 13.7326 111.154 13.7293C110.768 13.6985 108.648 13.528 106.169 13.2942C105.907 13.269 105.641 13.2438 105.374 13.2184C104.265 13.1134 103.122 13.0051 102.079 12.88C100.293 12.6729 98.921 11.1715 98.9468 9.38529V8.11684C98.921 6.6413 99.5163 5.21754 100.552 4.18207C101.613 3.14661 103.011 2.55122 104.487 2.55122H112.615C115.576 2.71976 118.627 3.11223 119.04 8.47748C119.094 9.19022 118.507 9.77359 117.792 9.77359H113.064C112.676 9.77359 112.221 9.6118 111.765 9.45C111.31 9.28821 110.854 9.12642 110.466 9.12642H107.049C106.298 9.12642 106.08 10.1679 106.722 10.3532Z" fill="url(#paint0_linear_13334_80804)"/>
<defs>
<linearGradient id="paint0_linear_13334_80804" x1="-0.067507" y1="14.9481" x2="121.641" y2="14.9481" gradientUnits="userSpaceOnUse">
<stop stop-color="#17DCF7"/>
<stop offset="0.552083" stop-color="#FFAA29"/>
<stop offset="1" stop-color="#FF25E9"/>
</linearGradient>
</defs>
</svg> 