<svg xmlns="http://www.w3.org/2000/svg" width="100" height="100" viewBox="0 0 100 100" fill="none">
<defs>
<!-- Gradiente oficial de Towns -->
<linearGradient id="townsGradient" x1="0%" y1="0%" x2="100%" y2="100%" gradientUnits="objectBoundingBox">
<stop offset="0.31" stop-color="#2DD6E1"/>
<stop offset="0.55" stop-color="#FDA92A"/>
<stop offset="0.745" stop-color="#FD2BDD"/>
</linearGradient>
</defs>

<!-- Fondo sutil -->
<rect width="100" height="100" fill="url(#townsGradient)" opacity="0.1" rx="12"/>

<!-- Personas de la comunidad -->
<g opacity="0.8">
  <!-- Persona central -->
  <circle cx="50" cy="40" r="12" fill="url(#townsGradient)" opacity="0.6"/>
  <circle cx="50" cy="35" r="6" fill="white"/>
  <rect x="44" y="45" width="12" height="8" fill="white" rx="2"/>
  
  <!-- Persona izquierda -->
  <circle cx="25" cy="50" r="10" fill="url(#townsGradient)" opacity="0.5"/>
  <circle cx="25" cy="46" r="5" fill="white"/>
  <rect x="20" y="53" width="10" height="6" fill="white" rx="1"/>
  
  <!-- Persona derecha -->
  <circle cx="75" cy="50" r="10" fill="url(#townsGradient)" opacity="0.5"/>
  <circle cx="75" cy="46" r="5" fill="white"/>
  <rect x="70" y="53" width="10" height="6" fill="white" rx="1"/>
</g>

<!-- Conexiones entre personas -->
<g opacity="0.4">
  <line x1="35" y1="50" x2="40" y2="45" stroke="url(#townsGradient)" stroke-width="2"/>
  <line x1="60" y1="45" x2="65" y2="50" stroke="url(#townsGradient)" stroke-width="2"/>
</g>

<!-- Elementos decorativos de comunidad -->
<g opacity="0.3">
  <circle cx="20" cy="25" r="3" fill="url(#townsGradient)"/>
  <circle cx="80" cy="25" r="3" fill="url(#townsGradient)"/>
  <circle cx="15" cy="75" r="2" fill="url(#townsGradient)"/>
  <circle cx="85" cy="75" r="2" fill="url(#townsGradient)"/>
</g>

<!-- Corazón de comunidad en la parte inferior -->
<path d="M45 75 C45 70, 40 68, 37 70 C34 68, 29 70, 29 75 C29 80, 37 85, 37 85 C37 85, 45 80, 45 75" 
      fill="url(#townsGradient)" opacity="0.6"/>
</svg> 