<svg width="524" height="641" viewBox="0 0 524 641" fill="none" xmlns="http://www.w3.org/2000/svg">
<path d="M524 377.574C524 522.936 406.597 641 261.943 641C117.403 641.115 0 523.051 0 377.574V0H524V377.574ZM388.084 367.092C384.29 364.903 381.07 361.793 378.655 358.108L318.287 264.924C313.457 257.552 312.537 248.452 315.642 240.159L340.019 174.965C342.549 168.399 347.264 162.986 353.473 159.991L377.39 148.012C380.035 146.629 379.115 142.713 376.126 142.713H353.473C351.518 142.713 350.138 140.64 350.943 138.797L364.167 107.812C364.972 105.969 363.592 103.896 361.637 103.896H342.089C340.249 103.896 338.869 102.053 339.444 100.21L348.068 74.409C348.643 72.566 347.379 70.7231 345.424 70.7231H296.899C295.404 70.7231 294.139 69.4561 294.139 67.9587V46.6496C294.139 44.8066 292.529 43.5396 290.69 44.0004L253.433 53.3303C251.709 53.6758 249.984 52.4088 249.984 50.681V36.9741C249.984 34.7856 247.569 33.5186 245.844 34.5552L224.226 47.5711C223.077 48.147 221.697 48.0318 220.892 47.1103L216.062 42.2726C214.338 40.5448 211.348 41.6967 211.348 44.2307V79.0163C211.348 80.5137 210.083 81.7808 208.588 81.7808H134.191V87.3096L201.919 96.9851C207.323 97.7914 211.348 102.399 211.348 107.928V175.656H216.867L259.068 122.902C260.103 121.634 261.943 121.519 263.092 122.671L272.521 132.116C279.076 138.682 281.835 148.012 280.111 157.111L279.766 159.069C278.386 166.211 274.131 172.546 268.037 176.577L218.937 209.405C214.568 212.284 208.703 211.708 205.023 208.023L182.486 185.447C179.726 182.682 176.391 180.494 172.827 179.111L76.9269 142.598L51.6296 131.54V137.069L67.038 162.755C67.7279 163.907 69.1077 164.368 70.2576 164.022L78.9967 161.143C82.5613 159.991 86.4709 160.682 89.3456 162.986L107.974 177.96C110.733 180.148 113.953 181.876 117.288 182.797L147.645 191.897C159.258 195.468 167.307 206.18 167.307 218.389V260.662C167.307 269.761 162.938 278.17 155.464 283.353L107.629 316.641C100.154 321.825 95.785 330.233 95.785 339.333V451.867H101.304L116.368 431.71C117.173 430.558 117.058 429.061 116.138 428.14L108.434 420.422C107.514 419.501 107.399 418.003 108.089 416.967L110.733 412.935C115.218 406.255 116.483 397.846 114.298 390.014L109.469 373.082C107.744 366.977 108.089 360.526 110.618 354.652L118.208 336.914C121.427 329.427 127.752 323.668 135.571 321.364L168.342 311.573C174.782 309.615 181.796 310.191 187.89 312.955L243.774 339.102C251.479 342.673 252.399 353.27 245.384 358.108L212.613 381.029C208.588 383.794 206.978 388.977 208.473 393.584L224.916 442.883C226.641 448.066 224.341 453.71 219.397 456.244L183.866 473.983L139.825 496.098V501.627H186.625C188.12 501.627 189.385 500.36 189.385 498.863V487.805C189.385 486.308 190.65 485.041 192.145 485.041H202.609C204.794 485.041 206.863 484.349 208.703 483.198L251.939 454.286C254.238 452.789 255.848 450.37 256.538 447.721L266.657 407.061C268.842 398.192 280.111 395.658 285.86 402.799L334.04 462.234C340.019 469.491 341.744 479.397 338.754 488.381L317.482 552.193C316.447 555.188 314.262 557.491 311.502 558.874L266.312 578.916V584.444H313.112C314.607 584.444 315.872 583.177 315.872 581.68V569.355C315.872 568.434 316.332 567.512 317.137 567.052L329.9 558.528C331.51 557.376 332.89 555.879 333.81 554.036L365.432 486.077C368.996 478.475 368.881 469.606 365.087 462.119L356.693 445.302C355.313 442.538 355.198 439.197 356.348 436.202L372.101 396.694C374.516 390.705 381.415 388.055 387.279 390.935L407.862 401.302C415.451 405.218 424.765 403.605 430.745 397.616L453.397 374.924C460.067 368.244 461.102 357.877 456.042 350.045L400.503 264.463C395.903 257.321 394.754 248.452 397.628 240.389L433.275 137.76C435.804 130.504 441.324 124.514 448.453 121.519L475.82 109.771V104.242H454.087C447.878 104.242 442.934 99.0584 443.048 92.9536L443.853 60.1261H437.184L428.445 85.8122C426.95 90.3044 422.696 93.2992 417.981 93.2992H404.183V98.828L417.291 105.394C422.351 107.928 424.65 113.917 422.581 119.216L376.126 240.274C372.906 248.567 373.941 257.782 378.77 265.269L437.874 356.38C440.749 360.757 440.174 366.516 436.494 370.202L426.72 379.993C423.156 383.563 417.751 384.254 413.497 381.72L387.969 367.322L388.084 367.092Z" fill="#EF03AC"/>
</svg>
