<?xml version="1.0" encoding="UTF-8"?>
<svg width="422px" height="110px" viewBox="0 0 422 110" version="1.1" xmlns="http://www.w3.org/2000/svg" xmlns:xlink="http://www.w3.org/1999/xlink">
    <title>Group</title>
    <g id="Page-1" stroke="none" stroke-width="1" fill="none" fill-rule="evenodd">
        <g id="Frame" transform="translate(-39, -195)" fill="#EF03AC">
            <g id="Group" transform="translate(38, 195)">
                <path d="M47.584,0.156 C70.366,0.156 85.157,4.756 95.414,14.467 C103.518,22.36 109.526,33.888 109.526,49.845 C109.526,69.039 101.648,84.485 88.954,94.082 C76.543,103.452 60.618,107.257 40.67,107.257 L1,107.257 L1,102.373 C14.828,101.124 15.621,99.931 15.621,86.359 L15.621,21.224 C15.621,7.141 13.695,6.346 1,5.097 L1,0.213 L47.527,0.213 L47.584,0.156 Z M31.546,85.053 C31.546,97.262 36.363,100.84 48.661,100.84 C76.94,100.84 91.617,81.419 91.617,52.173 C91.617,34.626 85.837,20.94 73.879,13.217 C66.455,8.05 57.105,6.176 46.054,6.176 C38.913,6.176 35.173,7.198 33.643,8.504 C32.169,9.583 31.546,11.57 31.546,17.703 L31.546,85.11 L31.546,85.053 Z" id="Shape" fill-rule="nonzero"></path>
                <path d="M234.967,4.6565 C224.596,5.338 220.856,7.9502 220.516,15.5029 C220.346,19.3076 220.006,26.2357 220.006,41.3411 L220.006,59.1155 C220.006,75.924 218.023,88.758 208.502,98.81 C200.795,106.873 189.574,109.372 178.239,109.372 C168.719,109.372 158.518,107.385 151.264,101.819 C141.403,94.267 136.643,82.853 136.643,63.6016 L136.643,21.5791 C136.643,6.7576 135.339,5.7923 122.192,4.5997 L122.192,5.68434189e-14 L165.432,5.68434189e-14 L165.432,4.5997 C152.284,5.4515 150.981,6.7576 150.981,21.5791 L150.981,62.7498 C150.981,86.771 162.315,100.002 182.036,100.002 C205.385,100.002 212.752,85.522 212.752,58.1501 L212.752,41.3411 C212.752,26.1789 212.242,19.9323 211.902,15.5029 C211.392,8.0638 207.652,5.2812 195.467,4.6565 L195.467,0.0568 L234.911,0.0568 L234.911,4.6565 L234.967,4.6565 Z" id="Path" fill-rule="nonzero"></path>
                <path d="M364.87,6.04 C354.442,7.232 351.042,8.936 350.532,16.489 C350.305,21.94 349.965,28.641 349.965,43.803 L349.965,109.79 L343.165,109.79 L273.119,24.325 L273.119,64.815 C273.119,79.522 273.573,86.791 273.913,91.561 C274.31,99.739 278.276,102.464 290.177,103.373 L290.177,108.257 L250.111,108.257 L250.111,103.373 C260.142,102.578 264.109,100.079 264.845,92.072 C265.355,86.678 265.695,79.522 265.695,64.644 L265.695,23.19 C265.695,18.419 265.355,15.637 262.352,11.889 C259.235,7.743 255.721,6.892 247.844,6.097 L247.844,1.213 L273.856,1.213 L342.258,82.305 L342.258,43.86 C342.258,28.698 341.975,21.94 341.465,16.773 C340.955,9.447 337.384,6.892 324.18,6.097 L324.18,1.213 L364.757,1.213 L364.757,6.097 L364.87,6.04 Z" id="Path" fill-rule="nonzero"></path>
                <path d="M377.255,109.202 L377.255,104.319 C390.565,102.899 391.875,102.161 391.875,88.191 L391.875,23.283 C391.875,9.2 390.515,8.405 377.255,6.985 L377.255,2.102 L422.535,2.102 L422.535,6.985 C409.095,8.405 407.735,9.143 407.735,23.283 L407.735,88.191 C407.735,102.274 409.095,102.842 422.535,104.319 L422.535,109.202 L377.255,109.202 Z" id="Path" fill-rule="nonzero"></path>
            </g>
        </g>
    </g>
</svg>