<svg width="64" height="64" viewBox="0 0 64 64" fill="none" xmlns="http://www.w3.org/2000/svg">
    <rect width="64" height="64" rx="32" fill="#F5F5F5"/>
    <path d="M24.7523 14.98C24.2598 14.9096 24.2364 14.8862 24.4709 14.8627C24.9165 14.7924 25.9483 14.8862 26.6754 15.0504C28.3639 15.449 29.8883 16.4809 31.5064 18.2867L31.9286 18.7792L32.5383 18.6854C35.1415 18.2633 37.815 18.5916 40.0429 19.6235C40.6527 19.9049 41.6142 20.4677 41.7315 20.6085C41.7784 20.6554 41.8487 20.9602 41.8956 21.2651C42.0598 22.3674 41.9894 23.1882 41.6377 23.8214C41.4501 24.1731 41.4501 24.267 41.5673 24.5718C41.6611 24.8064 41.9425 24.9705 42.2005 24.9705C42.7634 24.9705 43.3497 24.0793 43.6311 22.8364L43.7483 22.3439L43.9594 22.5784C45.1555 23.9152 46.0935 25.7679 46.2342 27.0812L46.2811 27.433L46.0701 27.1281C45.7183 26.5887 45.39 26.2369 44.9444 25.932C44.147 25.3926 43.3028 25.2285 41.0748 25.1112C39.058 24.994 37.9088 24.8298 36.7831 24.4546C34.8601 23.8214 33.8751 23.0006 31.6003 19.9753C30.5918 18.6385 29.9586 17.9115 29.3254 17.3017C27.9418 15.965 26.5581 15.2614 24.7523 14.98Z"
          fill="#4F4F4F"/>
    <path d="M42.224 17.9583C42.2709 17.0671 42.3881 16.4808 42.6461 15.9414C42.7399 15.7303 42.8337 15.5427 42.8572 15.5427C42.8806 15.5427 42.8337 15.7069 42.7633 15.8945C42.5757 16.4104 42.5523 17.1375 42.6695 17.9583C42.8337 19.0136 42.9041 19.1543 44.0297 20.3035C44.5457 20.8429 45.1554 21.523 45.39 21.8044L45.7886 22.3203L45.39 21.9451C44.8975 21.4761 43.7718 20.5849 43.5138 20.4676C43.3496 20.3738 43.3262 20.3738 43.2089 20.4911C43.1151 20.5849 43.0917 20.7256 43.0917 21.4057C43.0682 22.461 42.9275 23.1177 42.5757 23.7978C42.3881 24.1496 42.3647 24.0792 42.5288 23.6805C42.6461 23.3757 42.6695 23.2349 42.6695 22.2265C42.6695 20.1862 42.435 19.6937 41.0045 18.8729C40.6527 18.6618 40.0429 18.357 39.6911 18.1928C39.3159 18.0286 39.0345 17.8879 39.0579 17.8879C39.1048 17.841 40.4885 18.2397 41.0279 18.4742C41.8487 18.8025 41.9894 18.826 42.0832 18.8025C42.1536 18.7322 42.2005 18.5446 42.224 17.9583Z"
          fill="#4F4F4F"/>
    <path d="M25.7138 21.4526C24.7289 20.0924 24.0957 17.9817 24.2364 16.4105L24.2833 15.918L24.5178 15.9649C24.9399 16.0352 25.6669 16.3167 26.0187 16.5277C26.9568 17.0906 27.3789 17.8645 27.7776 19.7875C27.8949 20.3504 28.059 21.007 28.1294 21.2181C28.2467 21.5699 28.6922 22.3907 29.0675 22.9066C29.3254 23.2819 29.1613 23.4695 28.575 23.4226C27.6838 23.3288 26.4878 22.508 25.7138 21.4526Z"
          fill="#4F4F4F"/>
    <path d="M41.0279 31.6542C36.3844 29.778 34.7428 28.1598 34.7428 25.416C34.7428 25.0173 34.7662 24.689 34.7662 24.689C34.7897 24.689 34.9539 24.8297 35.1649 24.9938C36.103 25.7443 37.1583 26.0726 40.0898 26.4948C41.8018 26.7527 42.7868 26.9403 43.678 27.2452C46.5156 28.1833 48.2745 30.1064 48.6967 32.7095C48.8139 33.46 48.7436 34.8905 48.556 35.641C48.3918 36.2273 47.9228 37.3061 47.8055 37.3295C47.7821 37.3295 47.7351 37.2123 47.7351 37.0247C47.6882 36.0397 47.1958 35.1016 46.3749 34.3746C45.39 33.5303 44.1236 32.8971 41.0279 31.6542Z"
          fill="#4F4F4F"/>
    <path d="M37.7447 32.4281C37.6978 32.0763 37.5805 31.6307 37.5101 31.4431L37.3929 31.0913L37.604 31.3493C37.9088 31.7011 38.1433 32.1232 38.3544 32.7095C38.5186 33.1551 38.5186 33.2958 38.5186 34.0228C38.5186 34.7264 38.4951 34.8905 38.3544 35.2892C38.1199 35.9224 37.8385 36.368 37.3694 36.8605C36.5252 37.7282 35.4229 38.1972 33.8517 38.4083C33.5702 38.4318 32.7729 38.5021 32.0693 38.549C30.3104 38.6428 29.1378 38.8304 28.0825 39.2057C27.9418 39.2526 27.8011 39.2995 27.7776 39.276C27.7307 39.2291 28.4577 38.807 29.044 38.5256C29.8648 38.1269 30.7091 37.9158 32.5618 37.5875C33.4764 37.4468 34.4145 37.2592 34.649 37.1653C36.9708 36.4383 38.1199 34.6325 37.7447 32.4281Z"
          fill="#4F4F4F"/>
    <path d="M39.8788 36.2039C39.2691 34.8671 39.1283 33.6007 39.4567 32.4047C39.5036 32.2874 39.5505 32.1702 39.5974 32.1702C39.6443 32.1702 39.785 32.2405 39.9257 32.3343C40.2071 32.5219 40.7934 32.8503 42.2944 33.6711C44.194 34.703 45.2727 35.5003 46.0232 36.415C46.6799 37.2123 47.0785 38.1269 47.2662 39.2526C47.3834 39.8858 47.3131 41.4102 47.1489 42.0434C46.633 44.0368 45.4604 45.6316 43.7484 46.5462C43.4904 46.6869 43.2793 46.7807 43.2559 46.7807C43.2324 46.7807 43.3262 46.5462 43.4669 46.2648C44.0298 45.0687 44.1001 43.9196 43.678 42.6297C43.42 41.8323 42.8806 40.8708 41.8019 39.2526C40.512 37.3765 40.2071 36.884 39.8788 36.2039Z"
          fill="#4F4F4F"/>
    <path d="M22.4071 43.38C24.1425 41.926 26.2767 40.8941 28.2466 40.5658C29.0909 40.4251 30.498 40.472 31.2719 40.683C32.5149 41.0114 33.6406 41.7149 34.2269 42.5826C34.7897 43.4269 35.0477 44.1539 35.3056 45.7721C35.3995 46.4053 35.5167 47.062 35.5402 47.2027C35.7278 48.0469 36.103 48.7036 36.572 49.0554C37.2991 49.5948 38.5655 49.6182 39.8084 49.1492C40.0195 49.0788 40.2071 49.0085 40.2071 49.0319C40.254 49.0788 39.6208 49.501 39.1987 49.712C38.6124 50.0169 38.1433 50.1107 37.5101 50.1107C36.3844 50.1107 35.4229 49.5244 34.649 48.3518C34.4848 48.1173 34.1565 47.4372 33.8751 46.804C33.0543 44.9044 32.6321 44.3415 31.6706 43.7083C30.8263 43.1689 29.7475 43.0517 28.9267 43.4504C27.8479 43.9663 27.5665 45.35 28.317 46.1942C28.6219 46.546 29.1847 46.8274 29.6537 46.8978C30.5215 47.0151 31.2719 46.335 31.2719 45.4672C31.2719 44.9044 31.0609 44.5761 30.498 44.3181C29.7475 43.9898 28.9267 44.365 28.9502 45.092C28.9502 45.3969 29.0909 45.5845 29.3958 45.7252C29.5834 45.819 29.5834 45.819 29.4427 45.7956C28.7626 45.6548 28.5984 44.8106 29.1378 44.2712C29.7944 43.6145 31.1781 43.896 31.6471 44.8106C31.8348 45.1858 31.8582 45.9363 31.6941 46.4053C31.2954 47.4372 30.1697 47.9766 29.0205 47.6717C28.2466 47.4606 27.9183 47.2496 26.9802 46.288C25.3386 44.5995 24.7054 44.2712 22.3602 43.9194L21.9146 43.849L22.4071 43.38Z"
          fill="#4F4F4F"/>
    <path fill-rule="evenodd" clip-rule="evenodd"
          d="M16.6614 13.1823C22.1257 19.8192 23.955 22.6018 24.3771 23.1646C24.7289 23.6337 24.5882 24.0793 24.0019 24.4076C23.6735 24.5952 22.9934 24.7828 22.6651 24.7828C22.2899 24.7828 21.8443 24.5952 21.5394 24.2903C21.3283 24.0793 20.4137 22.7425 18.3499 19.5296C17.1293 17.6535 17.1528 17.6769 17.1293 17.6535C17.0355 17.6066 17.1641 17.6843 18.1858 20.069C19.9916 23.2819 20.5779 24.431 20.5779 24.5718C20.5779 24.8766 20.4841 25.0408 20.1088 25.4629C19.4756 26.1665 19.1942 26.9638 18.9831 28.6289C18.7486 30.4816 18.1154 31.7949 16.3096 34.0229C15.2543 35.3362 15.0901 35.5707 14.8322 36.1101C14.5038 36.7667 14.41 37.142 14.3631 37.9862C14.3162 38.8774 14.41 39.4402 14.668 40.2845C14.9025 41.035 15.1605 41.5275 15.7937 42.489C16.3331 43.3333 16.6614 43.9665 16.6614 44.201C16.6614 44.3886 16.7083 44.3886 17.5526 44.201C19.5694 43.7319 21.2345 42.9346 22.1492 41.9496C22.712 41.3399 22.8527 41.0115 22.8527 40.1673C22.8527 39.6279 22.8293 39.5106 22.6885 39.1823C22.454 38.6663 22.0084 38.2442 21.0469 37.5875C19.7805 36.7198 19.2411 36.0163 19.1004 35.0782C18.9831 34.2808 19.1239 33.7414 19.8274 32.264C20.5544 30.7396 20.742 30.1064 20.8593 28.5586C20.9297 27.5736 21.0469 27.1749 21.3283 26.87C21.6332 26.5417 21.8912 26.4245 22.6182 26.3306C23.8142 26.1665 24.5881 25.8616 25.1979 25.2753C25.7373 24.7828 25.9718 24.2903 25.9953 23.5633L26.0187 23.0239L25.7138 22.6956C24.6116 21.4292 16.7318 13.1823 16.6614 13.1823C16.2158 12.6195 16.638 13.1823 16.6614 13.1823ZM17.2712 38.9947C17.5291 38.5491 17.3884 37.9862 16.9663 37.7048C16.5676 37.4468 15.9578 37.5641 15.9578 37.9159C15.9578 38.0097 16.0048 38.1035 16.1455 38.1504C16.3565 38.2677 16.38 38.3849 16.2158 38.6429C16.0517 38.9009 16.0517 39.1354 16.2627 39.2995C16.5911 39.5575 17.0366 39.4168 17.2712 38.9947Z"
          fill="#4F4F4F"/>
    <path fill-rule="evenodd" clip-rule="evenodd"
          d="M26.7692 26.6591C26.2063 26.8233 25.6669 27.433 25.5028 28.0428C25.409 28.418 25.4559 29.0981 25.62 29.3092C25.878 29.6375 26.1125 29.7313 26.7692 29.7313C28.059 29.7313 29.1613 29.1685 29.2785 28.4884C29.3958 27.9255 28.9033 27.1516 28.2232 26.7998C27.8714 26.6122 27.1444 26.5419 26.7692 26.6591ZM28.2701 27.8317C28.4577 27.5503 28.3874 27.2454 28.0356 27.0344C27.4024 26.6357 26.4408 26.964 26.4408 27.5738C26.4408 27.8786 26.9333 28.207 27.4024 28.207C27.7072 28.207 28.1294 28.0193 28.2701 27.8317Z"
          fill="#4F4F4F"/>
</svg>
