<svg width="36" height="36" viewBox="0 0 36 36" fill="none" xmlns="http://www.w3.org/2000/svg">
    <path d="M12.6103 6.92064C12.2822 6.86975 12.2684 6.86374 12.4228 6.84004C12.7187 6.7945 13.4174 6.85655 13.899 6.97101C15.0231 7.23823 16.0459 7.92274 17.1378 9.13837L17.4279 9.46136L17.8428 9.39464C19.591 9.11371 21.3693 9.33696 22.8568 10.0241C23.266 10.2131 23.9112 10.5895 23.9918 10.6862C24.0175 10.717 24.0647 10.9154 24.0966 11.1271C24.2071 11.8594 24.1518 12.4208 23.9278 12.8401C23.8059 13.0683 23.7991 13.1405 23.881 13.3358C23.9465 13.4917 24.1288 13.607 24.3094 13.6068C24.6791 13.6062 25.0769 13.0087 25.2613 12.1773L25.3345 11.847L25.4796 12.0113C26.2753 12.9128 26.9003 14.1423 27.0076 15.0174L27.0355 15.2455L26.9018 15.0381C26.6716 14.6812 26.4403 14.4382 26.1442 14.2422C25.6103 13.889 25.0458 13.7688 23.5509 13.69C22.2007 13.6188 21.4366 13.5035 20.6788 13.2564C19.3897 12.8361 18.7398 12.2763 17.2084 10.2671C16.5282 9.37476 16.1078 8.88098 15.6896 8.48335C14.7393 7.57987 13.8056 7.10603 12.6103 6.92064Z"
          fill="#FF007A"/>
    <path d="M24.2964 8.91318C24.3303 8.31522 24.4114 7.92074 24.5745 7.56057C24.639 7.41797 24.6995 7.30127 24.7088 7.30127C24.7181 7.30127 24.6901 7.40652 24.6465 7.53513C24.5279 7.88474 24.5085 8.36285 24.5901 8.91919C24.6938 9.62504 24.7527 9.72686 25.4987 10.4894C25.8487 10.847 26.2557 11.2981 26.4032 11.4917L26.6715 11.8438L26.4032 11.5922C26.0751 11.2845 25.3206 10.6843 25.1539 10.5985C25.0422 10.541 25.0256 10.5419 24.9566 10.6106C24.8931 10.6738 24.8797 10.7688 24.8709 11.2179C24.8572 11.9179 24.7618 12.3672 24.5315 12.8164C24.407 13.0594 24.3873 13.0075 24.5001 12.7333C24.5842 12.5285 24.5927 12.4385 24.5921 11.7608C24.5908 10.3994 24.4292 10.0721 23.4813 9.51137C23.2411 9.36933 22.8455 9.16445 22.6021 9.05611C22.3586 8.94778 22.1652 8.85337 22.1722 8.84635C22.1991 8.81962 23.1235 9.08942 23.4956 9.23252C24.049 9.44543 24.1404 9.47301 24.2076 9.44734C24.2527 9.43016 24.2745 9.2989 24.2964 8.91318Z"
          fill="#FF007A"/>
    <path d="M13.2477 11.2423C12.5816 10.3252 12.1695 8.91909 12.2586 7.86796L12.2863 7.54266L12.4379 7.57035C12.7227 7.6223 13.2136 7.80505 13.4435 7.94467C14.0744 8.32781 14.3475 8.83226 14.6254 10.1276C14.7068 10.507 14.8135 10.9364 14.8627 11.0818C14.9418 11.3158 15.2407 11.8623 15.4837 12.2172C15.6588 12.4728 15.5425 12.594 15.1556 12.559C14.5646 12.5057 13.7641 11.9533 13.2477 11.2423Z"
          fill="#FF007A"/>
    <path d="M23.4883 18.0678C20.3753 16.8144 19.2789 15.7264 19.2789 13.8907C19.2789 13.6205 19.2882 13.3995 19.2995 13.3995C19.3108 13.3995 19.4313 13.4887 19.5672 13.5976C20.1984 14.1039 20.9053 14.3202 22.8623 14.6057C24.0139 14.7737 24.6619 14.9094 25.2597 15.1076C27.1598 15.7378 28.3354 17.0166 28.6157 18.7584C28.6972 19.2646 28.6494 20.2136 28.5173 20.7139C28.413 21.109 28.0949 21.8211 28.0105 21.8484C27.9871 21.856 27.9641 21.7664 27.9581 21.6443C27.9261 20.9903 27.5956 20.3535 27.0405 19.8766C26.4095 19.3343 25.5615 18.9025 23.4883 18.0678Z"
          fill="#FF007A"/>
    <path d="M21.3029 18.5885C21.2639 18.3564 21.1963 18.06 21.1526 17.9298L21.0731 17.6931L21.2207 17.8587C21.4248 18.0879 21.5862 18.3812 21.7229 18.7717C21.8273 19.0698 21.839 19.1584 21.8382 19.6429C21.8375 20.1185 21.8244 20.2182 21.7281 20.4865C21.5761 20.9096 21.3875 21.2096 21.071 21.5316C20.5024 22.1104 19.7713 22.4308 18.7162 22.5637C18.5328 22.5868 17.9983 22.6257 17.5284 22.6502C16.3441 22.7117 15.5647 22.839 14.8644 23.0849C14.7637 23.1203 14.6737 23.1418 14.6646 23.1327C14.6363 23.1045 15.1132 22.8202 15.507 22.6304C16.0624 22.3629 16.6152 22.217 17.8538 22.0107C18.4657 21.9088 19.0976 21.7852 19.258 21.736C20.7733 21.2714 21.5522 20.0725 21.3029 18.5885Z"
          fill="#FF007A"/>
    <path d="M22.7299 21.1229C22.3163 20.2337 22.2214 19.3753 22.4479 18.5746C22.4722 18.4891 22.5112 18.4191 22.5347 18.4191C22.5581 18.4191 22.6557 18.4719 22.7515 18.5363C22.9421 18.6647 23.3243 18.8807 24.3428 19.436C25.6136 20.1289 26.3382 20.6654 26.831 21.2783C27.2624 21.8152 27.5295 22.4266 27.6581 23.1721C27.7308 23.5945 27.6882 24.6106 27.5798 25.0359C27.2381 26.3768 26.444 27.43 25.3113 28.0445C25.1454 28.1346 24.9964 28.2085 24.9803 28.2089C24.9642 28.2092 25.0246 28.0554 25.1146 27.8672C25.4957 27.0707 25.5391 26.2959 25.251 25.4336C25.0746 24.9055 24.715 24.2612 23.9889 23.1723C23.1446 21.9063 22.9376 21.5693 22.7299 21.1229Z"
          fill="#FF007A"/>
    <path d="M11.0369 25.9203C12.1922 24.9448 13.6296 24.2519 14.9389 24.0392C15.5032 23.9475 16.4432 23.9839 16.9657 24.1176C17.8033 24.332 18.5525 24.8121 18.9422 25.3841C19.323 25.9431 19.4864 26.4303 19.6565 27.5142C19.7236 27.9418 19.7966 28.3711 19.8186 28.4683C19.9464 29.0301 20.195 29.4791 20.503 29.7046C20.9923 30.0627 21.8348 30.085 22.6635 29.7617C22.8042 29.7068 22.9263 29.6689 22.9349 29.6775C22.9649 29.7073 22.5476 29.9867 22.2532 30.1337C21.8571 30.3316 21.542 30.4081 21.1235 30.4081C20.3644 30.4081 19.7342 30.022 19.2084 29.2346C19.1049 29.0797 18.8723 28.6155 18.6915 28.2033C18.1364 26.937 17.8622 26.5512 17.2175 26.129C16.6565 25.7617 15.9331 25.6959 15.3888 25.9628C14.6738 26.3133 14.4744 27.2269 14.9864 27.806C15.1899 28.0361 15.5695 28.2345 15.8798 28.2731C16.4604 28.3453 16.9593 27.9037 16.9593 27.3175C16.9593 26.9369 16.813 26.7197 16.4448 26.5535C15.9418 26.3266 15.4011 26.5918 15.4037 27.0644C15.4049 27.2659 15.4926 27.3924 15.6945 27.4838C15.8241 27.5424 15.8271 27.5471 15.7214 27.5251C15.26 27.4294 15.1518 26.8731 15.5229 26.5037C15.9684 26.0603 16.8896 26.2559 17.206 26.8612C17.3389 27.1154 17.3543 27.6217 17.2384 27.9274C16.9791 28.6117 16.223 28.9716 15.4559 28.7757C14.9337 28.6424 14.7211 28.4981 14.0914 27.8495C12.9973 26.7225 12.5726 26.5041 10.9953 26.2579L10.693 26.2107L11.0369 25.9203Z"
          fill="#FF007A"/>
    <path fill-rule="evenodd" clip-rule="evenodd"
          d="M2.78679 0.674121C6.44058 5.10873 12.0736 12.0132 12.3533 12.3997C12.5842 12.7189 12.4973 13.0058 12.1017 13.2307C11.8817 13.3558 11.4295 13.4825 11.203 13.4825C10.9469 13.4825 10.6584 13.3591 10.4483 13.1598C10.2998 13.019 9.70041 12.124 8.31674 9.977C7.25802 8.33425 6.37201 6.97148 6.34786 6.94867C6.29198 6.89588 6.29293 6.89768 8.20879 10.3257C9.41179 12.4782 9.8179 13.2392 9.8179 13.3409C9.8179 13.548 9.76145 13.6567 9.50608 13.9416C9.08037 14.4165 8.8901 14.9501 8.75272 16.0545C8.59867 17.2925 8.16566 18.167 6.96559 19.6636C6.26311 20.5398 6.14814 20.7003 5.9709 21.0535C5.74759 21.4981 5.68621 21.7472 5.66133 22.3087C5.63505 22.9024 5.68627 23.2859 5.86767 23.8536C6.02644 24.3505 6.19218 24.6786 6.61592 25.335C6.98159 25.9014 7.1922 26.3223 7.1922 26.4869C7.1922 26.6179 7.21719 26.6181 7.78387 26.4902C9.13991 26.1839 10.2411 25.6453 10.8604 24.9853C11.2436 24.5768 11.3336 24.3512 11.3365 23.7913C11.3384 23.4252 11.3256 23.3485 11.2266 23.1378C11.0655 22.795 10.7722 22.5099 10.1256 22.0679C9.27852 21.4889 8.91672 21.0226 8.81675 20.3815C8.73475 19.8554 8.82989 19.4843 9.29851 18.5021C9.78358 17.4854 9.90377 17.0522 9.98509 16.0275C10.0376 15.3654 10.1103 15.1043 10.3006 14.8947C10.4989 14.6761 10.6775 14.6022 11.1685 14.5351C11.9689 14.4257 12.4786 14.2187 12.8976 13.8326C13.261 13.4977 13.4131 13.175 13.4364 12.6892L13.4541 12.321L13.251 12.0842C12.5155 11.2266 2.29423 0 2.24897 0C2.2393 0 2.48133 0.303376 2.78679 0.674121ZM7.60505 22.9805C7.77135 22.686 7.683 22.3074 7.40483 22.1224C7.14199 21.9476 6.73369 22.03 6.73369 22.2577C6.73369 22.3272 6.77216 22.3778 6.85876 22.4224C7.00456 22.4974 7.01518 22.5818 6.90044 22.7542C6.78424 22.9289 6.79362 23.0825 6.92689 23.1868C7.14171 23.355 7.44577 23.2625 7.60505 22.9805Z"
          fill="#FF007A"/>
    <path fill-rule="evenodd" clip-rule="evenodd"
          d="M13.9592 14.7282C13.5835 14.8436 13.2182 15.2419 13.1051 15.6595C13.0362 15.9143 13.0753 16.3611 13.1786 16.4991C13.3456 16.722 13.507 16.7808 13.9441 16.7777C14.7998 16.7717 15.5437 16.4047 15.6302 15.9459C15.7011 15.5698 15.3744 15.0486 14.9243 14.8198C14.6921 14.7017 14.1982 14.6549 13.9592 14.7282ZM14.9596 15.5105C15.0916 15.323 15.0338 15.1203 14.8094 14.9833C14.382 14.7223 13.7357 14.9382 13.7357 15.342C13.7357 15.543 14.0727 15.7623 14.3817 15.7623C14.5873 15.7623 14.8687 15.6397 14.9596 15.5105Z"
          fill="#FF007A"/>
</svg>
