<svg xmlns="http://www.w3.org/2000/svg" width="50" height="50" viewBox="0 0 35 35" fill="none">
  <g transform="translate(3,0)">
    <path d="M28.3721 20.3184C28.372 28.1406 22.0161 34.4941 14.1855 34.4941C10.9609 34.4941 7.98701 33.4154 5.60352 31.6016C6.62523 29.3124 8.63128 25.7695 12.457 20.6582L13.5332 19.1582C13.6644 18.9753 13.9353 18.9472 14.0898 19.0986L21.0586 25.3164L21.8135 25.1904L20.2822 15.9756C20.1573 15.2234 20.604 14.5042 21.3252 14.2715L28.3721 12.0469V20.3184ZM1.87402 23.3506C2.02519 23.583 1.88349 23.896 1.61621 23.9404L0.517578 24.123C0.189806 22.9465 0.0109372 21.7086 0.000976562 20.4307L1.87402 23.3506ZM28.3721 10.9736L20.0684 12.3545C19.8642 12.3881 19.663 12.2453 19.6289 12.042L18.8428 7.30859C18.7855 6.96405 18.3505 6.87564 18.1533 7.14941L17.6016 7.91699C17.4966 8.06319 17.3098 8.11032 17.1553 8.05566L13.9023 6.77637C13.6248 6.66148 13.3413 6.90249 13.3906 7.2002L13.7002 9.06543C13.7415 9.31585 13.5344 9.52711 13.2881 9.50391L7.97754 9.08105C7.73117 9.05782 7.52655 9.28558 7.56543 9.52051L8.04688 12.4199C8.0807 12.6235 7.93665 12.8241 7.73242 12.8584L1.08984 13.9629C0.838498 14.0051 0.691494 14.287 0.811523 14.5244L2.5752 17.8389C2.69302 18.0607 2.56418 18.3558 2.29688 18.4004L0 18.7812V0H28.3721V10.9736Z" fill="black"/>
  </g>
</svg>
