<svg width="64" height="64" viewBox="0 0 64 64" fill="none" xmlns="http://www.w3.org/2000/svg">
    <path d="M20.6931 4.55041C19.8786 4.43405 19.8398 4.39526 20.2277 4.35647C20.9647 4.24011 22.6713 4.39526 23.8737 4.66678C26.6665 5.32617 29.1877 7.03284 31.864 10.0195L32.5622 10.834L33.5707 10.6789C37.8762 9.98072 42.298 10.5237 45.9828 12.2304C46.9913 12.6959 48.5816 13.6268 48.7756 13.8595C48.8531 13.9371 48.9695 14.4413 49.0471 14.9456C49.3186 16.7686 49.2022 18.1262 48.6204 19.1734C48.3101 19.7553 48.3101 19.9104 48.504 20.4147C48.6592 20.8025 49.1247 21.074 49.5513 21.074C50.4822 21.074 51.4519 19.6001 51.9174 17.5444L52.1113 16.7298L52.4604 17.1177C54.4386 19.3286 55.9901 22.3928 56.2228 24.565L56.3004 25.1468L55.9513 24.6425C55.3695 23.7504 54.8265 23.1686 54.0895 22.6644C52.7707 21.7722 51.3744 21.5007 47.6895 21.3068C44.3537 21.1128 42.4531 20.8413 40.5913 20.2207C37.4107 19.1734 35.7816 17.8159 32.0192 12.8122C30.3513 10.6013 29.304 9.3989 28.2568 8.39041C25.9683 6.1795 23.6798 5.01587 20.6931 4.55041Z"
          fill="#FF007A"/>
    <path d="M49.5901 9.4766C49.6676 8.00266 49.8616 7.03296 50.2882 6.14084C50.4434 5.79175 50.5985 5.48145 50.6373 5.48145C50.6761 5.48145 50.5985 5.75296 50.4822 6.06326C50.1719 6.9166 50.1331 8.11902 50.327 9.4766C50.5985 11.2221 50.7149 11.4548 52.5767 13.3554C53.4301 14.2475 54.4385 15.3724 54.8264 15.8378L55.4858 16.6911L54.8264 16.0705C54.0119 15.2948 52.1501 13.8208 51.7234 13.6269C51.4519 13.4717 51.4131 13.4717 51.2192 13.6657C51.064 13.8208 51.0252 14.0536 51.0252 15.1784C50.9864 16.9239 50.7537 18.0099 50.1719 19.1348C49.8616 19.7166 49.8228 19.6002 50.0943 18.9408C50.2882 18.4366 50.327 18.2039 50.327 16.536C50.327 13.1614 49.9392 12.3469 47.5731 10.9893C46.9913 10.6402 45.9828 10.136 45.401 9.86448C44.7804 9.59296 44.3149 9.36023 44.3537 9.36023C44.4313 9.28266 46.7198 9.94205 47.6119 10.3299C48.9695 10.873 49.2022 10.9117 49.3573 10.873C49.4737 10.7566 49.5513 10.4463 49.5901 9.4766Z"
          fill="#FF007A"/>
    <path d="M22.2835 15.256C20.6544 13.0063 19.6071 9.51538 19.8398 6.9166L19.9174 6.10205L20.3053 6.17963C21.0035 6.29599 22.2059 6.76145 22.7877 7.11054C24.3392 8.04145 25.0374 9.32144 25.6968 12.5021C25.8907 13.433 26.1623 14.519 26.2786 14.8681C26.4726 15.4499 27.2095 16.8075 27.8301 17.6608C28.2568 18.2814 27.9853 18.5917 27.0156 18.5142C25.5417 18.359 23.5635 17.0014 22.2835 15.256Z"
          fill="#FF007A"/>
    <path d="M47.6119 32.1286C39.9319 29.0256 37.2168 26.3492 37.2168 21.8111C37.2168 21.1517 37.2556 20.6086 37.2556 20.6086C37.2944 20.6086 37.5659 20.8414 37.915 21.1129C39.4665 22.3541 41.2119 22.8971 46.0604 23.5953C48.8919 24.022 50.521 24.3323 51.995 24.8365C56.6883 26.388 59.5974 29.5686 60.2956 33.8741C60.4895 35.1153 60.3732 37.4814 60.0629 38.7226C59.7913 39.6923 59.0156 41.4765 58.8216 41.5153C58.7829 41.5153 58.7053 41.3214 58.7053 41.0111C58.6277 39.382 57.8132 37.8305 56.4556 36.628C54.8265 35.2317 52.7319 34.1844 47.6119 32.1286Z"
          fill="#FF007A"/>
    <path d="M42.1817 33.4087C42.1041 32.8268 41.9101 32.0899 41.7938 31.7796L41.5998 31.1978L41.9489 31.6244C42.4532 32.2062 42.841 32.9044 43.1901 33.8741C43.4617 34.6111 43.4617 34.8438 43.4617 36.0462C43.4617 37.2099 43.4229 37.4814 43.1901 38.1408C42.8023 39.1881 42.3368 39.925 41.561 40.7396C40.1647 42.1747 38.3417 42.9505 35.7429 43.2996C35.2774 43.3384 33.9586 43.4547 32.795 43.5323C29.8859 43.6875 27.9465 43.9978 26.201 44.6184C25.9683 44.6959 25.7356 44.7735 25.6968 44.7347C25.6192 44.6571 26.8217 43.959 27.7914 43.4935C29.1489 42.8341 30.5453 42.485 33.6095 41.942C35.1223 41.7093 36.6738 41.399 37.0617 41.2438C40.9017 40.0414 42.8023 37.0547 42.1817 33.4087Z"
          fill="#FF007A"/>
    <path d="M45.7114 39.6535C44.7029 37.4425 44.4701 35.348 45.0132 33.3698C45.0908 33.1759 45.1683 32.9819 45.2459 32.9819C45.3235 32.9819 45.5562 33.0983 45.7889 33.2534C46.2544 33.5638 47.2241 34.1068 49.7065 35.4644C52.8483 37.171 54.6326 38.4898 55.8738 40.0025C56.9598 41.3213 57.6192 42.8341 57.9295 44.6959C58.1235 45.7431 58.0071 48.2644 57.7356 49.3116C56.8823 52.6086 54.9429 55.2462 52.1114 56.7589C51.6847 56.9916 51.3356 57.1468 51.2968 57.1468C51.258 57.1468 51.4132 56.7589 51.6459 56.2934C52.5768 54.3153 52.6932 52.4147 51.995 50.2813C51.5683 48.9625 50.6762 47.3722 48.892 44.6959C46.7586 41.5928 46.2544 40.7783 45.7114 39.6535Z"
          fill="#FF007A"/>
    <path d="M16.8143 51.5224C19.6846 49.1176 23.2143 47.4109 26.4725 46.8679C27.8688 46.6352 30.1961 46.7127 31.4761 47.0618C33.5319 47.6049 35.3937 48.7685 36.3634 50.2037C37.2943 51.6 37.721 52.8024 38.1476 55.4788C38.3028 56.5261 38.4967 57.6121 38.5355 57.8449C38.8458 59.2412 39.4664 60.3273 40.2422 60.9091C41.4446 61.8012 43.5391 61.84 45.5949 61.0643C45.944 60.9479 46.2543 60.8315 46.2543 60.8703C46.3319 60.9479 45.2846 61.6461 44.5864 61.9952C43.6167 62.4994 42.841 62.6546 41.7937 62.6546C39.9319 62.6546 38.3416 61.6849 37.0616 59.7455C36.7901 59.3576 36.247 58.2327 35.7816 57.1855C34.424 54.0437 33.7258 53.1127 32.1355 52.0655C30.7391 51.1734 28.9549 50.9794 27.5973 51.6388C25.8131 52.4921 25.3476 54.7806 26.5888 56.177C27.0931 56.7588 28.024 57.2243 28.7998 57.3406C30.2349 57.5346 31.4761 56.4097 31.4761 54.9746C31.4761 54.0437 31.127 53.5006 30.1961 53.074C28.9549 52.5309 27.5973 53.1515 27.6361 54.354C27.6361 54.8582 27.8688 55.1685 28.3731 55.4012C28.6834 55.5564 28.6834 55.5564 28.4507 55.5176C27.3258 55.2849 27.0543 53.8885 27.9464 52.9964C29.0325 51.9103 31.321 52.3758 32.0967 53.8885C32.407 54.5091 32.4458 55.7503 32.1743 56.5261C31.5149 58.2327 29.6531 59.1249 27.7525 58.6206C26.4725 58.2715 25.9295 57.9224 24.3779 56.3321C21.6628 53.5394 20.6155 52.9964 16.7367 52.4146L15.9998 52.2982L16.8143 51.5224Z"
          fill="#FF007A"/>
    <path fill-rule="evenodd" clip-rule="evenodd"
          d="M7.31134 1.5774C16.3489 12.5544 19.3744 17.1566 20.0726 18.0875C20.6544 18.8632 20.4216 19.6002 19.4519 20.1432C18.9089 20.4535 17.7841 20.7638 17.241 20.7638C16.6204 20.7638 15.8835 20.4535 15.3792 19.9493C15.0301 19.6002 13.5174 17.3893 10.1041 12.0753C8.08522 8.97233 8.12401 9.01112 8.08522 8.97233C7.93007 8.89476 8.14281 9.02335 9.83255 12.9675C12.8192 18.2814 13.7889 20.182 13.7889 20.4147C13.7889 20.919 13.6338 21.1905 13.0132 21.8887C11.9659 23.0523 11.5004 24.3711 11.1513 27.125C10.7635 30.1893 9.71618 32.3614 6.72952 36.0463C4.98406 38.2184 4.71255 38.6062 4.28588 39.4984C3.74285 40.5844 3.5877 41.205 3.51012 42.6014C3.43255 44.0753 3.5877 45.0062 4.01437 46.4026C4.40224 47.6438 4.82891 48.4584 5.87618 50.0487C6.7683 51.445 7.31134 52.4923 7.31134 52.8802C7.31134 53.1905 7.38891 53.1905 8.78528 52.8802C12.121 52.1044 14.875 50.7856 16.3877 49.1565C17.3186 48.1481 17.5513 47.605 17.5513 46.2087C17.5513 45.3165 17.5126 45.1226 17.2798 44.5796C16.8919 43.7262 16.155 43.0281 14.5647 41.942C12.4701 40.5068 11.578 39.3432 11.3453 37.7917C11.1513 36.4729 11.3841 35.5808 12.5477 33.1372C13.7501 30.6159 14.0604 29.5687 14.2544 27.0087C14.3707 25.3796 14.5647 24.7202 15.0301 24.2159C15.5344 23.6729 15.961 23.479 17.1635 23.3238C19.1416 23.0523 20.4216 22.5481 21.4301 21.5784C22.3222 20.7638 22.7101 19.9493 22.7489 18.7469L22.7877 17.8547L22.2835 17.3117C20.4604 15.2172 7.4277 1.5774 7.31134 1.5774C6.57437 0.646491 7.27255 1.5774 7.31134 1.5774ZM8.31982 44.2693C8.74649 43.5323 8.51376 42.6014 7.81558 42.1359C7.15618 41.7093 6.1477 41.9032 6.1477 42.485C6.1477 42.6402 6.22527 42.7953 6.458 42.8729C6.80709 43.0668 6.84588 43.2608 6.57437 43.6874C6.30285 44.1141 6.30285 44.502 6.65194 44.7735C7.19497 45.2002 7.93194 44.9674 8.31982 44.2693Z"
          fill="#FF007A"/>
    <path fill-rule="evenodd" clip-rule="evenodd"
          d="M24.0288 23.8668C23.0979 24.1383 22.2058 25.1468 21.9343 26.1553C21.7791 26.7759 21.8567 27.9007 22.1282 28.2498C22.5549 28.7928 22.9428 28.948 24.0288 28.948C26.1622 28.948 27.9852 28.0171 28.1792 26.8922C28.3731 25.9613 27.5585 24.6813 26.4337 24.0995C25.8519 23.7892 24.6495 23.6728 24.0288 23.8668ZM26.5113 25.8062C26.8216 25.3407 26.7052 24.8365 26.1234 24.4874C25.0761 23.828 23.4858 24.371 23.4858 25.3795C23.4858 25.8838 24.3004 26.4268 25.0761 26.4268C25.5804 26.4268 26.2785 26.1165 26.5113 25.8062Z"
          fill="#FF007A"/>
</svg>