<svg width="457" height="155" viewBox="0 0 457 155" fill="none" xmlns="http://www.w3.org/2000/svg">
<g clip-path="url(#clip0_6275_10430)">
<rect width="457" height="155" rx="8" fill="#2A2828"/>
<line opacity="0.1" x1="50.5" y1="-203.822" x2="50.5" y2="374.178" stroke="white" stroke-opacity="0.6" stroke-dasharray="2 2"/>
<line opacity="0.1" x1="101.5" y1="-203.822" x2="101.5" y2="374.178" stroke="white" stroke-opacity="0.6" stroke-dasharray="2 2"/>
<line opacity="0.1" x1="152.5" y1="-203.822" x2="152.5" y2="374.178" stroke="white" stroke-opacity="0.6" stroke-dasharray="2 2"/>
<line opacity="0.1" x1="203.5" y1="-203.822" x2="203.5" y2="374.178" stroke="white" stroke-opacity="0.6" stroke-dasharray="2 2"/>
<line opacity="0.1" x1="254.5" y1="-203.822" x2="254.5" y2="374.178" stroke="white" stroke-opacity="0.6" stroke-dasharray="2 2"/>
<line opacity="0.1" x1="305.5" y1="-203.822" x2="305.5" y2="374.178" stroke="white" stroke-opacity="0.6" stroke-dasharray="2 2"/>
<line opacity="0.1" x1="356.5" y1="-203.822" x2="356.5" y2="374.178" stroke="white" stroke-opacity="0.6" stroke-dasharray="2 2"/>
<line opacity="0.1" x1="407.5" y1="-203.822" x2="407.5" y2="374.178" stroke="white" stroke-opacity="0.6" stroke-dasharray="2 2"/>
<line opacity="0.1" x1="495" y1="3.67773" x2="-38" y2="3.67772" stroke="white" stroke-opacity="0.6" stroke-dasharray="2 2"/>
<line opacity="0.1" x1="495" y1="54.6777" x2="-38" y2="54.6777" stroke="white" stroke-opacity="0.6" stroke-dasharray="2 2"/>
<line opacity="0.1" x1="495" y1="105.678" x2="-38" y2="105.678" stroke="white" stroke-opacity="0.6" stroke-dasharray="2 2"/>
<g clip-path="url(#clip1_6275_10430)" filter="url(#filter0_dd_6275_10430)">
<g filter="url(#filter1_dd_6275_10430)">
<path d="M227.919 26.3956L229.067 34.9778C229.228 36.1808 229.309 36.7822 229.528 37.3243C229.722 37.8046 229.995 38.2491 230.336 38.6391C230.721 39.0791 231.221 39.4224 232.222 40.1091L239.362 45.0075L230.78 46.156C229.577 46.317 228.975 46.3975 228.433 46.6165C227.953 46.8106 227.509 47.0839 227.119 47.4249C226.679 47.8098 226.335 48.3101 225.649 49.3109L220.75 56.4509L219.602 47.8686C219.441 46.6657 219.36 46.0642 219.141 45.5222C218.947 45.0418 218.674 44.5974 218.333 44.2074C217.948 43.7673 217.448 43.424 216.447 42.7374L209.307 37.8389L217.889 36.6904C219.092 36.5294 219.693 36.4489 220.236 36.2299C220.716 36.0359 221.16 35.7626 221.55 35.4215C221.99 35.0367 222.334 34.5363 223.02 33.5355L227.919 26.3956Z" fill="#FF0030"/>
<path d="M227.919 26.3956L229.067 34.9778C229.228 36.1808 229.309 36.7822 229.528 37.3243C229.722 37.8046 229.995 38.2491 230.336 38.6391C230.721 39.0791 231.221 39.4224 232.222 40.1091L239.362 45.0075L230.78 46.156C229.577 46.317 228.975 46.3975 228.433 46.6165C227.953 46.8106 227.509 47.0839 227.119 47.4249C226.679 47.8098 226.335 48.3101 225.649 49.3109L220.75 56.4509L219.602 47.8686C219.441 46.6657 219.36 46.0642 219.141 45.5222C218.947 45.0418 218.674 44.5974 218.333 44.2074C217.948 43.7673 217.448 43.424 216.447 42.7374L209.307 37.8389L217.889 36.6904C219.092 36.5294 219.693 36.4489 220.236 36.2299C220.716 36.0359 221.16 35.7626 221.55 35.4215C221.99 35.0367 222.334 34.5363 223.02 33.5355L227.919 26.3956Z" fill="white" fill-opacity="0.4"/>
<path d="M227.919 26.3956L229.067 34.9778C229.228 36.1808 229.309 36.7822 229.528 37.3243C229.722 37.8046 229.995 38.2491 230.336 38.6391C230.721 39.0791 231.221 39.4224 232.222 40.1091L239.362 45.0075L230.78 46.156C229.577 46.317 228.975 46.3975 228.433 46.6165C227.953 46.8106 227.509 47.0839 227.119 47.4249C226.679 47.8098 226.335 48.3101 225.649 49.3109L220.75 56.4509L219.602 47.8686C219.441 46.6657 219.36 46.0642 219.141 45.5222C218.947 45.0418 218.674 44.5974 218.333 44.2074C217.948 43.7673 217.448 43.424 216.447 42.7374L209.307 37.8389L217.889 36.6904C219.092 36.5294 219.693 36.4489 220.236 36.2299C220.716 36.0359 221.16 35.7626 221.55 35.4215C221.99 35.0367 222.334 34.5363 223.02 33.5355L227.919 26.3956Z" stroke="#433F3F" stroke-width="4" stroke-linecap="round" stroke-linejoin="round"/>
</g>
</g>
<g filter="url(#filter2_dd_6275_10430)">
<path d="M287.145 54.7406L255.484 44.5923C253.842 44.0661 253.021 43.8029 252.291 43.9215C251.65 44.0257 251.057 44.3305 250.599 44.792C250.079 45.3167 249.816 46.1376 249.29 47.7795L247.34 53.8613C246.881 55.2954 246.651 56.0124 246.596 56.7391C246.548 57.3834 246.602 58.0313 246.755 58.659C246.928 59.3669 247.273 60.0364 247.962 61.3755L253.801 72.7238C254.59 74.2568 254.984 75.0234 254.987 75.7625C254.99 76.4126 254.787 77.0469 254.406 77.5744C253.974 78.174 253.208 78.5685 251.675 79.3573L240.327 85.1966C238.987 85.8856 238.318 86.2301 237.766 86.7056C237.276 87.1272 236.856 87.6232 236.52 88.1754C236.142 88.7983 235.912 89.5153 235.453 90.9495L233.503 97.0312C232.977 98.6731 232.714 99.494 232.832 100.224C232.937 100.865 233.241 101.458 233.703 101.915C234.228 102.436 235.049 102.699 236.69 103.225L268.352 113.374C269.994 113.9 270.815 114.163 271.545 114.044C272.186 113.94 272.779 113.635 273.236 113.174C273.757 112.649 274.02 111.828 274.546 110.186L276.496 104.105C276.955 102.671 277.185 101.953 277.24 101.227C277.288 100.582 277.234 99.9346 277.081 99.3069C276.908 98.599 276.563 97.9295 275.874 96.5904L270.035 85.2421C269.246 83.709 268.852 82.9425 268.849 82.2034C268.846 81.5533 269.049 80.919 269.429 80.3915C269.861 79.7919 270.628 79.3974 272.161 78.6086L283.509 72.7693C284.848 72.0803 285.518 71.7357 286.07 71.2603C286.56 70.8387 286.98 70.3427 287.316 69.7905C287.694 69.1676 287.924 68.4505 288.383 67.0164L290.333 60.9347C290.859 59.2928 291.122 58.4719 291.003 57.7423C290.899 57.1006 290.594 56.5084 290.133 56.0505C289.608 55.53 288.787 55.2669 287.145 54.7406Z" fill="white"/>
<path d="M287.145 54.7406L255.484 44.5923C253.842 44.0661 253.021 43.8029 252.291 43.9215C251.65 44.0257 251.057 44.3305 250.599 44.792C250.079 45.3167 249.816 46.1376 249.29 47.7795L247.34 53.8613C246.881 55.2954 246.651 56.0124 246.596 56.7391C246.548 57.3834 246.602 58.0313 246.755 58.659C246.928 59.3669 247.273 60.0364 247.962 61.3755L253.801 72.7238C254.59 74.2568 254.984 75.0234 254.987 75.7625C254.99 76.4126 254.787 77.0469 254.406 77.5744C253.974 78.174 253.208 78.5685 251.675 79.3573L240.327 85.1966C238.987 85.8856 238.318 86.2301 237.766 86.7056C237.276 87.1272 236.856 87.6232 236.52 88.1754C236.142 88.7983 235.912 89.5153 235.453 90.9495L233.503 97.0312C232.977 98.6731 232.714 99.494 232.832 100.224C232.937 100.865 233.241 101.458 233.703 101.915C234.228 102.436 235.049 102.699 236.69 103.225L268.352 113.374C269.994 113.9 270.815 114.163 271.545 114.044C272.186 113.94 272.779 113.635 273.236 113.174C273.757 112.649 274.02 111.828 274.546 110.186L276.496 104.105C276.955 102.671 277.185 101.953 277.24 101.227C277.288 100.582 277.234 99.9346 277.081 99.3069C276.908 98.599 276.563 97.9295 275.874 96.5904L270.035 85.2421C269.246 83.709 268.852 82.9425 268.849 82.2034C268.846 81.5533 269.049 80.919 269.429 80.3915C269.861 79.7919 270.628 79.3974 272.161 78.6086L283.509 72.7693C284.848 72.0803 285.518 71.7357 286.07 71.2603C286.56 70.8387 286.98 70.3427 287.316 69.7905C287.694 69.1676 287.924 68.4505 288.383 67.0164L290.333 60.9347C290.859 59.2928 291.122 58.4719 291.003 57.7423C290.899 57.1006 290.594 56.5084 290.133 56.0505C289.608 55.53 288.787 55.2669 287.145 54.7406Z" fill="white"/>
<path d="M230.858 100.544L232.832 100.224L230.858 100.544C231.03 101.603 231.533 102.58 232.294 103.335L233.683 101.935L232.294 103.335C232.819 103.855 233.424 104.173 234.014 104.417C234.567 104.645 235.249 104.864 236.011 105.108L236.08 105.13L267.742 115.278L267.811 115.3C268.573 115.544 269.255 115.763 269.837 115.899C270.46 116.044 271.136 116.137 271.865 116.019C272.924 115.847 273.901 115.344 274.656 114.582C275.177 114.058 275.494 113.453 275.738 112.863C275.966 112.31 276.185 111.628 276.429 110.866L276.451 110.797L278.4 104.715C278.422 104.649 278.443 104.583 278.463 104.519C278.863 103.275 279.162 102.343 279.234 101.376L277.24 101.227L279.234 101.376C279.298 100.522 279.227 99.6638 279.024 98.8323L277.081 99.3069L279.024 98.8323C278.793 97.8898 278.345 97.0198 277.747 95.8585C277.716 95.7982 277.684 95.7372 277.653 95.6753L271.813 84.3271C271.404 83.5312 271.153 83.0405 270.994 82.6578C270.844 82.2967 270.849 82.1958 270.849 82.1954C270.848 81.9677 270.919 81.7455 271.052 81.5607C271.052 81.5603 271.107 81.4756 271.439 81.269C271.791 81.05 272.28 80.7965 273.076 80.387L284.424 74.5477C284.486 74.5159 284.547 74.4845 284.608 74.4535C285.77 73.8563 286.64 73.4089 287.375 72.7759L286.134 71.3347L287.375 72.7759C288.024 72.2174 288.581 71.5603 289.025 70.8287L287.316 69.7905L289.025 70.8287C289.529 69.9994 289.827 69.0673 290.225 67.8231C290.246 67.7585 290.267 67.6931 290.288 67.6269L292.237 61.5451L292.259 61.4759C292.504 60.7143 292.722 60.0318 292.858 59.4497C293.003 58.8272 293.096 58.1508 292.978 57.4216C292.806 56.363 292.303 55.386 291.542 54.6307L290.138 56.0458L291.542 54.6307C291.017 54.1104 290.412 53.7932 289.822 53.5492C289.269 53.321 288.587 53.1023 287.825 52.8582L287.756 52.836L256.094 42.6878C256.071 42.6803 256.048 42.6729 256.025 42.6656C255.263 42.4214 254.581 42.2026 253.999 42.0671C253.376 41.9223 252.7 41.8289 251.971 41.9473C250.912 42.1193 249.935 42.622 249.18 43.3834C248.659 43.9079 248.342 44.5125 248.098 45.1033C247.87 45.6557 247.651 46.3382 247.407 47.0999C247.4 47.1229 247.392 47.1459 247.385 47.1691L245.436 53.2508C245.414 53.3171 245.393 53.3824 245.373 53.447C244.973 54.6909 244.674 55.6227 244.602 56.5902C244.538 57.4438 244.609 58.3021 244.812 59.1336L246.755 58.659L244.812 59.1336C245.043 60.076 245.491 60.9461 246.089 62.1074C246.12 62.1677 246.151 62.2287 246.183 62.2906L252.023 73.6388C252.432 74.4347 252.683 74.9254 252.842 75.3081C252.99 75.666 252.987 75.7683 252.987 75.7704L252.987 75.7705C252.988 75.9982 252.917 76.2204 252.784 76.4052L252.784 76.4053C252.783 76.4071 252.726 76.4922 252.397 76.6969C252.045 76.9159 251.556 77.1694 250.76 77.5789L239.411 83.4182C239.35 83.4501 239.289 83.4815 239.228 83.5124C238.066 84.1096 237.196 84.557 236.461 85.19C235.812 85.7485 235.255 86.4056 234.811 87.1372C234.307 87.9665 234.009 88.8986 233.611 90.1428C233.59 90.2073 233.569 90.2727 233.548 90.339L231.599 96.4208L231.577 96.4899C231.332 97.2516 231.114 97.9341 230.978 98.5162C230.833 99.1387 230.74 99.8151 230.858 100.544Z" stroke="#433F3F" stroke-width="4" stroke-linecap="round" stroke-linejoin="round"/>
</g>
<rect x="240.513" y="91.153" width="33.5418" height="7.37744" rx="2.78555" transform="rotate(17.7718 240.513 91.153)" fill="#FF0030" stroke="#433F3F" stroke-width="1.85703"/>
<g filter="url(#filter3_dd_6275_10430)">
<path d="M173.658 97.2153L176.838 99.6832C177.784 100.418 178.923 100.863 180.114 100.963C181.306 101.064 182.501 100.816 183.553 100.249C184.605 99.6831 185.47 98.8229 186.043 97.7728C186.615 96.7227 186.871 95.528 186.779 94.3334L186.471 90.3194C186.364 88.8943 186.708 87.4726 187.455 86.2571C188.208 85.0362 189.327 84.0861 190.654 83.5429L194.37 82.0267C195.476 81.5747 196.427 80.8106 197.106 79.8271C197.786 78.8436 198.166 77.6829 198.2 76.4858C198.234 75.2889 197.922 74.1067 197.299 73.0826C196.677 72.0586 195.772 71.2367 194.693 70.7167L191.069 68.9682C189.774 68.3381 188.712 67.3126 188.035 66.0399C187.353 64.7741 187.089 63.3257 187.28 61.9025L187.818 57.9142C187.978 56.7279 187.79 55.5196 187.278 54.4361C186.767 53.3526 185.952 52.4403 184.934 51.81C183.916 51.1788 182.738 50.8564 181.543 50.8819C180.348 50.9075 179.187 51.2798 178.2 51.9539L174.887 54.2207C173.703 55.0284 172.294 55.4396 170.86 55.3953C169.43 55.3467 168.051 54.846 166.921 53.9648L163.729 51.5028C162.783 50.7679 161.645 50.3232 160.453 50.2227C159.261 50.1223 158.067 50.3703 157.015 50.9367C155.962 51.5028 155.097 52.3631 154.525 53.4132C153.952 54.4632 153.696 55.658 153.788 56.8525L154.096 60.8665C154.209 62.2955 153.867 63.7223 153.12 64.9425C152.367 66.1635 151.247 67.1135 149.921 67.6568L146.193 69.1788C145.087 69.6309 144.137 70.395 143.457 71.3785C142.778 72.362 142.398 73.5226 142.364 74.7197C142.329 75.9166 142.642 77.0989 143.264 78.1229C143.887 79.147 144.792 79.9689 145.87 80.4889L149.495 82.2373C150.788 82.8617 151.851 83.88 152.532 85.1461C153.214 86.4118 153.478 87.8603 153.287 89.2835L152.75 93.2717C152.59 94.4581 152.777 95.6663 153.289 96.7498C153.801 97.8334 154.615 98.7457 155.633 99.376C156.651 100.006 157.829 100.328 159.024 100.303C160.219 100.277 161.38 99.9054 162.367 99.2321L165.68 96.9652C166.864 96.1575 168.273 95.7464 169.707 95.7906C171.14 95.8352 172.523 96.3341 173.658 97.2153Z" fill="#FF0030"/>
<path d="M174.26 82.9922C178.332 80.8006 179.851 75.7123 177.653 71.6271C175.454 67.542 170.371 66.0069 166.299 68.1985C162.226 70.39 160.707 75.4784 162.906 79.5635C165.104 83.6487 170.188 85.1838 174.26 82.9922Z" fill="#FF0030"/>
<path d="M173.658 97.2153L176.838 99.6832C177.784 100.418 178.923 100.863 180.114 100.963C181.306 101.064 182.501 100.816 183.553 100.249C184.605 99.6831 185.47 98.8229 186.043 97.7728C186.615 96.7227 186.871 95.528 186.779 94.3334L186.471 90.3194C186.364 88.8943 186.708 87.4726 187.455 86.2571C188.208 85.0362 189.327 84.0861 190.654 83.5429L194.37 82.0267C195.476 81.5747 196.427 80.8106 197.106 79.8271C197.786 78.8436 198.166 77.6829 198.2 76.4858C198.234 75.2889 197.922 74.1067 197.299 73.0826C196.677 72.0586 195.772 71.2367 194.693 70.7167L191.069 68.9682C189.774 68.3381 188.712 67.3126 188.035 66.0399C187.353 64.7741 187.089 63.3257 187.28 61.9025L187.818 57.9142C187.978 56.7279 187.79 55.5196 187.278 54.4361C186.767 53.3526 185.952 52.4403 184.934 51.81C183.916 51.1788 182.738 50.8564 181.543 50.8819C180.348 50.9075 179.187 51.2798 178.2 51.9539L174.887 54.2207C173.703 55.0284 172.294 55.4396 170.86 55.3953C169.43 55.3467 168.051 54.846 166.921 53.9648L163.729 51.5028C162.783 50.7679 161.645 50.3232 160.453 50.2227C159.261 50.1223 158.067 50.3703 157.015 50.9367C155.962 51.5028 155.097 52.3631 154.525 53.4132C153.952 54.4632 153.696 55.658 153.788 56.8525L154.096 60.8665C154.209 62.2955 153.867 63.7223 153.12 64.9425C152.367 66.1635 151.247 67.1135 149.921 67.6568L146.193 69.1788C145.087 69.6309 144.137 70.395 143.457 71.3785C142.778 72.362 142.398 73.5226 142.364 74.7197C142.329 75.9166 142.642 77.0989 143.264 78.1229C143.887 79.147 144.792 79.9689 145.87 80.4889L149.495 82.2373C150.788 82.8617 151.851 83.88 152.532 85.1461C153.214 86.4118 153.478 87.8603 153.287 89.2835L152.75 93.2717C152.59 94.4581 152.777 95.6663 153.289 96.7498C153.801 97.8334 154.615 98.7457 155.633 99.376C156.651 100.006 157.829 100.328 159.024 100.303C160.219 100.277 161.38 99.9054 162.367 99.2321L165.68 96.9652C166.864 96.1575 168.273 95.7464 169.707 95.7906C171.14 95.8352 172.523 96.3341 173.658 97.2153Z" stroke="#433F3F" stroke-width="4" stroke-linecap="round" stroke-linejoin="round"/>
<path d="M174.26 82.9922C178.332 80.8006 179.851 75.7123 177.653 71.6271C175.454 67.542 170.371 66.0069 166.299 68.1985C162.226 70.39 160.707 75.4784 162.906 79.5635C165.104 83.6487 170.188 85.1838 174.26 82.9922Z" stroke="#433F3F" stroke-width="4" stroke-linecap="round" stroke-linejoin="round"/>
</g>
</g>
<defs>
<filter id="filter0_dd_6275_10430" x="190" y="11.0889" width="68.6687" height="68.6687" filterUnits="userSpaceOnUse" color-interpolation-filters="sRGB">
<feFlood flood-opacity="0" result="BackgroundImageFix"/>
<feColorMatrix in="SourceAlpha" type="matrix" values="0 0 0 0 0 0 0 0 0 0 0 0 0 0 0 0 0 0 127 0" result="hardAlpha"/>
<feOffset dy="2"/>
<feGaussianBlur stdDeviation="1"/>
<feComposite in2="hardAlpha" operator="out"/>
<feColorMatrix type="matrix" values="0 0 0 0 0 0 0 0 0 0 0 0 0 0 0 0 0 0 0.03 0"/>
<feBlend mode="normal" in2="BackgroundImageFix" result="effect1_dropShadow_6275_10430"/>
<feColorMatrix in="SourceAlpha" type="matrix" values="0 0 0 0 0 0 0 0 0 0 0 0 0 0 0 0 0 0 127 0" result="hardAlpha"/>
<feOffset dy="4"/>
<feGaussianBlur stdDeviation="6"/>
<feComposite in2="hardAlpha" operator="out"/>
<feColorMatrix type="matrix" values="0 0 0 0 0 0 0 0 0 0 0 0 0 0 0 0 0 0 0.02 0"/>
<feBlend mode="normal" in2="effect1_dropShadow_6275_10430" result="effect2_dropShadow_6275_10430"/>
<feBlend mode="normal" in="SourceGraphic" in2="effect2_dropShadow_6275_10430" result="shape"/>
</filter>
<filter id="filter1_dd_6275_10430" x="195.307" y="16.3955" width="58.0557" height="58.0554" filterUnits="userSpaceOnUse" color-interpolation-filters="sRGB">
<feFlood flood-opacity="0" result="BackgroundImageFix"/>
<feColorMatrix in="SourceAlpha" type="matrix" values="0 0 0 0 0 0 0 0 0 0 0 0 0 0 0 0 0 0 127 0" result="hardAlpha"/>
<feOffset dy="2"/>
<feGaussianBlur stdDeviation="1"/>
<feComposite in2="hardAlpha" operator="out"/>
<feColorMatrix type="matrix" values="0 0 0 0 0 0 0 0 0 0 0 0 0 0 0 0 0 0 0.03 0"/>
<feBlend mode="normal" in2="BackgroundImageFix" result="effect1_dropShadow_6275_10430"/>
<feColorMatrix in="SourceAlpha" type="matrix" values="0 0 0 0 0 0 0 0 0 0 0 0 0 0 0 0 0 0 127 0" result="hardAlpha"/>
<feOffset dy="4"/>
<feGaussianBlur stdDeviation="6"/>
<feComposite in2="hardAlpha" operator="out"/>
<feColorMatrix type="matrix" values="0 0 0 0 0 0 0 0 0 0 0 0 0 0 0 0 0 0 0.02 0"/>
<feBlend mode="normal" in2="effect1_dropShadow_6275_10430" result="effect2_dropShadow_6275_10430"/>
<feBlend mode="normal" in="SourceGraphic" in2="effect2_dropShadow_6275_10430" result="shape"/>
</filter>
<filter id="filter2_dd_6275_10430" x="206.52" y="25.0373" width="110.796" height="122.748" filterUnits="userSpaceOnUse" color-interpolation-filters="sRGB">
<feFlood flood-opacity="0" result="BackgroundImageFix"/>
<feColorMatrix in="SourceAlpha" type="matrix" values="0 0 0 0 0 0 0 0 0 0 0 0 0 0 0 0 0 0 127 0" result="hardAlpha"/>
<feOffset dy="3.71406"/>
<feGaussianBlur stdDeviation="1.85703"/>
<feComposite in2="hardAlpha" operator="out"/>
<feColorMatrix type="matrix" values="0 0 0 0 0 0 0 0 0 0 0 0 0 0 0 0 0 0 0.03 0"/>
<feBlend mode="normal" in2="BackgroundImageFix" result="effect1_dropShadow_6275_10430"/>
<feColorMatrix in="SourceAlpha" type="matrix" values="0 0 0 0 0 0 0 0 0 0 0 0 0 0 0 0 0 0 127 0" result="hardAlpha"/>
<feOffset dy="7.42812"/>
<feGaussianBlur stdDeviation="11.1422"/>
<feComposite in2="hardAlpha" operator="out"/>
<feColorMatrix type="matrix" values="0 0 0 0 0 0 0 0 0 0 0 0 0 0 0 0 0 0 0.02 0"/>
<feBlend mode="normal" in2="effect1_dropShadow_6275_10430" result="effect2_dropShadow_6275_10430"/>
<feBlend mode="normal" in="SourceGraphic" in2="effect2_dropShadow_6275_10430" result="shape"/>
</filter>
<filter id="filter3_dd_6275_10430" x="128.361" y="40.2009" width="83.8411" height="78.7842" filterUnits="userSpaceOnUse" color-interpolation-filters="sRGB">
<feFlood flood-opacity="0" result="BackgroundImageFix"/>
<feColorMatrix in="SourceAlpha" type="matrix" values="0 0 0 0 0 0 0 0 0 0 0 0 0 0 0 0 0 0 127 0" result="hardAlpha"/>
<feOffset dy="2"/>
<feGaussianBlur stdDeviation="1"/>
<feComposite in2="hardAlpha" operator="out"/>
<feColorMatrix type="matrix" values="0 0 0 0 0 0 0 0 0 0 0 0 0 0 0 0 0 0 0.03 0"/>
<feBlend mode="normal" in2="BackgroundImageFix" result="effect1_dropShadow_6275_10430"/>
<feColorMatrix in="SourceAlpha" type="matrix" values="0 0 0 0 0 0 0 0 0 0 0 0 0 0 0 0 0 0 127 0" result="hardAlpha"/>
<feOffset dy="4"/>
<feGaussianBlur stdDeviation="6"/>
<feComposite in2="hardAlpha" operator="out"/>
<feColorMatrix type="matrix" values="0 0 0 0 0 0 0 0 0 0 0 0 0 0 0 0 0 0 0.02 0"/>
<feBlend mode="normal" in2="effect1_dropShadow_6275_10430" result="effect2_dropShadow_6275_10430"/>
<feBlend mode="normal" in="SourceGraphic" in2="effect2_dropShadow_6275_10430" result="shape"/>
</filter>
<clipPath id="clip0_6275_10430">
<rect width="457" height="155" rx="8" fill="white"/>
</clipPath>
<clipPath id="clip1_6275_10430">
<rect width="37.0781" height="37.0781" fill="white" transform="translate(210.603 19.0889) rotate(13.4152)"/>
</clipPath>
</defs>
</svg>
