<svg width="457" height="155" viewBox="0 0 457 155" fill="none" xmlns="http://www.w3.org/2000/svg">
<g clip-path="url(#clip0_6275_9052)">
<rect width="457" height="155" rx="8" fill="#2A2828"/>
<line opacity="0.1" x1="50.5" y1="-203.822" x2="50.5" y2="374.178" stroke="white" stroke-opacity="0.6" stroke-dasharray="2 2"/>
<line opacity="0.1" x1="101.5" y1="-203.822" x2="101.5" y2="374.178" stroke="white" stroke-opacity="0.6" stroke-dasharray="2 2"/>
<line opacity="0.1" x1="152.5" y1="-203.822" x2="152.5" y2="374.178" stroke="white" stroke-opacity="0.6" stroke-dasharray="2 2"/>
<line opacity="0.1" x1="203.5" y1="-203.822" x2="203.5" y2="374.178" stroke="white" stroke-opacity="0.6" stroke-dasharray="2 2"/>
<line opacity="0.1" x1="254.5" y1="-203.822" x2="254.5" y2="374.178" stroke="white" stroke-opacity="0.6" stroke-dasharray="2 2"/>
<line opacity="0.1" x1="305.5" y1="-203.822" x2="305.5" y2="374.178" stroke="white" stroke-opacity="0.6" stroke-dasharray="2 2"/>
<line opacity="0.1" x1="356.5" y1="-203.822" x2="356.5" y2="374.178" stroke="white" stroke-opacity="0.6" stroke-dasharray="2 2"/>
<line opacity="0.1" x1="407.5" y1="-203.822" x2="407.5" y2="374.178" stroke="white" stroke-opacity="0.6" stroke-dasharray="2 2"/>
<line opacity="0.1" x1="495" y1="3.67773" x2="-38" y2="3.67772" stroke="white" stroke-opacity="0.6" stroke-dasharray="2 2"/>
<line opacity="0.1" x1="495" y1="54.6777" x2="-38" y2="54.6777" stroke="white" stroke-opacity="0.6" stroke-dasharray="2 2"/>
<line opacity="0.1" x1="495" y1="105.678" x2="-38" y2="105.678" stroke="white" stroke-opacity="0.6" stroke-dasharray="2 2"/>
<g clip-path="url(#clip1_6275_9052)" filter="url(#filter0_dd_6275_9052)">
<g filter="url(#filter1_dd_6275_9052)">
<path d="M227.919 26.3956L229.067 34.9778C229.228 36.1808 229.309 36.7822 229.528 37.3243C229.722 37.8046 229.995 38.2491 230.336 38.6391C230.721 39.0791 231.222 39.4224 232.222 40.1091L239.362 45.0075L230.78 46.156C229.577 46.317 228.976 46.3975 228.434 46.6165C227.953 46.8106 227.509 47.0839 227.119 47.4249C226.679 47.8098 226.335 48.3101 225.649 49.3109L220.75 56.4509L219.602 47.8686C219.441 46.6657 219.36 46.0642 219.141 45.5222C218.947 45.0418 218.674 44.5974 218.333 44.2074C217.948 43.7673 217.448 43.424 216.447 42.7374L209.307 37.8389L217.889 36.6904C219.092 36.5294 219.694 36.4489 220.236 36.2299C220.716 36.0359 221.16 35.7626 221.55 35.4215C221.991 35.0367 222.334 34.5363 223.02 33.5355L227.919 26.3956Z" fill="#FF0030"/>
<path d="M227.919 26.3956L229.067 34.9778C229.228 36.1808 229.309 36.7822 229.528 37.3243C229.722 37.8046 229.995 38.2491 230.336 38.6391C230.721 39.0791 231.222 39.4224 232.222 40.1091L239.362 45.0075L230.78 46.156C229.577 46.317 228.976 46.3975 228.434 46.6165C227.953 46.8106 227.509 47.0839 227.119 47.4249C226.679 47.8098 226.335 48.3101 225.649 49.3109L220.75 56.4509L219.602 47.8686C219.441 46.6657 219.36 46.0642 219.141 45.5222C218.947 45.0418 218.674 44.5974 218.333 44.2074C217.948 43.7673 217.448 43.424 216.447 42.7374L209.307 37.8389L217.889 36.6904C219.092 36.5294 219.694 36.4489 220.236 36.2299C220.716 36.0359 221.16 35.7626 221.55 35.4215C221.991 35.0367 222.334 34.5363 223.02 33.5355L227.919 26.3956Z" fill="white" fill-opacity="0.4"/>
<path d="M227.919 26.3956L229.067 34.9778C229.228 36.1808 229.309 36.7822 229.528 37.3243C229.722 37.8046 229.995 38.2491 230.336 38.6391C230.721 39.0791 231.222 39.4224 232.222 40.1091L239.362 45.0075L230.78 46.156C229.577 46.317 228.976 46.3975 228.434 46.6165C227.953 46.8106 227.509 47.0839 227.119 47.4249C226.679 47.8098 226.335 48.3101 225.649 49.3109L220.75 56.4509L219.602 47.8686C219.441 46.6657 219.36 46.0642 219.141 45.5222C218.947 45.0418 218.674 44.5974 218.333 44.2074C217.948 43.7673 217.448 43.424 216.447 42.7374L209.307 37.8389L217.889 36.6904C219.092 36.5294 219.694 36.4489 220.236 36.2299C220.716 36.0359 221.16 35.7626 221.55 35.4215C221.991 35.0367 222.334 34.5363 223.02 33.5355L227.919 26.3956Z" stroke="#433F3F" stroke-width="4" stroke-linecap="round" stroke-linejoin="round"/>
</g>
</g>
<g filter="url(#filter2_dd_6275_9052)">
<path d="M173.658 97.2153L176.838 99.6832C177.784 100.418 178.923 100.863 180.114 100.963C181.306 101.064 182.501 100.816 183.553 100.249C184.605 99.6831 185.47 98.8229 186.043 97.7728C186.615 96.7227 186.871 95.528 186.779 94.3334L186.471 90.3194C186.364 88.8943 186.708 87.4726 187.455 86.2571C188.208 85.0362 189.327 84.0861 190.654 83.5429L194.37 82.0267C195.476 81.5747 196.427 80.8106 197.106 79.8271C197.786 78.8436 198.166 77.6829 198.2 76.4858C198.234 75.2889 197.922 74.1067 197.299 73.0826C196.677 72.0586 195.772 71.2367 194.693 70.7167L191.069 68.9682C189.774 68.3381 188.712 67.3126 188.035 66.0399C187.353 64.7741 187.089 63.3257 187.28 61.9025L187.818 57.9142C187.978 56.7279 187.79 55.5196 187.278 54.4361C186.767 53.3526 185.952 52.4403 184.934 51.81C183.916 51.1788 182.738 50.8564 181.543 50.8819C180.348 50.9075 179.187 51.2798 178.2 51.9539L174.887 54.2207C173.703 55.0284 172.294 55.4396 170.86 55.3953C169.43 55.3467 168.051 54.846 166.921 53.9648L163.729 51.5028C162.783 50.7679 161.645 50.3232 160.453 50.2227C159.261 50.1223 158.067 50.3703 157.015 50.9367C155.962 51.5028 155.097 52.3631 154.525 53.4132C153.952 54.4632 153.696 55.658 153.788 56.8525L154.096 60.8665C154.209 62.2955 153.867 63.7223 153.12 64.9425C152.367 66.1635 151.247 67.1135 149.921 67.6568L146.193 69.1788C145.087 69.6309 144.137 70.395 143.457 71.3785C142.778 72.362 142.398 73.5226 142.364 74.7197C142.329 75.9166 142.642 77.0989 143.264 78.1229C143.887 79.147 144.792 79.9689 145.87 80.4889L149.495 82.2373C150.788 82.8617 151.851 83.88 152.532 85.1461C153.214 86.4118 153.478 87.8603 153.287 89.2835L152.75 93.2717C152.59 94.4581 152.777 95.6663 153.289 96.7498C153.801 97.8334 154.615 98.7457 155.633 99.376C156.651 100.006 157.829 100.328 159.024 100.303C160.219 100.277 161.38 99.9054 162.367 99.2321L165.68 96.9652C166.864 96.1575 168.273 95.7464 169.707 95.7906C171.14 95.8352 172.523 96.3341 173.658 97.2153Z" fill="#FF0030"/>
<path d="M174.26 82.9922C178.332 80.8006 179.851 75.7123 177.653 71.6271C175.454 67.542 170.371 66.0069 166.299 68.1985C162.226 70.39 160.707 75.4784 162.906 79.5635C165.104 83.6487 170.188 85.1838 174.26 82.9922Z" fill="#FF0030"/>
<path d="M173.658 97.2153L176.838 99.6832C177.784 100.418 178.923 100.863 180.114 100.963C181.306 101.064 182.501 100.816 183.553 100.249C184.605 99.6831 185.47 98.8229 186.043 97.7728C186.615 96.7227 186.871 95.528 186.779 94.3334L186.471 90.3194C186.364 88.8943 186.708 87.4726 187.455 86.2571C188.208 85.0362 189.327 84.0861 190.654 83.5429L194.37 82.0267C195.476 81.5747 196.427 80.8106 197.106 79.8271C197.786 78.8436 198.166 77.6829 198.2 76.4858C198.234 75.2889 197.922 74.1067 197.299 73.0826C196.677 72.0586 195.772 71.2367 194.693 70.7167L191.069 68.9682C189.774 68.3381 188.712 67.3126 188.035 66.0399C187.353 64.7741 187.089 63.3257 187.28 61.9025L187.818 57.9142C187.978 56.7279 187.79 55.5196 187.278 54.4361C186.767 53.3526 185.952 52.4403 184.934 51.81C183.916 51.1788 182.738 50.8564 181.543 50.8819C180.348 50.9075 179.187 51.2798 178.2 51.9539L174.887 54.2207C173.703 55.0284 172.294 55.4396 170.86 55.3953C169.43 55.3467 168.051 54.846 166.921 53.9648L163.729 51.5028C162.783 50.7679 161.645 50.3232 160.453 50.2227C159.261 50.1223 158.067 50.3703 157.015 50.9367C155.962 51.5028 155.097 52.3631 154.525 53.4132C153.952 54.4632 153.696 55.658 153.788 56.8525L154.096 60.8665C154.209 62.2955 153.867 63.7223 153.12 64.9425C152.367 66.1635 151.247 67.1135 149.921 67.6568L146.193 69.1788C145.087 69.6309 144.137 70.395 143.457 71.3785C142.778 72.362 142.398 73.5226 142.364 74.7197C142.329 75.9166 142.642 77.0989 143.264 78.1229C143.887 79.147 144.792 79.9689 145.87 80.4889L149.495 82.2373C150.788 82.8617 151.851 83.88 152.532 85.1461C153.214 86.4118 153.478 87.8603 153.287 89.2835L152.75 93.2717C152.59 94.4581 152.777 95.6663 153.289 96.7498C153.801 97.8334 154.615 98.7457 155.633 99.376C156.651 100.006 157.829 100.328 159.024 100.303C160.219 100.277 161.38 99.9054 162.367 99.2321L165.68 96.9652C166.864 96.1575 168.273 95.7464 169.707 95.7906C171.14 95.8352 172.523 96.3341 173.658 97.2153Z" stroke="#433F3F" stroke-width="4" stroke-linecap="round" stroke-linejoin="round"/>
<path d="M174.26 82.9922C178.332 80.8006 179.851 75.7123 177.653 71.6271C175.454 67.542 170.371 66.0069 166.299 68.1985C162.226 70.39 160.707 75.4784 162.906 79.5635C165.104 83.6487 170.188 85.1838 174.26 82.9922Z" stroke="#433F3F" stroke-width="4" stroke-linecap="round" stroke-linejoin="round"/>
</g>
<g filter="url(#filter3_dd_6275_9052)">
<path d="M279.247 65.9459C277.762 61.5724 272.099 60.4464 269.054 63.9192L243.931 92.5697C240.886 96.0425 242.742 101.509 247.273 102.41L284.646 109.842C289.176 110.743 292.983 106.402 291.498 102.028L279.247 65.9459Z" fill="white" stroke="#433F3F" stroke-width="4"/>
<path d="M273.539 78.0656C274.095 78.1762 274.448 78.7264 274.317 79.278L271.33 91.8286C271.205 92.3518 270.689 92.6828 270.162 92.5779L267.26 92.0008C266.732 91.8959 266.382 91.3927 266.467 90.8618L268.509 78.123C268.598 77.5632 269.135 77.1898 269.691 77.3004L273.539 78.0656ZM267.325 99.2605C266.512 99.099 265.871 98.6803 265.401 98.0044C264.939 97.3231 264.792 96.5786 264.96 95.7708C265.11 94.981 265.527 94.3631 266.213 93.9172C266.906 93.4726 267.659 93.3311 268.471 93.4927C269.242 93.6459 269.866 94.0612 270.343 94.7384C270.827 95.4169 270.994 96.1511 270.844 96.9409C270.73 97.479 270.489 97.9415 270.121 98.3284C269.761 98.7097 269.334 98.9879 268.841 99.163C268.348 99.3311 267.843 99.3636 267.325 99.2605Z" fill="#433F3F"/>
</g>
</g>
<defs>
<filter id="filter0_dd_6275_9052" x="190" y="11.0889" width="68.6687" height="68.6687" filterUnits="userSpaceOnUse" color-interpolation-filters="sRGB">
<feFlood flood-opacity="0" result="BackgroundImageFix"/>
<feColorMatrix in="SourceAlpha" type="matrix" values="0 0 0 0 0 0 0 0 0 0 0 0 0 0 0 0 0 0 127 0" result="hardAlpha"/>
<feOffset dy="2"/>
<feGaussianBlur stdDeviation="1"/>
<feComposite in2="hardAlpha" operator="out"/>
<feColorMatrix type="matrix" values="0 0 0 0 0 0 0 0 0 0 0 0 0 0 0 0 0 0 0.03 0"/>
<feBlend mode="normal" in2="BackgroundImageFix" result="effect1_dropShadow_6275_9052"/>
<feColorMatrix in="SourceAlpha" type="matrix" values="0 0 0 0 0 0 0 0 0 0 0 0 0 0 0 0 0 0 127 0" result="hardAlpha"/>
<feOffset dy="4"/>
<feGaussianBlur stdDeviation="6"/>
<feComposite in2="hardAlpha" operator="out"/>
<feColorMatrix type="matrix" values="0 0 0 0 0 0 0 0 0 0 0 0 0 0 0 0 0 0 0.02 0"/>
<feBlend mode="normal" in2="effect1_dropShadow_6275_9052" result="effect2_dropShadow_6275_9052"/>
<feBlend mode="normal" in="SourceGraphic" in2="effect2_dropShadow_6275_9052" result="shape"/>
</filter>
<filter id="filter1_dd_6275_9052" x="195.307" y="16.3955" width="58.0554" height="58.0554" filterUnits="userSpaceOnUse" color-interpolation-filters="sRGB">
<feFlood flood-opacity="0" result="BackgroundImageFix"/>
<feColorMatrix in="SourceAlpha" type="matrix" values="0 0 0 0 0 0 0 0 0 0 0 0 0 0 0 0 0 0 127 0" result="hardAlpha"/>
<feOffset dy="2"/>
<feGaussianBlur stdDeviation="1"/>
<feComposite in2="hardAlpha" operator="out"/>
<feColorMatrix type="matrix" values="0 0 0 0 0 0 0 0 0 0 0 0 0 0 0 0 0 0 0.03 0"/>
<feBlend mode="normal" in2="BackgroundImageFix" result="effect1_dropShadow_6275_9052"/>
<feColorMatrix in="SourceAlpha" type="matrix" values="0 0 0 0 0 0 0 0 0 0 0 0 0 0 0 0 0 0 127 0" result="hardAlpha"/>
<feOffset dy="4"/>
<feGaussianBlur stdDeviation="6"/>
<feComposite in2="hardAlpha" operator="out"/>
<feColorMatrix type="matrix" values="0 0 0 0 0 0 0 0 0 0 0 0 0 0 0 0 0 0 0.02 0"/>
<feBlend mode="normal" in2="effect1_dropShadow_6275_9052" result="effect2_dropShadow_6275_9052"/>
<feBlend mode="normal" in="SourceGraphic" in2="effect2_dropShadow_6275_9052" result="shape"/>
</filter>
<filter id="filter2_dd_6275_9052" x="128.361" y="40.2009" width="83.8408" height="78.7842" filterUnits="userSpaceOnUse" color-interpolation-filters="sRGB">
<feFlood flood-opacity="0" result="BackgroundImageFix"/>
<feColorMatrix in="SourceAlpha" type="matrix" values="0 0 0 0 0 0 0 0 0 0 0 0 0 0 0 0 0 0 127 0" result="hardAlpha"/>
<feOffset dy="2"/>
<feGaussianBlur stdDeviation="1"/>
<feComposite in2="hardAlpha" operator="out"/>
<feColorMatrix type="matrix" values="0 0 0 0 0 0 0 0 0 0 0 0 0 0 0 0 0 0 0.03 0"/>
<feBlend mode="normal" in2="BackgroundImageFix" result="effect1_dropShadow_6275_9052"/>
<feColorMatrix in="SourceAlpha" type="matrix" values="0 0 0 0 0 0 0 0 0 0 0 0 0 0 0 0 0 0 127 0" result="hardAlpha"/>
<feOffset dy="4"/>
<feGaussianBlur stdDeviation="6"/>
<feComposite in2="hardAlpha" operator="out"/>
<feColorMatrix type="matrix" values="0 0 0 0 0 0 0 0 0 0 0 0 0 0 0 0 0 0 0.02 0"/>
<feBlend mode="normal" in2="effect1_dropShadow_6275_9052" result="effect2_dropShadow_6275_9052"/>
<feBlend mode="normal" in="SourceGraphic" in2="effect2_dropShadow_6275_9052" result="shape"/>
</filter>
<filter id="filter3_dd_6275_9052" x="228.436" y="51.8721" width="77.3911" height="76.0908" filterUnits="userSpaceOnUse" color-interpolation-filters="sRGB">
<feFlood flood-opacity="0" result="BackgroundImageFix"/>
<feColorMatrix in="SourceAlpha" type="matrix" values="0 0 0 0 0 0 0 0 0 0 0 0 0 0 0 0 0 0 127 0" result="hardAlpha"/>
<feOffset dy="2"/>
<feGaussianBlur stdDeviation="1"/>
<feComposite in2="hardAlpha" operator="out"/>
<feColorMatrix type="matrix" values="0 0 0 0 0 0 0 0 0 0 0 0 0 0 0 0 0 0 0.03 0"/>
<feBlend mode="normal" in2="BackgroundImageFix" result="effect1_dropShadow_6275_9052"/>
<feColorMatrix in="SourceAlpha" type="matrix" values="0 0 0 0 0 0 0 0 0 0 0 0 0 0 0 0 0 0 127 0" result="hardAlpha"/>
<feOffset dy="4"/>
<feGaussianBlur stdDeviation="6"/>
<feComposite in2="hardAlpha" operator="out"/>
<feColorMatrix type="matrix" values="0 0 0 0 0 0 0 0 0 0 0 0 0 0 0 0 0 0 0.02 0"/>
<feBlend mode="normal" in2="effect1_dropShadow_6275_9052" result="effect2_dropShadow_6275_9052"/>
<feBlend mode="normal" in="SourceGraphic" in2="effect2_dropShadow_6275_9052" result="shape"/>
</filter>
<clipPath id="clip0_6275_9052">
<rect width="457" height="155" rx="8" fill="white"/>
</clipPath>
<clipPath id="clip1_6275_9052">
<rect width="37.0781" height="37.0781" fill="white" transform="translate(210.603 19.0889) rotate(13.4152)"/>
</clipPath>
</defs>
</svg>
